<svg id="Camada_1" data-name="Camada 1" xmlns="http://www.w3.org/2000/svg" viewBox="0 0 250 250"><defs><style>.cls-1{fill:#fff;}</style></defs><title>sketches_web</title><path class="cls-1" d="M140.68,55.31c-.63,4.3-8.72,3.87-13,8-9.43,9.1,5.11,35,0,38-3.47,2.07-10.42-9.67-28-15-11.58-3.51-16.59-.84-18,0-4.22,2.53-8.22,8-7,13,1.39,5.73,9.51,10.33,19,8a31.8,31.8,0,0,1-14,6c-5.23.8-6.57-.48-13,0-6,.45-15,1.13-18,7a11,11,0,0,0,1,11,12,12,0,0,0,12.69,4.39,7.85,7.85,0,0,0,.65,6.41,7.17,7.17,0,0,0,5.34,3.6,22.68,22.68,0,0,0-15.68,16.6c-2.08,9.5,3.15,16.85,4,18l4,2.28c.7,5.06,2.52,11.94,8,15.72,9,6.22,18.34-2.43,37,0,15.83,2.06,16.33,9.23,27,8,13.53-1.55,25.47-14.54,31-26,5.86-12.17,5.4-24.5,12-26,3.54-.8,5.58,2.32,10,1,1.36-.41,4.26-1.63,9-10,2.5-4.41,6.55-10.84,7-17,1.58-21.66-25.59-33.95-21-46,2.68-7,12.81-5.13,15.29-13.14,2.53-8.2-5-20-13.53-22.16-5.28-1.32-10.71,1.07-15.56,3.54s-10,5.16-15.43,4.47-4.1-11-7.94-11.45c-1.93-.24-4.2,1.71-4.83,3.74C137.7,50.47,141.1,52.42,140.68,55.31Z"/><path d="M137.78,54.51a5,5,0,0,1-.16.67c.25-.8-.28.2,0-.09s-.49.43-.1.1c.22-.2-.45.28-.61.37s-.47.25-.71.36c-.06,0-.59.26-.27.13s-.16.06-.18.07c-.67.24-1.33.49-2,.72-3,1-6,2.18-8.25,4.43-3.46,3.41-4.26,8.53-4,13.19a80.79,80.79,0,0,0,2.64,14.86c.51,2.1,1,4.2,1.43,6.33,0,.2.07.41.1.61s.13.91.06.39,0,.13,0,.25,0,.41,0,.61,0,.7,0,1c0,.17,0,.34,0,.51,0,.42.21-.72,0-.2a1.38,1.38,0,0,0-.11.41c0,.38.31-.61.14-.3-.35.64.52-.44,0,0,.14-.13.69-.49.24-.23-.16.09.82-.29.37-.18-.11,0,.92,0,.38-.06s.41.11.35.07-.72-.17-.7-.22.77.4.24.09l-.49-.27a20.86,20.86,0,0,1-1.92-1.3l-.47-.36c-.14-.11-.75-.58-.15-.11l-1.27-1c-1-.79-2-1.58-3.07-2.35a68.42,68.42,0,0,0-7-4.64,51.73,51.73,0,0,0-20.86-6.83c-3.78-.31-7.89.09-11.22,2.06-6.08,3.62-10.81,11.39-7.68,18.39,2.68,6,9.86,8.8,16,8.84a25.12,25.12,0,0,0,5.92-.73l-2.31-5.48c-4.15,3-9.06,5.36-14.11,5.79a44.33,44.33,0,0,1-6.41-.24,49.48,49.48,0,0,0-7.6.25c-4.82.45-10.16,1.14-14.18,4.08a13,13,0,0,0-4.19,15.51c2.83,7,10.36,10.07,17.5,8.49l-3.69-3.69a10.77,10.77,0,0,0,.63,8.11,10.38,10.38,0,0,0,8.25,5.69l-.79-5.89a26.15,26.15,0,0,0-16.3,14.25,25.28,25.28,0,0,0,1,21.79,22,22,0,0,0,1.55,2.6c1.25,1.79,3.49,2.66,5.35,3.72l-1.38-1.8c1,6.94,3.79,14.13,10,18,4.79,2.93,10.27,2.42,15.55,1.47,1.45-.26,2.89-.54,4.33-.81.73-.13,1.45-.26,2.18-.37l2-.3a54.5,54.5,0,0,1,11.35-.27,40.22,40.22,0,0,1,10.67,2.31l.84.33c.56.22.19.08.07,0l.51.23c.59.27,1.18.55,1.76.85,1,.51,2,1.07,3,1.61a24.2,24.2,0,0,0,6.31,2.62,22.27,22.27,0,0,0,9.23-.16c7.42-1.52,14.06-6,19.36-11.3a58.43,58.43,0,0,0,12.84-19.27,111.09,111.09,0,0,0,3.86-12c.46-1.64.92-3.27,1.51-4.87.05-.11.4-1,.22-.57.13-.31.27-.62.42-.92a10.69,10.69,0,0,1,1-1.71c-.39.51.13-.11.24-.22s.66-.51.19-.21c.26-.16.51-.32.78-.46-.57.3.15,0,.39-.08,0,0,.52-.06.23,0s.28,0,.35,0c.36,0,0,0-.08,0a5.35,5.35,0,0,1,.55.11,20.83,20.83,0,0,1,2,.65,11.19,11.19,0,0,0,8.49-.31,14.11,14.11,0,0,0,4.59-3.9,65.61,65.61,0,0,0,6.15-9.5,50.1,50.1,0,0,0,5.15-11.45,26,26,0,0,0,.43-10.76c-.87-5.66-3.59-10.9-6.86-15.53-3.14-4.46-6.82-8.48-10.17-12.77.36.46-.06-.09-.19-.26l-.49-.66c-.33-.46-.66-.93-1-1.4a25.78,25.78,0,0,1-1.6-2.74c-.1-.21-.19-.43-.29-.63.23.49.1.28,0-.09a12.8,12.8,0,0,1-.42-1.33c-.05-.21-.08-.41-.13-.62-.17-.7,0,.52,0,0s0-.92,0-1.39.1-.26,0,.1c.07-.22.09-.47.14-.7s.12-.4.19-.6l.09-.26c-.15.39,0,0,.1-.18l.49-.8c-.3.46.13-.15.26-.29l.64-.61c.09-.08.45-.34,0,0l.42-.29c2.16-1.45,4.69-2.21,7-3.45a13,13,0,0,0,6.21-6.92,16.25,16.25,0,0,0,.13-9.76c-1.74-6.51-6.58-13-12.82-15.7A18.1,18.1,0,0,0,173,44.66c-4.39,1.37-8.31,3.8-12.5,5.64A21.82,21.82,0,0,1,155,52a12.27,12.27,0,0,1-2.84.07c-.24,0-.12,0-.53-.1-.21,0-.4-.26.12.06l-.36-.2c-.45-.28.47.25-.11-.13-.08,0-.39-.42-.11-.09s0,0,0-.05c-.14-.25-.31-.5-.45-.76s-.43-1-.18-.34c-.42-1.09-.74-2.21-1.07-3.33-.76-2.51-1.76-5.35-4.47-6.3-3.92-1.37-8.21,2.14-9.18,5.83a7.83,7.83,0,0,0,.79,5.57c.3.64.68,1.24,1,1.87.16.32,0,0,0,0,.07.19.12.37.18.56s0,.52,0,.07q0,.3,0,.6a3,3,0,0,0,3,3,3.08,3.08,0,0,0,3-3,8.87,8.87,0,0,0-1.4-5l-.51-.94c-.23-.45,0,.1-.16-.39a5.29,5.29,0,0,1-.15-.57c0,.11,0,.35,0,0a1.1,1.1,0,0,1,.1-.41,3.3,3.3,0,0,1,1.1-1.26c.26-.16.47-.36.68-.27-.18-.08-.74-.08-.2.08a1.08,1.08,0,0,1-.6-.32c.35.25.16.53,0,0a4,4,0,0,0,.28.48c.15.26.33.81.11.2a49.65,49.65,0,0,0,2.47,6.93c1.56,3,4.24,4.23,7.52,4.28,4.46.06,8.69-1.67,12.62-3.59,3.77-1.84,7.47-4,11.67-4.75a11.08,11.08,0,0,1,5.24.36c.28.1.57.2.85.32-.35-.15.42.22.55.28a17.62,17.62,0,0,1,2,1.26,20,20,0,0,1,5.57,6.64,14.72,14.72,0,0,1,1.93,7.91c0,.19,0,.4-.06.59,0-.06.07-.41,0-.06s-.13.67-.22,1a4.08,4.08,0,0,1-.7,1.62c-.08.14-.59.82-.25.4a8.17,8.17,0,0,1-.63.69,7.92,7.92,0,0,1-.69.61c.45-.36-.33.22-.46.3-2.12,1.37-4.56,2.12-6.78,3.32a12.16,12.16,0,0,0-5.87,6.48c-1.49,4-.07,8.35,2.07,11.86,2.55,4.19,6,7.83,9,11.62.41.5.81,1,1.21,1.51.12.15.56.71.46.57l.53.7c.81,1.09,1.6,2.2,2.35,3.34s1.41,2.23,2,3.4c.31.58.61,1.17.89,1.76.14.3.28.6.41.91s0,0,0-.07c.09.22.18.44.26.66a28.43,28.43,0,0,1,1.18,3.81,15.19,15.19,0,0,1,.52,3.69A21.32,21.32,0,0,1,196.8,135a95.37,95.37,0,0,1-5.43,10,29.17,29.17,0,0,1-5.17,6.66c-.38.38.48-.3.06,0-.15.09-.29.2-.43.3s-.56.28-.82.45.76-.16.3-.13a1.31,1.31,0,0,0-.28.09,4.66,4.66,0,0,1-1.72.27l-.48,0c.14,0,.45.09-.12,0l-.87-.23c-.69-.21-1.36-.48-2-.68a9.22,9.22,0,0,0-5.15-.18c-6.42,1.75-7.86,10-9.39,15.43a73.63,73.63,0,0,1-4.07,11.67,54.53,54.53,0,0,1-5.32,8.82A43.86,43.86,0,0,1,140,201.07a23.92,23.92,0,0,1-8.81,2.36,16.14,16.14,0,0,1-1.84,0l-.73-.06c-.56,0,0,0,.1,0l-.44-.08c-.5-.11-1-.22-1.48-.37-.24-.07-.47-.15-.7-.24s-.91-.36-.52-.19-.28-.13-.41-.19l-.66-.33c-.48-.24-1-.5-1.43-.76-1-.52-1.9-1.06-2.87-1.55a39.71,39.71,0,0,0-8.37-3.23,57.25,57.25,0,0,0-23.1-.69c-2.79.44-5.55,1.05-8.34,1.5l-.92.14c-.6.09.37,0-.23,0s-1.24.13-1.86.16-1.12,0-1.68,0l-.82,0-.35,0c-.38,0,.57.13,0,0s-1.06-.21-1.58-.37l-.67-.23c-.51-.15,0,0,.05,0l-.43-.2a12,12,0,0,1-3.25-2.34,17.45,17.45,0,0,1-4.19-8c-.39-1.43-.57-2.89-.88-4.33-.49-2.25-3.58-3.31-5.43-4.36l1.08,1.08A21.7,21.7,0,0,1,58,176.92c-.31-.53-.6-1.08-.87-1.64-.16-.33-.31-.66-.46-1,.23.52-.2-.55-.24-.65a18.46,18.46,0,0,1-.9-10.53,19.81,19.81,0,0,1,13.59-14.5,3,3,0,0,0,2.15-3.29,3.06,3.06,0,0,0-3-2.61,4.55,4.55,0,0,1-3.1-2.81,5,5,0,0,1-.26-2.42c0-.5-.09.41,0,0l.09-.42c.05-.19.1-.37.17-.56.78-2.28-1.61-4.15-3.69-3.69-4.21.93-8.85-.84-10.4-5a7.71,7.71,0,0,1,.09-6,4.93,4.93,0,0,1,1.53-2c.05,0,.43-.36.09-.09.19-.15.4-.29.61-.43a16,16,0,0,1,1.46-.82,6.07,6.07,0,0,1,1-.42c.51-.18,1-.34,1.54-.48a29.29,29.29,0,0,1,3.19-.7l.81-.13c.6-.09-.71.09.32,0l1.43-.16c1-.11,2.08-.19,3.13-.27,4.31-.32,8.6.59,12.89,0a34.39,34.39,0,0,0,15.9-6.47,3,3,0,0,0-2.31-5.48,16.57,16.57,0,0,1-9.19-.29,12,12,0,0,1-3.41-1.77c.3.22-.27-.22-.35-.3a8.62,8.62,0,0,1-.76-.72c-.1-.1-.54-.6-.43-.46s-.32-.45-.42-.61-.26-.48-.4-.72c-.28-.48-.08-.16,0,0,0-.13-.1-.25-.14-.38a4.58,4.58,0,0,1-.29-1.64,7.82,7.82,0,0,1,1.08-3.78,13,13,0,0,1,5.07-5.07l.64-.31c.46-.24-.43.14-.23.09a3.23,3.23,0,0,0,.49-.18,18.53,18.53,0,0,1,2.47-.6c.34-.06-.22,0-.23,0l.35,0,.76-.06c.65,0,1.31,0,2,0a25,25,0,0,1,4.07.43,50.89,50.89,0,0,1,18.35,7.49c1.11.72,2.19,1.46,3.25,2.24.45.32.89.65,1.34,1l.73.55c.4.31-.24-.18.29.23,1.55,1.2,3.07,2.47,4.71,3.55,2.8,1.83,6.74,2.34,8.51-1.17,1.65-3.28.33-7.69-.44-11-.52-2.26-1.1-4.51-1.62-6.77-.27-1.17-.52-2.35-.75-3.53-.11-.54-.21-1.09-.3-1.64,0-.27-.09-.54-.13-.81s-.17-1.17-.09-.56a32.05,32.05,0,0,1-.23-6.71c0-.28.09-.7,0-.16,0-.23.07-.46.12-.69a13.65,13.65,0,0,1,.38-1.56c.07-.22.15-.42.22-.64.16-.53-.23.4,0-.09s.47-.9.75-1.33c.16-.26.37-.47,0-.09.14-.17.28-.34.43-.49a5.19,5.19,0,0,1,1.22-1,14.93,14.93,0,0,1,3.41-1.64c2.57-1,5.41-1.66,7.5-3.54a6.24,6.24,0,0,0,1.95-3.41,3.08,3.08,0,0,0-2.1-3.69A3,3,0,0,0,137.78,54.51Z"/><path class="cls-1" d="M161.1,63.09c-7.78-2.68-23.53,7.79-25.56,20.37-1.91,11.78,9.33,18.36,5.14,27.85-2.26,5.12-6.08,4.44-9,11-2.78,6.24,0,8.3-2,17-.73,3.1-3.22,13.75-10.73,16.86a13.47,13.47,0,0,1-2.1.66c-4,.81-6.54-1-9.17-1.52-4.46-.86-9.43,2-12,5-4.62,5.39-4.53,14.75,0,19,2.16,2,4.77,2.36,10,3s8.87,1.1,12-1c3.33-2.23,2.41-5,6-9,2.82-3.17,6-4.42,10-6,10.45-4.11,13.47-.57,18-4.56,2.78-2.47,2.87-4.22,7.95-10.3,5.48-6.56,9.15-4.77,14.65-10.78a24.42,24.42,0,0,0,6.43-11.36c.33-1.47,2-9-2-15-3.41-5.1-7.05-3.39-13-9-1.31-1.23-8.26-7.77-8-16,.12-4.09,2-7.93,4-12,2.48-5.07,4.73-7.46,3.8-10.27S161.38,63.19,161.1,63.09Z"/><path d="M161.9,60.2c-5.12-1.68-11,.69-15.3,3.42A32.18,32.18,0,0,0,134,78.1a20.65,20.65,0,0,0-1.62,9.47,28.7,28.7,0,0,0,2.68,9.37c.57,1.26,1.18,2.49,1.76,3.74.12.26.24.52.35.78s.4.92.21.45c.26.64.5,1.28.71,1.94a16.08,16.08,0,0,1,.43,1.69l.09.53s0-.5,0-.14.05.71.05,1.06,0,.54,0,.82c0,.47.08-.46,0,0,0,.14,0,.28-.07.41-.07.33-.15.66-.25,1-.05.15-.1.29-.14.43-.16.46,0,0-.12.31a6.88,6.88,0,0,1-2.18,2.93c-.94.84-2,1.57-2.9,2.43a18.32,18.32,0,0,0-5.14,9.11c-.6,2.66-.33,5.26-.31,7.95a29.46,29.46,0,0,1-1.09,7.74c-.26,1-.55,2-.89,3-.18.54-.37,1.08-.58,1.61-.07.17-.14.34-.2.51,0-.05.16-.39,0-.07s-.31.7-.47,1a24.66,24.66,0,0,1-2.1,3.58l-.26.36c.26-.34,0,.05-.09.1l-.7.78a16.53,16.53,0,0,1-1.37,1.26,8.35,8.35,0,0,1-7.51,1.27,30.13,30.13,0,0,0-4.55-1.27,13.28,13.28,0,0,0-6,.58,18.06,18.06,0,0,0-12.41,16.85c-.18,6.5,3.13,12.94,9.76,14.57a65.54,65.54,0,0,0,11.25,1.49c3.64.23,7.23-.38,10.1-2.77,2.48-2.06,3-5.27,4.79-7.78,1.94-2.69,4.81-4.23,7.82-5.44a45.06,45.06,0,0,1,5.66-2c.8-.21,1.61-.38,2.43-.52.13,0,.9-.14.44-.08l1.13-.12c2.24-.19,4.6-.06,6.77-.71,4.9-1.48,7.18-6.06,10-9.89,2.06-2.8,4.24-5.45,7.18-7.11,2.76-1.56,5.53-2.72,8-4.82a27.83,27.83,0,0,0,9.3-15.75c1.14-6.47.3-14.37-5-18.92-2.17-1.85-4.82-2.62-7.27-4a22.14,22.14,0,0,1-5.48-4.49c-.35-.39-.7-.79-1-1.2a11.92,11.92,0,0,1-1-1.32,22.58,22.58,0,0,1-2.26-4,17.31,17.31,0,0,1-1.05-4,13.94,13.94,0,0,1,.65-5.4,59.85,59.85,0,0,1,5.22-11.11c1.65-3,2.88-6.09,1.3-9.41a10.27,10.27,0,0,0-6-4.87A3,3,0,0,0,160.3,66c.68.24-.43-.25.13.06l.58.31c.15.08.8.52.67.41a5.87,5.87,0,0,1,.81.92c.23.41,0,0,.17.4.07.14.06.59,0-.06,0,.15,0,.33,0,.48.08.46.13-.27,0,.19-.1.3-.17.6-.29.9s0,0,0,0c-.06.14-.13.28-.2.42-.2.39-.4.79-.62,1.18-.91,1.69-1.86,3.36-2.71,5.09-1.87,3.84-3.67,7.7-4.12,12a19.53,19.53,0,0,0,2.13,10.39,30.14,30.14,0,0,0,10.29,11.69c2.21,1.47,4.81,2.17,7,3.61l.33.22c.38.27-.32-.28.05,0,.22.19.43.38.63.59a7.06,7.06,0,0,1,1.21,1.59,13.37,13.37,0,0,1,1.66,4.53,18.69,18.69,0,0,1,.21,4.05c0,.6-.09,1.19-.16,1.79.06-.52,0-.15,0,.12s-.09.52-.14.77a20.31,20.31,0,0,1-3,7.47l-.66.94a2.75,2.75,0,0,1-.28.37c-.4.5-.81,1-1.24,1.46a22.53,22.53,0,0,1-3.16,3.05c-2.26,1.64-4.95,2.53-7.27,4.07-3.28,2.18-5.71,5.25-8,8.39-.74,1-1.44,2-2.14,3.08l-.71,1.06c-.14.19-.28.37-.41.56s.18-.23.18-.23-.16.21-.25.31c-.28.33-.57.65-.89,1l-.56.53-.3.25c-.34.29.38-.25,0,0s-.81.49-1.23.71c.49-.25.23-.08-.13,0s-.44.13-.67.18-.4.06-.58.11c.77-.22.14,0-.12,0-.5.05-1,.07-1.52.1-1.17.06-2.35.12-3.51.26A40.6,40.6,0,0,0,131,164.16c-3.34,1.37-6.52,2.94-9,5.58a18.46,18.46,0,0,0-3.29,4.69A27.39,27.39,0,0,1,117,178c-.18.28,0,0,0,0-.09.11-.2.22-.3.33a2.27,2.27,0,0,1-.54.47,6.42,6.42,0,0,1-.84.5,2.6,2.6,0,0,1-.76.29,9,9,0,0,1-.93.22s-.57.09-.17,0l-.51,0a20.85,20.85,0,0,1-2.5,0,54.67,54.67,0,0,1-9.84-1.3c-.32-.08-.64-.17-1-.27-.12,0-.79-.29-.51-.17s-.43-.23-.55-.29-.74-.5-.52-.33-.39-.36-.49-.47a7.45,7.45,0,0,1-.6-.66c.28.36-.25-.4-.31-.5-.19-.31-.36-.62-.52-.94a12.88,12.88,0,0,1-.65-7.4,11,11,0,0,1,4.09-6.8c2.36-1.86,5.44-3.05,8.3-2.22,1.42.41,2.78,1,4.24,1.28a13.67,13.67,0,0,0,5.66-.05c6.16-1.41,10.11-6.69,12.44-12.23a38.9,38.9,0,0,0,3.24-14.93c0-1.23-.09-2.44-.12-3.66q0-.83,0-1.65c0-.22.08-.77,0-.24a10,10,0,0,1,.21-1.09,12.58,12.58,0,0,1,4.31-7c2.08-1.77,4.09-3.37,5.27-5.92a14.47,14.47,0,0,0,1.13-8.91,30.49,30.49,0,0,0-2.83-7.48,32.59,32.59,0,0,1-2.76-7c-1.23-5.07.7-10.63,4-14.65a31.89,31.89,0,0,1,3.05-3.21,22.85,22.85,0,0,1,3-2.42,28.82,28.82,0,0,1,3.57-2.07l.79-.37c.32-.14,0,0,0,0l.39-.16c.6-.22,1.2-.43,1.82-.6s1.09-.26,1.63-.38-.4,0,.3,0c.24,0,.47,0,.71,0a11.87,11.87,0,0,1,1.46,0c-.58,0-.2,0,.15,0l.69.2a3,3,0,0,0,1.6-5.78Z"/><path d="M78.81,98.84a1.5,1.5,0,0,0,0-3,1.5,1.5,0,0,0,0,3Z"/><path class="cls-1" d="M78.72,97.21A148.36,148.36,0,0,0,93.58,85.75"/><path d="M79.48,98.5A154.39,154.39,0,0,0,94.64,86.81a1.5,1.5,0,0,0-2.12-2.12A147.44,147.44,0,0,1,78,95.91c-1.6,1.08-.1,3.68,1.51,2.59Z"/><path class="cls-1" d="M82.74,105.22l21.37-17.47"/><path d="M83.8,106.28l21.38-17.47c1.49-1.23-.64-3.34-2.13-2.12L81.68,104.16c-1.5,1.22.64,3.33,2.12,2.12Z"/><path class="cls-1" d="M92.79,110.72a156.17,156.17,0,0,0,18.7-15"/><path d="M93.55,112a160.11,160.11,0,0,0,19-15.24c1.42-1.32-.71-3.44-2.12-2.12A155.55,155.55,0,0,1,92,109.42c-1.58,1.09-.08,3.69,1.52,2.59Z"/><path class="cls-1" d="M53.09,129.25a149.54,149.54,0,0,1,18.18-15.44"/><path d="M54.15,130.31A149.74,149.74,0,0,1,72,115.11a1.55,1.55,0,0,0,.54-2.06,1.52,1.52,0,0,0-2-.54A154.48,154.48,0,0,0,52,128.19a1.5,1.5,0,0,0,2.12,2.12Z"/><path class="cls-1" d="M62.57,135.68A140.21,140.21,0,0,1,92.79,107.8"/><path d="M63.63,136.75A139.79,139.79,0,0,1,93.54,109.1c1.59-1.08.09-3.68-1.51-2.59a142.78,142.78,0,0,0-30.52,28.11c-1.2,1.49.91,3.63,2.12,2.13Z"/><path class="cls-1" d="M65.33,142.43a628.57,628.57,0,0,1,61.42-48.54"/><path d="M66.39,143.49q22.62-20.27,47.1-38.3,6.93-5.1,14-10c1.58-1.09.08-3.69-1.51-2.59q-25.15,17.47-48.56,37.3-6.66,5.66-13.16,11.48c-1.44,1.29.69,3.41,2.12,2.12Z"/><path class="cls-1" d="M68,147.72A436,436,0,0,1,140.9,93.88"/><path d="M69.1,148.78a435.2,435.2,0,0,1,55.51-43q8.4-5.49,17-10.58a1.5,1.5,0,0,0-1.52-2.59,439.24,439.24,0,0,0-58,40.89Q74.39,139.89,67,146.66c-1.43,1.3.7,3.42,2.12,2.12Z"/><path class="cls-1" d="M51.64,171.66A489.87,489.87,0,0,1,143,105.18"/><path d="M52.7,172.72a489.78,489.78,0,0,1,69.64-53.46q10.53-6.66,21.37-12.78a1.5,1.5,0,0,0-1.51-2.59,493.68,493.68,0,0,0-72.89,50.3q-9.57,8-18.73,16.41c-1.43,1.31.7,3.43,2.12,2.12Z"/><path class="cls-1" d="M55.91,176.67c22.53-24,54.48-36.63,80.82-56.42"/><path d="M57,177.73C74.6,159,97.81,147.26,119.37,133.8c6.19-3.85,12.28-7.88,18.11-12.25,1.53-1.15,0-3.75-1.51-2.59-20.71,15.52-44.47,26.42-65,42.22a134.61,134.61,0,0,0-16.12,14.43c-1.32,1.41.79,3.53,2.12,2.12Z"/><path class="cls-1" d="M62.1,181.2a282.7,282.7,0,0,1,71.23-49.71"/><path d="M63.16,182.26a281.88,281.88,0,0,1,54-40.48q8.29-4.78,16.91-9c1.73-.84.22-3.43-1.51-2.59a285,285,0,0,0-57.09,37Q68,173.43,61,180.14c-1.4,1.33.72,3.45,2.12,2.12Z"/><path class="cls-1" d="M64.11,188.57a293.62,293.62,0,0,1,30-25.11"/><path d="M65.17,189.63a292.62,292.62,0,0,1,29.69-24.87c1.54-1.13,0-3.74-1.51-2.6a299.53,299.53,0,0,0-30.3,25.35c-1.4,1.34.73,3.46,2.12,2.12Z"/><path class="cls-1" d="M65.08,196.08a243.31,243.31,0,0,1,25.14-20.61"/><path d="M66.14,197.14A243.38,243.38,0,0,1,91,176.77c1.55-1.12.06-3.72-1.52-2.6A251.53,251.53,0,0,0,64,195c-1.42,1.32.71,3.44,2.12,2.12Z"/><path class="cls-1" d="M127.11,80.31c-1.57,1.78-2.35,2.67-2.35,2.68s8.82-9.72,26.35-29.24"/><path d="M126.05,79.25a28.12,28.12,0,0,0-2.58,3c-.67,1,.47,2.71,1.69,2.21a4.65,4.65,0,0,0,1.57-1.36l3-3.3q6-6.63,12-13.29l10.5-11.68c1.28-1.44-.83-3.56-2.13-2.12-8.31,9.25-16.6,18.52-25,27.73l-1,1.12c-.42.46-.62.38.3,0l1.69,2.21c-.42.64.3-.32.43-.47l1.68-1.91c1.28-1.44-.83-3.57-2.12-2.12Z"/><path class="cls-1" d="M166,65.29l20.63-17"/><path d="M167,66.36l20.63-17c1.5-1.22-.64-3.33-2.12-2.12l-20.63,17c-1.49,1.23.64,3.34,2.12,2.13Z"/><path class="cls-1" d="M164.69,78.69a241.79,241.79,0,0,1,25.82-21.11"/><path d="M165.75,79.75a243,243,0,0,1,25.52-20.88c1.56-1.11.06-3.71-1.52-2.59a248.64,248.64,0,0,0-26.12,21.35c-1.41,1.32.72,3.44,2.12,2.12Z"/><path class="cls-1" d="M159.07,92a252,252,0,0,1,37.17-33.51"/><path d="M160.13,93A253.65,253.65,0,0,1,197,59.75c1.53-1.13,0-3.73-1.52-2.59A256.44,256.44,0,0,0,158,90.91c-1.3,1.42.81,3.55,2.12,2.12Z"/><path class="cls-1" d="M160.29,100.16q9.57-10.47,20.11-20"/><path d="M161.35,101.22q9.59-10.45,20.11-20c1.43-1.3-.69-3.42-2.12-2.12q-10.51,9.54-20.11,20c-1.3,1.42.81,3.55,2.12,2.12Z"/><path class="cls-1" d="M171.91,105.5a100,100,0,0,1,13.54-13"/><path d="M173,106.57a99.6,99.6,0,0,1,13.55-13.06,1.52,1.52,0,0,0,0-2.12,1.56,1.56,0,0,0-2.13,0,100.64,100.64,0,0,0-13.54,13,1.54,1.54,0,0,0,0,2.13,1.52,1.52,0,0,0,2.12,0Z"/><path class="cls-1" d="M181.22,116A95.11,95.11,0,0,1,192,105.05"/><path d="M182.28,117.05a95.92,95.92,0,0,1,10.77-10.94,1.5,1.5,0,0,0-2.12-2.12,95.11,95.11,0,0,0-10.77,10.94,1.54,1.54,0,0,0,0,2.12,1.5,1.5,0,0,0,2.12,0Z"/><path class="cls-1" d="M181.19,125.31l14.48-12.62"/><path d="M182.25,126.38l14.48-12.63a1.52,1.52,0,0,0,0-2.12,1.54,1.54,0,0,0-2.12,0l-14.48,12.62a1.5,1.5,0,0,0,2.12,2.13Z"/><path class="cls-1" d="M160.43,150.24l41.93-27.87"/><path d="M161.19,151.54l41.93-27.88c1.6-1.06.1-3.66-1.52-2.59L159.68,149c-1.6,1.06-.1,3.66,1.51,2.59Z"/><path class="cls-1" d="M77.4,199.29a173.27,173.27,0,0,1,24.27-18.43"/><path d="M78.46,200.35a173,173,0,0,1,24-18.19c1.63-1,.13-3.62-1.51-2.59a176.89,176.89,0,0,0-24.58,18.66c-1.44,1.3.69,3.42,2.12,2.12Z"/><path d="M94,197.08a1.5,1.5,0,0,0,0-3,1.5,1.5,0,0,0,0,3Z"/><path class="cls-1" d="M88.14,195.66a3.27,3.27,0,0,0,2.8.35,9.25,9.25,0,0,0,2.59-1.34A193.82,193.82,0,0,0,109.25,183"/><path d="M87.38,197c1.85,1.16,4,.72,5.82-.3,2-1.17,4-2.61,5.86-4q5.77-4.09,11.25-8.59c1.5-1.23-.63-3.34-2.12-2.12q-4.71,3.86-9.67,7.42c-1.62,1.17-3.26,2.3-4.92,3.42-1.25.84-3.14,2.52-4.71,1.54s-3.14,1.57-1.51,2.59Z"/><path class="cls-1" d="M104.09,193.86l92-53.11"/><path d="M104.85,195.15l71.72-41.39L196.87,142a1.5,1.5,0,0,0-1.51-2.59l-71.72,41.39-20.31,11.72a1.5,1.5,0,0,0,1.52,2.59Z"/><path class="cls-1" d="M112.41,195.57q26.9-17.46,55.25-32.54"/><path d="M113.17,196.87q21-13.6,42.84-25.79,6.17-3.44,12.4-6.75c1.71-.91.19-3.5-1.51-2.59q-22.08,11.74-43.33,25-6,3.74-11.92,7.58c-1.61,1-.11,3.64,1.52,2.59Z"/><path class="cls-1" d="M121.5,199.52Q140,188.3,159.63,179"/><path d="M122.25,200.81q18.56-11.2,38.14-20.56c1.74-.84.22-3.42-1.52-2.6q-19.56,9.34-38.13,20.57c-1.65,1-.14,3.59,1.51,2.59Z"/><path class="cls-1" d="M144.25,141.28,135,151.39a8.36,8.36,0,0,0-2.06,3.08,2.88,2.88,0,0,0,1.05,3.3,3.67,3.67,0,0,0,3.34-.32c4.15-2.1,6.77-6.27,9.18-10.24l14.22-23.38c1.17-1.92,2.36-4.26,1.41-6.29a4.27,4.27,0,0,0-4.06-2.2,7.42,7.42,0,0,0-4.38,2c-3.36,3-4.77,7.47-6,11.76l-4.79,16.26"/><path d="M142.13,139.16c-3.07,3.37-6.15,6.72-9.21,10.11-1.51,1.67-2.91,3.48-3.06,5.81a5.68,5.68,0,0,0,2.53,5.19c3.85,2.39,8.57-1.08,11.19-3.82s4.61-6.16,6.6-9.42l7.24-11.91,3.62-6a60.86,60.86,0,0,0,3.36-5.73,8.59,8.59,0,0,0,.75-6.5,7,7,0,0,0-4.67-4.3c-4.42-1.3-8.53,1.68-11,5s-3.77,7.74-5,11.82L140,144.56c-1.09,3.71,4.7,5.3,5.79,1.59l3.24-11c1-3.28,1.81-6.61,3-9.81a13.09,13.09,0,0,1,4.16-6.17,3.07,3.07,0,0,1,2.82-.7c-.05,0,.44.36.39.24a2.13,2.13,0,0,1-.2,1.61,28.33,28.33,0,0,1-2.35,4.11l-3.1,5.1-5.69,9.35c-1.85,3.05-3.65,6.13-5.58,9.13a19.68,19.68,0,0,1-5.34,6.06c-.53.36-1.21.57-1.71.92-.72.48-.27-.39.07.18a3.45,3.45,0,0,0,.32.36v.18q0-.56-.06-.15a3.43,3.43,0,0,1,.5-1.06,19.07,19.07,0,0,1,1.52-1.72l8.55-9.39a3.07,3.07,0,0,0,0-4.24,3,3,0,0,0-4.24,0Z"/><path class="cls-1" d="M148.42,80.37a1.92,1.92,0,0,0,.31-1.17c-.07-.4-.54-.75-.89-.54a.87.87,0,0,0-.35.6,6.36,6.36,0,0,0,.46,4.27"/><path d="M149.72,81.12a3.83,3.83,0,0,0,.52-1.74,2.28,2.28,0,0,0-.76-1.72,2.09,2.09,0,0,0-2.34-.33,2.28,2.28,0,0,0-1.08,1.47,7.85,7.85,0,0,0,.6,5.49,1.51,1.51,0,0,0,2.05.54,1.55,1.55,0,0,0,.54-2.06c-.05-.1-.1-.2-.14-.3l.15.36a6.69,6.69,0,0,1-.45-1.63l.06.4a6.75,6.75,0,0,1,0-1.68l-.05.4a4,4,0,0,1,.2-.91l-.15.35a1.59,1.59,0,0,1,.13-.22l-.24.3.1-.09-.31.24a.3.3,0,0,1,.11-.06l-.36.15a.27.27,0,0,1,.12,0l-.4,0h.12l-.4,0a.27.27,0,0,1,.12,0l-.36-.15a.7.7,0,0,1,.17.09l-.31-.24.19.19-.24-.31a1,1,0,0,1,.1.18l-.15-.36,0,.12-.05-.4a2,2,0,0,1,0,.35l.05-.4a2.38,2.38,0,0,1-.15.5l.15-.36-.15.32a1.5,1.5,0,0,0,2.59,1.51Z"/><path d="M152.31,94.64a1.5,1.5,0,0,0,0-3,1.5,1.5,0,0,0,0,3Z"/><path class="cls-1" d="M152.44,93.37A9.22,9.22,0,0,0,148,99.85a3,3,0,0,0,1.76-2.28"/><path d="M151.68,92.07a10.73,10.73,0,0,0-5.17,7.38,1.51,1.51,0,0,0,2.2,1.7A4.39,4.39,0,0,0,151.17,98a1.69,1.69,0,0,0-.15-1.15,1.55,1.55,0,0,0-.9-.69,1.52,1.52,0,0,0-1.85,1.05c0,.12,0,.24-.07.36a1,1,0,0,0-.1.27c.1-.21.11-.25,0-.1l-.09.16L148,98c.14-.21-.09.1-.13.13s-.33.25-.13.13-.11.08-.15.1l-.34.17,2.2,1.69a10.38,10.38,0,0,1,.52-1.89c.1-.26-.1.21,0,0s.07-.15.11-.22l.22-.44a8.05,8.05,0,0,1,.51-.83c.09-.14.2-.27.29-.4-.05.06-.18.22-.06.07l.19-.23c.21-.23.42-.45.65-.67s.24-.22.37-.32.15-.16.19-.16l-.11.08.07,0a10,10,0,0,1,.87-.57,1.52,1.52,0,0,0,.54-2,1.55,1.55,0,0,0-2.06-.54Z"/><path class="cls-1" d="M149.53,108.09l.85-1.15a1,1,0,1,0,1.91-.49"/><path d="M150.83,108.85l.85-1.15-2.74-.36a1.4,1.4,0,0,0,.14.39,1.52,1.52,0,0,0,.18.36,2.65,2.65,0,0,0,.81.79,2.48,2.48,0,0,0,2,.29,2.54,2.54,0,0,0,1.72-3.11,1.59,1.59,0,0,0-.69-.9,1.5,1.5,0,0,0-2.21,1.69,1.16,1.16,0,0,1,0,.18l0-.4a1,1,0,0,1,0,.25l0-.4a.9.9,0,0,1-.08.28l.15-.36a1.19,1.19,0,0,1-.12.22l.23-.31a1,1,0,0,1-.2.21l.3-.24-.18.11.36-.15-.25.07.4-.06a.81.81,0,0,1-.22,0l.4.06a1.29,1.29,0,0,1-.28-.08l.36.15-.23-.13.31.23a1.34,1.34,0,0,1-.21-.2l.23.3a1.18,1.18,0,0,1-.11-.19l.15.36-.06-.21-.15-.36-.23-.3a1.45,1.45,0,0,0-.87-.41,1.36,1.36,0,0,0-.77.1.69.69,0,0,0-.33.19,1.12,1.12,0,0,0-.39.42l-.86,1.15a1.5,1.5,0,0,0,.54,2,1.47,1.47,0,0,0,1.16.15l.36-.15a1.61,1.61,0,0,0,.54-.53Z"/><path class="cls-1" d="M166.31,128.61l-.48-2.26a1.33,1.33,0,0,0,1.18.89"/><path d="M167.76,128.21l-.48-2.26-2.89.8a2.64,2.64,0,0,0,.33.7,2.76,2.76,0,0,0,.66.7,2.94,2.94,0,0,0,.84.45.66.66,0,0,0,.2.06,4,4,0,0,0,.59.08,1.5,1.5,0,0,0,1.06-.44,1.52,1.52,0,0,0,.44-1.06,1.46,1.46,0,0,0-.44-1.06,1.59,1.59,0,0,0-1.06-.44h-.13l.4,0a1.58,1.58,0,0,1-.31-.09l.36.15a1.64,1.64,0,0,1-.29-.16l.31.23a1.23,1.23,0,0,1-.26-.25l.24.3a1.31,1.31,0,0,1-.17-.28l.15.36,0-.09a1.55,1.55,0,0,0-.69-.9,1.5,1.5,0,0,0-2.05.54l-.15.36a1.55,1.55,0,0,0,0,.8l.48,2.26a1.49,1.49,0,0,0,.69.9,1.59,1.59,0,0,0,1.15.15,1.49,1.49,0,0,0,.9-.69l.15-.36a1.55,1.55,0,0,0,0-.8Z"/><path class="cls-1" d="M155.83,145.21l1.59-1"/><path d="M156.59,146.5l1.58-1a1.53,1.53,0,0,0,.69-.89,1,1,0,0,0,0-.6,1.12,1.12,0,0,0-.18-.56,1.5,1.5,0,0,0-.89-.69l-.4-.05a1.54,1.54,0,0,0-.76.2l-1.58,1a1.55,1.55,0,0,0-.69.9,1.12,1.12,0,0,0,0,.6,1.16,1.16,0,0,0,.18.56,1.45,1.45,0,0,0,.89.68l.4.06a1.45,1.45,0,0,0,.76-.21Z"/><path d="M115.35,165.24v1.4a1.06,1.06,0,0,0,.13.58,1,1,0,0,0,.31.48,1.13,1.13,0,0,0,.48.32,1.14,1.14,0,0,0,.58.12l.4,0a1.49,1.49,0,0,0,.66-.39l.23-.3a1.45,1.45,0,0,0,.21-.76v-1.4a1.14,1.14,0,0,0-.13-.57,1.21,1.21,0,0,0-.31-.49,1.24,1.24,0,0,0-.48-.31,1.29,1.29,0,0,0-.58-.13l-.4.06a1.45,1.45,0,0,0-.66.38l-.24.31a1.5,1.5,0,0,0-.2.75Z"/><path class="cls-1" d="M130.77,196l1.53,9.66"/><path d="M129.33,196.41l1.52,9.66a1.51,1.51,0,0,0,1.85,1.05,1.56,1.56,0,0,0,1.05-1.85l-1.53-9.66a1.5,1.5,0,0,0-1.85-1.05,1.54,1.54,0,0,0-1,1.85Z"/><path class="cls-1" d="M138,191.89a32.09,32.09,0,0,1,3.74,9.39"/><path d="M136.68,192.64a30,30,0,0,1,3.59,9,1.5,1.5,0,1,0,2.89-.8,33.73,33.73,0,0,0-3.89-9.75,1.5,1.5,0,1,0-2.59,1.51Z"/><path class="cls-1" d="M143.11,188.26a12.29,12.29,0,0,1,5.35,9.27"/><path d="M142.35,189.55l.52.37c.13.1-.11-.1.09.08l.22.18a12.27,12.27,0,0,1,1,.94l.42.48.15.18c-.09-.11.08.11.09.13a10.45,10.45,0,0,1,.74,1.13c.21.37.4.75.58,1.14.05.09.08.18,0,0l.13.33.21.61c.13.43.24.86.33,1.3,0,.1,0,.19.05.28s0,.32,0,.1c0,.23.05.47.07.7a1.5,1.5,0,0,0,3,0,14,14,0,0,0-6.1-10.57,1.51,1.51,0,0,0-2.05.54,1.53,1.53,0,0,0,.54,2.05Z"/><path class="cls-1" d="M148.07,181.2l6.56,11"/><path d="M146.77,182l6.56,11a1.5,1.5,0,1,0,2.59-1.51l-6.55-11a1.5,1.5,0,0,0-2.6,1.51Z"/></svg>