<svg id="Camada_1" data-name="Camada 1" xmlns="http://www.w3.org/2000/svg" viewBox="0 0 1366 768"><title>sketches_web</title><path d="M736.75,53.44c3.86,0,3.86-6,0-6s-3.87,6,0,6Z"/><path d="M756.35,24.84c3.86,0,3.86-6,0-6s-3.87,6,0,6Z"/><path d="M702.84,24.84c3.86,0,3.87-6,0-6s-3.86,6,0,6Z"/><path d="M685.89,43.38c3.86,0,3.87-6,0-6s-3.87,6,0,6Z"/><path d="M689.6,74.1c3.86,0,3.87-6,0-6s-3.87,6,0,6Z"/><path d="M646.69,21.66c3.86,0,3.87-6,0-6s-3.87,6,0,6Z"/><path d="M648.81,61.92c3.86,0,3.87-6,0-6s-3.87,6,0,6Z"/><path d="M779.12,76.75c3.87,0,3.87-6,0-6s-3.86,6,0,6Z"/><path d="M799.78,36.49c3.87,0,3.87-6,0-6s-3.86,6,0,6Z"/><path d="M783.89,126c3.86,0,3.87-6,0-6s-3.86,6,0,6Z"/><path d="M781.77,146.15c3.86,0,3.87-6,0-6s-3.86,6,0,6Z"/><path d="M792.37,175.81c3.86,0,3.87-6,0-6s-3.87,6,0,6Z"/><path d="M608.55,46.56c3.86,0,3.87-6,0-6s-3.87,6,0,6Z"/><path d="M581.53,24.84c3.86,0,3.87-6,0-6s-3.86,6,0,6Z"/><path d="M551.87,18.48c3.86,0,3.87-6,0-6s-3.87,6,0,6Z"/><path d="M584.18,50.8c3.86,0,3.87-6,0-6s-3.86,6,0,6Z"/><path d="M545,42.85c3.86,0,3.87-6,0-6s-3.86,6,0,6Z"/><path d="M555.58,69.87c3.86,0,3.86-6,0-6s-3.87,6,0,6Z"/><path d="M516.91,59.27c3.86,0,3.86-6,0-6s-3.87,6,0,6Z"/><path d="M526.44,82.05c3.86,0,3.87-6,0-6s-3.87,6,0,6Z"/><path d="M456,97.41c3.86,0,3.86-6,0-6s-3.87,6,0,6Z"/><path d="M445.64,106.33l-1.06-4.24a3.09,3.09,0,0,0-1.38-1.79,3.37,3.37,0,0,0-2.31-.31,3.08,3.08,0,0,0-1.8,1.38,3.21,3.21,0,0,0-.3,2.31l1.06,4.24a3.11,3.11,0,0,0,1.38,1.8,2.34,2.34,0,0,0,1.12.35,2.3,2.3,0,0,0,1.19,0,3,3,0,0,0,1.79-1.38,3.15,3.15,0,0,0,.31-2.31Z"/><path d="M439,77.28c3.86,0,3.86-6,0-6s-3.87,6,0,6Z"/><path d="M436.39,41.26c3.86,0,3.86-6,0-6s-3.87,6,0,6Z"/><path d="M440.1,16.89c3.86,0,3.86-6,0-6s-3.87,6,0,6Z"/><path d="M414.67,22.72c3.86,0,3.87-6,0-6s-3.87,6,0,6Z"/><path d="M495.84,111.22c3.86,0,3.87-6,0-6s-3.87,6,0,6Z"/><path d="M474.83,143.8c3.86,0,3.86-6,0-6s-3.87,6,0,6Z"/><path d="M465.37,179.52c3.86,0,3.87-6,0-6s-3.87,6,0,6Z"/><path d="M584.26,181.37l-3.15,2.1a2.23,2.23,0,0,0-.84.77,2.2,2.2,0,0,0-.54,1,2.33,2.33,0,0,0-.05,1.2,2.2,2.2,0,0,0,.35,1.11,3,3,0,0,0,1.8,1.38l.79.11a3,3,0,0,0,1.52-.41l3.15-2.1a2.25,2.25,0,0,0,.84-.78,2.2,2.2,0,0,0,.54-1,3.45,3.45,0,0,0-.3-2.31,3.08,3.08,0,0,0-1.8-1.38l-.79-.1a2.89,2.89,0,0,0-1.52.41Z"/><path d="M437,226.8c3.86,0,3.87-6,0-6s-3.87,6,0,6Z"/><path d="M431.75,256.22c3.86,0,3.86-6,0-6s-3.87,6,0,6Z"/><path d="M455.91,267.78c3.86,0,3.87-6,0-6s-3.86,6,0,6Z"/><path d="M402.33,157c3.86,0,3.86-6,0-6s-3.87,6,0,6Z"/><path d="M402.77,197.77c3.86,0,3.87-6,0-6s-3.87,6,0,6Z"/><path d="M378.91,240.67c3.86,0,3.86-6,0-6s-3.87,6,0,6Z"/><path d="M347.69,204.74c3.86,0,3.87-6,0-6s-3.87,6,0,6Z"/><path d="M356.1,177.42c3.86,0,3.86-6,0-6s-3.87,6,0,6Z"/><path d="M356.1,158.51c3.86,0,3.86-6,0-6s-3.87,6,0,6Z"/><path d="M344.54,125.93c3.86,0,3.86-6,0-6s-3.87,6,0,6Z"/><path d="M348.74,95.46c3.86,0,3.87-6,0-6s-3.87,6,0,6Z"/><path d="M346.64,73.4c3.86,0,3.87-6,0-6s-3.87,6,0,6Z"/><path d="M325.62,74.45c3.87,0,3.87-6,0-6s-3.86,6,0,6Z"/><path d="M337.18,42.93c3.86,0,3.87-6,0-6s-3.86,6,0,6Z"/><path d="M320.37,29.27c3.86,0,3.87-6,0-6s-3.87,6,0,6Z"/><path d="M359.25,16.66c3.86,0,3.86-6,0-6s-3.87,6,0,6Z"/><path d="M232.11,47.13c3.86,0,3.87-6,0-6s-3.87,6,0,6Z"/><path d="M235.26,90.21c3.86,0,3.87-6,0-6s-3.86,6,0,6Z"/><path d="M245.77,134.34c3.86,0,3.87-6,0-6s-3.87,6,0,6Z"/><path d="M236.31,157.46c3.86,0,3.87-6,0-6s-3.86,6,0,6Z"/><path d="M274.14,206.84c3.86,0,3.87-6,0-6s-3.87,6,0,6Z"/><path d="M329.83,193.18c3.86,0,3.86-6,0-6s-3.87,6,0,6Z"/><path d="M297.25,218.4c3.87,0,3.87-6,0-6s-3.86,6,0,6Z"/><path d="M324.57,242.57c3.86,0,3.87-6,0-6s-3.86,6,0,6Z"/><path d="M299.36,252c3.86,0,3.86-6,0-6s-3.87,6,0,6Z"/><path d="M247.87,232.06c3.86,0,3.87-6,0-6s-3.87,6,0,6Z"/><path d="M198.49,203.69c3.86,0,3.86-6,0-6s-3.87,6,0,6Z"/><path d="M158.56,198.43c3.86,0,3.87-6,0-6s-3.87,6,0,6Z"/><path d="M180.62,221.55c3.87,0,3.87-6,0-6s-3.86,6,0,6Z"/><path d="M134.39,158.51c3.86,0,3.87-6,0-6s-3.86,6,0,6Z"/><path d="M143.85,111.22c3.86,0,3.87-6,0-6s-3.87,6,0,6Z"/><path d="M117.58,102.82c3.86,0,3.87-6,0-6s-3.87,6,0,6Z"/><path d="M274,77.89c3.86,0,3.86-6,0-6s-3.87,6,0,6Z"/><path d="M80.68,34.91c3.86,0,3.87-6,0-6s-3.86,6,0,6Z"/><path d="M102.87,57.64c3.86,0,3.87-6,0-6s-3.87,6,0,6Z"/><path d="M90.26,85c3.86,0,3.87-6,0-6s-3.86,6,0,6Z"/><path d="M55.59,77.6c3.86,0,3.87-6,0-6s-3.87,6,0,6Z"/><path d="M62.94,106c3.86,0,3.87-6,0-6s-3.86,6,0,6Z"/><path d="M53.49,13.51c3.86,0,3.86-6,0-6s-3.87,6,0,6Z"/><path d="M167.62,36c3.87,0,3.87-6,0-6s-3.86,6,0,6Z"/><path d="M75.55,141.7c3.86,0,3.87-6,0-6s-3.86,6,0,6Z"/><path d="M62.94,181.62c3.86,0,3.87-6,0-6s-3.86,6,0,6Z"/><path d="M51.39,255.17c3.86,0,3.86-6,0-6s-3.87,6,0,6Z"/><path d="M156.46,253.07c3.86,0,3.87-6,0-6s-3.87,6,0,6Z"/><path d="M149.1,290.9c3.86,0,3.87-6,0-6s-3.86,6,0,6Z"/><path d="M175.37,315.07c3.86,0,3.87-6,0-6s-3.87,6,0,6Z"/><path d="M177.47,334c3.86,0,3.87-6,0-6s-3.86,6,0,6Z"/><path d="M136.49,346.59c3.86,0,3.87-6,0-6s-3.86,6,0,6Z"/><path d="M25.41,749.16c3.86,0,3.86-6,0-6s-3.87,6,0,6Z"/><path d="M140.7,379.16c3.86,0,3.86-6,0-6s-3.87,6,0,6Z"/><path d="M202.69,378.11c3.86,0,3.87-6,0-6s-3.87,6,0,6Z"/><path d="M225.81,403.33c3.86,0,3.86-6,0-6s-3.87,6,0,6Z"/><path d="M182.73,420.14c3.86,0,3.86-6,0-6s-3.87,6,0,6Z"/><path d="M25,303.56c3.86,0,3.87-6,0-6s-3.86,6,0,6Z"/><path d="M98.67,420.14c3.86,0,3.87-6,0-6s-3.87,6,0,6Z"/><path d="M181.68,437c3.86,0,3.86-6,0-6s-3.87,6,0,6Z"/><path d="M142.8,445.35c3.86,0,3.87-6,0-6s-3.87,6,0,6Z"/><path d="M181.68,463.22c3.86,0,3.86-6,0-6s-3.87,6,0,6Z"/><path d="M233.16,462.17c3.86,0,3.87-6,0-6s-3.87,6,0,6Z"/><path d="M256.28,462.17c3.86,0,3.86-6,0-6s-3.87,6,0,6Z"/><path d="M306.71,405.43c3.86,0,3.87-6,0-6s-3.87,6,0,6Z"/><path d="M300.41,366.55c3.86,0,3.86-6,0-6s-3.87,6,0,6Z"/><path d="M291,324.52c3.86,0,3.87-6,0-6s-3.87,6,0,6Z"/><path d="M284.65,285.64c3.86,0,3.86-6,0-6s-3.87,6,0,6Z"/><path d="M262.58,273c3.86,0,3.87-6,0-6s-3.87,6,0,6Z"/><path d="M265.73,317.17c3.86,0,3.87-6,0-6s-3.86,6,0,6Z"/><path d="M386.57,278.29c3.86,0,3.86-6,0-6s-3.87,6,0,6Z"/><path d="M420.19,297.2c3.86,0,3.87-6,0-6s-3.87,6,0,6Z"/><path d="M455.85,358c3.86,0,3.87-6,0-6s-3.87,6,0,6Z"/><path d="M458,297.2c3.86,0,3.86-6,0-6s-3.87,6,0,6Z"/><path d="M565.52,324.91c3.86,0,3.87-6,0-6s-3.86,6,0,6Z"/><path d="M386.57,346.59c3.86,0,3.86-6,0-6s-3.87,6,0,6Z"/><path d="M413.89,368.65c3.86,0,3.86-6,0-6s-3.87,6,0,6Z"/><path d="M442.25,419.09c3.87,0,3.87-6,0-6s-3.86,6,0,6Z"/><path d="M422.29,408.58c3.86,0,3.87-6,0-6s-3.87,6,0,6Z"/><path d="M409.68,433.8c3.86,0,3.87-6,0-6s-3.86,6,0,6Z"/><path d="M497.94,349.74c3.86,0,3.87-6,0-6s-3.86,6,0,6Z"/><path d="M521.06,368.65c3.86,0,3.87-6,0-6s-3.87,6,0,6Z"/><path d="M545.23,391.77c3.86,0,3.86-6,0-6s-3.87,6,0,6Z"/><path d="M564.14,399.12c3.86,0,3.87-6,0-6s-3.87,6,0,6Z"/><path d="M627.18,106c3.86,0,3.87-6,0-6s-3.87,6,0,6Z"/><path d="M724.9,114.38c3.86,0,3.87-6,0-6s-3.87,6,0,6Z"/><path d="M756.42,111.22c3.86,0,3.87-6,0-6s-3.87,6,0,6Z"/><path d="M588.31,435.9c3.86,0,3.86-6,0-6s-3.87,6,0,6Z"/><path d="M629.07,373.9c3.86,0,3.86-6,0-6s-3.87,6,0,6Z"/><path d="M886.88,620c3.86,0,3.86-6,0-6s-3.87,6,0,6Z"/><path d="M624,471.62c3.86,0,3.87-6,0-6s-3.87,6,0,6Z"/><path d="M657.65,465.32c3.86,0,3.87-6,0-6s-3.86,6,0,6Z"/><path d="M743.81,420.14c3.86,0,3.87-6,0-6s-3.87,6,0,6Z"/><path d="M757.47,420.14c3.86,0,3.87-6,0-6s-3.87,6,0,6Z"/><path d="M780.59,230c3.86,0,3.86-6,0-6s-3.87,6,0,6Z"/><path d="M811.06,219.45c3.86,0,3.87-6,0-6s-3.87,6,0,6Z"/><path d="M825.77,236.26c3.86,0,3.87-6,0-6s-3.87,6,0,6Z"/><path d="M845.73,228.91c3.86,0,3.87-6,0-6s-3.86,6,0,6Z"/><path d="M838.38,197.38c3.86,0,3.86-6,0-6s-3.87,6,0,6Z"/><path d="M532.07,246.27c3.86,0,3.87-6,0-6s-3.86,6,0,6Z"/><path d="M816.31,151.15c3.86,0,3.87-6,0-6s-3.87,6,0,6Z"/><path d="M838.38,95.46c3.86,0,3.86-6,0-6s-3.87,6,0,6Z"/><path d="M828.92,55.54c3.86,0,3.87-6,0-6s-3.87,6,0,6Z"/><path d="M821.57,34.52c3.86,0,3.86-6,0-6s-3.87,6,0,6Z"/><path d="M677.63,134c3.86,0,3.87-6,0-6s-3.87,6,0,6Z"/><path d="M1091.19,222.38c3.86,0,3.87-6,0-6s-3.87,6,0,6Z"/><path d="M875.15,44c3.86,0,3.87-6,0-6s-3.86,6,0,6Z"/><path d="M894.07,11.41c3.86,0,3.86-6,0-6s-3.87,6,0,6Z"/><path d="M868.85,70.25c3.86,0,3.87-6,0-6s-3.87,6,0,6Z"/><path d="M1054,277.86c3.86,0,3.86-6,0-6s-3.87,6,0,6Z"/><path d="M868.85,95.46c3.86,0,3.87-6,0-6s-3.87,6,0,6Z"/><path d="M840.48,270.93c3.86,0,3.87-6,0-6s-3.87,6,0,6Z"/><path d="M869.9,274.09c3.86,0,3.87-6,0-6s-3.87,6,0,6Z"/><path d="M855.19,310.86c3.86,0,3.87-6,0-6s-3.87,6,0,6Z"/><path d="M878.3,303.51c3.87,0,3.87-6,0-6s-3.86,6,0,6Z"/><path d="M886.71,326.62c3.86,0,3.87-6,0-6s-3.87,6,0,6Z"/><path d="M937.86,378.74c3.86,0,3.87-6,0-6s-3.86,6,0,6Z"/><path d="M889.86,373.91c3.86,0,3.87-6,0-6s-3.86,6,0,6Z"/><path d="M680.65,357.5c3.86,0,3.86-6,0-6s-3.87,6,0,6Z"/><path d="M852,357.09c3.86,0,3.86-6,0-6s-3.87,6,0,6Z"/><path d="M910.88,405.43c3.86,0,3.86-6,0-6s-3.87,6,0,6Z"/><path d="M1001.78,256.55c3.86,0,3.86-6,0-6s-3.87,6,0,6Z"/><path d="M908.78,345.54c3.86,0,3.86-6,0-6s-3.87,6,0,6Z"/><path d="M916.13,323.47c3.86,0,3.87-6,0-6s-3.87,6,0,6Z"/><path d="M914,270.93c3.86,0,3.87-6,0-6s-3.87,6,0,6Z"/><path d="M908.78,242.57c3.86,0,3.86-6,0-6s-3.87,6,0,6Z"/><path d="M904.57,211c3.86,0,3.87-6,0-6s-3.86,6,0,6Z"/><path d="M900.37,180.57c3.86,0,3.87-6,0-6s-3.87,6,0,6Z"/><path d="M887.07,146.81c3.86,0,3.86-6,0-6s-3.87,6,0,6Z"/><path d="M994.46,170.2c3.86,0,3.86-6,0-6s-3.87,6,0,6Z"/><path d="M916.13,178.47c3.86,0,3.87-6,0-6s-3.87,6,0,6Z"/><path d="M1083.28,163.36c3.86,0,3.87-6,0-6s-3.86,6,0,6Z"/><path d="M1016.57,391.39c3.86,0,3.87-6,0-6s-3.86,6,0,6Z"/><path d="M593.43,273c3.87,0,3.87-6,0-6s-3.86,6,0,6Z"/><path d="M919.28,106c3.86,0,3.87-6,0-6s-3.86,6,0,6Z"/><path d="M702.2,244.4c3.86,0,3.86-6,0-6s-3.87,6,0,6Z"/><path d="M1053.75,143.49c3.86,0,3.87-6,0-6s-3.86,6,0,6Z"/><path d="M964.46,31.37c3.86,0,3.87-6,0-6s-3.86,6,0,6Z"/><path d="M716.49,450.61c3.86,0,3.87-6,0-6s-3.86,6,0,6Z"/><path d="M842.58,411.73c3.86,0,3.87-6,0-6s-3.87,6,0,6Z"/><path d="M845.73,432.75c3.86,0,3.87-6,0-6s-3.86,6,0,6Z"/><path d="M852.78,489.71c3.86,0,3.87-6,0-6s-3.86,6,0,6Z"/><path d="M787.94,437c3.86,0,3.87-6,0-6s-3.86,6,0,6Z"/><path d="M862.54,463.22c3.86,0,3.87-6,0-6s-3.86,6,0,6Z"/><path d="M826.82,471.62c3.86,0,3.87-6,0-6s-3.87,6,0,6Z"/><path d="M838.39,522.23c3.86,0,3.87-6,0-6s-3.87,6,0,6Z"/><path d="M899.32,484.23c3.86,0,3.87-6,0-6s-3.87,6,0,6Z"/><path d="M1053.76,361.25c3.86,0,3.87-6,0-6s-3.87,6,0,6Z"/><path d="M925.59,502.09c3.86,0,3.86-6,0-6s-3.87,6,0,6Z"/><path d="M856.18,579.31c3.86,0,3.87-6,0-6s-3.87,6,0,6Z"/><path d="M949.75,521c3.86,0,3.87-6,0-6s-3.86,6,0,6Z"/><path d="M799.5,502.09c3.86,0,3.87-6,0-6s-3.87,6,0,6Z"/><path d="M786.89,471.62c3.86,0,3.87-6,0-6s-3.87,6,0,6Z"/><path d="M753.27,459c3.86,0,3.87-6,0-6s-3.87,6,0,6Z"/><path d="M733.3,480c3.87,0,3.87-6,0-6s-3.86,6,0,6Z"/><path d="M695.48,467.42c3.86,0,3.87-6,0-6s-3.87,6,0,6Z"/><path d="M677.62,489.49c3.86,0,3.86-6,0-6s-3.87,6,0,6Z"/><path d="M730.15,509.45c3.86,0,3.87-6,0-6s-3.86,6,0,6Z"/><path d="M769,516.8c3.86,0,3.87-6,0-6s-3.87,6,0,6Z"/><path d="M688.12,539.92c3.86,0,3.87-6,0-6s-3.86,6,0,6Z"/><path d="M629.28,503.14c3.86,0,3.87-6,0-6s-3.86,6,0,6Z"/><path d="M644,520c3.86,0,3.87-6,0-6s-3.86,6,0,6Z"/><path d="M645,534.67c3.86,0,3.87-6,0-6s-3.86,6,0,6Z"/><path d="M585.15,507.35c3.86,0,3.87-6,0-6s-3.86,6,0,6Z"/><path d="M597.76,541c3.86,0,3.87-6,0-6s-3.87,6,0,6Z"/><path d="M593.56,567.24c3.86,0,3.87-6,0-6s-3.87,6,0,6Z"/><path d="M565.19,527.31c3.86,0,3.87-6,0-6s-3.87,6,0,6Z"/><path d="M483.23,449.56c3.86,0,3.87-6,0-6s-3.86,6,0,6Z"/><path d="M470.62,463.22c3.86,0,3.87-6,0-6s-3.86,6,0,6Z"/><path d="M493.74,481.08c3.86,0,3.87-6,0-6s-3.87,6,0,6Z"/><path d="M525.26,510.5c3.86,0,3.87-6,0-6s-3.87,6,0,6Z"/><path d="M549.43,534.67c3.86,0,3.87-6,0-6s-3.87,6,0,6Z"/><path d="M632.44,595.61c3.86,0,3.86-6,0-6s-3.87,6,0,6Z"/><path d="M633.49,619.77c3.86,0,3.86-6,0-6s-3.87,6,0,6Z"/><path d="M649.25,654.45c3.86,0,3.86-6,0-6s-3.87,6,0,6Z"/><path d="M647.15,661.8c3.86,0,3.86-6,0-6s-3.87,6,0,6Z"/><path d="M596.71,656.55c3.86,0,3.87-6,0-6s-3.87,6,0,6Z"/><path d="M605.12,676.51c3.86,0,3.86-6,0-6s-3.87,6,0,6Z"/><path d="M578.85,678.62c3.86,0,3.87-6,0-6s-3.87,6,0,6Z"/><path d="M646.09,719.59c3.87,0,3.87-6,0-6s-3.86,6,0,6Z"/><path d="M675.52,752.17c3.86,0,3.86-6,0-6s-3.87,6,0,6Z"/><path d="M599.86,731.15c3.86,0,3.87-6,0-6s-3.86,6,0,6Z"/><path d="M590.41,733.25c3.86,0,3.86-6,0-6s-3.87,6,0,6Z"/><path d="M593.56,758.47c3.86,0,3.87-6,0-6s-3.87,6,0,6Z"/><path d="M547.33,760.57c3.86,0,3.86-6,0-6s-3.87,6,0,6Z"/><path d="M524.21,709.09c3.86,0,3.87-6,0-6s-3.87,6,0,6Z"/><path d="M527.36,693.33c3.86,0,3.87-6,0-6s-3.86,6,0,6Z"/><path d="M493.74,702.78c3.86,0,3.87-6,0-6s-3.87,6,0,6Z"/><path d="M536.82,637.64c3.86,0,3.87-6,0-6s-3.87,6,0,6Z"/><path d="M519,640.79c3.86,0,3.86-6,0-6s-3.87,6,0,6Z"/><path d="M499,641.84c3.86,0,3.87-6,0-6s-3.86,6,0,6Z"/><path d="M482.18,643.94c3.86,0,3.87-6,0-6s-3.87,6,0,6Z"/><path d="M465.37,606.12c3.86,0,3.87-6,0-6s-3.87,6,0,6Z"/><path d="M453.81,588.25c3.86,0,3.87-6,0-6s-3.86,6,0,6Z"/><path d="M433.85,597.71c3.86,0,3.87-6,0-6s-3.87,6,0,6Z"/><path d="M420.19,607.17c3.86,0,3.87-6,0-6s-3.87,6,0,6Z"/><path d="M417,574.59c3.86,0,3.86-6,0-6s-3.87,6,0,6Z"/><path d="M410.73,554.63c3.86,0,3.87-6,0-6s-3.86,6,0,6Z"/><path d="M433.85,546.22c3.86,0,3.87-6,0-6s-3.87,6,0,6Z"/><path d="M422.29,504.2c3.86,0,3.87-6,0-6s-3.87,6,0,6Z"/><path d="M391.82,529.41c3.86,0,3.87-6,0-6s-3.87,6,0,6Z"/><path d="M388.67,576.7c3.86,0,3.86-6,0-6s-3.87,6,0,6Z"/><path d="M364.5,560.93c3.86,0,3.87-6,0-6s-3.87,6,0,6Z"/><path d="M345.59,548.33c3.86,0,3.87-6,0-6s-3.87,6,0,6Z"/><path d="M357.15,533.62c3.86,0,3.86-6,0-6s-3.87,6,0,6Z"/><path d="M369.75,511.55c3.87,0,3.87-6,0-6s-3.86,6,0,6Z"/><path d="M325.62,498.94c3.87,0,3.87-6,0-6s-3.86,6,0,6Z"/><path d="M315.12,515.75c3.86,0,3.86-6,0-6s-3.87,6,0,6Z"/><path d="M287.8,493.69c3.86,0,3.87-6,0-6s-3.87,6,0,6Z"/><path d="M312,466.37c3.87,0,3.87-6,0-6s-3.86,6,0,6Z"/><path d="M262.58,527.31c3.86,0,3.87-6,0-6s-3.87,6,0,6Z"/><path d="M268.89,592.46c3.86,0,3.86-6,0-6s-3.87,6,0,6Z"/><path d="M294.1,600.86c3.86,0,3.87-6,0-6s-3.86,6,0,6Z"/><path d="M283.6,634.48c3.86,0,3.86-6,0-6s-3.87,6,0,6Z"/><path d="M308.81,641.84c3.86,0,3.87-6,0-6s-3.86,6,0,6Z"/><path d="M326.68,661.8c3.86,0,3.86-6,0-6s-3.87,6,0,6Z"/><path d="M359.25,687c3.86,0,3.86-6,0-6s-3.87,6,0,6Z"/><path d="M379.21,719.59c3.86,0,3.87-6,0-6s-3.87,6,0,6Z"/><path d="M325.62,703.83c3.87,0,3.87-6,0-6s-3.86,6,0,6Z"/><path d="M336.13,738.51c3.86,0,3.87-6,0-6s-3.87,6,0,6Z"/><path d="M260.48,652.35c3.86,0,3.87-6,0-6s-3.87,6,0,6Z"/><path d="M291,698.58c3.86,0,3.87-6,0-6s-3.87,6,0,6Z"/><path d="M301.46,754.27c3.86,0,3.86-6,0-6s-3.87,6,0,6Z"/><path d="M261.53,723.8c3.86,0,3.87-6,0-6s-3.87,6,0,6Z"/><path d="M243.67,675.46c3.86,0,3.87-6,0-6s-3.87,6,0,6Z"/><path d="M221.6,691.22c3.86,0,3.87-6,0-6s-3.86,6,0,6Z"/><path d="M191.13,671.26c3.86,0,3.87-6,0-6s-3.87,6,0,6Z"/><path d="M235.26,744.81c3.86,0,3.87-6,0-6s-3.86,6,0,6Z"/><path d="M201.64,753.22c3.86,0,3.87-6,0-6s-3.87,6,0,6Z"/><path d="M152.26,697.53c3.86,0,3.86-6,0-6s-3.87,6,0,6Z"/><path d="M134.39,676.51c3.86,0,3.87-6,0-6s-3.86,6,0,6Z"/><path d="M95.52,709.09c3.86,0,3.86-6,0-6s-3.87,6,0,6Z"/><path d="M122.83,722.75c3.87,0,3.87-6,0-6s-3.86,6,0,6Z"/><path d="M24.79,50.44c3.86,0,3.87-6,0-6s-3.87,6,0,6Z"/><path d="M80.81,731.15c3.86,0,3.86-6,0-6s-3.87,6,0,6Z"/><path d="M47.18,715.39c3.86,0,3.87-6,0-6s-3.86,6,0,6Z"/><path d="M442.25,650.25c3.87,0,3.87-6,0-6s-3.86,6,0,6Z"/><path d="M420.19,682.82c3.86,0,3.87-6,0-6s-3.87,6,0,6Z"/><path d="M461.17,690.17c3.86,0,3.86-6,0-6s-3.87,6,0,6Z"/><path d="M432.8,715.39c3.86,0,3.87-6,0-6s-3.87,6,0,6Z"/><path d="M471.67,730.1c3.87,0,3.87-6,0-6s-3.86,6,0,6Z"/><path d="M500,741.66c3.87,0,3.87-6,0-6s-3.86,6,0,6Z"/><path d="M481.13,746.91c3.86,0,3.87-6,0-6s-3.87,6,0,6Z"/><path d="M474.83,756.37c3.86,0,3.86-6,0-6s-3.87,6,0,6Z"/><path d="M492.69,762.67c3.86,0,3.87-6,0-6s-3.87,6,0,6Z"/><path d="M422.29,744.81c3.86,0,3.87-6,0-6s-3.87,6,0,6Z"/><path d="M422.29,762.67c3.86,0,3.87-6,0-6s-3.87,6,0,6Z"/><path d="M960.26,410.68c3.86,0,3.87-6,0-6s-3.87,6,0,6Z"/><path d="M930.41,431.7c3.86,0,3.87-6,0-6s-3.86,6,0,6Z"/><path d="M897.62,444.86c3.86,0,3.86-6,0-6s-3.87,6,0,6Z"/><path d="M950.8,577.75c3.87,0,3.87-6,0-6s-3.86,6,0,6Z"/><path d="M959.21,592.46c3.86,0,3.87-6,0-6s-3.87,6,0,6Z"/><path d="M740.66,570.39c3.86,0,3.87-6,0-6s-3.87,6,0,6Z"/><path d="M712.29,589.3c3.86,0,3.87-6,0-6s-3.87,6,0,6Z"/><path d="M715.44,608.22c3.86,0,3.87-6,0-6s-3.86,6,0,6Z"/><path d="M792.56,631.17c3.86,0,3.87-6,0-6s-3.87,6,0,6Z"/><path d="M751.17,634.48c3.86,0,3.86-6,0-6s-3.87,6,0,6Z"/><path d="M737.51,663.91c3.86,0,3.86-6,0-6s-3.87,6,0,6Z"/><path d="M749.07,683.87c3.86,0,3.86-6,0-6s-3.87,6,0,6Z"/><path d="M1017,749c3.86,0,3.87-6,0-6s-3.87,6,0,6Z"/><path d="M750.12,744.81c3.86,0,3.86-6,0-6s-3.87,6,0,6Z"/><path d="M759.57,769c3.86,0,3.87-6,0-6s-3.86,6,0,6Z"/><path d="M1117.64,65.21c3.86,0,3.87-6,0-6s-3.87,6,0,6Z"/><path d="M1137.24,36.6c3.86,0,3.87-6,0-6s-3.87,6,0,6Z"/><path d="M1083.74,36.6c3.86,0,3.86-6,0-6s-3.87,6,0,6Z"/><path d="M1066.78,55.14c3.87,0,3.87-6,0-6s-3.86,6,0,6Z"/><path d="M1070.49,85.87c3.86,0,3.87-6,0-6s-3.86,6,0,6Z"/><path d="M1027.58,33.42c3.86,0,3.87-6,0-6s-3.86,6,0,6Z"/><path d="M1029.7,73.68c3.86,0,3.87-6,0-6s-3.86,6,0,6Z"/><path d="M1160,88.51c3.86,0,3.86-6,0-6s-3.87,6,0,6Z"/><path d="M1180.68,48.26c3.86,0,3.86-6,0-6s-3.87,6,0,6Z"/><path d="M1164.79,137.78c3.86,0,3.86-6,0-6s-3.87,6,0,6Z"/><path d="M1162.67,157.91c3.86,0,3.86-6,0-6s-3.87,6,0,6Z"/><path d="M1173.26,187.58c3.86,0,3.87-6,0-6s-3.87,6,0,6Z"/><path d="M989.44,58.32c3.86,0,3.87-6,0-6s-3.86,6,0,6Z"/><path d="M702.43,179.6c3.86,0,3.86-6,0-6s-3.87,6,0,6Z"/><path d="M932.76,30.24c3.86,0,3.87-6,0-6s-3.87,6,0,6Z"/><path d="M965.08,62.56c3.86,0,3.86-6,0-6s-3.87,6,0,6Z"/><path d="M958.88,137.61c3.86,0,3.86-6,0-6s-3.87,6,0,6Z"/><path d="M936.47,81.63c3.86,0,3.87-6,0-6s-3.87,6,0,6Z"/><path d="M523.8,302c3.86,0,3.87-6,0-6s-3.87,6,0,6Z"/><path d="M907.33,93.81c3.87,0,3.87-6,0-6s-3.86,6,0,6Z"/><path d="M876.73,123c3.86,0,3.87-6,0-6s-3.86,6,0,6Z"/><path d="M855.72,155.56c3.86,0,3.87-6,0-6s-3.87,6,0,6Z"/><path d="M1102.15,279.13l-3.15,2.1a2.31,2.31,0,0,0-.84.77,2.39,2.39,0,0,0-.54,1,2.33,2.33,0,0,0,0,1.2,2.28,2.28,0,0,0,.36,1.12,3,3,0,0,0,1.79,1.37l.8.11a3,3,0,0,0,1.51-.41l3.15-2.1a2.31,2.31,0,0,0,.84-.77,2.2,2.2,0,0,0,.54-1,2.33,2.33,0,0,0,.06-1.2,2.21,2.21,0,0,0-.36-1.11,3,3,0,0,0-1.79-1.38l-.8-.11a3,3,0,0,0-1.52.41Z"/><path d="M779.42,338.68c3.86,0,3.86-6,0-6s-3.87,6,0,6Z"/><path d="M878.84,361.5c3.86,0,3.86-6,0-6s-3.87,6,0,6Z"/><path d="M974,385.41c3.86,0,3.87-6,0-6s-3.87,6,0,6Z"/><path d="M926.12,403.53c3.86,0,3.87-6,0-6s-3.87,6,0,6Z"/><path d="M966,333.89c3.86,0,3.87-6,0-6s-3.87,6,0,6Z"/><path d="M1008.07,117.73c3.87,0,3.87-6,0-6s-3.86,6,0,6Z"/><path d="M1105.79,126.14c3.86,0,3.87-6,0-6s-3.87,6,0,6Z"/><path d="M1137.31,123c3.86,0,3.87-6,0-6s-3.86,6,0,6Z"/><path d="M969.2,447.66c3.86,0,3.86-6,0-6s-3.87,6,0,6Z"/><path d="M1025,449.66c3.86,0,3.87-6,0-6s-3.87,6,0,6Z"/><path d="M968.77,493.73c3.86,0,3.87-6,0-6s-3.87,6,0,6Z"/><path d="M1004.92,483.39c3.86,0,3.87-6,0-6s-3.86,6,0,6Z"/><path d="M1038.55,477.08c3.86,0,3.86-6,0-6s-3.87,6,0,6Z"/><path d="M1124.7,431.9c3.87,0,3.87-6,0-6s-3.86,6,0,6Z"/><path d="M1138.36,431.9c3.86,0,3.87-6,0-6s-3.86,6,0,6Z"/><path d="M1161.48,241.72c3.86,0,3.87-6,0-6s-3.87,6,0,6Z"/><path d="M1343,254.21c3.86,0,3.87-6,0-6s-3.87,6,0,6Z"/><path d="M1206.66,248c3.86,0,3.87-6,0-6s-3.87,6,0,6Z"/><path d="M1249.62,236.67c3.87,0,3.87-6,0-6s-3.86,6,0,6Z"/><path d="M1219.27,209.15c3.86,0,3.87-6,0-6s-3.87,6,0,6Z"/><path d="M1251,187c3.86,0,3.86-6,0-6s-3.87,6,0,6Z"/><path d="M1197.2,162.92c3.87,0,3.87-6,0-6s-3.86,6,0,6Z"/><path d="M1219.27,107.23c3.86,0,3.87-6,0-6s-3.87,6,0,6Z"/><path d="M1209.81,67.3c3.86,0,3.87-6,0-6s-3.86,6,0,6Z"/><path d="M1202.46,46.28c3.86,0,3.87-6,0-6s-3.87,6,0,6Z"/><path d="M1224.52,14.76c3.86,0,3.87-6,0-6s-3.86,6,0,6Z"/><path d="M1236.08,64.15c3.86,0,3.87-6,0-6s-3.87,6,0,6Z"/><path d="M1256.05,55.74c3.86,0,3.86-6,0-6s-3.87,6,0,6Z"/><path d="M1275,23.17c3.86,0,3.87-6,0-6s-3.87,6,0,6Z"/><path d="M1279.74,85c3.86,0,3.87-6,0-6s-3.87,6,0,6Z"/><path d="M1024.88,214.62c3.86,0,3.87-6,0-6s-3.87,6,0,6Z"/><path d="M1249.74,107.23c3.86,0,3.87-6,0-6s-3.87,6,0,6Z"/><path d="M1221.37,282.7c3.86,0,3.87-6,0-6s-3.87,6,0,6Z"/><path d="M1250.79,285.85c3.86,0,3.87-6,0-6s-3.87,6,0,6Z"/><path d="M1236.08,322.63c3.86,0,3.87-6,0-6s-3.87,6,0,6Z"/><path d="M1259.2,315.27c3.86,0,3.86-6,0-6s-3.87,6,0,6Z"/><path d="M1267.6,338.39c3.86,0,3.87-6,0-6s-3.86,6,0,6Z"/><path d="M1270.76,361.5c3.86,0,3.86-6,0-6s-3.87,6,0,6Z"/><path d="M1270.76,385.67c3.86,0,3.86-6,0-6s-3.87,6,0,6Z"/><path d="M1076.54,378.26c3.86,0,3.87-6,0-6s-3.87,6,0,6Z"/><path d="M1232.93,368.86c3.86,0,3.87-6,0-6s-3.87,6,0,6Z"/><path d="M1291.77,417.19c3.86,0,3.87-6,0-6s-3.87,6,0,6Z"/><path d="M1289.67,378.31c3.86,0,3.87-6,0-6s-3.87,6,0,6Z"/><path d="M1319.67,374.3c3.86,0,3.87-6,0-6s-3.87,6,0,6Z"/><path d="M1303,321.23c3.86,0,3.87-6,0-6s-3.86,6,0,6Z"/><path d="M1294.92,282.7c3.86,0,3.87-6,0-6s-3.87,6,0,6Z"/><path d="M1289.67,254.33c3.86,0,3.87-6,0-6s-3.87,6,0,6Z"/><path d="M1285.47,222.81c3.86,0,3.86-6,0-6s-3.87,6,0,6Z"/><path d="M1281.26,192.34c3.86,0,3.87-6,0-6s-3.86,6,0,6Z"/><path d="M1275,176.57c3.86,0,3.87-6,0-6s-3.87,6,0,6Z"/><path d="M1263.35,146c3.86,0,3.87-6,0-6s-3.87,6,0,6Z"/><path d="M1331,205.23c3.86,0,3.87-6,0-6s-3.86,6,0,6Z"/><path d="M1300.18,167.12c3.86,0,3.86-6,0-6s-3.87,6,0,6Z"/><path d="M1330.47,297.15c3.86,0,3.86-6,0-6s-3.87,6,0,6Z"/><path d="M1330.33,139.8c3.86,0,3.86-6,0-6s-3.87,6,0,6Z"/><path d="M1300.18,117.73c3.86,0,3.86-6,0-6s-3.87,6,0,6Z"/><path d="M1319.09,85.16c3.86,0,3.87-6,0-6s-3.87,6,0,6Z"/><path d="M1330.65,66.25c3.86,0,3.86-6,0-6s-3.87,6,0,6Z"/><path d="M1355.36,43.13c3.86,0,3.86-6,0-6s-3.87,6,0,6Z"/><path d="M1173.39,357.37c3.86,0,3.86-6,0-6s-3.87,6,0,6Z"/><path d="M1223.47,423.49c3.86,0,3.87-6,0-6s-3.86,6,0,6Z"/><path d="M1226.62,444.51c3.87,0,3.87-6,0-6s-3.86,6,0,6Z"/><path d="M1261.68,477.47c3.86,0,3.86-6,0-6s-3.87,6,0,6Z"/><path d="M1168.84,448.71c3.86,0,3.86-6,0-6s-3.87,6,0,6Z"/><path d="M1277.44,488c3.86,0,3.86-6,0-6s-3.87,6,0,6Z"/><path d="M1207.71,483.39c3.86,0,3.87-6,0-6s-3.87,6,0,6Z"/><path d="M1240.28,496c3.87,0,3.87-6,0-6s-3.86,6,0,6Z"/><path d="M1310.21,466c3.86,0,3.87-6,0-6s-3.87,6,0,6Z"/><path d="M1268.65,517c3.86,0,3.87-6,0-6s-3.86,6,0,6Z"/><path d="M1316.48,513.86c3.86,0,3.87-6,0-6s-3.87,6,0,6Z"/><path d="M1308.07,539.07c3.86,0,3.87-6,0-6s-3.86,6,0,6Z"/><path d="M1340.65,532.77c3.86,0,3.86-6,0-6s-3.87,6,0,6Z"/><path d="M1180.39,513.86c3.86,0,3.87-6,0-6s-3.86,6,0,6Z"/><path d="M1167.78,483.39c3.87,0,3.87-6,0-6s-3.86,6,0,6Z"/><path d="M1134.16,470.78c3.86,0,3.87-6,0-6s-3.87,6,0,6Z"/><path d="M1114.2,491.79c3.86,0,3.86-6,0-6s-3.87,6,0,6Z"/><path d="M1076.37,479.18c3.86,0,3.87-6,0-6s-3.87,6,0,6Z"/><path d="M1058.51,501.25c3.86,0,3.87-6,0-6s-3.87,6,0,6Z"/><path d="M1111.05,521.21c3.86,0,3.86-6,0-6s-3.87,6,0,6Z"/><path d="M1149.92,528.57c3.86,0,3.87-6,0-6s-3.86,6,0,6Z"/><path d="M1069,551.68c3.86,0,3.86-6,0-6s-3.87,6,0,6Z"/><path d="M1010.18,514.91c3.86,0,3.86-6,0-6s-3.87,6,0,6Z"/><path d="M1024.89,531.72c3.86,0,3.86-6,0-6s-3.87,6,0,6Z"/><path d="M1025.94,546.43c3.86,0,3.86-6,0-6s-3.87,6,0,6Z"/><path d="M966.05,519.11c3.86,0,3.86-6,0-6s-3.87,6,0,6Z"/><path d="M978.65,552.73c3.87,0,3.87-6,0-6s-3.86,6,0,6Z"/><path d="M974.45,579c3.86,0,3.87-6,0-6s-3.87,6,0,6Z"/><path d="M1030.08,327.07c3.86,0,3.87-6,0-6s-3.87,6,0,6Z"/><path d="M733.13,256.32c3.86,0,3.86-6,0-6s-3.87,6,0,6Z"/><path d="M900.52,578c3.86,0,3.86-6,0-6s-3.87,6,0,6Z"/><path d="M874.63,492.84c3.86,0,3.87-6,0-6s-3.86,6,0,6Z"/><path d="M906.15,522.26c3.87,0,3.87-6,0-6s-3.86,6,0,6Z"/><path d="M930.32,546.43c3.86,0,3.87-6,0-6s-3.87,6,0,6Z"/><path d="M1013.33,607.37c3.86,0,3.87-6,0-6s-3.87,6,0,6Z"/><path d="M1014.38,631.54c3.86,0,3.87-6,0-6s-3.87,6,0,6Z"/><path d="M1030.14,666.21c3.86,0,3.87-6,0-6s-3.87,6,0,6Z"/><path d="M1091,688.57c3.86,0,3.87-6,0-6s-3.87,6,0,6Z"/><path d="M977.6,668.31c3.86,0,3.87-6,0-6s-3.86,6,0,6Z"/><path d="M986,688.28c3.86,0,3.87-6,0-6s-3.87,6,0,6Z"/><path d="M959.74,690.38c3.86,0,3.87-6,0-6s-3.87,6,0,6Z"/><path d="M1027,731.36c3.86,0,3.86-6,0-6s-3.87,6,0,6Z"/><path d="M1056.41,763.93c3.86,0,3.86-6,0-6s-3.87,6,0,6Z"/><path d="M980.76,742.91c3.86,0,3.86-6,0-6s-3.87,6,0,6Z"/><path d="M971.3,745c3.86,0,3.87-6,0-6s-3.87,6,0,6Z"/><path d="M905.1,720.85c3.86,0,3.87-6,0-6s-3.86,6,0,6Z"/><path d="M908.26,705.09c3.86,0,3.86-6,0-6s-3.87,6,0,6Z"/><path d="M874.63,714.54c3.86,0,3.87-6,0-6s-3.86,6,0,6Z"/><path d="M917.71,649.4c3.86,0,3.87-6,0-6s-3.86,6,0,6Z"/><path d="M854.85,650.55c3.86,0,3.87-6,0-6s-3.87,6,0,6Z"/><path d="M810.89,702.6c3.86,0,3.86-6,0-6s-3.87,6,0,6Z"/><path d="M799.07,589.7c3.87,0,3.87-6,0-6s-3.86,6,0,6Z"/><path d="M852.57,741.86c3.86,0,3.86-6,0-6s-3.87,6,0,6Z"/><path d="M880.94,753.42c3.86,0,3.86-6,0-6s-3.87,6,0,6Z"/><path d="M862,758.68c3.86,0,3.87-6,0-6s-3.86,6,0,6Z"/><path d="M855.72,768.13c3.86,0,3.87-6,0-6s-3.87,6,0,6Z"/><path d="M1351.15,422.44c3.86,0,3.87-6,0-6s-3.86,6,0,6Z"/><path d="M1354.31,443.46c3.86,0,3.86-6,0-6s-3.87,6,0,6Z"/><path d="M1340.51,345.62c3.86,0,3.87-6,0-6s-3.87,6,0,6Z"/><path d="M1311.7,589.51c3.86,0,3.86-6,0-6s-3.87,6,0,6Z"/><path d="M1320.1,604.22c3.86,0,3.87-6,0-6s-3.86,6,0,6Z"/><path d="M1121.55,582.15c3.86,0,3.87-6,0-6s-3.86,6,0,6Z"/><path d="M1093.18,601.07c3.86,0,3.87-6,0-6s-3.86,6,0,6Z"/><path d="M1096.34,620c3.86,0,3.86-6,0-6s-3.87,6,0,6Z"/><path d="M1180.45,589.93c3.86,0,3.87-6,0-6s-3.87,6,0,6Z"/><path d="M1132.06,646.25c3.86,0,3.87-6,0-6s-3.87,6,0,6Z"/><path d="M1118.4,675.67c3.86,0,3.87-6,0-6s-3.87,6,0,6Z"/><path d="M1130,695.63c3.86,0,3.87-6,0-6s-3.87,6,0,6Z"/><path d="M268.89,427.78c3.86,0,3.87-6,0-6s-3.86,6,0,6Z"/><path d="M1131,756.57c3.86,0,3.87-6,0-6s-3.87,6,0,6Z"/><path d="M621.05,192.73c3.86,0,3.87-6,0-6s-3.87,6,0,6Z"/><path d="M608.44,162.25c3.86,0,3.87-6,0-6s-3.87,6,0,6Z"/><path d="M574.82,149.65c3.86,0,3.86-6,0-6s-3.87,6,0,6Z"/><path d="M554.85,170.66c3.86,0,3.87-6,0-6s-3.86,6,0,6Z"/><path d="M551.7,200.08c3.86,0,3.87-6,0-6s-3.87,6,0,6Z"/><path d="M590.58,207.44c3.86,0,3.87-6,0-6s-3.87,6,0,6Z"/><path d="M1274.31,574.8c3.86,0,3.86-6,0-6s-3.87,6,0,6Z"/><path d="M1218.94,548.72c3.86,0,3.86-6,0-6s-3.87,6,0,6Z"/><path d="M1228.09,595.63c3.86,0,3.87-6,0-6s-3.87,6,0,6Z"/><path d="M1272.21,611.58c3.86,0,3.86-6,0-6s-3.87,6,0,6Z"/><path d="M1311.81,650.9c3.86,0,3.87-6,0-6s-3.86,6,0,6Z"/><path d="M1271.15,668.32c3.87,0,3.87-6,0-6s-3.86,6,0,6Z"/><path d="M1319.71,690.28c3.86,0,3.87-6,0-6s-3.86,6,0,6Z"/><path d="M1204.55,644c3.86,0,3.87-6,0-6s-3.87,6,0,6Z"/><path d="M1180.26,702.77c3.86,0,3.87-6,0-6s-3.87,6,0,6Z"/><path d="M1239.22,653.41c3.86,0,3.87-6,0-6s-3.86,6,0,6Z"/><path d="M1234,695.44c3.86,0,3.87-6,0-6s-3.87,6,0,6Z"/><path d="M1263.39,698.59c3.86,0,3.87-6,0-6s-3.87,6,0,6Z"/><path d="M1212.68,752.37c3.86,0,3.87-6,0-6s-3.87,6,0,6Z"/><path d="M1291.8,728c3.86,0,3.86-6,0-6s-3.87,6,0,6Z"/><path d="M1330.2,754.13c3.86,0,3.87-6,0-6s-3.87,6,0,6Z"/><path d="M752.7,302c3.86,0,3.87-6,0-6s-3.87,6,0,6Z"/><path d="M756.41,332.76c3.86,0,3.87-6,0-6s-3.87,6,0,6Z"/><path d="M713.5,280.32c3.86,0,3.87-6,0-6s-3.87,6,0,6Z"/><path d="M715.62,320.58c3.86,0,3.87-6,0-6s-3.87,6,0,6Z"/><path d="M675.36,305.22c3.86,0,3.87-6,0-6s-3.87,6,0,6Z"/><path d="M648.34,283.5c3.86,0,3.87-6,0-6s-3.86,6,0,6Z"/><path d="M651,309.45c3.86,0,3.87-6,0-6s-3.87,6,0,6Z"/><path d="M121.24,510.84c3.86,0,3.87-6,0-6s-3.86,6,0,6Z"/><path d="M146.46,518.19c3.86,0,3.87-6,0-6s-3.87,6,0,6Z"/><path d="M47.32,527.16c3.86,0,3.87-6,0-6s-3.86,6,0,6Z"/><path d="M196.9,563.37c3.86,0,3.86-6,0-6s-3.87,6,0,6Z"/><path d="M216.86,596c3.86,0,3.87-6,0-6s-3.87,6,0,6Z"/><path d="M163.27,580.19c3.86,0,3.87-6,0-6s-3.86,6,0,6Z"/><path d="M173.78,614.86c3.86,0,3.87-6,0-6s-3.87,6,0,6Z"/><path d="M36.13,492.7c3.86,0,3.86-6,0-6s-3.87,6,0,6Z"/><path d="M128.6,574.93c3.86,0,3.87-6,0-6s-3.87,6,0,6Z"/><path d="M63.11,634.62c3.86,0,3.86-6,0-6s-3.87,6,0,6Z"/><path d="M99.18,600.15c3.86,0,3.87-6,0-6s-3.87,6,0,6Z"/><path d="M81.32,551.82c3.86,0,3.86-6,0-6s-3.87,6,0,6Z"/><path d="M1130.12,189.08c3.86,0,3.87-6,0-6s-3.87,6,0,6Z"/><path d="M1137.23,255.73c3.87,0,3.87-6,0-6s-3.86,6,0,6Z"/><path d="M1146.64,307.84c3.86,0,3.87-6,0-6s-3.87,6,0,6Z"/><path d="M1197.79,360c3.86,0,3.87-6,0-6s-3.86,6,0,6Z"/><path d="M1350.79,638.12c3.86,0,3.87-6,0-6s-3.86,6,0,6Z"/><path d="M1112,338.31c3.86,0,3.86-6,0-6s-3.87,6,0,6Z"/><path d="M1170.81,386.65c3.86,0,3.86-6,0-6s-3.87,6,0,6Z"/><path d="M1168.71,326.75c3.86,0,3.86-6,0-6s-3.87,6,0,6Z"/><path d="M1176.06,304.69c3.86,0,3.87-6,0-6s-3.87,6,0,6Z"/><path d="M1102.51,393c3.86,0,3.87-6,0-6s-3.87,6,0,6Z"/><path d="M1138.77,342.72c3.86,0,3.86-6,0-6s-3.87,6,0,6Z"/><path d="M1186.05,384.75c3.86,0,3.87-6,0-6s-3.87,6,0,6Z"/><path d="M703.26,418.41c3.86,0,3.87-6,0-6s-3.86,6,0,6Z"/><path d="M683.3,427.87c3.86,0,3.87-6,0-6s-3.87,6,0,6Z"/><path d="M669.64,437.32c3.86,0,3.87-6,0-6s-3.87,6,0,6Z"/><path d="M666.49,404.75c3.86,0,3.87-6,0-6s-3.87,6,0,6Z"/><path d="M359.18,398.79c3.86,0,3.87-6,0-6s-3.86,6,0,6Z"/><path d="M683.3,376.38c3.86,0,3.87-6,0-6s-3.87,6,0,6Z"/><path d="M659.74,222.35c3.86,0,3.87-6,0-6s-3.87,6,0,6Z"/><path d="M641.27,359.57c3.86,0,3.87-6,0-6s-3.87,6,0,6Z"/><path d="M638.12,406.85c3.86,0,3.87-6,0-6s-3.87,6,0,6Z"/><path d="M552,475.09c3.86,0,3.87-6,0-6s-3.87,6,0,6Z"/><path d="M595,378.48c3.86,0,3.87-6,0-6s-3.87,6,0,6Z"/><path d="M620.6,326.77c3.86,0,3.86-6,0-6s-3.87,6,0,6Z"/><path d="M784.21,384.71c3.86,0,3.86-6,0-6s-3.87,6,0,6Z"/><path d="M50.88,209.77c3.86,0,3.87-6,0-6s-3.87,6,0,6Z"/><path d="M90.81,204.51c3.86,0,3.86-6,0-6s-3.87,6,0,6Z"/><path d="M68.74,227.63c3.86,0,3.87-6,0-6s-3.86,6,0,6Z"/><path d="M115,164.59c3.87,0,3.87-6,0-6s-3.86,6,0,6Z"/><path d="M105.52,117.3c3.86,0,3.87-6,0-6s-3.87,6,0,6Z"/><path d="M301.79,141.9c3.86,0,3.86-6,0-6s-3.87,6,0,6Z"/><path d="M122.33,69c3.86,0,3.87-6,0-6s-3.87,6,0,6Z"/><path d="M129.68,28c3.87,0,3.87-6,0-6s-3.86,6,0,6Z"/><path d="M146.5,63.72c3.86,0,3.86-6,0-6s-3.87,6,0,6Z"/><path d="M159.1,91c3.87,0,3.87-6,0-6s-3.86,6,0,6Z"/><path d="M193.78,83.68c3.86,0,3.87-6,0-6s-3.87,6,0,6Z"/><path d="M186.42,112.05c3.86,0,3.87-6,0-6s-3.86,6,0,6Z"/><path d="M195.88,19.59c3.86,0,3.87-6,0-6s-3.87,6,0,6Z"/><path d="M213.74,9.08c3.86,0,3.87-6,0-6s-3.86,6,0,6Z"/><path d="M173.81,147.77c3.87,0,3.87-6,0-6s-3.86,6,0,6Z"/><path d="M186.42,187.7c3.86,0,3.87-6,0-6s-3.86,6,0,6Z"/><path d="M198,261.25c3.86,0,3.87-6,0-6s-3.87,6,0,6Z"/><path d="M92.91,259.15c3.86,0,3.87-6,0-6s-3.87,6,0,6Z"/><path d="M100.26,297c3.87,0,3.87-6,0-6s-3.86,6,0,6Z"/><path d="M74,321.14c3.86,0,3.86-6,0-6s-3.87,6,0,6Z"/><path d="M71.89,340.06c3.87,0,3.87-6,0-6s-3.86,6,0,6Z"/><path d="M112.87,352.66c3.86,0,3.87-6,0-6s-3.86,6,0,6Z"/><path d="M94,385.24c3.86,0,3.87-6,0-6s-3.87,6,0,6Z"/><path d="M364.67,451.24c3.86,0,3.87-6,0-6s-3.87,6,0,6Z"/><path d="M66.64,426.22c3.86,0,3.87-6,0-6s-3.87,6,0,6Z"/><path d="M143.34,393.64c3.86,0,3.87-6,0-6s-3.86,6,0,6Z"/><path d="M150.7,426.22c3.86,0,3.87-6,0-6s-3.87,6,0,6Z"/><path d="M35.69,379c3.86,0,3.87-6,0-6s-3.87,6,0,6Z"/><path d="M106.57,451.43c3.86,0,3.87-6,0-6s-3.87,6,0,6Z"/><path d="M67.69,469.29c3.86,0,3.87-6,0-6s-3.87,6,0,6Z"/><path d="M58.24,677.34c3.86,0,3.86-6,0-6s-3.87,6,0,6Z"/><path d="M25.11,619.61c3.86,0,3.87-6,0-6s-3.86,6,0,6Z"/><path d="M115,682.59c3.87,0,3.87-6,0-6s-3.86,6,0,6Z"/><path d="M153.85,715.16c3.86,0,3.87-6,0-6s-3.87,6,0,6Z"/><path d="M25.53,141.82c3.86,0,3.87-6,0-6s-3.86,6,0,6Z"/><path d="M189.58,722.52c3.86,0,3.86-6,0-6s-3.87,6,0,6Z"/><path d="M168.56,737.23c3.86,0,3.87-6,0-6s-3.87,6,0,6Z"/><path d="M202.18,721.47c3.87,0,3.87-6,0-6s-3.86,6,0,6Z"/><path d="M549.12,589.92c3.86,0,3.87-6,0-6s-3.86,6,0,6Z"/><path d="M102.91,524.27c3.86,0,3.86-6,0-6s-3.87,6,0,6Z"/><path d="M202,533.24c3.87,0,3.87-6,0-6s-3.86,6,0,6Z"/><path d="M52.47,569.45c3.86,0,3.87-6,0-6s-3.87,6,0,6Z"/><path d="M86.1,586.26c3.86,0,3.86-6,0-6s-3.87,6,0,6Z"/><path d="M75.59,620.94c3.86,0,3.86-6,0-6s-3.87,6,0,6Z"/><path d="M186.24,463.78c3.86,0,3.87-6,0-6s-3.87,6,0,6Z"/><path d="M481.77,541c3.86,0,3.87-6,0-6s-3.87,6,0,6Z"/><path d="M186.26,640.7c3.86,0,3.87-6,0-6s-3.87,6,0,6Z"/><path d="M150.19,606.23c3.86,0,3.87-6,0-6s-3.87,6,0,6Z"/><path d="M168.05,557.89c3.86,0,3.87-6,0-6s-3.87,6,0,6Z"/><path d="M674.22,160c-12.43.94-21.1,10.12-28.81,19a145.48,145.48,0,0,1-25.12,23.14,140.8,140.8,0,0,1-16.48,10.09,3,3,0,1,0,3,5.19,144.94,144.94,0,0,0,28-19.22,139.6,139.6,0,0,0,11.94-11.77c3.95-4.38,7.64-9,12-12.94,4.25-3.8,9.54-7,15.34-7.45a3.07,3.07,0,0,0,3-3,3,3,0,0,0-3-3Z"/><path d="M292.52,114c1.25-5,5.41-8.49,9.94-10.85,5.87-3,12.45-4.46,18.41-7.33,11.34-5.46,20-15.2,26.81-25.58C351.87,63.77,355.42,57,359,50.15a3.06,3.06,0,0,0-1.07-4.1,3,3,0,0,0-4.11,1.08c-6,11.59-12.17,23.47-21.45,32.87A52.45,52.45,0,0,1,318,90.51c-6,2.93-12.64,4.33-18.59,7.42s-11.06,7.91-12.69,14.43c-.94,3.75,4.84,5.35,5.78,1.6Z"/><path d="M128.71,102.5a11.92,11.92,0,0,1,.9.84c.06.07.57.73.3.35a8.42,8.42,0,0,1,.49.77c0,.1.51,1.08.34.66a7.1,7.1,0,0,1,.63,3.43,7.31,7.31,0,0,1-2.93,5.93l4.71.6a2.11,2.11,0,0,1-.26-1.61,1,1,0,0,1,.6-.74c.07,0,.59-.13.42-.1s.55,0,.12,0c.06,0,.5.1.2,0s.13-.08.14.11c0-.21-.05-.09,0,.13-.13-.32,0,0,0,.13,0-.39,0,0,0,.1l0-.21c-.09.31-.11.38,0,.2s-.14.16,0,.09a1,1,0,0,1,.28-.2c.24-.11-.42,0-.1,0s-.38-.15-.09,0l-.25-.14a1.76,1.76,0,0,1-.5-.56c.15.29-.1-.37-.11-.46a2.67,2.67,0,0,1,.2-1.14,6.6,6.6,0,0,1,1.67-2.38l-5-1.32a8.51,8.51,0,0,1,.48,5.47l5-1.32c-6.69-6.72-16.66-9.11-25.89-8.14-10.71,1.13-20.37,5.86-30.09,10.13a85.74,85.74,0,0,1-16.6,5.72,3,3,0,0,0,1.6,5.78C74.78,122.61,83.69,117.79,93,114c8.41-3.46,17.77-6.4,26.86-4.56a22.72,22.72,0,0,1,11.81,6,3,3,0,0,0,5-1.32,14.13,14.13,0,0,0-.48-8.67c-.81-2-3.28-3-5-1.32-3.3,3.29-5.26,8.77-1.68,12.63,3.23,3.47,9.32,2.87,10.65-2.08s-3.17-8.89-7.91-7.83c-5,1.13-6.58,7.11-4.25,11.25,1,1.85,3.24,1.76,4.71.61,6.16-4.84,6.23-15.45.27-20.46a3.08,3.08,0,0,0-4.24,0,3,3,0,0,0,0,4.24Z"/><path d="M336.29,210.47l-.68,3.67a3.11,3.11,0,0,0,1.38,3.39,3,3,0,0,0,3.63-.47c7.18-9,19.26-10.65,30-10.92,7.08-.18,14.15,0,21.18-1A70.35,70.35,0,0,0,409,200.56a74.72,74.72,0,0,0,18.1-10.65c1.27-1,1.06-3.19,0-4.25a3.08,3.08,0,0,0-4.24,0,66.25,66.25,0,0,1-32.2,13.67c-12.82,1.73-26-.59-38.57,3.37-6,1.9-11.75,5.12-15.72,10.11l5,2.92.68-3.66a3.08,3.08,0,0,0-2.09-3.69,3,3,0,0,0-3.69,2.09Z"/><path d="M43.57,254.85A108.71,108.71,0,0,0,79.2,248.5l-2.92-5a150.06,150.06,0,0,1-15.54,10.68c-2.4,1.44-4.86,3-7.63,3.64a5.28,5.28,0,0,1-5.43-1.54,3,3,0,0,0-4.24,0,3.07,3.07,0,0,0,0,4.25,10.83,10.83,0,0,0,8.72,3.43c3.64-.21,6.9-1.84,10-3.64a159.89,159.89,0,0,0,18.37-12.58c2.35-1.84-.19-6-2.92-5a103.36,103.36,0,0,1-34,6.14c-3.86,0-3.87,6,0,6Z"/><path d="M240.74,327q33.7-4.78,67.69-7.25,9.63-.71,19.29-1.22a3,3,0,0,0,0-6q-34.53,1.86-68.87,6.07-9.86,1.22-19.71,2.61c-1.61.23-2.48,2.27-2.09,3.69a3.07,3.07,0,0,0,3.69,2.1Z"/><path d="M668.32,521.62c-.14.35.06-.12.08-.16s.2-.36.31-.54c.48-.8-.17.15.17-.26a5.89,5.89,0,0,1,.42-.45,5.13,5.13,0,0,1,.58-.51,11.48,11.48,0,0,1,1.22-.72c.89-.45-.24.07.31-.14l.61-.22c.42-.13.84-.25,1.27-.34a9.86,9.86,0,0,1,2.51-.25c.44,0,.88,0,1.32.05a5.08,5.08,0,0,1,1,.13c1.32.24,2.62.58,3.91.95,2.5.73,5,1.59,7.54,2.09,5.52,1.08,10.86.1,16.19-1.47s10.73-3.24,16.09-4.86l18.58-5.63c3.68-1.12,2.11-6.91-1.6-5.79-11.4,3.46-22.79,7-34.21,10.36a41.2,41.2,0,0,1-7.89,1.81,21.19,21.19,0,0,1-7.52-.66c-4.83-1.25-9.65-3.36-14.74-2.92s-10,2.86-11.93,7.93a3,3,0,0,0,2.09,3.69,3.07,3.07,0,0,0,3.69-2.09Z"/><path d="M1090.18,87.57c6.09-11.47,21.36-11.87,32.59-13.81a176.24,176.24,0,0,0,38.54-11.42,177.47,177.47,0,0,0,20.44-10.27c3.33-2,.31-7.15-3-5.19a170.69,170.69,0,0,1-37.24,16.29,175.84,175.84,0,0,1-19.86,4.73c-6.84,1.2-13.88,1.75-20.48,4s-12.8,6.32-16.14,12.6a3.07,3.07,0,0,0,1.08,4.11,3,3,0,0,0,4.1-1.08Z"/><path d="M167.12,523.87c18.45-4.78,29.34-21.45,42.9-33.37a55.23,55.23,0,0,1,12.38-8.39,3,3,0,0,0-3-5.18c-16.54,8-26,24.67-40.79,34.93a41,41,0,0,1-13.06,6.22c-3.73,1-2.15,6.76,1.6,5.79Z"/><path d="M87.41,264.26a1.5,1.5,0,0,0,0-3,1.5,1.5,0,0,0,0,3Z"/><path d="M93.21,267.76l-2.07.52a1.5,1.5,0,0,0-.89.69,1.12,1.12,0,0,0-.18.56,1,1,0,0,0,0,.59,1.46,1.46,0,0,0,.69.9,1.59,1.59,0,0,0,1.15.15l2.07-.51a1.54,1.54,0,0,0,.89-.69,1.16,1.16,0,0,0,.18-.56,1.12,1.12,0,0,0,0-.6,1.51,1.51,0,0,0-.69-.9,1.59,1.59,0,0,0-1.15-.15Z"/><path d="M77.61,272.52a1.5,1.5,0,0,0,0-3,1.5,1.5,0,0,0,0,3Z"/><path d="M60.06,273.81a1.5,1.5,0,0,0,0-3,1.5,1.5,0,0,0,0,3Z"/><path d="M48.19,272a1.5,1.5,0,0,0,0-3,1.5,1.5,0,0,0,0,3Z"/><path d="M51,284.38a1.5,1.5,0,0,0,0-3,1.5,1.5,0,0,0,0,3Z"/><path d="M128.3,408.39A11,11,0,0,0,139.16,406a3,3,0,0,0,.47-3.63,8.09,8.09,0,0,0-8.6-3,12.14,12.14,0,0,0-7.07,5.32c-.28.4-.53.82-.82,1.21-.51.71.39-.35-.23.28,0,0-.7.6-.29.3a3.08,3.08,0,0,1-.55.33c.47-.21-.41.09-.43.1.58-.12-.37,0-.42,0s-.93-.09-.49,0c-2.68-.36-5.22-1.37-7.91-1.69a19.92,19.92,0,0,0-6.91.68c-5.26,1.25-10.43,2.92-15.62,4.47q-8.37,2.49-16.75,5c-3.68,1.12-2.11,6.91,1.6,5.79,10-3.05,20.06-6.23,30.19-8.95,1.43-.38,2.87-.75,4.33-1l.38-.06c.56-.1-.26,0-.29,0a2.78,2.78,0,0,1,.67-.06q.66,0,1.32,0l.56,0c.57,0,.41,0-.11,0a18.1,18.1,0,0,1,3.9.84c2.58.68,5.39,1.47,8,.49a8.65,8.65,0,0,0,3.89-3.05c.71-.95,1.28-1.94,1.9-2.59a5,5,0,0,1,2.9-1.67c.08,0,1,0,1,0s.72.24.31.07c.3.2.36.21.17.05.23.26.29.29.17.1l.47-3.64a4.87,4.87,0,0,1-5,.83,3,3,0,0,0-1.6,5.79Z"/><path d="M1118.22,266c-12.43.94-21.1,10.12-28.81,19a145.48,145.48,0,0,1-25.12,23.14,140.8,140.8,0,0,1-16.48,10.09,3,3,0,1,0,3,5.19,144.94,144.94,0,0,0,28.05-19.22,139.6,139.6,0,0,0,11.94-11.77c4-4.38,7.64-9,12.05-12.94,4.25-3.8,9.54-7,15.34-7.45a3.07,3.07,0,0,0,3-3,3,3,0,0,0-3-3Z"/><path d="M1187.52,233c1.25-5,5.41-8.49,9.94-10.85,5.87-3.05,12.45-4.46,18.41-7.33,11.34-5.46,20-15.2,26.81-25.58,4.19-6.43,7.74-13.25,11.28-20a3.06,3.06,0,0,0-1.07-4.1,3,3,0,0,0-4.11,1.08c-6,11.59-12.17,23.47-21.45,32.87A52.45,52.45,0,0,1,1213,209.51c-6,2.93-12.64,4.33-18.59,7.42-5.8,3-11.06,7.91-12.69,14.43-.94,3.75,4.84,5.35,5.78,1.6Z"/><path d="M740.71,640.5a11.92,11.92,0,0,1,.9.84c.06.07.57.73.3.35a8.42,8.42,0,0,1,.49.77c.05.1.51,1.08.34.66a7.1,7.1,0,0,1,.63,3.43,7.31,7.31,0,0,1-2.93,5.93l4.71.6a2.11,2.11,0,0,1-.26-1.61,1,1,0,0,1,.6-.74c.07,0,.59-.13.42-.1s.55,0,.12,0c.06,0,.5.1.2.05s.13-.08.14.11c0-.21,0-.09,0,.13-.13-.32,0,0,0,.13,0-.39,0,0,0,.1l0-.21c-.09.31-.11.38,0,.2s-.14.16-.05.09a1,1,0,0,1,.28-.2c.24-.11-.42,0-.1,0s-.38-.15-.09,0l-.25-.14a1.76,1.76,0,0,1-.5-.56c.15.29-.1-.37-.11-.46a2.67,2.67,0,0,1,.2-1.14,6.6,6.6,0,0,1,1.67-2.38l-5-1.32a8.51,8.51,0,0,1,.48,5.47l5-1.32c-6.69-6.72-16.66-9.11-25.89-8.14-10.71,1.13-20.37,5.86-30.09,10.13a85.74,85.74,0,0,1-16.6,5.72,3,3,0,1,0,1.6,5.78c9.88-2.09,18.79-6.91,28.06-10.73,8.41-3.46,17.77-6.4,26.86-4.56a22.72,22.72,0,0,1,11.81,6,3,3,0,0,0,5-1.32,14.13,14.13,0,0,0-.48-8.67c-.81-2-3.28-3.05-5-1.32-3.3,3.29-5.26,8.77-1.68,12.63,3.23,3.47,9.32,2.87,10.65-2.08s-3.17-8.89-7.91-7.83c-5,1.13-6.58,7.11-4.25,11.25,1,1.85,3.24,1.76,4.71.61,6.16-4.84,6.23-15.45.27-20.46a3.08,3.08,0,0,0-4.24,0,3,3,0,0,0,0,4.24Z"/><path d="M545.29,76.47l-.68,3.67A3.11,3.11,0,0,0,546,83.53a3,3,0,0,0,3.63-.47c7.18-9,19.26-10.65,30-10.92,7.08-.18,14.15,0,21.18-1A70.35,70.35,0,0,0,618,66.56a74.72,74.72,0,0,0,18.1-10.65c1.27-1,1.06-3.19,0-4.25a3.08,3.08,0,0,0-4.24,0,66.25,66.25,0,0,1-32.2,13.67c-12.82,1.73-26-.59-38.57,3.37-6,1.9-11.75,5.12-15.72,10.11l5,2.92.68-3.66A3.08,3.08,0,0,0,549,74.38a3,3,0,0,0-3.69,2.09Z"/><path d="M939.57,421.85a108.71,108.71,0,0,0,35.63-6.35l-2.92-5a150.06,150.06,0,0,1-15.54,10.68c-2.4,1.44-4.86,3-7.63,3.64a5.28,5.28,0,0,1-5.43-1.54,3,3,0,0,0-4.24,0,3.07,3.07,0,0,0,0,4.25,10.83,10.83,0,0,0,8.72,3.43c3.64-.21,6.9-1.84,10-3.64a159.89,159.89,0,0,0,18.37-12.58c2.35-1.84-.19-6-2.92-5a103.36,103.36,0,0,1-34,6.14c-3.86,0-3.87,6,0,6Z"/><path d="M913.74,543q33.71-4.79,67.69-7.25,9.63-.71,19.29-1.22a3,3,0,0,0,0-6q-34.53,1.86-68.87,6.07-9.86,1.21-19.71,2.61c-1.61.23-2.48,2.27-2.09,3.69a3.07,3.07,0,0,0,3.69,2.1Z"/><path d="M1140.32,594.62c-.14.35.06-.12.08-.16s.2-.36.31-.54c.48-.8-.17.15.17-.26a5.89,5.89,0,0,1,.42-.45,5.13,5.13,0,0,1,.58-.51,11.48,11.48,0,0,1,1.22-.72c.89-.45-.24.07.31-.14l.61-.22c.42-.13.84-.25,1.27-.34a9.86,9.86,0,0,1,2.51-.25c.44,0,.88,0,1.32.05a5.08,5.08,0,0,1,1,.13c1.32.24,2.62.58,3.91.95,2.5.73,5,1.59,7.54,2.09,5.52,1.08,10.86.1,16.19-1.47s10.73-3.24,16.09-4.86l18.58-5.63c3.68-1.12,2.11-6.91-1.6-5.79-11.4,3.46-22.79,7-34.21,10.36a41.2,41.2,0,0,1-7.89,1.81,21.19,21.19,0,0,1-7.52-.66c-4.83-1.25-9.65-3.36-14.74-2.92s-10,2.86-11.93,7.93a3,3,0,0,0,2.09,3.69,3.07,3.07,0,0,0,3.69-2.09Z"/><path d="M1049.18,707.57c6.09-11.47,21.36-11.87,32.59-13.81a177.92,177.92,0,0,0,59-21.69c3.33-2,.31-7.15-3-5.19a170.69,170.69,0,0,1-37.24,16.29,175.84,175.84,0,0,1-19.86,4.73c-6.84,1.2-13.88,1.75-20.48,4s-12.8,6.32-16.14,12.6a3.07,3.07,0,0,0,1.08,4.11,3,3,0,0,0,4.1-1.08Z"/><path d="M1246.12,438.87c18.45-4.78,29.34-21.45,42.9-33.37a55.23,55.23,0,0,1,12.38-8.39,3,3,0,0,0-3-5.18c-16.54,8-26,24.67-40.79,34.93a41,41,0,0,1-13.06,6.22c-3.73,1-2.15,6.76,1.6,5.79Z"/><path d="M946.41,509.26a1.5,1.5,0,0,0,0-3,1.5,1.5,0,0,0,0,3Z"/><path d="M952.21,512.76l-2.07.52a1.5,1.5,0,0,0-.89.69,1.12,1.12,0,0,0-.18.56,1,1,0,0,0,0,.59,1.46,1.46,0,0,0,.69.9,1.59,1.59,0,0,0,1.15.15l2.07-.51a1.54,1.54,0,0,0,.89-.69,1.16,1.16,0,0,0,.18-.56,1.12,1.12,0,0,0,0-.6,1.51,1.51,0,0,0-.69-.9,1.59,1.59,0,0,0-1.15-.15Z"/><path d="M936.61,517.52a1.5,1.5,0,0,0,0-3,1.5,1.5,0,0,0,0,3Z"/><path d="M919.06,518.81a1.5,1.5,0,0,0,0-3,1.5,1.5,0,0,0,0,3Z"/><path d="M907.19,517a1.5,1.5,0,0,0,0-3,1.5,1.5,0,0,0,0,3Z"/><path d="M910,529.38a1.5,1.5,0,0,0,0-3,1.5,1.5,0,0,0,0,3Z"/><path d="M1075.3,186.39a11,11,0,0,0,10.86-2.38,3,3,0,0,0,.47-3.63,8.09,8.09,0,0,0-8.6-3,12.14,12.14,0,0,0-7.07,5.32c-.28.4-.53.82-.82,1.21-.51.71.39-.35-.23.28,0,0-.7.6-.29.3a3.08,3.08,0,0,1-.55.33c.47-.21-.41.09-.43.1.58-.12-.37,0-.42,0s-.93-.09-.49,0c-2.68-.36-5.22-1.37-7.91-1.69a19.92,19.92,0,0,0-6.91.68c-5.26,1.25-10.43,2.92-15.62,4.47q-8.37,2.49-16.75,5c-3.68,1.12-2.11,6.91,1.6,5.79,10-3.05,20.06-6.23,30.19-8.95,1.43-.38,2.87-.75,4.33-1l.38-.06c.56-.1-.26,0-.29,0a2.78,2.78,0,0,1,.67-.06q.66,0,1.32,0l.56,0c.57,0,.41,0-.11,0a18.1,18.1,0,0,1,3.9.84c2.58.68,5.39,1.47,8,.49a8.65,8.65,0,0,0,3.89-3.05c.71-.95,1.28-1.94,1.9-2.59a5,5,0,0,1,2.9-1.67c.08,0,1,0,1,0s.72.24.31.07c.3.2.36.21.17.05.23.26.29.29.17.1l.47-3.64a4.87,4.87,0,0,1-5,.83,3,3,0,0,0-1.6,5.79Z"/><path d="M781.22,249c-12.43.94-21.1,10.12-28.81,19a145.48,145.48,0,0,1-25.12,23.14,140.8,140.8,0,0,1-16.48,10.09,3,3,0,1,0,3,5.19,144.94,144.94,0,0,0,28-19.22,139.6,139.6,0,0,0,11.94-11.77c3.95-4.38,7.64-9,12-12.94,4.25-3.8,9.54-7,15.34-7.45a3.07,3.07,0,0,0,3-3,3,3,0,0,0-3-3Z"/><path d="M801.52,106c1.25-5,5.41-8.49,9.94-10.85,5.87-3,12.45-4.46,18.41-7.33,11.34-5.46,20-15.2,26.81-25.58C860.87,55.77,864.42,49,868,42.15a3.06,3.06,0,0,0-1.07-4.1,3,3,0,0,0-4.11,1.08c-6,11.59-12.17,23.47-21.45,32.87A52.45,52.45,0,0,1,827,82.51c-6,2.93-12.64,4.33-18.59,7.42-5.8,3-11.06,7.91-12.69,14.43-.94,3.75,4.84,5.35,5.78,1.6Z"/><path d="M933.71,190.5a11.92,11.92,0,0,1,.9.84c.06.07.57.73.3.35a8.42,8.42,0,0,1,.49.77c.05.1.51,1.08.34.66a7.1,7.1,0,0,1,.63,3.43,7.31,7.31,0,0,1-2.93,5.93l4.71.6a2.11,2.11,0,0,1-.26-1.61,1,1,0,0,1,.6-.74c.07,0,.59-.13.42-.1s.55,0,.12,0c.06,0,.5.1.2.05s.13-.08.14.11c0-.21,0-.09,0,.13-.13-.32,0,0,0,.13,0-.39,0,0,0,.1l0-.21c-.09.31-.11.38,0,.2s-.14.16-.05.09a1,1,0,0,1,.28-.2c.24-.11-.42,0-.1,0s-.38-.15-.09,0l-.25-.14a1.76,1.76,0,0,1-.5-.56c.15.29-.1-.37-.11-.46a2.67,2.67,0,0,1,.2-1.14,6.6,6.6,0,0,1,1.67-2.38l-5-1.32a8.51,8.51,0,0,1,.48,5.47l5-1.32c-6.69-6.72-16.66-9.11-25.89-8.14-10.71,1.13-20.37,5.86-30.09,10.13a85.74,85.74,0,0,1-16.6,5.72,3,3,0,1,0,1.6,5.78c9.88-2.09,18.79-6.91,28.06-10.73,8.41-3.46,17.77-6.4,26.86-4.56a22.72,22.72,0,0,1,11.81,6,3,3,0,0,0,5-1.32,14.13,14.13,0,0,0-.48-8.67c-.81-2-3.28-3.05-5-1.32-3.3,3.29-5.26,8.77-1.68,12.63,3.23,3.47,9.32,2.87,10.65-2.08s-3.17-8.89-7.91-7.83c-5,1.13-6.58,7.11-4.25,11.25,1,1.85,3.24,1.76,4.71.61,6.16-4.84,6.23-15.45.27-20.46a3.08,3.08,0,0,0-4.24,0,3,3,0,0,0,0,4.24Z"/><path d="M685.29,361.47l-.68,3.67a3.11,3.11,0,0,0,1.38,3.39,3,3,0,0,0,3.63-.47c7.18-9,19.26-10.65,30-10.92,7.08-.18,14.15,0,21.18-1A70.35,70.35,0,0,0,758,351.56a74.72,74.72,0,0,0,18.1-10.65c1.27-1,1.06-3.19,0-4.25a3.08,3.08,0,0,0-4.24,0,66.25,66.25,0,0,1-32.2,13.67c-12.82,1.73-26-.59-38.57,3.37-6,1.9-11.75,5.12-15.72,10.11l5,2.92.68-3.66a3.08,3.08,0,0,0-2.09-3.69,3,3,0,0,0-3.69,2.09Z"/><path d="M488.57,676.85a108.71,108.71,0,0,0,35.63-6.35l-2.92-5a150.06,150.06,0,0,1-15.54,10.68c-2.4,1.44-4.86,3.05-7.63,3.64a5.28,5.28,0,0,1-5.43-1.54,3,3,0,0,0-4.24,0,3.07,3.07,0,0,0,0,4.25,10.83,10.83,0,0,0,8.72,3.43c3.64-.21,6.9-1.84,10-3.64a159.89,159.89,0,0,0,18.37-12.58c2.35-1.84-.19-6-2.92-5a103.36,103.36,0,0,1-34,6.14c-3.86,0-3.87,6,0,6Z"/><path d="M370.74,494q33.7-4.78,67.69-7.25,9.63-.71,19.29-1.22a3,3,0,0,0,0-6q-34.53,1.86-68.87,6.07-9.86,1.22-19.71,2.61c-1.61.23-2.48,2.27-2.09,3.69a3.07,3.07,0,0,0,3.69,2.1Z"/><path d="M304.32,613.62c-.14.35.06-.12.08-.16s.2-.36.31-.54c.48-.8-.17.15.17-.26a5.89,5.89,0,0,1,.42-.45,5.13,5.13,0,0,1,.58-.51,11.48,11.48,0,0,1,1.22-.72c.89-.45-.24.07.31-.14l.61-.22c.42-.13.84-.25,1.27-.34a9.86,9.86,0,0,1,2.51-.25c.44,0,.88,0,1.32.05a5.08,5.08,0,0,1,1,.13c1.32.24,2.62.58,3.91.95,2.5.73,5,1.59,7.54,2.09,5.52,1.08,10.86.1,16.19-1.47s10.73-3.24,16.09-4.86l18.58-5.63c3.68-1.12,2.11-6.91-1.6-5.79-11.4,3.46-22.79,7-34.21,10.36a41.2,41.2,0,0,1-7.89,1.81,21.19,21.19,0,0,1-7.52-.66c-4.83-1.25-9.65-3.36-14.74-2.92s-10,2.86-11.93,7.93a3,3,0,0,0,2.09,3.69,3.07,3.07,0,0,0,3.69-2.09Z"/><path d="M52.18,670.57c6.09-11.47,21.36-11.87,32.59-13.81a177.92,177.92,0,0,0,59-21.69c3.33-2,.31-7.15-3-5.19a170.69,170.69,0,0,1-37.24,16.29,175.84,175.84,0,0,1-19.86,4.73c-6.84,1.2-13.88,1.75-20.48,4s-12.8,6.32-16.14,12.6a3.07,3.07,0,0,0,1.08,4.11,3,3,0,0,0,4.1-1.08Z"/><path d="M812.12,380.87c18.45-4.78,29.34-21.45,42.9-33.37a55.23,55.23,0,0,1,12.38-8.39,3,3,0,0,0-3-5.18c-16.54,8-26,24.67-40.79,34.93a41,41,0,0,1-13.06,6.22c-3.73,1-2.15,6.76,1.6,5.79Z"/><path d="M591.41,302.26a1.5,1.5,0,0,0,0-3,1.5,1.5,0,0,0,0,3Z"/><path d="M597.21,305.76l-2.07.52a1.5,1.5,0,0,0-.89.69,1.12,1.12,0,0,0-.18.56,1,1,0,0,0,0,.59,1.46,1.46,0,0,0,.69.9,1.59,1.59,0,0,0,1.15.15l2.07-.51a1.54,1.54,0,0,0,.89-.69,1.16,1.16,0,0,0,.18-.56,1.12,1.12,0,0,0,0-.6,1.51,1.51,0,0,0-.69-.9,1.59,1.59,0,0,0-1.15-.15Z"/><path d="M581.61,310.52a1.5,1.5,0,0,0,0-3,1.5,1.5,0,0,0,0,3Z"/><path d="M564.06,311.81a1.5,1.5,0,0,0,0-3,1.5,1.5,0,0,0,0,3Z"/><path d="M552.19,310a1.5,1.5,0,0,0,0-3,1.5,1.5,0,0,0,0,3Z"/><path d="M555,322.38a1.5,1.5,0,0,0,0-3,1.5,1.5,0,0,0,0,3Z"/><path d="M511.3,353.39A11,11,0,0,0,522.16,351a3,3,0,0,0,.47-3.63,8.09,8.09,0,0,0-8.6-3,12.14,12.14,0,0,0-7.07,5.32c-.28.4-.53.82-.82,1.21-.51.71.39-.35-.23.28,0,0-.7.6-.29.3a3.08,3.08,0,0,1-.55.33c.47-.21-.41.09-.43.1.58-.12-.37,0-.42,0s-.93-.09-.49,0c-2.68-.36-5.22-1.37-7.91-1.69a19.92,19.92,0,0,0-6.91.68c-5.26,1.25-10.43,2.92-15.62,4.47q-8.37,2.49-16.75,5c-3.68,1.12-2.11,6.91,1.6,5.79,10-3.05,20.06-6.23,30.19-8.95,1.43-.38,2.87-.75,4.33-1l.38-.06c.56-.1-.26,0-.29,0a2.78,2.78,0,0,1,.67-.06q.66,0,1.32,0l.56,0c.57,0,.41,0-.11,0a18.1,18.1,0,0,1,3.9.84c2.58.68,5.39,1.47,8,.49a8.65,8.65,0,0,0,3.89-3.05c.71-.95,1.28-1.94,1.9-2.59a5,5,0,0,1,2.9-1.67c.08,0,1,0,1,0s.72.24.31.07c.3.2.36.21.17.05.23.26.29.29.17.1l.47-3.64a4.87,4.87,0,0,1-5,.83,3,3,0,0,0-1.6,5.79Z"/></svg>