<svg id="Camada_1" data-name="Camada 1" xmlns="http://www.w3.org/2000/svg" viewBox="0 0 103 59"><title>sketches_web</title><path d="M6,38.62l-.68,3.66a3.12,3.12,0,0,0,1.38,3.39,3,3,0,0,0,3.64-.47c7.17-9,19.26-10.65,30-10.92,7.07-.18,14.15,0,21.18-1A70.59,70.59,0,0,0,78.77,28.7a74.91,74.91,0,0,0,18.1-10.65c1.27-1,1-3.19,0-4.25a3.09,3.09,0,0,0-4.25,0,66.35,66.35,0,0,1-32.2,13.68c-12.81,1.72-26-.6-38.56,3.36C15.85,32.74,10.1,36,6.13,41l5,2.92.68-3.66a3.08,3.08,0,0,0-2.1-3.69A3,3,0,0,0,6,38.62Z"/></svg>