<svg id="Camada_1" data-name="Camada 1" xmlns="http://www.w3.org/2000/svg" viewBox="0 0 63 48"><title>sketches_web</title><path d="M44.88,20.32a1.57,1.57,0,0,1-1.4.41c-.09,0-.93-.08-.49,0a13.55,13.55,0,0,1-1.38-.29c-1.77-.43-3.52-1-5.33-1.24A15.47,15.47,0,0,0,32.15,19c-5.56.6-11,2.63-16.35,4.21-3.69,1.09-2.12,6.89,1.6,5.78,3.51-1,7-2.11,10.57-3,1-.26,2-.51,3-.72L32.23,25c.63-.11-.18,0-.22,0s.47-.05.54-.06a11.88,11.88,0,0,1,1.79,0c.31,0,1.32,0,.11,0a11.33,11.33,0,0,1,2.09.39c3.77.86,7.77,2.49,11.37.18A3.08,3.08,0,0,0,49,21.39a3,3,0,0,0-4.11-1.07Z"/></svg>