<svg id="Camada_1" data-name="Camada 1" xmlns="http://www.w3.org/2000/svg" viewBox="0 0 45 38"><title>sketches_web</title><path d="M19.11,13c.28.24.56.49.81.75s.22.25.34.37c.46.5-.36-.54,0,0,.18.28.37.55.53.84l.28.53c.05.11.21.63.09.19s0,.09.07.2l.18.57c.09.32.17.64.24,1,0,.1,0,.2,0,.3s0,.13,0-.3a3.68,3.68,0,0,1,.05.5,10.29,10.29,0,0,1,0,1.11c0,.34,0,.67-.06,1-.05.7.14-.69,0,0,0,.16-.07.33-.1.49-.08.36-.18.72-.29,1.07-.05.15-.12.31-.17.47-.09.35.28-.57,0-.07-.17.33-.32.65-.51,1l-.27.42-.17.24c-.13.18-.07.11.17-.21,0,.2-.52.6-.66.74a9.83,9.83,0,0,1-.91.8l4.71.6c-.1-.16-.3-.75-.1-.11-.05-.15-.1-.29-.14-.44a2.09,2.09,0,0,1-.08-.34c-.05-.23,0-.15,0,.22-.08-.12,0-.44,0-.58s0-.15,0-.23,0-.15,0,.23c-.05-.13.12-.43.14-.56,0-.3-.28.43,0,0,.09-.14.5-.69.05-.14a3.07,3.07,0,0,0,0-4.24c-1.1-1-3.18-1.3-4.24,0a8,8,0,0,0-.8,9.24,3,3,0,0,0,2.19,1.44,3.16,3.16,0,0,0,2.52-.83c6.17-4.78,6.24-15.5.27-20.46a3.07,3.07,0,0,0-4.24,0c-1,1.11-1.29,3.17,0,4.24Z"/></svg>