<svg width="271" height="191" viewBox="0 0 271 191" fill="none" xmlns="http://www.w3.org/2000/svg">
<path d="M240 171.5L254 165.5L255.5 160H257L268.5 155.5L267.5 152L254 153L252 148.5L247 149H241.5L236 148.5L226.5 136L217.5 133.5L215.5 125L209.5 123.5L206 120.5L202 121L199.5 114.5L195.5 112.5L194.5 105.5L196.5 102L198.5 98.5L203.5 93.5V87.5L207 86V80.5L203 76L195.5 75.5L193.5 69.5L194.5 64.5L183 58L182.5 53.5L185 52.5L187.5 48.5L180.5 44V40L203 23L206.5 17V14L196.5 17L175 35L170 37.5H164L162.5 41L153 42L147 41.5L138.5 39L131.5 34L128 39.5L116.5 43L114.5 26.5L109.5 17L108.5 37.5L110.5 48L100 55.5L99 63.5L81 69.5L79 76.5L75 79V83.5L72.5 85L69 84L66.5 87.5H63.5L61 96.5H56L50.5 88L43.5 89L45 102.5H41.5L39 100L36 99.5L36.5 103.5V105.5H34.5L33 104.5L31 103.5H29.5V106L29 107.5L27.5 108L25.5 107.5L22 105L20 104.5L18.5 105V106.5L22 114L23.5 116.5V119L21.5 120.5L17.5 122.5V124L18 126L15 129L13 128.5H8.5L6.5 131.5L7 134.5L8 138L6.5 138.5L4 141.5L10.5 145L16 149L12.5 161.5L2.5 164.5V176V182H7.5L21.5 177L28 176L33.5 171.5L38 173L42.5 171.5L53.5 178L63.5 182L137.5 183.5L240 171.5Z" fill="white"/>
<path fill-rule="evenodd" clip-rule="evenodd" d="M116.314 0.910176C114.377 3.37918 108.182 13.8657 108.182 14.6752C108.182 15.2267 107.847 15.8067 107.438 15.9637C106.862 16.1847 106.803 16.5367 107.175 17.5172C107.441 18.2147 107.464 18.7852 107.227 18.7852C106.99 18.7852 106.81 23.6792 106.826 29.6602C106.843 35.6412 106.693 41.0297 106.494 41.6347C106.233 42.4262 106.43 43.0332 107.2 43.8032C109.02 45.6232 107.552 48.9047 104.63 49.5467C103.834 49.7217 103.182 50.0497 103.182 50.2757C103.182 50.5017 102.409 51.1427 101.463 51.7007C99.0681 53.1137 98.0846 55.2927 97.9621 59.4562C97.8731 62.4867 97.7316 62.9677 96.8956 63.0802C92.2076 63.7117 88.4831 64.5558 87.9256 65.1133C84.6569 66.0001 84.4125 65.4304 79.1386 68.0302C76.1569 69.5001 79.9436 72.7987 77.4036 75.4847C76.6569 77.0001 76.2333 76.3245 74.6569 77.0001C71.1569 78.5001 74.6569 83.0001 72.1569 83.5001C71.3744 84.3666 69.6569 81.0001 67.2986 84.0001C66.1569 87.5001 65.1569 85.0001 63.3164 86.2852C61.1569 87.0001 60.1569 91.0001 59.6569 95.0001C57.958 95.0001 57.958 95.0001 56.557 95.0001C54.6569 92.5001 54.1569 91.0001 52.6569 87.1883C48.6569 87.0001 42.6569 87.5001 41.6041 87.9102C42.1569 93.0001 44.1569 97.5001 43.6569 101C42.1569 101.5 42.1569 101 41.6569 100.5C40.8943 99.7374 40.157 99.0001 36.657 98.5001C33.157 97.9649 35.7161 104.5 35.3826 104.5C34.8826 104.5 34.657 104.5 33.657 104C31.657 102.5 28.1569 99.566 28.1569 104.5C28.1569 105.5 28.6569 106.5 28.1569 107C27.6569 107.5 26.5083 106.715 25.6569 106.5C21.5083 103.215 19.6569 103 17.6569 104.5C17.1569 105 16.5064 106.013 19.1569 110C19.9794 111.238 22.657 115.871 22.657 118.5C22.657 119.5 20.1785 119.938 19.1569 120.5C17.3408 121.5 15.6569 121.919 16.6569 125.419C16.9125 126.313 17.1569 127 14.6569 128C13.024 128.297 11.6544 127.292 9.15697 127.5C7.38187 127.648 5.22028 130.115 5.15697 132C5.04382 135.369 9.65697 136.5 5.15697 138C3.57897 137.685 1.65696 141.5 3.65714 143.5C3.91214 143.978 9.65714 146.5 11.1571 146.66C12.1571 146.5 11.1571 147.5 11.6571 149.056C13.1571 150 15.1781 149.792 14.9066 150.5C14.5756 151.363 10.6571 159.5 10.1571 160.5C10.1571 160.5 2.40355 162.479 1.43205 163.285C-0.396952 164.803 1.44657 167.449 3.81057 166.699C8.41907 165.237 13.2806 164.293 16.2171 164.289C19.1431 164.286 19.6271 164.141 20.6516 162.963C22.6536 160.66 35.7026 162.016 50.8296 166.099C55.6101 167.389 57.4505 167.564 57.937 166.777C58.11 166.498 58.4491 166.391 58.6916 166.541C58.9336 166.691 60.8306 166.844 62.9071 166.881C67.5291 166.965 67.7531 167.598 63.8376 169.516C60.7186 171.043 53.1645 171.067 50.21 169.558C48.713 168.794 46.682 169.347 46.682 170.519C46.682 171.721 45.5621 171.43 42.8966 169.535C39.5571 167.161 37.1046 167.522 37.8261 170.282C38.3026 172.103 37.3056 171.822 34.3511 169.3C30.0956 165.669 25.9271 165.025 29.8301 168.601L31.7246 170.338L30.2001 172.262C27.6061 175.538 20.6821 175.936 20.6821 172.81C20.6821 169.451 12.8246 167.177 9.43106 169.553C7.87206 170.645 5.88606 171.94 3.03006 173.726C1.50456 174.68 1.15806 175.174 1.28006 176.221C1.49256 178.047 2.97956 178.166 4.72206 176.497C5.99656 175.276 6.31156 175.184 7.44606 175.701C9.13506 176.47 11.9256 176.447 12.5806 175.657C13.4106 174.657 13.8721 172.285 13.2361 172.285C12.9316 172.285 12.6821 172.06 12.6821 171.785C12.6821 170.364 15.6591 171.362 17.1916 173.297C19.0111 175.594 18.7366 176.479 16.0226 177.064C15.1476 177.253 13.5321 177.87 12.4321 178.435C10.2266 179.568 6.00056 179.758 4.22006 178.806C2.97656 178.14 -0.417448 180.445 0.0425524 181.643C0.94818 184.001 3.81056 184.001 7.44695 184.001C13.6582 183.501 13.9621 180.46 21.1567 178.806C24.6567 178.001 30.1567 179.501 34.3496 173.726C36.6553 175.001 38.6548 176.001 41.3485 173.726C46.1548 172.001 56.6548 185.001 65.1548 184.001C61.8438 184.913 118.655 193.001 152.155 189.501C171.681 187.461 210.436 183.501 244.949 171.427L246.19 171.044C248.661 170.284 253.958 167.655 255.057 166.645C257.108 164.76 256.052 161.785 253.333 161.785C251.855 161.785 245.056 158.216 243.107 156.417C241.312 154.76 239.876 155.061 240.103 157.045C240.344 159.135 241.212 159.932 245.858 162.328C248.099 163.483 250.011 164.494 250.108 164.574C251.13 165.423 246.147 167.785 243.334 167.785C242.163 167.785 241.274 168.174 240.476 169.035C238.937 170.696 238.662 170.645 235.55 168.109C234.08 166.912 232.099 165.787 231.148 165.609C230.062 165.405 229.235 164.881 228.926 164.199C228.14 162.473 224.993 161.613 223.895 162.826C223.369 163.407 222.368 163.785 221.354 163.785C219.409 163.785 217.689 165.243 217.666 166.91C217.641 168.667 216.38 170.072 215.491 169.334C215.093 169.005 213.671 168.66 212.33 168.569C209.548 168.38 205.168 166.652 203.89 165.239C201.91 163.051 199.38 164.597 200.97 167.024L201.834 168.343L200.383 167.992C198.265 167.481 194.716 165.613 192.488 163.836C191.419 162.983 190.238 162.285 189.863 162.285C188.937 162.285 188.995 164.245 189.932 164.604C190.74 164.915 190.979 166.285 190.224 166.285C189.972 166.285 189.161 166.927 188.42 167.712L187.074 169.138L185.878 168.029C185.072 167.282 184.681 166.368 184.679 165.228C184.676 163.846 184.377 163.363 183.054 162.598L181.432 161.661L182.682 161.155C188.354 158.857 189.751 157.426 188.176 155.529C186.524 153.538 189.044 155.053 191.721 157.66C195.027 160.879 197.021 161.52 201.308 160.742C204.08 160.239 205.491 160.666 207.053 162.482C208.975 164.715 211.067 163.678 210.436 160.806C210.031 158.96 210.354 158.917 212.476 160.535C214.407 162.008 215.501 162.104 216.812 160.917C217.731 160.086 217.814 160.107 218.768 161.417C220.739 164.122 223.364 161.913 221.521 159.101C220.76 157.939 220.679 157.011 221.255 156.035C223.051 152.994 220.939 147.285 218.018 147.285C217.474 147.285 215.801 146.705 214.301 145.995C208.542 143.271 206.502 144.15 209.49 148.067C211.389 150.557 211.531 154.785 209.716 154.785C209.236 154.785 208.499 154.014 208.02 153.009C205.072 146.827 195.769 149.388 196.977 156.048C197.29 157.772 197.042 157.649 193.973 154.555C192.484 153.054 190.627 151.688 189.848 151.521C189.069 151.353 187.915 151.007 187.283 150.751C184.085 149.455 179.923 154.203 182.432 156.285C183.601 157.255 183.337 157.633 181.257 157.965C176.613 158.708 175.401 161.709 178.682 164.345C180.124 165.504 180.682 166.329 180.682 167.302C180.682 169.472 182.536 171.439 184.256 171.095C185.04 170.939 185.682 170.929 185.682 171.073C185.682 171.545 182.246 172.785 180.94 172.785C180.07 172.785 179.387 173.246 178.782 174.24C178.077 175.4 177.721 175.597 177.029 175.21C176.552 174.943 175.733 174.86 175.208 175.027C174.684 175.193 173.469 175.001 172.509 174.6C171.549 174.199 170.666 173.967 170.548 174.086C170.302 174.332 163.752 173.022 163.383 172.653C163.25 172.52 164.979 172.112 167.226 171.747C172.741 170.852 174.618 168.68 170.839 167.566C169.965 167.308 169.142 166.686 169.01 166.184C168.784 165.317 163.933 162.785 162.499 162.785C162.14 162.785 160.965 161.673 159.889 160.313C157.608 157.433 154.372 155.785 150.994 155.785C147.154 155.785 147.527 158.02 151.466 158.617C153.623 158.944 156.682 160.567 156.682 161.384C156.682 161.692 156.226 161.759 155.557 161.549C147.606 159.058 142.791 160.323 146.419 163.951C147.84 165.372 145.678 165.469 144.198 164.051C143.471 163.355 142.716 162.785 142.519 162.785C142.322 162.785 141.295 162.212 140.236 161.512C137.123 159.452 133.206 158.182 128.932 157.848C125.082 157.547 124.932 157.488 124.932 156.285C124.932 154.849 129.349 154.409 133.943 155.389C138.146 156.285 138.799 154.658 134.979 152.808C130.415 150.599 117.565 152.199 116.223 155.144C115.338 157.087 115.574 157.59 117.807 158.503L119.932 159.373L117.192 160.337C115.685 160.868 113.617 161.974 112.596 162.794C111.576 163.614 110.538 164.285 110.291 164.285C109.476 164.285 107.192 167.944 107.657 168.505C107.909 168.809 109.84 169.011 112.175 168.979L116.254 168.923L114.679 170.362C113.812 171.153 113.233 172.078 113.392 172.418C113.551 172.757 113.82 173.429 113.99 173.91C114.159 174.391 114.553 174.802 114.865 174.822C117.804 175.015 120.914 176.412 121.961 178.009C123.225 179.939 122.541 180.086 119.484 178.539C116.817 177.19 114.182 177.068 114.182 178.295C114.182 179.597 113.251 178.564 112.943 176.919C112.447 174.273 111.942 173.523 110.057 172.628C108.122 171.71 104.72 171.874 103.953 172.922C103.665 173.317 102.923 173.8 102.305 173.996C100.712 174.502 100.89 177.785 102.511 177.785C103.555 177.785 106.182 179.226 106.182 179.798C106.182 180.535 104.062 180.351 102.962 179.519C101.641 178.52 100.898 178.596 99.7316 179.847C98.4201 181.255 96.976 180.86 94.0635 178.297C90.886 175.5 89.1821 175.771 89.1821 179.074C89.1821 181.385 88.3621 181.829 85.6821 180.969C82.6476 179.995 78.6036 178.225 77.6721 177.461C76.4536 176.463 72.6426 176.847 71.9851 178.035C71.6811 178.585 71.3786 179.126 71.3131 179.238C71.2476 179.349 69.7271 178.817 67.9341 178.055C63.7241 176.266 61.0316 178.076 64.3071 180.494C65.4136 181.31 65.4011 181.319 63.5506 181.031C61.0856 180.647 54.8721 177.657 52.784 175.85L51.1356 174.424L52.958 174.128C53.9605 173.965 56.2311 173.968 58.0041 174.133C61.5106 174.461 65.7296 173.71 68.7451 172.222C69.9651 171.621 71.1421 171.423 72.3421 171.618C75.3376 172.104 77.4736 171.384 80.5356 168.859C82.1286 167.545 84.2196 165.994 85.1821 165.411C87.4186 164.058 90.0645 161.238 97.3155 152.481C100.528 148.601 104.231 144.565 105.545 143.513C106.858 142.461 109.137 140.389 110.61 138.91C114.635 134.867 116.296 134.527 123.295 136.314C129.536 137.908 138.714 143.025 141.061 146.219C143.098 148.993 148.093 152.785 149.708 152.785C151.488 152.785 151.736 151.34 150.201 149.91C149.55 149.304 149.317 148.624 149.509 147.891C149.821 146.699 150.208 146.524 150.957 147.238C151.218 147.487 152.317 148.182 153.399 148.782C154.481 149.381 157.311 151.535 159.689 153.568C164.221 157.445 166.652 158.785 169.148 158.785C170.656 158.785 172.048 157.282 171.444 156.306C171.288 156.053 171.502 155.656 171.918 155.423C172.393 155.157 172.769 153.979 172.925 152.267C173.278 148.41 174.394 145.495 175.443 145.693C175.903 145.78 176.66 145.508 177.124 145.087C179.474 142.961 186.513 141.954 189.893 143.261C191.059 143.712 191.499 143.682 192.067 143.114C193.66 141.521 190.237 138.453 186.349 137.989C181.356 137.393 182.187 136.297 187.69 136.22C192.083 136.158 193.083 134.294 189.671 132.53C185.831 130.544 177.299 134.791 180.452 137.118C181.522 137.908 179.922 139.73 176.542 141.57C175.002 142.408 175.056 142.707 176.001 138.535C176.126 137.985 177.265 134.329 178.532 130.41C181.239 122.04 181.521 121.855 186.312 125.285C189.595 127.636 189.568 127.632 191.231 126.09C194.684 122.888 198.182 122.874 198.182 126.062C198.182 127.26 198.716 127.732 200.342 127.971C202.03 128.218 202.792 129.425 202.423 131.262C201.834 134.196 201.737 139.261 202.264 139.586C202.536 139.754 203.585 139.234 204.595 138.431C207.374 136.222 207.291 136.239 211.755 137.028C217.286 138.006 218.357 137.972 219.432 136.785C220.769 135.308 223.82 135.977 225.843 138.191C226.267 138.655 227.515 139.968 228.615 141.108C229.722 142.254 230.848 144.044 231.136 145.114C232.38 149.733 238.466 153.279 240.818 150.755C241.944 149.546 242.257 149.548 244.682 150.785C247.238 152.089 248.105 152.047 249.677 150.541C250.895 149.374 251.046 149.345 252.103 150.086C253.536 151.09 252.654 152.512 250.875 152.066C248.765 151.536 248.782 153.714 250.895 154.677C252.408 155.367 260.098 154.981 263.848 154.027C267.468 153.106 267.312 153.091 266.571 154.278C265.742 155.605 260.468 157.799 257.125 158.207C254.615 158.513 254.421 158.634 254.267 159.986L254.101 161.436L257.017 161.129C267.221 160.055 270.157 157.045 270.157 154.027C271.657 147.5 260.657 150.934 256.657 151.5C256.151 150.785 253.638 144 249.657 146.5C245.166 151.025 243.157 143.5 238.657 147.285C231.657 144.5 237.157 135 221.255 132.53C215.657 135 222.657 122 211.755 122C204.189 118.364 206.311 116.518 202.866 118.785C201.417 119.739 204.157 111 197.308 111.285C196.069 107.37 195.439 106.874 197.182 104C200.657 101.5 198.657 99.5001 200.157 99.0001C206.525 95.2853 206.157 93.0001 205.657 89.5001C204.973 87.3441 206.657 89.0001 208.421 87.5352C211.769 80.7282 207.798 73.7852 200.556 73.7852C197.113 73.7852 194.955 72.1897 195.888 70.3352C199.407 63.3402 197.914 58.2852 192.329 58.2852C189.595 58.2852 186.02 57.1932 185.082 56.0717C183.901 54.6602 183.968 54.3832 185.423 54.6612C187.44 55.0467 189.138 54.3847 189.464 53.0852C189.694 52.1682 190.209 51.8287 191.741 51.5837C195.999 50.9027 194.118 46.6497 188.932 45.2337C179.605 42.6862 179.612 42.7757 188.269 36.4482C190.009 35.1767 192.28 33.3792 193.316 32.4537C194.742 31.1802 195.492 30.8437 196.398 31.0712C198.859 31.6892 204.118 27.5337 203.153 25.7322C202.532 24.5722 203.307 23.5682 206.307 21.6442C207.063 21.1592 207.682 20.4572 207.682 20.0847C207.682 19.7122 208.019 19.1277 208.432 18.7852C209.756 17.6857 209.385 14.4112 207.75 12.7762C206.105 11.1317 201.81 11.5927 199.526 13.6582C197.504 15.4882 196.583 15.7602 195.065 14.9752C192.583 13.6912 187.029 18.1317 188.255 20.4212C188.74 21.3282 188.649 21.5992 187.639 22.2602C186.987 22.6862 184.633 24.4977 182.408 26.2852C180.184 28.0727 177.536 30.0977 176.526 30.7852C175.515 31.4727 174.687 32.2802 174.685 32.5797C174.683 32.8797 174.119 33.3812 173.432 33.6942C172.744 34.0077 172.182 34.6062 172.182 35.0247C172.182 36.4037 171.219 35.8177 170.199 33.8182C167.612 28.7487 164.783 28.0287 165.65 32.6602C165.869 33.8287 165.982 34.7852 165.901 34.7852C165.821 34.7852 163.92 33.8572 161.677 32.7227C158.016 30.8707 157.476 30.7262 156.391 31.3072C154.412 32.3662 154.848 34.0877 157.432 35.4177C158.257 35.8427 159.471 36.7672 160.13 37.4722L161.327 38.7547L159.972 39.2697C159.227 39.5532 157.214 39.7852 155.499 39.7852C152.147 39.7852 151.182 40.3087 151.182 42.1257C151.182 43.2672 151.69 43.5277 154.682 43.9187C155.892 44.0767 155.857 44.1562 153.557 46.4252C150.461 49.4797 150.387 51.8442 153.412 51.0852C155.051 50.6732 159.182 46.5352 159.182 45.3037C159.182 44.5037 159.53 44.2687 160.807 44.2092C161.701 44.1672 162.657 44.0807 162.932 44.0167C163.207 43.9527 163.833 43.8747 164.323 43.8427C165.458 43.7692 166.181 41.8722 165.63 40.4102C165.167 39.1792 165.338 39.1162 168.736 39.2697C169.936 39.3242 171.154 38.9342 172.377 38.1042C176.803 35.1012 179.218 35.8892 179.118 40.3037C179.081 41.9437 178.861 43.2852 178.629 43.2852C178.093 43.2852 176.682 45.9852 176.682 47.0102C176.682 48.0782 178.476 47.9907 179.599 46.8682C180.54 45.9267 182.682 46.1892 182.682 47.2462C182.682 47.5177 183.294 48.3522 184.043 49.1007C185.667 50.7252 184.926 51.2297 182.611 50.0747C180.031 48.7877 179.098 49.1497 176.263 52.5372C174.948 54.1092 177.053 55.7137 178.514 54.2532C178.89 53.8767 179.286 53.9607 179.864 54.5387C180.848 55.5232 180.921 56.2852 180.03 56.2852C176.598 56.2852 172.744 60.4052 175.523 61.1027C176.261 61.2882 177.429 61.7322 178.118 62.0897C178.902 62.4962 180.179 62.6292 181.527 62.4447C184.096 62.0922 184.147 62.2432 182.131 64.2592C180.288 66.1022 180.841 67.6173 183.151 67.0533C184.54 66.7143 186.88 66.1223 189.756 65.3828C192.343 64.7173 193.177 65.3468 192.087 67.1428C191.356 68.3483 190.915 68.5412 188.798 68.5782C186.043 68.6262 185.182 68.9933 185.182 70.1183C185.182 70.6598 184.919 70.7837 184.307 70.5312C182.389 69.7398 179.783 69.3087 176.847 69.2972L173.761 69.2852L173.428 65.9102C173.244 64.0542 172.907 61.7477 172.678 60.7852C172.449 59.8227 172.119 57.5727 171.945 55.7852C171.295 49.0997 171.17 48.9417 166.109 48.4472C162.156 48.0607 159.065 49.5767 154.413 54.1822L151.157 57.4072L148.411 57.1792C144.674 56.8692 144.63 56.9522 143.423 66.4102C143.207 68.1057 142.896 68.7852 142.336 68.7852C141.701 68.7852 141.6 68.3527 141.807 66.5172C142.138 63.5862 137.957 61.3202 135.276 62.9772C135.016 63.1377 134.14 62.9387 133.33 62.5342C132.45 62.0952 129.511 61.6657 126.02 61.4662C119.424 61.0897 118.828 60.6152 121.888 58.1742L123.594 56.8127L124.098 58.2602C125.057 61.0112 128.632 61.5507 127.937 58.8397C127.753 58.1222 127.529 56.7602 127.439 55.8127C127.349 54.8652 126.9 53.8157 126.441 53.4802C125.339 52.6742 124.253 46.5802 124.999 45.3842C125.29 44.9172 126.406 44.2882 127.48 43.9857C132.787 42.4922 134.424 40.7297 132.253 38.8472C131.355 38.0677 131.301 37.8137 131.869 37.0367C132.7 35.9002 133.682 36.4572 133.682 38.0647C133.682 38.7362 133.907 39.2852 134.182 39.2852C134.457 39.2852 135.155 39.7582 135.733 40.3362C136.637 41.2407 137.15 41.3417 139.402 41.0607C142.123 40.7207 142.96 41.1832 145.576 44.4742C147.527 46.9277 150.248 42.5297 148.406 39.9002C147.303 38.3252 146.213 37.8562 142.4 37.3162C139.407 36.8927 138.876 36.6427 137.546 35.0282C133.053 29.5782 128.561 29.9892 126.583 36.0317C125.947 37.9742 125.846 38.0427 122.819 38.5842C121.108 38.8907 119.379 39.4137 118.978 39.7472C118.071 40.4992 117.569 38.8882 116.43 31.5737C115.999 28.8027 115.417 25.2392 115.137 23.6547C114.858 22.0707 114.757 20.5677 114.914 20.3142C115.07 20.0612 114.969 19.7127 114.688 19.5392C114.408 19.3657 114.316 18.6752 114.484 18.0047C114.652 17.3337 114.597 16.7817 114.361 16.7777C112.549 16.7452 112.675 15.7972 114.891 12.7872C117.293 9.5242 117.996 7.82566 117.49 6.50716C117.326 6.07816 117.655 4.81866 118.221 3.70766C119.63 0.946662 118.075 -1.33482 116.314 0.910176ZM204.91 15.7507C205.069 16.0067 204.969 16.3572 204.69 16.5302C204.41 16.7027 204.182 17.2692 204.182 17.7887C204.182 18.9197 203.146 20.0362 198.141 24.3032C193.029 28.6607 192.479 29.1162 188.357 32.3997L184.782 35.2477L182.929 33.5002L181.076 31.7527L182.817 30.1442C185.578 27.5927 188.576 25.2262 192.392 22.5862C194.339 21.2387 196.806 19.3912 197.874 18.4802C198.943 17.5687 200.743 16.4952 201.874 16.0937C204.42 15.1907 204.555 15.1757 204.91 15.7507ZM111.93 28.5352C112.217 31.8997 113.048 37.2152 113.666 39.6382C113.952 40.7587 113.87 41.5102 113.394 42.1382C113.02 42.6312 112.706 42.8587 112.698 42.6427C112.689 42.4267 112.249 42.4817 111.719 42.7652C110.783 43.2662 110.756 42.9912 110.753 32.9077C110.75 22.8457 111.278 20.8822 111.93 28.5352ZM122.306 43.3862C121.867 44.2667 121.523 45.9757 121.542 47.1842C121.586 49.9177 120.738 49.3142 120.161 46.2002C119.82 44.3582 119.917 43.8672 120.808 42.9102C122.425 41.1747 123.275 41.4447 122.306 43.3862ZM135.818 43.8637C134.258 44.6542 133.83 46.2917 134.966 47.1222C135.781 47.7177 135.688 47.7852 134.06 47.7852C130.182 47.7852 127.496 50.1322 128.6 52.5557C129.432 54.3807 131.43 54.2262 132.107 52.2852C132.569 50.9582 132.859 50.7852 134.615 50.7852C137.872 50.7852 139.732 48.9872 137.4 48.0922C135.986 47.5497 137.198 46.7852 139.474 46.7852C142.057 46.7852 143.232 48.4287 142.227 50.6367C141.678 51.8392 142.648 52.7852 144.43 52.7852C144.988 52.7852 145.195 53.1402 145.088 53.9102C144.837 55.7147 147.48 55.7737 149.006 53.9977C150.743 51.9762 150.225 50.3472 147.516 49.3172C146.568 48.9567 146.182 48.4532 146.182 47.5757C146.182 44.2587 139.653 41.9207 135.818 43.8637ZM116.128 48.5352C116.493 49.7727 116.936 50.7867 117.112 50.7887C117.552 50.7932 119.682 53.9737 119.682 54.6267C119.682 54.9182 118.896 55.6917 117.935 56.3457C116.463 57.3482 116.188 57.8302 116.185 59.4102C116.183 60.4417 116.125 61.2937 116.057 61.3042C112.019 61.9142 112.182 61.9507 112.182 60.4317C112.182 59.6422 111.716 58.1052 111.147 57.0157C109.449 53.7667 109.478 53.0287 111.367 51.4487C113.176 49.9357 114.052 48.0732 113.202 47.5477C112.225 46.9442 112.68 46.2852 114.073 46.2852C115.289 46.2852 115.547 46.5672 116.128 48.5352ZM163.787 53.7722C163.972 55.0367 163.848 55.2462 162.958 55.1727C162.382 55.1252 161.228 55.5907 160.394 56.2072C158.944 57.2792 156.82 57.2757 157.483 56.2027C157.954 55.4407 162.375 52.3112 163 52.2977C163.313 52.2907 163.666 52.9542 163.787 53.7722ZM137.432 53.2852C137.262 53.5602 136.373 53.7852 135.456 53.7852C133.731 53.7852 132.97 54.6527 133.496 56.0217C133.813 56.8472 136.81 57.5737 137.681 57.0357C137.991 56.8442 138.662 57.0652 139.173 57.5267C140.104 58.3697 142.182 57.2137 142.182 55.8527C142.182 53.9682 138.305 51.8727 137.432 53.2852ZM168.097 55.5352C168.085 56.3392 168.004 56.2902 167.682 55.2852C167.134 53.5757 167.134 52.2612 167.682 53.5352C167.918 54.0852 168.105 54.9852 168.097 55.5352ZM104.795 61.8897C103.18 62.3357 102.22 61.2107 102.198 58.8457L102.182 57.1567L104.13 59.3457L106.078 61.5352L104.795 61.8897ZM164.182 58.5392C164.182 58.9542 163.282 59.6532 162.182 60.0937C161.082 60.5337 160.182 61.1987 160.182 61.5717C160.182 62.6707 161.945 63.3502 163.381 62.8042C164.886 62.2322 165.584 62.9477 164.636 64.0902C163.212 65.8057 160.955 66.4442 155.736 66.6072C151.592 66.7367 150.189 66.9773 148.798 67.7978C146.553 69.1228 146.5 69.0317 147.006 64.6927L147.432 61.0352L150.321 60.7247C151.971 60.5477 153.618 60.0452 154.161 59.5537C155.065 58.7357 155.1 58.7402 154.864 59.6427C154.727 60.1652 155.051 61.1307 155.584 61.7887L156.553 62.9847L157.924 62.0102C160.301 60.3197 163.927 57.8372 164.057 57.8107C164.126 57.7967 164.182 58.1247 164.182 58.5392ZM169.277 62.5352C169.389 63.4977 169.301 64.2852 169.081 64.2852C168.862 64.2852 168.682 63.4977 168.682 62.5352C168.682 61.5727 168.77 60.7852 168.877 60.7852C168.984 60.7852 169.164 61.5727 169.277 62.5352ZM169.689 65.9102C169.692 66.5287 169.838 67.5977 170.012 68.2852C170.187 68.9727 170.155 69.3752 169.942 69.1802C169.36 68.6457 168.751 64.7852 169.249 64.7852C169.487 64.7852 169.685 65.2917 169.689 65.9102ZM138.182 66.0568C138.182 66.2878 133.014 74.1242 131.272 76.5352C130.477 77.6352 129.408 79.2662 128.896 80.1602C127.957 81.8012 127.45 82.1243 126.988 81.3763C126.608 80.7613 129.693 74.7553 131.295 72.9893C133.222 70.8663 136.682 66.1918 136.682 65.7108C136.682 65.4938 137.019 65.4462 137.432 65.6042C137.844 65.7627 138.182 65.9663 138.182 66.0568ZM126.682 67.2617C126.682 67.7187 122.065 68.0987 118.932 67.9002C116.749 67.7617 115.682 68.2818 115.682 69.4843C115.682 70.8443 118.355 72.3122 119.233 71.4342C119.667 70.9997 127.108 71.1248 127.617 71.5753C128.58 72.4268 124.417 75.7547 122.727 75.4847C120.674 75.1562 115.173 77.5472 111.682 80.2857C110.246 81.4122 109.708 81.5742 108.682 81.1892C107.31 80.6737 103.207 80.8567 95.2325 81.7882C90.456 82.3462 89.9941 82.3253 89.5516 81.5338C88.2076 79.1328 87.5036 78.8782 82.8591 79.1162C79.2246 79.3027 78.6111 79.2342 79.4321 78.7322C80.8956 77.8372 81.1461 77.2677 80.9481 75.2802C80.6361 72.1442 81.5346 71.6102 89.6821 70.0887C93.6696 69.3442 98.5071 68.4177 100.432 68.0302C106.314 66.8457 126.682 66.2492 126.682 67.2617ZM131.174 67.1602C131.148 68.4577 130.267 68.9017 129.201 68.1552C128.417 67.6057 128.297 67.3182 128.772 67.1282C129.786 66.7227 131.183 66.7412 131.174 67.1602ZM165.572 69.7787C165.535 71.0932 165.258 71.3457 163.047 72.0797L160.564 72.9048L159.415 71.4698L158.266 70.0352L160.099 69.7588C161.107 69.6068 162.607 69.1387 163.432 68.7188C165.303 67.7663 165.625 67.9257 165.572 69.7787ZM104.811 69.1672C101.695 69.3692 100.738 70.4288 102.019 72.2578C102.668 73.1833 103.088 73.3222 104.371 73.0352C105.229 72.8427 107.718 72.5983 109.901 72.4918C114.244 72.2793 114.849 71.9862 114.599 70.2177C114.42 68.9547 112.032 68.6982 104.811 69.1672ZM90.4321 70.8343C85.0621 71.3928 84.3451 71.6082 84.0446 72.7567C83.3676 75.3457 86.4496 75.6737 96.4321 74.0732C96.9821 73.9852 97.8331 73.8842 98.3226 73.8492C99.6256 73.7557 99.9376 72.3963 98.9151 71.2668C97.9426 70.1923 97.0471 70.1463 90.4321 70.8343ZM140.688 71.5518C141.017 72.4178 140.988 73.1087 140.597 73.7357C139.798 75.0142 140.405 76.2408 142.135 76.8438C143.964 77.4812 144.386 78.5132 143.571 80.3547C142.757 82.1937 142.471 82.1557 141.484 80.0747C140.886 78.8142 140.082 78.1387 138.427 77.5067C136.232 76.6687 135.442 75.3017 136.702 74.5227C136.988 74.3457 137.778 73.3203 138.458 72.2433C139.915 69.9348 140.057 69.8913 140.688 71.5518ZM153.432 71.9088C153.982 72.7803 154.977 73.6212 155.644 73.7777C156.832 74.0567 151.403 77.2852 149.745 77.2852C149.435 77.2852 149.182 77.5102 149.182 77.7852C149.182 78.0602 148.957 78.2852 148.682 78.2852C148.407 78.2852 148.182 77.9868 148.182 77.6223C148.182 77.2578 147.623 76.4353 146.941 75.7938L145.7 74.6282L147.285 73.4593C148.157 72.8158 148.996 72.1008 149.151 71.8698C149.527 71.3073 151.308 70.3147 151.932 70.3197C152.207 70.3217 152.882 71.0368 153.432 71.9088ZM190.307 72.6162C189.963 72.7552 189.401 72.7552 189.057 72.6162C188.713 72.4777 188.994 72.3643 189.682 72.3643C190.369 72.3643 190.651 72.4777 190.307 72.6162ZM187.164 77.6667C192.75 82.9937 192.865 83.2633 191.025 86.6953C190.187 88.2573 189.351 89.6477 189.167 89.7852C188.982 89.9227 187.588 92.4148 186.068 95.3228C184.548 98.2313 182.672 101.606 181.9 102.823C178.956 107.458 176.583 112.989 175.421 117.928C172.363 130.922 171.679 134.139 171.675 135.535C171.672 136.36 171.338 138.273 170.932 139.785C170.526 141.298 170.191 143.577 170.188 144.849C170.184 146.122 169.846 147.966 169.437 148.946C169.027 149.927 168.826 151.079 168.99 151.507C169.187 152.02 169.004 152.285 168.452 152.285C167.889 152.285 167.699 151.998 167.872 151.41C168.014 150.929 168.261 148.735 168.421 146.535C168.831 140.899 170.159 131.242 171.376 125.035C171.484 124.485 172.395 119.535 173.401 114.035C175.529 102.394 175.731 101.516 177.176 97.5583C178.199 94.7553 178.212 94.5437 177.398 93.9492C176.217 93.0847 175.971 93.3253 174.19 97.0948C171.335 103.137 169.826 109.703 167.165 127.662C166.625 131.307 165.754 136.257 165.229 138.662C164.704 141.067 164.009 144.667 163.683 146.66C163.053 150.52 162.36 151.173 160.981 149.204C160.564 148.609 160.304 147.99 160.403 147.829C160.603 147.502 160.93 144.581 161.458 138.414C161.833 134.027 161.434 132.785 159.65 132.785C158.447 132.785 158.035 132.035 158.631 130.931C159.522 129.278 159.973 126.054 159.63 123.785C159.32 121.732 159.476 121.23 161.416 118.035C164.17 113.5 164.924 111.347 163.895 110.952C162.839 110.547 161.485 111.928 159.332 115.609C157.234 119.195 157.112 119.266 155.976 117.532C155.208 116.361 160.537 106.811 162.848 105.216C163.528 104.746 162.766 103.785 161.712 103.785C160.824 103.785 158.812 106 156.033 110.035C152.556 115.085 151.464 115.65 150.267 113.022C149.76 111.91 150.114 111.352 154.678 106.064C159.869 100.05 161.436 97.6702 160.984 96.4902C160.461 95.1282 159.862 95.5847 151.378 103.815C149.424 105.711 147.68 107.117 147.503 106.94C146.599 106.036 147.787 104.525 154.533 97.9958C160.953 91.7828 161.8 90.7803 161.222 90.0833C160.251 88.9143 159.381 89.1017 158.221 90.7297C157.656 91.5242 156.684 92.3053 156.062 92.4658C155.44 92.6268 153.254 94.3298 151.203 96.2513C149.152 98.1723 147.397 99.6673 147.303 99.5728C146.801 99.0713 148.781 95.9828 151.343 93.2733C154.2 90.2503 154.688 88.7852 152.836 88.7852C152.354 88.7852 150.089 90.6847 147.804 93.0067C145.518 95.3287 143.226 97.3623 142.711 97.5258C142.196 97.6893 141.652 98.1427 141.502 98.5327C141.352 98.9232 140.263 99.8447 139.081 100.581C137.899 101.317 135.469 103.101 133.682 104.544C129.117 108.231 112.38 118.166 103.444 122.493C99.3121 124.493 94.0306 127.282 91.7066 128.691C86.9686 131.562 86.8446 131.573 87.6821 129.036C88.0116 128.037 88.1576 126.745 88.0056 126.165C87.6341 124.743 87.8581 124.598 99.4321 118.775C109.825 113.546 110.353 113.255 116.932 109.144C121.119 106.528 122.188 105.817 130.589 100.066C133.425 98.1242 136.851 95.8352 138.201 94.9792C139.551 94.1237 141.505 92.7737 142.543 91.9792C143.581 91.1852 145.893 89.5787 147.681 88.4092C151.052 86.2047 152.681 84.9982 155.441 82.6602C156.333 81.9037 157.259 81.2853 157.498 81.2848C157.736 81.2848 159.2 80.2887 160.75 79.0717C163.632 76.8097 164.642 76.4233 171.182 75.0793C180.893 73.0843 182.657 73.3697 187.164 77.6667ZM194.682 75.7852C195.026 76.4282 195.039 76.7852 194.717 76.7852C194.442 76.7852 193.976 76.3352 193.682 75.7852C193.338 75.1422 193.325 74.7852 193.647 74.7852C193.922 74.7852 194.387 75.2352 194.682 75.7852ZM202.866 77.7603C203.793 78.1128 204.336 78.9357 204.973 80.9562C205.993 84.1937 205.706 85.6007 204.189 84.7892C202.989 84.1467 201.182 84.9072 201.182 86.0547C201.182 86.4582 201.632 87.6283 202.182 88.6548C203.665 91.4228 202.148 95.2852 199.576 95.2852C198.018 95.2852 195.137 98.4422 195.439 99.8177C195.704 101.025 195.531 101.338 194.223 102.014C191.492 103.426 190.857 105.495 192.427 107.867C193.941 110.155 193.531 111.285 191.188 111.285C190.434 111.285 189.278 111.679 188.621 112.16C186.209 113.924 185.182 114.358 185.182 113.61C185.182 112.66 196.121 91.0737 196.706 90.8687C196.968 90.7767 197.182 90.3682 197.182 89.9602C197.182 89.5522 197.738 88.4892 198.418 87.5977C199.875 85.6872 199.475 82.8977 197.551 81.5497C196.951 81.1292 196.739 80.7852 197.081 80.7852C197.423 80.7852 197.975 80.1667 198.307 79.4102C199.274 77.2102 200.373 76.8123 202.866 77.7603ZM172.707 78.4367C166.492 81.5757 171.734 92.1562 178.589 90.3102C183.526 88.9807 185.269 79.4172 180.815 78.0957C179.181 77.6112 173.902 77.8332 172.707 78.4367ZM77.5466 79.5872C77.3806 79.7532 76.9491 79.7712 76.5886 79.6267C76.1896 79.4672 76.3081 79.3487 76.8906 79.3247C77.4176 79.3032 77.7126 79.4212 77.5466 79.5872ZM136.309 81.1812C136.241 81.8117 136.51 83.1043 136.907 84.0533C137.583 85.6713 137.564 85.8132 136.593 86.3327C136.023 86.6377 134.492 87.9327 133.189 89.2112C131.886 90.4892 129.536 92.3227 127.967 93.2852C126.398 94.2477 123.303 96.2282 121.091 97.6862C118.878 99.1442 117.014 100.269 116.949 100.186C115.814 98.7397 115.244 89.7513 115.997 85.1963C116.239 83.7328 116.621 83.2292 117.866 82.7297C118.727 82.3847 119.968 81.6938 120.624 81.1938C123.083 79.3203 123.89 81.2362 122.769 86.2852C122.19 88.8937 122.485 89.4562 125.072 90.6787C129.096 92.5802 130.354 91.9198 129.996 88.0908C129.862 86.6498 129.982 85.7852 130.317 85.7852C131.318 85.7852 132.682 84.1352 132.682 82.9247C132.682 80.8677 133.599 79.7082 135.09 79.8802C136.155 80.0032 136.406 80.2717 136.309 81.1812ZM178.207 82.0482C179.018 82.4677 179.682 82.8842 179.682 82.9732C179.682 85.4812 176.969 87.5607 175.398 86.2572C172.149 83.5607 174.454 80.1072 178.207 82.0482ZM86.5711 89.5352C86.9226 92.8352 87.5411 98.7977 87.9451 102.785C88.8811 112.021 89.1126 114.173 89.3751 116.09C89.5621 117.457 89.3801 117.744 87.8681 118.465C85.3236 119.679 85.2871 119.632 85.2936 115.16C85.3006 110.463 84.5001 104.263 83.1801 98.7852C82.6831 96.7227 82.1491 93.7977 81.9941 92.2852C81.8386 90.7727 81.5636 88.4793 81.3826 87.1883C80.9021 83.7598 81.2596 83.1973 83.8026 83.3813L85.9321 83.5352L86.5711 89.5352ZM77.1196 87.9102C77.4226 89.6292 77.8911 92.7468 78.1611 94.8383C78.4311 96.9298 78.8711 99.2167 79.1386 99.9207C79.5196 100.923 79.4591 101.264 78.8586 101.494C77.5831 101.984 77.2761 101.421 76.8996 97.9048C76.3356 92.6388 76.2641 92.1617 75.7186 90.0352C74.9726 87.1252 75.0426 84.7852 75.8756 84.7852C76.3341 84.7852 76.7556 85.8442 77.1196 87.9102ZM70.5891 86.4102C71.8736 88.9202 73.5246 101.285 72.5751 101.285C72.0311 101.285 71.7416 99.6897 71.1966 93.6762C70.7461 88.7107 70.0361 86.2852 69.0321 86.2852C68.8071 86.2852 68.7621 86.0602 68.9321 85.7852C69.4226 84.9912 69.9681 85.1972 70.5891 86.4102ZM65.9461 93.2198C66.3021 94.7683 66.7521 97.5538 66.9461 99.4098L67.2986 102.785L65.6151 103.495L63.9321 104.206L63.567 102.621C62.8385 99.4563 62.892 91.5212 63.6515 90.0967C64.541 88.4292 64.9826 89.0298 65.9461 93.2198ZM50.0375 89.6852C51.178 90.4102 54.7525 100.381 54.104 101.03C53.9845 101.149 52.322 101.312 50.4095 101.391L46.932 101.535L46.0525 98.0352C45.5685 96.1102 45.0311 93.3542 44.8586 91.9102L44.5446 89.2852L46.988 89.2928C48.3325 89.2973 49.7045 89.4737 50.0375 89.6852ZM107.807 93.4813C108.288 93.8468 108.682 94.5537 108.682 95.0527C108.682 95.8572 108.541 95.8272 107.432 94.7852C105.578 93.0427 105.874 92.0133 107.807 93.4813ZM101.932 94.2852C102.102 94.5602 102.003 94.7852 101.712 94.7852C101.421 94.7852 101.182 94.5602 101.182 94.2852C101.182 94.0102 101.281 93.7852 101.403 93.7852C101.524 93.7852 101.762 94.0102 101.932 94.2852ZM96.882 95.2018C96.8545 95.5228 96.7985 96.2352 96.757 96.7852C96.625 98.5472 95.682 97.8527 95.682 95.9937C95.682 94.7822 95.8846 94.2692 96.3071 94.4102C96.6511 94.5247 96.9095 94.8813 96.882 95.2018ZM59.182 99.0352C59.182 99.9977 59.0641 100.785 58.9196 100.785C58.4691 100.785 57.66 98.2253 57.958 97.7433C58.5775 96.7408 59.182 97.3782 59.182 99.0352ZM107.101 99.5957C108.423 101.088 108.948 101.357 110.095 101.128C111.485 100.85 113.289 103.351 112.19 104.03C111.968 104.167 111.666 103.967 111.52 103.584C111.369 103.191 110.151 102.737 108.717 102.54C106.841 102.282 106.178 101.976 106.166 101.363C106.158 100.908 105.82 100.098 105.416 99.5648C103.615 97.1823 104.987 97.2077 107.101 99.5957ZM101.09 100.449C101.201 101.382 101.54 101.785 102.215 101.785C102.747 101.785 103.182 102.123 103.182 102.535C103.182 103.497 102.455 103.487 100.957 102.505C99.5741 101.599 99.0916 100.603 99.5096 99.5143C99.9521 98.3603 100.91 98.9268 101.09 100.449ZM39.9021 103.035C40.9006 109.646 40.7481 110.279 38.4396 109.081C37.2241 108.451 36.9061 108.482 35.3826 109.381C33.3386 110.587 33.3171 110.775 34.9941 112.768C36.5691 114.639 36.3861 114.979 34.2101 114.22C31.0701 113.126 27.1886 116.373 27.1841 120.098C27.1826 121.402 26.9546 121.706 25.8056 121.936C23.0726 122.482 22.7856 128.089 25.4386 129.107C26.0301 129.334 25.6116 129.774 23.8361 130.789C21.4896 132.132 21.4201 132.24 20.9306 135.35L20.4291 138.535L18.1706 138.559C13.5986 138.609 13.5891 142.628 18.1566 144.476L19.9321 145.195L18.5351 145.736C15.9136 146.752 14.5016 146.982 14.9066 146.327C15.4756 145.406 13.7076 143.785 12.1341 143.785C11.3681 143.785 10.6021 143.56 10.4321 143.285C10.2621 143.01 9.58705 142.785 8.93205 142.785C8.27705 142.785 7.60205 142.56 7.43205 142.285C7.26205 142.01 6.68655 141.785 6.15255 141.785C4.32055 141.785 5.83855 139.586 7.93205 139.208C9.37605 138.946 9.49606 136.669 8.16106 134.864C5.64506 131.461 9.24907 127.625 13.0241 129.688C15.4241 131 19.6236 127.512 18.6686 125C17.9366 123.074 17.9891 122.991 20.6786 121.834C24.5891 120.152 25.1691 118.854 23.5161 115.483C22.7826 113.987 22.1781 112.487 22.1731 112.149C22.1681 111.812 21.4931 110.545 20.6731 109.335C19.0211 106.897 18.6731 104.983 19.9731 105.482C20.4081 105.649 21.0851 105.785 21.4776 105.785C21.8701 105.785 22.8976 106.46 23.7606 107.285C26.5181 109.92 30.5496 109.016 30.0876 105.867C29.8036 103.932 30.4046 103.855 32.6821 105.535C35.9771 107.966 38.0936 106.836 37.2916 103.074C36.7256 100.421 36.8366 100.22 38.4536 100.969C39.2426 101.335 39.7556 102.066 39.9021 103.035ZM80.3671 106.91C80.9406 111.856 81.7591 119.104 81.8421 119.975C81.9096 120.681 81.2721 121.167 79.2831 121.926C75.3786 123.417 75.3261 123.27 76.4496 113.956C77.2256 107.523 77.2766 106.067 76.7326 105.885C75.7196 105.548 77.1136 104.802 78.7766 104.793C79.9876 104.786 80.1451 104.996 80.3671 106.91ZM72.3991 108.16C72.2386 109.742 71.8701 112.61 71.5806 114.535C70.8741 119.235 71.0271 122.285 72.0241 123.387C72.4746 123.884 72.7306 124.403 72.5936 124.541C72.3161 124.818 63.2626 128.785 62.9071 128.785C62.1306 128.785 62.9691 127.723 64.6821 126.535C66.9861 124.939 67.4506 122.732 65.6821 121.785C64.9386 121.387 64.6821 120.738 64.6821 119.257C64.6821 117.608 64.463 117.164 63.412 116.685C62.412 116.229 62.1921 115.833 62.3781 114.821C62.5081 114.114 62.7576 112.664 62.9326 111.599C63.3156 109.266 65.2806 107.398 68.6101 106.2C72.5781 104.774 72.7346 104.855 72.3991 108.16ZM57.557 107.923C59.632 109.057 59.6535 109.032 56.557 109.051C55.1135 109.06 51.7045 109.262 48.9815 109.5C44.792 109.867 44.0986 109.826 44.4696 109.234C44.7101 108.85 44.8535 108.198 44.7875 107.785C44.598 106.594 55.336 106.71 57.557 107.923ZM56.272 115.785C56.5785 118.262 56.4915 118.662 55.397 119.813C52.643 122.708 55.065 128.398 59.682 129.879C60.0945 130.011 58.8991 130.63 57.0251 131.254C52.9376 132.615 53.328 132.94 52.9755 127.881C52.5595 121.903 51.38 120.704 47.432 122.246C46.872 122.465 46.0645 122.408 45.5975 122.116C44.288 121.299 43.3531 122.469 42.9591 125.419L42.6096 128.035L41.6041 126.66C39.2786 123.48 38.2711 125.466 38.6591 132.465L38.9321 137.394L37.0771 138.34C34.7731 139.514 33.8041 139.593 34.6821 138.535C35.4086 137.66 34.7186 136.523 33.1621 136.029C31.9881 135.656 29.1821 137.072 29.1821 138.037C29.1821 139.011 31.4736 140.465 32.2851 140.005C32.7591 139.737 32.7881 139.796 32.3931 140.226C31.8466 140.822 23.1336 144.404 22.8706 144.141C22.6991 143.969 25.1191 134.792 25.4976 134.179C25.6431 133.944 27.4316 133.902 29.4721 134.087C33.5511 134.457 34.2021 133.721 32.8366 130.285C32.6726 129.873 32.5881 128.916 32.6481 128.159C32.7186 127.275 32.4761 126.694 31.9701 126.534C29.3661 125.712 29.4566 125.84 30.6071 124.615C31.3086 123.868 31.6821 122.826 31.6821 121.614V119.757L34.8836 120.085C42.1546 120.83 43.8766 119.612 41.9781 115.068L41.2741 113.383L45.986 113.41C48.5775 113.424 50.8135 113.32 50.955 113.179C51.0965 113.037 52.274 112.947 53.572 112.978L55.932 113.035L56.272 115.785ZM197.899 115.273C199.81 115.999 199.341 118.785 197.308 118.785C196.937 118.785 195.746 119.214 194.66 119.739L192.687 120.692L191.585 118.364C190.979 117.083 190.4 115.878 190.299 115.686C190.198 115.494 190.862 115.446 191.774 115.58C193.062 115.768 195.246 115.422 196.524 114.828C196.575 114.805 197.194 115.005 197.899 115.273ZM185.889 118.098C187.478 120.941 187.48 120.882 185.807 120.009C185.05 119.614 184.038 119.29 183.557 119.288C182.489 119.285 182.48 119.125 183.445 117.26C184.416 115.382 184.361 115.364 185.889 118.098ZM128.182 119.665C128.182 119.874 126.386 121.955 124.19 124.29C121.422 127.235 120.196 128.918 120.19 129.785C120.181 130.957 120 131.043 117.306 131.166C113.764 131.328 109.653 132.629 108.776 133.866C108.416 134.375 107.404 135.159 106.527 135.608C105.65 136.058 104.183 137.294 103.268 138.355C101.246 140.701 101.018 140.725 100.411 138.66C99.9065 136.948 99.2835 136.779 95.4845 137.327C93.321 137.638 93.383 136.572 95.5865 135.578C96.65 135.099 98.1536 134.162 98.9286 133.496C100.663 132.005 101.226 131.993 103.655 133.391C105.282 134.327 105.698 134.394 106.379 133.829C107.667 132.76 107.331 131.935 104.932 130.285C103.695 129.434 102.683 128.579 102.683 128.386C102.685 127.757 109.483 123.969 114.432 121.84C114.707 121.722 114.088 122.562 113.057 123.706C110.967 126.027 110.853 126.39 111.933 127.286C113.17 128.313 115.286 127.522 120.572 124.058C123.32 122.258 125.791 120.785 126.064 120.785C126.336 120.785 126.839 120.448 127.182 120.035C127.87 119.205 128.182 119.09 128.182 119.665ZM61.1015 122.559C62.2165 125.006 61.3795 125.541 59.2325 123.753C58.068 122.783 58.0605 122.734 58.9825 122.036C60.276 121.057 60.435 121.096 61.1015 122.559ZM133.682 121.48C133.682 121.587 132.899 122.543 131.943 123.605C130.987 124.667 130.2 125.729 130.193 125.966C130.148 127.632 125.988 131.285 124.135 131.285C121.765 131.285 121.74 131.117 123.807 129.096C127.947 125.049 133.682 120.625 133.682 121.48ZM206.99 124.285C209.345 126.456 209.995 126.648 211.436 125.594C212.723 124.653 214.082 126.347 214.082 128.892C214.082 129.897 214.252 130.994 214.459 131.33C214.744 131.791 214.356 131.862 212.884 131.619C211.81 131.441 209.918 131.294 208.678 131.291L206.425 131.285L206.605 129.012C206.774 126.895 206.687 126.7 205.342 126.193C204.077 125.715 203.923 125.44 204.095 123.967C204.341 121.862 204.364 121.865 206.99 124.285ZM48.582 129.545C48.582 130.515 48.9351 131.847 49.3661 132.505C50.1396 133.685 50.1195 133.713 47.916 134.463C45.3825 135.327 45.0225 134.811 46.3645 132.239C46.737 131.526 47.197 130.113 47.387 129.1C47.81 126.844 48.582 127.132 48.582 129.545ZM140.126 132.237C142.564 136.922 142.564 136.926 140.807 136.009C140.051 135.614 139.134 135.29 138.771 135.288C138.407 135.287 137.118 134.704 135.906 133.994L133.702 132.702L135.548 130.494C137.905 127.674 137.715 127.602 140.126 132.237ZM83.8711 140.042C86.2366 141.03 86.3201 143.109 84.1571 147.162C82.3781 150.495 82.5076 151.911 84.6951 153.042C85.9661 153.699 86.1456 154.023 85.8786 155.176C85.2371 157.946 80.2806 161.167 80.1181 158.92C79.8641 155.396 79.4626 154.595 78.1256 154.945C77.3941 155.136 77.1821 154.921 77.1821 153.988C77.1821 153.327 77.3826 152.785 77.6281 152.785C78.6821 152.785 83.1821 148.143 83.1821 147.056C83.1821 144.112 80.4306 142.614 77.6571 144.048C76.3906 144.703 76.1821 144.709 76.1821 144.089C76.1821 143.692 76.0466 143.014 75.8811 142.583C75.6716 142.036 76.0116 141.641 77.0061 141.275C77.7906 140.987 79.1071 140.426 79.9321 140.029C81.7996 139.131 81.6906 139.131 83.8711 140.042ZM54.467 141.625C54.1825 142.366 54.0571 142.392 53.6816 141.784C53.3976 141.325 53.4475 140.93 53.819 140.701C54.6185 140.207 54.872 140.568 54.467 141.625ZM97.3941 143.347C97.2786 143.534 95.943 144.51 94.4265 145.517C92.6355 146.706 91.4181 147.949 90.9516 149.066C90.1956 150.874 90.0711 150.943 88.3661 150.485C87.3086 150.202 87.3071 150.18 88.1786 147.867C90.0371 142.938 90.1301 142.786 91.2946 142.764C91.9201 142.753 93.2195 142.318 94.182 141.798C95.89 140.875 98.2256 142.001 97.3941 143.347ZM49.3215 147.285C48.507 149.804 48.2955 150.048 46.807 150.192C44.902 150.376 44.814 149.967 46.182 147.285C46.732 146.207 47.182 144.797 47.182 144.152C47.182 143.323 47.586 142.835 48.557 142.49C50.3555 141.852 50.594 143.35 49.3215 147.285ZM67.8071 144.257C69.5051 145.108 69.5281 145.829 67.9321 148.178C67.2446 149.19 66.6821 150.214 66.6821 150.454C66.6821 150.694 66.1306 151.546 65.4561 152.348C64.7821 153.149 63.5131 155.15 62.6366 156.795C61.1366 159.609 60.182 160.541 60.182 159.19C60.182 158.863 61.1105 157.058 62.2455 155.18C65.695 149.471 64.4385 145.877 59.7525 148.048C56.5005 149.555 56.682 149.556 56.682 148.035C56.682 147.348 56.929 146.785 57.2315 146.785C57.5335 146.785 58.49 146.457 59.3565 146.056C61.7465 144.949 65.9001 143.382 66.1821 143.48C66.3196 143.528 67.0511 143.877 67.8071 144.257ZM43.0856 146.66C41.6061 150.039 40.2646 151.785 39.1481 151.785C37.9651 151.785 37.9646 151.874 39.1711 149.215C39.7151 148.016 40.1651 146.545 40.1711 145.945C40.1816 144.896 40.8616 144.548 43.2791 144.353C44.0446 144.292 44.0261 144.514 43.0856 146.66ZM53.8716 146.16C53.6901 146.917 53.2355 148.143 52.862 148.885C51.1845 152.217 52.7076 154.349 55.9901 153.266C58.3721 152.48 58.4461 152.75 56.5551 155.325C54.9486 157.513 54.8975 157.537 51.566 157.711L48.2 157.887L49.929 154.145C50.88 152.087 52.047 149.139 52.523 147.594C53.3945 144.763 54.4841 143.605 53.8716 146.16ZM37.0211 146.66C36.8996 146.867 36.2996 148.16 35.6871 149.535C35.0751 150.91 34.1681 152.485 33.6716 153.035C33.1756 153.585 32.6936 154.598 32.6011 155.285C32.4586 156.338 32.1291 156.56 30.5131 156.693C28.2331 156.881 28.2651 156.19 30.7241 152.127C31.5261 150.803 32.1821 149.314 32.1821 148.82C32.1821 148.251 32.8711 147.638 34.0571 147.152C36.1496 146.293 37.3536 146.094 37.0211 146.66ZM27.1946 152.339C26.3631 154.097 25.6826 155.817 25.6826 156.16C25.6821 156.521 25.0486 156.785 24.1821 156.785C22.1721 156.785 22.2611 156.03 24.7016 152.375C26.3771 149.866 27.8511 148.601 28.5696 149.056C28.6451 149.104 28.0266 150.581 27.1946 152.339ZM20.2231 153.469C19.6506 154.395 19.1821 155.613 19.1821 156.175C19.1821 157.152 15.5946 158.364 14.8641 157.634C14.5001 157.27 18.1536 152.596 19.1161 152.195C20.9836 151.417 21.2801 151.759 20.2231 153.469ZM46.3665 154.91C46.156 155.529 46.0025 156.51 46.0255 157.089C46.0635 158.047 45.8216 158.135 43.3766 158.049C41.1721 157.972 38.6626 157.285 40.5861 157.285C40.8996 157.285 41.4971 156.626 41.9136 155.821C42.9941 153.731 47.05 152.902 46.3665 154.91ZM38.8271 156.785C39.1186 157.9 37.5701 158.189 36.1821 157.278C35.5156 156.84 35.5156 156.731 36.1821 156.293C37.3951 155.497 38.5461 155.711 38.8271 156.785Z" fill="black"/>
</svg>
