<svg width="275" height="352" viewBox="0 0 275 352" fill="none" xmlns="http://www.w3.org/2000/svg">
<path d="M268.5 267L258.5 347H182.5H102L29 337.5L8.5 328.5L6 317.5L8.5 108.5L37 30L34 17.5L35.5 6L140.5 4.5L146.5 13L142 27.5L162.5 85L168 126.5V304.5L187.5 299L268.5 267Z" fill="#60A845"/>
<path fill-rule="evenodd" clip-rule="evenodd" d="M32.236 1.9501C30 11.4501 33.3122 20.2598 32.221 30.547C32.1118 31.5766 30.0409 37.0652 29.9307 38.0305C29.6949 40.0962 28.9307 41.0943 27.4307 45.5943C25.4307 49.5943 24.314 50.8525 23.07 54.5305C22.3725 56.593 20.991 60.893 20.0005 64.086C17.971 70.626 14.799 78.6696 14.698 77.5306C11.9307 85.5943 12.485 83.5306 7.07999 97.2806C6.96399 98.1056 6.62252 100.018 6.32102 101.531C4.05952 112.882 3.86599 117.695 3.52649 171.031C3.41499 188.493 3.11951 203.906 2.86951 205.281C2.61951 206.656 2.47501 208.729 2.54901 209.888C2.54901 216.173 2.22101 213.54 2.22101 224.531L2.2135 226.656C2.209 227.825 2.02799 229.06 1.81149 229.402C0.430664 238.594 0.930664 235.094 0 242.143C0.1995 242.343 0.429993 258.242 0.511993 277.475C0.697993 321.014 0.992991 323.994 5.54349 328.276C7.78099 330.381 10.8935 332.109 20.287 336.459C25.448 338.849 27.4175 339.441 35.623 341.068C43.891 342.707 45.0465 342.895 49.221 343.289C50.7335 343.432 54.671 343.986 57.971 344.52C61.271 345.055 65.2085 345.6 66.721 345.732C68.2335 345.863 72.621 346.309 76.471 346.722C86.3445 347.781 89.1 347.95 110.566 348.813C121.069 349.236 130.856 349.775 132.316 350.012C133.776 350.249 140.146 350.475 146.471 350.516C152.796 350.556 158.871 350.756 159.971 350.96C162.29 351.39 211.005 351.234 215.471 350.782C221.665 350.156 223.205 350.065 232.63 349.766C237.942 349.598 242.78 349.341 243.38 349.196C243.98 349.051 249.196 348.84 254.971 348.726C265.458 348.52 268.721 348.056 268.721 346.771C268.721 345.695 267.882 345.426 264.052 345.275C262.082 345.198 260.443 345.111 260.409 345.082C260.375 345.054 260.496 344.299 260.677 343.405C260.997 341.832 261.101 341.772 263.95 341.53C267.593 341.221 268.039 340.348 265.204 339.078C263.419 338.279 263.253 338.088 264.107 337.817C265.988 337.219 266.58 334.351 265.437 331.372C265.13 330.572 266.667 329.791 268.937 329.593C270.307 329.473 271.884 326.546 271.798 324.282C271.754 323.115 272.03 321.4 272.411 320.47C272.792 319.541 273.253 316.418 273.436 313.53C273.619 310.643 273.867 306.818 273.987 305.03C274.334 299.886 274.379 265.457 274.041 263.637C273.874 262.733 273.505 261.561 273.223 261.033C272.674 260.008 269.907 259.253 268.39 259.715C267.885 259.869 266.73 260.12 265.824 260.273C264.085 260.568 257.168 262.748 255.471 263.537C254.921 263.792 253.009 264.555 251.221 265.232C247.262 266.73 235.024 271.778 229.221 274.305C226.884 275.323 223.959 276.555 222.721 277.042C221.484 277.53 217.883 278.982 214.721 280.271C211.558 281.559 207.958 282.959 206.721 283.382C200.711 285.435 184.264 293.169 175.072 298.264C173.202 299.301 171.597 300.066 171.505 299.964C171.413 299.863 171.48 287.978 171.654 273.552L171.971 247.324C172.186 239.872 172.186 240.774 171.99 237.61C172.079 236.329 172.166 234.972 172.186 234.594C171.99 228.406 172.431 226.094 172.324 220.478C172.324 208.415 172.324 215.39 171.891 200.368C171.654 195.862 171.314 194.555 171.723 187.031C171.969 182.493 172.409 171.243 172.699 162.031C172.99 152.818 173.497 138.868 173.825 131.031C174.153 123.193 174.393 116.218 174.358 115.531C171.431 90.0944 168.931 92.0944 166.517 83.5306C166.37 83.5306 165.805 82.0116 165.261 80.1556C158.931 66.0944 162.029 70.2435 154.588 51.8305C154.366 52.0525 150.955 43.718 150.065 40.7805C149.649 39.4055 148.923 36.593 148.451 34.5305C147.979 32.468 147.397 30.5665 147.157 30.3055C146.472 29.56 146.638 28.4201 147.727 26.3881C148.902 24.1966 148.99 23.3516 148.48 19.1951L148.451 15.1871C148.077 9.03801 149.5 7.45015 146.965 1.95015C114.965 0.446433 55.8053 -1.55956 32.236 1.9501ZM142 9.45015L141.5 23.4501L123.368 22.4731C116.58 22.4076 112.355 22.5736 111.214 22.9506C110.021 23.3441 105.406 23.4786 96.7175 23.3731C77.4385 23.1386 39.675 22.5746 39.5 22.4001C39.369 22.2691 36.5 11.4501 38 8.45015C47.5 7.45117 109.221 7.45117 142 9.45015ZM99.7045 28.847C99.851 28.9935 100.031 37.5245 100.104 47.805C100.254 69.036 100.388 70.0211 103.221 70.5996C104.45 70.8506 105.206 70.7446 105.76 70.2436C106.194 69.8516 106.91 69.5306 107.351 69.5306C107.792 69.5306 108.633 68.8556 109.221 68.0306C109.808 67.2056 110.447 66.5305 110.641 66.5305C110.835 66.5305 111.411 67.3061 111.922 68.2541C112.948 70.1606 115.051 71.1951 116.384 70.4496C117.476 69.8381 117.447 68.6006 116.308 67.3126C114.311 65.0536 113.97 62.3915 113.994 49.2805C114.007 42.4055 114.197 34.803 114.416 32.386L114.814 27.9916L118.892 28.1361L122.971 28.2806L123.019 34.0305C123.108 44.769 123.777 55.2641 124.708 60.5306C126.987 73.4176 127.426 77.3916 126.791 79.3811C125.499 83.4286 125.743 87.3311 127.789 95.3521C128.852 99.5161 129.718 103.116 129.715 103.352C129.712 103.588 128.789 104.222 127.664 104.761C124.756 106.155 122.382 109.132 121.681 112.264C120.527 117.422 123.469 118.813 126.473 114.531L128.051 112.281L132.144 112.135C136.804 111.97 136.514 111.689 136.935 116.781C137.759 126.744 137.841 129.398 137.332 129.712C137.028 129.9 136.657 129.45 136.463 128.66C135.844 126.144 133.489 122.29 132.196 121.676C129.277 120.293 127.767 122.363 129.439 125.454C129.834 126.184 130.878 128.302 131.76 130.16L133.363 133.54L132.923 139.16C132.681 142.252 132.522 146.693 132.568 149.031C132.615 151.368 132.737 158.176 132.84 164.158C132.951 170.68 133.232 175.242 133.54 175.55C134.803 176.813 136.721 174.195 136.721 171.206C136.721 170.56 136.915 170.031 137.153 170.031C137.391 170.031 137.695 172.857 137.828 176.312C138.011 181.073 138.257 182.781 138.844 183.368C139.543 184.067 139.645 184.052 139.9 183.212C140.662 180.701 141.214 175.221 141.217 170.126C141.22 166.275 141.39 164.576 141.75 164.799C142.042 164.979 142.227 165.611 142.163 166.204C141.953 168.152 143.302 173.259 144.318 174.363C144.867 174.959 145.832 175.576 146.463 175.734C147.568 176.012 147.613 176.228 147.687 181.65C147.769 187.613 147.963 188.99 149.021 191.092C150.049 193.135 151.378 193.166 153.528 191.196L155.409 189.474L155.542 183.627C155.744 174.778 156.193 167.12 156.704 163.781C156.957 162.131 157.315 154.143 157.499 146.031C157.683 137.918 157.905 131.159 157.992 131.01C158.079 130.861 157.927 126.73 157.654 121.83C157.252 114.62 156.997 112.754 156.314 112.044C154.996 110.672 153.277 109.945 152.178 110.294C151.625 110.47 150.844 110.341 150.443 110.007C149.993 109.635 148.849 109.499 147.467 109.655C145.563 109.869 145.221 109.774 145.221 109.031C145.221 108.007 143.864 106.724 143.334 107.245C143.134 107.442 142.716 108.318 142.404 109.192L141.837 110.781L141.321 109.483C141.037 108.769 139.561 107.077 138.042 105.723C135.32 103.297 135.267 103.197 134.411 98.8406C133.599 94.7076 133.597 94.3896 134.382 93.9506C134.843 93.6921 135.563 92.8186 135.982 92.0086C136.953 90.1311 136.321 85.6586 134.551 81.8781C133.286 79.1746 132.221 74.9516 132.221 72.6361C132.221 71.4816 132.553 71.7861 134.567 74.7861C135.857 76.7081 138.241 80.5306 139.863 83.2806C141.486 86.0306 143.182 88.4896 143.633 88.7451C144.633 89.3126 149.291 89.1306 149.94 88.4986C150.391 88.0601 149.713 86.0741 146.965 79.7806C145.047 75.3881 142.328 67.7806 142.676 67.7806C142.739 67.7806 142.545 67.1321 142.243 66.3401C141.634 64.7376 139.453 50.727 138.966 45.2805C138.793 43.3555 138.331 39.868 137.938 37.5305C136.977 31.8095 136.989 28.5306 137.971 28.5306C138.478 28.5306 138.721 29.0385 138.721 30.1025C138.721 32.368 145.236 52.74 149.332 63.2805C151.255 68.2305 153.684 74.6431 154.73 77.5306C155.775 80.4181 156.989 83.7676 157.428 84.9741C158.617 88.2461 161.215 100.985 162.029 107.531C162.964 115.059 163.424 149.496 162.852 169.242C162.614 177.471 162.51 184.822 162.621 185.578C162.851 187.145 164.546 189.198 165.251 188.762C166.23 188.157 165.766 268.278 164.733 278.083C164.461 280.666 164.234 287.886 164.229 294.126C164.224 301.194 164.031 305.589 163.717 305.782C163.44 305.954 163.096 305.786 162.951 305.409C162.807 305.033 162.639 297.315 162.58 288.259C162.477 272.663 162.422 271.784 161.543 271.615C159.704 271.261 159.472 272.29 159.444 280.931C159.429 285.523 159.338 292.093 159.243 295.53L159.07 301.78L158.707 297.78C158.507 295.58 158.307 289.055 158.262 283.28C158.217 277.505 158.093 272.105 157.986 271.28C157.88 270.455 157.75 267.868 157.698 265.53C157.6 261.159 157.155 259.53 156.056 259.53C154.951 259.53 154.307 265.836 154.499 274.78C154.6 279.455 154.734 291.155 154.799 300.78C154.964 325.644 155.006 326.274 156.555 327.289C158.393 328.494 159.878 327.874 161.652 325.162L163.209 322.78L163.215 325.302C163.219 327.265 162.86 328.427 161.596 330.537L159.971 333.25L157.593 333.102C156.116 333.01 154.055 333.356 152.151 334.015C148.625 335.235 143.552 335.95 136.158 336.27C131.961 336.451 130.663 336.334 129.357 335.655C127.85 334.87 127.571 334.87 125.107 335.648C121.181 336.888 120.776 336.934 110.221 337.374C97.964 337.885 73.568 337.682 66.971 337.015C64.221 336.737 58.547 336.323 54.3625 336.095C49.8015 335.846 46.466 335.441 46.035 335.083C45.6395 334.755 43.326 334.16 40.8935 333.761C38.461 333.363 33.747 332.593 30.4175 332.052C24.8845 331.152 17.335 329.27 14.221 328.014C13.5335 327.737 12.41 326.689 11.724 325.686L10.477 323.862L10.3525 306.071C10.154 277.762 10.197 218.475 10.4165 218.112C10.5265 217.93 10.7555 213.843 10.9255 209.031C11.148 202.722 11.058 199.583 10.6025 197.781C10.175 196.088 10.059 193.264 10.243 189.031C10.3925 185.593 10.569 177.966 10.635 172.081C10.7005 166.196 10.879 161.18 11.031 160.934C11.183 160.688 11.394 156.278 11.4995 151.134C11.605 145.99 11.8065 139.868 11.947 137.531C12.0875 135.193 12.3295 130.468 12.485 127.031C13.072 114.035 13.761 105.171 14.4295 102.02C14.8095 100.227 16.129 96.5146 17.361 93.7701C20.1415 87.5761 25.029 74.5051 27.172 67.5306C31.2055 54.4016 35.091 43.175 36.949 39.2805C37.3425 38.4555 38.475 36.037 39.4655 33.9055L41.2665 30.0305H43.4405C45.827 30.0305 46.2785 30.5395 45.944 32.854C45.8305 33.6385 45.171 40.468 44.478 48.0305C43.785 55.593 42.9825 63.384 42.6945 65.344C41.9555 70.3755 41.9365 74.8351 42.65 75.6951C42.982 76.0951 43.701 76.5396 44.2475 76.6826C45.4215 76.9896 46.547 75.1626 47.0195 72.1836C47.1855 71.1371 47.5135 69.9201 47.749 69.48C48.113 68.7985 49.4445 56.1656 51.2415 36.3505C51.4875 33.639 51.8135 31.0275 51.966 30.547C52.302 29.4875 56.0915 29.0396 64.7635 29.034L70.556 29.0305L70.4515 36.4055C70.394 40.4615 70.1965 47.268 70.0135 51.5305C69.83 55.793 69.5895 63.1056 69.4785 67.7806C69.368 72.4556 69.1295 76.8796 68.9495 77.6111C68.693 78.6521 68.85 79.0646 69.671 79.5041C71.2795 80.3646 72.504 79.3946 73.245 76.6721C73.9315 74.1501 73.996 73.7031 74.421 68.5306C74.568 66.7431 75.024 63.0305 75.434 60.2805C76.1695 55.3525 77.407 44.3785 77.943 38.0305C78.094 36.243 78.3045 34.3305 78.4105 33.7805C78.5165 33.2305 78.76 31.8345 78.952 30.6785L79.301 28.5761L82.386 28.4286C86.7225 28.2206 99.384 28.5271 99.7045 28.847ZM107.427 29.3475C107.91 30.604 107.201 33.5305 106.415 33.5305C105.915 33.5305 105.721 32.8305 105.721 31.0305C105.721 29.227 105.915 28.5306 106.417 28.5306C106.8 28.5306 107.255 28.898 107.427 29.3475ZM92.8555 74.2126C91.444 74.9046 91.3585 75.1486 90.714 80.3371C90.2235 84.2846 90.2635 84.7981 91.21 86.7056C92.535 89.3771 93.213 90.2301 94.596 90.9666C95.5305 91.4641 95.721 91.9851 95.721 94.0421C95.721 96.3961 95.6205 96.5816 93.6755 97.8091L91.6305 99.1006L91.966 110.691C92.151 117.065 92.4115 122.675 92.545 123.156C92.7075 123.739 93.2855 124.031 94.28 124.031C95.53 124.031 95.8985 123.728 96.5505 122.167C96.979 121.142 97.563 118.894 97.8485 117.171L98.3675 114.039L100.965 114.345C104.252 114.731 105.329 114.156 106.725 111.271C107.657 109.347 107.737 108.778 107.246 107.592C106.68 106.225 103.998 104.531 102.4 104.531C101.837 104.531 101.724 104.282 102 103.656C102.213 103.175 102.328 99.4836 102.257 95.4541C102.136 88.5911 102.189 88.1081 103.094 87.8206C105.627 87.0171 106.209 81.1361 104.069 77.9796C102.808 76.1196 101.498 75.9541 99.283 77.3741C98.2945 78.0086 98.023 78.0226 97.666 77.4581C97.4295 77.0856 97.2255 76.5556 97.213 76.2806C97.1295 74.5116 94.648 73.3341 92.8555 74.2126ZM32.236 87.1556C25.2965 105.165 24.371 107.18 22.4265 108.51C19.81 110.3 17.221 115.314 17.221 118.593C17.221 122.483 19.781 126.531 22.2425 126.531C22.6815 126.531 23.961 125.743 25.0855 124.781C27.391 122.807 27.821 122.697 28.765 123.834C29.7315 124.998 33.418 124.488 35.0495 122.964C36.68 121.441 37.721 119.422 37.721 117.784C37.721 117.016 37.976 116.536 38.346 116.607C39.4565 116.82 41.2085 115.989 41.739 114.997C42.0235 114.466 42.4455 114.031 42.6775 114.031C43.2475 114.031 43.2715 121.846 42.708 124.031C42.4595 124.993 41.6645 128.368 40.941 131.531C40.2175 134.693 39.435 137.896 39.202 138.649C38.757 140.084 39.6225 141.531 40.927 141.531C42.129 141.531 43.8815 154.294 43.612 161.085C43.4575 164.982 44.074 166.031 46.5205 166.031C49.6005 166.031 49.647 165.76 49.848 146.781C49.9965 132.767 50.167 129.423 50.82 127.747C51.831 125.151 51.325 124.221 48.6585 123.77L46.5965 123.422L46.8845 117.601C47.043 114.4 47.183 111.749 47.1965 111.71C47.21 111.671 47.7335 111.511 48.36 111.353C48.986 111.196 50.1395 110.399 50.922 109.582C52.0045 108.452 52.271 107.798 52.0335 106.852C51.5 104.726 47.464 100.804 44.0015 99.0461C40.9735 97.5091 40.4965 97.4136 36.987 97.6386C34.9155 97.7716 33.221 97.7251 33.221 97.5356C33.221 97.3456 33.9135 95.1856 34.7605 92.7356C35.607 90.2851 36.503 87.3091 36.7515 86.1221C37 84.9351 37.327 83.7636 37.4785 83.5186C37.698 83.1631 35.324 81.5306 34.587 81.5306C34.486 81.5306 33.428 84.0621 32.236 87.1556ZM49.721 83.2346C48.2085 84.1896 46.146 85.4291 45.138 85.9891C44.13 86.5496 42.797 87.7216 42.176 88.5941L41.0465 90.1801L42.189 91.1051C42.8175 91.6141 43.4765 92.0306 43.653 92.0306C43.8295 92.0306 45.082 91.2431 46.4355 90.2806C47.7895 89.3181 49.1385 88.5301 49.434 88.5291C49.7295 88.5286 50.9215 87.6846 52.0835 86.6541C53.5405 85.3621 54.239 84.3151 54.3335 83.2806C54.531 81.1261 53.0835 81.1116 49.721 83.2346ZM41.0215 105.787C42.132 107.482 41.561 107.997 38.782 107.808C35.698 107.599 34.221 107.125 34.221 106.347C34.221 105.172 35.338 104.626 37.7805 104.607C39.831 104.591 40.365 104.785 41.0215 105.787ZM151.02 127.377C151.369 134.761 151.062 137.401 150.128 135.031C149.5 133.435 148.968 122.605 149.428 120.774C150.119 118.02 150.689 120.386 151.02 127.377ZM145.914 127.406C146.317 133.504 146.293 153.514 145.879 156.529C145.07 162.418 144.562 152.871 144.627 133.031C144.66 123.21 144.694 122.531 145.156 122.531C145.396 122.531 145.737 124.725 145.914 127.406ZM72.123 150.034C68.6645 151.893 66.576 155.888 68.0005 157.921C68.645 158.841 68.929 158.915 69.987 158.433C70.6655 158.123 71.221 157.685 71.221 157.459C71.221 156.844 76.0155 154.533 77.3295 154.515C78.727 154.495 80.221 153.426 80.221 152.445C80.221 151.409 77.656 149.651 75.664 149.321C74.4975 149.128 73.396 149.349 72.123 150.034ZM79.0885 159.156C78.324 159.736 77.0055 163.058 75.0315 169.375C74.136 172.24 73.9895 174.329 74.655 174.74C74.894 174.888 75.2425 176.162 75.4295 177.573C75.6915 179.549 75.998 180.197 76.7655 180.397C78.092 180.744 78.8525 182.347 80.4065 188.072C81.1215 190.707 82.3775 194.967 83.197 197.538C85.563 204.961 85.5855 205.802 83.4975 209.014C82.5205 210.517 81.721 212.328 81.721 213.039C81.721 213.749 81.498 214.554 81.2255 214.826C80.8985 215.153 80.993 215.697 81.504 216.426C83.049 218.632 85.1765 217.437 87.944 212.81C89.441 210.307 89.721 209.377 89.721 206.902C89.721 205.287 89.4925 203.538 89.2135 203.017C88.934 202.495 88.6075 201.441 88.487 200.674C88.2215 198.986 87.0265 193.866 85.944 189.781C85.507 188.131 84.7085 184.896 84.1695 182.593C83.044 177.785 82.482 176.531 81.4535 176.531C81.026 176.531 80.7225 176.062 80.725 175.406C80.731 173.855 82.048 164.092 82.4795 162.402C82.717 161.471 82.566 160.618 82.0145 159.777C81.1065 158.391 80.317 158.223 79.0885 159.156ZM62.853 161.232C59.299 162.19 59.0185 162.748 59.9165 167.084C60.3375 169.117 60.926 171.479 61.225 172.333C61.5235 173.186 61.677 175.042 61.5655 176.455C61.331 179.425 61.677 179.863 64.471 180.139C66.204 180.31 66.4715 180.5 66.474 181.559C66.476 182.231 66.8665 183.355 67.3425 184.057C67.818 184.76 68.6325 186.571 69.1525 188.082C69.6725 189.593 70.5445 191.718 71.091 192.805C71.637 193.892 72.485 196.018 72.9755 197.531C73.4655 199.043 74.732 202.137 75.7895 204.406C77.8265 208.777 79.0875 209.649 80.244 207.488C80.935 206.197 79.699 201.095 76.1365 190.531C72.3195 179.212 72.216 178.865 72.2185 177.381C72.2235 174.489 69.82 171.751 66.8005 171.209C66.0695 171.078 65.2845 170.787 65.0565 170.561C64.4905 170.002 63.638 166.07 63.967 165.537C64.113 165.301 65.338 164.74 66.6885 164.292C69.46 163.371 70.382 162.532 69.926 161.344C69.5565 160.381 66.209 160.328 62.853 161.232ZM86.7675 161.225C86.2465 161.853 86.31 163.504 87.001 167.281C87.3 168.914 89.182 178.508 89.9435 182.281C90.3325 184.206 90.788 187.356 90.956 189.281C91.1975 192.048 91.486 192.953 92.3335 193.603C93.5005 194.497 93.556 194.322 90.9745 197.849C90.6335 198.315 90.7015 198.88 91.1915 199.654C93.884 203.907 96.372 210.748 97.2315 216.261C97.856 220.269 98.3275 221.031 100.182 221.031C102.68 221.031 103.454 219.253 101.678 217.598C100.88 216.854 100.749 216.409 101.123 215.703C101.851 214.327 100.173 206.858 98.026 201.915L97.2155 200.05L98.5355 200.651C100.026 201.33 104.596 207.108 105.039 208.873C105.198 209.51 105.512 210.031 105.736 210.031C105.96 210.031 106.399 210.805 106.711 211.752C107.128 213.013 107.706 213.613 108.879 214C110.407 214.505 112.083 216.335 111.526 216.892C111.381 217.037 110.289 217.197 109.099 217.247C107.91 217.297 106.64 217.521 106.278 217.745C105.367 218.308 105.955 220.933 107.316 222.382C108.394 223.53 110.418 223.924 110.936 223.087C111.086 222.844 111.977 222.5 112.915 222.324C115.285 221.88 117.221 220.242 117.221 218.68C117.221 217.977 116.324 216.088 115.227 214.482C114.131 212.876 112.536 210.085 111.683 208.279C110.83 206.474 108.327 202.733 106.12 199.965L102.107 194.933L102.854 193.033C103.48 191.439 103.5 190.741 102.976 188.706C102.633 187.372 102.081 184.256 101.751 181.781C100.931 175.651 98.72 166.152 97.9665 165.527C97.532 165.167 97.046 165.276 96.319 165.898C95.35 166.728 95.3155 167.052 95.7455 171.281C96.3435 177.158 97.078 182.669 97.6785 185.781C98.6305 190.713 98.639 194.553 97.703 197.21L96.814 199.734L96.2195 197.525C95.8835 196.277 95.7785 194.548 95.9775 193.549C96.536 190.749 96.2825 187.345 94.895 179.031C94.184 174.768 93.428 170.135 93.2155 168.735C92.753 165.689 91.695 163.511 89.8465 161.797C88.297 160.36 87.5935 160.229 86.7675 161.225ZM119.221 163.531C118.926 164.081 118.412 164.538 118.078 164.546C116.237 164.594 114.737 169.494 114.717 175.531C114.686 184.555 114.988 188.183 115.816 188.705C117.442 189.731 118.072 188.334 118.435 182.897C118.84 176.843 119.658 171.469 120.277 170.807C120.873 170.167 123.606 172.839 127.339 177.712C131.476 183.111 131.519 183.303 131.27 195.031C131.202 198.193 131.305 201.961 131.498 203.402C131.729 205.127 131.653 206.26 131.276 206.714C130.826 207.256 130.969 207.578 131.944 208.218C134.796 210.086 135.775 208.775 135.256 203.781C134.734 198.752 134.983 191.409 135.723 190.027C136.071 189.376 136.776 188.393 137.288 187.843C137.801 187.293 138.221 186.563 138.221 186.222C138.221 185.62 137.131 184.293 136.355 183.95C136.144 183.857 135.296 182.431 134.471 180.781C133.145 178.131 128.987 172.205 123.331 164.906C121.357 162.358 120.077 161.93 119.221 163.531ZM52.1385 169.407C49.805 169.725 50.047 170.888 53.3665 175.311C55.0975 177.618 56.925 180.648 57.4275 182.045C58.178 184.131 58.531 184.557 59.406 184.433C61.7495 184.098 60.589 177.785 57.32 173.083C55.1565 169.971 54.0035 169.153 52.1385 169.407ZM44.172 176.122C42.9175 178.467 43.3745 180.608 45.808 183.781C47.799 186.377 48.2875 187.52 49.443 192.281C51.2665 199.793 52.0235 201.399 54.448 202.896C55.5605 203.584 56.8265 204.592 57.2605 205.138C58.0115 206.081 58.093 206.087 58.922 205.259C60.0365 204.144 59.807 203.261 56.8115 197.152C54.559 192.559 48.721 178.57 48.721 177.766C48.721 177.138 46.211 175.031 45.463 175.031C45.074 175.031 44.4935 175.522 44.172 176.122ZM124.688 183.563C122.902 185.35 124.322 189.303 126.542 188.722C128.582 188.189 128.501 182.531 126.453 182.531C126.05 182.531 125.256 182.995 124.688 183.563ZM24.2655 189.503C23.5025 189.975 23.5635 190.281 25.4095 195.247C26.1275 197.178 27.3175 199.282 28.0965 199.997C29.908 201.659 34.9275 212.722 34.8655 214.915C34.812 216.811 35.8925 217.631 37.596 216.988C38.592 216.612 38.721 216.216 38.721 213.54C38.721 211.877 38.5075 210.126 38.2465 209.649C37.9855 209.171 37.0765 207.268 36.227 205.419C35.3775 203.57 33.9035 201.036 32.9515 199.789C32 198.542 31.221 197.406 31.221 197.264C31.221 196.77 27.6895 191.877 26.3265 190.483C25.3935 189.529 24.7325 189.215 24.2655 189.503ZM33.0545 189.364C32.429 189.99 32.72 191.185 33.8745 192.734C34.5095 193.585 35.773 195.631 36.683 197.281C39.3225 202.066 40.726 203.082 42.2175 201.285C42.7205 200.679 42.5695 199.905 41.413 197.16C39.179 191.86 34.719 187.7 33.0545 189.364ZM18.3345 190.156C17.465 191.223 16.221 194.593 16.221 195.88C16.221 196.557 16.847 197.734 17.616 198.503C18.383 199.27 19.6385 201.497 20.4055 203.453C21.173 205.409 22.2955 207.745 22.9 208.645C24.901 211.622 26.5745 214.761 26.914 216.173C27.332 217.913 29.3375 218.971 30.456 218.043C31.4845 217.19 31.4275 216.696 29.969 213.821C29.2825 212.468 28.721 211.094 28.721 210.767C28.721 210.44 27.9665 208.725 27.044 206.956C26.1215 205.186 25.0975 202.921 24.7675 201.922C24.438 200.923 23.5085 199.358 22.7025 198.443C21.8905 197.522 21.2335 196.199 21.229 195.476C21.2075 192.001 20.578 189.531 19.7145 189.531C19.2355 189.531 18.6145 189.812 18.3345 190.156ZM59.5545 190.864C58.7945 191.624 59.3345 193.665 61.22 197.16C62.3195 199.198 63.108 200.977 62.972 201.113C62.836 201.249 63.291 201.892 63.9835 202.542C65.122 203.612 65.3155 203.65 66.0195 202.946C67.3865 201.579 67.4775 198.377 66.223 195.785C64.3945 192.008 60.9515 189.467 59.5545 190.864ZM113.701 195.304C113.317 195.768 113.047 197.523 113.03 199.679C112.995 203.993 114.54 207.429 116.884 208.254C118.573 208.848 120.699 207.868 121.464 206.143C121.736 205.531 122.079 205.031 122.226 205.031C122.373 205.031 122.792 206.325 123.157 207.906C123.522 209.487 124.08 211.097 124.396 211.482C124.712 211.868 124.986 213.556 125.005 215.232C125.052 219.345 125.994 221.234 128.1 221.437C129.909 221.612 130.514 220.712 130.743 217.506C130.962 214.434 130.744 213.592 129.404 212.35C128.172 211.208 128.051 210.688 127.529 204.294C126.916 196.787 126.68 196.32 123.649 196.625C122.296 196.761 121.874 197.21 120.333 200.156C119.361 202.012 118.385 203.531 118.163 203.531C117.672 203.531 116.919 200.705 116.464 197.156C116.199 195.096 115.935 194.531 115.235 194.531C114.745 194.531 114.054 194.879 113.701 195.304ZM142.086 195.862C141.794 196.355 141.341 198.487 140.935 201.281C140.775 202.381 140.42 204.293 140.146 205.531C139.872 206.768 139.528 209.18 139.38 210.89C139.123 213.88 139.175 214.062 140.72 215.607C142.623 217.51 142.601 218.401 140.483 225.197L139.123 229.56L141.093 232.17C142.176 233.606 143.34 235.625 143.68 236.656C144.187 238.193 144.539 238.534 145.635 238.547C146.369 238.555 147.408 238.893 147.941 239.297C149.916 240.79 152.664 239.811 153.926 237.162C155.934 232.953 155.31 217.351 153.072 215.783C152.188 215.164 152.063 214.439 151.964 209.39C151.903 206.258 151.582 202.876 151.252 201.875C150.608 199.925 146.635 196.035 145.275 196.024C144.833 196.02 143.99 195.888 143.402 195.73C142.814 195.573 142.222 195.632 142.086 195.862ZM147.749 203.356C148.437 205.165 148.145 215.142 147.397 215.39C147.082 215.494 146.338 214.898 145.745 214.065C144.723 212.629 144.696 212.334 145.236 208.415C146.035 202.621 146.174 202.031 146.743 202.031C147.019 202.031 147.472 202.627 147.749 203.356ZM54.5095 209.275C52.6605 211.699 53.2475 212.504 58.9145 215.317C66.5505 219.108 70.221 218.837 70.221 214.483C70.221 213.442 69.94 212.414 69.596 212.199C69.2525 211.983 67.621 211.867 65.971 211.94C62.571 212.09 60.1225 210.959 59.1305 208.782C58.2595 206.871 56.1735 207.093 54.5095 209.275ZM45.346 212.862C44.456 213.221 44.571 214.26 45.7065 216.127C46.249 217.019 46.836 218.706 47.0115 219.878C47.2865 221.712 47.1195 222.326 45.807 224.308C44.0605 226.945 44.1875 227.864 46.3775 228.431C47.774 228.793 47.9785 229.101 48.449 231.557C48.882 233.817 49.164 234.308 50.105 234.442C51.8655 234.692 52.6235 232.283 52.42 227.087C52.1185 219.382 51.03 214.507 49.3225 213.209C48.4685 212.561 46.5155 212.39 45.346 212.862ZM149.322 225.359C149.874 230.296 149.6 234.721 148.672 235.839C147.958 236.7 147.133 235.841 147.573 234.695C147.716 234.323 147.607 233.74 147.331 233.399C147.055 233.059 146.565 231.493 146.242 229.918C145.715 227.347 145.77 226.698 146.787 223.542C147.465 221.436 148.1 220.21 148.373 220.483C148.622 220.732 149.049 222.927 149.322 225.359ZM33.321 222.631C32.3215 223.63 32.6385 224.911 34.313 226.639C38.446 230.902 40.5325 231.517 41.949 228.886C43.114 226.724 42.823 225.29 41.212 225.25C40.5115 225.233 39.28 224.525 38.3845 223.625C36.713 221.945 34.451 221.501 33.321 222.631ZM98.346 225.046C97.6915 225.309 97.221 225.928 97.221 226.525C97.221 228.08 101.537 236.345 102.818 237.242C105.407 239.056 107.546 237.547 108.085 233.525C108.353 231.533 108.271 231.394 104.835 228.006C101.336 224.555 100.507 224.177 98.346 225.046ZM86.7115 228.69C83.7545 229.887 81.221 231.239 81.221 231.619C81.221 231.846 80.94 232.033 80.596 232.036C79.8295 232.043 73.84 236.181 73.046 237.253C72.7295 237.679 71.134 238.375 69.4995 238.798C66.106 239.678 65.221 240.258 65.221 241.604C65.221 242.857 66.8785 243.43 70.016 243.263C73.6045 243.072 77.428 241.295 79.2785 238.958C82.4275 234.982 86.2805 233.733 91.6395 234.951C93.5175 235.378 93.9375 235.314 94.776 234.476C95.768 233.484 95.6635 232.94 94.1045 230.987C92.6165 229.124 88.6695 227.898 86.7115 228.69ZM158.585 228.406C158.248 229.056 158.492 249.468 158.841 249.818C159.518 250.494 162.712 249.482 163.286 248.409C163.961 247.148 163.513 234.382 162.689 231.399C162.042 229.053 159.291 227.047 158.585 228.406ZM127.085 230.156C126.777 231.035 127.158 249.046 127.711 259.78C128.174 268.757 128.017 301.936 127.458 313.24C127.296 316.518 126.871 319.899 126.514 320.753C125.52 323.132 122.411 326.21 121.396 325.821C120.93 325.642 114.793 325.404 107.759 325.292C100.726 325.18 94.4085 324.982 93.721 324.851C93.0335 324.721 88.9835 324.46 84.721 324.272C74.4645 323.819 73.813 323.766 64.221 322.584C55.215 321.476 42.3285 320.27 34.471 319.801C25.636 319.273 25.27 319.173 24.419 317.046C24.009 316.021 22.9955 314.682 22.166 314.069C20.8645 313.106 20.443 313.029 19.079 313.505C18.21 313.808 16.874 314.654 16.11 315.386C13.3465 318.034 14.723 323.441 18.9205 326.426C22.769 329.162 25.704 330.554 26.962 330.238C28.2665 329.91 29.3855 327.541 28.87 326.198C28.527 325.303 28.7505 325.322 34.818 326.704C36.659 327.123 42.3965 328.043 47.568 328.748C52.7395 329.452 59.3335 330.355 62.221 330.753C65.1085 331.152 69.3835 331.602 71.721 331.754C74.0585 331.906 78.7575 332.286 82.163 332.6C91.211 333.432 118.184 332.875 121.221 331.792C125.609 330.228 127.72 328.852 128.528 327.029C129.245 325.411 129.49 325.267 131.756 325.129C133.105 325.048 135.428 324.441 136.917 323.783L139.626 322.585L139.951 323.88C140.364 325.526 140.03 325.831 136.971 326.601C133.789 327.403 133.221 327.841 133.221 329.497C133.221 333.114 137.08 334.042 141.531 331.496C143.858 330.164 144.42 329.52 145.788 326.621C148.556 320.755 148.641 320.361 148.958 311.966C149.584 295.415 149.853 289.749 150.028 289.453C150.574 288.527 150.042 244.456 149.474 243.536C149.017 242.797 146.936 242.919 146.267 243.725C145.17 245.046 144.186 253.321 143.941 263.28C143.805 268.78 143.576 274.968 143.431 277.03C143.074 282.116 143.076 281.753 143.367 290.78C143.709 301.392 142.573 308.953 140.052 312.848C137.822 316.293 137.632 314.307 139.568 307.78L140.903 303.28L140.978 273.53C141.029 253.111 141.227 243.261 141.611 242.122C142.333 239.981 141.658 238.16 139.99 237.741C138.07 237.259 137.267 237.799 136.153 240.318C135.205 242.46 135.159 243.232 135.477 251.571C135.783 259.605 135.734 260.557 134.998 260.839C134.547 261.012 134.025 261.001 133.838 260.815C133.652 260.628 133.453 256.72 133.395 252.128C133.338 247.537 133.138 241.129 132.95 237.888L132.608 231.996L130.992 230.763C129.248 229.433 127.437 229.151 127.085 230.156ZM114.221 230.626C113.533 230.882 112.115 231.981 111.069 233.069L109.167 235.048L111.737 238.002C113.758 240.326 114.564 241.793 115.514 244.869C116.996 249.674 117.023 251.201 115.659 253.118C114.782 254.349 114.693 254.821 115.148 255.82C115.467 256.519 116.126 257.03 116.71 257.03C117.973 257.03 118.03 258.441 116.938 262.657C116.235 265.368 116.233 265.757 116.919 266.443C117.524 267.048 117.936 267.093 118.892 266.657C120.251 266.038 121.889 261.342 122.398 256.602C122.557 255.129 122.949 253.608 123.269 253.222C123.595 252.829 123.867 250.814 123.885 248.65C123.919 244.608 123.781 244.232 119.832 237.531C119.265 236.568 118.558 234.881 118.261 233.781C117.386 230.542 116.439 229.803 114.221 230.626ZM59.721 233.36C57.9335 234.299 55.2785 235.856 53.8205 236.821C50.5785 238.966 43.6975 245.83 42.503 248.111C38.077 256.56 38.1905 256.16 39.9035 257.282C40.8355 257.893 41.386 257.943 42.502 257.518C43.9125 256.982 44.55 256.321 50.721 248.988C53.9815 245.114 59.5715 240.344 64.1645 237.518C67.013 235.765 67.469 234.937 66.596 233.106C65.6935 231.214 63.663 231.288 59.721 233.36ZM50.067 252.054C49.1125 253.169 49.3145 253.797 51.0755 255.194C53.4905 257.11 53.471 257.797 50.906 261.061C49.197 263.236 48.3255 263.974 47.757 263.725C47.3245 263.536 45.902 263.146 44.595 262.857C40.7005 261.997 40.7665 261.731 41.773 274.28C42.8025 287.12 43.138 300.778 42.692 311.695C42.48 316.888 42.5185 317.147 43.6345 318.056C44.725 318.943 44.8765 318.951 46.0495 318.183C47.116 317.484 47.2535 317.111 46.981 315.659C46.8055 314.721 46.873 313.69 47.131 313.367C47.3895 313.044 47.7645 310.98 47.9645 308.78C48.1645 306.58 48.415 304.33 48.5215 303.78C48.628 303.23 48.837 300.98 48.986 298.78C49.135 296.58 49.512 293.588 49.8245 292.132C50.3885 289.499 50.3825 289.474 48.8065 288.035C47.271 286.632 47.221 286.456 47.221 282.463C47.221 278.73 47.2905 278.431 47.955 279.31C48.359 279.843 48.6965 280.562 48.705 280.905C48.714 281.249 48.9135 281.53 49.1485 281.53C49.384 281.53 49.786 282.262 50.042 283.155C50.452 284.586 50.76 284.814 52.6245 285.065C56.0985 285.533 57.5555 287.05 59.9155 292.655C60.7795 294.708 62.339 295.19 63.1455 293.655C64.102 291.836 62.2595 288.018 58.691 284.422C56.8575 282.575 55.014 280.539 54.594 279.898C53.595 278.373 51.536 271.134 51.6445 269.53C51.7935 267.338 54.3245 263.066 56.5585 261.235C58.9785 259.252 59.4025 257.458 57.6985 256.409C57.1365 256.063 55.988 254.711 55.1465 253.405C53.418 250.721 51.618 250.243 50.067 252.054ZM90.2715 254.719C89.835 255.245 90.0125 256.621 91.0225 260.542C92.7055 267.076 92.542 271.143 90.428 275.321C88.9205 278.301 86.3265 280.53 84.368 280.53C82.535 280.53 81.629 282.887 82.219 286.119C82.6095 288.255 83.0865 289.126 84.636 290.53L86.567 292.28L86.3295 298.855L86.092 305.429L81.0315 305.213C75.797 304.99 70.865 304.168 70.418 303.445C70.01 302.784 68.398 302.964 67.7525 303.742C67.2895 304.3 67.3765 304.875 68.1555 306.402C69.3295 308.703 72.347 310.843 75.333 311.492C76.509 311.748 79.046 312.313 80.971 312.748C85.7075 313.818 87.059 313.749 88.3685 312.37C90.836 309.772 91.463 308.415 91.619 305.337C91.772 302.322 92.6235 297.79 93.8115 293.67C94.3305 291.87 94.296 291.299 93.5785 289.795C93.116 288.824 92.385 288.03 91.9545 288.03C90.4035 288.03 88.221 286.523 88.221 285.452C88.221 284.789 89.8715 282.767 92.6685 280.002C96.235 276.475 97.2855 275.094 97.9725 273.026C99.137 269.52 98.6605 264.668 96.6985 260.058C95.886 258.148 95.221 256.23 95.221 255.795C95.221 254.31 91.3155 253.461 90.2715 254.719ZM66.5415 262.291C64.263 264.413 64.1335 264.667 64.4375 266.416C64.9055 269.108 65.7075 270.973 67.5125 273.567C68.3875 274.824 69.465 276.552 69.907 277.406C70.3485 278.26 71.179 279.108 71.7525 279.29C73.321 279.788 75.558 278.631 76.248 276.965C77.0085 275.13 76.506 273.875 73.821 270.906C71.2425 268.055 70.517 266.099 70.917 263.081C71.1785 261.109 71.088 260.586 70.4395 260.337C69.19 259.858 69.1125 259.897 66.5415 262.291ZM102.057 261.744C100.795 262.914 100.771 263.037 101.402 265.136C101.763 266.334 102.769 268.296 103.639 269.497C105.947 272.683 105.775 274.237 102.471 280.073C100.958 282.745 99.721 285.107 99.721 285.323C99.721 285.539 100.188 286.213 100.76 286.822L101.799 287.927L100.604 289.854C97.8695 294.264 97.514 297.321 99.644 298.103C100.61 298.458 101.075 298.257 102.287 296.959C103.096 296.093 104.299 294.201 104.961 292.754C105.623 291.308 106.402 289.977 106.692 289.798C107.43 289.342 107.324 287.458 106.499 286.37C105.902 285.582 105.948 285.142 106.84 283.12C107.407 281.833 108.367 280.105 108.973 279.28C110.219 277.584 111.477 273.897 111.977 270.471C112.391 267.635 111.541 265.781 108.411 262.695C105.83 260.151 104.062 259.886 102.057 261.744ZM262.635 274.472C262.832 275.82 261.773 277.282 261.092 276.601C260.455 275.964 261.162 272.928 261.892 273.168C262.21 273.273 262.545 273.86 262.635 274.472ZM115.483 282.655C114.592 283.933 110.646 289.294 108.616 291.985C106.539 294.738 106.932 297.53 109.396 297.53C111.683 297.53 119.221 287.339 119.221 284.246C119.221 281.684 116.861 280.68 115.483 282.655ZM119.581 290.125C119.195 290.76 118.571 292.27 118.195 293.48C117.674 295.157 116.853 296.204 114.741 297.884C113.217 299.096 111.296 300.44 110.471 300.871C107.981 302.172 104.757 305.012 103.861 306.695C102.435 309.376 103.162 310.51 106.315 310.523C108.293 310.531 108.829 310.14 116.846 302.851C119.591 300.355 120.721 298.983 120.721 298.147C120.721 297.497 121.189 295.879 121.76 294.552C123.058 291.534 122.903 289.342 121.377 289.125C120.662 289.023 120.041 289.368 119.581 290.125ZM225.16 293.982C226.019 294.526 225.568 295.323 224.198 295.681C222.958 296.005 222.22 294.654 223.273 293.987C224.139 293.439 224.302 293.439 225.16 293.982ZM219.721 295.546C219.721 296.142 219.256 296.737 218.596 296.983C217.014 297.575 216.459 296.503 217.78 295.405C219.158 294.259 219.721 294.3 219.721 295.546ZM225.721 299.03C225.721 299.992 225.467 300.53 225.012 300.53C224.622 300.53 223.947 300.667 223.512 300.834C222.898 301.069 222.721 300.799 222.721 299.625C222.721 298.113 223.206 297.644 224.846 297.57C225.494 297.541 225.721 297.92 225.721 299.03ZM219.221 300.489C219.221 301.952 218.512 302.582 217.346 302.153C217.003 302.027 216.721 301.404 216.721 300.768C216.721 300.133 217.003 299.5 217.346 299.361C218.749 298.795 219.221 299.079 219.221 300.489ZM227.721 310.239C227.721 310.354 227.858 310.804 228.025 311.239C228.242 311.806 228.03 312.03 227.275 312.03C226.555 312.03 226.221 311.714 226.221 311.03C226.221 310.475 226.555 310.03 226.971 310.03C227.384 310.03 227.721 310.124 227.721 310.239ZM255.366 316.531C255.51 317.081 255.424 317.406 255.175 317.251C254.925 317.097 254.721 316.647 254.721 316.251C254.721 315.216 255.061 315.363 255.366 316.531ZM228.324 320.004C228.443 320.815 228.345 321.827 228.106 322.254C227.449 323.428 226.22 323.2 226.228 321.905C226.248 318.704 227.912 317.194 228.324 320.004ZM220.346 321.768C220.018 323.484 219.721 323.357 219.721 321.501C219.721 320.66 219.916 320.092 220.154 320.239C220.392 320.386 220.479 321.074 220.346 321.768ZM213.032 322.106C212.737 323.981 211.616 324.901 211.167 323.637C210.773 322.525 211.681 320.53 212.581 320.53C213.085 320.53 213.211 320.971 213.032 322.106ZM202.86 323.905C202.678 325.075 202.343 325.53 201.664 325.53C201.145 325.53 200.692 325.361 200.657 325.155C200.295 323.028 200.444 322.414 201.412 322.042C202.818 321.501 203.165 321.949 202.86 323.905ZM195.721 324.472C195.721 325.544 195.433 325.991 194.596 326.215C192.836 326.687 192.721 326.619 192.721 325.114C192.721 323.393 193.04 323.03 194.554 323.03C195.507 323.03 195.721 323.295 195.721 324.472ZM255.721 329.072C255.721 330.41 255.519 331.046 255.136 330.918C254.522 330.714 254.193 328.727 254.594 327.655C255.091 326.33 255.721 327.122 255.721 329.072ZM250.221 329.251C250.221 330.197 249.996 331.11 249.721 331.28C249.419 331.467 249.221 330.785 249.221 329.56C249.221 328.444 249.446 327.53 249.721 327.53C249.996 327.53 250.221 328.304 250.221 329.251ZM245.221 329.822C245.221 332.081 244.041 331.909 243.815 329.617C243.699 328.444 243.862 328.03 244.44 328.03C245.003 328.03 245.221 328.53 245.221 329.822ZM239.129 329.905C239.016 330.89 238.652 331.326 237.846 331.44C236.889 331.576 236.721 331.371 236.721 330.065C236.721 328.751 236.906 328.53 238.004 328.53C239.109 328.53 239.266 328.721 239.129 329.905ZM228.221 330.53C228.221 331.544 227.973 332.03 227.456 332.03C226.246 332.03 225.932 330.478 226.986 329.708C228.22 328.805 228.221 328.806 228.221 330.53ZM212.221 331.78C212.221 332.697 211.954 333.03 211.221 333.03C210.175 333.03 210.017 332.643 210.524 331.321C211.009 330.057 212.221 330.384 212.221 331.78ZM195.721 332.81C195.721 333.876 195.495 334.03 193.936 334.03C192.38 334.03 192.172 333.889 192.311 332.926C192.411 332.237 192.941 331.702 193.721 331.505C195.352 331.091 195.721 331.332 195.721 332.81ZM202.721 331.745C202.721 332.545 201.398 334.03 200.685 334.03C200.43 334.03 200.221 333.355 200.221 332.53C200.221 331.264 200.415 331.03 201.471 331.03C202.221 331.03 202.721 331.316 202.721 331.745ZM183.123 333.594C183.235 334.563 183.01 334.969 182.248 335.168C181.357 335.401 181.221 335.206 181.221 333.697C181.221 332.31 181.398 331.991 182.096 332.123C182.61 332.22 183.033 332.827 183.123 333.594ZM245.128 336.444C245.244 337.616 245.081 338.03 244.503 338.03C243.939 338.03 243.721 337.53 243.721 336.239C243.721 333.979 244.902 334.152 245.128 336.444ZM250.221 335.03C250.221 335.305 249.996 335.53 249.721 335.53C249.446 335.53 249.221 335.305 249.221 335.03C249.221 334.755 249.446 334.53 249.721 334.53C249.996 334.53 250.221 334.755 250.221 335.03ZM228.221 337.78C228.221 339.051 227.082 339.519 226.456 338.506C225.975 337.727 226.58 336.53 227.456 336.53C227.939 336.53 228.221 336.991 228.221 337.78ZM212.131 338.116C211.895 339.717 210.721 339.888 210.721 338.322C210.721 337.482 210.995 337.03 211.506 337.03C212.027 337.03 212.237 337.395 212.131 338.116ZM202.221 338.78C202.221 339.697 201.954 340.03 201.221 340.03C200.487 340.03 200.221 339.697 200.221 338.78C200.221 337.864 200.487 337.53 201.221 337.53C201.954 337.53 202.221 337.864 202.221 338.78ZM195.221 339.03C195.221 339.84 194.887 340.03 193.471 340.03C191.471 340.03 190.982 338.742 192.846 338.383C194.986 337.971 195.221 338.035 195.221 339.03ZM183.221 339.53C183.221 339.805 182.883 340.03 182.471 340.03C182.058 340.03 181.721 339.805 181.721 339.53C181.721 339.255 182.058 339.03 182.471 339.03C182.883 339.03 183.221 339.255 183.221 339.53ZM145.971 342.78C145.971 343.69 145.664 343.773 142.578 343.702C140.586 343.656 138.849 343.346 138.37 342.952C137.66 342.367 137.904 342.241 140.263 341.976C144.763 341.47 145.971 341.64 145.971 342.78ZM257.471 343.78C257.471 344.857 257.246 345.03 255.846 345.03C254.952 345.03 254.221 344.805 254.221 344.53C254.221 344.255 254.208 343.861 254.192 343.655C254.165 343.313 255.744 342.702 256.971 342.58C257.246 342.553 257.471 343.093 257.471 343.78ZM236.221 345.03C236.221 345.305 235.87 345.53 235.442 345.53C235.013 345.53 234.801 345.305 234.971 345.03C235.141 344.755 235.492 344.53 235.751 344.53C236.01 344.53 236.221 344.755 236.221 345.03Z" fill="black"/>
</svg>
