<svg width="128" height="52" viewBox="0 0 128 52" fill="none" xmlns="http://www.w3.org/2000/svg">
<path d="M4.5 43.5L3.5 36V28L6.5 18L17.5 10L65.5 4L106.5 5.5L121 20L122 40.5L108.5 45.5L102 40.5L96 45.5L87 40.5L75 45.5L72.5 42.5L64 45.5L60 42.5L51.5 47.5L45 43.5L39 44.5L33 42.5L23.5 46.5L17.5 45.5L9.5 46.5L4.5 43.5Z" fill="white"/>
<path fill-rule="evenodd" clip-rule="evenodd" d="M13.2867 6.83856C12.4672 7.01856 10.9692 7.86406 9.95866 8.71756C8.94766 9.57056 7.74967 10.5761 7.29567 10.9516C1.35305 20.0157 0.401589 21.8806 0.0803078 27.3566C-0.18696 31.9119 1.27904 28.2382 1.08033 36.3491C1.00549 39.4036 -1.61083 43.0701 1.58033 46.8606C6.37068 48.6951 7.18994 49 10.6072 50.0921C13.6499 49 15.1499 49 17.8477 47.6996C19.1499 48.5 19.6499 48.5 21.9117 50.0921C22.991 50.2839 23.5001 50.3185 24.6499 50.5C28.6499 49 29.1499 47.5 32.1499 45C32.6499 44.5 34.1714 47.2898 36.6499 47.5C39.3446 47.7285 43.6499 45.808 44.9242 45.5C45.318 45.4048 46.6811 49.8685 50.1499 50C52.7342 50.098 56.1499 47 58.1499 45.5C58.3838 45.3246 60.6499 48 64.1499 48.5C65.6436 48.5473 68.1499 46.5 69.3097 44.96C69.3097 44.8245 71.6499 48.5 76.1499 48.5C79.0187 48.5531 82.6499 47 85.1499 43.5C85.507 43 89.6499 48.1848 96.1499 48C98.3973 47.9361 100.103 45.6224 102.15 45.5C104.475 45.3609 107.155 51.2277 109.15 51C110.65 50.5 117.15 44.5 122.251 44.1491L124.261 44.4186C125.949 44.6451 126.362 44.5196 126.834 43.6396C127.44 42.5061 127.133 40.4336 126.115 38.7946C125.764 38.2301 125.113 36.6926 124.666 35.3781C123.933 33.2186 123.925 32.5676 124.588 28.6536C125.24 24.8021 125.545 20.7931 125.411 17.8201C125.386 17.2701 124.608 15.9951 123.682 14.9871C118.58 7.63389 119.08 7.63389 114.496 3.78656C113.19 3.59706 111.762 3.25656 111.323 3.02956C110.884 2.80306 108.538 2.37056 106.11 2.06856C103.681 1.76706 101.536 1.42205 101.342 1.30205C99.5256 0.179551 59.4812 -0.539934 57.4512 0.513567C56.9947 0.750567 53.2457 1.09304 49.1207 1.27504C44.9957 1.45704 37.7167 2.15905 32.9447 2.83605C28.1732 3.51255 24.0667 3.94107 23.8197 3.78857C18.0803 5.63389 19.0803 4.63389 13.2867 6.83856ZM103.488 8.94507C104.146 9.56357 104.864 10.0701 105.083 10.0701C105.743 10.0701 110.371 13.2071 110.371 13.6541C110.371 13.8831 110.676 14.0701 111.048 14.0701C112.1 14.0701 116.069 18.1746 117.083 20.3116C117.913 22.0611 117.947 22.8131 117.463 28.7761C116.962 34.9376 116.986 35.3676 117.875 36.1291C118.778 36.9031 118.662 37.0501 115.223 39.5041C113.245 40.9156 111.382 42.0701 111.082 42.0701C110.782 42.0701 109.543 41.1266 108.329 39.9731C105.942 37.7066 104.331 36.6586 102.371 36.0961L101.121 35.7376L102.721 34.9036C104.51 33.9716 105.959 33.8491 107.253 34.5216C109.057 35.4591 112.267 36.1706 113.265 35.8536C114.496 35.4631 117.206 31.0941 116.502 30.6346C116.237 30.4616 115.802 29.6451 115.534 28.8201C114.509 25.6641 110.717 25.4191 109.28 28.4156C108.243 30.5791 106.928 30.2101 105.374 27.3201C104.268 25.2616 103.761 24.7931 102.504 24.6676C101.274 24.5441 100.761 24.8196 99.8566 26.0896C99.2396 26.9561 98.2032 28.2391 97.5527 28.9406C95.6127 31.0341 96.1682 33.3516 99.0277 35.0951C100.025 35.7031 100.308 36.0671 99.7846 36.0681C99.3246 36.0691 97.9347 37.2286 96.6957 38.6451L94.4432 41.2201L92.8847 39.9086C91.2467 38.5301 87.2322 36.5701 86.0472 36.5701C85.0457 36.5701 81.8651 38.6976 80.1521 40.5136C79.3446 41.3696 78.3551 42.0701 77.9541 42.0701C77.5526 42.0701 76.1421 41.0576 74.8191 39.8201C72.1706 37.3431 71.1767 37.0636 70.3707 38.5701C70.0762 39.1201 69.5992 39.5701 69.3097 39.5701C69.0207 39.5701 67.7857 40.2871 66.5652 41.1636L64.3462 42.7576L63.5137 41.5691C61.5782 38.8056 60.1622 37.9931 59.0957 39.0331C58.8347 39.2881 57.0882 40.3061 55.2152 41.2956L51.8102 43.0946L49.2242 40.8326C46.0902 38.0911 44.4987 37.9336 41.6567 40.0841C39.2642 41.8941 39.0247 41.9051 37.3287 40.2801C36.5197 39.5046 35.1752 38.8816 33.9602 38.7186C32.1347 38.4736 31.6427 38.6721 28.8987 40.7586C27.2272 42.0301 25.6532 43.0701 25.4012 43.0701C25.1487 43.0701 23.5787 42.2576 21.9117 41.2646C18.4232 39.1866 17.5902 39.2311 14.1152 41.6806L11.8567 43.2726L9.11366 42.3401C7.60516 41.8271 6.37068 41.2486 6.37068 41.0541C6.37068 40.8596 6.82068 39.2916 7.37068 37.5701C7.92068 35.8486 8.36818 33.8506 8.36518 33.1301C8.35968 31.7236 7.24517 27.7036 6.44817 26.2151C6.11217 25.5871 6.17866 24.7906 6.66316 23.6376C7.60566 21.3961 12.0002 15.9296 13.4537 15.1911C21.1972 11.2551 36.0337 9.15306 62.3707 8.26056C67.1832 8.09756 71.2332 7.85507 71.3707 7.72207C71.5082 7.58857 78.5216 7.55606 86.9556 7.64956C102.057 7.81756 102.309 7.83707 103.488 8.94507ZM62.8707 9.88357C59.9832 10.2046 56.4627 10.5746 55.0477 10.7066C53.6327 10.8386 52.2632 11.0776 52.0047 11.2371C51.7462 11.3971 50.6992 11.5841 49.6777 11.6526C47.7382 11.7836 46.5557 12.6556 47.1072 13.5481C47.5337 14.2386 50.3812 14.1976 60.7172 13.3541C69.3052 12.6526 72.1207 11.9636 72.1207 10.5636C72.1207 9.45007 68.9027 9.21357 62.8707 9.88357ZM32.3002 13.3076C32.1697 13.4381 29.6212 13.8876 26.6377 14.3061C22.8067 14.8441 20.5987 15.4276 19.1247 16.2911C16.8507 17.6241 13.3692 21.1981 13.3732 22.1966C13.3767 23.1986 16.3872 26.1281 18.1852 26.8791C20.2042 27.7231 24.4552 27.7856 25.2572 26.9836C25.6707 26.5701 26.1792 26.5446 26.9822 26.8976C29.0207 27.7936 38.7057 27.3071 43.3707 26.0746C53.0552 23.5156 68.6607 21.4911 73.6207 22.1501C86.3132 23.8366 105.165 20.1651 103.68 16.2956C103.391 15.5411 102.795 15.4716 98.7362 15.7211C96.1977 15.8766 93.7831 16.1241 93.3706 16.2711C92.9581 16.4176 90.5957 16.6376 88.1207 16.7596C85.6457 16.8821 81.5281 17.2686 78.9711 17.6191L74.3212 18.2566L73.0972 16.9361C70.8797 14.5446 64.7227 14.3971 57.3707 16.5591C56.4082 16.8421 52.6957 17.4116 49.1207 17.8251C45.5457 18.2381 41.3832 18.8071 39.8707 19.0891C38.3582 19.3711 36.2207 19.6951 35.1207 19.8091C34.0207 19.9231 32.0522 20.1701 30.7457 20.3581C28.8542 20.6306 28.3707 20.5536 28.3707 19.9806C28.3707 18.7516 29.5382 17.7056 31.6207 17.0696C34.4582 16.2026 35.8707 15.2021 35.8707 14.0586C35.8707 13.2716 35.5307 13.0701 34.2042 13.0701C33.2872 13.0701 32.4307 13.1771 32.3002 13.3076ZM73.9707 24.1701C73.6407 24.5001 73.3707 25.0696 73.3707 25.4361C73.3707 25.8026 73.0332 26.9101 72.6207 27.8971C72.0047 29.3711 71.7422 29.5856 71.1527 29.0966C70.7582 28.7691 70.2922 27.8516 70.1182 27.0581C69.7207 25.2491 67.9807 24.5596 67.0447 25.8396C65.9327 27.3606 67.8822 32.8996 70.0237 34.3026C71.9912 35.5916 75.0971 35.5011 76.5766 34.1116C77.7691 32.9911 77.9016 32.9736 79.7211 33.6961C80.7656 34.1111 82.5487 34.6046 83.6832 34.7936C85.5312 35.1011 85.8562 34.9966 86.8082 33.7861C88.0842 32.1636 88.1326 30.8201 87.0546 26.9781C86.2751 24.1991 86.1672 24.0701 84.6162 24.0701C82.6767 24.0701 82.2276 24.5741 81.3816 27.7011C80.8461 29.6796 80.6162 29.9816 80.0212 29.4876C79.6272 29.1606 78.9557 28.2016 78.5292 27.3566C77.5667 25.4496 75.8812 23.5701 75.1337 23.5701C74.8242 23.5701 74.3007 23.8401 73.9707 24.1701ZM58.4947 27.4231C56.6312 27.7821 56.2822 29.1376 57.4472 31.4921C58.0127 32.6351 58.6522 33.5701 58.8687 33.5701C59.0852 33.5701 59.4167 34.1886 59.6057 34.9451C60.3897 38.0886 63.1662 39.1101 64.6732 36.8101C65.7972 35.0946 65.3791 31.8556 63.6876 29.1766C62.3226 27.0141 61.7037 26.8051 58.4947 27.4231ZM47.5622 30.0701C47.1222 31.1701 46.4912 32.0701 46.1602 32.0701C45.8287 32.0701 44.9112 31.3951 44.1207 30.5701C42.1762 28.5406 40.4522 28.5901 39.0047 30.7166C36.6932 34.1121 37.0952 37.5701 39.8012 37.5701C40.6342 37.5701 41.6587 37.0781 42.3432 36.3491L43.4902 35.1286L44.9242 36.1886C46.2672 37.1816 46.6132 37.2151 50.3867 36.7171C54.2682 36.2046 56.3832 35.1961 56.3617 33.8676C56.3572 33.5666 55.2542 32.1391 53.9107 30.6951C51.9767 28.6161 51.1457 28.0701 49.9157 28.0701C48.5707 28.0701 48.2557 28.3376 47.5622 30.0701ZM20.5692 29.8896C19.9912 30.0166 18.7662 30.8961 17.8477 31.8441C16.3887 33.3491 16.2377 33.7401 16.6552 34.9286C17.8052 38.1976 23.0407 39.6661 25.6237 37.4441C27.3607 35.9501 27.7927 32.8041 26.4862 31.1606C25.5527 29.9866 22.8102 29.3971 20.5692 29.8896ZM31.7972 30.4451C30.7757 31.6721 28.6132 35.1511 28.2317 36.1816C28.0252 36.7381 28.2707 37.2936 28.9262 37.7526C29.8062 38.3691 30.2017 38.3596 31.9327 37.6796C34.9832 36.4816 36.8027 33.2711 35.8502 30.7666C35.2942 29.3041 32.9052 29.1146 31.7972 30.4451Z" fill="black"/>
</svg>
