<svg width="275" height="352" viewBox="0 0 275 352" fill="none" xmlns="http://www.w3.org/2000/svg">
<path d="M268.5 265.5L258.5 345.5H182.5H102L29 336L8.5 327L6 316L8.5 107L37 28.5L34 16L35.5 4.5L140.5 3L146.5 11.5L142 26L162.5 83.5L168 125V303L187.5 297.5L268.5 265.5Z" fill="white"/>
<path fill-rule="evenodd" clip-rule="evenodd" d="M32.236 1.99893C30 11.4989 33.3122 20.3086 32.221 30.5959C32.1118 31.6254 30.0409 37.114 29.9307 38.0794C29.6949 40.145 28.9307 41.1431 27.4307 45.6431C25.4307 49.6431 24.314 50.9013 23.07 54.5793C22.3725 56.6418 20.991 60.9419 20.0005 64.1349C17.971 70.6749 14.799 78.7184 14.698 77.5794C11.9307 85.6431 12.485 83.5794 7.07999 97.3294C6.96399 98.1544 6.62252 100.067 6.32102 101.579C4.05952 112.93 3.86599 117.744 3.52649 171.079C3.41499 188.542 3.11951 203.954 2.86951 205.329C2.61951 206.704 2.47501 208.778 2.54901 209.937C2.54901 216.221 2.22101 213.589 2.22101 224.579L2.2135 226.704C2.209 227.873 2.02799 229.109 1.81149 229.45C0.430664 238.643 0.930664 235.143 0 242.192C0.1995 242.391 0.429993 258.291 0.511993 277.524C0.697993 321.063 0.992991 324.043 5.54349 328.324C7.78099 330.43 10.8935 332.158 20.287 336.508C25.448 338.898 27.4175 339.489 35.623 341.116C43.891 342.755 45.0465 342.944 49.221 343.338C50.7335 343.48 54.671 344.035 57.971 344.569C61.271 345.104 65.2085 345.649 66.721 345.781C68.2335 345.912 72.621 346.358 76.471 346.771C86.3445 347.83 89.1 347.999 110.566 348.862C121.069 349.285 130.856 349.824 132.316 350.061C133.776 350.298 140.146 350.524 146.471 350.564C152.796 350.604 158.871 350.805 159.971 351.009C162.29 351.439 211.005 351.283 215.471 350.831C221.665 350.205 223.205 350.114 232.63 349.815C237.942 349.647 242.78 349.39 243.38 349.245C243.98 349.1 249.196 348.889 254.971 348.775C265.458 348.569 268.721 348.105 268.721 346.82C268.721 345.744 267.882 345.475 264.052 345.324C262.082 345.247 260.443 345.16 260.409 345.131C260.375 345.103 260.496 344.348 260.677 343.454C260.997 341.881 261.101 341.821 263.95 341.579C267.593 341.27 268.039 340.396 265.204 339.127C263.419 338.328 263.253 338.136 264.107 337.865C265.988 337.268 266.58 334.399 265.437 331.42C265.13 330.62 266.667 329.839 268.937 329.641C270.307 329.522 271.884 326.594 271.798 324.331C271.754 323.164 272.03 321.448 272.411 320.519C272.792 319.589 273.253 316.466 273.436 313.579C273.619 310.691 273.867 306.867 273.987 305.079C274.334 299.935 274.379 265.506 274.041 263.686C273.874 262.782 273.505 261.61 273.223 261.082C272.674 260.057 269.907 259.302 268.39 259.764C267.885 259.918 266.73 260.168 265.824 260.322C264.085 260.616 257.168 262.797 255.471 263.585C254.921 263.841 253.009 264.604 251.221 265.28C247.262 266.779 235.024 271.827 229.221 274.354C226.884 275.372 223.959 276.604 222.721 277.091C221.484 277.579 217.883 279.031 214.721 280.319C211.558 281.607 207.958 283.008 206.721 283.431C200.711 285.484 184.264 293.218 175.072 298.313C173.202 299.35 171.597 300.115 171.505 300.013C171.413 299.912 171.48 288.026 171.654 273.601L171.971 247.373C172.186 239.921 172.186 240.823 171.99 237.659C172.079 236.378 172.166 235.02 172.186 234.642C171.99 228.454 172.431 226.143 172.324 220.526C172.324 208.464 172.324 215.438 171.891 200.417C171.654 195.911 171.314 194.603 171.723 187.079C171.969 182.542 172.409 171.292 172.699 162.079C172.99 152.867 173.497 138.917 173.825 131.079C174.153 123.242 174.393 116.267 174.358 115.579C171.431 90.1432 168.931 92.1432 166.517 83.5794C166.37 83.5794 165.805 82.0604 165.261 80.2044C158.931 66.1432 162.029 70.2924 154.588 51.8793C154.366 52.1013 150.955 43.7669 150.065 40.8294C149.649 39.4544 148.923 36.6419 148.451 34.5794C147.979 32.5169 147.397 30.6154 147.157 30.3544C146.472 29.6089 146.638 28.4689 147.727 26.4369C148.902 24.2454 148.99 23.4004 148.48 19.2439L148.451 15.2359C148.077 9.08683 149.5 7.49898 146.965 1.99898C114.965 0.495261 55.8053 -1.51073 32.236 1.99893ZM142 9.49898L141.5 23.499L123.368 22.5219C116.58 22.4564 112.355 22.6224 111.214 22.9994C110.021 23.3929 105.406 23.5274 96.7175 23.4219C77.4385 23.1874 39.675 22.6234 39.5 22.4489C39.369 22.3179 36.5 11.499 38 8.49898C47.5 7.5 109.221 7.5 142 9.49898ZM99.7045 28.8959C99.851 29.0424 100.031 37.5734 100.104 47.8539C100.254 69.0849 100.388 70.0699 103.221 70.6484C104.45 70.8994 105.206 70.7934 105.76 70.2924C106.194 69.9004 106.91 69.5794 107.351 69.5794C107.792 69.5794 108.633 68.9044 109.221 68.0794C109.808 67.2544 110.447 66.5794 110.641 66.5794C110.835 66.5794 111.411 67.3549 111.922 68.3029C112.948 70.2094 115.051 71.2439 116.384 70.4984C117.476 69.8869 117.447 68.6494 116.308 67.3614C114.311 65.1024 113.97 62.4403 113.994 49.3293C114.007 42.4543 114.197 34.8519 114.416 32.4349L114.814 28.0404L118.892 28.1849L122.971 28.3294L123.019 34.0794C123.108 44.8179 123.777 55.3129 124.708 60.5794C126.987 73.4664 127.426 77.4404 126.791 79.4299C125.499 83.4774 125.743 87.3799 127.789 95.4009C128.852 99.5649 129.718 103.165 129.715 103.401C129.712 103.636 128.789 104.27 127.664 104.81C124.756 106.203 122.382 109.18 121.681 112.313C120.527 117.47 123.469 118.862 126.473 114.579L128.051 112.329L132.144 112.184C136.804 112.018 136.514 111.737 136.935 116.829C137.759 126.793 137.841 129.446 137.332 129.76C137.028 129.948 136.657 129.499 136.463 128.709C135.844 126.192 133.489 122.338 132.196 121.725C129.277 120.342 127.767 122.411 129.439 125.502C129.834 126.232 130.878 128.35 131.76 130.209L133.363 133.588L132.923 139.209C132.681 142.3 132.522 146.742 132.568 149.079C132.615 151.417 132.737 158.224 132.84 164.207C132.951 170.729 133.232 175.29 133.54 175.598C134.803 176.862 136.721 174.243 136.721 171.255C136.721 170.608 136.915 170.079 137.153 170.079C137.391 170.079 137.695 172.906 137.828 176.361C138.011 181.121 138.257 182.83 138.844 183.417C139.543 184.115 139.645 184.1 139.9 183.26C140.662 180.75 141.214 175.269 141.217 170.175C141.22 166.323 141.39 164.625 141.75 164.847C142.042 165.027 142.227 165.66 142.163 166.252C141.953 168.201 143.302 173.308 144.318 174.412C144.867 175.007 145.832 175.624 146.463 175.783C147.568 176.06 147.613 176.276 147.687 181.699C147.769 187.662 147.963 189.038 149.021 191.141C150.049 193.184 151.378 193.214 153.528 191.244L155.409 189.522L155.542 183.676C155.744 174.827 156.193 167.169 156.704 163.829C156.957 162.179 157.315 154.192 157.499 146.079C157.683 137.967 157.905 131.208 157.992 131.059C158.079 130.91 157.927 126.779 157.654 121.879C157.252 114.668 156.997 112.802 156.314 112.092C154.996 110.721 153.277 109.994 152.178 110.343C151.625 110.518 150.844 110.389 150.443 110.056C149.993 109.683 148.849 109.547 147.467 109.703C145.563 109.918 145.221 109.823 145.221 109.079C145.221 108.056 143.864 106.772 143.334 107.294C143.134 107.49 142.716 108.366 142.404 109.24L141.837 110.829L141.321 109.531C141.037 108.818 139.561 107.126 138.042 105.772C135.32 103.346 135.267 103.245 134.411 98.8894C133.599 94.7564 133.597 94.4384 134.382 93.9994C134.843 93.7409 135.563 92.8674 135.982 92.0574C136.953 90.1799 136.321 85.7074 134.551 81.9269C133.286 79.2234 132.221 75.0004 132.221 72.6849C132.221 71.5304 132.553 71.8349 134.567 74.8349C135.857 76.7569 138.241 80.5794 139.863 83.3294C141.486 86.0794 143.182 88.5384 143.633 88.7939C144.633 89.3614 149.291 89.1794 149.94 88.5474C150.391 88.1089 149.713 86.1229 146.965 79.8294C145.047 75.4369 142.328 67.8294 142.676 67.8294C142.739 67.8294 142.545 67.1809 142.243 66.3889C141.634 64.7864 139.453 50.7759 138.966 45.3294C138.793 43.4044 138.331 39.9169 137.938 37.5794C136.977 31.8584 136.989 28.5794 137.971 28.5794C138.478 28.5794 138.721 29.0873 138.721 30.1513C138.721 32.4168 145.236 52.7889 149.332 63.3294C151.255 68.2794 153.684 74.6919 154.73 77.5794C155.775 80.4669 156.989 83.8164 157.428 85.0229C158.617 88.2949 161.215 101.034 162.029 107.579C162.964 115.107 163.424 149.544 162.852 169.291C162.614 177.52 162.51 184.871 162.621 185.626C162.851 187.193 164.546 189.246 165.251 188.811C166.23 188.206 165.766 268.326 164.733 278.132C164.461 280.715 164.234 287.935 164.229 294.175C164.224 301.243 164.031 305.638 163.717 305.831C163.44 306.003 163.096 305.835 162.951 305.458C162.807 305.082 162.639 297.364 162.58 288.308C162.477 272.712 162.422 271.833 161.543 271.664C159.704 271.31 159.472 272.339 159.444 280.98C159.429 285.572 159.338 292.142 159.243 295.579L159.07 301.829L158.707 297.829C158.507 295.629 158.307 289.104 158.262 283.329C158.217 277.554 158.093 272.154 157.986 271.329C157.88 270.504 157.75 267.917 157.698 265.579C157.6 261.208 157.155 259.579 156.056 259.579C154.951 259.579 154.307 265.885 154.499 274.829C154.6 279.504 154.734 291.204 154.799 300.829C154.964 325.693 155.006 326.323 156.555 327.338C158.393 328.542 159.878 327.922 161.652 325.21L163.209 322.829L163.215 325.351C163.219 327.313 162.86 328.475 161.596 330.586L159.971 333.299L157.593 333.151C156.116 333.059 154.055 333.404 152.151 334.063C148.625 335.284 143.552 335.999 136.158 336.319C131.961 336.5 130.663 336.383 129.357 335.703C127.85 334.919 127.571 334.918 125.107 335.696C121.181 336.936 120.776 336.983 110.221 337.423C97.964 337.933 73.568 337.731 66.971 337.064C64.221 336.786 58.547 336.372 54.3625 336.143C49.8015 335.895 46.466 335.49 46.035 335.132C45.6395 334.804 43.326 334.209 40.8935 333.81C38.461 333.411 33.747 332.642 30.4175 332.1C24.8845 331.2 17.335 329.319 14.221 328.062C13.5335 327.785 12.41 326.738 11.724 325.735L10.477 323.911L10.3525 306.12C10.154 277.811 10.197 218.523 10.4165 218.16C10.5265 217.978 10.7555 213.892 10.9255 209.079C11.148 202.77 11.058 199.632 10.6025 197.829C10.175 196.136 10.059 193.312 10.243 189.079C10.3925 185.642 10.569 178.014 10.635 172.129C10.7005 166.245 10.879 161.228 11.031 160.982C11.183 160.736 11.394 156.326 11.4995 151.182C11.605 146.038 11.8065 139.917 11.947 137.579C12.0875 135.242 12.3295 130.517 12.485 127.079C13.072 114.084 13.761 105.22 14.4295 102.069C14.8095 100.276 16.129 96.5634 17.361 93.8189C20.1415 87.6249 25.029 74.5539 27.172 67.5794C31.2055 54.4504 35.091 43.2239 36.949 39.3294C37.3425 38.5044 38.475 36.0859 39.4655 33.9544L41.2665 30.0794H43.4405C45.827 30.0794 46.2785 30.5883 45.944 32.9028C45.8305 33.6873 45.171 40.5168 44.478 48.0793C43.785 55.6418 42.9825 63.4329 42.6945 65.3929C41.9555 70.4244 41.9365 74.8839 42.65 75.7439C42.982 76.1439 43.701 76.5884 44.2475 76.7314C45.4215 77.0384 46.547 75.2114 47.0195 72.2324C47.1855 71.1859 47.5135 69.9689 47.749 69.5289C48.113 68.8474 49.4445 56.2144 51.2415 36.3994C51.4875 33.6879 51.8135 31.0764 51.966 30.5959C52.302 29.5364 56.0915 29.0884 64.7635 29.0829L70.556 29.0794L70.4515 36.4544C70.394 40.5104 70.1965 47.3168 70.0135 51.5793C69.83 55.8418 69.5895 63.1544 69.4785 67.8294C69.368 72.5044 69.1295 76.9284 68.9495 77.6599C68.693 78.7009 68.85 79.1134 69.671 79.5529C71.2795 80.4134 72.504 79.4434 73.245 76.7209C73.9315 74.1989 73.996 73.7519 74.421 68.5794C74.568 66.7919 75.024 63.0794 75.434 60.3294C76.1695 55.4014 77.407 44.4274 77.943 38.0794C78.094 36.2919 78.3045 34.3794 78.4105 33.8294C78.5165 33.2794 78.76 31.8834 78.952 30.7274L79.301 28.6249L82.386 28.4774C86.7225 28.2694 99.384 28.5759 99.7045 28.8959ZM107.427 29.3964C107.909 30.6529 107.201 33.5794 106.415 33.5794C105.915 33.5794 105.721 32.8794 105.721 31.0794C105.721 29.2759 105.915 28.5794 106.417 28.5794C106.8 28.5794 107.255 28.9469 107.427 29.3964ZM92.8555 74.2614C91.444 74.9534 91.3585 75.1974 90.714 80.3859C90.2235 84.3334 90.2635 84.8469 91.21 86.7544C92.535 89.4259 93.213 90.2789 94.596 91.0154C95.5305 91.5129 95.721 92.0339 95.721 94.0909C95.721 96.4449 95.6205 96.6304 93.6755 97.8579L91.6305 99.1494L91.966 110.739C92.151 117.114 92.4115 122.723 92.545 123.204C92.7075 123.788 93.2855 124.079 94.28 124.079C95.53 124.079 95.8985 123.777 96.5505 122.216C96.979 121.191 97.563 118.942 97.8485 117.22L98.3675 114.088L100.965 114.393C104.252 114.779 105.329 114.205 106.725 111.32C107.657 109.396 107.737 108.826 107.246 107.641C106.68 106.274 103.998 104.579 102.4 104.579C101.837 104.579 101.724 104.331 102 103.704C102.213 103.223 102.328 99.5324 102.257 95.5029C102.136 88.6399 102.189 88.1569 103.094 87.8694C105.627 87.0659 106.209 81.1849 104.069 78.0284C102.808 76.1684 101.498 76.0029 99.283 77.4229C98.2945 78.0574 98.023 78.0714 97.666 77.5069C97.4295 77.1344 97.2255 76.6044 97.213 76.3294C97.1295 74.5604 94.648 73.3829 92.8555 74.2614ZM32.236 87.2044C25.2965 105.214 24.371 107.229 22.4265 108.558C19.81 110.348 17.221 115.363 17.221 118.641C17.221 122.532 19.781 126.579 22.2425 126.579C22.6815 126.579 23.961 125.792 25.0855 124.829C27.391 122.856 27.821 122.745 28.765 123.882C29.7315 125.047 33.418 124.536 35.0495 123.012C36.68 121.489 37.721 119.471 37.721 117.832C37.721 117.064 37.976 116.584 38.346 116.655C39.4565 116.868 41.2085 116.037 41.739 115.045C42.0235 114.514 42.4455 114.079 42.6775 114.079C43.2475 114.079 43.2715 121.895 42.708 124.079C42.4595 125.042 41.6645 128.417 40.941 131.579C40.2175 134.742 39.435 137.945 39.202 138.697C38.757 140.133 39.6225 141.579 40.927 141.579C42.129 141.579 43.8815 154.343 43.612 161.133C43.4575 165.031 44.074 166.079 46.5205 166.079C49.6005 166.079 49.647 165.809 49.848 146.829C49.9965 132.815 50.167 129.472 50.82 127.795C51.831 125.2 51.325 124.269 48.6585 123.819L46.5965 123.47L46.8845 117.65C47.043 114.448 47.183 111.797 47.1965 111.758C47.21 111.72 47.7335 111.559 48.36 111.402C48.986 111.245 50.1395 110.447 50.922 109.63C52.0045 108.501 52.271 107.846 52.0335 106.901C51.5 104.775 47.464 100.852 44.0015 99.0949C40.9735 97.5579 40.4965 97.4624 36.987 97.6874C34.9155 97.8204 33.221 97.7739 33.221 97.5844C33.221 97.3944 33.9135 95.2344 34.7605 92.7844C35.607 90.3339 36.503 87.3579 36.7515 86.1709C37 84.9839 37.327 83.8124 37.4785 83.5674C37.698 83.2119 35.324 81.5794 34.587 81.5794C34.486 81.5794 33.428 84.1109 32.236 87.2044ZM49.721 83.2834C48.2085 84.2384 46.146 85.4779 45.138 86.0379C44.13 86.5984 42.797 87.7704 42.176 88.6429L41.0465 90.2289L42.189 91.1539C42.8175 91.6629 43.4765 92.0794 43.653 92.0794C43.8295 92.0794 45.082 91.2919 46.4355 90.3294C47.7895 89.3669 49.1385 88.5789 49.434 88.5779C49.7295 88.5774 50.9215 87.7334 52.0835 86.7029C53.5405 85.4109 54.239 84.3639 54.3335 83.3294C54.531 81.1749 53.0835 81.1604 49.721 83.2834ZM41.0215 105.836C42.132 107.531 41.561 108.046 38.782 107.857C35.698 107.647 34.221 107.174 34.221 106.396C34.221 105.22 35.338 104.674 37.7805 104.655C39.831 104.64 40.365 104.834 41.0215 105.836ZM151.02 127.426C151.369 134.81 151.062 137.45 150.128 135.079C149.5 133.484 148.968 122.654 149.428 120.822C150.119 118.069 150.689 120.434 151.02 127.426ZM145.914 127.454C146.317 133.552 146.293 153.562 145.879 156.577C145.07 162.466 144.562 152.919 144.627 133.079C144.66 123.258 144.694 122.579 145.156 122.579C145.396 122.579 145.737 124.773 145.914 127.454ZM72.123 150.082C68.6645 151.941 66.576 155.936 68.0005 157.969C68.645 158.89 68.929 158.963 69.987 158.481C70.6655 158.172 71.221 157.734 71.221 157.507C71.221 156.893 76.0155 154.582 77.3295 154.563C78.727 154.544 80.221 153.474 80.221 152.493C80.221 151.458 77.656 149.7 75.664 149.37C74.4975 149.176 73.396 149.398 72.123 150.082ZM79.0885 159.204C78.324 159.784 77.0055 163.106 75.0315 169.423C74.136 172.289 73.9895 174.377 74.655 174.789C74.894 174.936 75.2425 176.211 75.4295 177.621C75.6915 179.597 75.998 180.245 76.7655 180.446C78.092 180.793 78.8525 182.396 80.4065 188.121C81.1215 190.756 82.3775 195.015 83.197 197.586C85.563 205.009 85.5855 205.851 83.4975 209.062C82.5205 210.566 81.721 212.377 81.721 213.087C81.721 213.798 81.498 214.602 81.2255 214.875C80.8985 215.202 80.993 215.745 81.504 216.475C83.049 218.68 85.1765 217.486 87.944 212.859C89.441 210.356 89.721 209.426 89.721 206.951C89.721 205.335 89.4925 203.587 89.2135 203.065C88.934 202.543 88.6075 201.489 88.487 200.723C88.2215 199.035 87.0265 193.914 85.944 189.829C85.507 188.179 84.7085 184.945 84.1695 182.642C83.044 177.834 82.482 176.579 81.4535 176.579C81.026 176.579 80.7225 176.111 80.725 175.454C80.731 173.903 82.048 164.141 82.4795 162.451C82.717 161.52 82.566 160.667 82.0145 159.826C81.1065 158.44 80.317 158.272 79.0885 159.204ZM62.853 161.281C59.299 162.238 59.0185 162.797 59.9165 167.132C60.3375 169.166 60.926 171.528 61.225 172.381C61.5235 173.235 61.677 175.09 61.5655 176.504C61.331 179.473 61.677 179.912 64.471 180.187C66.204 180.359 66.4715 180.548 66.474 181.607C66.476 182.279 66.8665 183.404 67.3425 184.106C67.818 184.808 68.6325 186.619 69.1525 188.13C69.6725 189.641 70.5445 191.767 71.091 192.853C71.637 193.94 72.485 196.067 72.9755 197.579C73.4655 199.092 74.732 202.185 75.7895 204.454C77.8265 208.825 79.0875 209.698 80.244 207.537C80.935 206.245 79.699 201.144 76.1365 190.579C72.3195 179.261 72.216 178.913 72.2185 177.429C72.2235 174.538 69.82 171.8 66.8005 171.258C66.0695 171.127 65.2845 170.835 65.0565 170.61C64.4905 170.051 63.638 166.118 63.967 165.585C64.113 165.349 65.338 164.789 66.6885 164.34C69.46 163.419 70.382 162.58 69.926 161.393C69.5565 160.429 66.209 160.376 62.853 161.281ZM86.7675 161.273C86.2465 161.901 86.31 163.553 87.001 167.329C87.3 168.962 89.182 178.557 89.9435 182.329C90.3325 184.254 90.788 187.404 90.956 189.329C91.1975 192.097 91.486 193.001 92.3335 193.651C93.5005 194.545 93.556 194.371 90.9745 197.898C90.6335 198.364 90.7015 198.928 91.1915 199.703C93.884 203.955 96.372 210.797 97.2315 216.31C97.856 220.318 98.3275 221.079 100.182 221.079C102.68 221.079 103.454 219.302 101.678 217.646C100.88 216.903 100.749 216.458 101.123 215.752C101.851 214.376 100.173 206.906 98.026 201.964L97.2155 200.098L98.5355 200.7C100.026 201.379 104.596 207.156 105.039 208.922C105.198 209.558 105.512 210.079 105.736 210.079C105.96 210.079 106.399 210.854 106.711 211.8C107.128 213.062 107.706 213.662 108.879 214.049C110.407 214.553 112.083 216.384 111.526 216.941C111.381 217.086 110.289 217.246 109.099 217.296C107.91 217.346 106.64 217.57 106.278 217.794C105.367 218.357 105.955 220.982 107.316 222.43C108.394 223.578 110.418 223.973 110.936 223.136C111.086 222.892 111.977 222.549 112.915 222.373C115.285 221.928 117.221 220.29 117.221 218.729C117.221 218.026 116.324 216.136 115.227 214.53C114.131 212.924 112.536 210.133 111.683 208.328C110.83 206.523 108.327 202.781 106.12 200.014L102.107 194.982L102.854 193.081C103.48 191.487 103.5 190.789 102.976 188.755C102.633 187.421 102.081 184.304 101.751 181.829C100.931 175.699 98.72 166.201 97.9665 165.575C97.532 165.215 97.046 165.325 96.319 165.947C95.35 166.776 95.3155 167.1 95.7455 171.329C96.3435 177.206 97.078 182.717 97.6785 185.829C98.6305 190.761 98.639 194.601 97.703 197.259L96.814 199.782L96.2195 197.574C95.8835 196.326 95.7785 194.596 95.9775 193.597C96.536 190.797 96.2825 187.393 94.895 179.079C94.184 174.817 93.428 170.184 93.2155 168.784C92.753 165.738 91.695 163.559 89.8465 161.845C88.297 160.408 87.5935 160.278 86.7675 161.273ZM119.221 163.579C118.926 164.129 118.412 164.586 118.078 164.595C116.237 164.643 114.737 169.543 114.717 175.579C114.686 184.604 114.988 188.231 115.816 188.754C117.442 189.779 118.072 188.383 118.435 182.946C118.84 176.892 119.658 171.518 120.277 170.855C120.873 170.216 123.606 172.888 127.339 177.761C131.476 183.16 131.519 183.351 131.27 195.079C131.202 198.242 131.305 202.009 131.498 203.451C131.729 205.175 131.653 206.309 131.276 206.763C130.826 207.305 130.969 207.627 131.944 208.266C134.796 210.134 135.775 208.823 135.256 203.829C134.734 198.8 134.983 191.458 135.723 190.075C136.071 189.425 136.776 188.442 137.288 187.891C137.801 187.341 138.221 186.612 138.221 186.271C138.221 185.668 137.131 184.342 136.355 183.999C136.144 183.906 135.296 182.479 134.471 180.829C133.145 178.179 128.987 172.253 123.331 164.954C121.357 162.407 120.077 161.979 119.221 163.579ZM52.1385 169.456C49.805 169.774 50.047 170.936 53.3665 175.359C55.0975 177.666 56.925 180.696 57.4275 182.093C58.178 184.18 58.531 184.606 59.406 184.481C61.7495 184.147 60.589 177.834 57.32 173.131C55.1565 170.02 54.0035 169.202 52.1385 169.456ZM44.172 176.171C42.9175 178.515 43.3745 180.656 45.808 183.829C47.799 186.426 48.2875 187.569 49.443 192.329C51.2665 199.842 52.0235 201.448 54.448 202.945C55.5605 203.632 56.8265 204.641 57.2605 205.186C58.0115 206.13 58.093 206.136 58.922 205.307C60.0365 204.192 59.807 203.31 56.8115 197.201C54.559 192.608 48.721 178.618 48.721 177.815C48.721 177.186 46.211 175.079 45.463 175.079C45.074 175.079 44.4935 175.57 44.172 176.171ZM124.688 183.612C122.902 185.398 124.322 189.351 126.542 188.771C128.582 188.237 128.501 182.579 126.453 182.579C126.05 182.579 125.256 183.044 124.688 183.612ZM24.2655 189.552C23.5025 190.023 23.5635 190.329 25.4095 195.296C26.1275 197.227 27.3175 199.33 28.0965 200.046C29.908 201.708 34.9275 212.771 34.8655 214.963C34.812 216.859 35.8925 217.68 37.596 217.036C38.592 216.66 38.721 216.264 38.721 213.589C38.721 211.926 38.5075 210.175 38.2465 209.697C37.9855 209.22 37.0765 207.316 36.227 205.467C35.3775 203.618 33.9035 201.085 32.9515 199.838C32 198.591 31.221 197.455 31.221 197.313C31.221 196.819 27.6895 191.925 26.3265 190.531C25.3935 189.577 24.7325 189.263 24.2655 189.552ZM33.0545 189.413C32.429 190.038 32.72 191.233 33.8745 192.782C34.5095 193.633 35.773 195.679 36.683 197.329C39.3225 202.115 40.726 203.13 42.2175 201.333C42.7205 200.727 42.5695 199.953 41.413 197.208C39.179 191.908 34.719 187.748 33.0545 189.413ZM18.3345 190.204C17.465 191.272 16.221 194.641 16.221 195.929C16.221 196.605 16.847 197.782 17.616 198.551C18.383 199.318 19.6385 201.546 20.4055 203.501C21.173 205.457 22.2955 207.793 22.9 208.693C24.901 211.671 26.5745 214.81 26.914 216.221C27.332 217.961 29.3375 219.02 30.456 218.092C31.4845 217.238 31.4275 216.744 29.969 213.87C29.2825 212.517 28.721 211.142 28.721 210.816C28.721 210.489 27.9665 208.774 27.044 207.004C26.1215 205.235 25.0975 202.969 24.7675 201.971C24.438 200.972 23.5085 199.406 22.7025 198.492C21.8905 197.571 21.2335 196.247 21.229 195.524C21.2075 192.05 20.578 189.579 19.7145 189.579C19.2355 189.579 18.6145 189.861 18.3345 190.204ZM59.5545 190.913C58.7945 191.672 59.3345 193.713 61.22 197.209C62.3195 199.247 63.108 201.026 62.972 201.162C62.836 201.297 63.291 201.941 63.9835 202.591C65.122 203.661 65.3155 203.699 66.0195 202.995C67.3865 201.628 67.4775 198.425 66.223 195.834C64.3945 192.056 60.9515 189.516 59.5545 190.913ZM113.701 195.353C113.317 195.816 113.047 197.571 113.03 199.728C112.995 204.042 114.54 207.478 116.884 208.302C118.573 208.896 120.699 207.916 121.464 206.192C121.736 205.58 122.079 205.079 122.226 205.079C122.373 205.079 122.792 206.373 123.157 207.954C123.522 209.535 124.08 211.145 124.396 211.531C124.712 211.917 124.986 213.604 125.005 215.281C125.052 219.394 125.994 221.283 128.1 221.486C129.909 221.661 130.514 220.76 130.743 217.555C130.962 214.483 130.744 213.641 129.404 212.399C128.172 211.257 128.051 210.736 127.529 204.343C126.916 196.835 126.68 196.369 123.649 196.673C122.296 196.809 121.874 197.259 120.333 200.204C119.361 202.06 118.385 203.579 118.163 203.579C117.672 203.579 116.919 200.753 116.464 197.204C116.199 195.145 115.935 194.579 115.235 194.579C114.745 194.579 114.054 194.927 113.701 195.353ZM142.086 195.911C141.794 196.404 141.341 198.535 140.935 201.329C140.775 202.429 140.42 204.342 140.146 205.579C139.872 206.817 139.528 209.228 139.38 210.939C139.123 213.928 139.175 214.11 140.72 215.656C142.623 217.558 142.601 218.449 140.483 225.246L139.123 229.609L141.093 232.219C142.176 233.655 143.34 235.673 143.68 236.704C144.187 238.241 144.539 238.582 145.635 238.595C146.369 238.604 147.408 238.941 147.941 239.345C149.916 240.839 152.664 239.859 153.926 237.211C155.934 233.001 155.31 217.399 153.072 215.831C152.188 215.213 152.063 214.488 151.964 209.439C151.903 206.307 151.582 202.925 151.252 201.923C150.608 199.974 146.635 196.084 145.275 196.072C144.833 196.069 143.99 195.937 143.402 195.779C142.814 195.621 142.222 195.68 142.086 195.911ZM147.749 203.404C148.437 205.213 148.145 215.19 147.397 215.438C147.082 215.543 146.338 214.947 145.745 214.113C144.723 212.677 144.696 212.382 145.236 208.464C146.035 202.669 146.174 202.079 146.743 202.079C147.019 202.079 147.472 202.676 147.749 203.404ZM54.5095 209.323C52.6605 211.747 53.2475 212.553 58.9145 215.366C66.5505 219.156 70.221 218.885 70.221 214.531C70.221 213.49 69.94 212.462 69.596 212.247C69.2525 212.032 67.621 211.916 65.971 211.988C62.571 212.138 60.1225 211.008 59.1305 208.83C58.2595 206.919 56.1735 207.142 54.5095 209.323ZM45.346 212.91C44.456 213.269 44.571 214.308 45.7065 216.176C46.249 217.067 46.836 218.755 47.0115 219.926C47.2865 221.76 47.1195 222.374 45.807 224.357C44.0605 226.993 44.1875 227.912 46.3775 228.48C47.774 228.842 47.9785 229.15 48.449 231.605C48.882 233.865 49.164 234.357 50.105 234.49C51.8655 234.74 52.6235 232.332 52.42 227.136C52.1185 219.431 51.03 214.556 49.3225 213.258C48.4685 212.609 46.5155 212.438 45.346 212.91ZM149.322 225.407C149.874 230.345 149.6 234.769 148.672 235.887C147.958 236.748 147.133 235.89 147.573 234.743C147.716 234.371 147.607 233.789 147.331 233.448C147.055 233.108 146.565 231.541 146.242 229.967C145.715 227.396 145.77 226.747 146.787 223.591C147.465 221.485 148.1 220.259 148.373 220.531C148.622 220.781 149.049 222.975 149.322 225.407ZM33.321 222.679C32.3215 223.679 32.6385 224.96 34.313 226.687C38.446 230.951 40.5325 231.565 41.949 228.935C43.114 226.772 42.823 225.338 41.212 225.299C40.5115 225.282 39.28 224.574 38.3845 223.674C36.713 221.994 34.451 221.549 33.321 222.679ZM98.346 225.095C97.6915 225.358 97.221 225.977 97.221 226.574C97.221 228.129 101.537 236.394 102.818 237.291C105.407 239.105 107.545 237.596 108.085 233.574C108.352 231.582 108.27 231.443 104.835 228.055C101.336 224.604 100.507 224.226 98.346 225.095ZM86.7115 228.739C83.7545 229.936 81.221 231.287 81.221 231.668C81.221 231.894 80.94 232.082 80.596 232.085C79.8295 232.091 73.84 236.229 73.046 237.301C72.7295 237.728 71.134 238.423 69.4995 238.847C66.106 239.726 65.221 240.307 65.221 241.653C65.221 242.905 66.8785 243.478 70.016 243.311C73.6045 243.12 77.428 241.343 79.2785 239.007C82.4275 235.031 86.2805 233.782 91.6395 235C93.5175 235.426 93.9375 235.363 94.776 234.524C95.768 233.532 95.6635 232.989 94.1045 231.036C92.6165 229.173 88.6695 227.946 86.7115 228.739ZM158.585 228.454C158.248 229.104 158.492 249.517 158.841 249.866C159.518 250.543 162.712 249.531 163.286 248.458C163.961 247.196 163.513 234.431 162.689 231.447C162.042 229.101 159.291 227.095 158.585 228.454ZM127.085 230.204C126.777 231.084 127.158 249.095 127.711 259.829C128.174 268.806 128.017 301.985 127.458 313.289C127.296 316.567 126.871 319.947 126.514 320.801C125.52 323.18 122.411 326.259 121.396 325.87C120.93 325.691 114.793 325.453 107.759 325.341C100.726 325.229 94.4085 325.03 93.721 324.9C93.0335 324.769 88.9835 324.509 84.721 324.32C74.4645 323.868 73.813 323.814 64.221 322.633C55.215 321.524 42.3285 320.318 34.471 319.849C25.636 319.322 25.27 319.222 24.419 317.094C24.009 316.07 22.9955 314.73 22.166 314.117C20.8645 313.155 20.443 313.078 19.079 313.553C18.21 313.856 16.874 314.703 16.11 315.435C13.3465 318.083 14.723 323.49 18.9205 326.474C22.769 329.211 25.704 330.602 26.962 330.286C28.2665 329.959 29.3855 327.589 28.87 326.246C28.527 325.352 28.7505 325.371 34.818 326.753C36.659 327.172 42.3965 328.092 47.568 328.797C52.7395 329.501 59.3335 330.404 62.221 330.802C65.1085 331.201 69.3835 331.65 71.721 331.802C74.0585 331.954 78.7575 332.335 82.163 332.648C91.211 333.481 118.184 332.923 121.221 331.84C125.609 330.276 127.72 328.901 128.528 327.078C129.245 325.46 129.49 325.316 131.756 325.178C133.105 325.096 135.428 324.49 136.917 323.831L139.626 322.633L139.951 323.928C140.364 325.574 140.03 325.879 136.971 326.65C133.789 327.451 133.221 327.89 133.221 329.546C133.221 333.162 137.08 334.091 141.531 331.544C143.858 330.213 144.42 329.569 145.788 326.669C148.556 320.803 148.641 320.409 148.958 312.014C149.584 295.464 149.853 289.797 150.028 289.502C150.574 288.575 150.042 244.504 149.474 243.585C149.017 242.845 146.936 242.968 146.267 243.774C145.17 245.095 144.186 253.37 143.941 263.329C143.805 268.829 143.576 275.017 143.431 277.079C143.074 282.165 143.076 281.802 143.367 290.829C143.709 301.441 142.573 309.002 140.052 312.897C137.822 316.342 137.632 314.356 139.568 307.829L140.903 303.329L140.978 273.579C141.029 253.16 141.227 243.309 141.611 242.17C142.333 240.03 141.658 238.209 139.99 237.79C138.07 237.308 137.267 237.847 136.153 240.367C135.205 242.508 135.159 243.281 135.477 251.62C135.783 259.654 135.734 260.606 134.998 260.888C134.547 261.061 134.025 261.05 133.838 260.863C133.652 260.677 133.453 256.768 133.395 252.177C133.338 247.586 133.138 241.178 132.95 237.937L132.608 232.045L130.992 230.812C129.248 229.481 127.437 229.2 127.085 230.204ZM114.221 230.675C113.533 230.931 112.115 232.029 111.069 233.118L109.167 235.097L111.737 238.051C113.758 240.374 114.564 241.841 115.514 244.917C116.996 249.723 117.023 251.25 115.659 253.167C114.782 254.398 114.693 254.87 115.148 255.869C115.467 256.568 116.126 257.079 116.71 257.079C117.973 257.079 118.03 258.49 116.938 262.706C116.235 265.417 116.233 265.806 116.919 266.492C117.524 267.097 117.936 267.142 118.892 266.706C120.251 266.087 121.889 261.391 122.398 256.651C122.557 255.178 122.949 253.657 123.269 253.271C123.595 252.878 123.867 250.862 123.885 248.699C123.919 244.657 123.781 244.28 119.832 237.579C119.265 236.617 118.558 234.929 118.261 233.829C117.386 230.591 116.439 229.852 114.221 230.675ZM59.721 233.408C57.9335 234.347 55.2785 235.905 53.8205 236.87C50.5785 239.015 43.6975 245.879 42.503 248.16C38.077 256.609 38.1905 256.209 39.9035 257.331C40.8355 257.942 41.386 257.992 42.502 257.567C43.9125 257.031 44.55 256.37 50.721 249.036C53.9815 245.162 59.5715 240.393 64.1645 237.566C67.013 235.814 67.469 234.986 66.596 233.154C65.6935 231.262 63.663 231.337 59.721 233.408ZM50.067 252.103C49.1125 253.217 49.3145 253.846 51.0755 255.243C53.4905 257.159 53.471 257.846 50.906 261.11C49.197 263.285 48.3255 264.023 47.757 263.774C47.3245 263.585 45.902 263.195 44.595 262.906C40.7005 262.046 40.7665 261.78 41.773 274.329C42.8025 287.169 43.138 300.827 42.692 311.743C42.48 316.937 42.5185 317.196 43.6345 318.104C44.725 318.992 44.8765 319 46.0495 318.232C47.116 317.533 47.2535 317.16 46.981 315.707C46.8055 314.77 46.873 313.739 47.131 313.416C47.3895 313.093 47.7645 311.029 47.9645 308.829C48.1645 306.629 48.415 304.379 48.5215 303.829C48.628 303.279 48.837 301.029 48.986 298.829C49.135 296.629 49.512 293.637 49.8245 292.181C50.3885 289.548 50.3825 289.523 48.8065 288.084C47.271 286.681 47.221 286.505 47.221 282.512C47.221 278.779 47.2905 278.48 47.955 279.358C48.359 279.892 48.6965 280.611 48.705 280.954C48.714 281.298 48.9135 281.579 49.1485 281.579C49.384 281.579 49.786 282.311 50.042 283.204C50.452 284.635 50.76 284.863 52.6245 285.114C56.0985 285.581 57.5555 287.099 59.9155 292.704C60.7795 294.757 62.339 295.239 63.1455 293.704C64.102 291.885 62.2595 288.067 58.691 284.471C56.8575 282.624 55.014 280.588 54.594 279.947C53.595 278.422 51.536 271.183 51.6445 269.579C51.7935 267.387 54.3245 263.115 56.5585 261.284C58.9785 259.301 59.4025 257.507 57.6985 256.458C57.1365 256.112 55.988 254.76 55.1465 253.454C53.418 250.77 51.618 250.291 50.067 252.103ZM90.2715 254.768C89.835 255.294 90.0125 256.67 91.0225 260.591C92.7055 267.125 92.542 271.192 90.428 275.37C88.9205 278.35 86.3265 280.579 84.368 280.579C82.535 280.579 81.629 282.936 82.219 286.168C82.6095 288.304 83.0865 289.175 84.636 290.579L86.567 292.329L86.3295 298.904L86.092 305.478L81.0315 305.262C75.797 305.039 70.865 304.217 70.418 303.493C70.01 302.833 68.398 303.013 67.7525 303.791C67.2895 304.349 67.3765 304.924 68.1555 306.451C69.3295 308.752 72.347 310.891 75.333 311.541C76.509 311.796 79.046 312.362 80.971 312.797C85.7075 313.867 87.059 313.797 88.3685 312.418C90.836 309.82 91.463 308.464 91.619 305.386C91.772 302.371 92.6235 297.839 93.8115 293.719C94.3305 291.919 94.296 291.348 93.5785 289.844C93.116 288.873 92.385 288.079 91.9545 288.079C90.4035 288.079 88.221 286.572 88.221 285.501C88.221 284.838 89.8715 282.816 92.6685 280.051C96.235 276.524 97.2855 275.142 97.9725 273.074C99.137 269.568 98.6605 264.717 96.6985 260.107C95.886 258.197 95.221 256.279 95.221 255.844C95.221 254.359 91.3155 253.51 90.2715 254.768ZM66.5415 262.34C64.263 264.461 64.1335 264.715 64.4375 266.465C64.9055 269.157 65.7075 271.022 67.5125 273.616C68.3875 274.873 69.465 276.601 69.907 277.455C70.3485 278.309 71.179 279.157 71.7525 279.339C73.321 279.837 75.558 278.68 76.248 277.014C77.0085 275.179 76.506 273.924 73.821 270.955C71.2425 268.103 70.517 266.147 70.917 263.129C71.1785 261.157 71.088 260.635 70.4395 260.386C69.19 259.907 69.1125 259.945 66.5415 262.34ZM102.057 261.793C100.795 262.963 100.771 263.086 101.402 265.185C101.763 266.383 102.769 268.345 103.639 269.546C105.947 272.731 105.775 274.286 102.471 280.122C100.958 282.794 99.721 285.156 99.721 285.372C99.721 285.588 100.188 286.262 100.76 286.871L101.799 287.976L100.604 289.902C97.8695 294.312 97.514 297.37 99.644 298.152C100.61 298.507 101.075 298.306 102.287 297.008C103.096 296.142 104.299 294.25 104.961 292.803C105.623 291.357 106.402 290.026 106.692 289.847C107.43 289.391 107.324 287.506 106.499 286.418C105.902 285.631 105.948 285.191 106.84 283.168C107.407 281.881 108.367 280.154 108.973 279.329C110.219 277.633 111.477 273.945 111.977 270.52C112.391 267.684 111.541 265.829 108.411 262.744C105.83 260.199 104.062 259.935 102.057 261.793ZM262.635 274.521C262.832 275.869 261.773 277.331 261.092 276.65C260.455 276.013 261.162 272.977 261.892 273.217C262.21 273.322 262.545 273.909 262.635 274.521ZM115.483 282.704C114.592 283.982 110.646 289.343 108.616 292.034C106.539 294.787 106.932 297.579 109.396 297.579C111.683 297.579 119.221 287.388 119.221 284.295C119.221 281.733 116.861 280.729 115.483 282.704ZM119.581 290.173C119.195 290.809 118.571 292.319 118.195 293.529C117.674 295.206 116.853 296.253 114.741 297.933C113.217 299.145 111.296 300.489 110.471 300.92C107.981 302.221 104.757 305.061 103.861 306.744C102.435 309.424 103.162 310.559 106.315 310.572C108.293 310.58 108.829 310.189 116.846 302.9C119.591 300.404 120.721 299.032 120.721 298.196C120.721 297.546 121.189 295.928 121.76 294.6C123.058 291.583 122.903 289.39 121.377 289.173C120.662 289.071 120.041 289.417 119.581 290.173ZM225.16 294.031C226.019 294.575 225.568 295.372 224.198 295.73C222.958 296.054 222.22 294.703 223.273 294.036C224.139 293.488 224.302 293.488 225.16 294.031ZM219.721 295.595C219.721 296.191 219.256 296.786 218.596 297.032C217.014 297.624 216.459 296.552 217.78 295.454C219.158 294.308 219.721 294.349 219.721 295.595ZM225.721 299.079C225.721 300.041 225.467 300.579 225.012 300.579C224.622 300.579 223.947 300.716 223.512 300.883C222.898 301.118 222.721 300.847 222.721 299.674C222.721 298.161 223.206 297.692 224.846 297.618C225.494 297.589 225.721 297.969 225.721 299.079ZM219.221 300.538C219.221 302.001 218.512 302.63 217.346 302.202C217.003 302.075 216.721 301.452 216.721 300.817C216.721 300.182 217.003 299.549 217.346 299.41C218.749 298.844 219.221 299.128 219.221 300.538ZM227.721 310.288C227.721 310.403 227.858 310.853 228.025 311.288C228.242 311.855 228.03 312.079 227.275 312.079C226.555 312.079 226.221 311.763 226.221 311.079C226.221 310.524 226.555 310.079 226.971 310.079C227.384 310.079 227.721 310.173 227.721 310.288ZM255.366 316.579C255.51 317.13 255.424 317.454 255.175 317.3C254.925 317.146 254.721 316.696 254.721 316.299C254.721 315.264 255.061 315.412 255.366 316.579ZM228.324 320.053C228.443 320.863 228.345 321.876 228.106 322.303C227.449 323.476 226.22 323.248 226.228 321.954C226.248 318.752 227.912 317.243 228.324 320.053ZM220.346 321.817C220.018 323.533 219.721 323.405 219.721 321.549C219.721 320.708 219.916 320.14 220.154 320.287C220.392 320.434 220.479 321.123 220.346 321.817ZM213.032 322.155C212.737 324.029 211.616 324.95 211.167 323.685C210.773 322.574 211.681 320.579 212.581 320.579C213.085 320.579 213.211 321.019 213.032 322.155ZM202.86 323.954C202.678 325.123 202.343 325.579 201.664 325.579C201.145 325.579 200.692 325.41 200.657 325.204C200.295 323.077 200.444 322.463 201.412 322.09C202.818 321.55 203.165 321.997 202.86 323.954ZM195.721 324.521C195.721 325.593 195.433 326.039 194.596 326.264C192.836 326.735 192.721 326.668 192.721 325.162C192.721 323.441 193.04 323.079 194.554 323.079C195.507 323.079 195.721 323.344 195.721 324.521ZM255.721 329.12C255.721 330.458 255.519 331.095 255.136 330.967C254.522 330.762 254.193 328.776 254.594 327.704C255.091 326.378 255.721 327.171 255.721 329.12ZM250.221 329.299C250.221 330.246 249.996 331.159 249.721 331.329C249.419 331.515 249.221 330.834 249.221 329.608C249.221 328.492 249.446 327.579 249.721 327.579C249.996 327.579 250.221 328.353 250.221 329.299ZM245.221 329.87C245.221 332.13 244.041 331.957 243.815 329.665C243.699 328.493 243.862 328.079 244.44 328.079C245.003 328.079 245.221 328.579 245.221 329.87ZM239.129 329.954C239.016 330.938 238.652 331.374 237.846 331.489C236.889 331.624 236.721 331.419 236.721 330.114C236.721 328.799 236.906 328.579 238.004 328.579C239.109 328.579 239.266 328.77 239.129 329.954ZM228.221 330.579C228.221 331.592 227.973 332.079 227.456 332.079C226.246 332.079 225.932 330.527 226.986 329.756C228.22 328.854 228.221 328.855 228.221 330.579ZM212.221 331.829C212.221 332.745 211.954 333.079 211.221 333.079C210.175 333.079 210.017 332.691 210.524 331.37C211.009 330.105 212.221 330.433 212.221 331.829ZM195.721 332.858C195.721 333.924 195.495 334.079 193.936 334.079C192.38 334.079 192.172 333.937 192.311 332.974C192.411 332.285 192.941 331.751 193.721 331.553C195.352 331.14 195.721 331.38 195.721 332.858ZM202.721 331.793C202.721 332.594 201.398 334.079 200.685 334.079C200.43 334.079 200.221 333.404 200.221 332.579C200.221 331.312 200.415 331.079 201.471 331.079C202.221 331.079 202.721 331.364 202.721 331.793ZM183.123 333.643C183.235 334.612 183.01 335.017 182.248 335.217C181.357 335.449 181.221 335.254 181.221 333.745C181.221 332.358 181.398 332.04 182.096 332.172C182.61 332.269 183.033 332.876 183.123 333.643ZM245.128 336.492C245.244 337.665 245.081 338.079 244.503 338.079C243.939 338.079 243.721 337.579 243.721 336.287C243.721 334.028 244.902 334.2 245.128 336.492ZM250.221 335.079C250.221 335.354 249.996 335.579 249.721 335.579C249.446 335.579 249.221 335.354 249.221 335.079C249.221 334.804 249.446 334.579 249.721 334.579C249.996 334.579 250.221 334.804 250.221 335.079ZM228.221 337.829C228.221 339.099 227.082 339.568 226.456 338.555C225.975 337.776 226.58 336.579 227.456 336.579C227.939 336.579 228.221 337.04 228.221 337.829ZM212.131 338.165C211.895 339.765 210.721 339.937 210.721 338.37C210.721 337.53 210.995 337.079 211.506 337.079C212.027 337.079 212.237 337.443 212.131 338.165ZM202.221 338.829C202.221 339.746 201.954 340.079 201.221 340.079C200.487 340.079 200.221 339.746 200.221 338.829C200.221 337.913 200.487 337.579 201.221 337.579C201.954 337.579 202.221 337.913 202.221 338.829ZM195.221 339.079C195.221 339.889 194.887 340.079 193.471 340.079C191.471 340.079 190.982 338.791 192.846 338.432C194.986 338.02 195.221 338.084 195.221 339.079ZM183.221 339.579C183.221 339.854 182.883 340.079 182.471 340.079C182.058 340.079 181.721 339.854 181.721 339.579C181.721 339.304 182.058 339.079 182.471 339.079C182.883 339.079 183.221 339.304 183.221 339.579ZM145.971 342.829C145.971 343.739 145.664 343.822 142.578 343.751C140.586 343.705 138.849 343.395 138.37 343.001C137.66 342.416 137.904 342.29 140.263 342.025C144.763 341.519 145.971 341.689 145.971 342.829ZM257.471 343.829C257.471 344.906 257.246 345.079 255.846 345.079C254.952 345.079 254.221 344.854 254.221 344.579C254.221 344.304 254.208 343.91 254.192 343.704C254.165 343.362 255.744 342.751 256.971 342.629C257.246 342.601 257.471 343.142 257.471 343.829ZM236.221 345.079C236.221 345.354 235.87 345.579 235.442 345.579C235.013 345.579 234.801 345.354 234.971 345.079C235.141 344.804 235.492 344.579 235.751 344.579C236.01 344.579 236.221 344.804 236.221 345.079Z" fill="black"/>
</svg>
