<svg width="758" height="472" viewBox="0 0 758 472" fill="none" xmlns="http://www.w3.org/2000/svg">
<path fill-rule="evenodd" clip-rule="evenodd" d="M725.075 1.6932L726.311 0.827583C727.921 -0.300647 728.344 -0.286725 729.727 0.939585C730.576 1.69195 731.028 1.77548 731.438 1.25597C732.353 0.0986324 734.263 0.451081 735.49 2.00264L736.638 3.45483L736.724 70.7316C736.771 107.734 736.895 138.188 736.998 138.409C737.102 138.63 737.33 145.502 737.503 153.68C737.859 170.484 738.734 229.427 737.074 232.379C735.928 234.416 735.179 234.45 731.878 232.618C731.053 232.16 729.984 231.621 729.503 231.421C728.703 231.088 728.621 229.68 728.546 215.059C728.403 187.376 726.654 110.232 726.006 90.4032C725.622 78.6375 725.326 55.9514 725.199 28.4891L725.075 1.6932ZM741.073 11.8118C740.951 4.76212 741.067 1.78813 741.474 1.57236C742.495 1.03007 750.881 1.66916 751.402 2.32914C752.088 3.19667 753.131 18.3496 753.566 33.7702C753.763 40.7307 754.007 47.4223 754.109 48.6404C754.283 50.7184 754.534 62.226 755.008 89.7705C755.119 96.2089 755.336 105.89 755.492 111.285C756.195 135.706 757.612 216.256 757 222.445L756.378 228.744L754.484 230.004C752.776 231.142 752.266 231.195 749.312 230.555C747.51 230.165 745.937 229.72 745.817 229.568C745.266 228.871 743.727 171.547 743.501 152.415C743.368 141.104 743.257 129.999 743.253 127.737C743.221 107.372 743.154 96.4551 743.042 93.2507C742.969 91.1626 742.746 82.9049 742.548 74.9003C742.349 66.8958 742.122 59.2076 742.044 57.8155C741.91 55.4363 741.462 34.1695 741.073 11.8118ZM709.569 20.6174V20.6184L709.62 22.3804C709.689 24.8165 709.958 29.6572 710.219 33.1375C711.048 44.2122 711.354 53.4836 711.596 74.9003C711.726 86.3851 712.016 98.7716 712.24 102.426C712.464 106.08 712.69 119.606 712.742 132.482C712.796 145.359 712.93 157.319 713.042 159.059C714.575 182.785 715.298 213.487 715.467 261.989C715.545 284.325 715.558 284.578 716.672 286.484C717.29 287.543 717.797 288.683 717.797 289.017C717.797 289.352 718.507 289.823 719.374 290.064C720.778 290.454 721.133 290.233 722.605 288.057C724.768 284.86 725.012 282.964 724.575 272.691C724.374 267.965 724.114 261.027 723.998 257.274C723.883 253.52 723.583 248.627 723.334 246.4C723.085 244.172 722.847 237.42 722.805 231.394C722.763 225.368 722.509 207.482 722.24 191.647C721.971 175.811 721.637 153.032 721.498 141.025C721.359 129.018 721.06 115.493 720.834 110.968C720.608 106.444 720.462 84.9456 720.509 63.1941C720.556 41.4426 720.435 22.3437 720.239 20.7516C720.044 19.1602 719.743 15.6009 719.57 12.842C719.396 10.0838 719.131 6.75916 718.982 5.45375L718.708 3.08086L715.377 3.15428C713.545 3.19478 711.596 3.36435 711.047 3.53204C710.983 3.55132 710.922 3.56935 710.863 3.58678L710.859 3.58799C710.566 3.67387 710.323 3.74551 710.122 3.88054C709.11 4.55975 709.175 6.84279 709.569 20.6094V20.6099V20.6104V20.6109V20.6114V20.612V20.6127V20.6133V20.614V20.6148V20.6156V20.6165V20.6174ZM693.494 10.943C693.209 6.04349 693.497 5.3291 696.139 4.3926C696.913 4.11797 697.935 4.14456 698.411 4.45145C698.887 4.75835 699.839 4.83046 700.528 4.61216C702.125 4.10468 702.719 5.86758 703.086 12.1871C703.23 14.6612 703.542 19.8177 703.781 23.6459C704.019 27.4742 704.219 31.7454 704.224 33.1375C704.229 34.5296 704.352 44.0686 704.497 54.3353C705.126 98.7792 705.323 116.02 705.553 146.72C705.793 178.609 706.044 195.325 706.578 215.059C708.052 269.537 708.094 273.5 707.278 281.04C706.649 286.854 705.414 289.726 703.545 289.726C702.894 289.726 701.777 290.008 701.062 290.351C700.263 290.735 699.433 290.754 698.905 290.397C698.433 290.079 697.633 289.655 697.129 289.455C696.313 289.132 696.243 288.583 696.498 284.505C696.945 277.357 697.011 260.948 696.838 199.556C696.75 168.234 696.5 137.624 696.283 131.533C696.065 125.443 695.729 112.06 695.535 101.793C695.341 91.5264 695.114 81.9874 695.031 80.5953C694.947 79.2032 694.751 68.2404 694.594 56.2336C694.299 33.4665 693.936 18.5464 693.494 10.943ZM683.747 4.62038C683.599 4.80705 682.534 5.07598 681.378 5.21836C677.804 5.65877 677.794 5.69611 678.068 17.2227C678.202 22.8436 678.427 29.8629 678.567 32.8211C678.708 35.7793 678.927 48.7353 679.055 61.6122C679.534 110.104 679.812 130.219 680.013 131.021C680.541 133.118 680.828 156.589 681.102 219.805C681.265 257.391 681.478 288.309 681.575 288.51C681.671 288.712 682.976 289.249 684.474 289.704C687.005 290.473 687.361 290.432 689.477 289.136L691.755 287.74L691.514 268.01C691.381 257.158 691.057 243.724 690.794 238.155C690.288 227.434 690.227 220.529 689.984 146.403C689.899 120.65 689.731 97.0157 689.609 93.8835C689.381 88.0012 689.252 69.785 689.357 58.1319C689.47 45.6107 688.6 5.7562 688.204 5.30441C687.849 4.89817 683.995 4.30716 683.747 4.62038ZM662.771 7.39447C662.805 6.80726 664.509 6.1669 667.528 5.60499C668.914 5.34746 670.159 5.10574 670.297 5.06777C670.434 5.02981 670.831 5.22721 671.179 5.5069C671.936 6.11499 672.209 11.3006 672.518 30.9228C672.642 38.7533 672.906 48.5771 673.107 52.7534C673.307 56.9297 673.519 63.0517 673.579 66.3579C673.638 69.6642 673.823 78.9184 673.989 86.923C675.066 138.773 675.617 186.91 675.261 197.974C675.166 200.932 675.233 222.442 675.411 245.773C675.59 269.105 675.581 288.496 675.391 288.865C674.276 291.039 669.104 291.392 666.993 289.439C665.562 288.114 665.354 278.137 665.677 226.449C665.742 216.182 665.646 206.501 665.464 204.935C665.282 203.369 665.178 182.297 665.232 158.11C665.325 116.72 664.877 88.124 663.802 66.9907C663.19 54.9396 662.459 12.7015 662.771 7.39447ZM647.321 7.7893C646.589 8.90487 646.562 11.6366 647.153 24.9115C647.37 29.7838 647.527 39.7499 647.503 47.0584C647.309 106.532 647.096 124.397 646.488 132.138C646.031 137.945 645.983 140.78 646.335 141.055C646.646 141.298 646.984 146.843 647.187 155.005C647.663 174.172 647.627 255.145 647.138 267.263C646.912 272.831 646.746 277.956 646.768 278.653C646.911 283.218 647.469 288.264 647.906 288.935C648.443 289.763 652.375 289.893 655.047 289.171C656.197 288.86 656.679 288.251 657.118 286.557C657.535 284.944 657.618 272.38 657.427 240.054C657.281 215.692 657.172 190.207 657.182 183.421C657.193 176.634 657.247 148.017 657.3 119.827C657.391 72.0984 657.207 47.9563 656.56 23.0131L656.546 22.4839C656.237 10.5555 656.16 7.5747 655.012 7.08041C654.629 6.91575 654.128 7.02705 653.46 7.17542L653.371 7.19515C651.001 7.72035 650.266 7.72288 649.011 7.2116C648.346 6.94014 647.742 7.14704 647.321 7.7893ZM632.865 13.2153C633.133 11.6549 633.713 9.87555 634.152 9.2605C635.212 7.77855 636.927 7.84373 638.047 9.40857C638.544 10.1046 639.254 10.6741 639.624 10.6741C639.994 10.6741 640.297 11.1962 640.297 11.834C640.297 12.4725 640.422 13.1527 640.574 13.3457C641.573 14.6099 641.575 152.854 640.576 196.076C640.38 204.603 640.047 227.899 639.836 247.845C639.806 250.745 639.78 253.427 639.755 255.907L639.753 256.104C639.514 280.595 639.467 285.346 637.482 286.382C637.004 286.631 636.414 286.665 635.682 286.707L635.68 286.707C635.366 286.726 635.025 286.745 634.656 286.784C631.995 287.065 631.699 286.963 630.946 285.508C630.496 284.639 630.128 282.883 630.129 281.606C630.13 278.858 630.708 232.478 631.06 206.833C631.197 196.914 631.417 186.806 631.552 184.37C631.873 178.511 632.284 112.845 632.336 59.0811C632.36 33.6911 632.578 14.8896 632.865 13.2153ZM445.546 9.96414L444.046 10.3704L443.974 41.3698C443.935 58.4192 443.764 73.793 443.596 75.5331C443.428 77.2732 443.087 80.4055 442.84 82.4936C442.593 84.5817 442.369 94.8326 442.342 105.273C442.293 124.803 441.905 151.773 441.536 161.274C441.421 164.232 441.199 172.632 441.043 179.94C440.886 187.249 440.512 197.642 440.211 203.036C439.911 208.431 439.723 213.983 439.795 215.375C440.054 220.395 440.04 221.935 439.592 237.522C439.002 258.093 438.966 263.739 439.413 265.749C439.739 267.218 440.096 267.442 442.663 267.779C444.674 268.043 445.739 267.914 446.185 267.354C446.669 266.745 446.882 261.217 447.066 244.528C447.2 232.415 447.441 222.236 447.602 221.906C447.763 221.576 447.968 209.009 448.058 193.979C448.232 165.036 448.792 125.453 449.068 122.723C449.232 121.097 449.5 106.238 450.08 66.6743C450.248 55.1895 450.47 44.9386 450.572 43.8946C451.166 37.8592 451.39 27.0787 450.938 26.3548C450.645 25.8859 450.479 22.3924 450.545 18.0604C450.658 10.6608 450.645 10.5703 449.445 9.9926C448.126 9.35793 447.796 9.35541 445.546 9.96414ZM429.688 13.9797L431.277 12.058C432.642 10.4077 433.127 10.1881 434.707 10.5096C436.736 10.9228 437.936 12.3725 437.46 13.838C437.291 14.36 437.073 22.6177 436.976 32.1883L436.811 48.4468C436.737 55.7118 436.66 63.3292 436.6 69.2054C436.385 90.3115 436.175 136.304 436.286 137.861C436.323 138.383 436.113 143.366 435.818 148.935C435.523 154.503 435.165 169.594 435.021 182.471C434.73 208.561 434.458 218.324 433.841 224.867C433.369 229.867 433.461 266.1 433.946 266.715C434.119 266.934 434.036 267.645 433.761 268.295C433.36 269.243 432.694 269.473 430.404 269.455C428.832 269.443 427.041 269.077 426.423 268.643L425.3 267.854L425.514 247.279C425.631 235.963 425.849 226.006 425.999 225.153C426.148 224.299 426.381 217.119 426.516 209.197C426.651 201.275 426.878 192.305 427.02 189.265C427.163 186.224 427.401 175.661 427.55 165.79C427.699 155.919 428.041 147.324 428.309 146.69C428.577 146.056 428.806 141.746 428.818 137.112C428.83 132.477 429.119 125.554 429.46 121.725C429.858 117.26 429.985 110.342 429.813 102.426C429.666 95.6394 429.578 72.9628 429.617 52.0333L429.688 13.9797ZM418.508 14.8985L417.225 16.6506L417.333 43.8775C417.392 58.852 417.277 72.2427 417.077 73.6348C416.877 75.0269 416.651 84.993 416.575 95.7818C416.5 106.571 416.198 117.676 415.905 120.46C415.612 123.244 415.244 132.214 415.087 140.392C414.93 148.571 414.657 162.95 414.482 172.347C414.306 181.744 414.108 203.242 414.041 220.121C413.963 239.658 413.729 251.412 413.396 252.465C413.108 253.376 412.717 257.078 412.527 260.691C412.203 266.851 412.247 267.337 413.226 268.454C414.046 269.388 414.772 269.574 416.586 269.315C420.086 268.816 420.216 268.428 419.83 259.669C419.491 251.97 419.58 229.35 419.999 216.641C420.125 212.813 420.272 200.284 420.324 188.799C420.376 177.314 420.713 163.687 421.073 158.516C421.433 153.345 421.974 139.535 422.275 127.827C422.575 116.118 423.046 103.328 423.32 99.4044C423.651 94.67 423.651 91.8744 423.32 91.093C423.047 90.4463 422.913 87.5342 423.024 84.6229C423.134 81.7115 423.281 72.0687 423.35 63.1941C423.51 42.6512 424.088 24.2666 424.608 23.2049C424.83 22.7512 425.029 20.7213 425.05 18.6939C425.093 14.6302 424.881 14.3094 421.669 13.5754C420.033 13.202 419.626 13.3723 418.508 14.8985ZM404.406 18.6964C404.819 16.9581 405.412 16.0381 406.513 15.4256C407.356 14.9573 408.132 14.5504 408.237 14.5226C408.958 14.3277 411.796 17.3264 411.796 18.2819C411.796 18.9286 412.039 19.6487 412.337 19.8809C412.654 20.129 412.736 20.9952 412.537 21.9748C411.591 26.6161 410.908 36.1134 410.845 45.4765C410.806 51.2189 410.67 58.3376 410.543 61.2958C410.416 64.254 410.194 73.5082 410.051 81.8608C409.907 90.2134 409.551 106.302 409.261 117.612C408.97 128.923 408.651 144.584 408.553 152.415C408.454 160.245 408.187 179.039 407.96 194.178C407.45 228.134 407.587 258.606 408.268 262.627C408.927 266.515 408.344 268.479 406.257 269.4C404.182 270.315 403.687 270.295 402.553 269.246C401.677 268.435 401.602 266.858 401.346 244.093C400.969 210.478 400.984 204.508 401.489 185.002C402.156 159.215 402.39 137.537 402.523 88.8213C402.643 45.3936 403.226 23.6731 404.406 18.6964ZM391.951 18.0383C391.778 18.6084 391.847 21.8121 392.105 25.157C392.363 28.5164 392.563 60.4137 392.551 96.4146C392.534 150.99 392.414 162.053 391.818 164.437C391.247 166.72 391.118 172.269 391.164 192.4C391.196 206.213 391.03 219.454 390.794 221.823C390.264 227.154 389.797 256.921 390.155 262.561C390.299 264.838 390.724 267.23 391.098 267.878C391.999 269.437 394.575 269.406 395.827 267.821C396.692 266.727 396.748 266.195 396.321 263.128C395.662 258.394 396.108 209.134 396.992 189.115C397.137 185.809 397.382 176.84 397.535 169.183C397.994 146.24 398.325 135.293 398.72 129.951C398.926 127.167 399.047 117.913 398.989 109.386C398.801 81.5274 398.823 29.425 399.024 25.6777C399.19 22.586 399.071 21.8963 398.258 21.2547C397.729 20.8364 397.296 20.1555 397.296 19.7423C397.296 17.3055 392.624 15.8166 391.951 18.0383ZM381.203 39.8904C381.349 33.2185 381.431 32.7167 382.453 32.2295C383.157 31.8935 384.035 32.0244 384.921 32.5971C386.272 33.4709 386.297 33.5943 386.353 39.6398C386.384 43.0239 386.49 57.2144 386.589 71.174C386.693 85.9897 386.976 97.2479 387.269 98.2211C387.605 99.3411 387.599 101.394 387.249 104.479C386.957 107.053 386.636 125.611 386.517 146.72C386.148 212.393 385.838 251.29 385.642 256.342C385.538 259.037 385.598 262.311 385.776 263.619C385.954 264.927 385.935 266.424 385.734 266.946C385.534 267.468 385.26 268.351 385.127 268.909C384.957 269.622 384.03 270.033 382 270.298C380.413 270.506 378.956 270.552 378.763 270.401C378.099 269.881 377.706 264.366 378.271 263.504C378.94 262.484 379.065 229.773 378.459 214.426C377.988 202.519 377.99 195.221 378.469 168.55C378.878 145.826 379.265 131.903 379.561 129.319C379.743 127.726 379.932 122.254 380.487 102.534C380.522 101.29 380.922 100.08 381.464 99.5778C382.327 98.7773 382.363 97.7643 382.069 82.3848C381.897 73.3956 381.596 61.764 381.401 56.5361C381.206 51.3075 381.117 43.8174 381.203 39.8904ZM92.3072 284.324C92.2727 284.911 90.5687 285.552 87.5496 286.114C86.1646 286.371 84.9192 286.613 84.7816 286.651C84.6441 286.689 84.2466 286.491 83.8986 286.212C83.1417 285.604 82.8686 280.418 82.5597 260.796C82.4362 252.965 82.1717 243.141 81.9712 238.965C81.7711 234.789 81.5586 228.667 81.4991 225.361C81.4396 222.054 81.2552 212.8 81.0886 204.796C80.0121 152.946 79.4606 104.808 79.8171 93.7443C79.9126 90.7861 79.8447 69.2763 79.6667 45.9454C79.4882 22.6139 79.4976 3.22267 79.6871 2.85313C80.8026 0.679577 85.9741 0.326459 88.0851 2.27983C89.5166 3.60484 89.7246 13.5811 89.4006 65.2696C89.3361 75.5363 89.4321 85.2177 89.6141 86.7838C89.7961 88.3499 89.9001 109.421 89.8462 133.609C89.7532 174.998 90.2016 203.595 91.2756 224.728C91.8876 236.779 92.6186 279.017 92.3072 284.324ZM61.5841 280.776C61.8691 285.675 61.5807 286.389 58.9387 287.326C58.1647 287.601 57.1426 287.574 56.6671 287.267C56.1911 286.96 55.2386 286.888 54.5496 287.106C52.9536 287.614 52.3586 285.851 51.9916 279.532C51.8481 277.057 51.5356 271.901 51.2971 268.073C51.0586 264.244 50.8592 259.973 50.8542 258.581C50.8491 257.189 50.7262 247.65 50.5807 237.383C49.9517 192.939 49.7547 175.699 49.5247 144.999C49.2852 113.11 49.0346 96.3931 48.5006 76.6595C47.0266 22.1817 46.9846 18.2187 47.8001 10.6786C48.4291 4.8647 49.6636 1.99257 51.5331 1.99257C52.1841 1.99257 53.3011 1.71098 54.0157 1.36738C54.8147 0.983288 55.6451 0.964947 56.1732 1.32121C56.6451 1.63951 57.4447 2.06343 57.9492 2.26338C58.7652 2.58671 58.8351 3.13597 58.5796 7.21354C58.1327 14.3613 58.0666 30.7709 58.2396 92.1624C58.3277 123.485 58.5776 154.095 58.7951 160.185C59.0126 166.276 59.3491 179.659 59.5431 189.925C59.7371 200.192 59.9641 209.731 60.0476 211.123C60.1311 212.515 60.3271 223.478 60.4836 235.485C60.7796 258.252 61.1421 273.172 61.5841 280.776ZM45.509 271.101C45.9031 284.875 45.9684 287.159 44.9566 287.838C44.7554 287.973 44.5118 288.045 44.2197 288.131C44.1591 288.148 44.0964 288.167 44.0316 288.187C43.4817 288.354 41.5326 288.524 39.7006 288.564L36.3697 288.638L36.0966 286.265C35.9467 284.959 35.6821 281.635 35.5086 278.877C35.3351 276.118 35.0337 272.558 34.8386 270.967C34.6432 269.375 34.5222 250.276 34.5691 228.524C34.6161 206.773 34.4701 185.275 34.2441 180.75C34.0181 176.226 33.7191 162.7 33.5801 150.694C33.4411 138.687 33.1076 115.907 32.8381 100.072C32.5691 84.2369 32.3146 66.3504 32.2731 60.3245C32.2311 54.2986 31.9931 47.5464 31.7441 45.319C31.4946 43.0916 31.1956 38.1984 31.0796 34.4448C30.9636 30.6912 30.7046 23.7536 30.5036 19.028C30.0666 8.75499 30.3096 6.85859 32.4731 3.66121C33.9446 1.48573 34.3006 1.26426 35.7041 1.65468C36.5716 1.89576 37.2816 2.36653 37.2816 2.70128C37.2816 3.03602 37.7881 4.17564 38.4066 5.23491C39.5201 7.14082 39.5326 7.39323 39.6107 29.7294C39.7801 78.2319 40.5036 108.933 42.0356 132.66C42.1476 134.4 42.2826 146.359 42.3356 159.236C42.3881 172.113 42.6141 185.638 42.8381 189.293C43.0621 192.947 43.3516 205.333 43.4817 216.818C43.7241 238.235 44.0301 247.506 44.8592 258.581C45.1197 262.061 45.3892 266.902 45.4586 269.338L45.509 271.101ZM71.3316 287.098C71.4791 286.912 72.5446 286.643 73.7001 286.5C77.2736 286.06 77.2841 286.022 77.0101 274.496C76.8766 268.875 76.6516 261.856 76.5106 258.897C76.3697 255.939 76.1506 242.983 76.0231 230.106C75.5441 181.615 75.2661 161.5 75.0646 160.697C74.5376 158.601 74.2501 135.13 73.9756 71.9137C73.8126 34.3271 73.6006 3.40934 73.5036 3.20811C73.4071 3.00627 72.1021 2.46965 70.6036 2.01469C68.0726 1.24586 67.7171 1.28639 65.6011 2.58293L63.3231 3.97819L63.5641 23.7086C63.6967 34.5606 64.0207 47.995 64.2837 53.5634C64.7897 64.2844 64.8506 71.1892 65.0941 145.315C65.1786 171.069 65.3472 194.703 65.4687 197.835C65.6971 203.717 65.8256 221.934 65.7206 233.587C65.6081 246.108 66.4781 285.962 66.8737 286.414C67.2296 286.82 71.0836 287.411 71.3316 287.098ZM107.757 283.929C108.489 282.814 108.516 280.082 107.925 266.807C107.709 261.935 107.551 251.969 107.575 244.66C107.769 185.187 107.982 167.322 108.59 159.581C109.047 153.773 109.095 150.939 108.743 150.663C108.432 150.42 108.094 144.876 107.891 136.714C107.415 117.547 107.451 36.5735 107.941 24.4559C108.166 18.8875 108.332 13.7621 108.31 13.0661C108.167 8.50062 107.609 3.45488 107.173 2.78352C106.635 1.95585 102.703 1.82551 100.032 2.5475C98.8811 2.8582 98.3986 3.46754 97.9601 5.16209C97.5431 6.7744 97.4597 19.3387 97.6516 51.6651C97.7966 76.0267 97.9062 101.512 97.8957 108.298C97.8847 115.084 97.8316 143.702 97.7781 171.891C97.6866 219.62 97.8711 243.762 98.5186 268.705L98.5324 269.235C98.8413 281.163 98.9185 284.144 100.066 284.638C100.449 284.803 100.95 284.692 101.618 284.543L101.707 284.523C104.077 283.998 104.812 283.996 106.067 284.507C106.732 284.778 107.336 284.572 107.757 283.929ZM122.213 278.503C121.945 280.064 121.365 281.843 120.926 282.458C119.866 283.94 118.151 283.875 117.032 282.31C116.534 281.614 115.824 281.044 115.454 281.044C115.084 281.044 114.782 280.522 114.782 279.885C114.782 279.246 114.657 278.566 114.504 278.373C113.505 277.109 113.503 138.865 114.502 95.6426C114.699 87.116 115.032 63.8199 115.242 43.8731C115.273 40.9302 115.299 38.2115 115.324 35.6998L115.325 35.6237L115.325 35.6157C115.564 11.1241 115.611 6.37269 117.596 5.33685C118.074 5.08752 118.664 5.05347 119.396 5.01121C119.711 4.99302 120.053 4.97332 120.423 4.93431C123.083 4.654 123.379 4.75523 124.132 6.21061C124.582 7.08003 124.95 8.83595 124.949 10.1123C124.948 12.8604 124.37 59.2406 124.018 84.8855C123.881 94.8042 123.661 104.913 123.527 107.349C123.205 113.208 122.794 178.873 122.742 232.637C122.718 258.027 122.501 276.829 122.213 278.503ZM309.532 281.754L311.032 281.348L311.104 250.349C311.143 233.299 311.314 217.926 311.482 216.185C311.65 214.445 311.991 211.313 312.238 209.225C312.485 207.137 312.709 196.886 312.736 186.445C312.785 166.915 313.173 139.945 313.542 130.445C313.657 127.487 313.879 119.087 314.035 111.778C314.192 104.47 314.566 94.0765 314.867 88.6821C315.167 83.2878 315.355 77.7352 315.283 76.3431C315.024 71.3233 315.038 69.7838 315.486 54.1961C316.076 33.626 316.112 27.9798 315.665 25.9695C315.339 24.5002 314.982 24.2769 312.415 23.9396C310.404 23.6757 309.339 23.8042 308.893 24.3648C308.409 24.9736 308.196 30.5014 308.012 47.1907C307.878 59.3032 307.637 69.4826 307.476 69.8129C307.315 70.1426 307.11 82.7094 307.02 97.7396C306.846 126.683 306.286 166.266 306.01 168.996C305.846 170.622 305.578 185.48 304.998 225.044C304.83 236.529 304.608 246.78 304.506 247.824C303.912 253.859 303.688 264.64 304.14 265.364C304.433 265.833 304.599 269.326 304.533 273.658C304.42 281.058 304.433 281.148 305.633 281.726C306.952 282.361 307.282 282.363 309.532 281.754ZM325.39 277.739L323.801 279.661C322.436 281.311 321.951 281.53 320.371 281.209C318.342 280.796 317.142 279.346 317.618 277.881C317.787 277.359 318.005 269.101 318.102 259.53L318.267 243.272C318.341 236.007 318.418 228.389 318.478 222.513C318.693 201.407 318.903 155.415 318.792 153.858C318.755 153.335 318.965 148.352 319.26 142.784C319.555 137.216 319.913 122.124 320.057 109.247C320.348 83.1574 320.62 73.3944 321.237 66.8515C321.709 61.852 321.617 25.619 321.132 25.0039C320.959 24.785 321.042 24.0737 321.317 23.4239C321.718 22.476 322.384 22.2456 324.674 22.2633C326.246 22.276 328.037 22.6411 328.655 23.0752L329.778 23.8649L329.564 44.4394C329.447 55.7559 329.229 65.7125 329.079 66.5655C328.93 67.4191 328.697 74.5992 328.562 82.5215C328.427 90.4438 328.2 99.4133 328.058 102.454C327.915 105.494 327.677 116.058 327.528 125.928C327.379 135.8 327.037 144.394 326.769 145.028C326.501 145.663 326.272 149.973 326.26 154.607C326.248 159.241 325.959 166.165 325.618 169.993C325.22 174.459 325.093 181.376 325.265 189.293C325.412 196.079 325.5 218.756 325.461 239.685L325.39 277.739ZM336.57 276.82L337.853 275.068L337.745 247.841C337.686 232.867 337.801 219.476 338.001 218.084C338.201 216.692 338.427 206.726 338.503 195.937C338.578 185.148 338.88 174.043 339.173 171.259C339.466 168.475 339.834 159.505 339.991 151.326C340.148 143.148 340.421 128.768 340.596 119.372C340.772 109.975 340.97 88.4765 341.037 71.5973C341.115 52.0605 341.349 40.3068 341.682 39.2533C341.97 38.3427 342.361 34.641 342.551 31.0273C342.875 24.8672 342.831 24.3813 341.852 23.2644C341.032 22.3305 340.306 22.1444 338.492 22.4032C334.992 22.9025 334.862 23.2904 335.248 32.0492C335.587 39.7481 335.498 62.3684 335.079 75.0776C334.953 78.9058 334.806 91.4347 334.754 102.919C334.702 114.404 334.365 128.032 334.005 133.203C333.645 138.374 333.104 152.184 332.803 163.892C332.503 175.6 332.032 188.39 331.758 192.314C331.427 197.049 331.427 199.844 331.758 200.626C332.031 201.272 332.165 204.184 332.054 207.096C331.944 210.007 331.797 219.65 331.728 228.524C331.568 249.067 330.99 267.452 330.47 268.514C330.248 268.967 330.049 270.997 330.028 273.025C329.985 277.088 330.197 277.409 333.409 278.143C335.045 278.517 335.452 278.346 336.57 276.82ZM350.672 273.022C350.259 274.76 349.666 275.68 348.565 276.293C347.722 276.761 346.946 277.168 346.841 277.196C346.12 277.391 343.282 274.392 343.282 273.437C343.282 272.79 343.039 272.07 342.741 271.838C342.424 271.59 342.342 270.723 342.541 269.744C343.487 265.102 344.17 255.605 344.233 246.242C344.272 240.5 344.408 233.381 344.535 230.423C344.662 227.465 344.884 218.21 345.027 209.858C345.171 201.505 345.527 185.417 345.817 174.106C346.108 162.795 346.427 147.134 346.525 139.304C346.624 131.473 346.891 112.68 347.118 97.5409C347.628 63.5846 347.491 33.1122 346.81 29.0916C346.151 25.2032 346.734 23.2397 348.821 22.319C350.896 21.4034 351.391 21.4237 352.525 22.4729C353.401 23.2834 353.476 24.8609 353.732 47.6255C354.109 81.2408 354.094 87.2103 353.589 106.716C352.922 132.503 352.688 154.182 352.555 202.897C352.435 246.325 351.852 268.045 350.672 273.022ZM363.127 273.68C363.3 273.11 363.231 269.906 362.973 266.562C362.715 263.202 362.515 231.305 362.527 195.304C362.544 140.729 362.664 129.665 363.26 127.281C363.831 124.999 363.96 119.45 363.914 99.319C363.882 85.5056 364.048 72.2649 364.284 69.8952C364.814 64.5647 365.281 34.7973 364.923 29.1574C364.779 26.8807 364.354 24.4882 363.98 23.8409C363.079 22.2818 360.503 22.3127 359.251 23.8972C358.386 24.9913 358.33 25.524 358.757 28.5904C359.416 33.3242 358.97 82.5848 358.086 102.603C357.941 105.909 357.696 114.879 357.543 122.535C357.084 145.479 356.753 156.426 356.358 161.767C356.152 164.551 356.031 173.806 356.089 182.332C356.277 210.191 356.255 262.294 356.054 266.041C355.888 269.133 356.007 269.822 356.82 270.464C357.349 270.882 357.782 271.563 357.782 271.976C357.782 274.413 362.454 275.902 363.127 273.68ZM373.875 251.828C373.729 258.5 373.647 259.002 372.625 259.489C371.921 259.825 371.043 259.694 370.157 259.121C368.806 258.248 368.781 258.124 368.725 252.079C368.694 248.695 368.588 234.504 368.489 220.545C368.385 205.729 368.102 194.471 367.809 193.497C367.473 192.377 367.479 190.324 367.829 187.239C368.121 184.666 368.442 166.107 368.561 144.999C368.93 79.3253 369.24 40.4289 369.436 35.3762C369.54 32.6819 369.48 29.4073 369.302 28.0994C369.124 26.7915 369.143 25.2944 369.344 24.7723C369.544 24.2503 369.818 23.3675 369.951 22.8101C370.121 22.0969 371.048 21.6857 373.078 21.4205C374.665 21.213 376.122 21.1668 376.315 21.318C376.979 21.8375 377.372 27.3521 376.807 28.2146C376.138 29.2346 376.013 61.9457 376.619 77.2923C377.09 89.1991 377.088 96.4975 376.609 123.168C376.2 145.892 375.813 159.816 375.517 162.4C375.335 163.993 375.146 169.464 374.591 189.184C374.556 190.429 374.156 191.638 373.614 192.141C372.751 192.941 372.715 193.954 373.009 209.334C373.181 218.323 373.482 229.955 373.677 235.182C373.872 240.411 373.961 247.901 373.875 251.828ZM613.944 7.79161C613.223 8.90859 613.196 11.6437 613.778 24.9354C613.992 29.8138 614.147 39.7925 614.123 47.1103C613.932 106.659 613.722 124.546 613.123 132.297C612.673 138.112 612.625 140.95 612.972 141.226C613.279 141.469 613.612 147.02 613.812 155.193C614.281 174.384 614.245 255.459 613.763 267.592C613.541 273.168 613.378 278.299 613.399 278.996C613.54 283.568 614.09 288.62 614.52 289.292C615.05 290.121 618.925 290.251 621.558 289.528C622.692 289.217 623.167 288.607 623.599 286.91C624.01 285.296 624.093 272.716 623.903 240.349C623.76 215.956 623.653 190.439 623.663 183.644C623.674 176.849 623.726 148.196 623.779 119.971C623.869 72.1818 623.687 48.0093 623.049 23.0347L623.035 22.5031C622.73 10.5372 622.655 7.56482 621.517 7.07889C621.141 6.91829 620.649 7.02929 619.994 7.17697L619.906 7.19671C617.571 7.72257 616.847 7.72511 615.61 7.21318C614.954 6.94138 614.359 7.14854 613.944 7.79161ZM600.965 9.26466C600.532 9.88049 599.961 11.6621 599.697 13.2245C599.413 14.9009 599.199 33.7261 599.175 59.1481C599.124 112.98 598.719 178.728 598.402 184.595C598.27 187.034 598.053 197.155 597.918 207.086C597.571 232.764 597.001 279.202 597 281.954C596.999 283.232 597.362 284.99 597.805 285.86C598.548 287.318 598.839 287.419 601.461 287.138C601.826 287.099 602.162 287.08 602.473 287.061C603.188 287.019 603.766 286.986 604.234 286.742C606.203 285.719 606.249 280.994 606.486 256.42C606.51 253.881 606.536 251.131 606.567 248.15C606.774 228.178 607.103 204.853 607.297 196.316C608.281 153.039 608.279 14.6208 607.294 13.355C607.144 13.1617 607.021 12.4807 607.021 11.8414C607.021 11.2028 606.723 10.6801 606.358 10.6801C605.993 10.6801 605.294 10.1098 604.803 9.41292C603.7 7.84611 602.01 7.78084 600.965 9.26466ZM16.7782 20.6541C16.1963 7.36247 16.2229 4.62734 16.9438 3.51036C17.3587 2.86729 17.9545 2.66013 18.6099 2.93193C19.8468 3.44386 20.5707 3.44132 22.9064 2.91546L22.9941 2.89571C23.6487 2.74804 24.1407 2.63704 24.5167 2.79764C25.6545 3.28359 25.7303 6.25615 26.0354 18.2233L26.0489 18.7534C26.6871 43.728 26.8689 67.9006 26.7787 115.689C26.726 143.915 26.6737 172.568 26.6629 179.363C26.6525 186.158 26.7605 211.675 26.9034 236.067C27.0926 268.435 27.0103 281.015 26.5993 282.629C26.1672 284.326 25.6916 284.936 24.5577 285.247C21.9248 285.97 18.0496 285.839 17.5199 285.011C17.0902 284.338 16.5402 279.286 16.3993 274.715C16.3776 274.018 16.5412 268.886 16.7629 263.311C17.2454 251.178 17.2809 170.103 16.8117 150.911C16.6122 142.739 16.2786 137.188 15.972 136.944C15.6251 136.669 15.6729 133.83 16.1228 128.016C16.722 120.265 16.932 102.377 17.1232 42.829C17.1468 35.5113 16.9916 25.5326 16.7782 20.6541ZM2.69702 8.94322C2.96115 7.38084 3.53227 5.59924 3.96542 4.98341C5.00962 3.49959 6.70037 3.56486 7.80321 5.13167C8.29352 5.8286 8.99329 6.39881 9.35795 6.39881C9.7226 6.39881 10.0207 6.92151 10.0207 7.56015C10.0207 8.19942 10.1439 8.88049 10.2942 9.07373C11.2793 10.3396 11.2808 148.758 10.2967 192.034C10.1025 200.572 9.77434 223.897 9.56737 243.869C9.53651 246.849 9.51002 249.599 9.48557 252.137L9.48556 252.137C9.24882 276.713 9.2033 281.437 7.23421 282.461C6.7656 282.704 6.18805 282.738 5.47306 282.78H5.4728C5.16229 282.798 4.82586 282.818 4.46118 282.857C1.83909 283.138 1.54786 283.036 0.805237 281.579C0.361734 280.709 -0.000983558 278.951 2.0037e-06 277.673C0.00148035 274.921 0.570675 228.482 0.918086 202.805C1.05261 192.874 1.26993 182.753 1.40199 180.313C1.71885 174.447 2.1239 108.699 2.17515 54.8668C2.1993 29.4449 2.41317 10.6196 2.69702 8.94322ZM580.944 7.79161C580.223 8.90859 580.196 11.6437 580.778 24.9354C580.992 29.8138 581.147 39.7925 581.123 47.1103C580.932 106.659 580.722 124.546 580.123 132.297C579.673 138.112 579.625 140.95 579.972 141.226C580.279 141.469 580.612 147.02 580.812 155.193C581.281 174.384 581.245 255.459 580.763 267.592C580.541 273.168 580.378 278.299 580.399 278.996C580.54 283.568 581.09 288.62 581.52 289.292C582.05 290.121 585.925 290.251 588.558 289.528C589.692 289.217 590.167 288.607 590.599 286.91C591.01 285.296 591.093 272.716 590.903 240.349C590.76 215.956 590.653 190.439 590.663 183.644C590.674 176.849 590.726 148.196 590.779 119.971C590.869 72.1818 590.687 48.0093 590.049 23.0347L590.035 22.5031C589.73 10.5372 589.655 7.56482 588.517 7.07889C588.141 6.91829 587.649 7.02929 586.994 7.17697L586.906 7.19671C584.571 7.72257 583.847 7.72511 582.61 7.21318C581.954 6.94138 581.359 7.14854 580.944 7.79161ZM567.965 9.26466C567.532 9.88049 566.961 11.6621 566.697 13.2245C566.413 14.9009 566.199 33.7261 566.175 59.1481C566.124 112.98 565.719 178.728 565.402 184.595C565.27 187.034 565.053 197.155 564.918 207.086C564.571 232.764 564.001 279.202 564 281.954C563.999 283.232 564.362 284.99 564.805 285.86C565.548 287.318 565.839 287.419 568.461 287.138C568.826 287.099 569.162 287.08 569.473 287.061C570.188 287.019 570.766 286.986 571.234 286.742C573.203 285.719 573.249 280.994 573.486 256.42C573.51 253.881 573.536 251.131 573.567 248.15C573.774 228.178 574.103 204.853 574.297 196.316C575.281 153.039 575.279 14.6208 574.294 13.355C574.144 13.1617 574.021 12.4807 574.021 11.8414C574.021 11.2028 573.723 10.6801 573.358 10.6801C572.993 10.6801 572.294 10.1098 571.803 9.41292C570.7 7.84611 569.01 7.78084 567.965 9.26466ZM174.3 266.783C174.882 280.075 174.855 282.81 174.134 283.927C173.719 284.57 173.124 284.777 172.468 284.506C171.231 283.994 170.507 283.996 168.172 284.522L168.084 284.542C167.429 284.689 166.937 284.8 166.561 284.64C165.424 284.154 165.348 281.181 165.043 269.214L165.029 268.684C164.391 243.709 164.209 219.537 164.299 171.748C164.352 143.523 164.404 114.869 164.415 108.074C164.426 101.279 164.318 75.7624 164.175 51.3701C163.985 19.0029 164.068 6.42277 164.479 4.80845C164.911 3.11174 165.386 2.50166 166.52 2.19056C169.153 1.46766 173.029 1.59816 173.558 2.42689C173.988 3.0991 174.538 8.15117 174.679 12.7224C174.701 13.4193 174.537 18.5512 174.315 24.1266C173.833 36.2594 173.797 117.335 174.266 136.526C174.466 144.698 174.8 150.25 175.106 150.493C175.453 150.769 175.405 153.607 174.955 159.422C174.356 167.172 174.146 185.06 173.955 244.609C173.931 251.926 174.087 261.905 174.3 266.783ZM188.381 278.494C188.117 280.057 187.546 281.838 187.113 282.454C186.068 283.938 184.378 283.873 183.275 282.306C182.785 281.609 182.085 281.039 181.72 281.039C181.356 281.039 181.057 280.516 181.057 279.877C181.057 279.238 180.934 278.557 180.784 278.364C179.799 277.098 179.797 138.68 180.781 95.4031C180.976 86.8657 181.304 63.5403 181.511 43.5683C181.542 40.5886 181.568 37.8384 181.593 35.3001C181.829 10.7248 181.875 6.00003 183.844 4.97673C184.313 4.73317 184.89 4.6993 185.605 4.65736C185.916 4.63916 186.252 4.61943 186.617 4.58036C189.239 4.29969 189.53 4.40107 190.273 5.85829C190.716 6.72883 191.079 8.48695 191.078 9.76484C191.077 12.5164 190.507 58.9552 190.16 84.6324C190.026 94.5636 189.808 104.685 189.676 107.124C189.359 112.99 188.954 178.739 188.903 232.571C188.879 257.993 188.665 276.818 188.381 278.494ZM141.056 283.927C141.777 282.81 141.804 280.075 141.222 266.783C141.008 261.905 140.853 251.926 140.877 244.609C141.068 185.06 141.278 167.172 141.877 159.422C142.327 153.607 142.375 150.769 142.028 150.493C141.721 150.25 141.388 144.698 141.188 136.526C140.719 117.335 140.755 36.2594 141.237 24.1266C141.459 18.5512 141.622 13.4193 141.601 12.7224C141.46 8.15117 140.91 3.0991 140.48 2.42689C139.95 1.59816 136.075 1.46766 133.442 2.19056C132.308 2.50166 131.833 3.11174 131.401 4.80845C130.99 6.42277 130.907 19.0029 131.097 51.3701C131.24 75.7624 131.347 101.279 131.337 108.074C131.326 114.869 131.274 143.523 131.221 171.748C131.131 219.537 131.313 243.709 131.951 268.684L131.965 269.214C132.27 281.181 132.345 284.154 133.483 284.64C133.859 284.8 134.351 284.689 135.006 284.542L135.094 284.522C137.429 283.996 138.153 283.994 139.39 284.506C140.046 284.777 140.641 284.57 141.056 283.927ZM154.035 282.454C154.468 281.838 155.039 280.057 155.303 278.494C155.587 276.818 155.801 257.993 155.825 232.571C155.876 178.739 156.281 112.99 156.598 107.124C156.73 104.685 156.947 94.5636 157.082 84.6324C157.429 58.9552 157.999 12.5164 158 9.76484C158.001 8.48695 157.638 6.72883 157.195 5.85829C156.452 4.40107 156.161 4.29969 153.539 4.58036C153.174 4.61943 152.838 4.63916 152.527 4.65736C151.812 4.6993 151.234 4.73317 150.766 4.97673C148.797 6.00003 148.751 10.7248 148.514 35.3001C148.49 37.8384 148.463 40.5886 148.433 43.5683C148.226 63.5403 147.897 86.8657 147.703 95.4031C146.719 138.68 146.721 277.098 147.706 278.364C147.856 278.557 147.979 279.238 147.979 279.877C147.979 280.516 148.277 281.039 148.642 281.039C149.007 281.039 149.706 281.609 150.197 282.306C151.3 283.873 152.99 283.938 154.035 282.454ZM548.778 24.9354C548.196 11.6437 548.223 8.90859 548.944 7.79161C549.359 7.14854 549.954 6.94138 550.61 7.21318C551.847 7.72511 552.571 7.72257 554.906 7.19671L554.994 7.17697C555.649 7.02929 556.141 6.91829 556.517 7.07889C557.655 7.56482 557.73 10.5372 558.035 22.5031L558.049 23.0347C558.687 48.0093 558.869 72.1818 558.779 119.971C558.726 148.196 558.674 176.849 558.663 183.644C558.653 190.439 558.76 215.956 558.903 240.349C559.093 272.716 559.01 285.296 558.599 286.91C558.167 288.607 557.692 289.217 556.558 289.528C553.925 290.251 550.05 290.121 549.52 289.292C549.09 288.62 548.54 283.568 548.399 278.996C548.378 278.299 548.541 273.168 548.763 267.592C549.245 255.459 549.281 174.384 548.812 155.193C548.612 147.02 548.279 141.469 547.972 141.226C547.625 140.95 547.673 138.112 548.123 132.297C548.722 124.546 548.932 106.659 549.123 47.1103C549.147 39.7925 548.992 29.8138 548.778 24.9354ZM534.697 13.2245C534.961 11.6621 535.532 9.88049 535.965 9.26466C537.01 7.78084 538.7 7.84611 539.803 9.41292C540.294 10.1098 540.993 10.6801 541.358 10.6801C541.723 10.6801 542.021 11.2028 542.021 11.8414C542.021 12.4807 542.144 13.1617 542.294 13.355C543.279 14.6208 543.281 153.039 542.297 196.316C542.103 204.853 541.774 228.178 541.567 248.15C541.536 251.131 541.51 253.881 541.486 256.42C541.249 280.994 541.203 285.719 539.234 286.742C538.766 286.986 538.188 287.019 537.473 287.061C537.162 287.08 536.826 287.099 536.461 287.138C533.839 287.419 533.548 287.318 532.805 285.86C532.362 284.99 531.999 283.232 532 281.954C532.001 279.202 532.571 232.764 532.918 207.086C533.053 197.155 533.27 187.034 533.402 184.595C533.719 178.728 534.124 112.98 534.175 59.1481C534.199 33.7261 534.413 14.9009 534.697 13.2245ZM206.134 283.927C206.855 282.81 206.882 280.075 206.3 266.783C206.087 261.905 205.931 251.926 205.955 244.609C206.146 185.06 206.356 167.172 206.955 159.422C207.405 153.607 207.453 150.769 207.106 150.493C206.8 150.25 206.466 144.698 206.266 136.526C205.797 117.335 205.833 36.2594 206.315 24.1266C206.537 18.5512 206.701 13.4193 206.679 12.7224C206.538 8.15117 205.988 3.0991 205.558 2.42689C205.029 1.59816 201.153 1.46766 198.52 2.19056C197.386 2.50166 196.911 3.11174 196.479 4.80845C196.068 6.42277 195.985 19.0029 196.175 51.3701C196.318 75.7624 196.426 101.279 196.415 108.074C196.404 114.869 196.352 143.523 196.299 171.748C196.209 219.537 196.391 243.709 197.029 268.684L197.043 269.214C197.348 281.181 197.424 284.154 198.561 284.64C198.937 284.8 199.429 284.689 200.084 284.542L200.172 284.522C202.507 283.996 203.231 283.994 204.468 284.506C205.124 284.777 205.719 284.57 206.134 283.927ZM219.113 282.454C219.546 281.838 220.117 280.057 220.381 278.494C220.665 276.818 220.879 257.993 220.903 232.571C220.954 178.739 221.359 112.99 221.676 107.124C221.808 104.685 222.026 94.5636 222.16 84.6324C222.507 58.9552 223.077 12.5164 223.078 9.76484C223.079 8.48695 222.716 6.72883 222.273 5.85829C221.53 4.40107 221.239 4.29969 218.617 4.58036C218.252 4.61943 217.916 4.63916 217.605 4.65736C216.89 4.6993 216.313 4.73317 215.844 4.97673C213.875 6.00003 213.829 10.7248 213.593 35.3001C213.568 37.8384 213.542 40.5886 213.511 43.5683C213.304 63.5403 212.976 86.8657 212.781 95.4031C211.797 138.68 211.799 277.098 212.784 278.364C212.934 278.557 213.057 279.238 213.057 279.877C213.057 280.516 213.356 281.039 213.72 281.039C214.085 281.039 214.785 281.609 215.275 282.306C216.378 283.873 218.068 283.938 219.113 282.454ZM520.535 30.6045C519.997 18.2991 520.021 15.767 520.689 14.7329C521.073 14.1375 521.625 13.9457 522.231 14.1974C523.377 14.6713 524.047 14.669 526.21 14.1821L526.291 14.1638C526.897 14.0271 527.353 13.9243 527.701 14.0731C528.754 14.523 528.824 17.2752 529.107 28.3546L529.119 28.8448C529.71 51.9662 529.879 74.345 529.795 118.588C529.746 144.719 529.698 171.246 529.688 177.536C529.678 183.827 529.778 207.451 529.911 230.033C530.086 259.998 530.01 271.645 529.629 273.14C529.229 274.71 528.789 275.275 527.739 275.563C525.301 276.232 521.713 276.112 521.222 275.344C520.824 274.722 520.315 270.045 520.185 265.813C520.164 265.168 520.316 260.417 520.521 255.255C520.968 244.022 521.001 168.963 520.566 151.196C520.382 143.63 520.073 138.491 519.789 138.265C519.468 138.01 519.512 135.383 519.929 129.999C520.483 122.824 520.678 106.264 520.855 51.1339C520.877 44.3592 520.733 35.1209 520.535 30.6045ZM507.497 19.7626C507.742 18.3161 508.271 16.6667 508.672 16.0966C509.639 14.7229 511.204 14.7833 512.225 16.2339C512.679 16.8791 513.327 17.407 513.665 17.407C514.002 17.407 514.278 17.8909 514.278 18.4821C514.278 19.074 514.393 19.7045 514.532 19.8834C515.444 21.0553 515.445 149.202 514.534 189.268C514.354 197.171 514.05 218.766 513.859 237.256C513.83 240.014 513.806 242.56 513.783 244.91C513.564 267.662 513.522 272.036 511.698 272.984C511.265 273.209 510.73 273.241 510.068 273.279H510.067C509.78 273.296 509.468 273.315 509.131 273.351C506.703 273.611 506.433 273.517 505.746 272.168C505.335 271.362 504.999 269.734 505 268.551C505.001 266.004 505.528 223.011 505.85 199.239C505.975 190.045 506.176 180.674 506.298 178.416C506.592 172.985 506.967 112.116 507.014 62.2784C507.036 38.7429 507.234 21.3146 507.497 19.7626ZM234.389 276.986C235.057 275.952 235.082 273.42 234.543 261.114C234.345 256.598 234.201 247.36 234.223 240.585C234.4 185.455 234.595 168.895 235.15 161.72C235.566 156.336 235.61 153.709 235.289 153.453C235.005 153.228 234.696 148.089 234.512 140.523C234.077 122.755 234.11 47.6964 234.557 36.4638C234.762 31.3022 234.914 26.5511 234.894 25.9059C234.763 21.6739 234.254 16.9967 233.856 16.3743C233.366 15.6071 229.777 15.4863 227.339 16.1556C226.29 16.4436 225.849 17.0084 225.449 18.5792C225.069 20.0737 224.992 31.7204 225.168 61.6857C225.3 84.268 225.4 107.892 225.39 114.182C225.38 120.473 225.332 147 225.283 173.131C225.2 217.374 225.368 239.753 225.959 262.874L225.971 263.365C226.254 274.444 226.324 277.196 227.377 277.646C227.726 277.794 228.181 277.692 228.787 277.555L228.868 277.537C231.031 277.05 231.701 277.047 232.847 277.521C233.454 277.773 234.005 277.581 234.389 276.986ZM246.406 275.622C246.808 275.052 247.336 273.403 247.581 271.956C247.844 270.404 248.042 252.976 248.064 229.44C248.112 179.603 248.487 118.733 248.78 113.303C248.902 111.044 249.103 101.674 249.228 92.4798C249.55 68.7079 250.077 25.7152 250.078 23.1678C250.079 21.9847 249.743 20.357 249.333 19.5511C248.645 18.202 248.375 18.1082 245.947 18.368C245.61 18.4042 245.298 18.4225 245.011 18.4393C244.349 18.4781 243.814 18.5095 243.38 18.735C241.557 19.6825 241.514 24.057 241.295 46.8086L241.295 46.8514L241.294 46.9258C241.272 49.2431 241.248 51.7502 241.219 54.4628C241.028 72.9528 240.724 94.5474 240.544 102.451C239.633 142.516 239.634 270.663 240.546 271.835C240.686 272.014 240.8 272.645 240.8 273.237C240.8 273.828 241.076 274.312 241.413 274.312C241.751 274.312 242.399 274.84 242.853 275.485C243.874 276.935 245.44 276.996 246.406 275.622ZM468.914 25.5551C468.397 12.5453 468.42 9.86812 469.061 8.77482C469.43 8.14539 469.96 7.94262 470.542 8.20866C471.642 8.70973 472.285 8.70725 474.361 8.19254L474.439 8.17321C475 8.03379 475.427 7.92777 475.757 8.06149C476.802 8.48589 476.868 11.3251 477.143 23.1751L477.155 23.6947C477.722 48.1398 477.883 71.7999 477.803 118.576C477.756 146.203 477.71 174.248 477.7 180.899C477.691 187.55 477.787 212.526 477.914 236.401C478.082 268.082 478.009 280.396 477.644 281.976C477.26 283.637 476.837 284.234 475.829 284.538C473.489 285.246 470.044 285.118 469.573 284.307C469.191 283.649 468.702 278.704 468.577 274.23C468.558 273.548 468.703 268.524 468.9 263.067C469.329 251.192 469.361 171.835 468.944 153.051C468.766 145.052 468.47 139.618 468.197 139.38C467.889 139.11 467.931 136.332 468.331 130.64C468.864 123.054 469.051 105.546 469.221 47.2599C469.242 40.0973 469.104 30.3302 468.914 25.5551ZM456.397 14.0925C456.632 12.5632 457.14 10.8194 457.525 10.2166C458.453 8.76429 459.956 8.82817 460.936 10.3618C461.372 11.0439 461.994 11.602 462.318 11.602C462.642 11.602 462.907 12.1137 462.907 12.7388C462.907 13.3645 463.017 14.0311 463.15 14.2202C464.026 15.4593 464.027 150.943 463.153 193.302C462.98 201.658 462.688 224.489 462.504 244.038C462.477 246.954 462.453 249.646 462.432 252.131C462.218 276.496 462.18 280.926 460.362 281.848C459.958 282.053 459.466 282.085 458.865 282.124H458.865C458.589 282.142 458.29 282.161 457.965 282.199C455.635 282.474 455.376 282.375 454.716 280.948C454.322 280.096 453.999 278.375 454 277.125C454.001 274.431 454.507 228.977 454.816 203.844C454.936 194.124 455.129 184.217 455.246 181.829C455.528 176.088 455.888 111.733 455.933 59.0425C455.955 34.1595 456.145 15.7334 456.397 14.0925ZM286.017 282.944C286.658 281.851 286.681 279.174 286.164 266.164C285.974 261.389 285.836 251.621 285.858 244.459C286.027 186.173 286.214 168.665 286.747 161.078C287.147 155.387 287.189 152.609 286.881 152.339C286.608 152.101 286.312 146.667 286.134 138.668C285.717 119.883 285.749 40.5271 286.178 28.6515C286.375 23.1943 286.52 18.1712 286.501 17.4891C286.376 13.0148 285.887 8.06981 285.505 7.41185C285.034 6.60069 281.589 6.47297 279.249 7.18055C278.241 7.48503 277.818 8.0822 277.434 9.74293C277.069 11.323 276.996 23.6365 277.164 55.3174C277.291 79.1926 277.387 104.169 277.378 110.82C277.368 117.471 277.322 145.516 277.275 173.143C277.195 219.919 277.356 243.579 277.924 268.024L277.936 268.544C278.21 280.394 278.276 283.233 279.321 283.657C279.651 283.791 280.078 283.685 280.639 283.546L280.717 283.526C282.793 283.012 283.437 283.009 284.536 283.51C285.119 283.776 285.648 283.573 286.017 282.944ZM297.553 281.502C297.938 280.899 298.446 279.156 298.681 277.626C298.933 275.985 299.123 257.559 299.145 232.676C299.19 179.986 299.55 115.631 299.832 109.889C299.949 107.502 300.142 97.5952 300.262 87.8745C300.571 62.7416 301.077 17.2875 301.078 14.5943C301.079 13.3434 300.757 11.6226 300.362 10.7705C299.702 9.34419 299.443 9.24495 297.113 9.51967C296.788 9.55791 296.489 9.57721 296.213 9.59503C295.612 9.63385 295.12 9.66561 294.716 9.87055C292.898 10.7928 292.86 15.2227 292.647 39.5882C292.625 42.0727 292.601 44.7645 292.574 47.681C292.39 67.2295 292.098 90.0605 291.926 98.4168C291.051 140.776 291.052 276.259 291.928 277.499C292.061 277.688 292.171 278.354 292.171 278.98C292.171 279.605 292.436 280.117 292.76 280.117C293.084 280.117 293.706 280.675 294.142 281.357C295.122 282.891 296.625 282.954 297.553 281.502ZM495.05 25.5551C494.597 12.5453 494.618 9.86812 495.179 8.77482C495.501 8.14539 495.965 7.94262 496.474 8.20866C497.436 8.70973 497.999 8.70725 499.816 8.19254L499.884 8.17321C500.352 8.04034 500.713 7.93781 500.996 8.04421C501.95 8.40382 502.006 11.1498 502.25 23.1763L502.26 23.6947C502.757 48.1398 502.898 71.7999 502.828 118.576C502.787 146.203 502.746 174.248 502.738 180.899C502.73 187.55 502.814 212.526 502.925 236.401C503.072 268.082 503.008 280.396 502.688 281.976C502.352 283.637 501.982 284.234 501.1 284.538C499.053 285.246 496.039 285.118 495.627 284.307C495.292 283.649 494.865 278.704 494.755 274.23C494.738 273.548 494.865 268.524 495.038 263.067C495.413 251.192 495.441 171.835 495.076 153.051C494.921 145.052 494.661 139.618 494.423 139.38C494.153 139.11 494.19 136.332 494.54 130.64C495.006 123.054 495.169 105.546 495.318 47.2599C495.336 40.0973 495.216 30.3302 495.05 25.5551ZM484.098 14.0925C484.303 12.5632 484.747 10.8194 485.084 10.2166C485.896 8.76429 487.211 8.82817 488.069 10.3618C488.451 11.0439 488.995 11.602 489.278 11.602C489.562 11.602 489.794 12.1137 489.794 12.7388C489.794 13.3645 489.89 14.0311 490.007 14.2202C490.773 15.4593 490.774 150.943 490.009 193.302C489.858 201.658 489.602 224.489 489.441 244.038C489.417 246.955 489.397 249.647 489.378 252.131V252.132C489.188 276.911 489.156 281.071 487.484 281.892C487.147 282.058 486.742 282.088 486.257 282.124C486.103 282.135 485.941 282.147 485.77 282.164C485.673 282.174 485.573 282.185 485.47 282.199C483.43 282.474 483.204 282.375 482.626 280.948C482.281 280.096 481.999 278.375 482 277.125C482.001 274.431 482.444 228.977 482.714 203.844C482.819 194.124 482.988 184.217 483.09 181.829C483.337 176.088 483.652 111.733 483.692 59.0425C483.711 34.1595 483.877 15.7334 484.098 14.0925ZM259.9 282.944C260.46 281.851 260.481 279.174 260.028 266.164C259.862 261.389 259.742 251.621 259.76 244.459C259.909 186.173 260.072 168.665 260.538 161.078C260.888 155.387 260.925 152.609 260.655 152.339C260.417 152.101 260.158 146.667 260.002 138.668C259.637 119.883 259.665 40.5271 260.04 28.6515C260.213 23.1943 260.34 18.1712 260.323 17.4891C260.214 13.0148 259.786 8.06981 259.452 7.41185C259.04 6.60069 256.025 6.47297 253.978 7.18055C253.096 7.48503 252.726 8.0822 252.39 9.74293C252.07 11.323 252.006 23.6365 252.153 55.3174C252.264 79.1926 252.348 104.169 252.34 110.82C252.332 117.471 252.291 145.516 252.25 173.143C252.18 219.919 252.322 243.579 252.818 268.024L252.828 268.543C253.072 280.569 253.128 283.315 254.082 283.675C254.365 283.781 254.726 283.678 255.194 283.546L255.262 283.526C257.079 283.012 257.642 283.009 258.604 283.51C259.114 283.776 259.577 283.573 259.9 282.944ZM269.994 281.502C270.331 280.899 270.775 279.156 270.98 277.626C271.201 275.985 271.368 257.559 271.386 232.676C271.426 179.986 271.741 115.631 271.988 109.889C272.09 107.502 272.259 97.5952 272.364 87.8745C272.634 62.7416 273.077 17.2875 273.078 14.5943C273.079 13.3434 272.797 11.6226 272.452 10.7705C271.874 9.34419 271.648 9.24495 269.608 9.51967C269.325 9.55791 269.063 9.57721 268.821 9.59503C268.336 9.63088 267.932 9.66071 267.594 9.82647C265.922 10.648 265.89 14.8083 265.7 39.5866V39.5874C265.681 42.0722 265.661 44.7642 265.637 47.681C265.476 67.2295 265.221 90.0605 265.07 98.4168C264.304 140.776 264.305 276.259 265.071 277.499C265.188 277.688 265.284 278.354 265.284 278.98C265.284 279.605 265.516 280.117 265.8 280.117C266.083 280.117 266.628 280.675 267.009 281.357C267.867 282.891 269.182 282.954 269.994 281.502ZM741.392 246.013C742.284 245.179 743.625 244.405 744.37 244.291C747.221 243.857 748.577 243.961 750.062 244.729C752.377 245.926 755.362 249.417 755.724 251.352C755.901 252.29 756.27 253.424 756.545 253.871C756.889 254.432 756.839 255.297 756.385 256.652C755.612 258.957 754.098 259.598 751.447 258.741C749.463 258.1 748.987 256.647 750.17 254.839C751.046 253.5 750.995 252.584 749.964 251.151C748.813 249.549 748.093 249.319 746.196 249.945C744.486 250.509 744.44 250.591 744.581 252.838C744.775 255.924 743.863 256.064 740.564 253.457C739.157 252.345 737.854 251.435 737.669 251.435C737.484 251.435 737.476 252.983 737.652 254.875C738.005 258.67 737.508 259.65 735.383 259.348C733.64 259.1 733.058 257.21 732.895 251.262C732.76 246.391 732.843 245.769 733.706 245.137C734.911 244.256 735.811 244.243 736.326 245.099C736.546 245.464 737.411 246.16 738.248 246.646C739.765 247.526 739.776 247.523 741.392 246.013ZM733.601 269.593C732.665 268.321 732.847 266.064 733.976 264.935C734.906 264.005 735.643 263.935 744.515 263.935H754.053L755.581 265.463L757.109 266.991L755.699 268.463C754.234 269.991 753.192 270.331 752.875 269.384C752.759 269.034 750.719 268.804 747.299 268.755L741.906 268.678L742.227 269.932C742.862 272.409 742.729 273.543 741.726 274.209C740.835 274.801 740.372 274.632 737.476 272.658C735.689 271.44 733.945 270.061 733.601 269.593ZM741.726 277.135C738.643 277.894 737.607 278.543 735.851 280.816C734.799 282.179 734.476 283.147 734.476 284.947C734.476 287.11 734.668 287.477 736.879 289.545C739.826 292.302 742.188 293.145 745.997 292.8C749.862 292.449 751.334 291.635 753.31 288.755C755.32 285.825 755.469 283.606 753.818 281.178C752.096 278.642 750.353 277.48 747.447 276.929C747.32 276.905 747.2 276.882 747.086 276.86L746.834 276.812L746.833 276.812L746.832 276.811C745.804 276.613 745.269 276.51 744.736 276.52C744.158 276.531 743.583 276.674 742.384 276.972L742.383 276.972L742.363 276.977L742.328 276.986C742.143 277.032 741.943 277.082 741.726 277.135ZM733.044 298.935C732.884 297.188 733.964 295.926 736.528 294.862C741.656 292.736 746.375 295.248 748.174 301.06C748.323 301.541 748.815 301.935 749.269 301.935C749.992 301.935 750.051 301.479 749.748 298.244L749.401 294.553L751.314 294.314C753.52 294.037 754.72 294.522 755.516 296.01C755.942 296.805 755.932 297.153 755.474 297.436C755.075 297.683 754.989 298.358 755.224 299.423C755.852 302.285 755.838 306.145 755.196 306.787C754.814 307.168 753.133 307.392 750.742 307.38C746.922 307.36 746.891 307.349 744.943 305.341C743.861 304.226 742.75 302.453 742.461 301.379C741.888 299.249 740.673 298.809 739.261 300.22C738.155 301.327 738.282 302.286 739.726 303.73C741.226 305.231 741.331 306.958 739.996 308.167C738.668 309.368 737.104 308.897 734.81 306.601C732.75 304.542 732.19 303.097 732.771 301.346C732.984 300.707 733.106 299.622 733.044 298.935ZM749.637 315.06C749.419 315.404 749.237 317.372 749.233 319.435L749.226 323.185L744.55 323.321C741.978 323.396 738.716 323.624 737.3 323.828L734.726 324.199V326.442V328.685L742.476 328.539C746.739 328.458 751.057 328.272 752.072 328.125C754.987 327.701 755.192 327.15 754.51 321.557L754.419 320.808L754.419 320.807C753.863 316.238 753.705 314.94 753.037 314.575C752.772 314.43 752.427 314.432 751.945 314.434C751.881 314.434 751.815 314.435 751.746 314.435C750.805 314.435 749.856 314.716 749.637 315.06ZM734.863 334.517C734.061 331.46 735.057 331.118 746.476 330.532C750.189 330.341 753.49 330.259 753.813 330.349C754.6 330.569 755.223 334.388 754.577 335.034C754.301 335.31 750.509 335.641 746.15 335.769C741.792 335.897 737.567 336.042 736.763 336.093C735.495 336.172 735.241 335.962 734.863 334.517ZM749.726 337.935C748.351 338.442 746.652 338.875 745.951 338.896C745.25 338.917 744.43 339.181 744.13 339.481C743.734 339.876 743.301 339.876 742.562 339.481C740.81 338.543 736.769 338.81 735.306 339.962C732.469 342.192 732.049 350.278 734.676 352.057C734.979 352.262 738.739 352.291 743.033 352.12C748.578 351.9 750.94 351.973 751.187 352.372C751.707 353.213 753.825 353.051 754.172 352.144C754.713 350.737 754.498 349.597 753.44 348.252C752.583 347.162 751.997 346.935 750.049 346.935C747.864 346.935 747.652 346.821 747.097 345.348C746.307 343.257 746.857 342.639 750.416 341.621C754.63 340.417 756.182 338.616 754.009 337.452C752.805 336.808 752.768 336.812 749.726 337.935ZM743.556 355.795C744.474 355.103 745.676 354.428 746.226 354.295C747.822 353.91 750.62 354.451 751.973 355.407C752.869 356.04 753.541 357.398 754.363 360.236C755.906 365.568 755.956 366.136 754.991 367.415C754.189 368.478 753.786 368.526 744.223 368.694C738.758 368.79 733.931 368.678 733.496 368.445C733.061 368.213 732.291 366.873 731.786 365.468L730.868 362.913L732.253 360.176C734.39 355.951 736.965 354.793 740.556 356.443C741.729 356.982 742.083 356.906 743.556 355.795ZM748.201 370.909C747.94 371.17 746.376 371.728 744.726 372.15C739.794 373.412 733.521 376 733.271 376.876C733.146 377.321 733.197 378.567 733.386 379.646L733.73 381.607L739.728 383.708C743.027 384.863 746.739 386.282 747.976 386.861C751.632 388.57 753.245 388.217 753.77 385.591C754.056 384.162 753.944 384.002 752.278 383.452L750.476 382.857V379.226C750.476 375.838 750.56 375.557 751.726 375.026C753.193 374.357 753.233 374.102 752.19 372.012C751.595 370.82 751.07 370.435 750.04 370.435C749.29 370.435 748.462 370.648 748.201 370.909ZM750.812 403.629C750.544 400.763 750.62 400.391 751.608 399.699C752.208 399.279 752.846 398.935 753.026 398.935C753.823 398.935 754.548 400.522 754.441 402.035C754.377 402.942 754.515 404.81 754.749 406.185C754.982 407.56 755.106 409.022 755.025 409.435C754.837 410.381 753.913 410.993 753.112 410.699C752.773 410.575 751.805 410.765 750.958 411.121C749.914 411.56 748.668 411.644 747.073 411.381C745.782 411.168 742.465 410.981 739.701 410.965C734.026 410.931 733.352 410.61 734.026 408.262C734.273 407.398 734.476 405.606 734.476 404.28C734.476 401.027 735.13 399.935 737.079 399.935C739.539 399.935 740.476 401.141 740.476 404.304C740.476 407.819 741.656 407.697 741.883 404.158C742.057 401.455 742.637 400.435 744.002 400.435C745.457 400.435 746.355 401.736 746.717 404.371C747.032 406.66 747.168 406.85 748.641 407.074C749.513 407.207 750.424 407.198 750.667 407.055C750.909 406.912 750.974 405.37 750.812 403.629ZM738.726 414.423C735.895 415.151 734.527 415.892 733.707 417.143C732.55 418.908 732.307 421.802 733.093 424.424C733.725 426.533 733.894 426.687 735.995 427.069C737.222 427.293 739.576 427.354 741.226 427.206C742.876 427.058 746.209 426.895 748.633 426.843C751.057 426.791 753.359 426.509 753.75 426.217C754.182 425.894 754.495 424.66 754.547 423.076C754.628 420.626 754.501 420.331 752.457 418.221C750.091 415.779 749.096 415.273 745.077 414.467C742.107 413.871 740.906 413.862 738.726 414.423ZM737.476 441.387C737.476 439.391 739.073 437.173 741.391 435.948C745.265 433.902 748.601 435.072 751.457 439.479C752.971 441.817 753.12 442.374 753.023 445.367C752.893 449.368 752.21 450.325 749.594 450.167C747.044 450.013 745.903 448.227 746.625 445.522C747.264 443.13 746.278 440.764 744.539 440.517C742.771 440.266 742.241 441.164 742.226 444.435C742.219 446.065 741.955 447.656 741.64 447.971C741.045 448.566 735.383 449.029 733.851 448.608C733.37 448.476 732.976 448.064 732.976 447.693C732.976 447.322 732.762 446.943 732.501 446.851C731.955 446.66 731.677 437.323 732.193 436.488C732.606 435.821 734.803 435.75 735.2 436.392C735.355 436.644 735.625 438.219 735.801 439.892C736.017 441.965 736.335 442.935 736.797 442.935C737.223 442.935 737.476 442.357 737.476 441.387ZM735.362 454.68C733.887 455.347 731.894 457.554 730.636 459.913C729.185 462.637 730.28 466.567 733.274 469.38C734.285 470.33 734.818 470.47 736.345 470.184C737.361 469.993 738.303 469.548 738.438 469.195C738.574 468.842 737.993 467.6 737.148 466.434C735.422 464.051 735.115 461.389 736.415 460.088C737.454 459.05 738.694 459.769 739.306 461.765C740.5 465.655 741.989 468.619 743.19 469.495C743.921 470.028 745.877 470.65 747.538 470.877C750.322 471.258 750.659 471.197 751.836 470.106C752.741 469.267 753.123 468.383 753.149 467.068C753.17 466.047 753.259 464.763 753.347 464.213C753.436 463.663 753.649 461.705 753.822 459.861C754.168 456.155 753.797 455.607 750.779 455.377C748.406 455.196 748.113 455.689 748.105 459.867C748.097 464.584 747.76 465.963 746.615 465.963C745.098 465.963 744.133 463.851 743.944 460.111C743.885 458.949 743.248 457.882 741.633 456.236C739.23 453.786 738.011 453.483 735.362 454.68Z" fill="black"/>
</svg>
