<svg width="73" height="101" viewBox="0 0 73 101" fill="none" xmlns="http://www.w3.org/2000/svg">
<path d="M57.5 91L33 97.5L11.5 95.5L7 87.5L20 75L15 68.5L11.5 60L20 54.5L11.5 46.5L4 30.5L11.5 23L33 19V12L42 5L57.5 8L61.5 23L68 57.5H61.5L33 54.5L37.5 65L57.5 91Z" fill="white"/>
<path fill-rule="evenodd" clip-rule="evenodd" d="M14.4999 100.978H27.4999C37.9999 98.8114 59.2999 93.878 60.4999 91.478C61.1131 90.2515 57.9653 86.4339 53.8926 81.4948C48.0041 74.3534 40.1822 64.8674 38.9999 57.478C38.8332 56.978 39.5999 56.278 43.9999 57.478C49.4999 58.978 68.9999 61.4776 69.9999 60.9776C70.9999 60.4776 72.9999 58.9785 72.4999 57.478C71.3332 55.8112 68.9999 52.0776 68.9999 50.4776C68.9999 49.306 68.8283 48.6491 68.6862 48.105C68.5856 47.7202 68.4999 47.3918 68.4999 46.9776C68.4999 46.7547 68.2764 45.4892 67.9402 43.5847C66.7675 36.9426 64.2227 22.5292 64.9999 17.4776C65.9999 10.9776 58.4999 1.97757 55.9999 2.47757C55.1458 2.64839 54 2.2356 52.5623 1.71771C49.7918 0.719649 45.9377 -0.668789 40.9999 0.977143C33.4999 3.47714 30.4999 9.4775 30.9999 13.4775C31.3999 16.6776 28.8332 16.1442 27.4999 15.4775C19.4999 14.3109 2.99986 15.1775 0.999863 27.9775C-1.00014 40.7775 7.49986 48.3109 11.9999 50.4776C13.3332 51.1442 15.1998 52.6775 11.9999 53.4775C8 54.4775 7.49973 65.4775 11.9999 68.9775C15.6 71.7775 17.1667 74.1442 17.5 74.9775C13.3333 76.9775 4.8 82.4775 4 88.4775C3.2 94.4775 10.6666 99.3112 14.4999 100.978ZM57.5 21.4776C57.5 30.6776 62.1667 46.9776 64.5 53.9776C52.8333 51.4776 27.8999 46.1775 21.4999 44.9775C13.4999 43.4775 7.49993 33.9775 9.49993 27.9775C11.0999 23.1775 24.1666 23.3109 30.4999 23.9775C32.3333 24.3109 36.4999 24.7775 38.4999 23.9775C40.4999 23.1775 40 18.3109 39.5 15.9775C38.8334 13.8109 39.1 8.97759 45.5 6.97759C53.5 4.47759 57.5 9.97759 57.5 21.4776ZM12.4998 90.9775C24.0998 97.3775 43.9998 91.6442 52.4998 87.9775C42.8996 79.5775 33.1665 63.4775 29.5 56.4775H24.5C21.5 56.4775 18.5 58.9775 17 60.9775C15.8 62.5775 16.8333 63.9775 17.5 64.4775C20.6667 67.1442 27 72.8775 27 74.4775C27 75.7033 25.8731 76.3656 23.159 77.9608C21.4446 78.9684 19.0969 80.3483 15.9998 82.4775C9.59977 86.8775 10.9998 89.9775 12.4998 90.9775Z" fill="#EA4A9D"/>
</svg>
