<svg width="72" height="96" viewBox="0 0 72 96" fill="none" xmlns="http://www.w3.org/2000/svg">
<path d="M59 80L12.5 89.5L27.5 52L5 57.5L14.5 14L24.5 5.5H37L40 23.5L51 30V38L45.5 59.5H57L66.5 65L59 80Z" fill="white"/>
<path fill-rule="evenodd" clip-rule="evenodd" d="M28.6286 0.121664C28.3106 0.530664 26.9091 1.19568 25.5141 1.60018C18.9116 3.51368 13.2261 8.23417 11.2511 13.4417C9.08305 19.1577 7.64655 25.9582 6.06505 37.9982C5.66655 41.0297 5.11605 44.2257 4.84105 45.1007C4.56605 45.9757 3.64456 49.6167 2.79356 53.1917C1.94206 56.7667 1.03804 60.3497 0.784043 61.1532C0.299043 62.6882 0.862045 63.9417 2.03655 63.9417C2.37405 63.9417 4.13406 63.1542 5.94756 62.1917C7.76106 61.2292 9.76406 60.4402 10.3981 60.4377C11.0321 60.4357 14.0101 59.6517 17.0166 58.6952C20.0226 57.7392 22.5851 57.0597 22.7106 57.1852C22.9566 57.4312 16.8901 71.0597 15.2521 73.9417C14.7046 74.9042 13.587 77.1032 12.7685 78.8287C10.525 83.556 10.4713 83.5192 9.88457 85.8092L8.52504 88.5002C7.77754 89.9807 6.74254 91.7327 6.22554 92.3937C5.34504 93.5192 5.33856 93.6547 6.12056 94.5187C7.28856 95.8097 8.48254 95.6907 14.646 93.6717C17.618 92.6982 20.8371 91.8912 21.8001 91.8782C22.7626 91.8657 24.7881 91.6587 26.3006 91.4187C27.8131 91.1787 30.9631 90.7312 33.3006 90.4232C35.6381 90.1157 38.1131 89.6802 38.8006 89.4557C39.4881 89.2312 42.7506 88.3222 46.0506 87.4362C55.8931 84.7942 56.8381 84.4707 62.0506 81.9642C66.177 79.2297 66.9845 78.2797 67.9461 76.2542C67.8036 76.1112 68.1581 75.2317 68.7341 74.2992C70.7775 70.991 70.9713 70.2776 71.3006 66.7542C71.3006 65.8262 71.162 64.3737 70.9925 63.5262C70.6185 61.6557 67.7545 58.2022 65.694 57.1367C63.7595 56.1362 56.3731 55.6817 52.8006 56.3437C51.2881 56.6242 50.011 56.8147 49.9625 56.7677C49.914 56.7207 50.3321 55.3342 50.8911 53.6872C51.6611 51.4182 51.846 49.9087 51.6535 47.4642C51.4055 44.3177 51.441 44.1977 53.0495 42.7142C55.701 40.2682 57.052 37.1862 57.0415 33.6072C57.033 30.7377 56.891 30.3537 55.0055 28.1072C52.192 24.7552 49.0071 22.7282 45.3266 21.9472L42.2181 21.2877L42.6346 19.4897C42.8631 18.5007 43.0506 15.6467 43.0506 13.1467C43.0506 8.76366 42.9866 8.50566 41.2496 5.89116C39.3616 3.04916 36.1511 0.443683 34.3721 0.309683L33.3245 0.230673C31.4713 0.277563 31.9713 -0.222437 28.6286 0.121664ZM34.4996 9.87868C35.1021 11.0762 35.6051 12.7387 36.0696 15.0697C36.1656 15.5527 35.944 18.2527 35.577 21.0697C35.1565 24.2942 35.0801 26.5137 35.3696 27.0607C35.9841 28.2217 37.7735 28.6172 39.4795 27.9687C40.8705 27.4397 42.4136 27.5957 44.8461 28.5102C46.0046 28.9457 47.8006 31.6627 47.8006 32.9802C47.8006 34.0542 42.9306 38.6167 39.8186 40.4582C38.0211 41.5217 34.4131 43.1987 31.8006 44.1847C29.1881 45.1707 26.0381 46.4467 24.8006 47.0202C18.2406 50.0597 15.7946 51.2857 13.1646 52.8527C11.5721 53.8012 10.1411 54.4487 9.98405 54.2917C9.82705 54.1347 10.0576 52.9232 10.4966 51.5992C12.1556 46.5912 12.848 43.0692 13.8075 34.7572C14.953 24.8387 15.0916 24.2692 17.6086 19.1062C19.5436 15.1367 23.3196 10.8652 25.8006 9.83819C28.1646 8.86019 31.5486 8.12767 32.6926 8.34667C33.3231 8.46717 34.1361 9.15668 34.4996 9.87868ZM45.6816 51.0052C45.5126 52.7632 44.8011 54.4862 43.1181 57.2132C40.8276 60.9247 40.8035 61.0077 41.6695 62.1842C43.094 64.1182 44.438 64.6382 46.3725 64.0037C47.2955 63.7012 50.317 63.3947 53.0875 63.3227C57.9285 63.1967 58.1955 63.2462 59.9625 64.5922C61.582 65.8262 61.8006 66.2502 61.8006 68.1602C61.8006 69.8627 61.364 70.9817 59.7655 73.3752C58.0545 75.9377 57.398 76.5112 55.6405 76.9812C54.491 77.2882 52.3131 77.9437 50.8006 78.4382C49.2881 78.9322 46.8131 79.4637 45.3006 79.6197C42.0351 79.9557 40.3246 80.2762 37.3006 81.1202C36.0631 81.4652 32.6881 81.8077 29.8006 81.8812C25.3956 81.9932 22.0016 82.4382 17.3006 83.5192C16.1861 83.7757 16.5371 81.9652 18.3601 78.0532C20.4366 73.5967 25.2451 65.4417 25.7961 65.4417C26.0366 65.4417 26.3586 65.0477 26.5116 64.5667C26.6646 64.0857 27.3055 63.1292 27.9365 62.4417C28.5675 61.7542 29.6265 60.2917 30.2905 59.1917C30.9545 58.0917 32.332 56.0487 33.3515 54.6522C35.058 52.3147 35.5681 51.9827 39.7481 50.4877C42.2466 49.5942 44.4206 48.6517 44.5801 48.3942C45.2776 47.2657 45.8991 48.7392 45.6816 51.0052Z" fill="#EA4A9D"/>
</svg>
