<svg width="72" height="96" viewBox="0 0 72 96" fill="none" xmlns="http://www.w3.org/2000/svg">
<path d="M59.2998 80L12.7998 89.5L27.7998 52L5.2998 57.5L14.7998 14L24.7998 5.5H37.2998L40.2998 23.5L51.2998 30V38L45.7998 59.5H57.2998L66.7998 65L59.2998 80Z" fill="#60A845"/>
<path fill-rule="evenodd" clip-rule="evenodd" d="M28.9284 0.121664C28.6104 0.530664 27.2089 1.19568 25.8139 1.60018C19.2114 3.51368 13.5259 8.23417 11.5509 13.4417C9.38286 19.1577 7.94635 25.9582 6.36485 37.9982C5.96635 41.0297 5.41585 44.2257 5.14085 45.1007C4.86585 45.9757 3.94437 49.6167 3.09337 53.1917C2.24187 56.7667 1.33785 60.3497 1.08385 61.1532C0.598848 62.6882 1.16185 63.9417 2.33635 63.9417C2.67385 63.9417 4.43386 63.1542 6.24736 62.1917C8.06086 61.2292 10.0639 60.4402 10.6979 60.4377C11.3319 60.4357 14.3099 59.6517 17.3164 58.6952C20.3224 57.7392 22.8849 57.0597 23.0104 57.1852C23.2564 57.4312 17.1899 71.0597 15.5519 73.9417C15.0044 74.9042 13.8868 77.1032 13.0683 78.8287C10.8248 83.556 10.7711 83.5192 10.1844 85.8092L8.82484 88.5002C8.07734 89.9807 7.04235 91.7327 6.52535 92.3937C5.64485 93.5192 5.63836 93.6547 6.42036 94.5187C7.58836 95.8097 8.78235 95.6907 14.9458 93.6717C17.9178 92.6982 21.1369 91.8912 22.0999 91.8782C23.0624 91.8657 25.0879 91.6587 26.6004 91.4187C28.1129 91.1787 31.2629 90.7312 33.6004 90.4232C35.9379 90.1157 38.4129 89.6802 39.1004 89.4557C39.7879 89.2312 43.0504 88.3222 46.3504 87.4362C56.1929 84.7942 57.1379 84.4707 62.3504 81.9642C66.4769 79.2297 67.2843 78.2797 68.2459 76.2542C68.1034 76.1112 68.4579 75.2317 69.0339 74.2992C71.0773 70.991 71.2711 70.2776 71.6004 66.7542C71.6004 65.8262 71.4618 64.3737 71.2923 63.5262C70.9183 61.6557 68.0544 58.2022 65.9939 57.1367C64.0594 56.1362 56.6729 55.6817 53.1004 56.3437C51.5879 56.6242 50.3108 56.8147 50.2623 56.7677C50.2138 56.7207 50.6319 55.3342 51.1909 53.6872C51.9609 51.4182 52.1459 49.9087 51.9534 47.4642C51.7054 44.3177 51.7409 44.1977 53.3493 42.7142C56.0008 40.2682 57.3519 37.1862 57.3414 33.6072C57.3329 30.7377 57.1908 30.3537 55.3053 28.1072C52.4918 24.7552 49.3069 22.7282 45.6264 21.9472L42.5179 21.2877L42.9344 19.4897C43.1629 18.5007 43.3504 15.6467 43.3504 13.1467C43.3504 8.76366 43.2864 8.50566 41.5494 5.89116C39.6614 3.04916 36.4509 0.443683 34.6719 0.309683L33.6243 0.230673C31.7711 0.277563 32.2711 -0.222437 28.9284 0.121664ZM34.7994 9.87868C35.4019 11.0762 35.9049 12.7387 36.3694 15.0697C36.4654 15.5527 36.2438 18.2527 35.8768 21.0697C35.4563 24.2942 35.3799 26.5137 35.6694 27.0607C36.2839 28.2217 38.0733 28.6172 39.7793 27.9687C41.1703 27.4397 42.7134 27.5957 45.1459 28.5102C46.3044 28.9457 48.1004 31.6627 48.1004 32.9802C48.1004 34.0542 43.2304 38.6167 40.1184 40.4582C38.3209 41.5217 34.7129 43.1987 32.1004 44.1847C29.4879 45.1707 26.3379 46.4467 25.1004 47.0202C18.5404 50.0597 16.0944 51.2857 13.4644 52.8527C11.8719 53.8012 10.4409 54.4487 10.2839 54.2917C10.1269 54.1347 10.3574 52.9232 10.7964 51.5992C12.4554 46.5912 13.1478 43.0692 14.1073 34.7572C15.2528 24.8387 15.3914 24.2692 17.9084 19.1062C19.8434 15.1367 23.6194 10.8652 26.1004 9.83819C28.4644 8.86019 31.8484 8.12767 32.9924 8.34667C33.6229 8.46717 34.4359 9.15668 34.7994 9.87868ZM45.9814 51.0052C45.8124 52.7632 45.1009 54.4862 43.4179 57.2132C41.1274 60.9247 41.1033 61.0077 41.9693 62.1842C43.3938 64.1182 44.7378 64.6382 46.6723 64.0037C47.5953 63.7012 50.6168 63.3947 53.3873 63.3227C58.2283 63.1967 58.4953 63.2462 60.2623 64.5922C61.8818 65.8262 62.1004 66.2502 62.1004 68.1602C62.1004 69.8627 61.6639 70.9817 60.0654 73.3752C58.3544 75.9377 57.6979 76.5112 55.9404 76.9812C54.7909 77.2882 52.6129 77.9437 51.1004 78.4382C49.5879 78.9322 47.1129 79.4637 45.6004 79.6197C42.3349 79.9557 40.6244 80.2762 37.6004 81.1202C36.3629 81.4652 32.9879 81.8077 30.1004 81.8812C25.6954 81.9932 22.3014 82.4382 17.6004 83.5192C16.4859 83.7757 16.8369 81.9652 18.6599 78.0532C20.7364 73.5967 25.5449 65.4417 26.0959 65.4417C26.3364 65.4417 26.6584 65.0477 26.8114 64.5667C26.9644 64.0857 27.6053 63.1292 28.2363 62.4417C28.8673 61.7542 29.9263 60.2917 30.5903 59.1917C31.2543 58.0917 32.6319 56.0487 33.6514 54.6522C35.3579 52.3147 35.8679 51.9827 40.0479 50.4877C42.5464 49.5942 44.7204 48.6517 44.8799 48.3942C45.5774 47.2657 46.1989 48.7392 45.9814 51.0052Z" fill="black"/>
</svg>
