<svg width="72" height="101" viewBox="0 0 72 101" fill="none" xmlns="http://www.w3.org/2000/svg">
<path d="M56.7998 91L32.2998 97.5L10.7998 95.5L6.2998 87.5L19.2998 75L14.2998 68.5L10.7998 60L19.2998 54.5L10.7998 46.5L3.2998 30.5L10.7998 23L32.2998 19V12L41.2998 5L56.7998 8L60.7998 23L67.2998 57.5H60.7998L32.2998 54.5L36.7998 65L56.7998 91Z" fill="white"/>
<path fill-rule="evenodd" clip-rule="evenodd" d="M13.7997 100.978H26.7997C37.2997 98.8114 58.5997 93.878 59.7997 91.478C60.4129 90.2515 57.2651 86.4339 53.1924 81.4948C47.3039 74.3534 39.482 64.8674 38.2997 57.478C38.133 56.978 38.8997 56.278 43.2997 57.478C48.7997 58.978 68.2997 61.4776 69.2997 60.9776C70.2997 60.4776 72.2997 58.9785 71.7997 57.478C70.633 55.8112 68.2997 52.0776 68.2997 50.4776C68.2997 49.306 68.1281 48.6491 67.986 48.105C67.8855 47.7202 67.7997 47.3918 67.7997 46.9776C67.7997 46.7547 67.5762 45.4892 67.24 43.5847C66.0673 36.9426 63.5225 22.5292 64.2997 17.4776C65.2997 10.9776 57.7997 1.97757 55.2997 2.47757C54.4456 2.64839 53.2998 2.2356 51.8621 1.71771C49.0916 0.719649 45.2375 -0.668789 40.2997 0.977143C32.7997 3.47714 29.7997 9.4775 30.2997 13.4775C30.6997 16.6776 28.133 16.1442 26.7997 15.4775C18.7997 14.3109 2.29967 15.1775 0.299668 27.9775C-1.70033 40.7775 6.79967 48.3109 11.2997 50.4776C12.633 51.1442 14.4996 52.6775 11.2997 53.4775C7.2998 54.4775 6.79953 65.4775 11.2997 68.9775C14.8998 71.7775 16.4665 74.1442 16.7998 74.9775C12.6331 76.9775 4.0998 82.4775 3.2998 88.4775C2.4998 94.4775 9.96638 99.3112 13.7997 100.978ZM56.7998 21.4776C56.7998 30.6776 61.4665 46.9776 63.7998 53.9776C52.1331 51.4776 27.1997 46.1775 20.7997 44.9775C12.7997 43.4775 6.79974 33.9775 8.79974 27.9775C10.3997 23.1775 23.4664 23.3109 29.7997 23.9775C31.6331 24.3109 35.7997 24.7775 37.7997 23.9775C39.7997 23.1775 39.2998 18.3109 38.7998 15.9775C38.1332 13.8109 38.3998 8.97759 44.7998 6.97759C52.7998 4.47759 56.7998 9.97759 56.7998 21.4776ZM11.7996 90.9775C23.3996 97.3775 43.2996 91.6442 51.7996 87.9775C42.1994 79.5775 32.4663 63.4775 28.7998 56.4775H23.7998C20.7998 56.4775 17.7998 58.9775 16.2998 60.9775C15.0998 62.5775 16.1331 63.9775 16.7998 64.4775C19.9665 67.1442 26.2998 72.8775 26.2998 74.4775C26.2998 75.7033 25.1729 76.3656 22.4588 77.9608C20.7444 78.9684 18.3967 80.3483 15.2996 82.4775C8.89957 86.8775 10.2996 89.9775 11.7996 90.9775Z" fill="black"/>
</svg>
