<svg width="440" height="160" viewBox="0 0 440 160" fill="none" xmlns="http://www.w3.org/2000/svg">
<path fill-rule="evenodd" clip-rule="evenodd" d="M345.5 1.9306C342.613 2.9666 339.35 4.08115 338.25 4.40765C336.216 5.01115 333.843 6.73915 330.25 10.2332C329.15 11.3032 326.001 14.1976 323.251 16.6656C320.501 19.1341 317.9 21.4911 317.47 21.9036C314.664 24.5931 309.218 29.5781 306.478 31.9646C304.703 33.5101 302.061 35.8166 300.609 37.0896C299.156 38.3621 297.802 39.4036 297.6 39.4036C297.398 39.4036 296.336 38.7931 295.241 38.0476C294.146 37.3016 290.325 34.9081 286.75 32.7286L280.25 28.7656L276.5 28.7741C274.438 28.7786 272.413 28.9086 272 29.0636C271.588 29.2181 269.9 29.6086 268.25 29.9311C265.07 30.5531 262.427 31.6711 262.629 32.3096C262.696 32.5206 261.924 33.6606 260.914 34.8426L259.079 36.9921L250.914 36.9266C246.424 36.8906 242.075 36.7701 241.25 36.6586C240.425 36.5476 237.275 36.2041 234.25 35.8961C231.225 35.5881 228.075 35.1431 227.25 34.9076C226.425 34.6722 223.5 34.3501 220.75 34.1926C218 34.0351 211.925 33.6566 207.25 33.3516C202.575 33.0461 197.89 32.8196 196.839 32.8476C194.919 32.8996 192.002 32.3436 182.75 30.1626C174.429 28.2011 168.826 27.7291 157.79 28.0591C152.268 28.2241 147.188 28.4651 146.5 28.5946C141.836 29.4731 136.266 29.4196 131.377 28.4496C128.557 27.8901 123.55 27.0731 120.25 26.6336C116.95 26.1941 113.287 25.5131 112.109 25.1196C110.932 24.7266 105.42 23.9466 99.8594 23.3866C94.2994 22.8266 86.7129 21.9197 83.0004 21.3712C69.4819 19.3742 66.0899 18.9476 61.4639 18.6621C49.8119 17.9436 49.1414 17.8606 39.0004 15.8936C30.0024 14.1481 27.1259 13.6716 18.0004 12.4161C11.3584 11.5021 6.34993 10.7756 2.12543 10.1131C1.23193 9.97309 0.500433 10.0686 0.500433 10.3256C0.500433 12.2191 5.27543 14.2446 13.0004 15.6281C29.5419 18.5901 30.3374 18.7861 38.5219 21.9071C42.2224 23.3181 47.8379 25.3466 51.0004 26.4141C62.2169 30.2016 71.8154 33.8196 76.6809 36.0931C83.7114 39.3786 88.5474 41.0566 89.1754 40.4286C90.0624 39.5416 87.7809 37.7256 82.5039 35.1196C79.7579 33.7631 77.5089 32.5091 77.5059 32.3331C77.4994 31.9616 83.1729 33.7206 88.2504 35.6641C90.1754 36.4011 94.4504 37.8556 97.7504 38.8961C101.05 39.9371 105.55 41.4566 107.75 42.2736C112.595 44.0721 116.5 44.7111 116.5 43.7051C116.5 42.7361 115.968 42.4236 109 39.3006C97.6214 34.2006 96.7459 33.7701 97.3269 33.5606C98.2764 33.2181 105.604 35.1896 116.976 38.8471C127.685 42.2916 129.545 42.5756 129.893 40.8206C129.99 40.3311 128.507 39.4831 125.264 38.1721C122.64 37.1116 120.588 36.1491 120.704 36.0331C120.965 35.7721 127.178 36.6836 133.5 37.9106C142.182 39.5956 149.213 40.4746 151.412 40.1501C153.475 39.8461 153.542 39.7831 152.878 38.7821C152.189 37.7451 149.706 36.7586 143.618 35.1031C141.895 34.6346 140.557 34.1796 140.645 34.0921C140.732 34.0046 143.492 33.7921 146.777 33.6201C151.564 33.3691 153.941 33.5086 158.75 34.3226C162.05 34.8811 168.013 35.6876 172 36.1146C178.92 36.8561 181.132 37.0131 193.75 37.6566C196.775 37.8111 200.825 38.1456 202.75 38.4001C204.675 38.6551 208.838 38.9891 212 39.1426C221.478 39.6031 225.047 39.9166 229.25 40.6571C231.45 41.0451 234.15 41.4731 235.25 41.6091C244.798 42.7891 251.755 43.9916 252.323 44.5596C252.576 44.8131 244.617 55.5436 243.985 55.7996C243.637 55.9406 242 52.3421 242 51.4346C242 51.1881 240.649 49.5791 238.996 47.8586L235.992 44.7311L224.121 44.5946C217.592 44.5201 210.035 44.3221 207.328 44.1551C204.621 43.9881 198.951 43.7411 194.727 43.6056L187.048 43.3601L186.274 44.8571C185.849 45.6806 185.5 47.0401 185.5 47.8786C185.5 48.7176 185.331 49.4036 185.124 49.4036C184.918 49.4036 183.062 47.7246 180.999 45.6726C178.937 43.6211 176.669 41.8111 175.958 41.6516C175.248 41.4916 171.873 41.9291 168.458 42.6241C165.044 43.3191 159.663 44.2336 156.5 44.6571C153.338 45.0801 149.513 45.7181 148 46.0751L145.25 46.7236L144.802 49.8391C144.468 52.1591 144.178 52.8871 143.667 52.6906C142.559 52.2656 135 46.2811 135 45.8296C135 45.6026 134.157 45.0647 133.126 44.6342C131.007 43.7487 127.916 44.0136 115.5 46.1461C111.788 46.7836 106.163 47.5671 103 47.8866C95.0304 48.6921 93.8669 49.2701 95.9719 51.3751C96.5064 51.9096 96.9989 52.6406 97.0664 53.0001C97.1939 53.6796 96.5539 56.8631 96.1529 57.5431C95.9359 57.9116 89.3869 53.5946 86.3369 51.0726C84.9659 49.9386 84.6459 49.9041 75.5869 49.9156C70.4519 49.9221 65.3504 50.1581 64.2504 50.4406C63.1504 50.7226 61.3114 51.0376 60.1639 51.1401C56.7339 51.4476 56.1594 51.9956 55.8429 55.2636C55.5959 57.8176 55.0649 60.8251 54.2599 64.2316L54.0049 65.3091L51.3944 64.3171C49.9584 63.7716 47.4599 62.3301 45.8424 61.1146C44.2249 59.8986 42.4624 58.9036 41.9259 58.9036C41.3894 58.9036 40.2939 58.5641 39.4914 58.1491C38.1159 57.4376 37.8669 57.4781 35.1414 58.8591C31.1579 60.8776 21.7109 64.9761 16.0004 67.1626C8.91843 69.8746 3.12743 72.8581 1.73643 74.5116C0.281933 76.2401 0.181933 78.3826 1.02843 89.6366C1.48693 95.7381 1.74594 97.0451 3.01044 99.6536C5.16194 104.09 5.74593 105.631 9.74093 117.404C11.7469 123.316 14.1874 129.954 15.1644 132.154C16.1409 134.354 17.3964 137.912 17.9539 140.06C19.2679 145.125 20.2439 146.042 23.9159 145.661C25.3814 145.51 27.8564 145.062 29.4159 144.667C42.1964 141.426 46.4244 140.404 47.0534 140.404C47.7124 140.404 51.9939 145.601 54.1484 149.017C55.0029 150.372 55.0369 150.379 59.3794 150.104C61.7834 149.952 64.5379 149.724 65.5004 149.597C66.4629 149.47 69.1499 149.277 71.4714 149.168C76.1914 148.946 77.7514 148.336 78.8059 146.296C79.6469 144.67 79.8759 144.622 81.4779 145.744C82.5119 146.469 83.9954 146.572 92.2209 146.495C98.3879 146.438 102.379 146.185 103.503 145.78C105.193 145.172 107.248 143.412 107.639 142.238C107.76 141.873 108.649 142.202 110.041 143.128C114.513 146.101 117.956 147.542 119.854 147.234C121.604 146.95 130.203 147.857 135.443 148.879C139.883 149.744 139.926 149.725 145 144.663C147.613 142.056 150.111 139.919 150.553 139.914C150.994 139.908 152.829 141.254 154.63 142.904C156.43 144.554 158.235 145.904 158.641 145.904C159.348 145.904 161.561 145.078 164.75 143.625C166.785 142.697 177.009 138.563 180.933 137.08C188.989 134.038 190.392 132.932 190.042 129.904C189.775 127.593 189.039 127.579 182.554 129.766C180.522 130.452 178.609 131.067 178.304 131.133C178 131.199 177.413 131.376 177 131.527C176.588 131.679 173.1 132.911 169.25 134.265L162.25 136.728L161.574 135.191C161.201 134.346 160.525 132.309 160.069 130.666C159.457 128.453 158.921 127.519 158.003 127.061C156.899 126.511 156.609 126.592 155.348 127.799C154.051 129.039 153.89 129.08 153.441 128.279C152.309 126.26 148.594 128.015 147.265 131.195C146.875 132.13 145.587 134.104 144.403 135.583L142.25 138.273L137 138.852C132.614 139.337 119.852 140.404 118.443 140.404C118.216 140.404 117.207 139.11 116.199 137.529C115.192 135.948 114.116 134.478 113.809 134.263C113.412 133.985 105.041 134.086 104.179 134.38C104.14 134.393 103.722 135.979 103.25 137.904C102.779 139.829 102.242 141.404 102.058 141.404C101.565 141.404 99.4439 139.929 97.9199 138.526C96.6624 137.369 96.4454 137.333 93.9609 137.865C92.5159 138.175 89.8364 138.562 88.0069 138.723L84.6814 139.018L81.0434 135.479C76.9099 131.459 75.9564 130.99 74.2259 132.124C73.1564 132.825 73.0004 133.299 73.0004 135.854C73.0004 137.671 72.7499 138.989 72.3394 139.33C71.9759 139.632 68.8804 140.028 65.4609 140.211C59.2869 140.541 59.2319 140.534 57.7109 139.254C56.8684 138.545 55.5324 136.995 54.7419 135.809C52.3044 132.152 50.4299 130.404 48.9484 130.404C48.2024 130.404 44.4079 131.317 40.5154 132.434C33.4749 134.454 30.3014 135.09 27.0414 135.132C25.1954 135.156 25.4179 135.511 23.7714 129.904C23.4079 128.666 21.6119 122.816 19.7809 116.904C17.9499 110.991 16.0949 104.916 15.6594 103.404C15.2239 101.891 14.1259 98.4036 13.2199 95.6536C11.7949 91.3286 8.50043 79.8416 8.50043 79.1976C8.50043 79.0756 9.73844 78.5121 11.2519 77.9461C12.7649 77.3796 15.2964 76.2686 16.8769 75.4766C20.4784 73.6721 36.7609 66.9036 37.5014 66.9036C37.8029 66.9036 38.7269 66.5536 39.5544 66.1256C41.0389 65.3581 41.1284 65.3881 46.1549 68.3461C48.9574 69.9956 51.9054 71.9471 52.7059 72.6826C54.0924 73.9571 54.3599 74.0101 58.3419 73.8011C62.9019 73.5616 63.6954 73.1371 63.8094 70.8776C63.8504 70.0571 64.6054 67.3856 65.4869 64.9411C66.6834 61.6226 67.3629 60.4091 68.1699 60.1506C68.7644 59.9601 72.7779 59.6876 77.0889 59.5451L84.9279 59.2861L86.5304 61.1116C88.7454 63.6341 91.0004 66.7977 91.0004 67.3817C91.0004 68.2852 93.0994 69.0002 94.9309 68.7202C101.309 67.7457 101.088 67.9376 103.225 61.4966C104.799 56.7516 104.849 56.7152 110.5 56.2097C112.563 56.0252 117.172 55.3321 120.742 54.6701L127.234 53.4666L128.992 54.5181C129.959 55.0966 132.141 56.5451 133.84 57.7371C135.539 58.9286 137.083 59.9036 137.27 59.9036C137.458 59.9036 139.059 60.9161 140.83 62.1536C142.6 63.3911 144.47 64.4036 144.986 64.4036C147.091 64.4036 150.974 63.1951 151.268 62.4481C151.441 62.0111 151.709 60.0151 151.864 58.0126C152.02 56.0101 152.343 54.2506 152.583 54.1026C152.822 53.9546 156.108 53.2936 159.884 52.6336C163.661 51.9736 168.968 50.9576 171.678 50.3751L176.605 49.3166L178.093 50.7351C178.911 51.5151 181.175 54.1226 183.123 56.5286C185.071 58.9351 187.022 60.9296 187.458 60.9611C191.548 61.2586 192.793 59.6841 193.788 52.9556L194.113 50.7571L199.682 51.1051C202.744 51.2966 208.85 51.6596 213.25 51.9116C226.616 52.6786 233 53.3151 233 53.8811C233 54.1041 234.809 58.0011 237.02 62.5411L241.04 70.7961L243.264 71.1296C246.203 71.5701 247.773 70.3706 251.75 64.6456C259.112 54.0491 264.318 47.7176 268.715 44.0126C274.643 39.0176 274.115 39.2556 275.819 40.8066C276.634 41.5476 278.526 43.1661 280.025 44.4031C281.524 45.6406 283.313 47.1726 284 47.8081C284.688 48.4431 286.659 50.1156 288.38 51.5246C290.417 53.1916 291.429 54.3596 291.277 54.8696C291.149 55.3011 290.021 59.9286 288.771 65.1536C287.521 70.3786 286.148 75.8911 285.721 77.4036C285.293 78.9161 284.255 82.8536 283.414 86.1536C282.572 89.4536 281.465 92.8482 280.952 93.6967C279.425 96.2252 280.346 96.8491 285.75 96.9501C289.575 97.0221 298.384 97.8391 303.75 98.6201C306.796 99.0631 312.489 99.3976 321.57 99.6661C329.712 99.9071 330.992 99.8401 331.695 99.1371C332.9 97.9321 332.694 96.9756 330.572 93.9251C329.512 92.4011 327.701 89.3536 326.548 87.1536L324.453 83.1536L325.756 82.1111C326.473 81.5381 328.79 80.0926 330.905 78.8991C333.02 77.7051 337.563 74.8911 341 72.6451C348.001 68.0706 355.509 63.5046 360.75 60.6331C365.297 58.1421 370.113 55.0262 370.6 54.2592C370.812 53.9262 370.988 53.1952 370.993 52.6342C370.997 52.0737 371.45 50.7321 372 49.6536C373.13 47.4376 372.971 46.4616 371.161 44.5126C370.467 43.7651 369.553 42.4786 369.13 41.6536C368.707 40.8286 368.15 40.0171 367.892 39.8506C367.635 39.6841 366.935 38.7466 366.337 37.7676C364.693 35.0746 359.12 29.4036 358.118 29.4036C356.791 29.4036 354.097 30.9601 344.75 37.1276C340.075 40.2126 333.888 44.1506 331 45.8791C326.164 48.7736 318.128 53.7791 310.754 58.4896C307.192 60.7656 306.264 60.8576 305.306 59.0286C304.909 58.2721 304.129 57.1706 303.571 56.5801C303.014 55.9901 302.095 54.6441 301.53 53.5891L300.502 51.6711L302.839 49.6621C304.125 48.5576 305.789 47.2036 306.537 46.6536C307.285 46.1036 310.114 43.7231 312.824 41.3636C319.153 35.8516 339.991 19.1241 343.25 16.9386C344.625 16.0166 346.708 14.3461 347.878 13.2266L350.005 11.1906L351.628 12.1246C353.05 12.9426 364.062 21.1511 370.5 26.1916C371.738 27.1606 374.294 29.1231 376.181 30.5536C378.068 31.9836 381.443 34.6896 383.681 36.5671C385.919 38.4441 388.849 40.6941 390.192 41.5671L392.634 43.1536L392.306 47.9036C391.991 52.4716 391.72 55.3206 391.276 58.7646C390.986 61.0081 392.289 62.5061 394.52 62.4951C396.661 62.4841 408.425 58.2846 412.25 56.1651C413.35 55.5561 417.85 54.2211 422.25 53.1991C426.65 52.1766 430.588 51.1632 431 50.9467C432.106 50.3657 432.26 47.9722 431.217 47.5717C430.75 47.3927 428.316 47.6271 425.809 48.0936C419.518 49.2631 419.392 49.2891 418.125 49.6766C416.798 50.0821 416.575 49.1796 417.875 48.6631C420.256 47.7171 425.511 45.9586 427.616 45.4031C430.431 44.6601 431.222 43.8541 430.797 42.1601C430.353 40.3946 429.229 40.5101 420.874 43.1791C416.956 44.4311 412.4 45.8841 410.75 46.4086C408.322 47.1801 399.09 49.4036 398.314 49.4036C398.205 49.4036 398.431 47.7721 398.815 45.7786C400.322 37.9531 400.361 38.5031 398.249 37.6206C397.215 37.1891 394.281 35.0691 391.727 32.9101C389.174 30.7506 386.559 28.7121 385.917 28.3796C385.275 28.0471 384.365 27.4391 383.893 27.0281C383.092 26.3296 383.13 26.1451 384.49 24.1691C385.289 23.0076 386.085 21.4911 386.258 20.7996C386.535 19.6976 386.275 19.3656 384.162 18.1181C381.225 16.3846 378.837 15.0891 374.25 12.7406C372.325 11.7551 368.95 9.9351 366.75 8.6961C364.55 7.4571 361.028 5.50315 358.923 4.35315C356.694 3.13515 354.872 1.77013 354.559 1.08313C353.812 -0.556373 351.947 -0.3819 345.5 1.9306ZM35.9514 24.2026C35.2909 24.5686 34.4194 24.8761 34.0144 24.8861C33.6099 24.8956 31.7534 25.3851 29.8894 25.9731C26.6949 26.9816 26.5004 27.1291 26.5004 28.5426C26.5004 29.3671 27.1749 32.4296 27.9994 35.3476C30.9189 45.6836 31.4469 47.6846 32.0044 50.5201C32.3144 52.0961 32.7469 53.4971 32.9664 53.6326C33.1854 53.7681 34.6329 54.0281 36.1829 54.2101C38.5854 54.4926 39.0004 54.4216 39.0004 53.7291C39.0004 53.2116 40.4054 52.2351 42.8754 51.0356C46.1734 49.4336 46.7504 48.9676 46.7504 47.9036C46.7504 46.1281 44.7259 46.0191 41.5579 47.6246C38.5459 49.1506 38.0004 49.2031 38.0004 47.9671C38.0004 47.4521 37.5389 45.9871 36.9744 44.7116C35.8139 42.0881 35.9234 41.6557 37.8709 41.1707C38.6294 40.9812 39.9614 40.4901 40.8304 40.0796C42.2884 39.3901 42.3759 39.2126 41.9639 37.7766C41.2774 35.3826 40.8859 35.2251 37.6734 36.0496C35.0304 36.7281 34.6904 36.7241 34.1254 36.0061C32.7049 34.2021 33.3534 33.2056 36.6329 32.1536C39.5459 31.2191 39.7809 31.0301 40.2149 29.2726C40.5704 27.8336 40.4919 26.9976 39.8809 25.7166C38.9524 23.7691 37.6439 23.2646 35.9514 24.2026ZM10.5004 25.2356C10.0879 25.4036 9.34844 25.9591 8.85744 26.4706C7.99944 27.3641 8.01443 27.5406 9.25143 31.0271C11.3659 36.9876 12.2779 39.7231 15.2544 49.0286C16.9404 54.3001 18.3479 57.9036 18.7199 57.9036C19.0649 57.9036 20.1224 57.1721 21.0704 56.2786C22.0184 55.3851 23.6184 53.9256 24.6259 53.0356C26.8854 51.0406 27.7144 48.4306 27.6854 43.4036C27.6624 39.4551 26.2319 34.4971 23.8939 30.2646C22.1639 27.1331 18.7199 25.2106 14.5599 25.0551C12.7399 24.9866 10.9129 25.0681 10.5004 25.2356ZM16.3954 31.8576C19.0824 33.2401 20.6964 35.1636 22.7154 39.3896C24.9684 44.1051 24.9994 45.8946 22.8754 48.7086C21.9819 49.8931 20.9824 50.9716 20.6549 51.1056C20.2619 51.2666 19.1854 48.5916 17.4929 43.2516C16.0814 38.7976 14.7184 34.5011 14.4634 33.7041C13.9449 32.0811 13.8639 30.9036 14.2704 30.9036C14.4189 30.9036 15.3749 31.3331 16.3954 31.8576ZM272.717 33.8411C270.573 35.7746 264.608 40.7906 264.048 41.1311C263.181 41.6581 263.55 41.0161 265.84 38.0071C267.968 35.2121 269.975 33.5496 271.514 33.3081C272.967 33.0796 273.365 33.2566 272.717 33.8411ZM358.462 45.4036C359.033 46.9161 359.5 48.5346 359.5 49.0001C359.5 50.2616 354.267 53.6866 337.5 63.3991C332.048 66.5571 326.136 70.2116 320.633 73.8251C317.977 75.5696 314.721 77.5631 313.398 78.2551C312.074 78.9466 310.862 79.7226 310.704 79.9786C310.546 80.2346 309.994 80.3101 309.477 80.1461C308.148 79.7241 306.5 80.7467 306.5 81.9937C306.5 82.9372 309.787 89.9751 311.535 92.7736C311.908 93.3701 312.095 93.9756 311.951 94.1191C311.808 94.2626 309.791 94.1771 307.47 93.9291C305.149 93.6811 301.518 93.3456 299.401 93.1831C297.285 93.0206 294.385 92.6661 292.958 92.3956C291.531 92.1251 289.498 91.9036 288.439 91.9036H286.515L287.521 89.2786C288.075 87.8346 288.727 86.2036 288.971 85.6536C289.523 84.4101 292.977 75.3816 294.756 70.5321C295.487 68.5401 296.241 66.8136 296.432 66.6956C296.623 66.5776 297.517 67.9041 298.419 69.6441C300.72 74.0811 303.393 75.0106 306.093 72.3111C306.64 71.7641 308.962 70.4426 311.253 69.3741C315.715 67.2931 322.148 63.5636 325 61.4031C325.963 60.6741 328.17 59.1946 329.906 58.1156C333.085 56.1391 333.825 55.7036 345.868 48.7246C349.507 46.6156 353.445 44.2326 354.618 43.4296C355.791 42.6266 356.902 42.1236 357.087 42.3116C357.273 42.4996 357.891 43.8911 358.462 45.4036ZM289.472 46.8336C291.794 48.4291 293.782 49.9976 293.889 50.3191C294.344 51.6856 292.482 50.6601 288.576 47.3941C286.28 45.4741 284.593 43.9101 284.826 43.9181C285.059 43.9266 287.15 45.2386 289.472 46.8336ZM398 66.1311C396.53 66.8796 393.426 68.3106 389.25 70.1651C387.6 70.8981 384 72.5871 381.25 73.9186C378.5 75.2506 374 77.1697 371.25 78.1837C368.5 79.1982 365.075 80.5566 363.639 81.2031C362.202 81.8491 360.458 82.5206 359.764 82.6951C358.611 82.9841 358.462 82.8601 358.51 81.6486C358.537 80.9836 356.81 78.4226 354.871 76.2511C352.456 73.5461 351.574 73.5111 350.266 76.0671C348.023 80.4501 341.877 90.0506 339.283 93.2221C338.578 94.0851 338 95.0411 338 95.3471C338 95.6531 337.832 95.9041 337.625 95.9046C337.419 95.9056 336.631 97.0916 335.873 98.5411C335.116 99.9906 333.598 102.265 332.498 103.595C330.972 105.442 330.5 106.445 330.5 107.842C330.5 110.472 332.518 113.24 334.881 113.854C337.709 114.589 345.399 115.419 356 116.135C368.556 116.982 373.86 117.421 374.833 117.694C375.642 117.921 376.131 117.669 376.771 116.692C377.6 115.427 377.577 115.276 376.039 111.836C375.166 109.884 374.519 108.238 374.601 108.179C374.745 108.076 378.092 106.462 389.621 100.939C392.574 99.5231 396.512 97.7331 398.371 96.9606C403.146 94.9766 408.099 93.0151 409.115 92.7061C410.381 92.3211 409.938 88.7971 407.718 81.5886C406.713 78.3246 405.405 73.7741 404.811 71.4766C403.35 65.8271 401.481 64.3596 398 66.1311ZM206.25 67.0901C204.365 68.1751 204.23 68.4106 203.9 71.1976C203.707 72.8231 203.223 75.3756 202.824 76.8696C202.426 78.3636 202.218 80.1636 202.362 80.8696C202.506 81.5756 202.617 82.8286 202.609 83.6536C202.6 84.4786 202.806 92.0946 203.067 100.578L203.54 116.002L205.002 117.232C206.198 118.239 206.41 118.728 206.171 119.927C205.982 120.872 206.17 121.838 206.7 122.648C207.532 123.916 209.181 124.325 209.75 123.404C209.92 123.129 210.706 122.904 211.497 122.904C212.288 122.904 214.581 122.553 216.593 122.123C221.274 121.124 232.776 119.409 234.814 119.406C235.674 119.405 236.673 119.759 237.034 120.194C237.485 120.738 238.089 120.879 238.97 120.646C239.674 120.46 243.623 120.16 247.745 119.981C255.203 119.655 255.243 119.647 255.867 118.343C256.345 117.341 256.361 116.634 255.931 115.343C255.198 113.14 254.496 112.426 252.986 112.345C251.117 112.245 239.303 112.992 238.886 113.236C238.686 113.353 237.898 112.998 237.136 112.446C235.89 111.543 235.398 111.49 232.25 111.912C221.472 113.357 216.006 113.984 214 114.006C212.458 114.023 211.396 114.353 210.625 115.054L209.5 116.078V110.691C209.5 107.728 209.716 101.558 209.98 96.9786C210.244 92.4001 210.567 85.3011 210.697 81.2036C210.855 76.2321 211.131 73.6316 211.527 73.3871C212.429 72.8291 220.673 73.4037 221.309 74.0692C221.837 74.6217 224.519 92.6061 224.506 95.5131C224.499 97.2366 226.384 100.904 227.277 100.904C227.649 100.904 228.506 100.652 229.182 100.344C230.163 99.8966 230.643 99.9471 231.567 100.594C232.548 101.282 234.404 101.404 243.862 101.404H255L255.001 105.279C255.002 111.779 257.241 114.526 260.159 111.608C261.411 110.357 261.5 109.974 261.5 105.86C261.5 99.6961 260.804 96.8161 258.989 95.4746C258.186 94.8806 257.016 94.3961 256.39 94.3981C247.848 94.4226 231.139 95.1126 230.775 95.4556C230.514 95.7021 230.093 95.9036 229.84 95.9036C229.567 95.9036 229.455 90.2471 229.565 81.9566C229.737 68.9906 229.686 67.9386 228.835 66.9976C227.976 66.0481 227.309 65.9836 218.085 65.9621C208.711 65.9406 208.156 65.9936 206.25 67.0901ZM134.5 68.4481C131.338 69.2541 127.063 70.2611 125 70.6856C118.926 71.9361 114.545 73.4301 112.903 74.8121L111.367 76.1046L111.643 81.1292C111.795 83.8927 112.165 87.2786 112.466 88.6536C112.767 90.0286 113.792 95.2036 114.743 100.154C115.695 105.104 116.914 111.179 117.454 113.654C119.929 125.014 119.683 124.494 122.5 124.308C123.463 124.245 125.938 124.367 128.001 124.579C131.421 124.932 132.117 124.837 135.885 123.503C139.138 122.352 140.44 122.118 142.004 122.404C144.902 122.934 145.24 122.295 144.576 117.533C144.279 115.399 143.909 112.079 143.755 110.154C143.601 108.229 143.361 105.745 143.222 104.633L142.97 102.613L147.86 100.144C159.15 94.4421 159.79 91.6216 152.963 77.6456C149.743 71.0551 149.299 70.3952 147.807 69.9832C146.909 69.7352 145.583 68.9406 144.86 68.2181C143.182 66.5401 141.872 66.5696 134.5 68.4481ZM189.459 68.0971C189.18 68.3551 173.322 70.2021 165.538 70.8831C162.121 71.1821 159.046 71.6581 158.706 71.9406C158.278 72.2956 158.146 73.6466 158.279 76.3041C158.811 86.9251 159.094 91.6271 159.501 96.6536C159.746 99.6786 160.079 104.516 160.24 107.404C160.609 113.995 160.803 115.105 162.086 117.979C163.15 120.362 164.525 121.13 166.902 120.673C167.443 120.568 172.468 120.344 178.068 120.174C192.212 119.744 193.095 119.59 194.007 117.387C194.348 116.563 195 115.904 195.474 115.904C195.942 115.904 196.829 115.368 197.445 114.713C198.527 113.561 198.537 113.459 197.753 111.588C197.202 110.272 197.039 108.934 197.241 107.404C197.512 105.354 197.174 102.724 196.214 99.4036C196.015 98.7161 196.029 98.3156 196.245 98.5136C196.461 98.7121 197.303 98.3996 198.118 97.8201C199.804 96.6191 199.785 95.4786 198.013 91.8126C196.658 89.0071 196.696 87.9036 198.15 87.9036C200.57 87.9036 201.122 85.7611 199.714 81.8416C199.282 80.6381 198.509 77.7621 197.996 75.4496C197.059 71.2186 196.072 69.5751 194.227 69.1721C193.69 69.0546 192.464 68.7212 191.504 68.4312C189.466 67.8157 189.717 67.8566 189.459 68.0971ZM68.1274 71.7791C67.7844 72.0161 67.4299 72.8726 67.3389 73.6821C67.2484 74.4916 66.9404 75.7161 66.6549 76.4036C66.3689 77.0911 65.9914 79.9036 65.8154 82.6536C65.2594 91.3496 64.4894 98.4216 63.2574 106.154C61.6419 116.291 61.2359 121.232 61.9474 122.09C62.3764 122.607 62.3299 122.923 61.7564 123.399C60.6854 124.288 60.8194 125.772 62.0299 126.42C62.7689 126.815 64.2844 126.824 67.4049 126.451C69.7949 126.165 73.4574 126.049 75.5434 126.193C80.0969 126.506 80.4374 126.239 80.7784 122.08C81.0824 118.368 82.0139 110.221 82.1484 110.096C82.2899 109.964 84.6289 109.781 85.3124 109.848C85.6789 109.884 85.9514 111.914 86.0954 115.673C86.2914 120.799 86.4399 121.565 87.4244 122.548C88.9084 124.029 93.0989 123.963 98.0799 122.379C103.611 120.621 103.683 120.521 103.315 115.154C103.146 112.679 102.798 108.966 102.542 106.904C102.286 104.841 101.928 101.267 101.747 98.9597C101.565 96.6532 101.349 94.4032 101.266 93.9597C101.184 93.5167 100.954 91.4661 100.755 89.4036C100.556 87.3411 100.125 85.3161 99.7964 84.9036C99.1899 84.1416 97.8949 79.7726 97.8699 78.4036C97.8254 75.9606 94.5024 73.9131 90.5724 73.9066C89.6499 73.9051 87.6249 73.5846 86.0724 73.1946C81.2929 71.9941 69.1954 71.0396 68.1274 71.7791ZM31.7504 73.7451C25.8414 74.4941 23.5004 75.5966 23.5004 77.6311C23.5004 78.2211 23.2649 78.9391 22.9769 79.2271C22.6129 79.5911 22.6839 81.6336 23.2109 85.9521C23.6274 89.3626 24.0694 93.3911 24.1929 94.9036C24.3169 96.4161 24.8839 100.466 25.4534 103.904C26.0229 107.341 26.5294 111.841 26.5794 113.904C26.6604 117.283 26.8319 117.876 28.3149 119.904C29.2199 121.141 30.2774 122.6 30.6654 123.145C31.4019 124.18 31.4639 124.186 43.9914 124.546C47.6979 124.653 47.7389 124.64 48.4434 123.154C49.2554 121.441 49.9914 120.82 50.8389 121.129C51.1624 121.248 51.7249 120.986 52.0889 120.547C52.5944 119.938 52.7094 117.845 52.5769 111.678C52.4124 104.032 52.4629 103.503 53.5389 101.63C57.4444 94.8331 58.4859 91.4646 58.4944 85.6061C58.4994 82.2066 58.3424 81.4156 57.5134 80.6651C56.9704 80.1736 56.3994 79.3736 56.2454 78.8876C56.0909 78.4011 55.3674 77.8531 54.6379 77.6701C53.9084 77.4871 52.6624 76.8751 51.8699 76.3106C49.4454 74.5846 46.0604 73.8726 39.5004 73.7101C36.0629 73.6251 32.5754 73.6406 31.7504 73.7451ZM147.23 78.5781C149.092 82.4491 150 86.1006 150 89.7136C150 91.8211 149.924 91.9251 147.482 93.1626C146.097 93.8646 144.101 95.2181 143.047 96.1711C141.992 97.1241 140.864 97.9036 140.539 97.9036C140.215 97.9036 139.651 98.6351 139.287 99.5286C138.759 100.825 138.733 102.311 139.157 106.872C139.592 111.546 139.568 112.631 139.024 112.812C138.658 112.934 137.547 113.745 136.554 114.615C132.942 117.779 132.805 117.816 128.304 116.892C123.848 115.977 124.148 116.333 123.264 110.904C123.107 109.941 122.559 107.579 122.046 105.654C121.532 103.729 120.958 101.065 120.769 99.7336C120.58 98.4021 120.317 96.8271 120.184 96.2336C119.699 94.0706 117 79.8027 117 79.4052C117 79.1802 119.194 78.6286 121.875 78.1796C124.557 77.7306 128.55 77.0616 130.75 76.6926C133.782 76.1841 135.384 76.1521 137.37 76.5601C139.706 77.0406 140.219 76.9811 142.12 76.0081C143.292 75.4081 144.523 74.9146 144.856 74.9106C145.19 74.9066 146.258 76.5571 147.23 78.5781ZM192.929 77.1536C193.072 77.9786 193.203 79.6661 193.219 80.9036L193.25 83.1536L187.544 83.2996C184.405 83.3796 181.491 83.6391 181.068 83.8756C180.645 84.1126 180.044 85.5847 179.732 87.1472C179.18 89.9072 179.2 90.0111 180.405 90.8011C181.247 91.3526 183.124 91.6786 186.248 91.8151C190.729 92.0111 190.874 92.0556 191.724 93.4946C192.205 94.3076 192.52 95.0331 192.424 95.1066C192.328 95.1801 190.563 95.5256 188.5 95.8751C183.716 96.6851 181.517 97.6861 181.447 99.0856C181.229 103.494 182.875 105.467 187.621 106.486C190.344 107.07 190.509 107.192 190.82 108.85C191.125 110.477 190.978 110.748 188.699 112.754C187.352 113.94 185.8 115.03 185.25 115.178C184.7 115.325 180.363 115.493 175.613 115.55L166.975 115.654L166.777 111.904C165.992 97.0231 165.815 91.7552 165.881 85.2177C165.922 81.1277 166.072 77.6651 166.214 77.5236C166.356 77.3816 167.481 77.5481 168.715 77.8936C170.587 78.4181 171.519 78.3941 174.354 77.7491C177.416 77.0521 181.6 76.2536 185 75.7171C185.688 75.6086 187.695 75.5496 189.46 75.5866C192.616 75.6526 192.674 75.6786 192.929 77.1536ZM399.574 80.6536C400.356 82.5786 400.996 84.1586 400.997 84.1651C400.999 84.1711 400.157 84.5951 399.125 85.1076C398.094 85.6196 396.238 86.5476 395 87.1701C389.836 89.7671 367.293 98.9036 366.049 98.9036C365.029 98.9036 363.252 100.7 362.804 102.186C362.632 102.753 362.823 104.318 363.228 105.662C363.632 107.007 363.88 108.191 363.778 108.293C363.389 108.682 345.619 106.689 345.132 106.203C344.875 105.945 347.613 100.259 349.49 97.1536C350.487 95.5036 351.772 93.1411 352.347 91.9036C352.921 90.6661 353.879 89.2126 354.476 88.6736C355.401 87.8381 355.63 87.8011 356.023 88.4236C356.277 88.8251 356.488 89.5422 356.493 90.0172C356.497 90.4922 357.073 91.2556 357.773 91.7146C358.87 92.4331 359.331 92.4626 361.115 91.9281C362.253 91.5871 364.324 90.6691 365.717 89.8876C367.11 89.1061 370.163 87.6876 372.5 86.7361C374.838 85.7841 378.325 84.2836 380.25 83.4016C386.918 80.3456 387.763 79.9956 390.5 79.1531C392.013 78.6871 394.038 77.9996 395 77.6246C395.963 77.2496 397.066 76.9901 397.452 77.0481C397.838 77.1061 398.793 78.7286 399.574 80.6536ZM76.9234 78.2091C78.4784 78.6521 79.9644 79.2146 80.2254 79.4591C80.4864 79.7036 81.1754 79.9036 81.7554 79.9036C82.9754 79.9036 93.9549 83.6426 94.5134 84.2481C94.7189 84.4711 95.2564 88.2536 95.7079 92.6536C96.1589 97.0536 96.6374 101.666 96.7704 102.904C97.3129 107.943 97.5364 115.69 97.1549 116.233C96.9314 116.551 95.9509 116.962 94.9764 117.144L93.2049 117.477L92.6549 111.913C91.9169 104.442 91.7749 104.293 85.7904 104.686C81.0749 104.996 78.3009 105.908 77.4964 107.411C77.2379 107.894 76.7539 110.905 76.4209 114.102L75.8149 119.916L73.5324 119.906C72.2774 119.901 70.4324 119.984 69.4329 120.09C66.8504 120.365 66.3504 119.893 66.6334 117.446C66.9009 115.129 66.8239 115.261 68.3754 114.454C69.2974 113.974 69.5024 113.444 69.5104 111.511C69.5159 110.215 69.7294 107.691 69.9854 105.904C70.2414 104.116 70.7969 98.0411 71.2199 92.4036C72.2499 78.6706 72.4294 77.4036 73.3454 77.4036C73.7584 77.4036 75.3684 77.7661 76.9234 78.2091ZM49.3124 80.0956C51.0464 80.9736 52.0754 81.8776 52.4959 82.8926C53.6934 85.7841 51.8549 93.5226 49.4544 95.6956C48.9294 96.1701 48.5004 96.8667 48.5004 97.2437C48.5004 97.6202 47.9379 98.1421 47.2504 98.4036C46.5629 98.6651 45.9859 99.2781 45.9679 99.7661C45.9499 100.254 45.9629 104.282 45.9974 108.718L46.0594 116.781L43.9049 117.09C42.7199 117.259 40.5129 117.416 39.0004 117.439C37.4879 117.461 35.3524 117.518 34.2544 117.566L32.2584 117.654L31.9459 115.125C31.7739 113.734 31.4934 110.471 31.3234 107.875C30.9809 102.655 29.7654 93.6226 29.0399 90.9036C27.9209 86.7101 26.4874 80.6051 26.4934 80.0596C26.4974 79.7331 26.8939 79.4457 27.3754 79.4207C27.8569 79.3962 29.8254 79.2016 31.7504 78.9881C33.6754 78.7746 37.8379 78.6446 41.0004 78.6991C46.0854 78.7866 47.0469 78.9481 49.3124 80.0956ZM135.703 81.8531C133.826 82.9951 132 85.2331 132 86.3936C132 86.8636 132.45 87.6561 133 88.1536C133.55 88.6511 134 89.3661 134 89.7416C134 90.1176 134.546 90.6736 135.213 90.9776C136.827 91.7131 139 91.1422 139 89.9832C139 89.4877 139.367 88.0056 139.815 86.6906L140.63 84.2996L138.938 82.6076L137.245 80.9156L135.703 81.8531ZM35.9529 83.7932C35.0749 84.4082 34.9989 84.8446 35.2959 87.5711C35.6789 91.0841 36.1229 92.1662 37.4789 92.8922C38.7514 93.5732 40.7154 92.8031 41.7549 91.2166C42.9684 89.3646 42.8509 86.0911 41.5194 84.6741C40.1999 83.2691 37.3459 82.8177 35.9529 83.7932ZM79.0004 84.5346C77.2444 85.4366 77.1724 87.3721 78.7359 91.6581C80.3014 95.9501 81.3274 96.6871 84.3149 95.6656C86.6749 94.8586 87.0509 93.3221 85.5719 90.5306C85.0249 89.4981 84.4574 87.7821 84.3104 86.7166C84.1634 85.6511 83.9359 84.6721 83.8044 84.5411C83.2189 83.9556 80.1349 83.9516 79.0004 84.5346ZM434.027 99.9601C432.459 100.914 430.207 101.791 422.5 104.451C420.163 105.257 417.575 106.231 416.75 106.615C415.925 107 414.238 107.57 413 107.883C411.763 108.196 407.375 109.668 403.25 111.153C399.125 112.639 393.295 114.656 390.295 115.635C387.294 116.614 384.594 117.613 384.295 117.855C383.995 118.097 382.461 118.56 380.885 118.883C377.49 119.579 376.004 121.087 375.993 123.846C375.978 128.002 377.554 127.666 358.6 127.554C349.333 127.499 337.588 127.161 332.5 126.804C327.413 126.446 318.919 126.182 313.625 126.216C308.332 126.25 304 126.159 304 126.013C304 125.584 311.523 118.404 311.973 118.404C313.04 118.404 312.863 116.278 311.713 115.278C311.046 114.698 310.5 113.924 310.5 113.559C310.5 112.736 308.831 111.261 307.714 111.097C307.257 111.03 305.647 111.176 304.135 111.422C302.623 111.669 299.781 112.003 297.818 112.167C295.856 112.33 293.463 112.571 292.5 112.702C285.259 113.69 279.052 114.399 275.037 114.697C270.437 115.038 270.271 115.094 268.181 117.021C267.002 118.107 265.898 119.481 265.727 120.075C265.556 120.668 264.639 122.998 263.689 125.252C262.739 127.505 261.633 130.458 261.231 131.813L260.499 134.277L256.625 134.096C254.494 133.996 248.588 133.686 243.5 133.408C232.838 132.824 225.027 132.496 213.768 132.159L205.786 131.921L201.268 127.442C198.781 124.976 196.147 122.817 195.407 122.637C194.179 122.339 193.951 122.535 192.737 124.931C191.054 128.25 190.988 128.084 196.694 134.904C197.959 136.416 199.921 138.779 201.053 140.154C202.185 141.529 203.368 142.799 203.681 142.976C203.994 143.153 212.913 143.448 223.5 143.631C234.088 143.814 243.763 144.035 245 144.122C247.245 144.279 248.912 144.981 256 148.751C262.009 151.946 268.968 155.621 272.85 157.649C274.83 158.684 276.786 159.401 277.196 159.244C278.283 158.826 279.569 156.664 279.24 155.807C278.873 154.851 271.191 150.297 261.898 145.526L258.25 143.654L262.431 143.508C265.572 143.398 266.908 143.556 267.804 144.143C269.884 145.506 281.435 151.512 285 153.084C286.729 153.847 291.21 156.318 293.358 157.694C294.915 158.692 296.373 158.576 297 157.404C298.016 155.506 296.522 153.992 289.414 149.716C284.943 147.027 276.62 142.904 275.662 142.904C275.298 142.904 275 142.72 275 142.496C275 142.271 273.65 141.442 272 140.654C270.35 139.865 269 139.138 269 139.037C269 138.936 269.35 138.179 269.776 137.353L270.553 135.852L283.33 142.406C299.318 150.607 303.247 152.731 305.7 154.498C306.773 155.271 308.062 155.904 308.566 155.904C309.542 155.904 310.315 153.945 309.834 152.691C309.37 151.484 303.622 147.93 295.75 143.985C291.625 141.917 286.113 138.945 283.5 137.381C280.888 135.816 277.549 133.909 276.08 133.144C273.263 131.675 272.559 130.79 273.4 129.772C273.681 129.432 274.067 128.318 274.258 127.297C274.714 124.857 275.46 124.263 277.027 125.094C280.974 127.189 286.817 130.533 287.215 130.925C287.501 131.207 287.411 131.886 286.982 132.688C286.35 133.869 286.377 134.048 287.267 134.573C288.732 135.438 290.429 135.779 293.603 135.845C295.805 135.89 297.037 136.246 299 137.404C300.399 138.229 301.639 138.904 301.755 138.904C301.87 138.904 303.633 139.916 305.671 141.154C307.709 142.391 309.573 143.411 309.814 143.42C310.054 143.428 312.388 144.772 315 146.405C320.845 150.06 325.894 152.491 327.238 152.299C327.983 152.192 328.25 151.778 328.25 150.732C328.25 149.449 327.712 148.997 322.75 146.113C319.725 144.355 314.51 141.399 311.16 139.543C307.81 137.688 305.292 136.032 305.564 135.864C305.836 135.696 308.352 135.662 311.154 135.789C314.831 135.955 316.668 136.268 317.75 136.912C322.744 139.885 332.371 144.736 340.137 148.193C342.949 149.445 346.972 151.354 349.077 152.436C353.288 154.602 354.079 154.764 355 153.654C356.573 151.759 353.156 148.477 346.5 145.491C339.706 142.442 331.531 138.358 331.222 137.857C331.001 137.5 332.451 137.446 335.825 137.685L340.75 138.033L357.115 146.22C366.116 150.722 374.216 154.855 375.115 155.403C377.066 156.593 378.161 156.665 378.995 155.66C380.448 153.909 377.803 150.941 372.972 148.904C370.359 147.801 358.495 141.242 358.716 141.022C358.819 140.918 361.57 142.109 364.827 143.669C368.085 145.229 371.2 146.707 371.75 146.953C372.3 147.2 373.088 147.622 373.5 147.891C373.913 148.16 376.725 149.583 379.75 151.052C382.775 152.521 386.365 154.333 387.728 155.079L390.206 156.434L390.872 155.163C392.043 152.929 390.618 151.805 380.071 146.642C374.747 144.036 370.204 141.904 369.975 141.904C369.746 141.904 369.399 141.645 369.203 141.328C368.472 140.145 372.912 141.309 377.564 143.52C380.141 144.745 385.71 147.286 389.938 149.166C394.166 151.046 398.395 153.106 399.335 153.744C401.974 155.534 404.5 155.086 404.5 152.828C404.5 151.918 400.887 149.569 396.25 147.463C391.136 145.14 384.234 141.634 383.599 141.036C383.06 140.528 383.104 140.197 383.847 139.177C384.344 138.494 384.891 137.928 385.063 137.919C385.235 137.911 388.047 139.16 391.313 140.696C409.154 149.086 413.589 150.847 416.618 150.744C419.181 150.656 419.25 150.615 419.25 149.174C419.25 147.221 417.462 146.034 410.583 143.42C403.876 140.871 386 131.974 386 131.185C386 130.86 386.324 130.158 386.72 129.624C387.366 128.753 387.557 128.726 388.595 129.366C390.559 130.577 399.011 134.71 404 136.9C410.726 139.852 411.546 140.225 418.25 143.377C422.948 145.586 424.742 146.188 426.515 146.149C429.046 146.094 430 145.681 430 144.644C430 143.155 428.644 142.301 419.25 137.876C416.775 136.71 411.263 134.08 407 132.031C402.738 129.983 398.407 127.966 397.375 127.551C396.344 127.135 395.5 126.651 395.5 126.474C395.5 126.298 396.826 125.689 398.446 125.121L401.392 124.089L411.813 129.25C417.544 132.088 422.685 134.554 423.237 134.729C423.789 134.904 426.089 135.943 428.349 137.037C430.681 138.166 432.806 138.894 433.262 138.718C434.356 138.299 434.033 135.916 432.786 135.204C432.256 134.901 431.356 134.154 430.786 133.543C429.802 132.487 426.235 130.812 417.228 127.176C410.805 124.583 407 122.798 407 122.377C407 121.842 410.18 120.733 417 118.889C420.163 118.034 424.224 116.907 426.025 116.385C427.825 115.863 430.591 115.284 432.171 115.099C435.14 114.75 436.72 113.557 436.157 112.09C436.009 111.706 436.157 111.067 436.486 110.671C436.814 110.276 436.942 109.509 436.771 108.968C436.544 108.255 436.739 107.895 437.48 107.66C439.219 107.108 439.62 105.691 438.457 104.212C437.895 103.498 437.569 102.697 437.733 102.432C438.257 101.584 437.447 99.5066 436.497 99.2576C435.991 99.1256 434.88 99.4416 434.027 99.9601ZM293.719 123.502C289.689 127.888 290.119 127.779 285.925 125.464C283.695 124.232 282.57 123.356 283.018 123.201C284.106 122.824 290.427 122.041 292.969 121.968L295.187 121.904L293.719 123.502ZM357.75 140.404C358.141 141.037 357.479 141.037 356.5 140.404C355.854 139.986 355.867 139.918 356.596 139.911C357.061 139.907 357.58 140.129 357.75 140.404Z" fill="black"/>
</svg>
