<svg width="436" height="159" viewBox="0 0 436 159" fill="none" xmlns="http://www.w3.org/2000/svg">
<path d="M169.803 65.5L147.803 99L136.303 96L128.303 93L131.303 87.5L145.303 72V62.5L131.303 67V61.5L125.303 49H136.303L139.803 45.5L153.303 47L164.303 43.5L185.803 47L181.803 61.5L169.803 65.5Z" fill="#60A845"/>
<path d="M190.303 103.5L177.303 102.5L174.803 84L180.803 76.5L200.803 43.5L210.303 48L215.303 45.5L219.303 47L221.303 52L212.803 57.5L210.303 64.5L196.303 78L187.803 95L199.303 89.5L210.303 83L201.803 99L190.303 103.5Z" fill="#60A845"/>
<path d="M203.803 127L215.303 112.5L227.303 113.5L239.303 106L243.803 96H230.803L221.303 93.5L222.303 78.5L236.303 53L252.803 52L273.303 51L269.803 61.5L273.303 71L257.803 106L245.803 125L236.303 129.5L231.803 133.5L227.303 132L212.803 133.5L203.803 127Z" fill="#60A845"/>
<path d="M287.303 102.5L269.803 107L271.303 97.5L279.803 89.5L282.303 78.5L290.303 50L298.303 51L300.803 60H303.303L322.803 48L330.803 49L334.303 57.5L322.803 71L311.303 67.5L307.303 73H300.803L287.303 102.5Z" fill="#60A845"/>
<path d="M371.803 93.5L357.803 100L338.303 96L334.303 81L338.303 67.5L354.303 51L363.803 47L381.303 52V61.5L385.803 64.5V67.5L377.803 73H367.803L357.803 74L352.803 78.5L359.803 84L370.303 80L377.803 83L371.803 93.5Z" fill="#60A845"/>
<path fill-rule="evenodd" clip-rule="evenodd" d="M415.478 1.04591C414.015 2.62391 414.008 3.20441 415.434 4.74291C416.466 5.85591 416.503 6.07491 415.855 7.22891C415.208 8.38141 415.25 8.63741 416.32 10.0849C418.036 12.4049 417.012 13.1219 414.656 11.2504C412.235 9.32641 407.637 8.37791 404.821 9.22141C402.242 9.99441 401.348 11.0229 401.185 13.4079C401.095 14.7244 400.617 15.7714 399.678 16.7129C398.912 17.4804 398.303 18.6449 398.303 19.3409C398.303 20.9469 400.583 23.6679 401.928 23.6679C403.037 23.6679 407.303 25.9704 407.303 26.5689C407.303 26.7659 406.83 27.2229 406.251 27.5839C405.466 28.0744 405.254 28.6114 405.415 29.7044C405.72 31.7824 404.494 31.6034 403.452 29.4179C402.788 28.0254 402.328 27.6679 401.199 27.6679C399 27.6679 398.433 29.4374 399.707 32.3189C400.548 34.2199 401.033 34.6849 402.634 35.1294C403.689 35.4224 405.295 35.6634 406.203 35.6649C407.975 35.6679 410.803 34.4429 410.803 33.6719C410.803 33.4129 411.59 32.4139 412.553 31.4514C413.515 30.4889 414.303 29.3144 414.303 28.8419C414.303 28.3689 414.784 27.4704 415.372 26.8449C416.325 25.8294 416.372 25.5434 415.811 24.1874C415.465 23.3519 414.988 22.6679 414.752 22.6679C414.515 22.6679 414.183 22.1144 414.013 21.4384C413.579 19.7084 412.53 18.9924 409.98 18.6844C407.251 18.3554 407.104 17.6884 409.504 16.5289C411.169 15.7254 411.449 15.7134 412.435 16.4039C413.939 17.4579 415.11 17.3604 416.397 16.0744C417.1 15.3704 417.561 15.1919 417.688 15.5744C417.797 15.9009 418.41 16.1679 419.05 16.1679C420.397 16.1679 422.803 13.5794 422.803 12.1294C422.803 11.6004 423.028 11.1679 423.303 11.1679C423.928 11.1679 423.932 11.4919 423.321 12.6339C422.677 13.8379 423.746 16.6679 424.845 16.6679C426.094 16.6679 428.079 14.8999 428.993 12.9734C429.96 10.9359 429.531 9.31391 427.632 7.81991C426.75 7.12591 426.518 6.63341 426.837 6.12891C427.694 4.77641 427.295 3.54591 425.455 1.86041C423.301 -0.112089 422.692 -0.208089 421.365 1.21591C420.4 2.25241 420.384 2.25292 419.861 1.27692C419.003 -0.325585 416.854 -0.439088 415.478 1.04591ZM393.844 0.526915C392.863 0.914915 390.838 3.27992 390.819 4.06042C390.81 4.41392 391.166 5.25792 391.61 5.93542C392.587 7.42692 394.426 7.54492 397.299 6.29992C400.131 5.07292 400.074 3.55192 397.11 1.27592C395.644 0.149416 395.109 0.0269153 393.844 0.526915ZM304.939 6.51542C304.452 7.25692 303.456 9.20692 302.727 10.8494C301.65 13.2734 301.502 14.0574 301.937 15.0139C302.576 16.4149 304.588 17.0429 305.871 16.2409C307.219 15.3994 307.725 15.5219 308.993 16.9959C310.028 18.1999 310.284 18.2724 311.719 17.7719C313.564 17.1289 313.674 17.2969 312.303 18.6679C311.031 19.9394 311.03 21.2664 312.301 22.4164C313.292 23.3129 313.287 23.3344 311.551 25.4529C309.606 27.8259 309.465 28.4634 310.544 30.0029C311.198 30.9374 311.198 31.1324 310.544 31.6754C309.687 32.3869 309.564 34.2294 310.324 34.9889C310.686 35.3509 310.609 35.7064 310.074 36.1504C308.988 37.0514 309.111 39.0299 310.292 39.6624C312.678 40.9389 316.303 38.0499 316.303 34.8729C316.303 33.9274 316.569 32.7274 316.895 32.2054C317.353 31.4719 317.348 30.7919 316.873 29.2059C316.262 27.1659 316.271 27.1394 318.563 24.3254C320.361 22.1184 320.801 21.2309 320.565 20.2894C319.983 17.9709 320.649 17.1679 323.152 17.1679C326.153 17.1679 328.996 15.5049 328.612 13.9744C328.465 13.3889 328.536 12.5999 328.77 12.2214C329.102 11.6834 329.334 11.7939 329.831 12.7254C330.18 13.3814 330.818 14.1774 331.248 14.4944C331.925 14.9934 331.718 15.4049 329.699 17.5634C328.144 19.2254 327.446 20.3664 327.604 20.9869C327.754 21.5794 327.091 22.8189 325.78 24.3974C323.831 26.7434 323.735 27.0119 323.986 29.3974C324.132 30.7834 324.33 32.7309 324.425 33.7249C324.619 35.7389 325.361 37.0129 327.985 39.8364C329.58 41.5529 329.941 41.7174 331.41 41.3974C333.535 40.9354 334.078 40.5279 337.472 36.8509C339.515 34.6379 340.303 33.3929 340.303 32.3784C340.303 31.5484 340.831 30.4209 341.593 29.6259C342.994 28.1634 343.809 24.5399 342.868 23.9579C342.524 23.7454 342.989 22.9489 344.114 21.8229C346.43 19.5069 347.352 17.3619 346.731 15.7299C346.357 14.7444 346.511 14.1504 347.507 12.7514C348.741 11.0164 348.67 9.76291 347.288 8.90891C346.206 8.24041 343.982 9.32642 342.394 11.2984C340.88 13.1779 340.763 13.5624 341.057 15.6984C341.375 18.0094 341.35 18.0619 339.091 19.9134C336.652 21.9119 336.057 23.9269 337.542 25.1594C338.492 25.9474 337.743 27.4889 336.032 28.2684C334.584 28.9284 334.06 30.2799 334.752 31.5724C335.669 33.2874 333.867 34.2534 332.162 32.9604C331.403 32.3844 331.36 32.0889 331.872 30.9649C332.389 29.8304 332.325 29.4439 331.419 28.2184L330.365 26.7924L332.648 24.7404C334.645 22.9459 334.894 22.5014 334.634 21.1974C334.463 20.3444 334.567 19.5639 334.876 19.3729C335.8 18.8014 337.377 14.6904 337.058 13.6849C336.848 13.0239 337.08 12.5544 337.809 12.1649C339.233 11.4024 338.973 9.14991 337.37 8.35441C335.971 7.66091 332.234 8.68741 330.521 10.2354C329.188 11.4394 328.907 11.4104 328.713 10.0474C328.623 9.41892 327.956 8.64191 327.192 8.27741C326.036 7.72441 325.586 7.75142 324.192 8.45592C323.291 8.91192 322.028 9.76492 321.388 10.3514L320.222 11.4179L319.221 10.0429C318.034 8.41391 316.618 8.29991 314.553 9.66791C312.674 10.9119 312.447 10.9094 312.044 9.63941C311.864 9.07341 311.174 8.40391 310.51 8.15141C309.846 7.89941 309.303 7.43041 309.303 7.11041C309.303 6.33541 307.768 5.20391 306.689 5.18391C306.214 5.17491 305.427 5.77442 304.939 6.51542ZM183.553 6.73891C181.557 7.72391 180.771 9.69492 179.057 18.0239C178.106 22.6404 177.097 27.2039 176.815 28.1644C176.533 29.1254 176.303 30.4969 176.303 31.2119C176.303 32.5284 177.642 34.1679 178.717 34.1679C179.775 34.1679 181.303 32.1944 181.303 30.8284C181.303 28.5474 182.411 26.0999 183.283 26.4539C183.706 26.6259 184.953 26.8874 186.053 27.0349C188.996 27.4304 189.803 27.9959 189.803 29.6659C189.803 31.2759 191.455 33.1679 192.861 33.1679C193.34 33.1679 194.099 32.7999 194.549 32.3499C195.562 31.3374 195.285 29.3644 193.248 23.0804C192.453 20.6284 191.803 18.2324 191.803 17.7559C191.803 17.2799 191.482 16.4319 191.089 15.8719C190.697 15.3114 189.898 13.3734 189.313 11.5644C187.909 7.21591 185.935 5.56291 183.553 6.73891ZM224.84 7.04391C222.395 8.29191 221.887 9.32441 222.88 11.0309C223.494 12.0854 223.555 12.6224 223.136 13.2709C222.731 13.8989 222.75 14.5764 223.208 15.8439C223.666 17.1099 223.696 18.1654 223.321 19.8369C222.764 22.3234 222.984 23.4389 224.12 23.8744C225.034 24.2254 227.177 22.0254 228.147 19.7409C228.811 18.1774 228.919 18.1184 229.745 18.8659C231.27 20.2459 232.767 19.8749 233.587 17.9139C233.99 16.9489 234.707 15.7074 235.18 15.1549C235.681 14.5699 235.976 13.5419 235.888 12.6949C235.775 11.6254 236.017 11.0884 236.799 10.6699C237.556 10.2644 237.818 9.71591 237.708 8.76341C237.436 6.41941 234.49 6.65642 231.523 9.26092L229.725 10.8394L230.062 9.04691C230.341 7.55641 230.227 7.16241 229.383 6.71091C227.96 5.94941 226.82 6.03291 224.84 7.04391ZM295.761 7.37092C295.647 7.48242 294.853 7.68291 293.997 7.81641C290.296 8.39341 288.851 10.2044 290.313 12.4339C291.248 13.8584 291.247 13.8954 290.283 14.7939C289.744 15.2959 289.303 16.1354 289.303 16.6589C289.303 17.1829 288.826 17.9449 288.244 18.3529C287.389 18.9514 287.231 19.4634 287.423 21.0064C287.634 22.7064 287.409 23.2149 285.394 25.6004C283.352 28.0174 283.178 28.4184 283.641 29.6459C284.027 30.6669 283.986 31.2409 283.479 31.9339C282.657 33.0579 282.597 36.1699 283.365 37.8559C283.924 39.0809 285.91 39.9699 286.825 39.4044C287.087 39.2424 287.973 39.5069 288.794 39.9924C290.095 40.7609 290.517 40.7914 292.069 40.2299C293.477 39.7209 294.006 39.7144 294.588 40.1974C295.177 40.6864 295.721 40.6314 297.287 39.9249C298.366 39.4384 299.62 39.1824 300.073 39.3564C300.987 39.7074 303.526 37.3259 304.072 35.6064C304.538 34.1404 303.001 32.6679 301.005 32.6679C300.101 32.6679 299.223 32.4429 299.053 32.1679C298.614 31.4584 296.983 31.5489 295.394 32.3709C294.239 32.9679 293.893 32.9704 293.095 32.3869C292.578 32.0089 291.964 31.8184 291.729 31.9634C290.999 32.4149 291.262 31.5419 292.153 30.5574C292.859 29.7774 292.907 29.3639 292.438 28.1214C291.885 26.6549 291.921 26.6024 294.213 25.5169C296.104 24.6219 296.585 24.1304 296.719 22.9564C296.822 22.0534 296.605 21.3474 296.146 21.0899C295.504 20.7309 295.526 20.4414 296.312 18.8994C296.811 17.9219 297.481 16.8059 297.802 16.4189C298.123 16.0324 298.245 15.2739 298.074 14.7339C297.902 14.1939 298.012 13.5979 298.316 13.4094C298.621 13.2209 298.747 12.7434 298.595 12.3484C298.444 11.9534 298.66 11.4994 299.075 11.3399C300.501 10.7929 300.972 9.18342 300.015 8.12642C299.252 7.28342 296.375 6.77242 295.761 7.37092ZM382.803 7.91791C382.46 8.33041 381.561 8.66791 380.805 8.66791C378.743 8.66791 375.266 10.3874 373.374 12.3419C371.749 14.0209 371.715 14.1374 372.322 15.9749C372.94 17.8474 372.923 17.8949 371.059 19.5059C369.231 21.0854 369.181 21.2179 369.494 23.5789C369.801 25.8924 369.711 26.1519 367.768 28.5934C365.494 31.4484 365.622 31.3739 364.254 30.6419C363.28 30.1204 363.28 30.1049 364.287 28.8244C364.846 28.1144 365.303 27.2339 365.303 26.8679C365.303 26.5024 365.722 25.9789 366.234 25.7044C367.759 24.8884 368.536 22.4384 367.819 20.7074C367.298 19.4484 367.352 19.0524 368.212 17.8324C369.473 16.0434 369.973 13.1814 369.323 11.4704C368.728 9.90541 367.429 9.33941 363.48 8.92541C361.87 8.75641 359.524 8.49741 358.267 8.34991C352.255 7.64391 348.62 11.1964 351.691 14.7764C352.358 15.5534 352.208 15.8494 350.115 17.8829C348.521 19.4324 347.803 20.5389 347.803 21.4454C347.803 22.1684 347.353 23.3324 346.803 24.0314C345.647 25.5009 345.579 26.2294 346.391 28.4739C346.946 30.0074 346.874 30.2184 345.141 32.1359C344.13 33.2549 343.303 34.5224 343.303 34.9524C343.303 36.5569 344.323 37.6679 345.796 37.6679C346.949 37.6679 347.562 37.2224 348.721 35.5429C349.527 34.3739 350.663 32.9894 351.245 32.4654C351.896 31.8794 352.303 30.9084 352.303 29.9409C352.303 28.6144 352.562 28.2749 353.963 27.7684C356.042 27.0169 356.946 27.0109 357.679 27.7444C358.114 28.1794 358.016 28.6249 357.279 29.5614C356.742 30.2444 356.303 31.0994 356.303 31.4619C356.303 32.7134 357.458 34.6494 358.379 34.9419C358.985 35.1344 359.303 35.7124 359.303 36.6239C359.303 39.8754 363.137 40.5409 364.346 37.4994C365.176 35.4124 365.159 35.4259 366.058 36.1719C367.258 37.1684 369.158 35.8884 370.296 33.3179C371.25 31.1604 372.813 29.9499 373.189 31.0779C373.466 31.9084 374.969 31.8109 377.03 30.8284C377.998 30.3664 378.881 30.0854 378.992 30.2034C379.103 30.3214 378.948 31.6039 378.648 33.0534C378.141 35.4959 378.182 35.7699 379.212 36.7999C380.244 37.8309 380.42 37.8574 381.65 37.1644C382.669 36.5909 383.124 35.7634 383.616 33.5924C383.969 32.0389 384.716 30.0139 385.278 29.0924C386.509 27.0744 386.569 25.7704 385.503 24.2479C384.742 23.1624 384.792 22.9714 386.503 20.3944C387.493 18.9034 388.303 17.3924 388.303 17.0369C388.303 16.6814 387.641 15.6659 386.832 14.7804C385.447 13.2644 385.403 13.0894 386.079 11.7939C387.083 9.86891 386.98 8.84892 385.691 7.94642C384.299 6.97092 383.594 6.96441 382.803 7.91791ZM149.553 8.21692C147.903 8.45192 146.047 8.86942 145.428 9.14542C143.1 10.1824 144.767 13.1679 147.675 13.1679H149.219L149.246 23.3389C149.261 28.9324 149.405 33.8524 149.566 34.2709C149.951 35.2754 152.082 36.2214 153.089 35.8349C154.387 35.3369 154.604 33.9199 154.115 29.1319C153.732 25.3699 153.778 24.4784 154.389 23.8669C155.656 22.5999 156.688 23.6079 159.134 28.5034C161.93 34.0979 163.55 35.4344 165.282 33.5754C165.843 32.9724 166.299 32.2404 166.294 31.9484C166.287 31.4474 162.752 24.6449 161.313 22.3604C160.717 21.4149 160.819 21.0884 162.283 19.2679C165.856 14.8209 164.445 10.6519 158.69 8.65891C155.643 7.60391 154.311 7.53942 149.553 8.21692ZM394.948 8.92142C391.702 10.4394 390.408 12.5069 391.322 14.7139C391.872 16.0434 391.797 16.2724 390.361 17.6134C388.669 19.1939 388.371 20.6874 389.553 21.6679C390.564 22.5069 390.498 23.0169 389.246 24.0479C388.665 24.5264 387.902 25.5804 387.551 26.3899C387.015 27.6244 387.036 28.1239 387.685 29.4839C388.4 30.9839 388.388 31.2114 387.525 32.5119C386.264 34.4114 386.233 34.9744 387.317 36.2924C388.184 37.3474 388.33 37.3709 389.647 36.6664C390.42 36.2529 391.562 34.8894 392.185 33.6364C393.159 31.6764 393.237 31.1294 392.746 29.7199C392.199 28.1504 392.269 27.9849 394.429 25.7499C396.66 23.4429 396.767 23.0249 395.697 20.8219C395.256 19.9134 395.391 19.4579 396.484 18.1584C398.024 16.3284 398.041 16.2299 397.047 14.8114C396.351 13.8179 396.38 13.6709 397.408 12.9504C398.023 12.5199 398.778 12.1679 399.087 12.1679C399.395 12.1679 400.027 11.7494 400.489 11.2379C401.151 10.5064 401.224 10.0254 400.829 8.98791C400.183 7.28791 398.481 7.26892 394.948 8.92142ZM201.402 9.00442C198.885 10.2449 196.933 14.6314 197.839 17.0134C198.595 19.0009 202.148 21.6179 204.136 21.6504C204.732 21.6599 206.251 22.1099 207.511 22.6499C209.498 23.5014 209.803 23.8299 209.803 25.1159C209.803 27.0129 207.616 28.6679 205.11 28.6679C203.645 28.6679 203.268 28.4534 203.024 27.4819C202.682 26.1199 200.734 24.8954 199.601 25.3299C199.179 25.4924 198.685 26.2134 198.504 26.9324C198.241 27.9829 198.508 28.5849 199.865 29.9964C203.281 33.5509 206.208 34.0644 209.83 31.7434C213.097 29.6504 213.917 28.5039 214.191 25.6504C214.428 23.1864 214.377 23.0679 212.176 20.9584C210.915 19.7504 208.843 18.4139 207.485 17.9329C206.147 17.4594 204.546 16.8734 203.928 16.6304C201.737 15.7714 203.08 12.6679 205.643 12.6679C206.516 12.6679 207.592 13.4079 209.096 15.0429C210.931 17.0384 211.422 17.3299 212.166 16.8669C213.529 16.0194 213.491 14.4464 212.052 12.1674C209.826 8.64041 205.03 7.21642 201.402 9.00442ZM117.553 8.89792C117.278 8.99842 116.412 9.22241 115.63 9.39591C112.769 10.0294 109.303 15.3859 109.303 19.1719C109.303 21.8284 111.719 23.6679 115.208 23.6679C118.226 23.6679 119.242 24.5559 118.382 26.4429C118.07 27.1274 117.214 27.9164 116.48 28.1959C115.355 28.6234 114.94 28.5149 113.849 27.5109C111.498 25.3484 108.373 27.2469 109.823 29.9564C110.593 31.3944 113.782 33.6679 115.029 33.6679C116.575 33.6679 121.367 30.9819 122.394 29.5399C123.701 27.7034 124.191 23.5774 123.299 21.9109C122.512 20.4404 119.546 19.2039 116.532 19.0899C115.283 19.0429 114.153 18.8309 114.023 18.6189C113.614 17.9574 115.377 14.1634 116.33 13.6534C116.829 13.3864 118.237 13.1679 119.459 13.1679C120.822 13.1679 121.92 12.8784 122.302 12.4189C122.842 11.7679 123.142 11.8619 124.595 13.1379C125.514 13.9449 127.512 14.9979 129.034 15.4779L131.803 16.3504V24.2389V32.1274L133.173 33.3979C134.839 34.9429 134.876 34.9449 136.152 33.5429C137.031 32.5774 137.227 31.4619 137.539 25.6679C137.739 21.9554 137.936 18.4679 137.977 17.9179C138.025 17.2879 138.474 16.8584 139.19 16.7564C140.85 16.5209 141.95 14.6214 141.347 13.0339C140.724 11.3959 140.571 11.3159 136.365 10.4309C131.524 9.41291 125.151 9.25642 124.098 10.1304C123.41 10.7014 123.15 10.6859 122.418 10.0294C121.558 9.25742 118.509 8.54842 117.553 8.89792ZM168.865 10.5429C167.826 11.4104 167.823 11.4714 168.582 17.6679C169.016 21.2114 169.215 25.2429 169.042 26.9769C168.769 29.7224 168.86 30.1784 169.934 31.4279C170.875 32.5219 171.404 32.7509 172.407 32.4989C174.066 32.0829 174.295 31.0464 174.01 25.2244C173.316 10.9914 172.187 7.77041 168.865 10.5429ZM268.803 10.1354C266.511 10.8354 263.342 12.6604 262.862 13.5574C262.556 14.1289 262.572 14.7729 262.906 15.3704C263.333 16.1339 263.142 16.5189 261.816 17.5559C260.46 18.6174 260.254 19.0474 260.503 20.2964C260.73 21.4284 260.503 22.1304 259.539 23.2759C258.552 24.4479 258.342 25.1209 258.575 26.3619C258.804 27.5804 258.633 28.1669 257.838 28.8859C256.652 29.9589 256.47 32.2689 257.503 33.1264C257.968 33.5129 258.12 34.3274 257.955 35.5624C257.765 36.9834 257.972 37.7534 258.836 38.8499C259.867 40.1574 260.16 40.2549 262.217 39.9729C263.924 39.7389 264.689 39.8624 265.375 40.4834C266.586 41.5794 269.534 41.0944 271.256 39.5164C271.969 38.8624 273.278 38.0414 274.165 37.6924C277.708 36.2964 280.942 30.9634 280.73 26.8654C280.652 25.3654 280.847 24.4494 281.304 24.1669C281.875 23.8139 281.886 23.4974 281.363 22.3494C280.782 21.0754 280.837 20.8809 282.016 20.0219C283.314 19.0759 283.765 17.0124 282.803 16.4179C281.879 15.8469 282.291 15.2954 283.88 14.9774C286.832 14.3869 287.577 12.9424 285.831 11.1959C284.721 10.0859 283.662 10.1734 279.538 11.7164C275.32 13.2949 274.516 14.5019 276.087 16.8999C276.819 18.0169 276.803 18.1329 275.848 18.6434C274.267 19.4899 273.663 20.9579 274.407 22.1484C274.962 23.0369 274.835 23.3179 273.307 24.5934C271.675 25.9564 271.616 26.1114 272.23 27.4579C272.838 28.7924 272.782 28.9609 271.336 30.1499C270.217 31.0694 269.795 31.8414 269.798 32.9594C269.804 35.0664 269.401 35.3059 267.782 34.1529C267.021 33.6114 266.06 33.1679 265.647 33.1679C265.156 33.1679 264.982 32.8399 265.145 32.2189C265.281 31.6969 265.155 30.8254 264.864 30.2819C264.444 29.4969 264.537 29.1104 265.319 28.4034C266.433 27.3949 266.587 26.1519 265.705 25.2704C265.242 24.8069 265.475 24.3134 266.745 23.0724C267.949 21.8949 268.321 21.1519 268.151 20.2619C268.003 19.4889 268.271 18.6994 268.894 18.0769C269.596 17.3749 269.783 16.7149 269.563 15.7139C269.29 14.4719 269.432 14.2759 270.905 13.8549C272.704 13.3414 273.359 11.6904 272.28 10.3904C271.63 9.60692 270.747 9.54191 268.803 10.1354ZM73.5529 11.4704C68.0069 12.7469 66.9819 13.3684 67.5374 15.1184C67.7114 15.6674 68.3054 16.2599 68.8569 16.4349C69.8189 16.7404 69.8494 17.0764 69.6179 24.7399C69.4689 29.6794 69.1574 32.9904 68.8014 33.4194C67.7889 34.6394 68.4914 36.3264 70.7169 38.0204C74.4844 40.8889 78.4024 40.0954 83.1964 35.4929C88.2624 30.6294 89.4694 28.5564 89.4994 24.6679C89.5154 22.5054 89.2359 20.8819 88.6624 19.8164C86.1269 15.1009 77.7889 10.4954 73.5529 11.4704ZM92.0884 11.9534C91.3579 12.6844 91.2024 14.1659 91.1224 21.1679C91.0879 24.1879 91.8599 30.4594 92.5634 32.8809C93.4639 35.9774 94.9989 37.6064 97.3564 37.9669C98.7614 38.1819 99.4939 37.8994 101.619 36.3224C104.375 34.2769 106.125 31.4194 106.539 28.2909C107.167 23.5479 107.234 15.7344 106.651 15.2849C105.488 14.3874 104.39 14.2444 103.524 14.8774C102.799 15.4074 102.617 16.4974 102.468 21.1919C102.27 27.4194 101.638 30.5624 100.401 31.4669C98.6454 32.7509 97.9679 31.5269 96.5369 24.4819C96.0969 22.3174 95.7239 18.7669 95.7079 16.5919C95.6824 13.1614 95.5394 12.5399 94.6294 11.9024C93.3114 10.9794 93.0579 10.9844 92.0884 11.9534ZM245.11 11.9134C244.592 12.3059 243.156 12.7789 241.918 12.9644C239.216 13.3694 237.829 14.5804 238.149 16.2549C238.323 17.1619 238.068 17.6244 237.115 18.1344C235.705 18.8894 234.874 21.4394 235.752 22.3174C236.622 23.1869 236.442 23.4389 234.088 24.6494C232.674 25.3769 231.648 26.3349 231.248 27.3009C230.667 28.7039 230.722 28.8999 232.013 30.0109L233.405 31.2084L232.104 32.4144C231.388 33.0774 230.803 33.8169 230.803 34.0569C230.803 34.8899 233.123 36.6679 234.21 36.6679C235.037 36.6679 235.303 36.9664 235.303 37.8944C235.303 39.7329 236.294 41.5489 237.463 41.8549C238.035 42.0044 239.526 41.6729 240.777 41.1184L243.053 40.1104L243.739 41.1389C244.222 41.8639 244.961 42.1669 246.239 42.1644C247.729 42.1619 248.253 41.8664 249.178 40.5084C251.062 37.7409 250.469 35.1679 247.946 35.1679C247.31 35.1679 246.359 34.8994 245.833 34.5709C245.091 34.1074 244.581 34.1084 243.558 34.5744C242.136 35.2224 242.172 34.8294 243.698 33.0524C244.263 32.3934 244.304 32.0224 243.87 31.4989C243.047 30.5079 243.722 27.7609 244.878 27.3939C246.595 26.8489 248.364 24.5349 248.048 23.2459C247.842 22.4084 248.116 21.7179 249.008 20.8269C249.694 20.1409 250.477 19.7164 250.748 19.8844C251.512 20.3564 257.163 18.6224 258.294 17.5689C260.018 15.9629 259.311 13.6864 257.078 13.6519C256.514 13.6434 255.616 13.3059 255.082 12.9019C254.548 12.4984 253.48 12.1679 252.707 12.1679C251.935 12.1679 251.303 11.9429 251.303 11.6679C251.303 10.8989 246.182 11.1019 245.11 11.9134ZM158.597 13.7049C160.145 14.9894 158.456 17.3499 155.665 17.8029C153.841 18.0989 153.803 18.0724 153.81 16.5114C153.813 15.6349 153.958 14.3874 154.132 13.7394C154.407 12.7124 154.669 12.5964 156.17 12.8399C157.117 12.9939 158.209 13.3829 158.597 13.7049ZM230.803 12.8124C230.803 12.8914 230.353 13.8389 229.803 14.9179C229.023 16.4464 228.803 16.6339 228.803 15.7669C228.803 14.5734 229.799 12.6679 230.423 12.6679C230.632 12.6679 230.803 12.7329 230.803 12.8124ZM62.6549 13.8874C62.1634 14.3789 61.8249 16.3974 61.5864 20.2624C61.2054 26.4299 60.5259 29.8649 59.7784 29.4029C59.0234 28.9359 57.5184 25.3069 56.0534 20.4179C54.5589 15.4324 53.4894 13.8824 51.8924 14.3894C50.4239 14.8554 49.9359 16.9179 49.2829 25.4179C48.5539 34.9124 48.7159 37.5799 50.0759 38.4789C50.9469 39.0539 51.2634 39.0394 52.2009 38.3829C53.1974 37.6854 53.3029 37.1819 53.3029 33.1394C53.3029 30.6799 53.4989 28.6679 53.7379 28.6679C54.1444 28.6679 54.4619 29.6454 55.8124 35.0499C56.2194 36.6784 56.7834 37.4584 58.1989 38.3519C62.5374 41.0894 63.6999 40.4809 64.3314 35.1424C64.5739 33.0939 65.0024 29.5054 65.2839 27.1679C65.9899 21.3024 65.9489 14.5139 65.2029 13.7679C64.4049 12.9699 63.5319 13.0104 62.6549 13.8874ZM187.596 20.9724C187.771 21.9049 187.72 22.6664 187.483 22.6649C186.443 22.6584 183.303 21.5849 183.303 21.2364C183.303 20.5384 184.343 14.9329 184.615 14.1679C184.916 13.3169 187.091 18.2794 187.596 20.9724ZM363.803 14.2209C363.803 14.5249 363.226 15.4584 362.522 16.2954C361.562 17.4369 361.28 18.2669 361.397 19.6169C361.545 21.3319 361.462 21.4389 359.616 21.8954C357.885 22.3234 357.579 22.2509 356.739 21.2139C355.807 20.0624 355.812 20.0394 357.322 18.3199C358.353 17.1449 358.746 16.2769 358.54 15.6269C358.309 14.8989 358.477 14.6679 359.24 14.6679C359.792 14.6679 360.383 14.4429 360.553 14.1679C360.974 13.4859 363.803 13.5314 363.803 14.2209ZM380.719 14.7929C381.036 15.4119 381.552 16.2719 381.866 16.7049C382.323 17.3349 382.118 17.9319 380.837 19.7004C379.561 21.4614 379.296 22.2274 379.531 23.4779C379.783 24.8209 379.662 25.0824 378.689 25.2934C378.064 25.4284 377.215 25.6834 376.802 25.8594C376.255 26.0929 375.89 25.6694 375.456 24.2989C374.874 22.4569 374.905 22.3739 376.934 20.2954C378.979 18.2009 378.997 18.1499 378.35 16.3589C377.802 14.8449 377.806 14.4734 378.373 14.1139C379.476 13.4154 380.106 13.5974 380.719 14.7929ZM43.9299 14.5324C42.9684 14.8679 41.8884 19.4434 41.5969 24.4179C41.4519 26.8929 41.1924 31.1864 41.0199 33.9594C40.7524 38.2734 40.8274 39.1209 41.5409 39.8344C42.5279 40.8214 43.9774 40.9174 44.6889 40.0429C45.3029 39.2884 46.6229 29.0129 47.0834 21.4019C47.3479 17.0309 47.2759 15.7749 46.7354 15.3544C45.7724 14.6049 44.6584 14.2784 43.9299 14.5324ZM19.8234 16.4774C16.7324 19.0784 15.7239 23.4844 17.6344 26.0429C18.8149 27.6244 22.3264 29.5304 24.8589 29.9644C27.7789 30.4644 28.1894 30.8969 27.2874 32.5239C26.8664 33.2834 25.9239 34.1149 25.1929 34.3719C24.0429 34.7764 23.6649 34.6264 22.3829 33.2534C20.5479 31.2894 18.5314 31.1189 17.7379 32.8614C16.6924 35.1554 19.6674 38.7789 22.6409 38.8339C26.5869 38.9069 29.1449 37.6604 31.1779 34.6729C32.8424 32.2274 32.6964 29.5879 30.8089 27.9994C29.5404 26.9324 24.9474 25.1679 23.4379 25.1679C23.1844 25.1679 22.4764 24.6349 21.8644 23.9829C21.0269 23.0919 20.8349 22.4654 21.0884 21.4544C21.9019 18.2134 26.3949 17.8624 25.9229 21.0764C25.7509 22.2494 25.9464 22.7094 26.8159 23.1749C28.7329 24.2009 30.1174 23.1489 30.5374 20.3464C30.8759 18.0889 30.8049 17.8644 29.3424 16.5574C27.9849 15.3444 27.3799 15.1679 24.5834 15.1679C21.8569 15.1679 21.1479 15.3629 19.8234 16.4774ZM81.3709 18.6479C86.1139 21.8579 85.8429 27.6164 80.7864 31.0574C78.9994 32.2734 76.9364 32.9679 76.4764 32.5079C76.3219 32.3539 76.5574 29.7544 76.9994 26.7319C77.4414 23.7089 77.8029 20.2154 77.8029 18.9679C77.8029 16.4114 78.0344 16.3904 81.3709 18.6479ZM6.03743 18.9819C4.95443 20.1504 1.88494 28.8504 1.03294 33.1679C0.842941 34.1304 0.498938 35.1534 0.268438 35.4409C0.0379375 35.7289 -0.064064 36.6289 0.041936 37.4409C0.147436 38.2534 0.249438 39.1994 0.268438 39.5429C0.323438 40.5404 2.99544 40.2674 3.93694 39.1679C4.49144 38.5204 5.41194 38.1679 6.54794 38.1679C8.07994 38.1679 8.30294 38.3244 8.30294 39.4004C8.30294 40.7834 9.56244 41.6679 11.5324 41.6679C13.3214 41.6679 13.8199 40.0854 13.3139 36.0084C13.0889 34.1919 12.8714 29.6044 12.8309 25.8139C12.7904 22.0234 12.5469 18.7119 12.2904 18.4554C12.0334 18.1984 10.7854 17.9269 9.51693 17.8524C7.59243 17.7389 7.01593 17.9264 6.03743 18.9819ZM8.38344 28.5429C8.63194 32.7624 8.41294 33.6214 6.99494 33.9769C6.31394 34.1479 5.64644 34.1779 5.51194 34.0434C5.18194 33.7134 7.45694 25.6679 7.87994 25.6679C8.06394 25.6679 8.29044 26.9619 8.38344 28.5429ZM179.869 41.2549C176.862 42.6349 169.309 42.8004 166.851 41.5404C165.915 41.0604 164.878 40.6679 164.546 40.6679C164.214 40.6679 161.995 41.5679 159.614 42.6679C154.805 44.8899 153.591 45.1334 154.008 43.7929C154.939 40.7989 150.006 40.6809 146.934 43.6234C145.822 44.6884 145.804 44.6889 143.934 43.7509C139.286 41.4194 134.379 42.4614 134.319 45.7929C134.302 46.7044 132.59 47.0369 132.089 46.2259C131.537 45.3344 127.262 43.6679 125.525 43.6679C122.982 43.6679 121.894 44.4204 121.515 46.4429C121.238 47.9219 121.476 48.6794 122.994 51.1374C123.989 52.7494 124.803 54.2489 124.803 54.4694C124.803 54.6899 125.49 55.5799 126.331 56.4469L127.859 58.0239L126.655 59.4709C124.392 62.1899 122.894 65.0034 122.797 66.7109C122.627 69.7444 122.784 70.4594 123.88 71.6354C124.828 72.6539 125.281 72.7584 127.664 72.5124C129.153 72.3589 131.216 71.7929 132.247 71.2554C133.577 70.5624 134.37 70.4159 134.973 70.7534C135.983 71.3184 137.541 70.8914 139.35 69.5539C140.853 68.4424 142.969 68.5319 143.195 69.7164C143.299 70.2639 142.63 70.7889 141.071 71.3844C138.608 72.3249 136.619 74.9599 135.987 78.1204C135.808 79.0189 135.299 79.8899 134.857 80.0559C133.253 80.6579 127.936 85.2624 126.17 87.5784C121.792 93.3194 122.424 95.8094 128.279 95.8834L131.005 95.9179L132.484 98.5059C134.023 101.195 135.073 101.866 136.499 101.068C137.059 100.754 138.119 100.856 139.695 101.373C142.712 102.365 149.582 102.821 150.896 102.118C152.11 101.468 153.303 98.7479 153.303 96.6299C153.303 95.1689 153.398 95.0834 154.668 95.4024C157.288 96.0599 158.05 95.8694 158.725 94.3894C159.348 93.0214 158.855 91.4369 157.683 91.0429C156.672 90.7024 158.14 89.2669 160.962 87.8374C162.322 87.1484 163.88 86.1694 164.424 85.6619C165.702 84.4714 166.245 81.8739 165.667 79.7109C165.416 78.7724 165.332 77.3944 165.481 76.6499C165.834 74.8879 168.409 72.3339 170.238 71.9319C172.14 71.5144 173.972 69.5019 174.097 67.6944C174.254 65.4394 174.652 65.1679 177.8 65.1679C181.019 65.1679 182.708 64.6909 183.975 63.4239C184.608 62.7909 184.803 62.7579 184.803 63.2829C184.803 64.3069 178.822 70.1679 177.777 70.1679C175.986 70.1679 175.159 71.6459 175.559 74.1339C176.273 78.5764 176.237 78.7009 173.968 79.5964C171.192 80.6909 169.41 82.4439 168.716 84.7614C168.234 86.3699 168.274 86.8074 168.974 87.5809C169.43 88.0844 169.803 88.6454 169.803 88.8269C169.803 89.0084 168.806 90.4669 167.588 92.0689C165.747 94.4894 165.317 95.4819 165.038 97.9509C164.742 100.562 164.826 101.034 165.732 101.854C167.147 103.134 169.003 102.599 169.797 100.68C170.682 98.5459 171.378 99.3264 171.045 102.08C170.758 104.459 170.912 104.917 172.383 106.067C173.068 106.602 173.83 106.566 176.758 105.86L180.302 105.004L183.01 106.374L185.717 107.744L188.885 106.872C190.627 106.393 192.497 105.701 193.039 105.334C193.581 104.968 194.325 104.668 194.691 104.668C195.808 104.668 199.89 102.642 202.932 100.579C205.59 98.7749 205.875 98.3934 206.653 95.5949C207.216 93.5679 207.886 92.3089 208.675 91.7919C210.213 90.7839 211.089 88.9814 211.476 86.0229C211.648 84.7054 212.062 83.1304 212.396 82.5229C213.567 80.3934 213.381 79.7279 211.318 78.6759C210.232 78.1214 208.94 77.6754 208.448 77.6844C207.262 77.7064 205.518 79.2029 205.084 80.5709C204.851 81.3044 204.332 81.6679 203.519 81.6679C202.265 81.6679 201.895 80.9789 202.837 80.3969C203.13 80.2154 203.333 79.3584 203.286 78.4924C203.156 76.0724 203.237 75.7339 204.178 74.7844C204.659 74.2989 205.439 73.3059 205.911 72.5779C206.418 71.7964 207.441 71.1119 208.411 70.9059C209.314 70.7139 210.439 70.2164 210.91 69.8009C211.814 69.0039 213.113 65.1219 213.488 62.0969C213.816 59.4554 214.68 58.4054 217.513 57.2074C220.938 55.7584 222.803 53.2879 222.803 50.1984C222.803 48.9179 222.456 47.3954 222.024 46.7784C219.625 43.3539 216.378 41.2594 214.428 41.8784C213.906 42.0439 212.86 42.8254 212.104 43.6149L210.728 45.0504L207.993 43.4029C204.631 41.3784 201.163 40.7949 198.674 41.8349C197.129 42.4809 196.792 42.9484 196.059 45.4699C195.597 47.0614 195.311 48.9944 195.424 49.7659C195.548 50.6099 195.4 51.1679 195.053 51.1679C194.736 51.1679 193.96 51.7189 193.327 52.3919C192.695 53.0654 191.525 53.7594 190.727 53.9344C189.93 54.1094 188.676 55.0069 187.941 55.9284C186.632 57.5689 185.803 57.7689 185.803 56.4444C185.803 56.0789 186.59 54.6354 187.553 53.2359C189.37 50.5939 189.515 49.8594 188.985 45.9909C188.704 43.9384 188.419 43.5174 186.486 42.2959C185.286 41.5379 184.304 40.7489 184.304 40.5429C184.302 39.8749 182.107 40.2269 179.869 41.2549ZM365.052 43.4619C363.985 44.4514 363.349 44.6784 362.354 44.4264C358.8 43.5254 357.992 43.5734 356.519 44.7709C355.712 45.4264 354.114 46.3724 352.967 46.8734C350.73 47.8504 350.115 49.0359 350.574 51.4939C350.81 52.7614 350.627 53.0139 348.907 53.7929C347.844 54.2744 346.526 54.6679 345.976 54.6679C345.063 54.6679 342.803 56.5439 342.803 57.3014C342.803 57.4769 341.714 58.7089 340.383 60.0399C339.052 61.3709 337.811 63.0679 337.624 63.8119C337.437 64.5554 336.259 66.1094 335.005 67.2649C331.952 70.0794 331.239 71.5634 331.617 74.3179L331.921 76.5359L329.737 77.2324C327.591 77.9164 327.554 77.9649 327.645 80.0239C327.7 81.2744 328.178 82.7159 328.829 83.5964C329.429 84.4084 329.793 85.2789 329.638 85.5304C328.959 86.6284 316.276 90.9094 309.803 92.2254C301.47 93.9194 299.187 95.0784 302.045 96.1649C305.38 97.4329 310.865 96.4619 322.663 92.5134L330.774 89.7994L331.63 91.1084C332.101 91.8289 332.782 92.7154 333.144 93.0784C333.507 93.4419 333.803 94.4609 333.803 95.3424C333.803 96.2239 334.154 97.4474 334.584 98.0604C335.515 99.3904 336.122 99.1219 327.553 101.174C316.586 103.8 315.222 104.106 309.928 105.126C307.109 105.669 304.187 106.408 303.434 106.769C301.521 107.686 301.389 109.027 303.141 109.734C304.964 110.469 306.652 110.354 311.282 109.178C313.356 108.651 316.178 108.076 317.553 107.899C323.463 107.139 330.024 105.538 336.635 103.242C343.622 100.815 344.803 100.702 344.803 102.459C344.803 103.776 347.055 103.648 349.399 102.197C351.942 100.623 352.388 100.761 352.998 103.31C353.412 105.045 355.479 105.976 357.187 105.198C357.827 104.906 358.833 104.668 359.424 104.668C360.816 104.668 364.183 102.332 364.576 101.094C364.743 100.567 365.395 99.5804 366.024 98.9019C367.1 97.7404 367.323 97.6974 369.822 98.1714C371.282 98.4484 372.563 98.7614 372.669 98.8674C373.152 99.3504 364.826 103.745 354.553 108.429C350.399 110.323 348.653 111.522 349.069 112.194C349.202 112.41 348.625 112.737 347.785 112.922C346.946 113.106 345.875 113.651 345.406 114.132C344.937 114.614 344.156 115.15 343.672 115.324C342.937 115.588 342.842 115.434 343.102 114.398C343.766 111.753 342.061 111.441 336.426 113.173C334.872 113.651 333.987 113.684 333.135 113.296C332.233 112.885 330.068 113.139 323.512 114.425C318.859 115.338 314.378 116.208 313.553 116.358C311.424 116.746 296.4 120.053 294.303 120.595C292.095 121.166 275.867 124.823 270.553 125.947C268.353 126.412 265.203 127.098 263.553 127.471C261.903 127.844 259.54 128.282 258.303 128.444C257.065 128.606 255.265 128.956 254.303 129.223C252.524 129.716 246.97 130.805 241.57 131.719C238.175 132.294 237.158 132.923 237.562 134.196C237.717 134.684 237.653 135.201 237.42 135.345C236.933 135.646 225.675 137.168 223.936 137.168C222.805 137.168 222.796 137.131 223.566 135.642C224.572 133.697 225.585 133.316 226.808 134.423C227.493 135.042 228.538 135.282 230.373 135.24C234.013 135.158 234.672 134.855 236.09 132.609C237.26 130.756 237.453 130.651 239.108 130.961C240.655 131.251 241.089 131.086 242.582 129.639C243.52 128.73 244.422 128.12 244.586 128.284C244.75 128.448 245.65 128.263 246.586 127.872C248.196 127.199 260.449 124.125 264.379 123.408C265.928 123.125 266.254 123.226 266.522 124.071C266.88 125.2 269.101 125.952 269.976 125.242C270.293 124.984 272.465 124.389 274.803 123.92C278.663 123.146 305.29 116.78 312.553 114.895C315.194 114.21 324.855 111.922 329.803 110.811C331.324 110.469 331.553 110.223 331.553 108.925C331.553 107.919 331.276 107.378 330.706 107.268C330.24 107.179 322.027 109.016 312.456 111.352C302.884 113.688 293.703 115.865 292.053 116.19C290.403 116.514 288.715 116.948 288.303 117.153C287.89 117.359 286.822 117.665 285.928 117.835C284.452 118.114 284.303 118.03 284.303 116.915C284.303 115.291 282.715 114.907 279.101 115.658C277.57 115.976 276.205 116.23 276.069 116.223C275.932 116.217 275.037 116.539 274.078 116.939C271.785 117.897 271.803 117.903 271.803 116.168C271.803 114.863 271.623 114.668 270.428 114.673C269.671 114.676 267.928 115.024 266.553 115.446C263.668 116.331 256.937 118.168 256.579 118.168C256.446 118.168 256.825 117.34 257.422 116.328C258.019 115.316 258.66 113.235 258.846 111.703C259.095 109.654 259.71 108.125 261.173 105.918C263.551 102.331 264.303 100.265 264.303 97.3184C264.303 94.4279 265.274 92.6894 267.722 91.1994C270.455 89.5359 271.914 86.8099 271.874 83.4434C271.849 81.4129 272.073 80.5784 272.822 79.9004C273.362 79.4124 273.803 78.8069 273.803 78.5549C273.803 78.3029 274.14 77.7589 274.553 77.3464C274.965 76.9339 275.303 76.1974 275.303 75.7099C275.303 75.2219 275.753 74.4154 276.303 73.9179C278.162 72.2354 277.307 68.4154 274.305 64.9969L272.682 63.1489L274.026 61.1184C274.765 60.0014 276.362 58.4869 277.574 57.7529C279.579 56.5379 280.28 55.6174 280.607 53.7644C280.756 52.9194 278.104 49.9024 276.247 48.8054C275.453 48.3359 274.803 47.5784 274.803 47.1214C274.803 45.3799 273.418 44.9904 266.893 44.8959C263.406 44.8449 259.642 44.6394 258.529 44.4379C255.96 43.9739 255.043 44.8734 255.461 47.4484C255.833 49.7424 255.155 49.9894 251.95 48.7259C249.495 47.7584 248.409 47.5414 242.799 46.8984C240.411 46.6249 239.853 46.7344 238.596 47.7229C237.585 48.5184 236.428 48.8794 234.77 48.9169C231.76 48.9854 230.803 49.7704 230.803 52.1684C230.803 53.7694 230.589 54.1354 229.352 54.6474C225.969 56.0484 224.454 59.1289 225.337 62.8089C226.029 65.6954 225.784 66.0539 222.767 66.5644C220.609 66.9299 220.541 66.9984 220.1 69.2724C219.735 71.1529 219.808 71.8519 220.479 72.8764C221.289 74.1114 221.263 74.2114 219.557 76.4459C217.895 78.6234 217.49 80.1294 217.683 83.4179C218.045 89.5914 218.001 89.9239 216.66 91.2654C214.648 93.2774 214.484 94.7854 215.996 97.3664C217.907 100.626 219.846 101.628 224.416 101.716C226.498 101.757 228.433 101.646 228.716 101.471C229 101.296 230.272 101.431 231.543 101.771C233.676 102.341 234.035 102.295 236.203 101.166C237.496 100.493 238.733 99.6564 238.953 99.3054C239.173 98.9549 239.566 98.6679 239.828 98.6679C240.687 98.6679 240.325 100.403 239.085 102.227C237.968 103.872 237.614 104.045 234.762 104.343C231.024 104.734 230.303 105.25 230.303 107.537C230.303 109.163 230.21 109.267 228.961 109.028C228.064 108.856 226.989 109.169 225.721 109.97C224.677 110.629 223.724 111.168 223.603 111.168C223.482 111.168 221.794 110.073 219.852 108.735C216.226 106.237 212.865 104.95 210.751 105.248C209.675 105.401 209.549 105.672 209.517 107.918C209.45 112.71 207.619 115.656 204.695 115.675C202.831 115.688 202.464 116.252 202.099 119.668C201.814 122.329 200.159 128.366 199.512 129.102C199.423 129.204 198.978 128.915 198.524 128.46C198.069 128.006 197.327 127.75 196.875 127.893C196.423 128.035 193.465 128.692 190.303 129.353C187.14 130.014 180.953 131.351 176.553 132.325C172.153 133.299 167.179 134.249 165.501 134.438C162.708 134.751 162.426 134.695 162.184 133.769C162.039 133.213 160.153 131.557 157.993 130.088C155.833 128.619 153.291 126.668 152.344 125.753C151.397 124.837 149.337 123.099 147.767 121.89C146.196 120.681 144.269 119.012 143.483 118.18C141.721 116.312 141.299 116.303 139.383 118.093C138.198 119.199 137.597 120.513 136.692 123.968L135.526 128.418L130.789 128.75C123.682 129.247 111.803 129.469 111.803 129.104C111.803 128.764 113.174 127.801 115.896 126.231C121.007 123.282 126.213 119.967 127.411 118.9C128.552 117.883 128.729 117.408 128.473 116.049C128.162 114.397 127.007 112.668 126.215 112.668C125.977 112.668 124.831 112.057 123.668 111.309C121.566 109.96 119.792 108.919 115.108 106.29C113.764 105.535 112.189 104.641 111.608 104.304C111.028 103.966 110.103 103.827 109.553 103.994C107.853 104.512 105.803 106.194 105.795 107.077C105.778 108.913 105.056 109.183 99.5179 109.425C96.5119 109.556 92.2529 109.801 90.0529 109.97C87.8529 110.139 78.8529 110.353 70.0529 110.446C61.2529 110.539 53.6519 110.627 53.1619 110.641C51.6539 110.686 51.3449 112.633 52.3719 115.618C52.8839 117.106 53.3029 118.863 53.3029 119.521C53.3029 120.179 53.6469 121.383 54.0674 122.196C54.7809 123.576 54.9709 123.653 56.9049 123.343C59.9539 122.856 88.7444 122.941 98.2739 123.465L106.495 123.918L107.608 126.793L108.72 129.668L107.136 129.706C106.265 129.727 105.215 129.809 104.803 129.889C104.39 129.969 100.79 130.185 96.8029 130.369C92.8154 130.553 88.6529 130.937 87.5529 131.221C86.4529 131.505 85.0534 131.859 84.4434 132.008C82.6754 132.439 82.0589 133.484 82.7189 134.933C83.0284 135.612 83.5114 136.168 83.7924 136.168C84.4689 136.168 84.4514 138.517 83.7714 138.937C83.4789 139.118 82.8129 138.879 82.2909 138.407C81.5324 137.721 80.8094 137.612 78.6974 137.869C68.9104 139.057 55.9679 139.562 27.0529 139.883C17.1529 139.993 8.64744 140.243 8.15144 140.439C7.46944 140.708 7.28694 141.236 7.40144 142.606L7.55294 144.418L21.2389 144.234C28.8589 144.132 34.8354 144.243 34.7229 144.484C33.1804 147.791 33.6184 147.593 28.3689 147.358C21.5194 147.052 5.94593 148.143 5.25393 148.977C4.88993 149.416 4.86344 150.097 5.17444 151.026C5.58144 152.24 5.90643 152.423 7.72493 152.459C8.87093 152.481 11.1009 152.306 12.6809 152.07C14.2604 151.834 19.2654 151.647 23.8029 151.655C30.8099 151.666 32.1429 151.79 32.6509 152.476C33.1534 153.156 34.1879 153.263 39.1509 153.146C47.0604 152.96 68.1314 153.113 72.8029 153.389C74.8654 153.511 80.9404 153.74 86.3029 153.898C91.6654 154.056 98.1904 154.296 100.803 154.431C105.536 154.676 111.912 154.904 128.053 155.408C136.704 155.678 142.525 155.927 152.803 156.464C155.965 156.63 167.44 156.708 178.303 156.638C205.438 156.463 207.079 156.466 211.014 156.698C213.468 156.843 214.534 156.723 214.68 156.285C214.931 155.534 224.199 155.458 229.624 156.163C231.588 156.418 240.701 156.876 249.874 157.18C259.047 157.484 267.79 157.813 269.303 157.91C283.682 158.833 333.882 159.123 334.935 158.288C335.275 158.019 340.615 157.658 346.803 157.486C352.99 157.314 359.403 157.088 361.053 156.986C362.703 156.883 368.44 157.006 373.803 157.259C379.165 157.511 391.09 157.675 400.303 157.621C420.195 157.506 426.071 157.566 429.942 157.922C432.599 158.166 432.932 158.08 434.067 156.855C435.635 155.163 435.617 154.65 433.928 152.788C431.507 150.121 427.742 149.72 404.053 149.606C394.245 149.559 388.668 149.375 390.303 149.152C395.589 148.431 420.111 147.542 426.903 147.825C433.207 148.088 433.776 148.039 434.039 147.21C434.623 145.371 433.837 144.671 431.124 144.614C425.739 144.502 409.465 144.667 407.553 144.853C406.453 144.961 405.103 144.866 404.553 144.643C403.976 144.41 403.853 144.223 404.261 144.203C404.651 144.184 409.376 143.7 414.761 143.129C420.147 142.557 425.34 142.212 426.303 142.363C428.488 142.704 429.44 142.144 429.221 140.645C428.999 139.114 426.983 138.572 422.803 138.921C419.482 139.197 410.95 140.032 407.803 140.389C406.476 140.539 406.295 140.48 407.053 140.145C408.331 139.579 418.953 137.799 423.651 137.363C427.279 137.026 428.093 136.507 427.484 134.918C426.96 133.553 420.612 134.102 406.987 136.692C401 137.829 400.85 137.852 390.553 139.149C378.342 140.687 370.412 141.587 366.553 141.872C361.251 142.264 365.07 141.424 376.553 139.673C388.044 137.921 404.214 135.174 413.053 133.472C416.628 132.783 421.465 131.955 423.803 131.631C428.708 130.95 429.529 130.524 428.746 129.062C428.263 128.16 427.882 128.093 424.882 128.385C421.655 128.698 405.162 131.475 398.053 132.901C391.986 134.119 379.146 136.295 376.803 136.504C375.565 136.614 373.428 136.924 372.053 137.193C370.678 137.462 365.953 138.235 361.553 138.909C357.153 139.584 352.428 140.344 351.053 140.598C349.678 140.852 347.203 141.193 345.553 141.355C343.903 141.518 340.785 141.877 338.624 142.154C336.402 142.438 334.362 142.471 333.928 142.228C333.412 141.939 334.284 141.681 336.607 141.437C341.722 140.898 361.742 137.942 372.303 136.166C377.39 135.31 384.253 134.176 387.553 133.646C390.853 133.116 396.815 131.994 400.803 131.152C404.79 130.311 411.428 128.934 415.553 128.091C419.678 127.248 423.229 126.396 423.444 126.197C423.659 125.998 423.698 125.477 423.53 125.04C422.955 123.54 422.797 123.546 413.553 125.433C411.628 125.826 409.49 126.25 408.803 126.374C408.115 126.499 402.949 127.513 397.323 128.629C391.697 129.745 385.847 130.787 384.323 130.944C382.799 131.102 380.765 131.432 379.803 131.677C378.84 131.923 375.578 132.491 372.553 132.94C369.528 133.388 364.758 134.145 361.954 134.621C358.534 135.202 356.573 135.329 355.998 135.007C355.186 134.552 351.137 134.882 341.803 136.162C337.385 136.768 328.53 137.274 328.905 136.898C329.072 136.731 332.436 136.059 336.381 135.403C343.201 134.27 352.798 132.57 361.553 130.944C363.753 130.536 367.803 129.852 370.553 129.424C373.303 128.997 380.615 127.652 386.803 126.436C392.99 125.22 401.09 123.652 404.803 122.951C420.172 120.048 423.048 119.358 423.208 118.533C423.458 117.248 421.605 116.594 418.966 117.036C416.892 117.384 416.477 117.296 415.48 116.299C414.759 115.579 413.749 115.169 412.7 115.172C410.634 115.177 399.78 116.518 398.789 116.891C398.075 117.159 392.865 117.974 382.553 119.43C379.803 119.818 375.303 120.483 372.553 120.907C362.34 122.482 356.947 123.24 353.053 123.649C349.475 124.025 338.251 125.857 331.553 127.159C330.178 127.426 327.703 127.743 326.053 127.864C322.674 128.112 318.177 128.615 316.303 128.955C315.399 129.119 315.261 129.056 315.803 128.728C316.541 128.282 322.447 127.264 330.803 126.143C333.14 125.83 337.303 125.149 340.053 124.631C342.803 124.112 345.84 123.561 346.803 123.406C347.765 123.251 349.34 122.924 350.303 122.68C351.265 122.436 353.853 121.986 356.053 121.68C358.253 121.374 360.503 120.923 361.053 120.678C362 120.255 366.484 119.47 386.803 116.172C391.615 115.39 396.34 114.508 397.303 114.211C398.265 113.914 401.415 113.108 404.303 112.421C407.19 111.734 412.028 110.498 415.053 109.674C418.078 108.849 421.509 107.94 422.678 107.652C423.846 107.365 424.803 106.855 424.803 106.519C424.803 106.183 425.246 105.631 425.789 105.293C426.941 104.573 426.626 103.168 425.312 103.168C424.826 103.168 423.444 103.518 422.241 103.946C420.054 104.723 409.325 107.784 401.303 109.918C397.56 110.914 385.72 113.05 379.303 113.887C378.065 114.049 375.478 114.512 373.553 114.918C363.069 117.124 344.53 120.354 339.303 120.884C336.569 121.162 336.563 121.16 338.303 120.487C339.79 119.911 345.472 118.539 349.096 117.879C349.671 117.775 350.365 117.186 350.639 116.571C351.158 115.409 351.168 115.406 361.553 113.44C367.874 112.243 367.947 112.228 370.053 111.707C375.437 110.373 385.829 108.199 388.053 107.941C392.014 107.48 401.537 105.51 401.704 105.117C401.788 104.92 403.306 104.247 405.079 103.621C407.029 102.933 408.303 102.198 408.303 101.761C408.303 101.189 407.864 101.115 406.178 101.403C405.009 101.602 402.59 101.944 400.803 102.163C397.649 102.549 387.746 104.424 380.486 106.01C378.524 106.439 376.614 106.688 376.241 106.564C375.158 106.203 388.916 102.308 396.803 100.742C405.583 98.9999 408.076 98.4714 413.053 97.2979C418.804 95.9419 420.376 95.0269 419.115 93.7664C417.942 92.5934 415.644 92.8874 402.553 95.8839C399.528 96.5764 396.603 97.1309 396.053 97.1159C394.929 97.0854 394.922 97.0884 399.053 95.8674C404.982 94.1154 426.903 84.6174 427.221 83.6629C427.318 83.3724 427.109 82.7869 426.757 82.3629C425.847 81.2669 423.978 81.7329 417.263 84.7299C406.547 89.5124 404.051 90.5239 397.622 92.6869C391.001 94.9144 389.306 95.8709 390.271 96.8359C391.025 97.5899 390.933 98.0089 389.928 98.4094C388.167 99.1104 375.077 102.609 374.896 102.427C374.649 102.181 377.892 100.146 381.216 98.4619C383.355 97.3784 383.836 96.9069 383.709 96.0184C383.401 93.8524 380.72 94.4009 375.411 97.7164C373.991 98.6029 373.775 98.2589 374.297 95.9424C375.033 92.6784 376.24 91.5499 380.589 90.0579C382.769 89.3094 384.553 88.6724 384.553 88.6419C384.553 88.6114 386.24 88.5244 388.303 88.4489C392.845 88.2829 402.135 85.5459 411.335 81.6629C420.807 77.6659 422.45 76.7604 422.038 75.7634C421.846 75.2984 421.579 74.5364 421.445 74.0699C421.135 72.9964 419.97 72.7334 418.053 73.3044C416.641 73.7249 407.23 77.2879 405.053 78.2264C403.91 78.7194 397.522 80.8899 389.677 83.4514C384.914 85.0064 384.074 85.1449 382.302 84.6679C380.415 84.1594 380.305 84.0254 380.34 82.2734C380.36 81.2529 380.529 79.4279 380.715 78.2179C381.052 76.0234 381.06 76.0159 384.053 75.1879C385.703 74.7314 387.503 74.1114 388.053 73.8099C388.603 73.5084 390.065 72.9909 391.303 72.6604C393.662 72.0294 397.708 70.1204 406.053 65.7004C412.432 62.3214 412.455 62.3014 412.145 60.3909C411.905 58.9129 412.034 58.7544 414.261 57.7819C417.532 56.3534 419.803 54.3464 419.803 52.8829C419.803 50.9804 418.003 50.8969 413.769 52.6034C408.508 54.7244 401.774 57.7999 400.303 58.7544C399.615 59.2004 397.625 60.0764 395.88 60.7014C394.134 61.3259 392.583 62.1594 392.432 62.5529C391.704 64.4489 395.62 64.5109 401.257 62.6924C406.796 60.9059 405.84 61.7674 397.126 66.4159C391.003 69.6829 390.575 69.6209 391.007 65.5314C391.256 63.1669 391.237 63.1299 388.906 61.4189C387.611 60.4694 386.046 59.6869 385.428 59.6804C384.78 59.6734 384.303 59.3579 384.303 58.9369C384.303 58.3394 384.895 58.2609 387.54 58.5079C390.531 58.7869 390.853 58.7189 391.773 57.6139C393.095 56.0274 393.058 54.7409 391.678 54.2139C391.059 53.9779 388.978 52.5759 387.053 51.0984C382.115 47.3079 381.298 46.8394 378.934 46.4399C377.781 46.2454 376.015 45.4324 375.01 44.6339C371.589 41.9154 367.27 41.4069 365.052 43.4619ZM164.803 45.8799C164.803 46.2714 164.096 47.1154 163.233 47.7549C160.089 50.0844 154.803 55.5739 154.803 56.5094C154.803 57.6879 155.724 58.6679 156.833 58.6679C157.289 58.6679 158.425 57.8829 159.358 56.9234C160.29 55.9639 161.308 55.1764 161.621 55.1734C162.446 55.1654 167.782 51.5074 169.661 49.6614C171.066 48.2814 171.478 48.1304 172.911 48.4699C173.814 48.6834 174.665 48.8354 174.803 48.8069C178.508 48.0469 178.753 48.0724 180.025 49.3449C181.642 50.9614 181.645 51.6679 180.037 51.6679C179.341 51.6679 177.387 52.1339 175.696 52.7039C173.092 53.5809 172.439 53.6419 171.429 53.1019C169.905 52.2859 168.738 52.9579 168.04 55.0524C167.758 55.8989 167.147 57.0114 166.682 57.5244C165.74 58.5664 159.8 61.4529 157.685 61.8964C154.266 62.6134 156.439 67.6679 160.167 67.6679C161.812 67.6679 161.841 67.7054 161.724 69.6889C161.658 70.8004 161.297 71.9654 160.921 72.2774C159.788 73.2179 158.804 75.5169 158.785 77.2679C158.775 78.1754 158.446 79.4804 158.053 80.1679C157.66 80.8554 157.33 81.9269 157.32 82.5494C157.307 83.4274 156.712 83.9419 154.659 84.8499C152.088 85.9869 150.709 87.4289 149.454 90.2929C148.76 91.8764 148.445 91.9429 146.485 90.9209C145.697 90.5104 144.659 90.1729 144.178 90.1709C142.571 90.1654 143.19 88.2514 145.212 86.9754C147.496 85.5334 148.778 83.7064 149.161 81.3494C149.432 79.6759 151.848 77.1679 153.189 77.1679C153.914 77.1679 155.803 74.7239 155.803 73.7844C155.803 72.5804 152.228 73.3269 148.183 75.3759C144.723 77.1284 143.288 77.5464 143.317 76.7929C143.326 76.5864 145.283 75.2754 147.667 73.8794C150.051 72.4834 152.447 70.7449 152.991 70.0169C153.919 68.7739 153.928 68.6354 153.141 67.7659C152.062 66.5729 152.085 66.0204 153.258 64.9584C154.496 63.8374 155.006 61.7654 154.263 60.8699C153.943 60.4839 152.821 60.1679 151.771 60.1679C149.432 60.1679 149.004 59.5884 150.104 57.9094C151.173 56.2789 150.484 54.7759 147.824 52.9329C145.365 51.2284 144.052 51.3319 142.117 53.3839C141.227 54.3274 139.836 55.2584 139.026 55.4529C136.546 56.0469 136.167 56.6174 136.514 59.2334C136.789 61.3084 136.706 61.6314 135.819 61.9124C135.265 62.0884 134.618 62.1124 134.381 61.9659C134.144 61.8194 133.66 59.9489 133.307 57.8089C132.827 54.9034 132.341 53.5689 131.387 52.5394C130.436 51.5134 130.254 51.0169 130.675 50.5954C131.097 50.1739 131.818 50.3004 133.5 51.0904C136.398 52.4529 138.272 52.0969 140.55 49.7514C142.187 48.0659 142.383 47.9949 143.921 48.5304C145.877 49.2114 156.95 49.2769 158.685 48.6174C159.359 48.3614 160.725 47.4804 161.721 46.6599C163.685 45.0409 164.803 44.7579 164.803 45.8799ZM319.752 47.3384C318.335 49.3489 317.853 49.6699 315.844 49.9419C312.341 50.4159 311.828 50.6439 311.522 51.8609C311.303 52.7334 310.609 53.1509 308.442 53.7154C306.904 54.1164 305.492 54.7759 305.305 55.1809C303.972 58.0654 303.469 58.8654 302.862 59.0664C302.104 59.3174 302.212 58.1944 303.326 54.2714C303.851 52.4199 303.813 51.8529 303.043 50.1464L302.151 48.1679L297.352 48.1519C293.926 48.1404 292.275 47.9259 291.582 47.4019C290.279 46.4164 288.631 46.4754 287.671 47.5429C287.06 48.2234 286.974 48.9014 287.286 50.5919C287.553 52.0444 287.459 53.6209 287.001 55.3419C286.623 56.7589 286.312 58.3949 286.309 58.9779C286.304 59.8684 285.928 60.0799 283.958 60.3019C280.801 60.6579 280.349 61.3899 280.957 65.1664C281.402 67.9269 281.352 68.3009 280.408 69.3094C279.164 70.6374 278.303 72.7624 278.303 74.5039C278.303 75.2029 277.928 77.3274 277.47 79.2249C276.756 82.1819 276.735 82.8564 277.319 83.9484C277.911 85.0549 277.887 85.4334 277.135 86.8299C276.646 87.7389 275.305 88.9489 274.05 89.6149C272.829 90.2624 270.691 91.9969 269.298 93.4694C266.769 96.1434 266.767 96.1489 267.547 97.6574C267.977 98.4879 268.587 99.1679 268.903 99.1679C269.219 99.1679 269.008 99.6739 268.435 100.293C267.148 101.681 266.126 105.336 266.611 106.817C266.809 107.423 266.924 108.678 266.867 109.606C266.741 111.644 267.958 113.168 269.711 113.168C270.916 113.168 273.537 111.836 277.123 109.402L278.813 108.255L280.27 109.712C281.071 110.512 282.158 111.168 282.687 111.168C283.727 111.168 285.303 109.707 285.303 108.743C285.303 108.415 285.865 107.89 286.553 107.577C287.24 107.264 287.803 106.818 287.803 106.587C287.803 106.357 288.268 106.168 288.836 106.168C291.771 106.168 293.409 103.553 293.058 99.4279L292.819 96.6254L294.616 96.9629C295.895 97.2029 296.538 97.1009 296.85 96.6089C297.611 95.4069 297.34 93.1224 296.274 91.7684L295.246 90.4609L296.352 90.0519C298.797 89.1474 299.88 86.8214 300.544 81.0429C300.773 79.0484 301.092 78.1679 301.584 78.1679C301.975 78.1679 302.555 77.7504 302.874 77.2399C303.432 76.3464 303.531 76.3559 305.503 77.4839C309.346 79.6814 311.338 78.5599 311.581 74.0624L311.722 71.4359L313.558 71.5944C314.695 71.6919 316.52 72.5244 318.347 73.7784C322.273 76.4729 324.85 76.5914 326.871 74.1709C327.621 73.2729 328.491 71.4684 328.804 70.1619C329.371 67.7994 329.861 67.2034 333.452 64.5064C337.849 61.2044 338.436 59.9504 337.834 55.1509C337.334 51.1729 336.005 48.9779 332.819 46.8694C331.383 45.9194 330.321 45.6264 328.485 45.6754C327.147 45.7109 324.999 45.5839 323.711 45.3929L321.369 45.0454L319.752 47.3384ZM205.803 48.1424C205.803 48.6784 206.59 49.7179 207.553 50.4519C210 52.3189 209.797 53.0089 206.678 53.4204C201.324 54.1264 197.424 56.8559 197.968 59.5149C198.126 60.2864 198.438 61.8179 198.66 62.9179C199.019 64.6949 199.241 64.9349 200.647 65.0719C201.549 65.1594 203.118 64.7724 204.296 64.1714C206.145 63.2284 206.346 62.9484 206.208 61.5174C206.08 60.1994 205.767 59.8339 204.428 59.4394C201.109 58.4624 203.211 57.1679 208.115 57.1679C210.647 57.1679 210.902 57.8334 209.044 59.5954C208.361 60.2429 207.803 61.3119 207.803 61.9704C207.803 63.1979 206.234 65.1679 205.257 65.1679C204.956 65.1679 204.138 65.6179 203.439 66.1679C202.74 66.7179 201.548 67.1679 200.791 67.1679C200.033 67.1679 198.907 67.5779 198.288 68.0789C197.226 68.9394 197.208 69.0579 197.965 70.2134C198.749 71.4104 198.717 71.4769 196.466 73.3024C195.2 74.3284 193.751 75.1679 193.245 75.1679C192.74 75.1679 191.964 75.7199 191.522 76.3944C190.78 77.5279 190.785 77.7334 191.592 79.1004C192.451 80.5539 192.443 80.6064 191.147 82.1474C189.576 84.0144 188.195 88.3144 188.621 90.0119C188.965 91.3824 187.661 93.0559 184.936 94.7399C183.22 95.8009 182.902 96.9844 183.854 98.7644C184.489 99.9499 183.794 100.647 181.964 100.66C180.748 100.669 178.803 98.5094 178.803 97.1509C178.803 96.6659 180.096 94.8014 181.678 93.0079C185.409 88.7759 186.891 86.3319 186.704 84.7189C186.57 83.5659 186.331 83.4179 184.604 83.4179C182.686 83.4179 182.641 83.4609 181.743 86.1679C181.241 87.6804 180.825 88.9499 180.817 88.9894C180.809 89.0289 180.447 89.1974 180.013 89.3639C179.366 89.6124 179.281 89.4039 179.544 88.2094C179.72 87.4074 179.613 85.8219 179.307 84.6854C178.602 82.0649 178.988 80.8554 180.665 80.4344C181.395 80.2514 182.603 79.6664 183.349 79.1349C184.096 78.6029 184.854 78.1679 185.034 78.1679C185.484 78.1679 189.152 75.3214 191.428 73.2069C193.413 71.3619 193.759 70.1689 192.589 69.1979C191.793 68.5374 189.536 69.4314 188.33 70.8849C187.61 71.7524 186.303 71.9424 186.303 71.1799C186.303 70.1889 188.221 67.5834 190.195 65.8939C193.514 63.0534 195.712 59.6899 195.894 57.1759C196.042 55.1244 196.171 54.9469 197.803 54.5404C200.171 53.9509 200.921 52.8569 200.534 50.5609C200.24 48.8189 200.324 48.6594 201.887 47.9769C204.345 46.9039 205.803 46.9654 205.803 48.1424ZM218.703 48.2679C219.669 49.2339 219.398 50.9779 218.029 52.6049C216.227 54.7464 215.497 54.2034 215.399 50.6484C215.317 47.7014 215.332 47.6679 216.71 47.6679C217.476 47.6679 218.373 47.9379 218.703 48.2679ZM325.707 51.6094C326.722 52.4019 328.156 53.1899 328.893 53.3599C331.469 53.9549 332.472 55.9834 331.285 58.2009C330.643 59.4009 328.471 59.4749 327.216 58.3394C326.443 57.6399 326.008 57.5994 324.426 58.0814C321.252 59.0489 319.303 60.5059 319.303 61.9104C319.303 63.4579 319.956 63.4869 322.651 62.0594C325.313 60.6494 325.933 61.2079 323.882 63.1679C323.013 63.9974 322.303 64.9689 322.303 65.3269C322.303 65.6844 322.022 66.3604 321.678 66.8294C321.127 67.5809 320.697 67.6169 318.053 67.1344C316.095 66.7769 314.602 66.1599 313.756 65.3584C313.042 64.6829 311.671 64.0024 310.709 63.8464C309.219 63.6049 308.798 63.7669 307.881 64.9324C307.28 65.6959 306.803 67.0209 306.803 67.9239C306.803 70.7399 305.688 71.0364 302.873 68.9694C301.523 67.9784 299.97 67.1679 299.422 67.1679C298.076 67.1679 297.148 68.3919 297.545 69.6439C297.842 70.5804 297.662 70.6679 295.432 70.6679C292.458 70.6679 291.038 71.5449 291.525 73.0804C291.774 73.8659 292.414 74.2539 293.836 74.4814L295.803 74.7959V77.2519C295.803 79.4984 295.622 79.8764 293.678 81.6819C292.509 82.7674 291.379 83.6584 291.167 83.6619C290.955 83.6649 290.525 83.1054 290.212 82.4179C289.512 80.8829 288.954 80.8514 287.453 82.2614C285.761 83.8509 284.929 82.8869 285.719 80.2509C286.04 79.1789 286.303 77.0554 286.303 75.5324C286.303 73.1114 286.518 72.5044 288.013 70.7154C288.954 69.5899 289.866 68.0204 290.04 67.2279C290.305 66.0179 290.669 65.7369 292.314 65.4744C294.636 65.1029 295.535 63.7904 295.138 61.3494C294.988 60.4244 295.058 59.6679 295.293 59.6679C295.529 59.6679 296.077 59.5314 296.512 59.3644C297.026 59.1674 297.303 59.3354 297.303 59.8444C297.303 60.2749 297.921 61.2159 298.678 61.9349C299.885 63.0824 300.349 63.2094 302.476 62.9729C305.555 62.6309 307.731 61.3664 309.251 59.0374C310.345 57.3609 310.705 57.1719 313.39 56.8684C316.701 56.4939 320.59 54.2939 321.316 52.3844C321.666 51.4614 322.977 50.2549 323.707 50.1829C323.792 50.1749 324.692 50.8164 325.707 51.6094ZM370.097 51.9179C371.026 52.9204 371.736 53.1679 373.681 53.1679C375.787 53.1679 376.326 53.3939 377.767 54.8809C379.156 56.3144 379.376 56.8449 379.115 58.1309C378.943 58.9764 378.661 60.3704 378.487 61.2289C378.274 62.2839 377.673 63.0534 376.633 63.6039C375.787 64.0514 374.444 65.0424 373.648 65.8054C372.464 66.9409 372.312 67.3264 372.813 67.9304C373.643 68.9309 375.416 68.8589 376.86 67.7659C378.223 66.7349 381.762 65.5839 382.385 65.9689C383.173 66.4559 382.801 67.4824 381.324 68.8974C379.529 70.6174 373.419 72.0329 371.719 71.1229C370.139 70.2774 365.579 70.4179 364.244 71.3524C363.444 71.9129 362.014 72.1679 359.672 72.1679C355.856 72.1679 353.809 72.9824 350.59 75.7824C348.29 77.7824 348.364 79.1679 350.769 79.1679C352.244 79.1679 353.315 80.2684 353.293 81.7599C353.287 82.1219 352.133 83.0929 350.728 83.9179C347.854 85.6054 345.644 88.4984 345.889 90.2509C346.029 91.2509 345.811 91.4409 344.364 91.5794C342.16 91.7899 341.703 91.2579 342.301 89.1744C342.915 87.0319 341.965 85.3939 339.514 84.3694C337.388 83.4809 337.222 82.1679 339.236 82.1679C341.154 82.1679 345.838 80.2629 346.928 79.0394C347.409 78.4994 347.803 77.5459 347.803 76.9209C347.803 75.5919 350.779 72.7134 353.181 71.7184C354.528 71.1604 354.803 70.7779 354.803 69.4589V67.8719L359.501 68.0774C366.521 68.3844 370.803 66.6449 370.803 63.4869C370.803 62.9594 371.173 62.2569 371.626 61.9259C373.029 60.9004 372.092 58.8794 369.513 57.3679C365.21 54.8464 361.302 56.0859 359.113 60.6664C358.067 62.8579 357.965 62.9244 355.155 63.2754C351.279 63.7599 349.298 64.7849 346.541 67.7324C344.384 70.0384 344.236 70.3674 344.389 72.5144C344.541 74.6574 344.453 74.8539 343.147 75.2959C342.373 75.5579 341.648 75.6799 341.536 75.5679C341.191 75.2224 342.439 66.1679 342.832 66.1679C343.035 66.1679 344.63 65.3169 346.377 64.2769C348.124 63.2369 350.228 62.1634 351.053 61.8919C352.093 61.5494 352.606 61.0174 352.726 60.1579C352.821 59.4759 353.206 58.7429 353.581 58.5294C353.956 58.3154 354.409 57.3594 354.588 56.4044C354.767 55.4494 355.114 54.6679 355.358 54.6679C355.603 54.6679 355.803 54.2989 355.803 53.8484C355.803 53.1429 356.169 53.0834 358.428 53.4214C363.365 54.1594 365.461 54.0209 366.034 52.9179C367.443 50.2034 368.31 49.9899 370.097 51.9179ZM294.928 52.9889C296.408 53.2334 296.803 53.5219 296.802 54.3584C296.801 55.2094 296.266 55.5754 294.085 56.2174C291.22 57.0609 289.523 56.7474 290.682 55.5889C291.023 55.2474 291.303 54.4504 291.303 53.8179C291.303 52.5709 291.762 52.4654 294.928 52.9889ZM265.771 53.7774C267.691 54.3764 267.726 54.4314 267.928 57.1524C268.099 59.4614 267.93 60.2269 266.903 61.7879C265.426 64.0339 265.623 66.5339 267.573 70.2839C269.094 73.2099 269.114 74.0064 267.678 74.4404C264.809 75.3074 261.566 80.3724 262.708 82.2024C263.035 82.7259 263.303 83.2699 263.303 83.4109C263.303 83.5524 261.17 83.6679 258.564 83.6679C254.425 83.6679 253.475 83.8394 251.065 85.0219C249.546 85.7664 248.189 86.7394 248.048 87.1839C247.907 87.6284 247.117 88.6374 246.294 89.4264C245.134 90.5379 244.662 90.7269 244.199 90.2644C243.063 89.1279 241.378 89.6304 239.493 91.6679C237.815 93.4809 235.803 94.3329 235.803 93.2304C235.803 92.9899 235.666 92.1089 235.499 91.2734C235.227 89.9119 235.407 89.6129 237.233 88.4049C238.354 87.6629 239.4 86.6489 239.558 86.1509C239.792 85.4129 240.345 85.2574 242.552 85.3089C244.833 85.3624 245.422 85.1834 246.303 84.1674C248.469 81.6699 249.462 79.5224 249.546 77.1564C249.598 75.6814 249.95 74.4489 250.469 73.9299C252.451 71.9479 252.578 70.2359 250.977 67.0579C249.485 64.0944 245.743 63.9929 244.535 66.8824C243.513 69.3294 242.624 69.8524 240.173 69.4494C235.735 68.7199 235.268 68.9999 234.922 72.6024C234.714 74.7654 234.956 75.6689 236.748 79.4214C237.883 81.8004 238.685 83.9544 238.528 84.2074C238.372 84.4609 237.263 84.6679 236.065 84.6679C233.337 84.6679 229.774 86.1619 228.432 87.8674C226.968 89.7279 226.303 89.4909 226.303 87.1109C226.303 85.9224 225.842 84.2334 225.21 83.1099L224.118 81.1659L225.46 79.7644C226.199 78.9939 226.804 78.1504 226.806 77.8904C226.807 77.6304 227.043 76.5744 227.329 75.5429C227.776 73.9339 228.053 73.6679 229.282 73.6679C231.988 73.6679 234.073 69.9119 233.703 65.7034L233.553 63.9889L237.681 63.1754C239.951 62.7279 242.038 62.1329 242.317 61.8534C243.033 61.1379 241.257 59.6344 239.201 59.2139C237.316 58.8284 236.864 57.6784 238.108 56.4339C238.77 55.7719 239.427 55.6544 241.008 55.9139C242.133 56.0989 244.178 56.2904 245.553 56.3399C246.928 56.3894 248.334 56.6089 248.678 56.8284C249.457 57.3254 249.504 59.1679 248.737 59.1679C248.035 59.1679 248.494 62.4439 249.34 63.4624C250.112 64.3924 251.759 64.3644 252.123 63.4149C252.282 63.0009 253.281 62.5234 254.343 62.3534C256.585 61.9949 257.359 60.6114 256.098 59.2179C254.638 57.6044 255.095 57.0144 257.587 57.2954C259.663 57.5294 259.914 57.4409 260.337 56.3274C260.637 55.5389 260.618 54.7579 260.285 54.1354C259.813 53.2529 259.945 53.1679 261.793 53.1679C262.907 53.1679 264.697 53.4419 265.771 53.7774ZM37.4264 55.5209C36.8069 55.6404 35.5294 56.4644 34.5879 57.3524L32.8764 58.9669L33.7894 62.3669C34.8704 66.3934 35.2234 66.8324 37.0204 66.3814C38.7234 65.9539 39.7279 64.0324 38.8204 62.9389C38.0749 62.0404 38.4744 60.6679 39.4814 60.6679C39.8719 60.6679 41.2304 61.6924 42.5009 62.9449C43.7714 64.1974 45.6219 65.5609 46.6134 65.9754C48.2374 66.6539 48.5854 66.6479 50.1354 65.9124C51.9909 65.0319 52.8074 63.5279 52.7954 61.0104C52.7844 58.6279 51.7419 56.9179 50.3004 56.9179C49.1004 56.9179 48.9534 57.1519 47.9549 60.6619C47.8059 61.1849 47.0794 60.6934 45.5064 59.0044C43.3964 56.7389 40.6244 55.0839 39.1939 55.2359C38.8414 55.2734 38.0459 55.4019 37.4264 55.5209ZM180.216 57.5754C180.494 59.5239 179.466 60.2239 176.838 59.8754C175.04 59.6369 174.358 59.7489 173.845 60.3674C172.886 61.5229 172.303 61.3529 172.303 59.9179C172.303 59.1604 172.588 58.6679 173.026 58.6679C173.424 58.6679 174.822 58.0979 176.132 57.4014C178.901 55.9289 179.988 55.9754 180.216 57.5754ZM259.428 60.6729C257.709 62.3064 256.303 63.8459 256.303 64.0944C256.303 65.0294 257.816 65.7729 259.076 65.4569C260.766 65.0324 264.803 61.2884 264.803 60.1449C264.803 56.8279 263.32 56.9734 259.428 60.6729ZM366.462 60.7929C366.288 61.6869 365.9 62.5834 365.599 62.7854C364.962 63.2134 362.803 63.2969 362.803 62.8929C362.803 62.2069 364.346 59.7324 364.917 59.5024C366.446 58.8874 366.778 59.1654 366.462 60.7929ZM20.5529 61.9379C17.3514 63.5324 13.9014 70.5364 14.5994 74.0254C14.9759 75.9084 17.5359 78.7349 20.1779 80.1854C21.8914 81.1264 22.3029 81.6224 22.3029 82.7469C22.3029 85.0534 19.5549 86.0129 16.0529 84.9294C15.5029 84.7594 14.6259 84.9334 14.1044 85.3164C11.7024 87.0784 16.1674 91.6679 20.2839 91.6679C25.3034 91.6679 29.8029 87.4734 29.8029 82.7939C29.8029 78.9894 28.1369 76.2299 24.7459 74.4179C21.0094 72.4214 20.3029 71.7719 20.3029 70.3314C20.3029 68.7579 23.2649 67.3449 24.8194 68.1764C27.0794 69.3864 30.3029 71.7729 30.3029 72.2364C30.3029 73.0204 32.8959 72.5074 33.4559 71.6129C34.6014 69.7819 29.5269 62.9889 26.0164 61.6539C24.2134 60.9684 22.2994 61.0679 20.5529 61.9379ZM55.1959 64.0429C54.2239 64.7989 52.9909 66.0929 52.4564 66.9179C51.4214 68.5154 49.8029 73.7779 49.8029 75.5464C49.8029 77.5349 48.9334 77.1544 48.0579 74.7829C46.1039 69.4919 44.6734 66.7674 43.5269 66.1539C42.4904 65.5994 42.0384 65.6694 40.1324 66.6804C38.0589 67.7804 37.8334 68.1189 36.1719 72.6324C34.2004 77.9889 33.5029 81.1199 33.0174 86.7914C32.6184 91.4509 33.4264 93.3369 35.7094 93.0729C37.0314 92.9204 37.0589 92.8424 37.4139 88.2239C37.6124 85.6419 37.8634 83.4404 37.9724 83.3319C38.0809 83.2229 39.8304 83.0854 41.8599 83.0259L45.5499 82.9179L46.2114 86.6944C46.9634 90.9909 47.8484 92.0059 50.0959 91.1514C51.3589 90.6714 51.4114 90.5094 51.2109 87.7369L51.0004 84.8259L52.1529 86.1959C53.8384 88.1989 57.9239 90.6679 59.5529 90.6679C62.7489 90.6679 66.7689 87.0829 69.5614 81.7424C71.4564 78.1189 71.5659 73.4354 69.8424 69.7539C69.1769 68.3314 68.4459 67.1679 68.2189 67.1679C67.9919 67.1679 66.9614 66.4129 65.9294 65.4899C63.2959 63.1349 62.2174 62.6679 59.4164 62.6679C57.5029 62.6679 56.5754 62.9699 55.1959 64.0429ZM111.416 63.5029C111.066 63.6439 110.086 65.2574 109.239 67.0884C108.392 68.9194 107.359 71.1489 106.944 72.0429C106.529 72.9369 106.025 73.6679 105.825 73.6679C105.176 73.6679 102.803 68.8199 102.803 67.4949C102.803 66.1234 101.092 64.1679 99.8924 64.1679C98.8344 64.1679 97.2204 66.2329 97.5709 67.1389C98.8359 70.4109 99.2829 80.7784 98.3874 86.0929C97.9864 88.4724 98.0534 88.9034 98.9979 90.0014C99.8989 91.0489 100.257 91.1604 101.362 90.7404C102.516 90.3019 102.704 89.8829 103.01 87.0814C103.2 85.3414 103.487 83.0644 103.647 82.0214L103.937 80.1249L104.863 81.6464C105.835 83.2459 106.735 83.5069 108.331 82.6524C109.046 82.2699 109.275 81.6504 109.22 80.2479C109.157 78.6199 110.179 75.5409 110.326 76.9179C110.355 77.1929 110.464 77.8679 110.568 78.4179C110.672 78.9679 110.89 81.1969 111.054 83.3709C111.432 88.3944 111.88 89.2739 113.961 89.0719L115.553 88.9179L115.509 84.6679C115.485 82.3304 115.225 76.8304 114.931 72.4459C114.484 65.7624 114.253 64.3679 113.504 63.8209C112.554 63.1254 112.409 63.1034 111.416 63.5029ZM78.3989 65.3024C77.4639 66.4289 76.6649 72.7184 76.9259 76.8999C77.4804 85.7859 83.2679 92.0349 89.2764 90.2349C93.5624 88.9509 95.1754 85.6459 95.6629 77.1469C95.9339 72.4239 95.9194 72.3439 94.1954 69.1469C92.6694 66.3169 92.2749 65.9179 91.0034 65.9179C89.7849 65.9179 89.5269 66.1424 89.3914 67.3244C89.3029 68.0979 89.5844 69.7694 90.0164 71.0384C90.9344 73.7324 91.0519 79.7754 90.2334 82.2184C89.9204 83.1529 89.2204 84.4089 88.6779 85.0094C87.8554 85.9194 87.4724 86.0179 86.3724 85.6009C81.8319 83.8814 80.3979 77.7929 82.1054 67.4854C82.3334 66.1099 82.2279 65.4274 81.7394 65.1179C80.7309 64.4794 79.0029 64.5749 78.3989 65.3024ZM62.9444 68.2959C63.8294 69.1914 65.0474 70.9364 65.6519 72.1739C66.5879 74.0894 66.6789 74.7469 66.2644 76.5904C65.3124 80.8294 62.4694 84.8559 59.9899 85.4784C58.6234 85.8214 55.5734 84.1074 54.7234 82.5189C53.1354 79.5519 54.9089 70.6984 57.6379 67.9694C59.3874 66.2194 60.9909 66.3184 62.9444 68.2959ZM258.429 72.5589C255.408 75.2744 254.23 77.8094 255.43 79.0099C256.44 80.0194 257.597 79.3769 260.671 76.1019C263.711 72.8619 263.96 72.3964 263.306 71.1744C262.485 69.6394 261.303 69.9749 258.429 72.5589ZM43.2189 74.6094C43.8149 76.0899 44.3029 77.4964 44.3029 77.7344C44.3029 77.9729 43.1534 78.1679 41.7489 78.1679C39.2159 78.1679 39.1974 78.1564 39.5229 76.7929C40.1534 74.1539 41.4589 71.1244 41.7959 71.5199C41.9824 71.7389 42.6229 73.1294 43.2189 74.6094ZM370.336 74.6854C371.414 75.2624 371.633 76.1679 370.695 76.1679C370.361 76.1679 369.067 77.1509 367.82 78.3529C366.573 79.5544 364.842 80.7734 363.973 81.0609C362.04 81.7014 358.741 80.9804 357.543 79.6569C356.784 78.8184 356.787 78.6564 357.584 77.4399L358.445 76.1269L359.531 77.1474C360.75 78.2929 362.987 78.4584 365.986 77.6254C367.421 77.2269 368.062 76.7124 368.471 75.6284C369.098 73.9659 369.043 73.9939 370.336 74.6854ZM244.803 76.0564C244.803 77.6554 243.56 79.6679 242.573 79.6679C242.061 79.6679 240.803 77.3309 240.803 76.3789C240.803 75.7759 242.606 74.6679 243.588 74.6679C244.583 74.6679 244.803 74.9194 244.803 76.0564ZM199.326 85.7309C198.501 88.2634 197.28 89.6679 195.904 89.6679C195.42 89.6679 195.314 89.3904 195.57 88.7929C195.776 88.3119 196.004 87.2844 196.076 86.5099C196.243 84.7249 197.633 83.1679 199.06 83.1679C200.161 83.1679 200.161 83.1694 199.326 85.7309ZM372.752 87.5969C371.522 88.6799 370.076 90.3819 369.538 91.3794C368.593 93.1354 368.493 93.1829 366.411 92.8704C364.355 92.5624 364.172 92.6429 362.275 94.6974L360.291 96.8474L358.53 96.0074C357.561 95.5459 355.912 95.1679 354.866 95.1679C353.101 95.1679 352.917 95.0279 352.326 93.2394C351.538 90.8504 351.853 89.7999 353.976 87.7429C355.611 86.1574 355.682 86.1394 357.922 86.7384C359.894 87.2659 360.376 87.2349 361.485 86.5084C362.196 86.0424 363.749 85.6679 364.971 85.6679C366.224 85.6679 368.335 85.1474 369.864 84.4619L372.553 83.2554L373.771 84.4414L374.99 85.6274L372.752 87.5969ZM140.303 85.4799C140.303 86.1689 139.833 87.8239 139.26 89.1574C138.041 91.9894 136.304 93.0239 134.145 92.2029C131.529 91.2084 132.652 88.2189 136.642 85.5539C139.651 83.5449 140.303 83.5319 140.303 85.4799ZM207.303 86.7534C207.303 87.0759 206.294 88.3059 205.061 89.4869C203.44 91.0409 202.736 92.1594 202.516 93.5324C202.121 96.0064 201.562 96.7099 198.493 98.5979C196.125 100.055 195.616 100.168 191.402 100.168C188.905 100.168 186.733 99.9594 186.575 99.7039C185.83 98.4994 192.024 94.1719 194.502 94.1649C197.34 94.1574 199.524 92.9844 202.947 89.6284C206.454 86.1909 207.303 85.6304 207.303 86.7534ZM355.094 88.1014C354.909 88.4004 355.002 89.5499 355.3 90.6564C355.812 92.5579 355.945 92.6679 357.745 92.6679C359.025 92.6679 359.95 92.3344 360.57 91.6489C361.47 90.6539 361.463 90.6009 360.246 89.3834C358.885 88.0224 355.641 87.2154 355.094 88.1014ZM288.117 90.9039C288.272 91.3089 287.798 92.6029 287.062 93.7789C286.327 94.9554 285.089 96.9614 284.311 98.2369C282.922 100.513 282.857 100.551 280.724 100.316C278.955 100.121 278.193 100.322 276.613 101.401C274.317 102.969 273.303 102.754 273.303 100.7C273.303 99.6269 273.965 98.4514 275.634 96.5594C278.323 93.5139 278.803 93.2114 278.803 94.5649C278.803 95.1044 279.112 95.8019 279.489 96.1154C280.288 96.7784 281.803 96.3419 281.803 95.4479C281.803 95.1109 282.759 94.0779 283.928 93.1524C285.096 92.2269 286.233 91.1769 286.453 90.8189C286.984 89.9534 287.767 89.9934 288.117 90.9039ZM256.999 92.4589C257.48 93.7119 257.352 97.1409 256.785 98.2009C256.365 98.9854 255.723 99.1679 253.383 99.1679C251.046 99.1679 250.056 99.4489 248.167 100.646C245.513 102.33 244.82 101.945 246.005 99.4474C246.806 97.7604 247.654 97.1679 249.266 97.1679C250.549 97.1679 251.802 95.5594 252.14 93.4799C252.424 91.7264 252.503 91.6679 254.565 91.6679C256.047 91.6679 256.788 91.9089 256.999 92.4589ZM145.178 93.9829C146.488 94.3344 146.718 96.2009 145.568 97.1554C144.505 98.0379 141.11 96.3224 140.893 94.7929C140.755 93.8189 140.956 93.6689 142.393 93.6749C143.306 93.6784 144.559 93.8174 145.178 93.9829ZM394.261 97.3474C394.147 97.4464 393.378 97.6784 392.553 97.8629C391.457 98.1079 391.255 98.0614 391.803 97.6909C392.478 97.2339 394.763 96.9149 394.261 97.3474ZM254.803 103.857C254.803 105.878 253.774 106.874 252.03 106.541C251.188 106.38 250.135 106.716 248.943 107.524C247.457 108.533 246.927 108.657 245.969 108.22C244.417 107.514 244.388 105.673 245.928 105.653C246.546 105.644 248.403 104.86 250.053 103.909C253.948 101.665 254.803 101.655 254.803 103.857ZM375.204 106.933C374.671 107.466 371.803 108.086 371.803 107.668C371.803 107.431 372.309 107.14 372.928 107.021C374.714 106.677 375.49 106.647 375.204 106.933ZM370.553 108.168C370.003 108.404 369.215 108.61 368.803 108.625C368.136 108.649 368.136 108.599 368.803 108.168C369.215 107.901 370.003 107.695 370.553 107.711L371.553 107.738L370.553 108.168ZM242.885 110.671C243.75 111.498 245.304 112.428 246.339 112.738C248.18 113.289 248.78 114.162 248.796 116.313C248.804 117.361 246.846 120.168 246.108 120.168C245.213 120.168 242.303 123.331 242.303 124.302C242.303 124.938 242.021 125.177 241.428 125.043C240.947 124.935 239.765 125.224 238.803 125.686C237.84 126.148 236.434 126.675 235.678 126.856C234.823 127.062 233.829 127.939 233.047 129.177C231.594 131.479 230.742 131.673 229.803 129.918C228.971 128.365 226.833 128.25 224.155 129.615C220.708 131.373 220.835 131.438 220.894 127.965C220.978 123.032 219.924 122.358 217.303 125.668C216.432 126.768 215.335 127.668 214.867 127.668C213.479 127.668 208.597 125.802 208.395 125.194C208.122 124.374 209.282 123.168 210.344 123.168C210.85 123.168 211.704 122.696 212.241 122.119C212.986 121.319 213.566 121.146 214.681 121.391C216.708 121.836 217.524 120.753 217.11 118.165C216.685 115.508 217.651 115.509 220.671 118.168C221.921 119.268 223.394 120.168 223.945 120.168C224.529 120.168 226.369 118.699 228.361 116.643C231.423 113.482 231.885 113.177 232.836 113.685C234.419 114.533 235.808 113.96 238.282 111.439C239.508 110.19 240.691 109.168 240.911 109.168C241.132 109.168 242.02 109.844 242.885 110.671ZM116.714 112.01C120.905 114.416 123.329 116.22 123.028 116.708C122.865 116.971 121.679 117.752 120.392 118.442C119.106 119.133 117.016 120.341 115.748 121.127C112.482 123.152 111.317 123.47 111.637 122.248C111.914 121.188 110.135 119.201 108.833 119.118C106.399 118.961 102.311 118.73 96.5529 118.424C92.9779 118.234 89.1529 117.997 88.0529 117.898C86.9529 117.798 80.5404 117.571 73.8029 117.393C66.6919 117.205 61.2909 116.855 60.9279 116.557C59.0499 115.019 60.2619 114.841 73.9279 114.655C96.7519 114.345 99.8824 114.393 104.616 115.125C108.936 115.794 109.27 115.78 110.866 114.862C111.794 114.329 112.89 113.172 113.303 112.291C113.715 111.41 114.125 110.685 114.214 110.679C114.302 110.673 115.427 111.272 116.714 112.01ZM338.053 116.668C336.678 117.258 335.889 117.258 336.803 116.668C337.215 116.401 337.89 116.195 338.303 116.211C338.797 116.229 338.712 116.384 338.053 116.668ZM233.476 118.178C233.198 119.566 231.454 121.474 229.424 122.61C228.731 122.997 228.694 123.281 229.19 124.37C229.538 125.133 230.191 125.668 230.775 125.668C232.207 125.668 235.066 122.972 236.269 120.488C237.784 117.358 237.652 116.668 235.54 116.668C233.979 116.668 233.743 116.84 233.476 118.178ZM333.803 117.668C333.39 117.934 332.715 118.14 332.303 118.125C331.808 118.107 331.893 117.951 332.553 117.668C333.927 117.077 334.717 117.077 333.803 117.668ZM409.303 118.844C409.303 118.941 406.546 119.528 403.178 120.149C388.67 122.824 375.891 125.228 373.803 125.676C372.565 125.941 368.438 126.61 364.631 127.162C360.823 127.715 357.561 128.258 357.381 128.369C357.2 128.481 354.465 128.935 351.303 129.379C348.14 129.824 344.143 130.45 342.421 130.771C340.014 131.219 339.152 131.217 338.696 130.761C338.01 130.075 333.638 129.963 332.395 130.599C331.149 131.236 326.029 131.741 326.6 131.17C326.859 130.911 327.967 130.575 329.062 130.424C330.157 130.273 332.403 129.933 334.053 129.668C340.894 128.569 353.839 126.659 357.803 126.164C360.14 125.872 363.29 125.415 364.803 125.149C366.315 124.883 373.29 123.864 380.303 122.886C387.315 121.907 396.09 120.578 399.803 119.932C406.245 118.81 409.303 118.46 409.303 118.844ZM252.855 122.316C252.213 122.958 251.562 122.462 252.037 121.693C252.221 121.395 252.601 121.293 252.881 121.466C253.222 121.677 253.214 121.957 252.855 122.316ZM300.303 123.168C300.303 123.443 299.684 123.645 298.928 123.618L297.553 123.568L298.803 123.168C299.49 122.948 300.109 122.745 300.178 122.718C300.247 122.69 300.303 122.893 300.303 123.168ZM297.167 123.97C297.001 124.136 296.57 124.154 296.209 124.009C295.81 123.85 295.929 123.731 296.511 123.707C297.038 123.686 297.333 123.804 297.167 123.97ZM147.795 131.735C150.549 133.972 152.803 135.909 152.803 136.039C152.803 136.17 150.643 138.346 148.004 140.877C143.389 145.301 143.188 145.431 142.754 144.29C142.506 143.637 142.303 142.815 142.303 142.463C142.303 142.111 141.887 141.446 141.379 140.986C140.104 139.833 133.289 139.773 120.553 140.805C115.053 141.25 107.887 141.754 104.628 141.925C101.369 142.096 97.4319 142.445 95.8779 142.699C91.4714 143.421 90.5484 143.311 89.8354 141.978C89.2374 140.861 88.8714 136.426 89.3394 135.97C89.9819 135.345 107.196 134.475 121.721 134.335C137.657 134.182 138.453 134.129 139.847 133.136C140.826 132.439 141.49 131.368 141.864 129.883C142.171 128.664 142.504 127.668 142.604 127.668C142.705 127.668 145.041 129.498 147.795 131.735ZM201.285 132.725C201.295 132.894 202.314 133.418 203.551 133.89C204.787 134.362 205.968 135.017 206.176 135.344C206.807 136.34 209.23 137.168 211.515 137.168C212.729 137.168 213.928 137.466 214.244 137.847C214.708 138.406 214.256 138.534 211.686 138.57C209.969 138.595 207.212 138.724 205.559 138.859C203.905 138.993 203.228 138.946 204.053 138.755C205.308 138.465 205.553 138.164 205.553 136.913C205.553 135.53 205.402 135.405 203.553 135.247C202.453 135.153 199.528 135.354 197.053 135.694C194.578 136.033 192.103 136.37 191.553 136.441C188.032 136.897 166.54 139.147 164.178 139.306C162.596 139.413 161.303 139.364 161.303 139.198C161.303 139.033 165.522 138.038 170.678 136.988C199.418 131.135 198.545 131.339 198.728 130.414C198.876 129.667 199.09 129.755 200.085 130.972C200.735 131.767 201.275 132.556 201.285 132.725ZM289.219 130.418C288.94 130.697 287.469 130.925 283.053 131.373L280.053 131.676L282.053 130.975C283.919 130.319 289.772 129.865 289.219 130.418ZM279.667 131.97C279.501 132.136 279.07 132.154 278.709 132.009C278.31 131.85 278.429 131.731 279.011 131.707C279.538 131.686 279.833 131.804 279.667 131.97ZM320.466 133.343C319.288 134.322 318.263 134.572 314.303 134.846C311.69 135.027 305.84 135.623 301.303 136.172C282.907 138.398 280.503 138.671 279.321 138.669C278.252 138.668 278.186 138.576 278.821 137.976C279.511 137.325 282.237 136.876 297.803 134.853C301.24 134.407 306.865 133.648 310.303 133.168C313.74 132.688 317.751 132.266 319.216 132.231L321.879 132.168L320.466 133.343ZM263.288 135.687C262.337 136.289 261.303 136.297 261.303 135.703C261.303 135.245 263.328 134.714 263.788 135.05C263.918 135.145 263.693 135.431 263.288 135.687ZM323.217 139.216C323.577 139.793 323.786 140.351 323.681 140.456C323.576 140.561 320.917 140.876 317.771 141.155C314.626 141.435 310.478 141.858 308.553 142.096C306.628 142.335 302.915 142.574 300.303 142.629C297.69 142.683 293.935 142.932 291.957 143.182C289.979 143.431 282.892 143.674 276.207 143.72C269.522 143.766 261.803 143.989 259.053 144.214C245.462 145.33 230.821 146.123 229.928 145.792C228.545 145.28 229.455 144.916 232.178 144.893C239.819 144.828 269.594 143.006 277.303 142.132C281.668 141.637 296.293 140.138 306.053 139.184C309.078 138.888 312.228 138.572 313.053 138.482C313.878 138.392 316.355 138.284 318.557 138.243C322.127 138.176 322.633 138.282 323.217 139.216ZM160.053 139.668C158.664 140.265 157.684 140.265 158.053 139.668C158.223 139.393 158.967 139.184 159.707 139.203C160.909 139.234 160.946 139.284 160.053 139.668ZM402.928 140.999C402.584 141.138 402.022 141.138 401.678 140.999C401.334 140.86 401.615 140.747 402.303 140.747C402.99 140.747 403.272 140.86 402.928 140.999ZM208.803 143.668C209.4 144.054 209.299 144.162 208.303 144.198C207.615 144.224 206.603 144.331 206.053 144.437C204.975 144.645 188.24 145.156 176.053 145.353C171.928 145.42 167.203 145.343 165.553 145.181C163.779 145.008 168.273 144.733 176.553 144.507C192.796 144.064 201.845 143.689 202.553 143.43C203.623 143.038 208.092 143.208 208.803 143.668ZM376.437 144.496C376.099 144.633 375.424 144.641 374.937 144.514C374.451 144.387 374.728 144.275 375.553 144.265C376.378 144.255 376.776 144.359 376.437 144.496ZM371.667 144.97C371.501 145.136 371.07 145.154 370.709 145.009C370.31 144.85 370.429 144.731 371.011 144.707C371.538 144.686 371.833 144.804 371.667 144.97ZM402.437 144.996C402.099 145.133 401.424 145.141 400.937 145.014C400.451 144.887 400.728 144.775 401.553 144.765C402.378 144.755 402.776 144.859 402.437 144.996ZM85.6779 147.791C87.3239 149.106 85.9774 149.255 75.4279 148.932C69.4469 148.749 62.9779 148.514 61.0529 148.409C59.1279 148.305 54.5804 148.185 50.9474 148.143C45.7699 148.083 44.2079 147.906 43.7224 147.321C43.1744 146.661 45.5134 146.616 64.0779 146.933C76.7164 147.15 85.3014 147.49 85.6779 147.791ZM138.803 147.168C138.803 147.443 137.959 147.677 136.928 147.687C134.9 147.709 132.249 147.871 119.303 148.769C119.165 148.778 118.378 148.742 117.553 148.687C114.69 148.499 117.276 148.105 125.642 147.454C136.514 146.608 138.803 146.558 138.803 147.168ZM201.937 148.496C201.599 148.633 200.924 148.641 200.437 148.514C199.951 148.387 200.228 148.275 201.053 148.265C201.878 148.255 202.276 148.359 201.937 148.496ZM329.712 149.021C329.581 149.702 328.388 150.051 323.8 150.751C318.562 151.55 316.182 151.759 304.928 152.409C302.823 152.531 301.303 152.419 301.303 152.143C301.303 151.882 301.997 151.668 302.845 151.668C304.397 151.668 314.538 150.136 321.053 148.918C322.978 148.558 325.75 148.242 327.214 148.215C329.469 148.175 329.851 148.298 329.712 149.021ZM180.667 148.97C180.501 149.136 180.07 149.154 179.709 149.009C179.31 148.85 179.429 148.731 180.011 148.707C180.538 148.686 180.833 148.804 180.667 148.97ZM353.053 153.218C350.853 153.421 348.49 153.64 347.803 153.705C345.722 153.902 344.303 153.695 344.303 153.193C344.303 152.614 348.813 152.341 353.553 152.634L357.053 152.85L353.053 153.218ZM295.667 152.97C295.501 153.136 295.07 153.154 294.709 153.009C294.31 152.85 294.429 152.731 295.011 152.707C295.538 152.686 295.833 152.804 295.667 152.97Z" fill="black"/>
</svg>
