<svg width="379" height="39" viewBox="0 0 379 39" fill="none" xmlns="http://www.w3.org/2000/svg">
<path fill-rule="evenodd" clip-rule="evenodd" d="M363.451 1.92299C361.11 4.26849 359.736 7.104 360.041 8.9605C360.166 9.7225 360.287 10.535 360.309 10.766C360.332 10.9975 362.263 13.091 364.602 15.4185C366.94 17.7465 369.22 20.37 369.669 21.2485C370.118 22.127 370.793 23.026 371.168 23.246C372.166 23.831 372 25.4805 370.883 26.0785C369.346 26.901 369.008 26.7185 368.163 24.6075C367.064 21.8615 365.316 21.4295 363.367 23.423C362.006 24.8155 361.972 24.9645 362.538 27.11C363.409 30.4115 364.124 31.4215 366.633 32.892C368.393 33.923 369.301 34.154 370.702 33.9265C374.924 33.241 378.717 26.414 376.931 22.714C376.701 22.2365 375.879 20.539 375.105 18.9415C374.239 17.1565 372.847 15.341 371.492 14.2305C369.154 12.3145 367.85 10.3065 367.85 8.62099C367.85 7.10349 369.462 7.33249 371.377 9.12099C373.884 11.4625 374.529 11.6795 376.519 10.848C378.41 10.0575 379.272 8.45701 378.383 7.38551C378.08 7.02101 377.961 6.38999 378.117 5.98299C378.453 5.10799 375.417 2.27699 373.137 1.33849C372.292 0.990986 370.198 0.5475 368.485 0.3535L365.37 0L363.451 1.92299ZM104.307 1.39799C103.897 1.8925 103.226 2.03849 102.3 1.83499C101.535 1.66699 100.418 1.7925 99.8173 2.114C98.9778 2.563 98.4613 2.55649 97.5833 2.08699C96.1358 1.31249 85.0358 1.71049 84.1788 2.56749C83.7703 2.97599 83.5683 7.73449 83.4908 18.746C83.3983 31.931 83.4948 34.4315 84.1118 34.898C85.2608 35.767 95.4298 35.0675 96.6748 34.034C97.1028 33.679 97.3503 32.3905 97.3503 30.519C97.3503 26.9515 96.9858 26.7185 92.7933 27.608C90.2058 28.157 89.6818 28.142 89.0393 27.499C88.3218 26.782 88.5033 24.175 89.2793 24.0405C89.4558 24.01 90.7948 23.934 92.2548 23.872C95.2473 23.7445 97.4858 22.224 96.4858 20.9985C96.1933 20.6395 95.9678 19.3235 95.9843 18.0735C96.0343 14.355 95.5493 13.916 92.0983 14.554C90.4938 14.8505 89.1318 15.0375 89.0723 14.9695C89.0123 14.9015 88.8068 13.6825 88.6153 12.261C88.1938 9.12699 88.5038 8.8845 93.6003 8.3585C97.3813 7.9685 98.3503 7.49449 98.3503 6.03499C98.3503 5.51849 98.5993 5.09599 98.9038 5.09599C99.2083 5.09599 99.3383 5.40599 99.1928 5.78549C99.0473 6.16449 99.1273 7.3455 99.3708 8.4105C100.005 11.181 100.602 21.246 100.59 28.9615C100.583 33.8545 100.746 35.641 101.215 35.821C101.565 35.955 101.85 36.409 101.85 36.8305C101.85 38.018 104.589 37.7825 106.032 36.471L107.269 35.346L106.818 27.6295C106.57 23.385 106.447 19.833 106.544 19.7355C106.894 19.3855 110.38 27.2895 111.415 30.781C112.703 35.1255 113.593 36.1335 116.421 36.452C118.223 36.6555 118.776 36.5065 119.602 35.5945C120.551 34.546 120.592 33.915 120.427 22.9185C120.332 16.5535 120.199 10.671 120.131 9.846C120.063 9.021 119.972 7.16449 119.929 5.72099C119.83 2.41099 118.688 1.09599 115.911 1.09599C112.844 1.09599 112.698 1.5565 112.955 10.4105C113.149 17.0955 113.083 18.0905 112.5 17.293C112.124 16.78 111.369 14.8945 110.82 13.103C110.272 11.3115 109.379 8.89199 108.837 7.72649C108.294 6.56049 107.85 5.25599 107.85 4.82649C107.85 3.66449 106.492 1.25749 105.655 0.936493C105.253 0.781993 104.646 0.989495 104.307 1.39799ZM141.89 2.11899C140.675 2.29349 136.381 2.36349 132.348 2.27499C123.584 2.08299 123.218 2.2295 123.372 5.87C123.43 7.2315 123.448 9.4525 123.412 10.805C123.314 14.5235 124.078 15.096 129.138 15.096H133.271L133.56 18.221C133.719 19.94 133.815 21.9085 133.773 22.596C133.664 24.359 134.804 36.116 135.135 36.6525C135.286 36.8965 136.408 37.096 137.63 37.096C140.1 37.096 142.076 35.676 141.666 34.1955C141.536 33.728 141.181 30.9835 140.876 28.096C140.571 25.2085 140.217 22.0255 140.089 21.023C139.96 20.0205 140 18.1405 140.178 16.845L140.501 14.4895L142.241 14.772C145.634 15.3225 148.854 12.925 148.043 10.452C147.844 9.844 147.55 7.91949 147.391 6.17599C147.121 3.23299 146.993 2.9635 145.6 2.4045C144.707 2.046 143.206 1.93049 141.89 2.11899ZM153.998 2.57399C148.909 2.87499 147.92 3.35749 148.847 5.08949C149.416 6.15249 149.266 19.5 148.565 30.2775C148.363 33.384 148.48 34.4695 149.123 35.451C150.033 36.8395 150.762 36.834 156.85 35.396C158.638 34.974 161.378 34.588 162.94 34.5385C166.121 34.4375 166.463 34.2975 167.269 32.766C167.709 31.9305 167.672 31.292 167.108 29.941C165.755 26.704 165.291 26.5035 160.039 26.889L155.35 27.233V24.72C155.35 22.213 155.354 22.2065 157.225 21.8525C158.257 21.6575 160.371 21.5145 161.924 21.5345C163.897 21.5605 164.941 21.3385 165.39 20.798C166.302 19.6995 166.446 15.101 165.578 14.7685C165.205 14.6255 162.752 14.7045 160.125 14.945L155.35 15.3815V13.2485C155.35 10.87 155.809 10.5895 159.6 10.6485C162.37 10.691 165.43 10.2165 165.989 9.65701C166.588 9.05851 165.969 4.44899 165.137 3.31149C164.417 2.32649 161.475 2.13199 153.998 2.57399ZM263.392 2.64899C260.334 3.17149 259.221 3.86649 259.56 5.04149C259.688 5.48399 259.944 7.871 260.129 10.346C260.314 12.821 260.554 14.9975 260.663 15.182C260.88 15.5505 261.351 27.019 261.351 31.9125C261.35 35.618 262.008 36.0005 265.92 34.5705C268.905 33.4795 268.822 33.5425 269.087 32.166C269.242 31.3615 268.985 31.0235 268.04 30.7865C266.825 30.4815 266.793 30.363 266.944 26.7125C267.066 23.7885 267.295 22.83 267.975 22.402C268.607 22.0045 269.094 22.0025 269.725 22.3945C270.902 23.1255 271.561 24.5675 273.007 29.579C274.499 34.745 275.491 35.691 278.109 34.4425C279.099 33.9705 279.934 33.827 280.103 34.0995C280.714 35.0895 283.833 36.1555 285.675 36.004L287.6 35.846L287.534 27.596C287.413 12.5295 286.857 3.92349 285.959 3.22099C284.644 2.19299 280.021 2.42549 278.868 3.57799C277.809 4.63749 277.81 6.9305 278.872 14.096C279.138 15.8835 279.479 20.496 279.631 24.346C279.887 30.821 279.847 31.271 279.107 30.346C278.667 29.796 278.183 28.7835 278.032 28.096C277.88 27.4085 277.456 26.1705 277.089 25.345C274.182 18.8095 274.236 19.0345 275.278 17.8945C278.225 14.6675 277.07 7.1085 273.107 3.687C271.533 2.328 267.679 1.91649 263.392 2.64899ZM317.913 2.48849C317.535 2.61649 316.803 3.14299 316.288 3.65849C315.162 4.78399 315.115 6.6565 316.056 12.846C316.435 15.3415 316.557 17.68 316.329 18.096C315.986 18.721 315.859 18.679 315.568 17.846C315.375 17.296 314.657 15.496 313.972 13.846C313.287 12.196 312.22 9.4335 311.603 7.7065C310.025 3.298 309.161 2.459 306.624 2.8705C305.511 3.051 304.443 3.34449 304.251 3.52249C304.059 3.70049 304.101 5.9835 304.345 8.596C304.589 11.2085 304.92 15.9335 305.081 19.096C305.242 22.2585 305.499 25.8585 305.653 27.096C305.855 28.721 305.78 29.1985 305.385 28.8145C305.084 28.5225 304.727 27.1945 304.593 25.8645C304.458 24.534 304.147 23.198 303.901 22.896C303.655 22.5935 302.976 19.7585 302.391 16.596C301.807 13.4335 301.066 9.98349 300.745 8.92899C300.298 7.45949 300.301 6.78949 300.756 6.06049C301.919 4.19799 301.488 3.72249 298.096 3.13199C295.754 2.72399 294.559 2.7165 293.832 3.1055C293.277 3.403 292.934 3.82749 293.071 4.04849C293.208 4.26999 292.985 6.90251 292.576 9.89851C292.168 12.8945 291.612 17.146 291.341 19.346C291.07 21.546 290.745 23.9085 290.619 24.596C290.493 25.2835 290.274 27.0475 290.134 28.516C289.993 29.985 289.735 31.95 289.56 32.883C289.275 34.4045 289.384 34.6335 290.62 35.1035C291.784 35.546 292.151 35.462 292.995 34.5565C293.963 33.5165 294.153 32.843 294.286 29.971C294.349 28.631 294.426 28.596 297.35 28.596C299.696 28.596 300.35 28.761 300.35 29.353C300.35 29.769 300.559 30.5005 300.814 30.978C301.069 31.4555 301.399 32.24 301.548 32.721C301.746 33.3595 302.349 33.596 303.777 33.596C304.855 33.596 306.362 33.921 307.127 34.3175C308.343 34.9485 308.741 34.946 310.292 34.2985C311.267 33.8905 312.215 33.3145 312.399 33.0175C312.702 32.527 312.529 25.4435 312.147 22.721C311.666 19.291 314.524 24.3225 316.577 30.5185C317.279 32.639 317.781 33.3255 319.005 33.84C321.033 34.693 321.501 34.452 322.584 31.9965C323.414 30.116 323.464 28.872 323.162 17.6415C322.874 6.92 322.717 5.18949 321.932 4.12299C320.999 2.85449 319.106 2.08449 317.913 2.48849ZM169.737 3.12949C168.947 3.58999 168.882 4.8985 168.962 18.65C169.063 35.7895 168.871 35.092 173.201 34C176.712 33.115 176.849 32.924 176.858 28.91C176.869 23.894 177.327 23.494 179.394 26.6985C180.706 28.734 181.389 29.346 182.35 29.346C183.335 29.346 183.612 29.0805 183.658 28.096C183.689 27.4085 183.883 26.449 184.089 25.9635C184.295 25.478 184.348 24.6425 184.208 24.106C183.955 23.137 185.203 17.1725 185.803 16.488C185.975 16.291 186.165 19.891 186.226 24.488C186.329 32.4095 186.392 32.893 187.429 33.746C188.03 34.241 189.103 34.5785 189.811 34.496C190.9 34.3695 191.194 33.966 191.702 31.906C192.699 27.869 192.624 7.01299 191.604 4.48999C191.343 3.84549 190.683 3.644 188.929 3.6725C185.556 3.7275 184.076 4.7945 182.832 8.0675C182.251 9.596 181.31 11.8585 180.739 13.096L179.703 15.346L178.682 13.096C178.121 11.8585 177.507 9.43249 177.319 7.70499C176.876 3.64649 175.96 2.59099 172.898 2.61099C171.634 2.61949 170.212 2.85249 169.737 3.12949ZM247.972 3.01849C245.965 3.60049 243.261 6.17301 242.169 8.53851C241.216 10.603 241.11 11.663 241.166 18.596C241.22 25.1905 241.379 26.6815 242.234 28.596C246.172 37.411 255.939 38.029 258.687 29.637C259.783 26.29 259.577 25.6575 257.031 24.5665C254.271 23.383 253.139 23.633 252.26 25.6195C251.9 26.4315 251.441 27.096 251.24 27.096C250.361 27.096 249.146 24.25 248.542 20.778C247.971 17.494 247.988 16.7715 248.679 15.046C249.314 13.4575 249.604 13.1835 250.159 13.645C250.539 13.9605 250.85 14.512 250.85 14.871C250.85 15.907 253.351 17.596 254.885 17.596C256.84 17.596 258.704 16.8075 259.26 15.745C259.564 15.1625 259.496 13.4385 259.067 10.846C258.702 8.646 258.391 6.82401 258.377 6.79751C256.999 4.27551 251.066 2.12099 247.972 3.01849ZM60.1383 3.83899C58.8673 4.29149 57.8768 4.378 57.3268 4.0835C56.4258 3.6015 54.4323 3.81299 53.7883 4.45949C53.2968 4.95299 53.1968 13.1385 53.6188 18.346C53.7973 20.546 53.9783 25.271 54.0218 28.846L54.1003 35.346L57.1003 35.4755C60.7713 35.6335 61.7548 35.1405 61.0248 33.507C60.4668 32.2585 60.0713 20.096 60.5883 20.096C61.3103 20.096 64.4333 27.7035 65.0188 30.8885L65.6548 34.346L68.1543 34.4935C71.1853 34.673 72.0193 33.943 72.9008 30.3395C73.2358 28.968 73.8608 26.6085 74.2888 25.096L75.0673 22.346L75.3803 24.346C75.5523 25.446 75.6378 28.0765 75.5698 30.191C75.4303 34.5385 75.8433 35.4155 78.1918 35.763C80.5483 36.1115 81.3463 34.969 81.1103 31.584C81.0053 30.078 80.7783 24.0635 80.6058 18.2185C80.2648 6.666 80.1848 5.85099 79.2833 4.76549C78.7073 4.07149 76.4988 4.13199 73.7168 4.91899C72.5543 5.24749 71.2733 7.9045 69.8348 12.971C69.1908 15.24 68.5368 17.0905 68.3818 17.084C67.7908 17.0585 65.3128 11.101 64.5203 7.7985C63.7253 4.4875 63.0878 3.071 62.4143 3.118C62.2413 3.13 61.2173 3.45449 60.1383 3.83899ZM332.1 3.43799C327.425 4.72199 325.013 10.8035 325.464 20.1705C325.711 25.2865 326.802 29.4025 328.126 30.21C328.576 30.4845 328.492 31.2745 327.787 33.413C327.272 34.974 326.85 36.546 326.85 36.906C326.85 37.8655 328.716 38.703 329.994 38.3175C331.631 37.8235 333.85 35.5585 333.854 34.3775C333.856 33.764 334.557 32.8695 335.582 32.171C338.178 30.4035 339.867 27.892 340.181 25.3345C340.518 22.5765 339.833 21.596 337.569 21.596C335.8 21.596 335.39 21.9755 334.6 24.346C333.887 26.486 332.844 26.204 331.449 23.4945C329.457 19.622 329.977 11.9935 332.382 9.81699C333.329 8.96049 333.535 8.94449 334.759 9.62949C335.497 10.042 336.343 11.1225 336.639 12.03C336.936 12.938 337.498 13.883 337.889 14.1305C340.216 15.6035 343.019 13.3105 342.376 10.46C341.826 8.02 339.497 4.62899 337.957 4.02599C336.261 3.36199 333.417 3.07649 332.1 3.43799ZM349.1 3.9805C345 4.3625 345.135 4.1295 343.349 13.855C342.814 16.7675 342.273 19.317 342.147 19.521C342.021 19.7245 341.79 21.0075 341.634 22.3715C341.478 23.7355 341.125 25.6365 340.85 26.5955C339.915 29.8585 340.311 33.596 341.593 33.596C341.942 33.596 342.508 33.9335 342.85 34.346C344.32 36.1175 347.326 34.683 347.378 32.1855C347.394 31.4485 347.675 30.065 348.003 29.1105C348.546 27.533 348.8 27.3585 350.794 27.1925C353.425 26.974 353.704 27.312 354.155 31.2545C354.414 33.521 354.741 34.329 355.638 34.9165C356.681 35.6 357.001 35.576 359.075 34.6585C362.369 33.2015 362.372 33.1775 360.173 25.846C359.761 24.471 358.719 21.4335 357.859 19.096C355.092 11.58 354.35 9.047 354.35 7.1125C354.35 4.4745 352.925 3.624 349.1 3.9805ZM8.60034 4.465C6.38584 4.789 5.99734 5.32599 5.69184 8.48299C5.41434 11.3495 4.08133 17.5545 2.68933 22.458C2.28133 23.8945 1.79784 26.257 1.61484 27.708C1.43184 29.159 0.937333 31.4285 0.515833 32.751C-0.193667 34.9785 -0.185168 35.228 0.627832 36.126C1.58133 37.18 5.04533 37.4945 5.61083 36.5785C5.78683 36.294 6.01734 34.7105 6.12284 33.06C6.22834 31.409 6.44833 29.842 6.61183 29.5775C6.77533 29.3125 8.69183 29.096 10.8703 29.096C14.7908 29.096 14.8343 29.11 15.1093 30.471C15.7073 33.4295 16.1593 34.3435 17.1108 34.518C17.6548 34.6175 18.4378 34.9685 18.8503 35.2975C19.6293 35.9185 39.2398 36.032 40.2283 35.4215C40.8158 35.058 40.4128 30.083 39.7258 29.221C39.4163 28.832 37.9558 28.596 35.8623 28.596H32.4968L32.1458 19.71C31.9173 13.914 31.9818 9.99 32.3323 8.4275C32.6273 7.1095 32.7393 5.82049 32.5803 5.56349C32.4213 5.30649 31.3228 5.09599 30.1388 5.09599C28.9553 5.09599 26.7883 4.86849 25.3238 4.59099C23.5973 4.26349 22.4893 4.25699 22.1738 4.57249C21.6528 5.09349 21.6358 7.82 22.0593 23.096L22.3293 32.846L21.0533 28.846C20.3513 26.646 19.2258 22.9335 18.5518 20.596C17.8783 18.2585 16.6568 14.2995 15.8383 11.798C15.0198 9.297 14.3503 6.894 14.3503 6.459C14.3503 4.488 12.5983 3.8805 8.60034 4.465ZM42.9903 4.6265C41.4378 5.2225 41.1453 6.9615 41.6163 12.7895C41.8408 15.5705 42.0683 21.48 42.1218 25.9215C42.2078 33.0635 42.3278 34.1115 43.1598 34.9845C44.5008 36.392 46.0088 36.7265 48.2713 36.1175C50.4298 35.536 52.0768 33.597 51.6238 32.1695C51.0963 30.508 50.9488 10.8465 51.4433 8.1215C51.8638 5.8055 51.8158 5.30749 51.1253 4.80249C50.1873 4.11649 44.6308 3.996 42.9903 4.6265ZM223.912 4.45949C223.258 4.58199 221.814 5.19349 220.701 5.81799C218.044 7.31049 217.07 10.104 217.901 13.846C218.72 17.5355 220.51 20 223.262 21.229C224.548 21.8035 226.039 22.244 226.574 22.208C228.005 22.1125 230.85 23.595 230.85 24.436C230.85 27.7015 227.302 27.975 223.994 24.964C222.947 24.0105 222.819 24.001 221.619 24.788C220.467 25.5425 220.35 25.931 220.35 29.014C220.35 32.123 220.475 32.5285 221.829 33.826C223.034 34.98 223.847 35.277 226.204 35.4245C228.689 35.58 229.557 35.3745 232.316 33.976C235.241 32.4935 235.589 32.1475 236.158 30.156C237.316 26.099 237.118 23.875 235.276 20.26C234.632 18.996 231.465 16.6725 228.6 15.3625C226.684 14.4865 225.874 13.7805 225.858 12.971C225.844 12.306 229.355 12.5725 230.86 13.351C232.24 14.0645 232.361 14.044 233.049 12.976C234.802 10.257 235.059 9.15499 234.168 8.17049C233.196 7.09699 229.71 5.308 227.772 4.888C227.041 4.73 226.141 4.51849 225.772 4.41849C225.402 4.31849 224.566 4.33649 223.912 4.45949ZM207.56 5.161C207.449 5.3405 206.608 5.386 205.69 5.2625C203.63 4.9845 202.68 5.97201 202.553 8.52151C202.504 9.52501 202.085 12.371 201.622 14.846C199.662 25.339 198.727 31.033 198.491 33.92C198.259 36.7655 198.323 37.02 199.352 37.3465C200.122 37.591 200.912 37.3685 201.918 36.625C202.718 36.034 203.568 35.6715 203.808 35.82C204.048 35.9685 204.326 34.309 204.424 32.1325C204.523 29.956 204.716 28.075 204.852 27.952C204.989 27.829 206.612 27.6125 208.46 27.471C212.28 27.1785 212.331 27.2295 212.548 31.511C212.72 34.926 213.041 35.256 215.784 34.845C218.472 34.4425 218.951 33.92 218.266 32.1375C217.824 30.987 217.238 28.0175 215.839 19.846C215.603 18.471 215.06 15.5825 214.63 13.427C214.201 11.2715 213.85 8.641 213.85 7.5815C213.85 6.522 213.569 5.47299 213.225 5.25049C212.479 4.76799 207.848 4.6945 207.56 5.161ZM270.396 11.484C271.006 13.334 270.427 15.422 268.93 16.7705C267.073 18.442 266.733 18.035 266.518 13.8815C266.253 8.79101 266.366 8.5 268.319 9.2375C269.368 9.633 270.017 10.3355 270.396 11.484ZM209.27 18.2315C209.864 20.0935 210.35 21.801 210.35 22.0255C210.35 22.25 209.365 22.471 208.162 22.5165L205.973 22.5995L206.626 19.4725C206.985 17.753 207.295 16.2895 207.314 16.221C207.334 16.1525 207.35 15.601 207.35 14.996C207.35 13.277 208.082 14.5105 209.27 18.2315ZM12.3498 20.721L13.2868 24.096H10.7528H8.21934L8.48384 22.471C8.62934 21.577 9.14033 19.499 9.61933 17.852C10.6088 14.4515 10.6108 14.4535 12.3498 20.721ZM298.367 19.66C299.085 22.4545 299.165 23.404 298.703 23.6975C298.01 24.138 295.648 24.227 295.248 23.8275C294.999 23.5785 296.045 17.7185 296.619 16.1495C297.019 15.056 297.357 15.7355 298.367 19.66ZM350.573 20.971C350.857 21.8995 350.727 22.096 349.826 22.096C348.937 22.096 348.79 21.8865 349.035 20.971C349.201 20.352 349.347 19.5085 349.359 19.096C349.378 18.4295 349.428 18.4295 349.805 19.096C350.038 19.5085 350.384 20.352 350.573 20.971Z" fill="black"/>
</svg>
