<svg width="998" height="225" viewBox="0 0 998 225" fill="none" xmlns="http://www.w3.org/2000/svg">
<path d="M495.945 0.806609C496.221 0.590609 500.228 0.29261 504.851 0.14411C514.136 -0.15389 573.468 0.0481077 581.555 0.405608C584.364 0.530108 594.273 0.771606 603.576 0.943106C612.88 1.11461 624.225 1.3516 628.789 1.4696C651.516 2.0571 744.937 2.48761 775.918 2.14711C783.114 2.06811 795.178 2.24211 802.726 2.53361C810.274 2.82561 824.78 3.00611 834.96 2.93511C878.516 2.63161 991.852 2.89061 995.036 3.30111C996.012 3.42711 997.017 3.69061 997.267 3.88711C997.937 4.41161 998.252 11.7496 997.759 15.3536L997.333 18.4731L994.748 19.0136C993.246 19.3276 991.326 19.3866 990.159 19.1546C989.055 18.9351 982.083 18.6216 974.665 18.4581C967.246 18.2951 959.922 18.0556 958.388 17.9266C956.854 17.7971 953.445 17.5816 950.812 17.4476C948.179 17.3136 944.014 17.0871 941.557 16.9441C939.099 16.8016 930.482 16.5641 922.408 16.4171C914.333 16.2701 905.023 17.2211 901.919 16.9441C898.972 16.6816 889.044 16.562 878.687 16.4372L877.025 16.4171C866.086 16.2846 853.543 16.4325 850.855 16.169C844.894 15.585 820.498 16.824 783.465 15.937C773.55 15.6995 769.357 15.7655 768.736 16.169C768.117 16.572 766.79 16.5935 764.086 16.244C760.421 15.7705 750.949 15.4925 722.325 15.019C714.777 14.8945 703 14.5555 696.155 14.266C689.309 13.9765 673.224 13.6405 660.41 13.5195C647.596 13.3985 632.947 13.175 627.856 13.0235C602.876 12.279 568.214 11.516 561.792 11.569C543.869 11.7175 538.724 11.629 531.792 11.0525C527.578 10.702 523.815 10.605 523.427 10.837C523.04 11.0685 521.226 11.036 519.398 10.764C517.569 10.4925 511.711 10.137 506.379 9.9735C501.048 9.8105 496.353 9.5975 495.946 9.5C495.132 9.305 495.127 1.44961 495.945 0.806609Z" fill="black"/>
<path d="M502.054 0.806609C501.779 0.590609 497.772 0.29261 493.148 0.14411C483.864 -0.15389 424.532 0.0481077 416.444 0.405608C413.636 0.530108 403.726 0.771606 394.423 0.943106C385.12 1.11461 373.774 1.3516 369.21 1.4696C346.484 2.0571 253.062 2.48761 222.082 2.14711C214.885 2.06811 202.821 2.24211 195.273 2.53361C187.725 2.82561 173.22 3.00611 163.039 2.93511C119.483 2.63161 6.14783 2.89061 2.96399 3.30111C1.98737 3.42711 0.982697 3.69061 0.732483 3.88711C0.0629272 4.41161 -0.252411 11.7496 0.240356 15.3536L0.666748 18.4731L3.25122 19.0136C4.75378 19.3276 6.6738 19.3866 7.84061 19.1546C8.94424 18.9351 15.9164 18.6216 23.3347 18.4581C30.7531 18.2951 38.0775 18.0556 39.6114 17.9266C41.1452 17.7971 44.5544 17.5816 47.1874 17.4476C49.8204 17.3136 53.9853 17.0871 56.4428 16.9441C58.9002 16.8016 67.5173 16.5641 75.5918 16.4171C83.6663 16.2701 92.9767 17.2211 96.0807 16.9441C99.0275 16.6816 108.956 16.562 119.313 16.4372L120.974 16.4171C131.913 16.2846 144.456 16.4325 147.145 16.169C153.105 15.585 177.501 16.824 214.535 15.937C224.45 15.6995 228.643 15.7655 229.263 16.169C229.883 16.572 231.21 16.5935 233.913 16.244C237.579 15.7705 247.051 15.4925 275.675 15.019C283.222 14.8945 294.999 14.5555 301.845 14.266C308.691 13.9765 324.776 13.6405 337.59 13.5195C350.404 13.3985 365.053 13.175 370.143 13.0235C395.124 12.279 429.786 11.516 436.207 11.569C454.13 11.7175 459.275 11.629 466.207 11.0525C470.421 10.702 474.184 10.605 474.572 10.837C474.96 11.0685 476.773 11.036 478.602 10.764C480.431 10.4925 486.289 10.137 491.621 9.9735C496.952 9.8105 501.646 9.5975 502.054 9.5C502.868 9.305 502.872 1.44961 502.054 0.806609Z" fill="black"/>
<path d="M495.945 19.8066C496.221 19.5906 500.228 19.2926 504.851 19.1441C514.136 18.8461 573.468 19.0481 581.555 19.4056C584.364 19.5301 594.273 19.7716 603.576 19.9431C612.88 20.1146 624.225 20.3516 628.789 20.4696C651.516 21.0571 744.937 21.4876 775.918 21.1471C783.114 21.0681 795.178 21.2421 802.726 21.5336C810.274 21.8256 824.78 22.0061 834.96 21.9351C878.516 21.6316 991.852 21.8906 995.036 22.3011C996.012 22.4271 997.017 22.6906 997.267 22.8871C997.937 23.4116 998.252 30.7496 997.759 34.3536L997.333 37.4731L994.748 38.0136C993.246 38.3276 991.326 38.3866 990.159 38.1546C989.055 37.9351 982.083 37.6216 974.665 37.4581C967.246 37.2951 959.922 37.0556 958.388 36.9266C956.854 36.7971 953.445 36.5816 950.812 36.4476C948.179 36.3136 944.014 36.0871 941.557 35.9441C939.099 35.8016 930.482 35.5641 922.408 35.4171C914.333 35.2701 905.023 36.2211 901.919 35.9441C898.972 35.6816 889.044 35.562 878.687 35.4372L877.025 35.4171C866.086 35.2846 853.543 35.4325 850.855 35.169C844.894 34.585 820.498 35.824 783.465 34.937C773.55 34.6995 769.357 34.7655 768.736 35.169C768.117 35.572 766.79 35.5935 764.086 35.244C760.421 34.7705 750.949 34.4925 722.325 34.019C714.777 33.8945 703 33.5555 696.155 33.266C689.309 32.9765 673.224 32.6405 660.41 32.5195C647.596 32.3985 632.947 32.175 627.856 32.0235C602.876 31.279 568.214 30.516 561.792 30.569C543.869 30.7175 538.724 30.629 531.792 30.0525C527.578 29.702 523.815 29.605 523.427 29.837C523.04 30.0685 521.226 30.036 519.398 29.764C517.569 29.4925 511.711 29.137 506.379 28.9735C501.048 28.8105 496.353 28.5975 495.946 28.5C495.132 28.305 495.127 20.4496 495.945 19.8066Z" fill="black"/>
<path d="M502.054 19.8066C501.779 19.5906 497.772 19.2926 493.148 19.1441C483.864 18.8461 424.532 19.0481 416.444 19.4056C413.636 19.5301 403.726 19.7716 394.423 19.9431C385.12 20.1146 373.774 20.3516 369.21 20.4696C346.484 21.0571 253.062 21.4876 222.082 21.1471C214.885 21.0681 202.821 21.2421 195.273 21.5336C187.725 21.8256 173.22 22.0061 163.039 21.9351C119.483 21.6316 6.14783 21.8906 2.96399 22.3011C1.98737 22.4271 0.982697 22.6906 0.732483 22.8871C0.0629272 23.4116 -0.252411 30.7496 0.240356 34.3536L0.666748 37.4731L3.25122 38.0136C4.75378 38.3276 6.6738 38.3866 7.84061 38.1546C8.94424 37.9351 15.9164 37.6216 23.3347 37.4581C30.7531 37.2951 38.0775 37.0556 39.6114 36.9266C41.1452 36.7971 44.5544 36.5816 47.1874 36.4476C49.8204 36.3136 53.9853 36.0871 56.4428 35.9441C58.9002 35.8016 67.5173 35.5641 75.5918 35.4171C83.6663 35.2701 92.9767 36.2211 96.0807 35.9441C99.0275 35.6816 108.956 35.562 119.313 35.4372L120.974 35.4171C131.913 35.2846 144.456 35.4325 147.145 35.169C153.105 34.585 177.501 35.824 214.535 34.937C224.45 34.6995 228.643 34.7655 229.263 35.169C229.883 35.572 231.21 35.5935 233.913 35.244C237.579 34.7705 247.051 34.4925 275.675 34.019C283.222 33.8945 294.999 33.5555 301.845 33.266C308.691 32.9765 324.776 32.6405 337.59 32.5195C350.404 32.3985 365.053 32.175 370.143 32.0235C395.124 31.279 429.786 30.516 436.207 30.569C454.13 30.7175 459.275 30.629 466.207 30.0525C470.421 29.702 474.184 29.605 474.572 29.837C474.96 30.0685 476.773 30.036 478.602 29.764C480.431 29.4925 486.289 29.137 491.621 28.9735C496.952 28.8105 501.646 28.5975 502.054 28.5C502.868 28.305 502.872 20.4496 502.054 19.8066Z" fill="black"/>
<path d="M495.945 38.8066C496.221 38.5906 500.228 38.2926 504.851 38.1441C514.136 37.8461 573.468 38.0481 581.555 38.4056C584.364 38.5301 594.273 38.7716 603.576 38.9431C612.88 39.1146 624.225 39.3516 628.789 39.4696C651.516 40.0571 744.937 40.4876 775.918 40.1471C783.114 40.0681 795.178 40.2421 802.726 40.5336C810.274 40.8256 824.78 41.0061 834.96 40.9351C878.516 40.6316 991.852 40.8906 995.036 41.3011C996.012 41.4271 997.017 41.6906 997.267 41.8871C997.937 42.4116 998.252 49.7496 997.759 53.3536L997.333 56.4731L994.748 57.0136C993.246 57.3276 991.326 57.3866 990.159 57.1546C989.055 56.9351 982.083 56.6216 974.665 56.4581C967.246 56.2951 959.922 56.0556 958.388 55.9266C956.854 55.7971 953.445 55.5816 950.812 55.4476C948.179 55.3136 944.014 55.0871 941.557 54.9441C939.099 54.8016 930.482 54.5641 922.408 54.4171C914.333 54.2701 905.023 55.2211 901.919 54.9441C898.972 54.6816 889.044 54.562 878.687 54.4372L877.025 54.4171C866.086 54.2846 853.543 54.4325 850.855 54.169C844.894 53.585 820.498 54.824 783.465 53.937C773.55 53.6995 769.357 53.7655 768.736 54.169C768.117 54.572 766.79 54.5935 764.086 54.244C760.421 53.7705 750.949 53.4925 722.325 53.019C714.777 52.8945 703 52.5555 696.155 52.266C689.309 51.9765 673.224 51.6405 660.41 51.5195C647.596 51.3985 632.947 51.175 627.856 51.0235C602.876 50.279 568.214 49.516 561.792 49.569C543.869 49.7175 538.724 49.629 531.792 49.0525C527.578 48.702 523.815 48.605 523.427 48.837C523.04 49.0685 521.226 49.036 519.398 48.764C517.569 48.4925 511.711 48.137 506.379 47.9735C501.048 47.8105 496.353 47.5975 495.946 47.5C495.132 47.305 495.127 39.4496 495.945 38.8066Z" fill="black"/>
<path d="M502.054 38.8066C501.779 38.5906 497.772 38.2926 493.148 38.1441C483.864 37.8461 424.532 38.0481 416.444 38.4056C413.636 38.5301 403.726 38.7716 394.423 38.9431C385.12 39.1146 373.774 39.3516 369.21 39.4696C346.484 40.0571 253.062 40.4876 222.082 40.1471C214.885 40.0681 202.821 40.2421 195.273 40.5336C187.725 40.8256 173.22 41.0061 163.039 40.9351C119.483 40.6316 6.14783 40.8906 2.96399 41.3011C1.98737 41.4271 0.982697 41.6906 0.732483 41.8871C0.0629272 42.4116 -0.252411 49.7496 0.240356 53.3536L0.666748 56.4731L3.25122 57.0136C4.75378 57.3276 6.6738 57.3866 7.84061 57.1546C8.94424 56.9351 15.9164 56.6216 23.3347 56.4581C30.7531 56.2951 38.0775 56.0556 39.6114 55.9266C41.1452 55.7971 44.5544 55.5816 47.1874 55.4476C49.8204 55.3136 53.9853 55.0871 56.4428 54.9441C58.9002 54.8016 67.5173 54.5641 75.5918 54.4171C83.6663 54.2701 92.9767 55.2211 96.0807 54.9441C99.0275 54.6816 108.956 54.562 119.313 54.4372L120.974 54.4171C131.913 54.2846 144.456 54.4325 147.145 54.169C153.105 53.585 177.501 54.824 214.535 53.937C224.45 53.6995 228.643 53.7655 229.263 54.169C229.883 54.572 231.21 54.5935 233.913 54.244C237.579 53.7705 247.051 53.4925 275.675 53.019C283.222 52.8945 294.999 52.5555 301.845 52.266C308.691 51.9765 324.776 51.6405 337.59 51.5195C350.404 51.3985 365.053 51.175 370.143 51.0235C395.124 50.279 429.786 49.516 436.207 49.569C454.13 49.7175 459.275 49.629 466.207 49.0525C470.421 48.702 474.184 48.605 474.572 48.837C474.96 49.0685 476.773 49.036 478.602 48.764C480.431 48.4925 486.289 48.137 491.621 47.9735C496.952 47.8105 501.646 47.5975 502.054 47.5C502.868 47.305 502.872 39.4496 502.054 38.8066Z" fill="black"/>
<path d="M495.933 57.8066C496.208 57.5906 500.216 57.2926 504.839 57.1441C514.124 56.8461 573.456 57.0481 581.543 57.4056C584.351 57.5301 594.261 57.7716 603.564 57.9431C612.867 58.1146 624.213 58.3516 628.777 58.4696C651.504 59.0571 744.925 59.4876 775.905 59.1471C783.102 59.0681 795.166 59.2421 802.714 59.5336C810.262 59.8256 824.767 60.0061 834.948 59.9351C878.504 59.6316 991.839 59.8906 995.023 60.3011C996 60.4271 997.005 60.6906 997.255 60.8871C997.924 61.4116 998.24 68.7496 997.747 72.3536L997.321 75.4731L994.736 76.0136C993.234 76.3276 991.314 76.3866 990.147 76.1546C989.043 75.9351 982.071 75.6216 974.653 75.4581C967.234 75.2951 959.91 75.0556 958.376 74.9266C956.842 74.7971 953.433 74.5816 950.8 74.4476C948.167 74.3136 944.002 74.0871 941.545 73.9441C939.087 73.8016 930.47 73.5641 922.396 73.4171C914.321 73.2701 905.011 74.2211 901.907 73.9441C898.96 73.6816 889.031 73.562 878.674 73.4372L877.013 73.4171C866.074 73.2846 853.531 73.4325 850.842 73.169C844.882 72.585 820.486 73.824 783.452 72.937C773.538 72.6995 769.345 72.7655 768.724 73.169C768.104 73.572 766.777 73.5935 764.074 73.244C760.409 72.7705 750.937 72.4925 722.313 72.019C714.765 71.8945 702.988 71.5555 696.142 71.266C689.297 70.9765 673.211 70.6405 660.398 70.5195C647.584 70.3985 632.935 70.175 627.844 70.0235C602.864 69.279 568.201 68.516 561.78 68.569C543.857 68.7175 538.712 68.629 531.78 68.0525C527.566 67.702 523.803 67.605 523.415 67.837C523.028 68.0685 521.214 68.036 519.385 67.764C517.557 67.4925 511.698 67.137 506.367 66.9735C501.036 66.8105 496.341 66.5975 495.934 66.5C495.12 66.305 495.115 58.4496 495.933 57.8066Z" fill="black"/>
<path d="M502.066 57.8066C501.791 57.5906 497.784 57.2926 493.161 57.1441C483.876 56.8461 424.544 57.0481 416.457 57.4056C413.648 57.5301 403.739 57.7716 394.435 57.9431C385.132 58.1146 373.786 58.3516 369.222 58.4696C346.496 59.0571 253.075 59.4876 222.094 59.1471C214.897 59.0681 202.833 59.2421 195.285 59.5336C187.738 59.8256 173.232 60.0061 163.051 59.9351C119.496 59.6316 6.16003 59.8906 2.9762 60.3011C1.99957 60.4271 0.994904 60.6906 0.74469 60.8871C0.0751343 61.4116 -0.240204 68.7496 0.252563 72.3536L0.678955 75.4731L3.26343 76.0136C4.76599 76.3276 6.686 76.3866 7.85281 76.1546C8.95645 75.9351 15.9286 75.6216 23.3469 75.4581C30.7653 75.2951 38.0898 75.0556 39.6236 74.9266C41.1574 74.7971 44.5666 74.5816 47.1996 74.4476C49.8326 74.3136 53.9975 74.0871 56.455 73.9441C58.9124 73.8016 67.5295 73.5641 75.604 73.4171C83.6785 73.2701 92.9889 74.2211 96.093 73.9441C99.0397 73.6816 108.968 73.562 119.325 73.4372L120.987 73.4171C131.925 73.2846 144.469 73.4325 147.157 73.169C153.117 72.585 177.514 73.824 214.547 72.937C224.462 72.6995 228.655 72.7655 229.275 73.169C229.895 73.572 231.222 73.5935 233.925 73.244C237.591 72.7705 247.063 72.4925 275.687 72.019C283.235 71.8945 295.011 71.5555 301.857 71.266C308.703 70.9765 324.788 70.6405 337.602 70.5195C350.416 70.3985 365.065 70.175 370.155 70.0235C395.136 69.279 429.798 68.516 436.219 68.569C454.142 68.7175 459.288 68.629 466.22 68.0525C470.434 67.702 474.196 67.605 474.585 67.837C474.972 68.0685 476.785 68.036 478.614 67.764C480.443 67.4925 486.301 67.137 491.633 66.9735C496.964 66.8105 501.659 66.5975 502.066 66.5C502.88 66.305 502.885 58.4496 502.066 57.8066Z" fill="black"/>
<path d="M495.933 76.8066C496.208 76.5906 500.216 76.2926 504.839 76.1441C514.124 75.8461 573.456 76.0481 581.543 76.4056C584.351 76.5301 594.261 76.7716 603.564 76.9431C612.867 77.1146 624.213 77.3516 628.777 77.4696C651.504 78.0571 744.925 78.4876 775.905 78.1471C783.102 78.0681 795.166 78.2421 802.714 78.5336C810.262 78.8256 824.767 79.0061 834.948 78.9351C878.504 78.6316 991.839 78.8906 995.023 79.3011C996 79.4271 997.005 79.6906 997.255 79.8871C997.924 80.4116 998.24 87.7496 997.747 91.3536L997.321 94.4731L994.736 95.0136C993.234 95.3276 991.314 95.3866 990.147 95.1546C989.043 94.9351 982.071 94.6216 974.653 94.4581C967.234 94.2951 959.91 94.0556 958.376 93.9266C956.842 93.7971 953.433 93.5816 950.8 93.4476C948.167 93.3136 944.002 93.0871 941.545 92.9441C939.087 92.8016 930.47 92.5641 922.396 92.4171C914.321 92.2701 905.011 93.2211 901.907 92.9441C898.96 92.6816 889.031 92.562 878.674 92.4372L877.013 92.4171C866.074 92.2846 853.531 92.4325 850.842 92.169C844.882 91.585 820.486 92.824 783.452 91.937C773.538 91.6995 769.345 91.7655 768.724 92.169C768.104 92.572 766.777 92.5935 764.074 92.244C760.409 91.7705 750.937 91.4925 722.313 91.019C714.765 90.8945 702.988 90.5555 696.142 90.266C689.297 89.9765 673.211 89.6405 660.398 89.5195C647.584 89.3985 632.935 89.175 627.844 89.0235C602.864 88.279 568.201 87.516 561.78 87.569C543.857 87.7175 538.712 87.629 531.78 87.0525C527.566 86.702 523.803 86.605 523.415 86.837C523.028 87.0685 521.214 87.036 519.385 86.764C517.557 86.4925 511.698 86.137 506.367 85.9735C501.036 85.8105 496.341 85.5975 495.934 85.5C495.12 85.305 495.115 77.4496 495.933 76.8066Z" fill="black"/>
<path d="M502.066 76.8066C501.791 76.5906 497.784 76.2926 493.161 76.1441C483.876 75.8461 424.544 76.0481 416.457 76.4056C413.648 76.5301 403.739 76.7716 394.435 76.9431C385.132 77.1146 373.786 77.3516 369.222 77.4696C346.496 78.0571 253.075 78.4876 222.094 78.1471C214.897 78.0681 202.833 78.2421 195.285 78.5336C187.738 78.8256 173.232 79.0061 163.051 78.9351C119.496 78.6316 6.16003 78.8906 2.9762 79.3011C1.99957 79.4271 0.994904 79.6906 0.74469 79.8871C0.0751343 80.4116 -0.240204 87.7496 0.252563 91.3536L0.678955 94.4731L3.26343 95.0136C4.76599 95.3276 6.686 95.3866 7.85281 95.1546C8.95645 94.9351 15.9286 94.6216 23.3469 94.4581C30.7653 94.2951 38.0898 94.0556 39.6236 93.9266C41.1574 93.7971 44.5666 93.5816 47.1996 93.4476C49.8326 93.3136 53.9975 93.0871 56.455 92.9441C58.9124 92.8016 67.5295 92.5641 75.604 92.4171C83.6785 92.2701 92.9889 93.2211 96.093 92.9441C99.0397 92.6816 108.968 92.562 119.325 92.4372L120.987 92.4171C131.925 92.2846 144.469 92.4325 147.157 92.169C153.117 91.585 177.514 92.824 214.547 91.937C224.462 91.6995 228.655 91.7655 229.275 92.169C229.895 92.572 231.222 92.5935 233.925 92.244C237.591 91.7705 247.063 91.4925 275.687 91.019C283.235 90.8945 295.011 90.5555 301.857 90.266C308.703 89.9765 324.788 89.6405 337.602 89.5195C350.416 89.3985 365.065 89.175 370.155 89.0235C395.136 88.279 429.798 87.516 436.219 87.569C454.142 87.7175 459.288 87.629 466.22 87.0525C470.434 86.702 474.196 86.605 474.585 86.837C474.972 87.0685 476.785 87.036 478.614 86.764C480.443 86.4925 486.301 86.137 491.633 85.9735C496.964 85.8105 501.659 85.5975 502.066 85.5C502.88 85.305 502.885 77.4496 502.066 76.8066Z" fill="black"/>
<path d="M495.933 95.8066C496.208 95.5906 500.216 95.2926 504.839 95.1441C514.124 94.8461 573.456 95.0481 581.543 95.4056C584.351 95.5301 594.261 95.7716 603.564 95.9431C612.867 96.1146 624.213 96.3516 628.777 96.4696C651.504 97.0571 744.925 97.4876 775.905 97.1471C783.102 97.0681 795.166 97.2421 802.714 97.5336C810.262 97.8256 824.767 98.0061 834.948 97.9351C878.504 97.6316 991.839 97.8906 995.023 98.3011C996 98.4271 997.005 98.6906 997.255 98.8871C997.924 99.4116 998.24 106.75 997.747 110.354L997.321 113.473L994.736 114.014C993.234 114.328 991.314 114.387 990.147 114.155C989.043 113.935 982.071 113.622 974.653 113.458C967.234 113.295 959.91 113.056 958.376 112.927C956.842 112.797 953.433 112.582 950.8 112.448C948.167 112.314 944.002 112.087 941.545 111.944C939.087 111.802 930.47 111.564 922.396 111.417C914.321 111.27 905.011 112.221 901.907 111.944C898.96 111.682 889.031 111.562 878.674 111.437L877.013 111.417C866.074 111.285 853.531 111.432 850.842 111.169C844.882 110.585 820.486 111.824 783.452 110.937C773.538 110.699 769.345 110.765 768.724 111.169C768.104 111.572 766.777 111.594 764.074 111.244C760.409 110.771 750.937 110.492 722.313 110.019C714.765 109.894 702.988 109.555 696.142 109.266C689.297 108.976 673.211 108.641 660.398 108.52C647.584 108.399 632.935 108.175 627.844 108.023C602.864 107.279 568.201 106.516 561.78 106.569C543.857 106.718 538.712 106.629 531.78 106.052C527.566 105.702 523.803 105.605 523.415 105.837C523.028 106.068 521.214 106.036 519.385 105.764C517.557 105.493 511.698 105.137 506.367 104.974C501.036 104.811 496.341 104.597 495.934 104.5C495.12 104.305 495.115 96.4496 495.933 95.8066Z" fill="black"/>
<path d="M502.066 95.8066C501.791 95.5906 497.784 95.2926 493.161 95.1441C483.876 94.8461 424.544 95.0481 416.457 95.4056C413.648 95.5301 403.739 95.7716 394.435 95.9431C385.132 96.1146 373.786 96.3516 369.222 96.4696C346.496 97.0571 253.075 97.4876 222.094 97.1471C214.897 97.0681 202.833 97.2421 195.285 97.5336C187.738 97.8256 173.232 98.0061 163.051 97.9351C119.496 97.6316 6.16003 97.8906 2.9762 98.3011C1.99957 98.4271 0.994904 98.6906 0.74469 98.8871C0.0751343 99.4116 -0.240204 106.75 0.252563 110.354L0.678955 113.473L3.26343 114.014C4.76599 114.328 6.686 114.387 7.85281 114.155C8.95645 113.935 15.9286 113.622 23.3469 113.458C30.7653 113.295 38.0898 113.056 39.6236 112.927C41.1574 112.797 44.5666 112.582 47.1996 112.448C49.8326 112.314 53.9975 112.087 56.455 111.944C58.9124 111.802 67.5295 111.564 75.604 111.417C83.6785 111.27 92.9889 112.221 96.093 111.944C99.0397 111.682 108.968 111.562 119.325 111.437L120.987 111.417C131.925 111.285 144.469 111.432 147.157 111.169C153.117 110.585 177.514 111.824 214.547 110.937C224.462 110.699 228.655 110.765 229.275 111.169C229.895 111.572 231.222 111.594 233.925 111.244C237.591 110.771 247.063 110.492 275.687 110.019C283.235 109.894 295.011 109.555 301.857 109.266C308.703 108.976 324.788 108.641 337.602 108.52C350.416 108.399 365.065 108.175 370.155 108.023C395.136 107.279 429.798 106.516 436.219 106.569C454.142 106.718 459.288 106.629 466.22 106.052C470.434 105.702 474.196 105.605 474.585 105.837C474.972 106.068 476.785 106.036 478.614 105.764C480.443 105.493 486.301 105.137 491.633 104.974C496.964 104.811 501.659 104.597 502.066 104.5C502.88 104.305 502.885 96.4496 502.066 95.8066Z" fill="black"/>
<path d="M495.933 114.807C496.208 114.591 500.216 114.293 504.839 114.144C514.124 113.846 573.456 114.048 581.543 114.406C584.351 114.53 594.261 114.772 603.564 114.943C612.867 115.115 624.213 115.352 628.777 115.47C651.504 116.057 744.925 116.488 775.905 116.147C783.102 116.068 795.166 116.242 802.714 116.534C810.262 116.826 824.767 117.006 834.948 116.935C878.504 116.632 991.839 116.891 995.023 117.301C996 117.427 997.005 117.691 997.255 117.887C997.924 118.412 998.24 125.75 997.747 129.354L997.321 132.473L994.736 133.014C993.234 133.328 991.314 133.387 990.147 133.155C989.043 132.935 982.071 132.622 974.653 132.458C967.234 132.295 959.91 132.056 958.376 131.927C956.842 131.797 953.433 131.582 950.8 131.448C948.167 131.314 944.002 131.087 941.545 130.944C939.087 130.802 930.47 130.564 922.396 130.417C914.321 130.27 905.011 131.221 901.907 130.944C898.96 130.682 889.031 130.562 878.674 130.437L877.013 130.417C866.074 130.285 853.531 130.432 850.842 130.169C844.882 129.585 820.486 130.824 783.452 129.937C773.538 129.699 769.345 129.765 768.724 130.169C768.104 130.572 766.777 130.594 764.074 130.244C760.409 129.771 750.937 129.492 722.313 129.019C714.765 128.894 702.988 128.555 696.142 128.266C689.297 127.976 673.211 127.641 660.398 127.52C647.584 127.399 632.935 127.175 627.844 127.023C602.864 126.279 568.201 125.516 561.78 125.569C543.857 125.718 538.712 125.629 531.78 125.052C527.566 124.702 523.803 124.605 523.415 124.837C523.028 125.068 521.214 125.036 519.385 124.764C517.557 124.493 511.698 124.137 506.367 123.974C501.036 123.811 496.341 123.597 495.934 123.5C495.12 123.305 495.115 115.45 495.933 114.807Z" fill="black"/>
<path d="M502.066 114.807C501.791 114.591 497.784 114.293 493.161 114.144C483.876 113.846 424.544 114.048 416.457 114.406C413.648 114.53 403.739 114.772 394.435 114.943C385.132 115.115 373.786 115.352 369.222 115.47C346.496 116.057 253.075 116.488 222.094 116.147C214.897 116.068 202.833 116.242 195.285 116.534C187.738 116.826 173.232 117.006 163.051 116.935C119.496 116.632 6.16003 116.891 2.9762 117.301C1.99957 117.427 0.994904 117.691 0.74469 117.887C0.0751343 118.412 -0.240204 125.75 0.252563 129.354L0.678955 132.473L3.26343 133.014C4.76599 133.328 6.686 133.387 7.85281 133.155C8.95645 132.935 15.9286 132.622 23.3469 132.458C30.7653 132.295 38.0898 132.056 39.6236 131.927C41.1574 131.797 44.5666 131.582 47.1996 131.448C49.8326 131.314 53.9975 131.087 56.455 130.944C58.9124 130.802 67.5295 130.564 75.604 130.417C83.6785 130.27 92.9889 131.221 96.093 130.944C99.0397 130.682 108.968 130.562 119.325 130.437L120.987 130.417C131.925 130.285 144.469 130.432 147.157 130.169C153.117 129.585 177.514 130.824 214.547 129.937C224.462 129.699 228.655 129.765 229.275 130.169C229.895 130.572 231.222 130.594 233.925 130.244C237.591 129.771 247.063 129.492 275.687 129.019C283.235 128.894 295.011 128.555 301.857 128.266C308.703 127.976 324.788 127.641 337.602 127.52C350.416 127.399 365.065 127.175 370.155 127.023C395.136 126.279 429.798 125.516 436.219 125.569C454.142 125.718 459.288 125.629 466.22 125.052C470.434 124.702 474.196 124.605 474.585 124.837C474.972 125.068 476.785 125.036 478.614 124.764C480.443 124.493 486.301 124.137 491.633 123.974C496.964 123.811 501.659 123.597 502.066 123.5C502.88 123.305 502.885 115.45 502.066 114.807Z" fill="black"/>
<path d="M701.975 111.702L681.32 97.0098L669.12 79.1938L672.398 70.6204L690.321 72.6327L692.125 64.6332L696.427 56.5095L706.089 59.5333L706.812 47.8831L714.327 31.8901L724.888 32.8667L741.703 46.8488L747.088 42.3758L758.223 44.8257L765.82 58.6655L756.838 71.3273L734.453 98.3724L730.3 93.3726L714.396 69.5331L709.195 79.7039L701.975 111.702Z" fill="#60A845"/>
<path fill-rule="evenodd" clip-rule="evenodd" d="M666.823 85.0014L675.13 95.0011C683.506 101.693 700.911 114.925 703.524 114.315C704.86 114.003 705.785 109.142 706.982 102.853C708.712 93.7602 711.011 81.682 715.939 76.0508C716.217 75.6031 717.246 75.7455 719.134 79.8968C721.495 85.086 732.033 101.683 733.056 102.133C734.08 102.582 736.511 103.163 737.346 101.819C737.882 99.8569 739.263 95.6762 740.494 94.6539C741.395 93.9052 741.791 93.3535 742.118 92.8965C742.35 92.5733 742.548 92.2975 742.867 92.0328C743.038 91.8904 743.869 90.9098 745.119 89.4342C749.479 84.2879 758.94 73.1203 763.322 70.4902C768.961 67.1059 771.091 55.5859 769.109 53.9824C768.432 53.4346 768.017 52.2894 767.497 50.8527C766.494 48.0838 765.1 44.2319 760.678 41.4854C753.963 37.3138 747.43 38.8404 744.673 41.781C742.467 44.1335 741.237 41.8184 740.898 40.3668C736.684 33.4676 725.473 21.3294 714.35 27.9701C703.226 34.6108 702.862 45.9629 704.071 50.8088C704.41 52.2604 704.424 54.676 701.764 52.7258C698.438 50.288 689.657 56.9321 689.841 62.6302C689.987 67.1886 689.168 69.906 688.74 70.6949C684.539 68.7679 674.856 65.7184 669.729 68.937C664.603 72.1556 665.656 80.9876 666.823 85.0014ZM755.453 67.2772C748.376 73.156 738.82 87.1612 734.926 93.429C729.394 82.8574 717.539 60.2916 714.372 54.6019C710.414 47.4897 713.888 36.804 719.781 34.5084C724.496 32.672 732.743 42.8082 736.277 48.1059C737.192 49.7291 739.495 53.2324 741.389 54.2596C743.282 55.2868 746.706 51.7925 748.181 49.9169C749.422 48.0196 753.31 45.1363 758.938 48.7813C765.973 53.3375 764.299 59.9288 755.453 67.2772ZM673.238 77.0726C675.727 90.085 692.853 101.729 701.105 105.924C701.432 93.1719 707.597 75.3973 710.638 68.1041L707.443 64.258C705.526 61.9504 701.686 61.2402 699.19 61.3644C697.192 61.4637 696.775 63.1532 696.817 63.9855C696.789 68.1253 696.426 76.6605 695.195 77.6829C694.252 78.4662 693.023 78.0226 690.061 76.9542C688.191 76.2793 685.629 75.3551 682.012 74.3334C674.538 72.222 673.048 75.2798 673.238 77.0726Z" fill="black"/>
<path d="M296.467 134.702L317.123 120.01L329.323 102.194L326.044 93.6204L308.122 95.6327L306.317 87.6332L302.016 79.5095L292.354 82.5333L291.631 70.8831L284.116 54.8901L273.555 55.8667L256.74 69.8488L251.355 65.3758L240.22 67.8257L232.623 81.6655L241.605 94.3273L263.989 121.372L268.143 116.373L284.047 92.5331L289.248 102.704L296.467 134.702Z" fill="#60A845"/>
<path fill-rule="evenodd" clip-rule="evenodd" d="M331.62 108.001L323.313 118.001C314.937 124.693 297.531 137.925 294.918 137.315C293.583 137.003 292.658 132.142 291.461 125.853C289.731 116.76 287.432 104.682 282.504 99.0508C282.226 98.6031 281.197 98.7455 279.309 102.897C276.948 108.086 266.41 124.683 265.387 125.133C264.363 125.582 261.932 126.163 261.097 124.819C260.561 122.857 259.18 118.676 257.949 117.654C257.048 116.905 256.652 116.354 256.324 115.896C256.093 115.573 255.895 115.297 255.576 115.033C255.405 114.89 254.574 113.91 253.324 112.434C248.964 107.288 239.503 96.1203 235.121 93.4902C229.482 90.1059 227.352 78.5859 229.334 76.9824C230.011 76.4346 230.426 75.2894 230.946 73.8527C231.948 71.0838 233.343 67.2319 237.765 64.4854C244.48 60.3138 251.013 61.8404 253.77 64.781C255.976 67.1335 257.206 64.8184 257.545 63.3668C261.759 56.4676 272.969 44.3294 284.093 50.9701C295.217 57.6108 295.581 68.9629 294.372 73.8088C294.033 75.2604 294.019 77.676 296.679 75.7258C300.004 73.288 308.785 79.9321 308.602 85.6302C308.455 90.1886 309.275 92.906 309.703 93.6949C313.904 91.7679 323.587 88.7184 328.714 91.937C333.84 95.1556 332.787 103.988 331.62 108.001ZM242.99 90.2772C250.067 96.156 259.623 110.161 263.517 116.429C269.049 105.857 280.904 83.2916 284.07 77.6019C288.029 70.4897 284.555 59.804 278.662 57.5084C273.947 55.672 265.7 65.8082 262.166 71.1059C261.251 72.7291 258.947 76.2324 257.054 77.2596C255.161 78.2868 251.737 74.7925 250.261 72.9169C249.021 71.0196 245.133 68.1363 239.505 71.7813C232.47 76.3375 234.144 82.9288 242.99 90.2772ZM325.205 100.073C322.716 113.085 305.59 124.729 297.338 128.924C297.011 116.172 290.846 98.3973 287.804 91.1041L290.999 87.258C292.916 84.9504 296.756 84.2402 299.253 84.3644C301.251 84.4637 301.667 86.1532 301.626 86.9855C301.654 91.1253 302.017 99.6605 303.248 100.683C304.191 101.466 305.42 101.023 308.381 99.9542C310.252 99.2793 312.814 98.3551 316.43 97.3334C323.905 95.222 325.395 98.2798 325.205 100.073Z" fill="black"/>
<path d="M309.624 79.488L307.749 66.9905L319.622 44.4949L349.616 33.2471L383.359 52.6183L404.605 33.2471L430.225 23.249L465.218 35.7466L471.467 25.7485L505.835 23.249L518.333 35.7466H538.329L551.451 25.7485H560.825L572.697 23.249L600.192 40.7456L612.065 28.8729H618.313L688.3 33.2471L690.174 61.3666L671.428 67.6154L673.927 98.8592L683.301 106.358L685.175 114.481L670.178 135.102L635.185 133.228L626.437 129.478V116.356L635.185 106.358L632.686 76.9885H612.065L610.19 64.491H600.192L597.692 93.8602L588.944 98.8592L586.445 104.483L572.697 110.107L548.327 121.355L538.329 114.481L530.206 101.984L518.333 118.855L496.462 127.604L471.467 129.478L465.218 118.855L430.225 124.479L413.353 121.355L399.606 143.85H383.359L375.236 135.102H370.862L360.864 152.599H342.742L330.87 110.107L322.121 93.8602L309.624 83.8622V79.488Z" fill="#60A845"/>
<path fill-rule="evenodd" clip-rule="evenodd" d="M396.482 42.62L408.355 90.1107L417.103 97.6092L425.226 110.732L442.098 113.856L455.22 110.732L458.97 86.9863L467.718 74.4888L469.593 66.9902L465.843 53.2429L458.97 30.7473L430.85 21.999L403.98 31.3722L396.482 42.62ZM422.727 52.618L431.475 83.2371L442.723 80.1127V67.6151L449.597 66.3654L443.973 46.3693L430.225 41.9951L422.727 52.618ZM325.246 70.7395L321.497 41.9951L350.241 33.2468L380.86 51.3683L383.984 75.7385L391.483 78.8629L399.606 104.483H405.855L413.979 118.23L408.355 126.354H392.108L376.486 101.359L368.362 106.358L372.112 133.852L360.864 131.353L352.116 133.852L341.493 88.861L335.869 73.239L325.246 70.7395ZM484.59 45.1195L477.091 46.3693L472.092 37.621L470.842 25.1234L506.46 23.2488L522.082 35.1215L519.583 68.8649L525.832 75.7385L527.706 98.859V106.982L507.71 115.731L477.091 118.23V98.859H488.339L484.59 45.1195ZM503.336 50.1183L499.587 36.9958L506.46 35.7461L507.71 48.2437L503.336 50.1183ZM510.209 83.8617L506.46 94.4846L501.461 85.7363L503.336 82.6119L510.209 83.8617ZM550.202 25.1234H559.575L572.697 22.6239L596.443 35.7463L604.566 53.8678L599.567 68.24L597.693 92.6102L585.195 102.608L568.323 111.357L557.076 101.983L538.954 84.4868L537.079 35.7463L550.202 25.1234ZM556.451 59.4916L565.824 73.2389L583.32 67.615L584.57 62.616L580.821 59.4916L577.697 46.994H567.698L556.451 59.4916ZM617.064 27.6229L688.3 30.1224L690.799 61.3663L672.678 65.7405L675.177 98.859L685.176 105.108L681.426 122.604H662.055L638.31 116.98V108.232L647.683 105.108V63.241L620.188 61.3663L617.064 27.6229Z" fill="white"/>
<path fill-rule="evenodd" clip-rule="evenodd" d="M558.909 21.6466C559.354 20.783 561.341 19.945 565.783 18.7484C569.22 17.8223 572.594 17.0356 573.282 17.0006C574.027 16.9625 576.39 18.6947 579.138 21.2935C583.709 25.6164 583.772 25.6502 587.261 25.6639C591.061 25.6789 596.09 27.5242 596.09 28.9039C596.09 30.1893 600.967 35.0371 601.855 34.6347C602.293 34.436 604.584 32.0308 606.946 29.2888C611.912 23.5243 613.636 22.4371 615.352 23.9886C616.762 25.2653 617.313 25.2871 618.204 24.1011C618.585 23.5931 619.741 23.1382 620.772 23.0901C622.88 22.9926 656.965 24.2573 664.201 24.7022C666.779 24.8603 673.752 25.1771 679.698 25.4065L690.508 25.8226L691.675 28.1084C692.316 29.3663 693.046 31.5065 693.296 32.8656C693.546 34.2241 694.036 35.5208 694.385 35.7463C694.84 37.1577 695.212 38.2301 695.532 39.1546C696.137 40.897 696.559 42.1143 697.007 44.0872L696.812 46.1168L696.616 48.1458C695.696 55.439 695.696 55.4398 693.521 65.2813L693.521 65.2817L693.521 65.2843C693.164 65.577 692.902 65.5469 692.62 65.5144C692.152 65.4605 691.628 65.4002 690.521 66.7971C688.65 67.0086 686.86 66.8944 685.226 66.7901C678.654 66.3708 674.604 66.1124 677.949 87.8499V92.4871C679.874 94.1499 681.581 95.3997 683.045 96.4715L683.045 96.4718C687.474 99.7154 689.677 101.328 688.985 107.822L688.935 111.415C688.904 113.599 687.171 117.98 678.74 130.578C677.285 132.267 675.777 134.345 675.391 135.195C673.038 137.3 669.914 137.3 666.395 136.663C665.515 135.321 664.975 135.192 659.975 135.13C652.345 135.035 651.561 135.163 648.896 135.597C647.729 135.787 646.202 136.036 643.58 136.35L641.42 135.637C640.019 135.175 637.054 135.063 632.992 135.318C626.746 135.709 626.719 135.705 625.139 134C624.267 133.059 623.392 131.644 623.194 130.857C622.997 130.069 622.37 129.292 621.804 129.131C621.236 128.969 621.032 112.747 625.139 110.189L632.11 101.885C631.249 85.1958 631.06 84.0233 630.679 81.6662C630.572 81.0022 630.45 80.2441 630.293 79.0185L610.149 77.76L604.921 65.8073C602.697 63.685 602.776 67.5593 602.894 73.3371C603.073 82.171 603.343 95.4546 595.612 98.5576C591.876 100.057 590.769 101.937 589.718 103.721C588.672 105.499 587.68 107.182 584.201 108.304C573.449 110.266 568.481 113.853 564.145 116.984C559.731 120.171 555.972 122.885 547.432 122.928C534.465 115.081 533.165 112.542 532.115 110.489C532.08 110.42 532.045 110.352 532.01 110.285L531.96 110.189C531.369 107.947 531.112 106.561 530.982 105.857L530.982 105.856L530.982 105.856C530.91 105.466 530.876 105.286 530.846 105.286C530.82 105.287 530.797 105.42 530.753 105.668C530.337 108.038 528.083 120.873 504.321 127.927C472.265 133.815 470.611 131.608 466.987 126.772C465.737 125.104 464.253 123.123 461.205 121.053C454.758 121.918 451.904 122.725 448.924 123.566C445.284 124.595 441.456 125.676 430.662 126.982C426.569 127.212 424.449 126.31 421.034 124.858L421.034 124.858C419.692 124.288 418.152 123.633 416.214 122.928C416.215 121.279 404.621 139.149 403.12 142.299C402.19 144.251 394.238 144.913 388.738 145.371C386.331 145.571 384.394 145.733 383.72 145.946C380.359 147.011 376.148 140.651 374.489 138.144L374.343 137.925C373.291 136.341 371.429 140.38 369.416 144.746C367.459 148.991 365.359 153.547 363.721 153.547C362.189 153.547 359.421 153.809 345.279 155.38C340.299 155.933 339.878 154.308 338.995 150.902C338.64 149.53 338.209 147.869 337.376 145.946C336.219 143.273 335.816 141.762 335.424 140.291C334.895 138.307 334.386 136.398 332.07 131.811C331.039 128.228 330.777 126.787 330.416 124.794C330.107 123.093 329.726 120.991 328.731 116.811C328.731 114.01 325.25 105.749 324.181 103.523C324.181 103.433 323.598 102.279 322.872 100.838C321.769 98.6512 320.334 95.8057 320.101 95.0304C319.435 92.8071 317.921 90.5025 314.873 90.1363C303.884 83.5086 304.259 82.6482 306.08 78.4774C306.483 77.5521 306.958 76.4639 307.396 75.1136C307.396 74.0907 304.867 67.2539 304 65.9292C307.608 57.1858 309.07 55.1286 310.446 53.1927C311.114 52.2529 311.762 51.3416 312.625 49.708L314.354 45.9587C316.271 41.8013 316.698 41.59 319.074 40.4151C319.322 40.2924 319.592 40.1592 319.886 40.0099C325.181 38.1018 328.816 36.7441 331.522 35.7335C335.05 34.4159 336.998 33.6882 338.988 33.0994C341.443 32.373 343.96 31.8582 349.584 30.7083L350.868 30.4459L382.467 47.9424L388.503 43.2155L395.347 37.856L404.006 27.3215L418.312 22.6333L419.027 22.2835L419.028 22.2835L419.028 22.2834C424.178 19.7653 426.579 18.5913 429.044 18.4373C431.198 18.3027 433.4 18.9466 437.525 20.1529L438.18 20.3443L439.447 20.714C456.968 25.8279 459.386 26.5336 460.433 28.1354C460.6 28.3918 460.733 28.6712 460.886 28.9953L460.956 29.1407L461.928 31.1822L463.807 29.3038C464.84 28.2709 466.345 26.9937 467.15 26.4663C467.956 25.9382 468.615 24.9928 468.615 24.3654C468.615 22.3171 469.15 22.1734 479.862 21.3379C483.815 21.0298 491.169 20.29 496.205 19.6938C501.241 19.0983 506.162 18.8103 507.14 19.0546C508.155 19.3077 510.679 21.3348 513.018 23.7749C516.838 27.761 517.368 28.0953 520.829 28.699C522.871 29.0545 528.057 29.4138 532.355 29.4969L540.169 29.6475L544.794 26.3994C548.092 24.083 550.008 23.1507 551.472 23.1507C555.571 23.1507 555.026 26.1963 550.323 29.57C548.516 30.8667 545.692 33.1162 544.05 34.5691L541.063 37.2104L540.67 46.1431C540.289 54.8257 540.317 55.1032 541.637 56.028C542.385 56.5516 542.875 57.1746 542.728 57.4133C542.58 57.6514 542.29 61.8393 542.082 66.7203C541.874 71.6006 541.546 76.0072 541.352 76.5121C540.923 77.63 545.38 83.8195 548.019 85.7709C549.445 86.8245 549.827 87.5131 549.566 88.5548C549.323 89.5227 549.621 90.2195 550.557 90.8749C551.292 91.3905 554.599 94.4299 557.904 97.6299C561.21 100.829 564.616 104.057 565.474 104.802L567.033 106.158L571.719 104.655C574.297 103.828 577.32 103.148 578.437 103.143C580.192 103.136 580.468 102.92 580.468 101.551C580.468 98.9646 582.186 97.085 586.93 94.4811C594.429 90.3657 595.09 87.9542 593.547 70.3608C593.187 66.2541 593.045 62.3174 593.233 61.6125C593.419 60.9076 594.491 59.9091 595.612 59.3936C597.601 58.4794 597.652 58.3581 597.652 54.5039C597.652 51.3808 597.894 50.3735 598.808 49.7023C599.97 48.8494 599.848 48.1695 598.191 46.2711C596.381 44.1972 591.902 38.8945 589.863 36.4106C587.98 34.1173 587.374 33.7736 585.216 33.7736C583.637 33.7736 582.266 33.338 581.445 32.5769C580.736 31.9189 578.093 30.2662 575.573 28.9045C571.168 26.5244 570.89 26.4581 568.387 27.1949C566.892 27.6348 565.062 27.761 564.09 27.4917C561.802 26.8568 561.275 27.6398 559.787 33.8786C559.104 36.7424 557.392 41.4046 555.982 44.2403C553.279 49.6761 552.222 50.3753 549.178 48.7463C547.608 47.9058 547.962 45.755 550.711 39.4281C551.838 36.8336 553.423 32.6201 554.232 30.0649C555.041 27.5098 556.284 24.8435 556.994 24.1405C557.704 23.4369 558.566 22.3146 558.909 21.6466ZM438.982 28.3247C435.862 27.0955 433.041 25.8501 432.715 25.5577C431.857 24.7878 431.102 24.9259 428.409 26.3469C427.089 27.0436 424.418 28.1309 422.472 28.7633C420.528 29.3963 417.953 30.3261 416.75 30.831C415.547 31.3353 412.927 31.9452 410.928 32.1858L407.294 32.6238L404.024 39.5056L400.754 46.388L401.563 51.172C402.008 53.8034 402.936 57.827 403.624 60.1122C404.849 64.1808 407.976 76.6252 409.332 82.8265C410.035 86.044 410.067 86.0815 418.679 94.0831C421.165 96.3932 421.689 97.3387 422.63 101.207C424.385 108.426 424.712 108.619 436.458 109.366C447.861 110.091 448.883 109.813 449.609 105.796C449.842 104.504 450.149 102.885 450.292 102.198C452.094 93.5038 452.403 91.1205 451.819 90.4163C451.068 89.5121 457.443 79.4484 462.365 73.767L465.382 70.2839L464.853 65.6198C464.561 63.0547 463.87 59.831 463.316 58.4563C462.762 57.0815 462.09 55.3944 461.821 54.707C461.552 54.0196 460.706 52.1662 459.941 50.5884C458.955 48.5576 458.44 46.0518 458.178 42.0095C457.848 36.9211 457.665 36.2544 456.494 35.8882C455.771 35.662 452.811 34.3703 449.917 33.0181C447.022 31.6659 442.101 29.5538 438.982 28.3247ZM507.982 26.9593C507.982 26.5019 505.525 26.2751 500.571 26.2751C496.494 26.2751 491.925 26.142 490.416 25.9795C488.907 25.8164 487.392 25.7964 487.048 25.9345C486.705 26.0726 483.401 26.3732 479.706 26.6031C473.195 27.0074 472.989 27.0649 472.989 28.4852C472.989 29.2913 473.228 30.0987 473.521 30.2799C473.814 30.4605 474.216 32.5157 474.414 34.8471L474.416 34.8772C474.715 38.3953 474.844 39.9171 475.656 40.5227C476.275 40.9844 477.291 40.9135 479.082 40.7887L479.103 40.7872C482.856 40.5254 485.989 41.3365 486.369 42.6687C486.817 44.2403 487.997 59.2823 488.367 68.1419C488.663 75.228 488.988 77.6113 489.86 79.0772C490.754 80.5801 490.916 81.8811 490.677 85.6385C490.513 88.2161 490.651 91.9972 490.982 94.0412C491.363 96.3939 491.367 98.381 490.991 99.4583C489.877 102.654 482.626 104.594 481.918 101.885C481.567 100.542 481.21 100.393 480.078 101.114C479.247 101.643 478.267 112.295 478.84 114.576C479.221 116.096 479.225 116.096 482.823 115.25C487.051 114.255 493.479 114.127 495.756 114.992C497.371 115.606 497.964 117.685 496.74 118.441C495.534 119.186 483.252 121.308 480.175 121.302C478.457 121.299 476.066 121.358 474.863 121.433L472.676 121.569L472.658 117.195C472.648 114.789 472.865 111.555 473.139 110.009C474.219 103.916 474.205 102.999 473.016 101.956C472.383 101.402 471.394 100.191 470.818 99.2671C469.785 97.6099 469.804 97.5474 472.178 94.8929L474.585 92.1997L474.754 79.0772C474.91 66.9196 475.097 63.9371 475.876 61.1526C476.046 60.5465 477.552 59.6485 479.423 59.0386C483.799 57.6102 483.849 57.5664 482.619 56.2073C482.028 55.5543 481.219 53.7409 480.822 52.1775C480.425 50.614 479.836 49.2787 479.513 49.2093C479.19 49.14 478.211 50.4891 477.338 52.2075C476.466 53.9259 474.85 56.9984 473.745 59.0361C471.394 63.3772 471.369 63.5253 472.936 63.9352C475.748 64.67 472.733 73.9482 468.003 79.1166C465.079 82.3122 462.666 86.4502 461.792 89.7677C461.42 91.1793 460.831 95.9596 460.483 100.391L459.85 108.447L456.578 111.374L453.305 114.302L458.617 114.186L463.928 114.07L464.425 107.529C464.934 100.836 465.362 99.8663 467.672 100.163C469.864 100.445 470.678 103.271 469.934 108.012C469.573 110.313 469.108 114.024 468.902 116.257C468.547 120.11 468.629 120.455 470.5 122.975L472.472 125.631H477.32C481.374 125.631 482.353 125.426 483.299 124.381C484.55 122.999 486.184 122.792 488.03 123.78C489.038 124.319 489.362 124.163 489.964 122.842C490.785 121.04 492.436 120.779 493.662 122.257C494.475 123.237 497.798 123.172 502.197 122.093L503.599 121.748L502.384 120.044C499.37 115.81 500.98 112.213 506.337 111.212C507.994 110.902 511.818 109.661 514.836 108.454C517.853 107.247 520.736 106.259 521.241 106.259C522.121 106.259 524.704 103.916 524.173 103.6C524.032 103.516 523.354 103.137 522.667 102.758C520.839 101.75 520.738 96.5688 522.402 89.3352C522.481 88.9925 522.557 88.6625 522.631 88.3448L522.718 87.9692L522.722 87.9537L522.725 87.9387L522.725 87.9385L522.725 87.9384L522.725 87.9381C523.816 83.2294 524.261 81.3094 523.694 79.7587C523.304 78.6911 522.435 77.7987 520.967 76.2918C520.767 76.0867 520.556 75.8702 520.334 75.6404C518.174 73.4065 515.204 70.5664 513.732 69.3285C512.239 68.0719 510.928 66.3622 510.763 65.4561C510.45 63.7308 512.994 58.5206 517.517 51.6226C520.449 47.1522 520.345 45.3351 516.874 40.4273C510.684 31.674 507.982 27.5817 507.982 26.9593ZM685.278 34.3079C682.837 33.0019 640.731 29.8744 628.896 30.1199C625.803 30.1843 622.673 30.04 621.94 29.7994C620.749 29.4082 620.563 29.655 620.192 32.1295C619.964 33.6517 619.95 38.6108 620.161 43.1492C620.528 50.9921 620.638 51.5264 622.378 53.929C623.385 55.3194 624.209 56.7991 624.209 57.2177C624.209 58.0782 626.881 58.5237 633.27 58.7299C635.676 58.8074 640.878 59.1992 644.83 59.601L652.016 60.3309L652.102 83.0333L652.187 105.736L650.381 107.584C648.866 109.133 647.92 109.493 644.516 109.811L640.456 110.189V112.264C640.456 113.633 640.844 114.547 641.596 114.949C642.223 115.285 646.121 115.544 650.258 115.526C658.918 115.488 660.261 115.766 662.122 117.98C663.929 120.128 668.187 120.339 670.148 118.377C671.513 117.013 676.352 115.924 678.089 116.591C679.351 117.075 679.698 116.464 680.47 112.4C681.414 107.427 680.854 105.765 678.06 105.253C676.796 105.021 674.866 104.053 673.772 103.101C672.677 102.15 671.201 101.186 670.491 100.961C669.781 100.736 669.182 100.219 669.16 99.8126C669.138 99.4058 669.153 96.5313 669.194 93.4251C669.257 88.6441 668.664 81.5686 667.653 75.0155C667.521 74.1563 667.22 71.2725 666.983 68.6074C666.528 63.4821 667.048 61.8931 669.18 61.8931C669.772 61.8931 670.738 61.3594 671.329 60.7077C672.627 59.2736 676.065 58.3688 682.323 57.8158C684.9 57.5883 687.082 57.3321 687.171 57.2465C687.26 57.1609 687.145 52.1119 686.915 46.0262C686.534 35.9275 686.391 34.904 685.278 34.3079ZM609.285 42.9443C611.391 41.0059 611.575 40.5341 611.998 36.0225C612.248 33.3599 612.323 31.0529 612.166 30.8954C612.009 30.7386 611.414 31.3228 610.843 32.1933C610.273 33.0644 608.275 35.3927 606.403 37.3679C602.918 41.0459 602.335 42.6737 603.792 44.6658C604.852 46.1162 606.348 45.6475 609.285 42.9443ZM372.288 48.8663C365.145 45.7231 363.42 44.6833 357.596 40.0099C354.606 37.611 351.578 35.6638 350.868 35.6838C349.708 35.7151 343.741 37.6797 330.829 42.2807C328.423 43.138 325.962 43.9972 325.361 44.1909C323.97 44.6377 323.984 45.9306 325.464 53.894C326.122 57.4346 326.837 61.3819 327.053 62.6667C327.514 65.408 328.757 66.2429 332.506 66.3297C336.811 66.4291 338.318 67.0608 338.395 68.7999C338.509 71.3769 338.652 71.6218 339.347 70.4283C339.737 69.7559 339.942 66.6415 339.84 62.9298C339.608 54.5651 339.868 46.7573 340.449 44.5846C340.825 43.1755 341.271 42.8343 342.736 42.8343C344.366 42.8343 344.602 43.0936 345.007 45.3338C345.255 46.7086 345.595 51.4795 345.761 55.9367C346.101 65.0668 345.181 72.0174 343.089 76.1184C342.366 77.5363 342.018 78.8479 342.317 79.0328C342.966 79.4334 344.258 84.3312 344.637 87.8255C345.1 92.106 346.253 96.4595 347.697 99.3858C349.657 103.358 350.075 105.429 349.002 105.841C348.26 106.126 348.251 106.638 348.946 109.186C350.347 114.33 351.704 120.795 352.138 124.381C352.628 128.436 353.391 129.737 354.662 128.683C355.251 128.193 356.745 128.125 359.421 128.463C361.567 128.735 364.166 129.026 365.197 129.111C366.228 129.196 367.525 129.447 368.078 129.669C368.957 130.02 369.021 129.684 368.594 126.982C368.326 125.283 366.948 120.242 365.533 115.781C362.705 106.864 361.591 101.31 362.426 100.286C362.722 99.9219 364.874 99.2714 367.206 98.8403C369.538 98.4091 372.634 97.6318 374.085 97.1131C378.01 95.7109 379.371 96.1358 380.755 99.1958C381.833 101.582 382.102 101.785 383.749 101.455C386.289 100.947 387.396 102.55 386.619 105.611C386.116 107.594 386.316 108.447 388.174 112.229C389.348 114.617 390.679 117.554 391.132 118.757C391.585 119.96 392.129 121.149 392.342 121.4C392.554 121.651 395.067 121.484 397.925 121.029L403.12 120.202L405.191 122.154C406.329 123.229 407.525 124.019 407.847 123.912C408.564 123.673 407.845 118.775 406.375 113.864C405.791 111.915 405.352 109.689 405.401 108.915C405.482 107.596 405.244 107.509 401.53 107.509C398.434 107.509 397.338 107.25 396.497 106.321C395.905 105.667 395.499 104.753 395.593 104.29C395.688 103.827 395.462 102.885 395.092 102.198C394.721 101.51 394.228 99.8232 393.995 98.4485C393.762 97.0737 392.696 93.3332 391.627 90.1363C389.824 84.7449 389.521 84.2556 387.438 83.3858C386.204 82.8702 384.473 81.6898 383.593 80.7625C382.714 79.8358 381.521 78.796 380.942 78.4523C380.087 77.9449 379.838 76.5383 379.615 70.9538C379.463 67.1733 379.043 63.1085 378.68 61.9212C378.318 60.7339 377.977 58.3438 377.924 56.6098C377.771 51.6901 377.33 51.0852 372.288 48.8663ZM473.141 46.2711C472.871 46.2711 472.05 45.0757 471.315 43.6154C470.581 42.1551 469.704 40.2567 469.366 39.3975L468.75 37.8353L468.058 39.5943C467.677 40.5616 467.365 41.5239 467.365 41.732C467.365 41.9407 466.915 42.6081 466.366 43.2155C465.447 44.2303 465.48 44.7133 466.778 49.2006C467.554 51.8857 468.379 54.3014 468.609 54.5701C468.84 54.8388 470.064 53.0811 471.33 50.6647C472.596 48.2483 473.411 46.2711 473.141 46.2711ZM424.863 42.7225C424.868 41.6302 425.336 40.2729 425.903 39.7062C426.548 39.0607 427.425 38.822 428.246 39.0675C428.969 39.2825 433.215 40.1823 437.683 41.0665C442.151 41.9514 446.228 42.8824 446.744 43.1355C447.456 43.4861 447.632 44.4796 447.479 47.2772C447.367 49.3012 447.619 51.8013 448.039 52.8324C448.458 53.8634 449.009 56.3086 449.263 58.2663C449.517 60.224 450.337 63.091 451.086 64.6382C452.73 68.0338 452.193 69.5647 448.991 70.6214C446.292 71.5118 446.008 72.2992 446.881 76.4615C447.532 79.564 447.478 79.9808 446.187 81.7942C445.417 82.8758 444.032 83.9182 443.109 84.11C442.187 84.3018 440.211 85.0142 438.719 85.6935C437.227 86.3721 434.766 87.0976 433.251 87.3056C429.387 87.8349 427.79 86.1427 426.814 80.4838C426.414 78.1649 425.224 73.6658 424.171 70.4858C421.094 61.2001 419.265 54.2508 419.257 51.8132C419.25 49.916 419.634 49.2556 421.592 47.7846C424.586 45.5363 424.851 45.1251 424.863 42.7225ZM525.993 47.9614C528.089 45.4582 531.343 41.2134 531.96 40.1786C532.282 39.6387 531.947 39.3975 530.874 39.3975C529.873 39.3975 528.807 40.0799 527.869 41.3202C527.07 42.3775 525.767 43.9535 524.974 44.8208C523.883 46.0156 523.627 46.8323 523.924 48.182L524.315 49.9648L525.993 47.9614ZM559.827 47.0241C560.288 45.7506 561.113 44.3665 561.662 43.9479C562.936 42.9749 564.049 42.9455 564.359 43.876C564.493 44.2771 565.571 44.5627 566.755 44.5109C567.939 44.459 569.751 44.3765 570.782 44.3278C571.813 44.279 574.253 44.3234 576.203 44.4265C580.24 44.6408 580.537 44.9758 581.72 50.6453C582.578 54.7595 583.574 57.5189 584.201 57.5189C584.453 57.5189 585.41 58.2151 586.328 59.0655C588.829 61.3832 588.669 61.8468 580.201 76.7339C577.538 81.4161 576.799 82.2035 575.297 81.9579C575.03 81.9148 573.594 82.186 572.103 82.5615C569.61 83.1889 569.086 83.0896 565.573 81.3155C561.55 79.2853 559.847 77.1163 559.847 74.0257C559.847 69.296 557.019 65.0175 553.893 65.0175C551.848 65.0175 551.661 63.8002 552.904 58.5831C554.21 53.1042 555.981 49.7798 557.732 49.5236C558.538 49.4055 559.292 48.5051 559.827 47.0241ZM531.053 57.4215C533.511 55.0125 533.602 54.7801 533.602 50.9096C533.602 48.7019 533.455 46.896 533.276 46.896C533.097 46.896 532.63 47.599 532.239 48.4582C531.847 49.3174 531.298 50.0204 531.018 50.0204C530.739 50.0204 530.041 50.934 529.469 52.0513C528.896 53.1685 528.257 54.2227 528.047 54.3946C527.838 54.5664 527.313 55.3381 526.881 56.1098C526.211 57.3084 526.272 57.6876 527.301 58.7162C528.489 59.9047 528.537 59.8885 531.053 57.4215ZM437.129 50.5297C437.995 49.6636 437.809 49.4968 435.267 48.8569C431.918 48.0139 431.747 48.0027 431.747 48.6288C431.747 48.8944 432.742 49.6467 433.957 50.3016C435.947 51.3733 436.263 51.3958 437.129 50.5297ZM577.28 54.5095C576.862 52.5562 576.354 50.7784 576.151 50.5591C575.379 49.728 573.207 49.5605 571.251 50.1816C568.949 50.9121 568.486 51.8594 570.626 51.4582C572.203 51.1621 576.094 54.0053 576.094 55.4537C576.094 56.8185 574.159 60.2415 572.876 61.1476C572.24 61.5963 571.719 62.2237 571.719 62.5405C571.719 63.2085 577.906 66.8777 579.045 66.8865C579.673 66.8909 581.717 63.8765 581.717 62.9473C581.717 62.8054 580.89 61.6487 579.878 60.3759C578.784 58.9993 577.732 56.6222 577.28 54.5095ZM319.889 69.4416C321.483 67.6844 322.385 66.0935 322.371 65.0675C322.359 64.1808 321.856 60.5059 321.254 56.9003L320.159 50.3453L316.771 56.2754C314.908 59.5373 312.74 63.1566 311.955 64.3195C310.585 66.3453 310.409 69.0911 311.591 69.9659C311.861 70.1658 312.1 70.6101 312.122 70.9538C312.185 71.9424 314.195 76.1459 314.777 76.5059C315.067 76.6846 315.773 75.7904 316.345 74.5175C316.918 73.2446 318.512 70.9607 319.889 69.4416ZM396.73 65.0443C397.505 64.5551 397.529 63.9152 396.893 60.837C396.48 58.8399 395.784 55.9724 395.347 54.4639C394.633 52.0025 394.463 51.8282 393.684 52.7661C392.421 54.2877 392.374 57.139 393.54 61.4413C394.604 65.3699 395.183 66.0223 396.73 65.0443ZM613.472 57.3234C613.152 55.898 613.02 54.2346 613.18 53.6259C613.338 53.0179 613.346 52.5199 613.196 52.5199C612.543 52.5199 612.204 54.6395 612.503 56.8659C612.681 58.1926 612.535 59.5698 612.179 59.926C611.732 60.3727 611.922 60.4715 612.793 60.2434C613.928 59.9466 613.996 59.6542 613.472 57.3234ZM443.96 59.1986C443.429 58.6675 442.995 57.3696 442.995 56.3136C442.995 53.9272 442.512 53.9084 440.337 56.213C439.285 57.3271 438.624 58.7193 438.63 59.806C438.646 62.7692 439.259 63.206 442.055 62.2443C444.877 61.2745 445.323 60.5608 443.96 59.1986ZM432.201 57.2446C432.123 57.224 431.43 56.8553 430.662 56.4254C428.5 55.2175 427.928 55.4531 428.386 57.3627C429.067 60.1978 432.464 69.3916 432.831 69.3916C433.146 69.3916 432.521 57.3302 432.201 57.2446ZM562.503 62.4773C564.223 64.0164 564.616 64.147 565.075 63.3328C565.466 62.6361 565.027 61.7819 563.481 60.2365C562.307 59.0624 561.15 58.2988 560.909 58.5394C560.013 59.4361 560.529 60.7127 562.503 62.4773ZM610.149 60.5234C609.462 60.1347 608.675 59.4404 608.4 58.9805C607.596 57.6352 606.713 58.0151 606.713 59.706C606.713 61.0982 606.968 61.2663 609.056 61.2495C611.123 61.2326 611.252 61.147 610.149 60.5234ZM389.3 73.1409C390.182 73.1409 389.995 70.0103 388.886 66.2247C387.737 62.2999 387.358 61.7587 386.248 62.4455C385.589 62.8523 385.584 63.7352 386.219 67.1839C386.955 71.175 387.972 73.1409 389.3 73.1409ZM619.837 72.3379C619.839 71.9205 620.959 70.1021 622.327 68.2981L624.814 65.0175H623.077C621.17 65.0175 617.903 68.0269 615.59 71.9136L614.274 74.1232L615.852 74.2538C617.732 74.4094 619.834 73.399 619.837 72.3379ZM643.82 95.4803C644.303 86.014 644.452 68.2662 644.064 66.5797C643.8 65.4355 643.187 65.3149 636.804 65.1531C631.333 65.0144 629.833 65.1556 629.833 65.8073C629.833 66.2641 629.411 67.187 628.896 67.8588C627.347 69.8753 624.834 73.7951 624.834 74.1938C624.834 74.3988 625.748 73.4127 626.865 72.003C629.898 68.1743 632.795 66.2672 635.578 66.2672C637.685 66.2672 637.956 66.4416 637.956 67.7982C637.956 68.6405 637.579 69.5541 637.117 69.829C636.656 70.104 635.78 71.1025 635.171 72.0473L634.063 73.7658H635.976C637.446 73.7658 638.079 73.3683 638.712 72.0473C639.284 70.8545 640.01 70.3289 641.089 70.3289C642.57 70.3289 642.636 70.487 642.498 73.702C642.419 75.5567 642.215 77.2138 642.045 77.3838C641.875 77.5538 640.886 77.7231 639.848 77.76C637.436 77.8462 637.403 79.1303 639.779 80.4938C643.194 82.4534 642.604 87.4631 638.847 88.406C637.433 88.761 636.673 90.0126 637.87 90.0126C638.783 90.0126 640.024 97.3437 639.615 100.322L639.23 103.135H641.33H643.43L643.82 95.4803ZM533.758 81.8835C534.332 81.8904 534.356 78.6067 533.828 72.3542C533.467 68.0887 533.29 67.6032 532.01 67.3583C531.004 67.1658 530.686 67.3339 530.917 67.935C531.427 69.2654 529.878 70.6414 527.87 70.6414H526.04L527.786 72.9847C528.747 74.2738 529.816 75.5148 530.161 75.7441C530.507 75.9728 531.352 77.4463 532.04 79.0185C532.727 80.5907 533.5 81.8798 533.758 81.8835ZM322.697 82.0454C323.256 80.0695 323.857 77.9599 324.033 77.3588C324.411 76.0634 323.914 75.9128 323.205 77.1076C322.93 77.5713 321.533 78.7179 320.101 79.6565C317.95 81.065 317.269 81.2412 316.196 80.6669C315.48 80.2839 314.885 79.629 314.873 79.2116C314.852 78.5042 313.091 81.1349 313.042 81.9454C313.03 82.1485 314.599 82.6934 316.529 83.1564C318.46 83.6195 320.408 84.3675 320.859 84.8186C321.536 85.496 321.857 85.0117 322.697 82.0454ZM401.164 88.1748C403.32 90.3307 403.535 88.9816 401.939 83.3114C399.873 75.976 399.592 75.5823 398.761 78.861C397.102 85.4166 397.177 87.9636 399.011 87.26C399.504 87.0713 400.473 87.4831 401.164 88.1748ZM334.98 83.0139C335.361 81.0549 335.506 79.016 335.301 78.4836C335.097 77.9506 334.222 77.515 333.357 77.515C332.139 77.515 331.569 78.0268 330.837 79.7783C330.317 81.0231 329.892 82.271 329.892 82.5503C329.892 82.8302 329.002 85.3329 327.914 88.1124L325.936 93.1651L327.723 95.0304C328.705 96.0564 329.993 97.9404 330.583 99.2177L331.657 101.54L332.07 99.0571C332.656 95.5178 334.167 87.1913 334.98 83.0139ZM552.661 103.779C551.911 103.766 547.864 100.275 542.553 95.0597C535.945 88.5716 533.642 85.9128 533.487 84.5943C533.323 83.1946 533.031 83.7126 532.089 87.0813L530.897 91.3355L532.327 95.3859C533.114 97.6143 534.986 101.308 536.488 103.594C537.99 105.881 539.38 108.26 539.577 108.88C540.106 110.548 540.66 110.319 544.418 106.884C547.924 103.68 549.338 103.16 550.738 104.56C551.543 105.365 551.371 105.88 547.573 114.01C547.106 115.008 546.724 115.922 546.724 116.041C546.724 116.385 550.041 116.293 553.188 115.861C555.774 115.507 556.243 115.181 557.669 112.747C559.229 110.087 559.24 109.991 558.149 108.304C556.538 105.811 554.102 103.802 552.661 103.779ZM483.612 91.5748C483.955 91.7873 484.203 91.4523 484.163 90.8306C484.122 90.2088 483.874 88.8566 483.612 87.8255C483.161 86.0546 483.131 86.0959 483.061 88.5698C483.02 90.0101 483.268 91.3624 483.612 91.5748ZM341.86 105.864C342.198 105.436 342.041 102.976 341.463 99.6626C340.936 96.6413 340.41 94.0743 340.294 93.9581C340.178 93.8425 339.316 95.554 338.377 97.7624C336.477 102.232 334.824 104.108 333.3 103.523C332.635 103.268 332.398 103.402 332.61 103.916C333.025 104.915 334.212 109.061 334.891 111.883C335.181 113.086 336.04 116.32 336.801 119.069C337.562 121.819 338.239 125.198 338.305 126.577C338.412 128.82 339.646 133.075 341.204 136.566C341.511 137.253 342.125 138.891 342.569 140.205C343.013 141.519 343.592 142.585 343.858 142.576C344.124 142.567 345.723 140.663 347.413 138.346C350.794 133.707 350.793 133.695 346.89 130.317C345.666 129.257 345.424 128.389 345.302 124.608C345.224 122.155 344.855 119.765 344.485 119.296C344.114 118.828 343.6 117.601 343.342 116.57C342.891 114.77 342.848 114.749 342.247 116.047C341.196 118.319 338.547 118.419 337.376 116.231C336.889 115.323 337.255 114.125 339.025 110.818C340.275 108.483 341.55 106.253 341.86 105.864ZM418.379 110.165C416.587 104.375 415.816 102.775 412.804 98.6047C411.129 96.2851 409.555 94.3868 409.309 94.3868C409.062 94.3868 408.052 95.2303 407.064 96.2614C406.076 97.2924 404.899 98.136 404.447 98.136C403.55 98.136 403.423 98.7515 404.006 100.272C404.286 101 405.253 101.26 407.68 101.26C411.799 101.26 412.397 101.944 412.703 106.994C412.918 110.55 413.14 111.095 415.002 112.639C416.135 113.58 417.365 114.357 417.735 114.366C418.609 114.388 421.124 117.069 421.124 117.979C421.124 119.299 422.359 119.451 423.911 118.321C425.757 116.977 425.914 116.257 424.361 116.257C423.736 116.257 422.612 115.554 421.865 114.695C421.118 113.836 420.235 113.133 419.902 113.133C419.57 113.133 418.884 111.798 418.379 110.165ZM375.301 109.876C376.413 107.715 377.336 105.596 377.352 105.166C377.405 103.802 374.586 104.775 372.832 106.726C371.841 107.829 371.804 108.287 372.499 110.884L373.279 113.804L375.301 109.876ZM636.122 119.173C635.756 118.806 635.457 116.893 635.457 114.92C635.457 112.946 635.186 111.165 634.854 110.96C634.522 110.755 633.287 112.074 632.11 113.891C630.103 116.989 629.989 117.443 630.293 121.165C630.471 123.347 630.792 124.887 631.007 124.585C631.22 124.283 632.608 123.092 634.091 121.937C635.998 120.452 636.593 119.643 636.122 119.173ZM377.63 126.119C378.253 126.764 378.928 126.298 381.104 123.718C383.713 120.623 383.774 120.454 382.926 118.663L382.048 116.811L379.247 120.028C376.479 123.206 376.12 124.557 377.63 126.119ZM432.894 120.554C436.085 120.65 436.897 120.437 438.409 119.106L440.183 117.547L436.433 117.55C433.444 117.552 432.326 117.845 430.918 118.997L429.152 120.442L432.894 120.554ZM645.611 129.29C648.263 127.948 648.428 127.503 646.812 126.04C646.183 125.471 645.551 125.024 645.406 125.046C644.779 125.141 639.228 129.105 639.217 129.466C639.187 130.507 643.436 130.39 645.611 129.29ZM667.74 127.398C668.181 127.481 668.336 127.038 668.135 126.271C667.676 124.515 666.784 124.712 663.889 127.207C661.323 129.419 659.364 129.917 658.122 128.674C657.598 128.151 656.981 128.311 655.725 129.299L654.034 130.63H659.473C664.55 130.63 664.885 130.55 664.53 129.431C664.25 128.55 664.53 128.102 665.581 127.746C666.369 127.478 667.34 127.322 667.74 127.398ZM381.789 135.501L385.309 131.811C387.245 129.782 388.714 128.025 388.573 127.906C388.433 127.788 387.417 128.231 386.315 128.889C383.675 130.468 380.568 130.538 379.476 129.046C378.234 127.348 378.439 128.181 380.211 132.053L381.789 135.501ZM402.799 132.834C404.136 131.536 404.885 130.302 404.673 129.749C404.478 129.242 403.812 128.882 403.192 128.948C402.572 129.014 400.826 129.156 399.313 129.264C396.83 129.442 396.126 129.9 392.115 133.951C385.493 140.639 385.407 140.785 388.717 139.79C390.216 139.34 392.756 139.049 394.361 139.142C397.042 139.299 397.413 139.137 398.925 137.155C399.83 135.969 401.574 134.024 402.799 132.834ZM670.413 130.005C670.777 130.005 671.075 129.724 671.075 129.38C671.075 129.036 670.951 128.755 670.799 128.755C670.647 128.755 670.35 129.036 670.138 129.38C669.925 129.724 670.049 130.005 670.413 130.005ZM362.061 139.851C363.89 137.357 365.257 135.106 365.098 134.848C364.657 134.128 359.261 134.291 359.261 135.025C359.261 135.787 353.041 145.112 352.103 145.758C351.748 146.002 352.998 146.087 354.88 145.946C356.762 145.806 358.4 145.398 358.52 145.039C358.639 144.68 360.233 142.346 362.061 139.851ZM353.61 57.041C353.253 57.4709 352.288 57.8221 351.466 57.8221C349.333 57.8221 347.59 61.4833 348.632 63.7716C349.035 64.6558 349.373 65.858 349.382 66.4435C349.397 67.404 353.392 73.3428 355.878 76.0998C356.507 76.7978 357.776 77.1933 359.385 77.1933C360.772 77.1933 362.53 77.5914 363.291 78.0775C365.496 79.4866 368.154 78.7986 370.443 76.226C372.486 73.9308 373.109 71.1932 371.872 69.956C371.534 69.6179 369.749 66.3985 367.906 62.8011L364.554 56.2599H359.406C356.051 56.2599 354.033 56.5317 353.61 57.041ZM347.756 84.5794C348.335 80.6889 348.933 77.1346 349.084 76.6809C349.236 76.2273 349.994 75.9461 350.769 76.056C352.087 76.2435 352.172 76.5378 352.099 80.672C352.007 85.7904 350.366 92.0854 348.985 92.6153C346.913 93.4108 346.674 91.8511 347.756 84.5794ZM371.653 81.3594C370.741 82.2711 371.264 85.288 372.445 85.9197C375.518 87.5644 379.299 86.264 378.383 83.8776C377.672 82.0236 372.808 80.2034 371.653 81.3594ZM351.497 108.125C351.281 107.266 351.281 105.86 351.497 105C351.797 103.802 352.294 103.438 353.626 103.438C355.723 103.438 356.864 104.456 356.864 106.324C356.864 108.904 356.196 109.687 353.997 109.687C352.269 109.687 351.818 109.405 351.497 108.125ZM503.397 31.5777C503.185 31.9214 501.938 32.2026 500.625 32.2026C497.92 32.2026 497.222 32.8244 496.354 36.0094C495.793 38.0652 495.946 40.0398 497.149 46.2624C498.551 53.5191 501.252 55.8336 507.263 54.9313C510.736 54.4095 510.899 54.3033 510.972 52.5111C511.014 51.4801 511.261 50.1285 511.521 49.508C512.19 47.9114 511.528 43.8885 509.715 38.5295C507.716 32.6244 504.761 29.3719 503.397 31.5777ZM410.909 55.1987C411.971 47.1372 412.739 44.0665 413.872 43.3486C416.122 41.922 416.23 43.1511 415.119 57.4858C414.577 64.4688 414.229 66.3653 413.374 66.9908C412.624 67.5382 411.957 67.5857 411.142 67.1495C409.703 66.3797 409.669 64.6075 410.909 55.1987ZM490.587 54.6838C490.587 57.8732 490.793 58.5506 491.993 59.3211C495.971 61.8737 497.558 60.199 495.964 55.1325C494.889 51.7157 494.124 50.949 491.786 50.949C490.738 50.949 490.587 51.4189 490.587 54.6838ZM491.681 71.1119C490.607 70.1439 490.185 67.182 491.004 66.3628C491.833 65.5336 497.916 65.9254 498.689 66.8577C499.734 68.1162 498.916 71.4162 497.352 72.2529C495.878 73.0421 493.231 72.5091 491.681 71.1119ZM493.868 74.5106C492.787 74.7187 492.462 75.2092 492.462 76.6321C492.462 78.9466 493.595 79.4221 497.371 78.6923C499.757 78.2311 500.31 77.8662 500.483 76.6396C500.812 74.3181 498.586 73.6014 493.868 74.5106ZM449.114 79.4278C449.166 77.8518 449.6 76.6789 450.327 76.1472C451.655 75.1755 452.442 75.123 453.704 75.9216C454.514 76.4333 454.507 76.8308 453.646 79.1922C452.798 81.5186 452.422 81.8804 450.849 81.8804C449.138 81.8804 449.038 81.7373 449.114 79.4278ZM502.147 80.112C498.739 81.3368 498.454 81.7411 498.628 85.0967C498.916 90.6681 501.134 97.3955 503.014 98.4016C507.621 100.868 511.833 95.6077 511.833 87.3868C511.833 82.5565 511.164 81.1218 508.366 79.9527C505.882 78.9147 505.449 78.926 502.147 80.112ZM412.817 83.0152C412.5 81.7529 412.676 81.0931 413.489 80.4988C415.119 79.3065 416.657 79.5171 417.753 81.0824C419.236 83.1983 419.001 85.2248 417.222 85.6709C415.174 86.1852 413.334 85.076 412.817 83.0152ZM426.551 93.1651C424.759 94.5192 426.014 96.2526 428.784 96.2526C431.253 96.2526 432.095 94.373 430.235 93.0132C428.809 91.9709 428.091 92.0003 426.551 93.1651ZM638.553 41.974C638.404 40.4324 638.757 39.8275 640.495 38.6452C641.663 37.851 643.42 37.2011 644.4 37.2011C646.057 37.2011 646.182 37.3736 646.182 39.6557C646.182 41.6103 645.815 42.4051 644.376 43.5611C642.555 45.0252 639.934 49.5137 639.934 51.169C639.934 52.4057 638.215 52.9506 636.764 52.1738C635.159 51.3152 635.256 49.9443 637.155 46.6218C638.117 44.9377 638.664 43.1219 638.553 41.974ZM653.974 42.8638C651.9 43.4668 648.057 46.8855 648.057 48.1265C648.057 50.9403 653.314 53.8904 657.073 53.1855C659.85 52.6644 660.959 51.2178 661.341 47.6153C661.646 44.7571 661.557 44.531 659.703 43.3999C657.57 42.0996 656.837 42.0308 653.974 42.8638ZM546.202 66.8828C544.796 65.6106 544.685 64.8564 545.561 62.5493C546.21 60.8428 547.942 60.4372 549.201 61.6964C550.357 62.8524 550.09 65.6262 548.701 66.8828C547.495 67.9745 547.408 67.9745 546.202 66.8828ZM659.617 70.7721C657.634 71.2595 656.805 72.2193 656.805 74.0277C656.805 77.2552 661.164 79.859 662.89 77.662C663.896 76.3804 664.339 72.8035 663.651 71.5182C663.02 70.3384 662.084 70.1653 659.617 70.7721ZM573.81 87.5813C574.195 86.8514 574.818 86.0472 575.196 85.7948C576.253 85.0893 576.718 85.2136 578.071 86.5665C579.497 87.9931 579.651 89.1104 578.571 90.1908C577.518 91.2437 575.559 91.1231 574.235 89.9246C573.326 89.1029 573.245 88.6555 573.81 87.5813ZM660.406 105.666C657.3 107.352 657.575 111.591 660.787 111.541C663.865 111.493 666.14 107.399 664.179 105.438C663.22 104.479 662.517 104.521 660.406 105.666ZM360.915 66.3447C362.851 70.164 362.856 70.4364 361.005 70.5895C359.84 70.6858 359.216 70.134 358.089 68.0106C356.609 65.2199 356.736 63.241 358.396 63.241C358.917 63.241 360.05 64.6376 360.915 66.3447ZM505.353 42.2192C505.147 41.4456 504.973 40.3514 504.968 39.7865C504.963 39.2216 504.502 38.5842 503.942 38.3693C503.09 38.0425 502.988 38.2987 503.317 39.9427C503.533 41.0231 503.71 42.2935 503.71 42.7659C503.71 43.2383 504.164 43.6251 504.72 43.6251C505.463 43.6251 505.631 43.2527 505.353 42.2192ZM506.718 88.4773C506.431 90.9718 504.1 90.8581 503.813 88.3355C503.556 86.0803 505.472 84.1969 506.378 85.8153C506.673 86.3427 506.826 87.5406 506.718 88.4773Z" fill="black"/>
<path fill-rule="evenodd" clip-rule="evenodd" d="M344.275 214.269L374.182 205.997L387.545 220.632H399.635L414.271 214.269L428.907 208.542L437.179 220.632L454.36 217.451L468.995 205.997L481.722 181.816L498.267 172.908L500.812 179.271L495.085 208.542L498.267 220.632L514.175 212.36L533.901 190.089L552.355 181.816L547.901 197.725L549.81 208.542L557.446 217.451L568.899 214.269L575.899 202.179H563.173L559.991 195.816L562.536 181.18L572.081 170.362V156.363L568.899 151.909L561.9 151.272L554.9 155.727L551.082 164.635V170.362L544.083 174.18H537.719L535.174 167.181L528.811 165.272L523.084 169.09L521.811 175.453L524.993 181.18V186.271L517.993 195.816L511.63 197.725L509.721 188.816L512.266 170.362L511.63 160.817L502.721 158.908L486.176 167.817L479.177 158.908L464.541 155.727L447.997 160.817L426.998 183.089L421.907 194.543L404.09 205.997L397.726 205.36L390.727 198.997L405.999 184.998L414.271 171.635L423.18 152.545L411.726 139.818L398.363 140.455L382.454 163.363L374.818 192.634L340.457 208.542L344.275 214.269ZM397.726 175.453L407.271 163.999L409.817 155.726H404.726L396.454 167.18L397.726 175.453ZM463.269 188.179L453.724 198.36L446.724 199.633L442.906 198.36L444.179 186.27L451.815 175.453L458.178 186.27L463.269 188.179Z" fill="white"/>
<path fill-rule="evenodd" clip-rule="evenodd" d="M570.172 150.636C549.81 144.909 549.372 170.546 549.81 169.407C546.628 173.565 543.655 173.479 538.356 172.112C537.928 169.025 534.465 163.306 528.174 164.158C525.556 165.215 523.084 165.258 520.538 174.816C523.084 181.802 524.513 180.543 524.356 183.089C521.968 190.088 517.836 198.47 512.902 195.179C509.41 192.849 519.941 161.174 511.63 157.953C502.085 153.223 494.259 161.91 487.449 164.158C484.541 155.615 473.211 154.075 472.177 153.817C445.321 147.484 424.557 178.924 421.271 191.52C417.069 195.203 407.478 203.296 403.453 203.61C392.545 204.461 394.545 195.161 394.545 197.247C394.545 197.886 411.91 182.074 411.089 182.611C410.269 183.148 426.141 152.447 425.089 153.499C422.691 149.27 426.866 145.444 407.271 136C395.436 138.545 399.124 136.148 388.181 148.09C388.181 148.528 381.732 158.256 380.545 161.93C378.425 168.499 378.118 173.181 375.455 183.248C374.716 186.039 373.294 188.671 372.909 189.134C372.525 189.597 370.474 191.029 367.819 192.315C365.164 193.601 360.087 195.823 357.637 197.247C355.188 198.671 351.529 200.835 348.729 202.019C345.929 203.204 342.818 204.54 342.366 204.883C341.914 205.226 340.052 205.383 338.548 205.36C335.339 205.312 334.99 205.7 334.73 207.428C334.348 209.96 339.128 216.22 342.366 217.45C344.063 218.096 347.149 217.332 362.728 212.201C366.928 210.817 371.069 209.522 371.637 209.337C372.352 209.104 372.467 209.52 372.909 210.769C373.731 213.087 377.8 216.924 380.545 218.246C381.723 218.813 383.411 220.216 384.363 221.427C385.696 223.121 386.967 223.758 389.454 224.291C396.568 225.816 402.939 224.793 404.726 222.064C405.289 221.207 406.874 220.475 407.271 220.473C408.245 220.469 415.126 217.801 416.18 216.973C418.223 215.367 424.707 211.66 425.089 212.042C425.32 212.273 426.354 213.062 426.361 213.791C426.369 214.521 426.947 216.414 427.634 217.928C428.601 220.058 429.502 220.821 431.452 221.586C460.644 233.065 472.019 208.744 482.358 185.952C483.895 182.877 492.54 176.395 497.63 176.566C494.449 203.121 492.54 199.265 491.267 206.474C490.631 213.264 489.358 224.132 502.721 224.132C524.993 214.587 528.057 204.841 533.265 197.565C538.14 192.69 533.768 191.797 539.628 189.929C541.121 189.453 544.454 188.661 545.992 188.02C547.528 187.379 548.437 186.807 548.537 186.906C548.636 187.006 547.751 188.93 547.264 191.202C546.09 196.68 546.072 204.847 547.264 208.86C548.011 211.376 549.604 212.868 552.355 215.382C555.509 218.264 556.074 218.666 558.718 218.723C564.404 218.846 566.257 218.504 568.899 216.973C572.39 214.95 573.887 213.547 577.808 205.519C580.439 200.133 580.508 198.218 580.353 196.133C580.107 192.815 578.791 192.64 576.535 195.179C572.951 199.214 565.739 201.483 563.809 199.156C563.206 198.43 562.514 196.456 562.536 192.952C562.575 186.991 564.819 183.679 568.899 179.589C570.25 178.235 571.43 176.947 571.445 176.725C571.459 176.504 571.536 175.198 572.717 173.862C574.627 169.089 577.808 158.111 570.172 150.636ZM411.089 142.522C413.933 144.189 419.998 151.363 419.998 152.863C419.998 154.797 415.58 163.924 411.089 171.953C408.481 176.616 407.271 180.732 407.271 181.18C407.271 182.004 404.708 183.762 398.363 188.497C396.436 189.935 394.11 191.879 393.272 192.792C392.433 193.706 392.293 194.247 391.999 194.065C391.409 193.701 388.185 197.42 388.181 198.679C388.177 200.085 392.369 204.5 395.817 206.474C402.496 210.295 407.145 208.986 421.271 197.247C425.519 193.715 427.067 192.127 427.634 190.247C428.758 186.516 434.729 176.074 439.088 171.635C441.235 169.447 443.872 167.657 444.179 167.657C444.484 167.657 446.376 166.083 449.269 164.158C452.162 162.233 455.28 160.658 455.632 160.658C455.986 160.658 458.532 160.085 460.723 159.385C466.166 157.646 472.238 157.778 475.995 159.544C478.14 160.552 480.078 161.536 481.086 163.68C481.812 165.225 482.358 166.83 482.358 167.339C482.358 167.849 482.786 169.062 483.631 170.044L484.904 171.794L488.722 170.044C490.764 169.024 493.824 167.366 495.085 166.385C500.987 161.792 508.445 159.794 510.357 162.408C511.231 163.603 511.441 170.69 510.357 178.157C508.404 191.609 507.271 195.131 509.084 198.042C509.83 199.24 511.308 199.474 514.175 199.474C517.197 199.474 517.862 199.233 519.266 197.565C520.142 196.524 520.858 194.103 521.811 192.156C522.764 190.208 525.016 188.291 525.629 187.861C527.133 186.808 527.975 181.538 526.902 181.18C526.477 181.038 526.902 180.66 526.902 180.225C526.902 179.79 525.231 178.661 524.356 177.839C522.583 176.173 523.282 175.062 524.356 171.475C525.499 167.663 526.93 166.679 531.992 167.021C533.943 167.154 535.596 169.923 535.81 173.225C536.071 177.239 546.403 176.483 551.082 172.112C552.657 170.64 552.672 170.037 552.355 168.453C551.682 165.089 554.196 158.721 557.446 155.726C558.993 154.3 560.468 153.04 561.263 153.022C562.058 153.004 563.682 152.863 565.081 152.704C569.367 152.216 570.172 153.451 570.172 160.022C570.172 164.807 570.448 165.937 568.899 169.089C567.569 171.799 566.748 173.071 565.081 173.862C563.846 174.447 562.802 175.516 562.536 176.248C562.271 176.98 560.529 178.809 559.991 180.384C559.452 181.959 559.456 184.828 558.718 186.747C556.829 191.659 556.851 200.599 558.718 202.974C560.719 205.517 564.941 208.5 567.627 208.86L570.172 209.178L568.899 210.769C566.444 213.398 563.717 214.419 559.991 214.11C555.882 213.769 554.533 212.759 552.355 207.905C550.635 204.074 550.091 197.083 551.082 192.792C551.909 189.216 554.355 182.949 554.9 182.611C555.704 182.115 555.78 179.514 554.9 178.634C553.861 177.595 552.381 177.777 551.082 178.952C550.027 179.907 548.209 180.394 539.628 181.816L534.538 182.611L531.992 187.702C525.098 198.359 519.096 204.62 514.175 208.224C512.775 209.249 511.805 210.261 511.63 210.451C511.455 210.641 509.534 211.713 507.812 212.837C503.823 215.441 500.719 215.464 498.903 213.155C497.306 211.125 497.341 208.283 500.176 197.247C501.781 191 502.39 186.981 502.721 180.702L503.994 172.43L501.448 170.998C498.83 168.938 497.135 169.537 489.994 173.862C480.126 179.838 478.17 181.287 477.268 184.361C476.452 187.139 475.322 188.844 468.359 199.633C464.185 206.099 462.55 207.631 454.36 211.723C447.559 215.122 438.782 214.786 435.27 211.087C434.351 210.119 433.555 208.049 432.725 206.474C431.339 203.844 430.908 203.762 428.907 203.928C427.708 204.028 425.799 204.556 425.089 205.201C423.55 206.598 415.581 211.564 414.907 211.564C414.648 211.564 413.108 212.705 411.089 213.951C407.286 216.299 401.231 218.381 399.635 217.768C399.133 217.576 396.888 217.025 394.545 216.655C390.231 215.973 385.264 214.215 383.091 212.36C381.486 210.99 378 204.769 378 203.61C378 202.341 374.111 201.817 372.909 202.815C371.711 203.81 362.508 207.277 353.819 209.814C348.98 211.228 346.706 211.609 346.184 211.087C345.183 210.086 346.117 209.443 351.274 207.428C353.724 206.471 360.157 203.643 365.273 201.065C370.391 198.486 374.969 196.292 375.455 196.292C376.642 196.292 377.44 194.511 378 191.52C378.254 190.164 378.651 188.259 379.273 187.384C379.895 186.509 381.992 182.357 383.091 178.157C384.19 173.957 384.875 169.418 385.636 167.976C386.397 166.534 388.017 162.989 389.454 160.181C393.191 152.876 395.439 150.544 398.363 147.454C400.744 144.939 405.904 140.965 407.271 140.932C407.591 140.924 409.606 141.653 411.089 142.522ZM403.453 153.499C401.561 154.295 399.945 156.448 398.363 160.022C396.819 163.507 393.945 170.181 393.272 174.021C392.475 178.571 393.077 179.554 397.09 178.952C399.669 178.565 400.388 178.021 403.453 174.18C410.362 165.521 413.588 158.569 412.362 155.09C411.971 153.98 407.963 152.382 405.999 152.545C405.123 152.617 404.423 153.091 403.453 153.499ZM407.271 159.067C407.271 161.13 399.163 173.231 398.363 172.43C397.987 172.055 400.116 166.438 400.908 165.112C401.974 163.327 406.758 158.113 407.271 158.113C407.566 158.113 407.271 158.537 407.271 159.067ZM561.263 161.135C560.56 162.03 559.329 163.99 558.718 165.589C557.647 168.394 557.567 168.566 558.718 169.407C560.303 170.566 561.366 170.431 562.536 169.089C563.834 167.601 565.53 161.509 565.081 160.34C564.522 158.882 562.672 159.345 561.263 161.135ZM464.541 168.771C463.291 169.733 462.536 171.472 461.996 172.589C461.044 174.557 461.507 174.681 463.268 176.566C467.827 181.446 475.228 175.925 472.177 170.044C470.4 166.62 467.971 166.132 464.541 168.771ZM454.36 170.68C451.412 172.108 445.087 179.453 442.906 183.884C441.546 186.646 440.656 189.085 440.361 192.633C439.882 198.381 440.492 200.32 444.179 201.86C446.206 202.707 447.475 202.661 451.815 201.701C457.069 200.539 456.207 200.397 463.268 192.156C467.841 186.819 470.496 184.289 469.632 183.248C468.706 182.131 467.625 182.173 465.814 183.566C463.549 185.307 459.491 184.251 458.178 181.498C457.328 179.716 457.355 179.026 458.178 176.248C459.69 171.143 458.171 168.834 454.36 170.68ZM528.174 173.225C527.604 173.796 527.98 174.626 528.174 175.134C528.37 175.643 528.174 176.261 528.174 176.407C528.174 176.995 531.605 176.556 531.992 175.93C532.221 175.56 532.207 174.558 531.992 173.703C531.536 171.885 529.723 171.677 528.174 173.225ZM451.815 182.929C452.34 185.559 455.057 188.656 456.905 188.656C458.868 188.656 458.939 189.65 456.905 192.315C454.611 195.324 448.359 198.286 446.724 196.929C444.735 195.279 446.239 186.584 449.269 182.611C451.157 180.136 451.279 180.252 451.815 182.929Z" fill="black"/>
<path fill-rule="evenodd" clip-rule="evenodd" d="M695.94 169.391C695.972 173.648 696.146 177.279 696.327 177.461C694.622 178.808 694.381 178.815 693.895 178.83C693.633 178.838 693.299 178.849 692.628 179.071C691.18 177.981 690.083 176.177 689.258 174.265C688.966 174.725 688.359 174.932 687.255 174.652C685.867 174.652 684.963 173.956 683.086 171.442C680.521 168.007 678.78 167.016 675.306 167.016C673.137 167.016 673.121 167.037 673.121 169.911C673.121 174.836 670.305 178.422 668.774 175.447C668.459 174.835 668.027 170.254 667.814 165.269C667.522 158.45 667.168 155.81 666.386 154.614C665.813 153.741 665.492 152.643 665.672 152.174C666.268 150.621 672.784 149.038 677.025 149.417L680.901 149.762C681.125 149.895 681.344 150.022 681.556 150.147L681.558 150.148C684.922 152.115 686.837 153.235 686.665 157.59C687.14 156.376 687.899 155.183 689.041 154.042C690.068 153.507 690.557 153.067 690.127 153.064C689.698 153.062 688.866 152.327 688.278 151.43C687.308 149.949 687.299 149.613 688.181 147.764C688.715 146.644 689.911 145.322 690.839 144.826C692.36 144.011 692.696 144.05 694.262 145.218C696.649 146.998 696.699 148.126 694.507 150.623L692.628 152.764L694.154 154.539C695.814 156.468 695.842 156.706 695.94 169.391ZM686.16 159.369C685.386 160.341 684.737 160.991 684.261 161.467C683.704 162.023 683.386 162.342 683.386 162.66C683.386 163.156 683.87 163.652 684.594 164.395C685.266 165.084 686.145 165.986 687.035 167.296C686.331 164.89 685.656 162.121 686.16 159.369ZM729.06 151.043L732.502 151.398C735.926 153.178 735.959 154.35 735.289 156.36C735.113 156.89 734.311 157.421 731.385 157.079C724.917 155.704 727.461 158.616 729.654 161.127C730.637 162.253 731.55 163.298 731.55 163.84C731.784 166.282 731.932 168.455 731.176 169.086C730.199 170.359 728.29 172.268 722.098 170.322C721.293 169.921 720.211 168.837 719.692 167.913C718.879 166.463 718.872 166.085 719.649 165.149C720.34 164.316 721.25 164.134 723.594 164.359C725.271 164.52 726.642 164.507 726.642 164.33C726.642 164.152 725.458 162.914 724.011 161.578C721.53 159.288 721.4 158.992 721.744 156.427C721.998 154.534 722.643 153.246 723.863 152.196C725.39 150.883 726.064 150.733 729.06 151.043ZM712.694 173.315C712.694 172.998 713.235 172.566 713.898 172.356C715.321 171.904 715.939 170.062 715.145 168.644C714.83 168.08 713.284 167.442 711.636 167.194C708.742 166.76 708.714 166.734 710.073 165.709C710.834 165.136 712.847 164.172 714.546 163.568C716.609 162.836 717.752 162.027 717.985 161.137C718.474 159.267 717.824 157.926 716.596 158.269C716.025 158.429 714.269 158.748 712.694 158.978C711.119 159.208 708.47 159.786 706.808 160.263L703.785 161.129L703.71 159.096C703.668 157.977 703.673 156.736 703.722 156.338C703.917 154.708 702.49 152.29 701.334 152.29C698.975 152.29 698.596 153.745 698.737 162.274C698.921 173.342 699.384 174.206 705.058 174.048L707.285 173.985C709.014 173.985 710.073 173.985 712.694 173.315ZM706.78 155.437C705.301 154.109 705.621 151.853 707.324 151.609C708.126 151.494 708.579 151.469 709.049 151.442C709.931 151.392 710.871 151.339 714.291 150.686C716.995 150.168 719.691 153.559 718.438 155.901C718.1 156.533 717.097 157.188 716.21 157.358C713.87 157.806 708.111 156.632 706.78 155.437ZM596.874 167.388C597.684 168.186 599.133 169.409 600.094 170.105L601.84 171.371C604.057 171.536 604.592 171.409 605.181 171.27C605.625 171.165 606.1 171.053 607.351 171.053C608.191 171.053 610.508 170.48 612.499 169.78C614.491 169.08 616.798 168.507 617.625 168.507C618.99 168.507 619.088 168.699 618.679 170.575C618.096 173.257 614.949 176.333 613.272 175.859C612.588 175.665 611.527 175.37 610.915 175.203C608.996 174.68 608.108 175.777 608.326 178.404C608.579 181.46 610.984 183.061 616.116 183.591C622.154 184.214 624.771 182.297 626.88 175.705C628.302 171.263 628.213 169.551 626.418 166.745C623.564 162.285 621.654 160.998 617.22 160.55C613.637 160.188 612.803 160.335 609.783 161.863C604.737 164.416 603.203 163.252 605.43 158.559C606.946 155.364 608.352 154.845 615.519 154.835C621.211 154.827 621.897 154.703 622.102 153.639C622.323 152.496 620.237 150.146 616.978 147.863C615.073 146.528 611.701 146.615 607.356 148.11C600.095 149.997 593.079 158.559 596.874 167.388ZM675.082 159.199C678.239 158.775 678.736 158.359 677.529 157.152C677.019 156.643 675.677 156.041 674.544 155.815C672.559 155.418 672.484 155.479 672.484 157.475C672.484 159.533 672.503 159.545 675.082 159.199ZM650.893 153.21C647.751 154.042 643.17 159.749 641.959 164.342C641.156 167.386 641.198 167.744 642.732 170.984C644.611 174.954 646.981 176.684 651.976 177.732C655.136 178.394 655.653 178.321 659.323 176.673C663.067 174.993 663.339 174.718 664.62 171.323C667.813 162.85 663.112 153.963 655.009 153.156C653.445 153.001 651.593 153.025 650.893 153.21ZM658.633 162.058C659.18 163.484 657.91 165.904 655.936 167.198C654.31 168.263 654.202 168.259 653.362 167.109C652.149 165.452 652.263 162.961 653.598 161.948C655.145 160.773 658.165 160.839 658.633 162.058ZM632.865 148.941C630.502 149.369 628.402 149.886 628.198 150.09C627.994 150.294 627.672 151.615 627.483 153.026C627.166 155.388 627.272 155.626 628.808 156.011C629.726 156.241 630.9 156.268 631.416 156.069C632.221 155.761 632.352 157.104 632.323 165.386C632.291 174.945 632.858 178.492 634.441 178.639C636.025 178.787 637.175 178.437 638.244 177.481C639.191 176.635 639.294 175.421 639.056 167.841C638.907 163.071 639.071 158.107 639.421 156.809C640.041 154.506 640.137 154.444 643.381 154.257C646.507 154.077 646.718 153.957 646.913 152.259C647.26 149.223 645.548 148.009 641.04 148.091C638.907 148.131 635.228 148.513 632.865 148.941Z" fill="black"/>
</svg>
