<svg width="300" height="353" viewBox="0 0 300 353" fill="none" xmlns="http://www.w3.org/2000/svg">
<path d="M286.5 343.5L53.5 346.5L47.5 341L36.5 343L11 332L13 324.5L6.5 310.5L13 306V299L22.5 292L41 291V278L38 238L41 198.5V185.5L28 178L23 148.5L34 140.5H58L110.5 137.5L113.5 130.5H119L127.5 135.5L139 125.5V121.5L126.5 120.5L123.5 111L104 94.5L97.5 78.5L80.5 74L71 52L80.5 32L103 27L109 19.5L135.5 4L155 3L181 27L196.5 11.5L214 4L237 6.5L258 19.5H268L270.5 27L266 32L268 39.5L272.5 78.5L266 90L278.5 105H288L287 115L297 119L295.5 132L288 146V167.5L278.5 189.5L257 274L259.5 282.5L278.5 309.5L286.5 343.5Z" fill="white"/>
<path fill-rule="evenodd" clip-rule="evenodd" d="M182.947 20.8754C174.616 11.0064 171.447 2.66639 144.447 0.403893C134.536 1.68539 120.001 8.02039 113.001 14.5144L110.627 15.8409C109.322 16.5704 108.207 17.1674 108.149 17.1674C100.159 24.9174 100.159 24.3889 91.9789 24.9174H89.5544C87.5829 24.9174 86.3459 25.3618 82.9344 27.2953C79.7404 29.1058 78.5804 29.5413 78.0739 29.1208C73.3049 35.1743 85.3655 15.252 67.3137 52.0033C72.9839 68.3669 71.7549 62.8434 78.1249 77.7174C79.5608 79.8209 94.183 78.9865 95.1509 85.2304C97.5 89.166 97.5 89.666 98.8799 92.7589C97.1823 93.8984 122.05 111.35 120.21 112.542C122.755 118.674 121.203 120.781 126.112 122.685C128.5 123.166 133.659 123.624 137.629 123.624C136.8 124.667 137.055 124.667 136.656 125.11C132.798 128.043 133 129.666 128.88 130.744C122 128.666 118.571 127.867 111.352 128.542C107.454 133.667 110.644 135.875 104 136.666C83.0029 139.167 29.8893 134.003 31.3384 137.01C29.7155 138.378 27.8601 139.725 26.1147 141.057C23.1945 143.286 20.5823 145.477 19.8829 147.667C20.8989 159.002 19.5004 163.167 24.3799 177.995C24.2299 185.695 38.1784 185.285 37.8734 187.667C37.1659 193.191 41.1049 194.667 37.8734 201.167C34.0389 265.667 38.0659 278.667 39.2844 289.167C39.4784 286.381 30.6224 288.417 23.0009 288.417C24.1879 288.868 6.15939 298.06 8.33189 298.391C9.45439 298.563 10.8799 300.659 10.8799 302.138C10.8799 303.118 10.4959 303.695 9.50489 304.201C8.74889 304.587 7.07689 305.534 5.78989 306.306L3.44989 307.71C1.75488 309.167 0.879883 308.774 0.879883 311.508C0.879883 311.754 1.62988 315.082 5.87989 320.226C5.87989 320.615 8.88359 324.367 8.87739 325.097C8.87589 325.273 8.34739 326.077 7.70189 326.883L6.52939 328.349C6.52939 330.751 6.52939 330.751 8.38439 333.789C9.42689 334.96 10.2239 335.977 10.1554 336.05C16.7959 340.28 20.3484 341.292 25.5754 341.432C27.8104 341.492 29.8159 342.002 33.0504 343.334C39.1209 345.832 41.2744 346.377 42.1624 345.64C42.5509 345.318 42.7399 344.845 42.5824 344.591C42.1199 343.842 44.9939 344.672 46.4849 345.717C47.9674 346.757 49.1554 346.935 49.6184 346.185C49.9559 345.64 51.1869 346.75 52.5164 348.801C53.5749 350.432 53.8629 350.468 55.5109 349.172C56.6529 348.273 56.7309 347.992 56.3114 346.297C56.0559 345.263 55.4864 342.556 55.0464 340.28C54.1194 335.485 53.9639 335.82 58.9194 331.927C60.9134 330.36 61.9529 329.813 62.0929 330.257C62.2079 330.62 63.0199 333.28 63.8974 336.167C66.9944 346.358 67.6089 347.9 68.6499 348.093C69.1889 348.193 70.0444 348.714 70.5509 349.25C71.0579 349.786 71.9579 350.156 72.5509 350.071C73.9224 349.876 73.8919 348.384 72.4429 344.792L71.3839 342.167H73.1024C75.2494 342.167 75.6249 342.743 74.6759 344.578C73.8119 346.249 74.3609 347.167 76.2234 347.167C77.0174 347.167 77.7599 346.545 78.6499 345.136C80.4959 342.211 81.6664 342.555 83.8799 346.672C86.4319 351.418 87.3814 352.667 88.4374 352.667C89.8489 352.667 89.6134 350.425 87.8604 347.167C86.1129 343.921 86.0779 343.596 87.3519 342.443C88.1204 341.747 88.2084 341.379 87.7729 340.682C86.8454 339.197 87.5664 338.331 89.5379 338.562C91.8854 338.836 92.8649 340.881 91.9114 343.518C91.1609 345.594 91.6294 346.294 93.8204 346.367C94.9364 346.405 95.6069 346.856 96.4879 348.164C97.1354 349.124 98.0219 349.979 98.4579 350.063C99.9659 350.353 99.7994 348.254 98.0149 344.479C96.4874 341.247 96.2994 340.448 96.5974 338.46C96.9689 335.982 97.1514 335.836 98.5494 336.896C99.4504 337.578 102.36 345.09 102.373 346.767C102.388 348.612 105.564 348.949 106.13 347.166C106.286 346.674 106.04 345.339 105.584 344.199C105.128 343.059 104.873 342.007 105.017 341.863C105.342 341.538 110.19 343.955 110.624 344.658C110.797 344.938 111.359 345.167 111.873 345.167C112.387 345.167 113.25 345.73 113.79 346.417C114.973 347.921 116.406 348.019 117.618 346.68C118.452 345.758 118.457 345.61 117.691 344.44C117.24 343.752 116.224 342.854 115.434 342.446C113.798 341.599 113.558 340.632 113.439 334.417C113.397 332.217 113.228 329.461 113.064 328.292C112.695 325.656 113.23 325.583 115.813 327.917C117.94 329.838 118.449 331.27 119.414 338.042C119.941 341.737 120.113 342.166 121.066 342.16C123.506 342.142 123.669 341.621 122.818 336.569C122.269 333.316 122.183 331.584 122.53 330.807C122.882 330.02 122.848 329.481 122.412 328.956C122.069 328.542 121.944 327.752 122.13 327.167C122.479 326.067 120.741 324.065 115.964 320.065C114.441 318.79 113.848 317.941 113.964 317.202C114.108 316.287 114.616 316.589 117.893 319.534C119.964 321.395 122.592 323.705 123.733 324.667C125.775 326.388 125.818 326.492 126.331 330.917C126.618 333.392 127.003 337.555 127.186 340.167C127.369 342.78 127.583 345.255 127.661 345.667C127.739 346.08 127.82 346.924 127.841 347.542C127.895 349.116 129.565 349.006 130.306 347.38C130.628 346.672 130.78 345.911 130.643 345.689C130.506 345.466 130.87 344.679 131.452 343.939C132.437 342.687 132.494 342.148 132.276 336.131C132.148 332.576 132.106 329.667 132.183 329.667C132.26 329.667 133.099 330.126 134.049 330.686C135.352 331.455 135.86 332.159 136.122 333.561C136.313 334.582 136.694 335.69 136.969 336.023C137.475 336.635 136.826 343.462 135.82 348.109C135.428 349.918 135.493 350.464 136.19 351.234C137.266 352.422 137.916 352.407 140.056 351.144C141.63 350.216 141.866 349.767 142.62 346.269C144.786 336.222 146.038 331.575 146.643 331.343C147.006 331.204 147.673 330.376 148.126 329.504C149.318 327.206 152.616 322.236 157.639 315.167C158.323 314.205 161.365 311.038 164.399 308.129C168.322 304.368 169.826 302.609 169.607 302.038C169.438 301.597 169.745 300.602 170.291 299.827C171.318 298.366 174.258 285.711 174.741 280.669C174.947 278.513 175.328 277.575 176.497 276.337L177.989 274.757L176.38 270.337C175.496 267.906 174.374 264.905 173.887 263.667C173.4 262.43 172.73 260.18 172.397 258.667C171.367 253.984 171.562 254.232 168.788 254.067C166.306 253.921 166.244 253.879 166.119 252.263C165.968 250.311 165.352 249.769 160.361 247.201C157.233 245.592 156.245 244.765 154.553 242.34C151.827 238.43 150.828 236.402 150.164 233.422C149.782 231.707 149.331 230.873 148.72 230.756C147.483 230.517 146.38 231.565 146.38 232.978C146.38 233.632 146.168 234.167 145.908 234.167C145.083 234.167 143.88 231.997 143.88 230.508C143.88 229.184 145.551 226.146 146.5 225.746C147.203 225.45 148.651 222.172 151.613 214.167C153.19 209.905 155.383 204.055 156.486 201.167C157.589 198.28 158.716 195.306 158.99 194.559C159.263 193.812 159.772 192.964 160.12 192.675C160.963 191.976 162.389 192.561 162.042 193.465C161.891 193.858 162.017 194.48 162.322 194.848C162.742 195.354 162.634 195.734 161.878 196.419C161.329 196.916 160.872 197.906 160.862 198.62C160.852 199.333 160.523 200.48 160.13 201.167C159.092 202.983 159.215 203.629 160.709 204.197C161.848 204.631 162.24 204.509 163.454 203.346C164.232 202.6 164.939 202.086 165.023 202.204C166.161 203.781 166.387 205.578 165.861 208.869C165.549 210.82 165.369 213.317 165.462 214.417C165.623 216.332 165.709 216.424 167.505 216.572C168.59 216.662 169.38 216.504 169.38 216.197C169.38 215.906 169.569 215.667 169.801 215.667C170.569 215.667 171.583 219.871 171.606 223.156C171.628 226.153 171.729 226.443 172.951 227.033C174.065 227.57 175.305 229.909 174.763 230.451C174.672 230.542 173.593 229.821 172.364 228.849C169.359 226.471 165.338 221.026 163.899 217.388C162.396 213.589 162.001 213.162 161.104 214.377C159.246 216.894 162.181 223.374 167.787 229.133C169.947 231.352 171.666 233.167 171.608 233.167C171.55 233.167 170.655 232.813 169.62 232.381C168.553 231.935 167.199 231.73 166.494 231.907C165.591 232.133 164.913 231.903 164.024 231.068C162.822 229.939 162.786 229.936 162.091 230.886C161.493 231.704 161.488 232.016 162.057 232.886C163.946 235.771 171.934 239.8 175.986 239.911C179.702 240.013 178.788 241.646 175.007 241.66C172.471 241.669 167.496 240.025 164.38 238.149C161.117 236.184 159.531 235.902 159.115 237.213C158.414 239.422 162.516 242.171 170.613 244.919C173.329 245.84 175.197 246.189 176.488 246.016C178.759 245.711 178.852 246.139 177.385 250.153C176.066 253.761 176.702 255.929 179.216 256.4C180.517 256.644 180.88 256.959 180.88 257.84C180.88 259.33 181.782 260.167 183.387 260.167C184.643 260.167 184.776 260.455 186.777 267.532L188.86 274.898L187.626 276.657C186.947 277.625 186.024 278.924 185.575 279.542C184.588 280.901 185.203 281.921 187.242 282.311C188.335 282.52 189.049 282.105 191.232 279.991C193.848 277.457 193.893 277.363 194.135 273.973C194.391 270.379 193.604 267.144 190.532 259.167C187.995 252.582 186.319 247.867 185.835 245.961C185.562 244.885 185.184 243.76 184.996 243.461C184.808 243.162 184.724 242.499 184.808 241.988C184.892 241.476 184.747 241.191 184.484 241.353C183.943 241.687 180.958 232.582 180.981 230.667C181.007 228.465 179.922 224.874 173.064 204.47C170.762 197.623 168.88 191.384 168.88 190.605C168.88 189.272 168.954 189.223 170.142 189.764C170.847 190.085 171.527 190.907 171.683 191.628C172.271 194.341 174.118 199.807 176.849 206.917C177.694 209.117 178.384 211.088 178.382 211.298C178.381 211.507 178.817 212.632 179.351 213.798C179.886 214.963 180.706 217.155 181.174 218.667C182.257 222.163 184.15 226.912 185.36 229.167C185.877 230.13 186.774 232.155 187.353 233.667C187.933 235.18 188.599 236.867 188.834 237.417C189.068 237.967 189.645 239.43 190.116 240.667C190.587 241.905 191.275 243.592 191.646 244.417C192.017 245.242 193.015 247.625 193.864 249.712C195.471 253.667 197.058 255.866 198.049 255.516C198.833 255.239 198.653 252.505 197.72 250.527C195.419 245.644 190.584 232.415 186.717 220.417C185.742 217.392 183.951 212.33 182.738 209.167C181.524 206.005 180.134 201.78 179.648 199.779C179.091 197.481 178.441 195.968 177.884 195.669C176.605 194.985 176.293 192.749 177.393 192.16C178.016 191.827 178.452 191.901 178.877 192.415C179.47 193.129 180.559 193.394 184.736 193.841C186.239 194.002 187.102 193.831 187.748 193.242C190.362 190.86 190.328 185.925 187.683 183.947C185.365 182.214 183.088 181.167 181.633 181.167C180.885 181.167 178.016 179.688 174.845 177.667C171.824 175.742 169.226 174.167 169.07 174.167C168.915 174.167 168.252 173.746 167.598 173.232C166.418 172.304 166.417 172.289 167.394 171.404C167.936 170.914 168.38 170.21 168.38 169.84C168.38 168.951 168.446 168.965 171.178 170.417C175.097 172.501 180.629 172.027 182.517 169.446C182.764 169.107 183.303 169.378 184.017 170.201C185.729 172.177 192.698 176.667 194.052 176.667C194.715 176.667 195.537 177.005 195.88 177.417C196.689 178.393 199.592 178.379 201.097 177.393C202.614 176.399 203.579 174.078 203.099 172.579C202.894 171.94 202.666 170.674 202.593 169.766C202.519 168.858 202.16 167.757 201.794 167.319C201.429 166.881 200.785 165.599 200.363 164.47C199.62 162.48 199.526 162.417 197.294 162.396C195.578 162.379 194.45 161.997 192.869 160.896C191.702 160.082 190.202 159.053 189.535 158.607C188.868 158.161 186.328 155.967 183.89 153.732C181.453 151.496 179.24 149.667 178.972 149.667C178.705 149.667 178.356 149.328 178.197 148.913C178.038 148.498 177.339 147.899 176.644 147.583C175.569 147.093 175.38 146.676 175.38 144.793V142.578L176.918 143.873C178.07 144.842 179.017 145.167 180.688 145.167C182.046 145.167 183.451 145.532 184.275 146.098C185.02 146.61 188.034 148.532 190.972 150.37C193.91 152.207 196.996 154.487 197.829 155.436C199.732 157.603 203.199 158.701 205.036 157.718C206.583 156.89 207.88 154.158 207.88 151.728C207.88 150.029 207.513 149.469 204.505 146.573C202.649 144.786 200.606 142.614 199.967 141.746C199.327 140.878 198.415 140.167 197.94 140.167C196.723 140.167 193.486 136.771 194.422 136.477C195.062 136.276 208.331 134.53 213.88 133.917C215.117 133.78 216.692 133.555 217.38 133.416C218.067 133.277 220.88 133.064 223.63 132.942C226.38 132.821 229.867 132.592 231.38 132.435C232.892 132.278 235.705 132.391 237.63 132.686C239.555 132.982 243.38 133.28 246.13 133.348C248.88 133.417 252.122 133.76 253.334 134.111C254.547 134.462 256.308 134.604 257.247 134.428C259.935 133.924 260.505 134.736 260.103 138.495C259.6 143.187 260.064 144.903 262.093 145.867C264.553 147.034 266.115 146.897 266.771 145.457C267.174 144.571 267.6 144.318 268.354 144.516C269.787 144.89 270.675 143.996 271.321 141.527C271.625 140.367 272.33 138.855 272.888 138.167L273.902 136.917L273.719 143.417C273.618 146.992 273.704 150.381 273.909 150.947C274.518 152.626 278.345 154.379 280.513 153.972C282.382 153.622 285.315 150.766 285.439 149.178C285.644 146.545 286.271 152.435 286.321 157.451C286.387 164.266 285.7 167.42 283.287 171.375C279.959 176.829 274.724 191.174 271.595 203.417C271.384 204.242 271.18 205.03 271.141 205.167C271.102 205.305 270.78 206.767 270.427 208.417C270.073 210.067 269.241 213.33 268.58 215.667C263.241 234.521 256.734 260.111 256.967 261.339C257.141 262.258 256.377 266.672 255.534 269.626C254.909 271.812 254.867 272.825 255.314 274.876C255.618 276.274 256.115 278.732 256.419 280.338C257.427 285.682 266.84 302.207 269.38 303.092C270.887 303.618 275.07 308.288 275.835 310.299C276.323 311.583 277.197 319.533 277.355 324.133C277.397 325.351 277.854 328.164 278.37 330.383C278.887 332.602 279.564 336.442 279.876 338.917C280.841 346.592 280.84 346.587 281.976 346.948C282.745 347.192 283.269 346.977 283.88 346.167C284.892 344.826 286.4 345.113 287.134 346.788C287.697 348.071 290.38 348.705 290.38 347.555C290.38 347.182 289.027 341.486 287.374 334.897C285.721 328.308 284.112 320.667 283.799 317.917C283.44 314.77 282.979 312.769 282.555 312.517C282.183 312.297 281.88 311.733 281.88 311.263C281.88 310.793 280.657 308.582 279.161 306.349L276.443 302.288L267.893 292.167L260.053 274.876L280.513 190.605L289.948 169.167V146.917L294.13 139.69C295.947 131.417 307.448 116.765 289.948 113.839C289.948 109.667 294.13 100.003 280.658 103.122C280.472 103.422 280.025 103.667 279.665 103.667C279.141 103.667 275.948 93.6664 269.448 89.6664C269.464 88.7598 275.948 83.6664 277.868 78.9244C277.35 79.2449 277.417 74.0639 278.035 66.1674C278.236 63.5974 276.34 49.8388 275.377 46.8838C275.025 45.8023 273.546 42.3839 272.091 39.2879L269.445 33.6579L270.861 32.1078C273.301 29.4358 273.633 24.3084 271.62 20.3769C269.445 17.6194 269.445 17.6864 265.662 15.5259C265.616 15.5854 264.926 15.4594 264.127 15.2459L262.675 14.8574C260.448 15.6519 259.968 15.2459 258.608 16.6059C258.456 16.7579 258.021 16.6649 257.64 16.3999C257.26 16.1344 254.796 14.4619 252.163 12.6829C249.531 10.9039 247.252 9.05339 247.099 8.57089C246.729 7.40539 245.105 6.31038 239.185 3.23538C233.787 0.432384 233.076 0.281385 230.799 1.45889C229.501 2.13039 228.774 2.16489 226.021 1.68539C224.236 1.37439 221.826 0.797893 220.666 0.403893C218.509 -0.328607 217.82 -0.197123 212.749 1.91238C212.121 2.17388 203.447 5.66632 195.447 10.1481C184.447 21.1665 192.877 12.6829 182.947 20.8754ZM153.13 5.42639C153.797 5.55789 154.415 6.42139 154.987 8.02039C155.878 10.5114 160.933 18.5804 162.83 20.5424C163.429 21.1609 164.386 21.6674 164.958 21.6674C165.803 21.6674 165.933 21.8764 165.653 22.7924C164.359 27.0249 164.269 27.6813 164.88 28.4178C165.222 28.8298 166.009 29.1674 166.628 29.1674C169.025 29.1674 176.248 32.2429 176.716 33.4629C177.288 34.9514 176.065 35.3069 174.783 34.0249C173.077 32.3189 168.83 31.8108 164.965 32.8498C164.506 32.9733 163.531 33.2073 162.798 33.3693C161.975 33.5518 160.774 34.6089 159.652 36.1369C158.117 38.2279 157.551 38.6334 155.984 38.7634L154.132 38.9174L153.274 44.6674C151.701 55.2179 151.65 56.0849 152.554 57.0834C153.003 57.5804 153.592 59.1484 153.861 60.5684C154.462 63.7399 156.052 66.9569 157.364 67.6594C158.533 68.2849 159.497 71.5064 159.283 74.0754C159.134 75.8694 159.064 75.9285 156.598 76.3475C154.958 76.6255 153.089 76.574 151.29 76.201L148.514 75.6244L148.206 71.5209C148.036 69.2639 147.751 64.3679 147.571 60.6409L147.245 53.8649L148.569 52.4364C149.297 51.6504 150.31 49.6464 150.821 47.9824C151.891 44.4974 151.605 42.7289 149.64 40.6779C148.947 39.9544 148.38 38.8803 148.38 38.2903C148.38 37.1253 146.718 35.6954 142.483 33.2169C139.525 31.4854 136.17 31.1869 131.331 32.2244C126.493 33.2619 122.311 38.5559 122.136 43.8649L122.051 46.4174L119.59 47.2148C117.338 47.9448 117.117 47.9448 116.979 47.2148C116.896 46.7763 116.586 45.9284 116.29 45.3304C115.578 43.8934 117.16 41.2124 120.463 38.2534C123.84 35.2304 123.659 33.6293 120.053 34.6248C117.521 35.3238 113.824 39.3689 112.46 42.9329C111.322 45.9084 111.071 49.5439 111.838 51.9679C112.091 52.7649 112.435 54.0464 112.604 54.8154C112.772 55.5844 113.956 57.2159 115.235 58.4404C116.71 59.8544 117.265 60.6674 116.755 60.6674C116.314 60.6674 115.498 61.2444 114.944 61.9499C114.096 63.0274 113.771 63.1444 112.907 62.6824C112.245 62.3274 111.88 61.6329 111.88 60.7274C111.88 59.9544 111.448 58.9319 110.92 58.4539C110.109 57.7199 109.51 57.6524 107.045 58.0179C105.442 58.2554 102.908 58.2699 101.414 58.0494C98.1369 57.5669 97.5034 58.0064 98.4374 60.1169C99.1039 61.6219 101.802 63.0864 105.509 63.9549C106.391 64.1614 106.995 64.7009 107.183 65.4514C107.663 67.3644 107.261 67.6859 105.475 66.8179C103.953 66.0779 103.755 66.0784 103.012 66.8214C102.269 67.5639 102.268 67.8964 103.002 70.9164C103.491 72.9319 103.652 74.7284 103.417 75.5604C103.206 76.3069 103.13 77.1989 103.248 77.5424C103.522 78.3399 104.997 78.3499 105.787 77.5599C106.264 77.0829 106.722 77.2789 107.915 78.4719L109.435 79.9914L108.5 82.4544C107.316 85.5784 107.36 86.3789 108.729 86.5739C109.58 86.6949 110.061 86.2729 110.864 84.6989C112.002 82.4679 112.25 82.3464 113.618 83.3474C114.52 84.0069 114.517 84.0699 113.518 85.4724C112.951 86.2669 112.013 87.3459 111.434 87.8699C110.854 88.3939 110.38 89.3499 110.38 89.9949C110.38 90.9659 110.639 91.1674 111.89 91.1674C113.111 91.1674 113.703 90.7379 114.981 88.9249C115.85 87.6914 116.664 86.7849 116.789 86.9099C116.914 87.0344 116.746 88.5089 116.416 90.1859C115.598 94.3424 115.609 97.1889 116.445 97.7184C117.689 98.5064 118.419 98.1874 119.134 96.5424C119.66 95.3324 119.852 95.1729 119.885 95.9174C120.009 98.6769 120.328 101.179 120.617 101.646C121.451 102.997 124.38 101.374 124.38 99.5604C124.38 98.2154 125.266 98.9269 126.112 100.951C126.698 102.355 127.097 102.667 128.301 102.667C129.148 102.667 129.895 102.349 130.061 101.917C130.269 101.373 131.124 101.167 133.179 101.167H136.011L135.745 102.805C135.419 104.812 136.312 106.167 137.96 106.167C139.677 106.167 140.38 105.267 140.38 103.067C140.38 101.036 140.431 101.002 142.817 101.48C144.025 101.721 144.38 102.054 144.38 102.944C144.38 104.216 145.576 105.667 146.625 105.667C148.155 105.667 148.88 105.008 148.88 103.614C148.88 102.212 148.957 102.167 151.373 102.167C153.735 102.167 153.904 102.257 154.575 103.864C155.234 105.439 155.403 105.536 156.957 105.22C158.235 104.96 158.67 104.59 158.802 103.649C158.897 102.971 159.394 102.023 159.906 101.542C160.916 100.594 162.38 100.366 162.38 101.158C162.38 101.427 162.942 101.789 163.63 101.962C165.35 102.394 165.326 104.576 163.584 106.205C161.376 108.27 160.673 110.121 160.748 113.667L160.796 115.917L157.073 115.815C155.025 115.759 152.075 115.477 150.516 115.189C148.622 114.838 147.516 114.831 147.181 115.166C146.111 116.236 143.037 115.698 140.561 114.008C139.224 113.096 137.748 112.208 137.282 112.035C136.785 111.85 136.303 110.935 136.116 109.819C135.941 108.773 135.518 107.017 135.175 105.917C134.62 104.134 134.362 103.901 132.798 103.767C130.078 103.534 129.567 104.521 130.565 108.079C131.58 111.695 131.593 112.979 130.618 113.353C130.199 113.513 129.659 114.156 129.419 114.781C129.065 115.702 129.281 116.239 130.556 117.612C132.104 119.279 132.109 119.301 130.88 118.994C130.192 118.822 129.124 118.678 128.505 118.674C127.431 118.668 127.38 118.482 127.38 114.62C127.38 110.994 127.276 110.546 126.38 110.312C125.83 110.168 125.38 109.875 125.38 109.661C125.38 109.447 124.198 108.538 122.755 107.643C117.812 104.575 116.38 103.531 116.353 102.974C116.339 102.668 114.088 100.515 111.352 98.1909C106.108 93.7359 105.96 93.4414 107.697 90.9309C108.677 89.5154 108.542 88.3294 107.255 87.0434C106.636 86.4249 105.635 84.8524 105.03 83.5484C104.425 82.2444 103.034 79.6564 101.938 77.7974C98.6764 72.2649 95.8314 62.7709 95.1509 55.1509C94.8544 51.8254 94.9334 51.2343 95.8254 50.0998C96.3814 49.3933 97.2979 47.6434 97.8624 46.2114C98.8719 43.6509 100.498 41.0079 103.8 36.5619L105.469 34.3133L107.779 34.7449C110.88 35.3239 119.473 33.5719 121.667 31.9129C122.512 31.2739 123.845 30.6759 124.63 30.5839C126.571 30.3574 128.4 27.3014 130.567 20.6674C132.2 15.6664 134.757 8.67339 135.438 7.35089C135.897 6.45839 136.728 6.18938 140.542 5.70038C143.048 5.37888 145.201 5.0129 145.327 4.8869C145.555 4.6584 151.226 5.05089 153.13 5.42639ZM217.799 8.17389C221.538 9.34589 223.275 9.4039 224.6 8.4014C225.158 7.9794 226.646 7.66839 228.1 7.66989C230.224 7.67239 231.312 8.06989 234.88 10.1479C237.217 11.5089 241.884 13.9859 245.251 15.6519C250.738 18.3674 251.452 18.8729 252.145 20.5309C252.57 21.5484 253.283 22.7844 253.729 23.2774C254.176 23.7709 254.786 24.6098 255.085 25.1418C255.385 25.6738 256.719 27.8178 258.051 29.9058C260.776 34.1778 263.301 41.0284 265.221 49.3569C267.818 60.6204 268.349 64.2759 268.637 72.8719C268.879 80.1144 269.225 79.3159 264.495 82.4319C261.642 84.3109 260.605 84.6044 261.067 83.4014C262.362 80.0264 264.11 70.2154 264.602 63.5619C264.866 59.9964 264.807 59.6639 263.83 59.1404C261.972 58.1464 261.712 58.8224 261.135 66.1674C260.414 75.3259 257.921 85.4094 256.27 85.8409C255.45 86.0554 255.334 85.9134 255.593 85.0084C256.927 80.3414 257.517 77.863 258.167 74.2035C258.832 70.4595 258.832 69.906 258.166 69.24C257.5 68.5735 257.222 68.5949 255.668 69.4319C254.706 69.9499 253.79 70.2439 253.631 70.0854C253.473 69.9269 254.128 68.1369 255.087 66.1074C257.655 60.6729 259.398 56.1014 259.091 55.6044C258.337 54.3844 257.324 55.7979 254.076 62.5999C250.735 69.5979 250.436 70.046 248.954 70.2635C247.024 70.5465 246.906 69.7864 248.63 68.1674C250.353 66.5489 250.257 64.8354 248.383 63.7689C247.56 63.3009 246.885 62.7579 246.883 62.5634C246.881 62.3689 247.836 61.6474 249.005 60.9604C251.224 59.6554 256.158 54.8194 257.465 52.6674C258.223 51.4204 258.176 50.1674 257.372 50.1674C257.139 50.1674 255.864 51.3149 254.539 52.7174C251.746 55.6744 248.46 57.6069 247.865 56.6434C247.621 56.2489 248.956 54.5848 251.613 51.9738C256.185 47.4793 258.88 44.0004 258.88 42.5924C258.88 40.7624 256.969 41.6944 253.859 45.0424C250.374 48.7934 246.045 52.6674 245.339 52.6674C244.327 52.6674 245.053 51.6879 248.88 47.8884C252.821 43.9764 254.919 40.6799 255.622 37.2924C256.144 34.7789 254.684 35.2079 253.069 38.0424C250.696 42.2074 248.543 44.0979 242.13 47.6424C240.098 48.7649 239.393 48.9964 239.944 48.3589C240.904 47.2484 243.38 42.6334 243.38 41.9534C243.38 41.2414 245.466 39.1674 246.182 39.1674C248.277 39.1674 253.357 29.8964 252.299 28.0054C251.267 26.1604 249.964 27.0509 248.222 30.7924C246.434 34.6314 244.739 36.6534 244.132 35.6709C243.941 35.3624 244.334 34.2789 245.005 33.2634C245.676 32.2484 246.715 30.3093 247.313 28.9553L248.4 26.4933L247.047 25.0803C246.302 24.3033 245.522 23.6674 245.313 23.6674C245.104 23.6674 243.754 25.3549 242.314 27.4174C240.874 29.4799 239.489 31.1674 239.235 31.1674C238.981 31.1674 237.899 31.8599 236.831 32.7059L234.888 34.2449L235.194 31.8309C235.363 30.5034 235.764 29.1924 236.085 28.9174C237.627 27.5999 239.368 24.6499 240.099 22.1184C240.993 19.0189 240.792 17.8654 239.271 17.3829C238.15 17.0269 237.525 17.6869 237.108 19.6674C236.531 22.4054 234.651 25.3609 233.255 25.7234C232.498 25.9199 231.879 25.9314 231.878 25.7494C231.877 25.5669 232.356 23.7989 232.943 21.8209C234.131 17.8124 233.972 16.6674 232.23 16.6674C231.356 16.6674 230.612 17.3409 229.375 19.2504C227.94 21.4644 227.647 21.6964 227.325 20.8754C227.119 20.3484 226.931 19.4674 226.907 18.9174C226.841 17.4154 222.697 13.6554 220.765 13.3459C218.18 12.9319 206.135 17.0404 205.121 18.6824C204.691 19.3769 205.784 20.6674 206.802 20.6674C207.242 20.6674 209.123 20.1869 210.983 19.5999C213.703 18.7419 214.511 18.6539 215.109 19.1504C215.766 19.6954 215.767 19.9354 215.117 21.1929C213.954 23.4409 214.206 24.1933 217.005 26.8328C218.968 28.6843 220.16 29.3964 221.734 29.6554C222.891 29.8464 224.117 29.8293 224.459 29.6183C224.86 29.3703 225.405 29.7663 225.993 30.7343L226.906 32.2343L224.923 34.4874C222.971 36.7049 222.818 37.4934 224.037 39.0644C224.33 39.4419 225.079 39.6029 225.834 39.4499C226.547 39.3059 227.763 39.0829 228.537 38.9549L229.945 38.7219L229.605 41.4444C229.158 45.0169 230.201 46.8804 232.461 46.5489C233.787 46.3544 233.917 46.4463 233.62 47.3733C232.386 51.2313 232.954 52.6674 235.714 52.6674C236.874 52.6674 237.829 53.0714 238.679 53.9209C239.847 55.0894 239.88 55.2489 239.156 56.2819C237.891 58.0874 238.17 60.5349 239.83 62.1949C241.24 63.6044 241.262 63.7054 240.629 65.7814L239.978 67.9174L239.213 66.1399C238.792 65.1619 238.301 63.7769 238.121 63.0619C237.724 61.4804 235.657 59.4369 234.917 59.8944C234.131 60.3804 234.261 63.2624 235.168 65.4319C235.853 67.0709 235.877 67.9804 235.356 72.3679C234.925 75.9919 234.901 78.1939 235.273 80.1674C235.558 81.6799 235.706 83.0034 235.602 83.1089C235.498 83.2144 234.669 82.6519 233.76 81.8589C232.85 81.0659 231.593 80.0799 230.966 79.6674C230.298 79.2274 229.639 78.091 229.373 76.9175C228.457 72.8765 227.749 60.4724 228.107 54.7099C228.735 44.5704 228.754 44.9354 227.591 44.7689C226.754 44.6494 226.427 45.0379 225.907 46.7689C224.989 49.8214 224.388 58.3859 224.653 64.6079L224.88 69.9174L223.9 67.7909C222.837 65.4849 221.426 59.1419 221.552 57.2329C221.648 55.7724 220.189 54.6579 219.319 55.5279C218.996 55.8509 218.596 58.0959 218.431 60.5164C218.133 64.8639 218.122 64.8959 217.454 63.1674C217.083 62.2049 216.546 60.9244 216.26 60.3214C215.698 59.1319 212.95 57.5654 212.218 58.0169C211.954 58.1804 211.911 57.0489 212.116 55.2889C212.38 53.0134 212.276 51.9179 211.691 50.7854C210.769 49.0034 209.669 48.4669 208.881 49.4159C208.142 50.3064 206.962 57.6689 207.151 60.2079C207.32 62.4739 206.363 62.8774 205.174 61.0424C204.578 60.1239 204.531 59.1374 204.918 55.6674C205.798 47.7704 206.451 43.4364 207.495 38.5629C208.348 34.5869 208.42 33.5684 207.897 32.9379C207.169 32.0614 206.086 31.9298 205.633 32.6623C204.727 34.1288 201.796 46.0693 201.051 51.3328C200.577 54.6793 200.121 57.5099 200.038 57.6229C199.954 57.7354 199.476 57.4569 198.975 57.0034C198.101 56.2124 198.098 55.9509 198.902 50.5484C199.363 47.4514 200.098 43.1174 200.536 40.9174C203.257 27.2354 203.321 26.3289 201.483 27.4884C200.457 28.1354 198.891 31.8594 197.097 37.9174C194.614 46.3034 194.297 47.1753 193.838 46.8918C193.586 46.7358 193.38 46.0879 193.38 45.4514C193.38 43.7814 191.451 39.6674 190.668 39.6674C188.175 39.6674 187.905 46.6349 190.105 54.1674C191.411 58.6384 191.456 59.1079 190.872 62.1674C190.007 66.6989 189.674 67.1864 188.712 65.3274C188.283 64.4959 187.412 63.4759 186.777 63.0599C185.345 62.1214 184.533 59.2179 183.823 52.4979C182.832 43.1139 184.254 36.2309 188.356 30.5459C189.201 29.3754 190.65 27.2734 191.577 25.8754C192.503 24.4769 193.907 22.8534 194.696 22.2664C199.431 18.7454 200.525 17.7769 201.19 16.5189C201.846 15.2784 201.842 14.9454 201.155 13.5674C200.728 12.7129 200.38 11.8569 200.38 11.6649C200.38 11.4729 202.236 11.1764 204.505 11.0064C210.373 10.5654 210.983 10.3864 212.38 8.68891C213.856 6.89591 213.753 6.90539 217.799 8.17389ZM127.88 11.9074C127.88 12.5894 127.557 13.9954 127.162 15.0324C126.767 16.0689 125.965 18.8299 125.38 21.1674C124.351 25.2774 123.056 28.0473 123.634 24.9018C123.986 22.9873 123.311 21.9634 121.976 22.3869C121.28 22.6079 120.642 23.6303 120.001 25.5543C119.133 28.1573 118.889 28.4424 117.092 28.9564C116.013 29.2649 113.559 29.6749 111.64 29.8679L108.151 30.2189L111.065 27.3733C114.615 23.9068 115.875 21.9249 115.878 19.8039C115.879 18.5824 116.214 17.9859 117.255 17.3489C120.094 15.6114 122.694 13.8669 124.791 12.2924C127.39 10.3419 127.88 10.2809 127.88 11.9074ZM266.187 23.4349C267.297 25.1289 267.788 29.3868 266.837 29.0698C266.459 28.9438 265.763 27.7598 265.29 26.4383C264.818 25.1173 263.969 23.5449 263.405 22.9444C262.841 22.3444 262.38 21.5804 262.38 21.2474C262.38 20.3174 265.21 21.9434 266.187 23.4349ZM196.294 23.3104C195.559 23.9194 194.022 26.1594 192.877 28.2884C191.733 30.4174 190.591 32.2869 190.338 32.4429C189.379 33.0359 189.899 34.1674 191.131 34.1674C192.523 34.1674 194.627 32.1714 198.167 27.4929C200.513 24.3929 200.74 23.7274 199.78 22.7674C198.901 21.8884 197.803 22.0594 196.294 23.3104ZM100.159 32.3769C101.115 33.0759 101.114 33.1044 100.055 34.2519C98.7204 35.6999 94.6184 42.5129 94.1464 44.0669C93.8329 45.0989 93.5839 45.1844 91.7134 44.9054C90.0239 44.6529 89.2989 44.8174 87.8799 45.7729C86.2994 46.8369 86.1154 47.2058 85.9779 49.5818C85.8449 51.8828 85.6649 52.2739 84.5379 52.7024C80.9244 54.0764 79.3014 56.6499 81.1044 58.1464C81.5029 58.4769 82.0994 59.5684 82.4309 60.5714C82.7619 61.5744 84.5724 65.0824 86.4539 68.3669C88.3354 71.6514 89.7744 74.44 89.6509 74.563C89.5274 74.6865 88.6539 74.6424 87.7099 74.4654C86.1724 74.1769 85.5564 73.4784 81.8144 67.7804C76.8229 60.1804 74.4874 55.1769 75.6319 54.5364C76.0434 54.3059 76.3799 53.4924 76.3799 52.7279C76.3799 50.7159 78.7754 44.2779 80.4699 41.7344C84.7719 35.2774 89.8799 31.1758 89.8799 34.1778C89.8799 34.7628 90.3914 35.4219 91.0929 35.7414C92.0954 36.1984 92.6219 36.0993 94.1189 35.1743C95.1154 34.5583 96.2829 33.5174 96.7129 32.8609C97.6014 31.5049 98.7464 31.3439 100.159 32.3769ZM140.495 38.4264C143.691 38.9109 146.089 43.1234 144.4 45.2864C143.915 45.9084 143.362 46.9144 143.172 47.5214C142.691 49.0544 138.152 52.5554 135.836 53.1789C132.481 54.0829 129.846 52.9263 127.63 49.5778C126.165 47.3638 125.901 45.0054 126.906 43.1029C128.737 39.6344 134.302 36.7924 137.38 37.7534C138.067 37.9679 139.469 38.2709 140.495 38.4264ZM172.912 38.7924C174.589 39.3124 174.876 39.5859 174.616 40.4174C174.444 40.9674 174.178 43.7268 174.026 46.5493C173.754 51.5753 173.721 51.6878 172.439 52.0033C168.32 53.0168 167.851 55.5204 171.342 57.8649C173.277 59.1644 173.419 59.3809 172.55 59.7024C170.374 60.5074 165.166 60.3834 163.474 59.4869C161.321 58.3469 161.448 56.8474 163.677 57.0714C166.892 57.3939 167.106 54.0859 163.976 52.4669C161.484 51.1784 160.782 49.5354 160.829 45.1029C160.879 40.4184 161.658 38.8249 164.043 38.5264C167.502 38.0929 170.993 38.1979 172.912 38.7924ZM134.528 41.7629C132.084 44.8204 132.173 47.7333 134.741 48.7093C136.313 49.3073 139.044 48.9374 139.764 48.0294C140.801 46.7214 140.938 43.8474 140.015 42.7739C138.913 41.4934 135.279 40.8234 134.528 41.7629ZM166.48 43.2674C166.15 43.5974 165.88 44.7399 165.88 45.8059C165.88 48.3779 168.027 50.6918 170.054 50.3043C172.43 49.8498 172.821 47.8869 171.302 44.0424C170.846 42.8899 170.461 42.6674 168.919 42.6674C167.907 42.6674 166.81 42.9374 166.48 43.2674ZM82.1344 44.2924C79.2139 48.4404 78.4649 49.9174 78.9724 50.5289C79.7504 51.4659 80.2254 51.3319 82.0669 49.6569C84.1264 47.7824 85.4359 44.3254 84.3474 43.6369C83.2904 42.9679 83.0084 43.0514 82.1344 44.2924ZM121.979 52.4359C122.453 53.4749 122.41 53.8514 121.744 54.5179C121.102 55.1599 120.778 55.2054 120.21 54.7344C119.457 54.1094 118.833 51.8803 119.285 51.4293C119.972 50.7418 121.461 51.2984 121.979 52.4359ZM128.743 57.1674C128.661 57.6739 127.898 57.9689 126.392 58.0764C124.278 58.2274 124.204 58.1884 124.945 57.3264C125.376 56.8264 125.872 56.0114 126.049 55.5149C126.358 54.6454 126.414 54.6454 127.618 55.5149C128.304 56.0114 128.811 56.7549 128.743 57.1674ZM88.8654 57.1479C89.2699 57.4039 89.4949 57.6814 89.3654 57.7654C87.0374 59.2694 85.8799 59.3239 85.8799 57.9294C85.8799 56.8149 87.6189 56.3594 88.8654 57.1479ZM124.497 62.8434C125.228 63.9854 124.922 66.1674 124.032 66.1674C122.917 66.1674 119.462 63.7559 118.798 62.5144C118.299 61.5819 118.404 61.5554 121.203 61.9039C122.813 62.1049 124.295 62.5274 124.497 62.8434ZM130.534 63.6129C131.966 65.7759 131.856 66.1674 129.819 66.1674C128.627 66.1674 128.378 65.9189 128.103 64.4499C127.494 61.2044 128.672 60.7989 130.534 63.6129ZM199.88 63.2264C199.88 63.5014 199.655 63.5874 199.38 63.4174C199.105 63.2474 198.88 62.8834 198.88 62.6084C198.88 62.3334 199.105 62.2474 199.38 62.4174C199.655 62.5874 199.88 62.9514 199.88 63.2264ZM92.5794 64.8219C93.0204 65.5459 92.9309 65.8739 92.1299 66.4704C91.2109 67.1549 91.0389 67.1019 90.0074 65.8164C89.3899 65.0469 88.8839 64.2344 88.8824 64.0109C88.8774 63.2319 92.0329 63.9239 92.5794 64.8219ZM173.126 67.2924C172.778 69.0114 172.219 72.3299 171.883 74.6674C171.546 77.0049 170.818 80.7174 170.265 82.9174C169.307 86.7224 169.055 88.1539 168.635 92.1674C168.534 93.1299 168.423 94.0299 168.388 94.1674C168.352 94.3049 168.055 93.6299 167.727 92.6674C166.515 89.1144 162.38 91.0289 162.38 95.1424C162.38 96.6854 162.347 96.7069 160.505 96.3664C159.474 96.1759 158.134 95.4909 157.529 94.8439C156.119 93.3384 155.196 93.3574 153.969 94.9174C152.619 96.6339 149.355 96.7099 148.623 95.0424C147.889 93.3679 145.553 93.2409 144.826 94.8364C144.459 95.6419 143.745 96.1469 142.774 96.2894C141.262 96.5114 141.054 96.2889 140.173 93.5089C139.968 92.8614 139.49 92.6459 138.508 92.7589C137.373 92.8894 137.046 93.2559 136.656 94.8354C136.216 96.6194 136.08 96.7324 134.719 96.4604C133.913 96.2989 132.86 96.1674 132.377 96.1674C131.746 96.1674 131.332 95.4989 130.905 93.7924C130.316 91.4329 128.897 87.8999 126.453 82.7044C125.47 80.6154 125.202 79.3249 125.29 77.0969L125.405 74.2024L122.767 73.4589C121.317 73.0499 119.3 72.5699 118.286 72.3919C116.812 72.1329 116.337 71.7629 115.911 70.5429C115.237 68.6094 115.227 66.6674 115.891 66.6674C116.172 66.6674 117.353 67.5389 118.516 68.6039C121.998 71.7934 125.569 73.3329 129.38 73.2874C131.167 73.2659 133.72 72.8769 135.052 72.4219C136.384 71.9674 137.544 71.6679 137.629 71.7564C137.714 71.8449 137.455 75.0599 137.055 78.9009C136.257 86.5404 136.325 87.2334 138.082 89.3594C139.251 90.7734 139.363 90.7994 143.952 90.7199C151.049 90.5974 155.48 90.1289 157.019 89.3394C157.784 88.9474 158.609 88.7504 158.854 88.9014C159.099 89.0529 159.668 88.8079 160.119 88.3569C160.746 87.7294 160.904 86.7744 160.793 84.2874C160.648 81.0719 160.667 81.0209 162.568 79.3779L164.488 77.7174L164.141 73.7895L163.793 69.861L166.099 69.882C168.067 69.9 168.581 69.685 169.616 68.4105C170.282 67.5895 170.97 66.2989 171.143 65.5424C171.375 64.5329 171.765 64.1674 172.608 64.1674C173.752 64.1674 173.755 64.1824 173.126 67.2924ZM212.221 65.2614C212.062 65.6599 211.943 65.5414 211.919 64.9589C211.898 64.4319 212.016 64.1369 212.182 64.3029C212.348 64.4689 212.366 64.9004 212.221 65.2614ZM206.542 66.8909C207.125 67.3329 207.396 68.0664 207.292 68.9254L207.13 70.2679L205.755 69.1814C203.452 67.3614 204.219 65.1299 206.542 66.8909ZM142.843 77.2369C142.895 80.4989 143.941 81.5789 147.63 82.1759C149.28 82.4429 151.674 82.6629 152.951 82.6644C154.529 82.6664 155.363 82.9024 155.554 83.4014C155.709 83.8049 155.64 84.2564 155.401 84.4044C155.162 84.5519 151.702 84.7984 147.712 84.9519L140.458 85.2304L140.634 83.3239C140.73 82.2754 140.944 79.9549 141.108 78.1674C141.273 76.3799 141.559 73.9049 141.744 72.6674L142.082 70.4174L142.444 72.6674C142.643 73.9049 142.822 75.9614 142.843 77.2369ZM180.38 71.4885C180.38 71.94 180.841 73.8594 181.405 75.7534C181.97 77.6479 182.53 79.9219 182.65 80.8074C183.546 87.3854 183.552 87.3014 181.88 91.1909C180.993 93.2519 179.74 95.6004 179.095 96.4099L177.922 97.8814L176.744 96.7744C176.095 96.1654 175.194 95.6674 174.74 95.6674C173.249 95.6674 172.683 93.7764 173.563 91.7334C173.993 90.7344 175.153 86.7674 176.14 82.9174C178.452 73.9034 179.464 70.6674 179.971 70.6674C180.196 70.6674 180.38 71.037 180.38 71.4885ZM213.38 73.0174C213.38 75.0669 212.669 74.8004 212.111 72.5424C211.846 71.4714 211.949 71.1674 212.576 71.1674C213.17 71.1674 213.38 71.6509 213.38 73.0174ZM194.563 78.9174C194.743 81.1174 194.992 83.4799 195.114 84.1674C195.784 87.9224 196.88 96.0329 196.88 97.2369V98.6299L190.63 98.5854C187.192 98.5609 184.38 98.3549 184.38 98.1279C184.38 97.9014 185.156 96.9619 186.104 96.0409C187.052 95.1204 188.514 92.9154 189.353 91.1419L190.879 87.9174L190.879 90.0309C190.88 91.7444 191.121 92.3024 192.155 92.9804C194.351 94.4189 194.557 93.5559 193.937 85.5114C193.287 77.0619 193.247 72.4214 193.839 73.9174C194.056 74.4674 194.382 76.7174 194.563 78.9174ZM199.88 76.7225C199.88 78.9695 202.84 96.3119 203.39 97.2854C204.114 98.5684 204.032 98.6674 202.247 98.6674H200.615L199.756 91.0424C199.283 86.8484 198.769 81.7299 198.612 79.6674C198.455 77.6049 198.216 75.2424 198.08 74.4174L197.832 72.9174L198.856 74.098C199.419 74.747 199.88 75.9285 199.88 76.7225ZM245.13 76.351C246.098 78.55 246.216 78.6339 248.794 78.9579C250.408 79.1604 251.935 79.0749 252.669 78.7404C253.723 78.2604 253.88 78.3144 253.88 79.1544C253.88 80.1319 253.674 80.7604 252.134 84.4849C251.404 86.2519 251.014 86.5969 249.455 86.8544C245.963 87.4319 245.958 87.4269 244.581 80.7559C244.147 78.6559 243.569 76.5215 243.297 76.0135C242.775 75.0365 243.109 73.4385 243.751 73.8415C243.959 73.972 244.58 75.1015 245.13 76.351ZM240.529 80.1779C241.194 82.5099 241.88 85.1589 242.051 86.0654C242.359 87.6869 242.346 87.7009 241.248 86.9314C240.453 86.3744 239.961 85.2539 239.537 83.0334C238.951 79.9659 238.671 75.2919 239.099 75.7199C239.219 75.8404 239.863 77.8464 240.529 80.1779ZM208.102 82.1364C208.911 83.0309 211.38 93.6364 211.38 96.2194C211.38 97.2624 211.135 97.6694 210.505 97.6744C210.024 97.6779 209.164 97.8064 208.594 97.9594C207.623 98.2199 207.506 97.8814 206.733 92.5774C206.279 89.4644 205.761 85.5249 205.582 83.8234C205.273 80.8734 205.306 80.7414 206.286 80.9979C206.852 81.1459 207.669 81.6584 208.102 82.1364ZM235.042 89.7039C236.38 90.1874 236.957 90.8769 238 93.2369L239.296 96.1694L238.068 96.4774C236.505 96.8699 235.119 95.6664 234.328 93.2319C234.004 92.2339 233.133 90.6299 232.393 89.6674C230.236 86.8624 230.062 86.3239 231.777 87.7599C232.658 88.4984 234.128 89.3729 235.042 89.7039ZM215.354 87.8859C216.126 88.8169 217.379 96.6089 216.812 96.9589C215.758 97.6109 215.158 95.8574 214.107 89.0424C213.808 87.1009 214.313 86.6324 215.354 87.8859ZM228.355 93.6674C230.071 93.6674 229.5 94.5154 227.43 95.0409C225.625 95.4989 225.439 95.4459 224.93 94.3279C224.059 92.4159 224.273 92.0864 225.855 92.9044C226.666 93.3239 227.791 93.6674 228.355 93.6674ZM271.834 98.7759C273.014 100.485 273.764 101.956 273.5 102.044C271.207 102.808 270.82 104.984 272.882 105.523C273.701 105.737 273.894 106.244 273.959 108.351C274.081 112.302 274.02 112.512 271.808 115.818C268.347 120.988 268.326 121.003 267.504 118.802C267.118 117.765 266.612 116.13 266.379 115.167C266.147 114.205 265.819 112.967 265.65 112.417C265.412 111.645 265.854 111.019 267.592 109.667C270.396 107.487 270.73 105.667 268.327 105.667C267.39 105.667 266.051 106.225 264.952 107.072C262.237 109.166 255.735 113.489 253.026 115.001C250.209 116.574 249.38 117.333 249.38 118.34C249.38 118.749 248.93 120.134 248.38 121.417C247.83 122.7 247.38 124.193 247.38 124.734C247.38 125.865 246.031 128.671 245.492 128.66C245.293 128.655 244.836 128.466 244.477 128.238C243.346 127.521 244.688 121.316 246.185 120.335C247.467 119.495 247.758 117.745 246.778 116.765C246.005 115.993 248.851 112.99 255.13 107.951C257.605 105.964 261.561 102.388 263.922 100.003C266.282 97.6184 268.546 95.6674 268.951 95.6674C269.357 95.6674 270.654 97.0664 271.834 98.7759ZM256.852 99.0424C256.836 99.2489 255.584 100.396 254.068 101.593C252.552 102.79 250.677 104.646 249.9 105.718C248.562 107.566 248.473 107.608 248.202 106.527C247.714 104.582 248.359 103.251 249.963 102.899C250.859 102.702 251.667 102.084 252.01 101.332C252.712 99.7894 256.945 97.7879 256.852 99.0424ZM175.168 102.792C175.364 103.411 175.998 104.592 176.578 105.417C177.158 106.242 177.912 107.367 178.253 107.917C179.042 109.186 183.989 118.624 184.484 119.803C184.688 120.291 181.998 117.816 178.506 114.303C171.707 107.465 171.847 107.735 172.933 103.542C173.474 101.451 174.622 101.066 175.168 102.792ZM240.755 103.797C242.094 104.853 241.426 105.667 239.222 105.667C238.035 105.667 235.763 105.908 234.173 106.202C232.583 106.496 231.164 106.619 231.021 106.475C230.877 106.331 230.91 105.415 231.093 104.439L231.425 102.665L235.778 102.984C238.171 103.16 240.411 103.525 240.755 103.797ZM183.895 105.667C185.857 105.667 187.466 107.995 188.947 112.976C190.604 118.548 190.618 118.667 189.654 118.667C189.255 118.667 188.086 117.148 187.056 115.292C186.027 113.436 184.328 110.507 183.282 108.783C181.153 105.277 181.041 104.93 182.171 105.364C182.606 105.531 183.382 105.667 183.895 105.667ZM285.563 107.911C285.406 108.32 285.532 109.384 285.842 110.275C286.288 111.554 286.278 111.766 285.793 111.281C285.037 110.525 283.265 110.482 282.545 111.202C282.25 111.497 282.117 112.68 282.247 113.839C282.46 115.729 282.347 116.016 281.124 116.67C279.822 117.367 276.509 121.964 274.639 125.667C273.24 128.436 272.911 128.719 271.786 128.117C271.019 127.706 270.581 127.782 269.838 128.455C268.806 129.389 268.57 130.916 269.38 131.417C270.228 131.941 269.938 134.245 268.595 137.655C266.952 141.829 266.251 142.778 265.127 142.347C264.352 142.05 264.292 141.59 264.617 138.463C264.82 136.513 265.019 134.355 265.058 133.667C265.098 132.98 265.524 132.023 266.005 131.542C266.486 131.061 266.88 130.128 266.88 129.469C266.88 128.711 267.566 127.668 268.747 126.631C270.578 125.024 273.901 120.381 277.489 114.417C278.771 112.287 279.22 111.036 279.04 110.101C278.719 108.439 279.381 108.011 282.88 107.621C284.392 107.452 285.679 107.281 285.739 107.241C285.799 107.2 285.72 107.502 285.563 107.911ZM195.127 112.542C195.309 114.674 195.563 116.792 195.69 117.25C195.817 117.708 195.72 118.207 195.474 118.359C195.062 118.614 192.359 110.71 192.373 109.292C192.377 108.949 192.923 108.667 193.587 108.667C194.731 108.667 194.812 108.871 195.127 112.542ZM242.585 112.311C242.952 112.893 242.857 113.364 242.234 114.052C241.764 114.571 241.38 115.184 241.38 115.414C241.38 115.643 241.003 116.686 240.542 117.731C239.749 119.527 239.674 119.573 239.167 118.573C238.157 116.585 237.237 116.403 233.041 117.358C229.414 118.183 226.457 119.241 223.38 120.815C221.919 121.561 220.871 123.52 220.517 126.166C220.274 127.971 220.172 128.06 217.978 128.36C216.504 128.563 215.569 128.474 215.345 128.11C214.895 127.383 216.008 122.664 217.435 119.248L218.55 116.579L220.721 116.905C223.695 117.351 224.666 116.933 225.946 114.657C227.18 112.461 228.612 111.983 236.156 111.252C240.435 110.838 241.797 111.062 242.585 112.311ZM205.462 112.792C205.769 118.807 205.718 119.667 205.058 119.667C204.54 119.667 204.38 118.661 204.38 115.417C204.38 112.917 204.586 111.167 204.88 111.167C205.155 111.167 205.417 111.898 205.462 112.792ZM175.271 116.949C176.754 119.132 178.397 121.424 178.921 122.042C179.596 122.84 179.678 123.167 179.205 123.167C178.311 123.167 172.748 121.241 172.313 120.781C172.124 120.581 171.807 118.645 171.61 116.479C171.156 111.51 171.612 111.569 175.271 116.949ZM261.38 114.794C261.38 114.863 261.812 116.434 262.341 118.283L263.303 121.645L262.015 125.031C261.306 126.894 260.674 128.485 260.611 128.568C260.547 128.651 258.765 127.92 256.651 126.943C254.537 125.966 252.509 125.167 252.146 125.167C251.203 125.167 251.96 122.115 253.347 120.321C255.088 118.071 261.38 113.741 261.38 114.794ZM292.097 118.655C293.107 119.039 293.384 119.491 293.397 120.78C293.407 121.68 293.737 122.98 294.13 123.667C295.203 125.546 295.041 126.026 293.219 126.368C291.059 126.773 288.762 129.06 286.779 132.78C285.849 134.526 284.709 135.947 284.034 136.204C282.796 136.675 282.745 136.838 282.867 139.975C282.918 141.29 282.575 142.643 281.915 143.725C281.348 144.656 280.879 146.092 280.874 146.917C280.869 147.742 280.651 148.755 280.39 149.167C279.971 149.829 279.822 149.824 279.118 149.12C278.569 148.571 278.302 147.322 278.261 145.12C278.146 138.892 278.363 136.167 278.973 136.167C279.935 136.167 281.88 134.072 281.88 133.035C281.88 132.509 283.116 130.692 284.628 128.997C286.139 127.303 287.376 125.636 287.378 125.292C287.379 124.949 287.607 124.667 287.884 124.667C288.163 124.667 288.349 123.629 288.3 122.34C288.229 120.458 288.43 119.836 289.351 119.09C290.688 118.008 290.481 118.04 292.097 118.655ZM153.392 120.95C153.66 121.655 153.88 123.748 153.88 125.6C153.88 127.452 154.124 129.212 154.423 129.511C154.74 129.828 154.775 130.173 154.506 130.339C154.253 130.496 153.101 129.283 151.946 127.645C150.79 126.007 149.608 124.667 149.319 124.667C148.977 124.667 148.916 123.92 149.143 122.542C149.603 119.765 149.68 119.667 151.422 119.667C152.553 119.667 153.02 119.971 153.392 120.95ZM144.573 125.11C144.302 125.433 141.38 124.074 141.38 123.624C141.38 123.392 141.815 122.97 142.346 122.685C142.877 122.401 143.487 121.662 143.701 121.043C144.017 120.128 144.15 120.386 144.412 122.417C144.59 123.792 144.662 125.004 144.573 125.11ZM282.886 123.142C282.456 124.935 281.609 126.417 279.976 128.233C278.709 129.642 277.589 130.544 277.486 130.237C277.273 129.597 282.877 119.998 283.248 120.369C283.382 120.503 283.219 121.751 282.886 123.142ZM225.427 126.82C225.031 127.216 224.88 127.086 224.88 126.351C224.88 125.029 225.579 124.327 225.802 125.426C225.896 125.892 225.727 126.52 225.427 126.82ZM237.255 126.482C239.199 127.003 238.48 127.433 236.005 127.229C234.205 127.08 233.872 126.937 234.63 126.635C235.911 126.126 235.922 126.125 237.255 126.482ZM140.185 128.542C140.335 129.023 140.778 130.014 141.169 130.744C142.168 132.61 142.059 133.167 140.693 133.167C139.183 133.167 136.185 136.374 133.659 140.69C132.62 142.465 131.526 144.07 131.227 144.257C130.45 144.744 128.88 143.78 128.88 142.817C128.88 141.322 133.853 131.743 134.782 131.448C135.278 131.291 136.458 130.383 137.406 129.431C139.374 127.453 139.802 127.317 140.185 128.542ZM179.553 132.398C179.845 133.16 178.773 137.94 178.176 138.538C177.987 138.727 177.137 138.137 176.287 137.227C174.93 135.775 174.522 135.61 172.936 135.872C171.942 136.036 167.53 136.61 163.13 137.147C155.832 138.038 152.244 138.675 150.285 139.427C149.887 139.579 148.967 139.237 148.241 138.666C146.961 137.659 146.949 137.598 147.835 136.712C148.338 136.209 150.073 135.54 151.69 135.226C153.307 134.913 156.092 134.306 157.88 133.878C163.55 132.521 170.759 131.935 173.84 132.582C176.097 133.055 176.76 133.03 177.605 132.438C178.924 131.514 179.212 131.508 179.553 132.398ZM117.755 132.482C119.418 132.928 119.172 134.167 117.421 134.167C115.369 134.167 114.397 133.703 114.715 132.876C115.006 132.118 115.943 131.997 117.755 132.482ZM290.969 137.417C289.794 140.722 289.381 141.387 288.589 141.245C288.061 141.15 287.559 141.004 287.472 140.92C287.285 140.741 290.169 134.954 291.323 133.193C292.675 131.129 292.512 133.075 290.969 137.417ZM189.324 139.849C191.142 141.324 192.855 142.621 193.13 142.732C194.545 143.301 197.38 145.331 197.38 145.775C197.38 146.383 200.782 149.752 202.595 150.94C203.302 151.403 203.88 152.063 203.88 152.405C203.88 153.387 201.604 152.72 200.332 151.367C199.712 150.707 199.026 150.167 198.807 150.167C198.588 150.167 197.446 149.518 196.269 148.724C195.093 147.93 191.711 145.865 188.755 144.136C185.798 142.408 183.38 140.82 183.38 140.61C183.38 140.399 183.619 140.079 183.911 139.898C184.203 139.718 184.647 139.029 184.898 138.369C185.149 137.708 185.504 137.167 185.687 137.167C185.869 137.167 187.506 138.374 189.324 139.849ZM143.203 139.951C145.494 141.827 145.609 142.032 144.959 143.056C144.641 143.557 143.973 143.577 141.842 143.148C137.604 142.294 137.706 142.408 139.182 140.178C139.914 139.072 140.628 138.167 140.77 138.167C140.911 138.167 142.006 138.97 143.203 139.951ZM104.289 144.7C102.309 146.882 100.515 148.667 100.302 148.667C100.089 148.667 99.1504 149.338 98.2164 150.158C96.5609 151.612 96.4969 151.625 95.6624 150.703C95.1914 150.183 94.2039 149.607 93.4679 149.423C92.7319 149.24 91.7529 148.75 91.2919 148.334C90.2579 147.403 88.6969 147.641 88.4809 148.763C88.3924 149.222 89.1229 150.487 90.1044 151.573L91.8894 153.549L90.5094 153.818C89.0384 154.105 87.1499 152.805 86.6219 151.142C86.4704 150.665 85.3069 149.465 84.0354 148.475C80.3699 145.619 79.5574 147.612 82.4424 152.382C82.9294 153.187 83.2389 153.991 83.1294 154.168C82.6424 154.956 79.2674 154.069 76.5739 152.445C74.5954 151.252 73.0149 150.669 71.7549 150.669C70.7239 150.668 69.8799 150.801 69.8799 150.965C69.8799 151.129 70.3544 151.929 70.9344 152.744C71.5144 153.558 71.8619 154.352 71.7069 154.507C71.3534 154.861 65.2954 154.233 64.5374 153.764C64.0864 153.485 62.8799 148.645 62.8799 147.116C62.8799 146.915 64.7359 146.134 67.0049 145.381C69.2739 144.629 72.1164 143.593 73.3224 143.079C74.5284 142.565 75.9909 142.136 76.5724 142.124C86.6054 141.927 106.419 140.79 106.824 140.388C106.932 140.281 107.215 140.315 107.454 140.463C107.693 140.611 106.269 142.517 104.289 144.7ZM169.38 142.971C169.38 145.109 169.299 145.256 168.255 145C167.636 144.849 165.555 144.45 163.63 144.115C159.365 143.373 158.622 142.848 161.19 142.392C162.257 142.203 164.367 141.756 165.88 141.399C167.392 141.042 168.798 140.732 169.005 140.709C169.211 140.686 169.38 141.704 169.38 142.971ZM113.054 143.122C112.546 143.922 110.005 146.904 107.408 149.747C102.024 155.642 75.7694 181.723 75.4949 181.449C75.3954 181.35 75.5509 180.389 75.8404 179.315C76.2704 177.716 78.4814 175.254 87.9979 165.774C94.3954 159.401 100.689 153.392 101.984 152.42C103.278 151.449 104.516 150.37 104.734 150.024C105.302 149.121 113.252 141.667 113.647 141.667C113.829 141.667 113.562 142.322 113.054 143.122ZM217.494 144.792C217.214 145.136 216.372 148.342 215.622 151.917C214.15 158.939 213.941 159.87 212.479 165.917C210.379 174.608 207.751 186.259 206.39 192.917C205.603 196.767 204.143 203.742 203.145 208.417C202.148 213.092 200.982 218.717 200.555 220.917C199.483 226.437 199.189 226.796 198.147 223.86C194.938 214.818 189.257 201.211 188.347 200.388C187.17 199.322 185.879 199.788 185.882 201.277C185.884 201.904 187.589 206.58 189.671 211.667C191.754 216.755 193.873 222.045 194.381 223.422C196.388 228.868 199.805 237.535 200.785 239.667C201.354 240.905 202.056 242.832 202.344 243.95C202.867 245.977 205.076 248.638 205.71 248.004C206.211 247.503 204.597 241.323 202.597 236.082C201.23 232.499 200.942 231.217 201.329 230.432C201.605 229.874 202.056 227.955 202.332 226.167C203.367 219.474 203.938 216.374 204.406 214.917C205.325 212.058 212.511 182.895 213.463 178.167C214.653 172.25 217.817 154.028 218.411 149.667C218.654 147.88 218.976 145.911 219.126 145.292C219.429 144.042 218.369 143.717 217.494 144.792ZM41.8499 145.381C42.1754 145.773 43.3844 146.412 44.5359 146.8C46.9604 147.616 48.9509 147.244 50.6379 145.66L51.7648 144.601L52.7818 146.029C54.8358 148.914 56.0034 153.572 55.7609 157.917C55.4969 162.664 54.0484 168.167 53.0639 168.167C52.6879 168.167 52.3798 167.872 52.3798 167.511C52.3798 167.15 51.6789 166.337 50.8219 165.703C49.3764 164.635 49.2894 164.402 49.6209 162.484C50.3449 158.293 50.2339 157.432 48.9474 157.25C48.2969 157.158 47.5204 157.327 47.2224 157.625C46.2284 158.619 45.7654 158.185 46.0659 156.542C46.5624 153.831 45.9039 153.346 42.7869 154.129C39.1524 155.041 38.8799 155.351 38.8799 158.564C38.8799 161.546 39.7879 163.167 41.4574 163.167C42.7554 163.167 42.6044 164.016 41.1714 164.776C40.5064 165.129 39.0439 166.27 37.9214 167.312C35.6379 169.432 35.3849 170.723 36.7079 173.511C37.5324 175.249 37.5304 175.26 36.0829 176.443C35.2839 177.097 34.3638 177.639 34.0388 177.649C32.5098 177.696 29.9989 171.887 28.6799 165.253C28.3149 163.418 27.8374 161.493 27.6184 160.974C27.2669 160.141 27.4069 160.058 28.8094 160.264C31.1814 160.612 31.5669 159.783 30.6609 156.286C30.2379 154.654 29.3334 152.056 28.6509 150.513C27.9684 148.97 27.5934 147.594 27.8169 147.456C28.0404 147.318 29.6254 147.308 31.3384 147.434C34.7319 147.683 36.1389 147.214 36.6299 145.668C36.8824 144.871 37.3859 144.667 39.1024 144.667C40.3589 144.667 41.5044 144.965 41.8499 145.381ZM120.63 145.667C121.455 146.214 122.861 146.662 123.755 146.664C124.649 146.666 125.38 146.892 125.38 147.167C125.38 147.442 125.175 147.667 124.924 147.667C124.04 147.667 108.467 166.069 103.512 172.969C102.348 174.59 100.77 176.592 100.006 177.417C99.2424 178.242 98.2544 179.48 97.8114 180.167C97.3679 180.855 95.6749 183 94.0494 184.935C92.4239 186.87 90.5414 189.345 89.8664 190.435L88.6394 192.417L88.2264 189.417C87.9994 187.767 87.5084 186.105 87.1354 185.724C86.1849 184.752 84.8799 185.401 84.8799 186.847C84.8799 187.513 84.4349 189.039 83.8909 190.238C83.3469 191.436 82.8969 192.924 82.8909 193.542C82.8849 194.161 82.7374 194.667 82.5629 194.667C82.1629 194.667 77.3799 189.828 77.3799 189.424C77.3799 189.259 78.1844 188.254 79.1674 187.192C80.1509 186.129 81.4444 184.616 82.0424 183.83C82.6404 183.044 83.6924 181.835 84.3799 181.144C85.0674 180.452 86.7549 178.634 88.1299 177.103C89.5049 175.572 92.2049 172.565 94.1299 170.422C96.0549 168.279 101.342 162.719 105.88 158.065C110.417 153.412 115.142 148.501 116.38 147.151C117.617 145.802 118.742 144.693 118.88 144.686C119.017 144.679 119.805 145.121 120.63 145.667ZM158.974 147.187C161.496 147.726 164.138 148.176 164.844 148.187C165.551 148.197 168.042 148.951 170.38 149.861C174.203 151.349 174.687 151.686 175.201 153.216C175.725 154.778 175.938 154.917 177.802 154.917C179.536 154.917 180.11 155.216 181.731 156.963C183.81 159.203 189.735 164.359 192.165 166.044C193.231 166.782 194.18 167.033 195.264 166.862C196.637 166.645 196.929 166.816 197.664 168.266C198.124 169.174 198.786 170.255 199.135 170.667C199.554 171.163 199.624 171.797 199.343 172.537C198.971 173.511 198.743 173.591 197.583 173.149C196.849 172.87 195.66 172.224 194.939 171.713C194.219 171.202 192.617 170.444 191.38 170.028C190.014 169.569 189.059 168.921 188.951 168.38C188.769 167.472 187.702 166.167 187.142 166.167C186.972 166.167 185.156 165.338 183.106 164.325C179.817 162.698 179.38 162.32 179.38 161.103C179.38 159.481 177.789 158.167 175.826 158.167C174.937 158.167 174.206 157.726 173.625 156.84C172.413 154.989 170.291 153.202 169.285 153.183C168.82 153.174 164.772 151.93 160.29 150.417C155.807 148.905 152.081 147.667 152.01 147.667C151.736 147.667 151.896 145.818 152.195 145.518C152.369 145.345 152.934 145.429 153.45 145.705C153.967 145.982 156.453 146.649 158.974 147.187ZM143.505 147.919C144.847 148.464 144.546 149.511 142.88 150.092C141.781 150.476 141.38 150.933 141.38 151.803C141.38 153.235 145.206 157.768 150.13 162.171C156.743 168.085 160.38 171.691 160.38 172.337C160.38 173.594 162.094 176.167 162.932 176.167C163.447 176.167 165.503 177.216 167.5 178.498C169.496 179.779 172.037 181.231 173.145 181.723C174.253 182.214 176.139 183.326 177.334 184.192C179.022 185.414 179.836 185.701 180.973 185.474C182.112 185.246 182.718 185.46 183.694 186.436C184.384 187.126 184.873 188.079 184.781 188.554C184.542 189.791 178.969 189.815 177.88 188.584C177.23 187.849 160.66 179.337 158.255 178.502C157.395 178.204 157.326 177.889 157.128 173.359C157.078 172.227 156.893 170.923 156.716 170.461C156.306 169.394 153.402 168.168 151.271 168.164C149.5 168.16 148.175 166.709 146.695 163.157C145.698 160.763 144.805 160.051 139.589 157.493L135.094 155.289L134.388 152.696C133.999 151.271 133.501 149.992 133.281 149.856C132.412 149.319 132.961 148.697 134.57 148.396C135.675 148.188 136.446 147.669 136.8 146.893L137.34 145.707L139.985 146.636C141.44 147.147 143.024 147.724 143.505 147.919ZM130.739 153.792C131.682 156.528 132.004 159.531 131.395 159.908C130.705 160.334 131.203 162.019 132.398 163.302C133.142 164.101 133.204 164.531 132.763 165.841C132.47 166.708 132.167 167.496 132.089 167.593C132.01 167.689 130.75 166.62 129.288 165.218C127.826 163.816 126.349 162.668 126.005 162.668C124.657 162.667 125.482 165.349 127.88 168.764C130.528 172.535 130.727 173.227 129.699 175.08C129.065 176.223 129.002 176.179 126.131 172.58C124.524 170.566 122.214 167.971 121 166.815C118.924 164.84 118.836 164.649 119.537 163.648C120.616 162.108 129.579 152.192 129.904 152.179C130.055 152.172 130.431 152.898 130.739 153.792ZM155.773 153.757C159.335 154.754 159.895 155.057 159.761 155.917C159.676 156.467 159.294 156.849 158.912 156.765C157.065 156.361 154.408 158.499 155.188 159.762C155.398 160.101 155.19 160.101 154.556 159.761C153.26 159.068 149.38 154.401 149.38 153.536C149.38 152.55 149.924 152.119 150.844 152.377C151.276 152.498 153.494 153.119 155.773 153.757ZM223.519 155.292C222.808 156.21 222.469 157.309 221.338 162.361C220.14 167.715 220.081 168.004 219.406 171.917C218.897 174.86 218.249 178.185 216.725 185.667C216.305 187.73 215.691 191.105 215.36 193.167C214.549 198.228 214.679 197.607 212.902 204.917C212.033 208.492 210.989 212.88 210.581 214.667C210.173 216.455 209.401 219.605 208.865 221.667C206.459 230.922 205.998 233.167 206.505 233.167C206.853 233.167 206.919 234.581 206.702 237.399C206.401 241.31 206.453 241.671 207.386 242.17C208.584 242.812 208.591 242.795 209.359 237.917C209.662 235.992 210.455 232.167 211.123 229.417C212.377 224.245 215.077 210.385 216.869 199.917C217.899 193.897 218.272 192.027 220.652 180.917C222.525 172.172 224.815 159.782 225.065 157.042C225.284 154.632 224.615 153.875 223.519 155.292ZM164.731 157.001C164.907 157.46 164.758 159.091 164.399 160.626C163.8 163.193 163.67 164.159 163.455 167.642C163.397 168.585 163.244 168.731 162.788 168.276C162.065 167.553 162.164 162.999 162.987 159.042C163.593 156.132 164.148 155.482 164.731 157.001ZM67.2154 160.697C66.5054 162.578 66.2179 162.547 65.4804 160.507C64.6539 158.222 64.6869 158.152 66.3254 158.723C67.6784 159.195 67.7349 159.321 67.2154 160.697ZM88.7234 159.344C88.9104 159.531 86.4909 162.149 83.3469 165.163C80.2024 168.176 77.5644 170.346 77.4839 169.986C77.4039 169.626 77.5934 168.338 77.9054 167.124C78.9459 163.077 78.8314 162.437 77.0359 162.263C74.9299 162.059 74.0149 163.469 72.7789 168.823C71.5334 174.219 68.8464 182.801 68.5089 182.463C68.3619 182.316 68.0524 179.102 67.8209 175.32C67.4124 168.648 67.4374 168.349 68.6689 165.181C69.3664 163.386 70.1719 161.31 70.4589 160.568C70.9004 159.424 71.3354 159.185 73.3049 159.002C76.6899 158.687 88.3249 158.945 88.7234 159.344ZM135.63 160.167C135.8 160.442 135.714 160.667 135.439 160.667C135.164 160.667 134.8 160.442 134.63 160.167C134.46 159.892 134.546 159.667 134.821 159.667C135.096 159.667 135.46 159.892 135.63 160.167ZM157.897 161.438C159.073 162.855 157.681 163.302 156.386 161.924C155.243 160.707 155.238 160.667 156.231 160.667C156.796 160.667 157.545 161.014 157.897 161.438ZM171.022 162.619C172.142 164.515 172.112 164.667 170.63 164.667C169.535 164.667 169.38 164.451 169.38 162.917C169.38 160.787 169.885 160.695 171.022 162.619ZM141.544 164.345C145.005 168.569 146.244 171.659 144.154 170.857C143.177 170.482 138.38 163.924 138.38 162.963C138.38 161.536 139.723 162.123 141.544 164.345ZM118.38 167.378C118.792 168.044 121.291 171.587 123.933 175.253C126.574 178.918 129.146 182.592 129.648 183.417C130.149 184.242 131.199 185.608 131.98 186.451L133.4 187.985L130.873 193.451C129.484 196.458 128.146 199.367 127.901 199.917C127.655 200.467 125.323 205.305 122.718 210.667C120.113 216.03 117.9 220.867 117.801 221.417C117.689 222.033 117.145 222.484 116.383 222.592C115.704 222.688 114.352 223.397 113.38 224.167C112.407 224.937 110.569 226.074 109.295 226.693L106.978 227.819L104.304 226.311L101.63 224.803L101.13 217.61L100.63 210.418L98.6699 209.777C97.4959 209.394 96.5279 209.319 96.2559 209.591C95.5019 210.345 94.9044 213.718 94.8919 217.292C94.8794 220.864 94.6169 221.173 92.6774 219.902C91.5314 219.152 91.5224 219.08 92.1809 216.027C93.2489 211.075 93.6299 204.821 92.9159 203.961C91.4074 202.143 90.1929 204.498 89.6224 210.349C89.4384 212.237 89.0274 214.515 88.7089 215.412C88.2154 216.802 87.9699 216.982 87.0464 216.636L85.9634 216.23L86.8794 212.669C87.3834 210.71 87.8489 207.265 87.9144 205.012C87.9899 202.405 88.3104 200.463 88.7969 199.667C89.9964 197.705 96.9514 189.239 101.756 183.893C104.162 181.217 106.872 178.102 107.778 176.972C111.454 172.39 116.975 166.167 117.362 166.168C117.509 166.169 117.967 166.713 118.38 167.378ZM258.464 166.816C257.966 167.416 256.734 171.613 254.692 179.667C253.96 182.559 253.016 186.162 249.454 199.667C248.91 201.73 247.637 206.567 246.624 210.417C245.612 214.267 244.36 218.992 243.842 220.917C242.864 224.55 241.705 229.206 239.544 238.167C238.609 242.049 237.669 244.46 235.94 247.417C233.558 251.493 227.88 263.576 227.88 264.57C227.88 264.871 227.235 266.085 226.448 267.267C225.139 269.232 220.88 278.424 220.88 279.283C220.88 279.714 217.365 287.37 215.572 290.845C214.373 293.168 214.357 293.313 215.197 294.242C216.881 296.103 217.764 295.247 220.427 289.167C221.813 286.005 223.624 281.73 224.452 279.667C225.28 277.605 227.627 272.461 229.668 268.236C231.71 264.012 233.38 260.448 233.38 260.318C233.38 260.187 235.036 256.669 237.061 252.499C239.086 248.329 240.904 244.403 241.101 243.773C241.298 243.144 242.001 241.682 242.663 240.523C243.326 239.365 243.873 237.967 243.88 237.417C243.887 236.867 244.478 234.617 245.194 232.417C245.91 230.217 246.673 227.742 246.89 226.917C249.106 218.506 250.351 213.347 250.872 210.417C252.188 203.02 255.571 189.518 258.451 180.167C262.289 167.708 262.134 168.475 261.065 167.228C260.025 166.012 259.235 165.887 258.464 166.816ZM138.555 169.815L140.04 171.649L139.117 173.696L138.194 175.743L136.555 173.83C134.792 171.771 134.601 170.967 135.383 168.909C136.003 167.277 136.651 167.462 138.555 169.815ZM49.2129 169.486L51.7953 169.797L53.4129 173.607C54.3024 175.703 55.8609 179.827 56.8769 182.771L58.7239 188.125L56.8309 189.646C55.7904 190.483 54.8324 191.167 54.7029 191.167C54.5734 191.167 53.8654 189.592 53.1299 187.667C51.9784 184.653 51.6229 184.167 50.5704 184.167C49.8984 184.167 49.2224 184.495 49.0684 184.897C48.7314 185.776 49.5809 188.568 51.1629 191.781C52.3109 194.111 52.3148 194.179 51.4633 196.684L50.6004 199.224L48.9054 195.82C46.4994 190.989 42.9629 183.439 42.7824 182.749C42.6984 182.428 43.1924 181.872 43.8799 181.513C44.9579 180.95 45.1154 180.554 45.0254 178.639C44.8569 175.067 44.4939 174.167 43.2204 174.167C42.0929 174.167 40.8799 173.34 40.8799 172.57C40.8799 171.951 44.9354 169.167 45.8299 169.172C46.2699 169.174 47.7924 169.316 49.2129 169.486ZM147.191 175.868C148.257 177.078 150.001 179.117 151.066 180.398C152.242 181.813 153.272 182.618 153.691 182.447C154.07 182.293 154.661 182.06 155.005 181.93C155.618 181.697 159.172 184.542 158.77 184.944C158.657 185.057 157.005 184.703 155.099 184.158C150.843 182.941 149.935 182.922 149.538 184.042C149.367 184.523 148.947 185.255 148.604 185.667C147.569 186.913 146.078 189.799 145.388 191.892C145.03 192.978 144.134 194.89 143.397 196.142C142.036 198.452 137.38 208.364 137.38 208.948C137.38 209.124 135.219 213.802 132.578 219.343C129.937 224.884 127.145 230.767 126.374 232.417C124.886 235.6 119.389 248.227 117.123 253.667C114.632 259.646 114.597 259.691 112.836 259.077C111.549 258.628 111.079 258.697 110.023 259.485C108.765 260.424 108.734 260.42 105.818 259.021C104.202 258.245 102.88 257.374 102.88 257.085C102.88 256.777 103.241 256.714 103.755 256.931C106.52 258.104 106.916 257.558 113.114 244.028C114.472 241.063 115.987 238.272 116.482 237.825C116.976 237.378 117.38 236.516 117.38 235.909C117.38 235.301 118.077 233.143 118.929 231.111C119.782 229.079 121.251 225.53 122.196 223.223C123.14 220.916 124.643 217.766 125.535 216.223C126.426 214.68 127.591 212.405 128.123 211.167C128.654 209.93 129.571 208.13 130.159 207.167C130.748 206.205 132.036 203.373 133.023 200.875C135.1 195.617 142.968 179.684 144.533 177.567C145.419 176.369 145.495 175.966 144.988 175.155C143.497 172.767 144.843 173.203 147.191 175.868ZM134.608 178.811C136.017 180.818 136.232 182.102 135.409 183.591C135.143 184.071 134.515 183.555 133.22 181.79C131.571 179.544 131.46 179.194 132.017 177.995C132.354 177.269 132.742 176.682 132.88 176.69C133.017 176.698 133.795 177.653 134.608 178.811ZM228.674 180.292C226.984 182.902 225.242 188.829 223.192 198.946C221.904 205.304 220.783 209.929 218.289 219.167C216.71 225.016 215.734 229.231 214.814 234.167C214.532 235.68 213.757 238.995 213.091 241.535C211.764 246.596 211.624 247.95 212.38 248.417C212.655 248.587 212.88 249.147 212.88 249.661C212.88 250.175 213.249 250.965 213.701 251.417C214.379 252.095 214.629 252.123 215.129 251.578C216.313 250.287 217.405 246.533 218.419 240.268C220.079 230.02 224.268 210.051 226.622 201.167C227.023 199.655 227.69 196.842 228.103 194.917C228.517 192.992 229.414 188.991 230.095 186.025C230.777 183.059 231.209 180.303 231.054 179.9C230.64 178.821 229.506 179.008 228.674 180.292ZM166.88 188.667C166.88 188.942 166.486 189.164 166.005 189.16C165.257 189.153 165.239 189.081 165.88 188.667C166.823 188.057 166.88 188.057 166.88 188.667ZM69.6299 190.667C69.7999 190.942 69.5879 191.167 69.1594 191.167C68.7309 191.167 68.3799 190.942 68.3799 190.667C68.3799 190.392 68.5914 190.167 68.8504 190.167C69.1094 190.167 69.4599 190.392 69.6299 190.667ZM64.7779 191.743C64.8914 192.342 64.2489 192.797 62.4354 193.399C59.3724 194.416 57.6884 195.698 56.0904 198.23C55.4179 199.295 54.6459 200.167 54.3759 200.167C53.6374 200.167 55.6684 195.208 56.9834 193.8C59.5709 191.029 64.4014 189.754 64.7779 191.743ZM71.7299 196.866C77.3419 198.775 77.3799 198.808 77.3799 201.841C77.3799 205.127 78.7054 206.88 80.9434 206.551C82.0074 206.395 82.3799 206.545 82.3794 207.129C82.3789 208.397 79.6689 213.705 77.6279 216.435L75.7459 218.953L71.4379 218.876C63.7854 218.739 61.5029 217.956 58.6699 214.499C57.0619 212.537 56.8799 212.012 56.8799 209.34C56.8799 206.731 57.1184 205.999 58.8244 203.373C60.2039 201.25 61.7659 199.702 64.1994 198.043C66.0864 196.757 67.7594 195.697 67.9174 195.686C68.0754 195.676 69.7909 196.207 71.7299 196.866ZM232.884 196.792C232.624 197.411 231.61 201.405 230.632 205.667C229.654 209.93 228.163 216.005 227.318 219.167C226.473 222.33 225.475 226.38 225.1 228.167C224.365 231.667 223.903 233.351 222.086 239.167C221.195 242.017 220.962 243.726 221.115 246.289C221.344 250.121 221.563 250.667 222.876 250.667C223.867 250.667 224.124 250.128 224.661 246.917C224.845 245.817 225.897 240.867 226.999 235.917C230.329 220.96 231.981 213.294 233.141 207.417C233.575 205.217 234.234 202.067 234.606 200.417C235.045 198.464 235.117 197.112 234.812 196.542C234.175 195.35 233.453 195.444 232.884 196.792ZM45.3764 204.917C46.2934 206.567 47.0969 207.989 47.1619 208.076C47.2274 208.163 48.2209 208.302 49.3704 208.384C51.9684 208.569 52.5629 209.211 53.3119 212.637C54.0349 215.947 55.6344 218.139 58.9629 220.38C61.3579 221.993 61.4299 222.105 60.4184 222.647C59.8329 222.96 58.5159 223.322 57.4919 223.452C55.3889 223.718 53.9084 225.24 53.8909 227.154L53.8799 228.39L53.0284 227.174C51.6774 225.245 48.5364 217.619 48.1559 215.344C47.9384 214.042 48.0089 213.147 48.3444 212.939C49.3424 212.322 48.8314 210.423 47.3534 209.255C44.1399 206.717 43.3069 208.799 44.6884 215.917C45.4954 220.075 47.9654 225.32 53.2869 234.175L55.8454 238.433L53.0949 244.925C51.5819 248.496 49.7909 252.582 49.1139 254.007C47.7109 256.96 47.8214 257.676 49.8184 258.56C51.9454 259.501 52.7939 258.88 53.6719 255.738C54.9859 251.034 55.9994 248.624 56.5794 248.822C57.1574 249.02 57.1594 249.821 56.5944 256.583C56.3334 259.713 56.0459 260.835 55.4384 261.095C53.3119 262.006 50.8799 263.846 50.8799 264.543C50.8799 264.971 51.5248 266.692 52.3128 268.369C53.7893 271.509 55.8799 277.334 56.8464 281C57.5134 283.53 59.7169 286.167 61.1639 286.167C61.7474 286.167 62.5804 285.774 63.0149 285.292C63.7369 284.493 63.7239 284.187 62.8684 281.759C62.3529 280.298 61.7914 278.16 61.6209 277.009C61.3449 275.149 61.4389 274.862 62.4699 274.417C63.9464 273.781 64.1579 271.908 63.2109 267.849C62.5209 264.892 62.7474 263.217 63.7534 263.839C64.0199 264.004 64.3704 265.439 64.5319 267.028C64.6929 268.617 64.9509 270.48 65.1049 271.167C65.8589 274.536 67.0414 284.337 67.0954 287.667C67.1289 289.73 67.3384 291.708 67.5609 292.064C68.1009 292.927 67.2799 293.838 64.4894 295.473C61.7414 297.084 54.1324 302.537 50.6299 305.405C48.2979 307.315 45.6439 309.167 45.2389 309.167C45.1419 309.167 45.1919 308.211 45.3494 307.042C45.6844 304.56 44.9899 295.969 43.8429 288.417C43.5924 286.767 43.3859 283.953 43.3839 282.164C43.3814 280.375 43.1674 278.169 42.9074 277.263C42.6474 276.357 42.1984 272.534 41.9094 268.766C41.6204 264.999 41.2584 260.342 41.1049 258.417C40.6384 252.571 40.4964 228.274 40.8949 222.417C41.1004 219.392 41.4139 214.217 41.5919 210.917C41.7694 207.617 42.0494 203.841 42.2139 202.526C42.5539 199.808 42.5259 199.786 45.3764 204.917ZM260.053 201.339C258.616 202.322 258.166 203.24 257.563 206.417C256.896 209.936 251.998 223.613 249.314 229.45C248.07 232.157 248.121 232.508 249.894 233.425C251.609 234.311 252.38 234.062 252.38 232.622C252.38 232.079 252.75 230.799 253.203 229.776C253.656 228.754 254.083 227.659 254.151 227.344C254.295 226.686 256.994 219.119 258.406 215.417C258.93 214.042 259.681 211.68 260.073 210.167C260.466 208.655 261.253 206.405 261.822 205.167C262.99 202.631 263.207 200.143 262.255 200.214C261.911 200.24 260.92 200.747 260.053 201.339ZM144.86 210.865C145.11 211.523 145.59 212.154 145.926 212.266C146.386 212.419 146.317 213.084 145.649 214.944C144.105 219.239 142.334 222.874 141.156 224.167C139.028 226.503 138.639 231.914 140.366 235.142C140.649 235.67 140.88 236.307 140.88 236.559C140.88 237.406 129.027 241.81 128.601 241.121C128.461 240.895 129.222 238.957 130.292 236.814C131.362 234.671 133.08 231.005 134.109 228.667C136.481 223.281 137.349 221.351 139.579 216.498C140.569 214.342 141.38 212.423 141.38 212.234C141.38 211.466 142.985 209.667 143.67 209.667C144.074 209.667 144.609 210.206 144.86 210.865ZM92.9129 224.185C93.8279 224.675 94.3294 227.186 93.5049 227.151C92.6074 227.113 91.3799 225.719 91.3799 224.737C91.3799 223.523 91.5569 223.459 92.9129 224.185ZM113.611 229.042C113.404 229.524 113.22 230.311 113.2 230.792C113.157 231.892 112.474 231.908 111.291 230.837C110.408 230.038 110.426 229.974 111.752 229.124C113.535 227.98 114.077 227.957 113.611 229.042ZM101.38 230.728C101.38 232.235 101.34 232.263 100.255 231.543C98.5939 230.442 98.5069 229.167 100.093 229.167C101.201 229.167 101.38 229.385 101.38 230.728ZM71.9714 232.276C71.6129 232.634 71.3799 232.664 71.3799 232.351C71.3799 231.683 71.9714 231.092 72.3049 231.426C72.4469 231.568 72.2969 231.95 71.9714 232.276ZM92.3799 233.452C92.3799 234.047 92.1734 234.092 91.3799 233.667C90.8299 233.373 90.3799 232.795 90.3799 232.382C90.3799 231.787 90.5864 231.743 91.3799 232.167C91.9299 232.462 92.3799 233.04 92.3799 233.452ZM232.936 232.85C232.624 233.225 231.713 235.531 230.911 237.975C230.108 240.418 229.161 243.149 228.806 244.043C228.22 245.518 228.26 245.77 229.242 246.752C230.588 248.097 231.659 247.428 232.008 245.025C232.136 244.141 232.851 241.205 233.598 238.5C234.885 233.833 234.98 232.167 233.957 232.167C233.707 232.167 233.247 232.474 232.936 232.85ZM68.4874 233.542C68.9064 234.024 69.3609 234.755 69.4969 235.167C69.7849 236.039 69.0579 237.667 68.3804 237.667C67.9099 237.667 65.3799 234.227 65.3799 233.588C65.3799 233.294 66.1299 232.978 67.4274 232.725C67.5909 232.693 68.0679 233.061 68.4874 233.542ZM76.0684 235.048C76.7019 236.273 76.6874 236.546 75.9404 237.468L75.0989 238.508L74.2394 237.368C73.1764 235.96 73.1739 235.724 74.2074 234.582C75.2584 233.42 75.2219 233.411 76.0684 235.048ZM83.2864 238.136C83.4114 238.511 83.2239 238.699 82.8489 238.574C82.4879 238.453 82.0939 238.059 81.9739 237.699C81.8489 237.324 82.0364 237.136 82.4114 237.261C82.7719 237.381 83.1659 237.775 83.2864 238.136ZM72.6854 240.96C73.0924 242.582 71.6459 244.442 71.0944 243.005C70.6929 241.959 71.2319 239.667 71.8799 239.667C72.1444 239.667 72.5069 240.249 72.6854 240.96ZM66.3799 241.476C66.3799 241.889 66.1549 242.087 65.8799 241.917C65.6049 241.747 65.3799 241.271 65.3799 240.858C65.3799 240.446 65.6049 240.247 65.8799 240.417C66.1549 240.587 66.3799 241.064 66.3799 241.476ZM89.3689 242.715C89.3749 242.878 88.9299 243.42 88.3799 243.917C87.4149 244.791 87.3449 244.791 86.3799 243.917C85.0824 242.743 85.1159 241.909 86.4989 240.94C87.5429 240.209 87.6754 240.232 88.4874 241.287C88.9659 241.909 89.3629 242.551 89.3689 242.715ZM80.2064 241.436C80.5939 242.446 78.8859 244.373 78.2054 243.693C77.8744 243.362 77.9004 242.77 78.2829 241.931C78.9324 240.505 79.7664 240.29 80.2064 241.436ZM96.8799 244.718C96.8799 244.933 96.6449 245.253 96.3579 245.431C95.7089 245.832 94.3799 244.781 94.3799 243.867C94.3799 243.325 94.6309 243.303 95.6299 243.758C96.3174 244.071 96.8799 244.503 96.8799 244.718ZM85.3589 248.639C85.3474 248.792 84.9349 249.674 84.4419 250.599L83.5454 252.281L82.4189 250.371C81.3404 248.543 81.3269 248.39 82.1094 246.749L82.9264 245.036L84.1529 246.699C84.8279 247.613 85.3704 248.487 85.3589 248.639ZM142.302 245.944C142.634 246.236 141.796 249.167 141.381 249.167C140.136 249.167 139.38 248.423 139.38 247.197C139.38 246.447 139.532 245.681 139.719 245.495C140.013 245.2 141.814 245.513 142.302 245.944ZM246.188 246.762C245.322 248.085 242.773 253.603 242.589 254.55C242.416 255.442 243.768 256.667 244.926 256.667C247.119 256.667 250.347 248.815 249.021 246.708C248.243 245.473 247.015 245.496 246.188 246.762ZM69.8764 246.792C69.8749 247.136 69.4264 248.092 68.8799 248.917C67.7599 250.609 67.4744 249.604 68.4604 247.441C69.0704 246.102 69.8824 245.73 69.8764 246.792ZM92.3319 247.948C93.1409 249.319 93.2629 249.951 92.8634 250.698C92.1814 251.972 92.1399 251.956 90.8844 249.925C90.2154 248.842 89.9289 247.801 90.1274 247.175C90.5864 245.729 91.1364 245.922 92.3319 247.948ZM147.273 248.792C146.803 251.417 145.88 253.203 145.88 251.489C145.88 250.052 146.968 246.167 147.371 246.167C147.576 246.167 147.532 247.348 147.273 248.792ZM75.3144 251.67C74.4774 254.006 73.1414 257.717 72.3459 259.917C71.5504 262.117 70.8954 264.311 70.8899 264.792C70.8844 265.274 70.6674 265.667 70.4074 265.667C70.1474 265.667 69.8659 264.598 69.7824 263.292C69.6234 260.82 70.5499 258.088 74.2149 250.221C76.5434 245.222 77.2779 246.19 75.3144 251.67ZM124.856 254.167C124.626 257.33 124.423 263.855 124.406 268.667L124.375 277.417L122.002 278.167C120.204 278.736 119.591 279.19 119.47 280.044C119.305 281.202 119.993 281.704 122.049 281.924C122.643 281.988 123.355 282.068 123.63 282.104C123.905 282.139 124.13 283.562 124.13 285.266V288.364L122.437 288.391C120.596 288.42 119.523 289.517 120.034 290.849C120.207 291.299 120.862 291.67 121.489 291.673C122.483 291.678 128.617 293.082 137.88 295.424C141.806 296.416 147.888 298.552 148.694 299.221C149.131 299.583 149.38 300.844 149.38 302.699C149.38 304.299 149.605 305.747 149.88 305.917C151.097 306.669 150.33 308.659 148.107 310.517C146.263 312.059 145.89 312.639 146.128 313.59C146.29 314.235 146.194 315.039 145.914 315.376C145.634 315.714 145.051 317.436 144.618 319.204C143.597 323.379 142.475 325.756 141.001 326.868C140.347 327.362 139.726 327.681 139.623 327.577C139.425 327.379 138.307 322.015 137.406 316.946C137.116 315.312 136.666 313.844 136.407 313.684C136.147 313.523 135.685 311.823 135.379 309.905C135.074 307.987 134.626 306.219 134.385 305.976C133.651 305.237 132.379 306.065 132.389 307.277C132.401 308.824 133.214 315.902 134.031 321.57L134.701 326.223L132.752 324.214C130.823 322.227 130.799 322.155 130.517 317.428C130.3 313.785 130.012 312.396 129.306 311.582C128.796 310.995 128.38 310.324 128.38 310.091C128.38 309.365 127.036 309.627 126.316 310.492C125.939 310.945 125.517 312.914 125.379 314.867L125.128 318.417L122.686 315.98C121.176 314.473 119.803 313.542 119.09 313.542C118.456 313.542 117.435 313.008 116.821 312.355C116.207 311.702 115.392 311.167 115.009 311.167C114.546 311.167 114.366 310.711 114.472 309.8C114.6 308.691 114.905 308.413 116.088 308.324C118.053 308.176 119.29 306.929 118.583 305.809C117.852 304.649 115.921 304.199 110.38 303.893C103.592 303.519 96.3799 302.609 96.3799 302.127C96.3799 301.278 100.726 298.789 103.255 298.19C104.698 297.848 105.88 297.386 105.88 297.165C105.88 296.943 106.851 296.193 108.039 295.497C113.088 292.538 115.902 287.978 115.957 282.667C115.981 280.365 114.574 272.464 113.923 271.249C113.253 269.996 114.296 267.676 115.532 267.671C116.474 267.667 116.911 266.835 120.785 257.667C124.346 249.243 124.902 248.022 125.09 248.221C125.192 248.329 125.086 251.005 124.856 254.167ZM100.106 250.73C101.363 252.225 101.383 252.335 100.551 253.254C99.7009 254.194 99.6609 254.178 98.8014 252.567C97.8389 250.761 97.6204 249.167 98.3354 249.167C98.5859 249.167 99.3829 249.871 100.106 250.73ZM92.3394 254.861C93.3244 254.685 94.5074 254.211 94.9689 253.809C95.7224 253.152 95.8869 253.23 96.5849 254.58L97.3619 256.082L95.3734 256.418C94.2799 256.603 93.2679 256.944 93.1244 257.176C92.9814 257.408 91.5739 257.753 89.9969 257.943C88.4199 258.133 86.3989 258.587 85.5049 258.952C84.6109 259.317 83.8799 259.555 83.8799 259.48C83.8799 259.128 87.0434 252.841 87.5044 252.277C87.9089 251.782 88.3139 252.039 89.2884 253.409C90.4404 255.028 90.7039 255.153 92.3394 254.861ZM133.763 266.865L133.896 280.19L132.513 279.887C129.603 279.249 129.747 279.714 130.083 272.037C130.423 264.253 131.013 254.136 131.161 253.542C131.213 253.336 131.283 252.915 131.317 252.606C131.358 252.237 131.765 252.301 132.505 252.792C133.619 253.531 133.631 253.669 133.763 266.865ZM81.2969 254.162L82.4019 255.657L81.0654 258.287C80.3299 259.734 79.6644 261.705 79.5864 262.667C79.5084 263.63 78.9439 265.43 78.3329 266.667C77.7214 267.905 76.8629 271.111 76.4254 273.792C75.7719 277.797 75.4739 278.666 74.7549 278.667C74.2739 278.667 73.8879 278.386 73.8974 278.042C73.9589 275.83 75.4334 269.481 76.1784 268.22C76.9489 266.916 76.9799 266.539 76.4064 265.467C75.8159 264.364 75.9504 263.58 77.6099 258.446C78.6374 255.268 79.6384 252.667 79.8349 252.667C80.0314 252.667 80.6889 253.34 81.2969 254.162ZM63.2584 257.955C62.7664 258.448 61.8799 257.692 61.8799 256.781C61.8799 256.017 61.9459 256.019 62.7249 256.798C63.1899 257.263 63.4299 257.784 63.2584 257.955ZM140.345 259.042C140.325 259.524 140.116 260.367 139.88 260.917C139.535 261.719 139.443 261.546 139.415 260.042C139.396 259.011 139.605 258.167 139.88 258.167C140.155 258.167 140.364 258.561 140.345 259.042ZM145.88 263.596C145.882 268.475 144.708 279.445 144.107 280.167C143.764 280.58 143.404 281.305 143.306 281.779C143.203 282.284 142.893 282.491 142.558 282.279C142.038 281.95 142.945 271 144.17 262.828C144.613 259.871 145.879 260.44 145.88 263.596ZM155.441 262.005C155.005 262.754 154.907 262.776 154.895 262.126C154.879 261.284 155.405 260.525 155.759 260.88C155.876 260.997 155.733 261.503 155.441 262.005ZM166.843 268.978C169.011 275.7 169.025 275.997 167.664 286.106C166.472 294.956 163.986 299.325 157.746 303.536L155.525 305.035L155.205 299.476C154.587 288.756 154.687 287.752 157.088 280.545C162.035 265.702 163.819 261.277 164.459 262.26C164.695 262.621 165.767 265.645 166.843 268.978ZM234.054 266.282C232.595 268.5 231.09 271.631 230.699 273.262C230.283 274.992 222.449 293.565 220.495 297.451C218.337 301.744 218.078 303.366 219.347 304.635C220.447 305.735 221.88 306.018 221.88 305.136C221.88 304.843 222.536 303.212 223.339 301.511C226.733 294.315 228.548 290.196 229.879 286.667C231.557 282.215 233.468 277.838 235.205 274.467C235.981 272.961 236.374 271.528 236.225 270.747C236.091 270.048 236.314 268.97 236.719 268.351C237.71 266.839 237.398 264.954 236.13 264.782C235.466 264.692 234.769 265.196 234.054 266.282ZM107.478 274.06C108.236 278.136 107.394 281.224 105.034 283.024C102.878 284.669 96.8719 285.256 94.5564 284.048C89.4964 281.408 89.3989 281.304 89.3874 278.536C89.3779 276.198 91.0069 270.201 92.1079 268.521C92.8654 267.365 93.1539 267.286 95.7799 267.519C98.3799 267.75 98.7379 267.656 99.8594 266.451L101.088 265.131L104.004 268.092C106.601 270.729 106.98 271.381 107.478 274.06ZM86.6364 269.221C85.6579 270.704 84.6009 272.817 84.2884 273.917C83.7229 275.906 83.6384 280.618 84.1399 282.198C84.4719 283.245 83.0449 284.532 82.3369 283.824C82.0619 283.549 81.6744 281.882 81.4769 280.121C81.1079 276.831 81.8024 274.116 84.2679 269.21C85.1179 267.518 87.9979 265.282 88.2729 266.1C88.3514 266.334 87.6154 267.738 86.6364 269.221ZM235.669 280.292C235.265 280.911 234.222 283.442 233.351 285.917C232.48 288.392 231.372 291.205 230.889 292.167C230.405 293.13 229.163 296.055 228.129 298.667C227.095 301.28 225.588 304.697 224.78 306.261C223.654 308.441 223.428 309.322 223.81 310.038C224.118 310.612 224.134 311.25 223.853 311.694C222.808 313.346 223.613 316.167 225.13 316.167C226.017 316.167 231.889 303.312 234.626 295.381C235.378 293.201 236.42 290.334 236.942 289.01C237.464 287.686 237.844 285.984 237.786 285.228C237.728 284.472 237.978 283.136 238.341 282.26C238.869 280.986 238.877 280.516 238.379 279.917C237.496 278.853 236.52 278.988 235.669 280.292ZM134.472 284.871C134.953 285.447 135.354 286.311 135.363 286.792C135.377 287.511 134.934 287.667 132.88 287.667H130.38V285.751C130.38 284.696 130.498 283.716 130.642 283.572C131.181 283.033 133.629 283.864 134.472 284.871ZM142.368 286.167C143.02 286.167 143.254 286.517 143.202 287.417C143.127 288.706 142.56 288.903 140.505 288.352C139.886 288.186 139.38 287.664 139.38 287.192C139.38 286.066 139.911 285.572 140.77 285.902C141.15 286.048 141.869 286.167 142.368 286.167ZM104.887 289.042C104.89 289.524 105.025 290.407 105.185 291.005C105.433 291.931 105.191 292.172 103.568 292.62C101.227 293.267 100.687 292.802 101.25 290.626C101.55 289.471 102.065 288.843 102.907 288.608C104.783 288.085 104.879 288.106 104.887 289.042ZM187.486 292.337C185.109 293.535 184.324 295.185 185.476 296.562C185.869 297.033 187.223 299.667 188.486 302.417C190.557 306.928 191.488 309.521 194.104 318.064C194.55 319.52 195.034 322.558 195.179 324.814C195.547 330.519 195.723 331.167 196.905 331.167C198.105 331.167 198.329 330.677 198.625 327.406C198.748 326.037 198.989 323.994 199.16 322.866C199.609 319.901 196.527 305.926 193.823 298.667C193.26 297.155 192.579 295.023 192.311 293.93C191.563 290.878 190.849 290.642 187.486 292.337ZM39.6069 295.351C39.7844 296.689 39.8424 297.871 39.7359 297.978C39.6294 298.084 38.7914 297.797 37.8734 297.339C35.9589 296.384 33.6759 296.788 29.0324 298.903C26.8169 299.913 26.3489 299.982 25.8464 299.377C24.3964 297.63 21.9324 299.386 23.0009 301.404C23.2959 301.961 24.5144 303.538 25.7084 304.909C26.9029 306.279 27.8799 307.685 27.8799 308.034C27.8799 310.334 18.4579 306.01 15.8879 302.53L14.3274 300.417L16.2289 298.784C20.4004 295.199 23.1904 293.249 24.3799 293.087C25.0674 292.994 28.7024 292.917 32.4574 292.917H39.2844L39.6069 295.351ZM82.3799 293.591C82.3799 293.824 82.8414 294.22 83.4054 294.472C84.3204 294.88 84.0914 295.133 81.2804 296.818C79.5474 297.857 75.7674 300.386 72.8799 302.439C69.9924 304.492 66.5049 306.856 65.1299 307.694C63.7549 308.531 60.0759 311.116 56.9539 313.438L51.2778 317.659L49.8564 316.538C49.0749 315.922 48.4229 315.266 48.4074 315.082C48.3154 313.964 77.9914 294.667 79.8034 294.667C80.0529 294.667 80.5374 294.33 80.8799 293.917C81.5599 293.098 82.3799 292.919 82.3799 293.591ZM237.351 298.322C236.539 300.057 235.535 302.781 235.12 304.374C234.136 308.153 231.612 314.185 230.057 316.476C228.694 318.486 228.675 320.03 230.005 320.864C230.64 321.262 231.119 321.261 231.755 320.861C232.819 320.191 235.479 313.925 238.903 304.018C240.952 298.092 241.342 296.474 240.859 295.893C239.734 294.536 238.83 295.162 237.351 298.322ZM93.0804 297.111C93.8869 297.427 93.6589 297.698 91.5804 298.894C88.1004 300.898 60.6329 319.279 57.1564 321.931C55.2064 323.418 54.5779 323.478 54.2454 322.206C53.9229 320.974 55.0874 319.892 62.6299 314.412C71.3729 308.06 71.3679 308.064 80.6299 302.148C89.1314 296.718 90.5824 296.131 93.0804 297.111ZM253.632 300.292C253.459 300.911 253.114 301.867 252.867 302.417C252.62 302.967 251.735 305.555 250.902 308.167C250.069 310.78 248.355 315.392 247.093 318.417C245.831 321.442 244.535 324.557 244.214 325.339C243.679 326.639 243.754 326.859 245.101 327.934C246.795 329.286 247.139 329.199 247.614 327.297C247.803 326.538 249.156 322.88 250.62 319.167C252.083 315.455 254.133 309.644 255.175 306.255C256.773 301.06 256.957 300.022 256.35 299.638C255.104 298.85 253.959 299.125 253.632 300.292ZM35.2808 303.774C35.1358 306.274 35.0628 306.394 33.4973 306.712C32.0958 306.997 31.6894 306.836 30.6224 305.568C28.8954 303.515 29.0559 302.865 31.5049 301.998C35.2099 300.687 35.4533 300.801 35.2808 303.774ZM40.0764 302.458C40.7344 304.172 40.4099 305.667 39.3799 305.667C38.5464 305.667 38.3799 305.334 38.3799 303.667C38.3799 301.603 39.4544 300.837 40.0764 302.458ZM93.1959 306.501C92.9559 308.252 93.0699 309.048 93.6524 309.692C94.1669 310.261 94.3174 310.992 94.0989 311.863C93.6239 313.755 93.0109 313.902 92.6399 312.213C92.2569 310.469 90.9924 309.84 89.9544 310.878C89.2909 311.542 89.3074 312.065 90.0984 315.53L90.9904 319.435L89.6324 322.676C88.8859 324.459 88.2149 325.982 88.1419 326.061C87.7494 326.485 84.9479 321.234 85.1219 320.402C85.2354 319.86 85.8049 316.706 86.3884 313.392L87.4494 307.367L90.0394 305.784C91.4644 304.913 92.8294 304.194 93.0729 304.185C93.3164 304.175 93.3719 305.217 93.1959 306.501ZM102.561 307.917C102.402 308.33 102.168 308.667 102.041 308.667C101.913 308.667 101.471 308.33 101.058 307.917C100.392 307.251 100.449 307.167 101.578 307.167C102.502 307.167 102.77 307.372 102.561 307.917ZM110.36 313.513C110.402 314.761 109.268 314.701 107.483 313.362C105.031 311.521 104.897 311.268 105.478 309.599L105.975 308.175L108.157 310.546C109.358 311.85 110.349 313.185 110.36 313.513ZM41.0289 311.184C41.2294 311.95 41.0339 312.167 40.1414 312.167C39.3214 312.167 38.9294 311.817 38.7609 310.935C38.3514 308.794 40.4649 309.026 41.0289 311.184ZM82.3779 317.176C81.8009 319.766 81.2424 321.971 81.1369 322.077C80.8659 322.348 70.7129 320.133 70.2434 319.7C70.0309 319.505 72.8434 317.328 76.4934 314.863C84.1864 309.669 84.0609 309.62 82.3779 317.176ZM20.1224 313.61C21.4159 314.679 23.1634 316.39 24.0054 317.412C25.2999 318.982 25.4644 319.475 25.0684 320.593C24.6379 321.81 24.3784 321.916 21.8649 321.9C18.0149 321.877 15.9069 321.388 15.0919 320.329C13.5934 318.384 11.4714 314.865 11.1499 313.792C10.8429 312.768 10.9839 312.663 12.7214 312.617C13.7709 312.59 15.1924 312.387 15.8799 312.167C16.5674 311.947 17.2744 311.745 17.4504 311.717C17.6269 311.69 18.8294 312.542 20.1224 313.61ZM206.746 312.538C206.038 313.321 206.025 313.83 206.622 317.167C207.291 320.907 208.511 324.844 209.32 325.874C209.555 326.173 209.897 331.2 210.08 337.046C210.264 342.892 210.543 348.011 210.7 348.421C211.01 349.229 212.253 349.391 213.255 348.755C213.862 348.369 215.085 340.904 214.655 340.208C214.537 340.017 214.398 337.624 214.346 334.889C214.225 328.506 213.559 323.694 212.658 322.698C211.882 321.84 209.38 315.247 209.38 314.059C209.38 313.654 208.966 312.948 208.461 312.491C207.603 311.714 207.489 311.718 206.746 312.538ZM100.099 315.599C99.9099 316.049 99.3329 317.731 98.8174 319.336C97.2959 324.076 97.1414 324.186 95.8894 321.439C94.8524 319.162 94.8349 318.926 95.5769 317.222C96.0094 316.23 96.5919 314.783 96.8719 314.009L97.3809 312.6L98.9119 313.69C99.9834 314.453 100.34 315.026 100.099 315.599ZM164.327 315.526C163.006 315.833 160.608 322.132 159.831 327.342C157.206 344.914 157.19 345.457 159.191 347.866C160.731 349.72 162.241 350.532 162.864 349.842C163.076 349.608 163.073 347.842 162.858 345.917C162.107 339.176 163.127 326.544 164.973 319.738C165.97 316.059 165.835 315.176 164.327 315.526ZM106.529 319.917C108.692 321.67 108.819 322.666 107.445 327.081C106.669 329.576 106.623 330.197 107.174 330.751C107.877 331.458 108.945 338.667 108.346 338.667C108.152 338.667 106.642 337.765 104.991 336.662C102.397 334.93 101.807 334.232 100.663 331.537L99.3379 328.417L100.572 324.167C101.251 321.83 102.047 319.285 102.342 318.513C102.936 316.954 102.827 316.918 106.529 319.917ZM42.7119 319.792C44.3264 321.598 45.8719 324.434 45.9849 325.8C46.1219 327.456 43.2734 330.769 40.6299 332.027C38.5979 332.994 36.8763 333.102 34.0688 332.437C30.8588 331.677 29.0614 324.572 31.5049 322.303C32.1239 321.728 33.0344 320.675 33.5284 319.963C34.3554 318.77 34.7144 318.667 38.0659 318.667C41.2089 318.667 41.8429 318.821 42.7119 319.792ZM178.426 321.368C177.798 322.036 176.769 322.712 176.138 322.87C174.352 323.319 172.855 327.984 172.122 335.383C171.96 337.014 171.504 340.502 171.107 343.133C170.03 350.277 170.111 351.59 171.662 352.18C173.618 352.923 174.145 352.782 174.658 351.373L175.13 350.079L181.765 350.072C187.764 350.065 188.448 349.973 188.907 349.116C189.259 348.459 189.241 347.842 188.849 347.11C188.321 346.123 187.967 346.066 183.538 346.26C179.432 346.439 178.917 346.375 179.711 345.781C181.691 344.301 186.329 341.753 188.181 341.127C190.687 340.28 191.598 339.457 191.194 338.405C190.931 337.718 190.439 337.62 188.501 337.866C186.507 338.119 180.196 340.032 176.678 341.449C175.775 341.814 175.744 341.634 176.073 337.875C176.292 335.377 177.19 331.569 178.508 327.55C179.939 323.185 180.434 321.021 180.081 320.669C179.728 320.316 179.208 320.536 178.426 321.368ZM73.0229 324.945C73.7509 325.225 75.5619 329.152 75.1514 329.562C75.0319 329.682 73.2344 329.402 71.1569 328.939C67.7639 328.185 67.3799 327.98 67.3799 326.924C67.3799 326.278 67.2299 325.358 67.0464 324.879C66.7454 324.095 66.9859 324.042 69.5039 324.338C71.0389 324.518 72.6224 324.792 73.0229 324.945ZM94.3029 326.478C94.9204 327.748 95.2954 328.918 95.1369 329.077C94.9779 329.236 94.1559 328.674 93.3104 327.829C92.1659 326.684 91.8594 326.02 92.1104 325.229C92.6089 323.658 93.0569 323.913 94.3029 326.478ZM260.748 330.77C259.724 333.876 258.064 338.924 257.058 341.987C256.053 345.05 255.369 347.919 255.539 348.362C255.95 349.431 258.032 349.389 258.985 348.292C259.403 347.811 259.9 346.742 260.089 345.917C260.277 345.092 261.477 341.155 262.754 337.167C264.032 333.18 265.089 328.905 265.103 327.667C265.127 325.627 265.013 325.404 263.87 325.27C262.681 325.131 262.507 325.438 260.748 330.77ZM79.3799 327.417C79.3799 327.83 79.1789 328.167 78.9334 328.167C78.6879 328.167 78.3574 327.83 78.1989 327.417C78.0239 326.96 78.1984 326.667 78.6454 326.667C79.0494 326.667 79.3799 327.005 79.3799 327.417ZM85.5724 329.4C86.4969 330.811 86.6259 332.456 85.8499 332.936C85.0259 333.445 82.3789 332.142 82.3869 331.232C82.4124 328.167 84.1209 327.184 85.5724 329.4ZM24.7194 329.542C25.0124 330.375 26.3594 333.494 26.7704 334.292C27.1639 335.057 22.8319 334.634 20.3799 333.667C18.9844 333.117 17.4289 332.667 16.9224 332.667C15.6539 332.667 14.7329 331.418 15.1144 330.215C15.4374 329.199 15.5459 329.178 22.7704 328.762C23.9389 328.694 24.4999 328.919 24.7194 329.542ZM93.1184 332.655C94.2434 333.829 94.4474 334.357 94.0869 335.158C93.6759 336.071 93.4879 335.921 92.2259 333.67C90.6434 330.849 90.9994 330.444 93.1184 332.655ZM202.255 331.72C201.719 332.024 201.38 332.813 201.38 333.753C201.38 335.978 202.818 345.456 203.642 348.662C204.803 353.178 207.218 353.897 206.754 349.588C205.982 342.427 204.276 332.351 203.749 331.832C203.318 331.409 202.864 331.375 202.255 331.72ZM75.2774 333.876C77.3349 334.588 77.6744 335.327 76.8909 337.388C76.3724 338.752 76.3034 338.773 73.4959 338.425C71.9194 338.23 70.5594 338.003 70.4734 337.921C70.3874 337.838 70.0074 336.599 69.6299 335.167L68.9429 332.563L71.1844 332.899C72.4169 333.084 74.2589 333.524 75.2774 333.876ZM264.446 335.792C263.882 337.511 262.959 340.252 262.395 341.884C261.163 345.45 261.407 346.667 263.352 346.667C264.993 346.667 265.815 345.829 266.402 343.556C266.636 342.655 267.306 340.162 267.893 338.017C269.061 333.747 268.803 332.667 266.615 332.667C265.657 332.667 265.308 333.17 264.446 335.792ZM84.3799 337.697C84.3799 337.956 84.1549 338.167 83.8799 338.167C83.6049 338.167 83.3799 337.816 83.3799 337.388C83.3799 336.959 83.6049 336.747 83.8799 336.917C84.1549 337.087 84.3799 337.438 84.3799 337.697ZM246.183 338.792C243.303 345.669 243.19 346.629 245.135 347.67C246.781 348.551 247.88 347.611 247.88 345.323C247.88 344.376 248.073 343.223 248.309 342.759C249.236 340.943 249.36 338.719 248.578 337.937C247.444 336.803 246.941 336.983 246.183 338.792ZM33.6299 339.167C33.7999 339.442 33.5749 339.667 33.1299 339.667C32.6849 339.667 32.4599 339.442 32.6299 339.167C32.7999 338.892 33.0249 338.667 33.1299 338.667C33.2349 338.667 33.4599 338.892 33.6299 339.167ZM284.38 341.917C284.38 342.33 284.291 342.667 284.183 342.667C284.075 342.667 283.857 342.33 283.699 341.917C283.541 341.505 283.629 341.167 283.895 341.167C284.162 341.167 284.38 341.505 284.38 341.917Z" fill="black"/>
</svg>
