<svg width="288" height="261" viewBox="0 0 288 261" fill="none" xmlns="http://www.w3.org/2000/svg">
<path d="M102.5 197.5L82.5 208.5L86 190.5L71 132L54.5 131L61 138.5L48.5 167L37.5 189L19.5 196L4.5 186L34 176.5V149.5L38.5 104L45 103L46.5 95L41 90L36 92.5L24.5 91L18.5 81L6.5 78L9 73.5L6.5 70L11.5 65L10 60L17 56.5L9 34L11.5 33L24.5 44.5L30 41L39 44.5L43.5 37.5H54L59.5 28L65.5 34L59.5 49L70.5 60L73.5 66L115 63.5L173 72.5L194.5 44.5L195.5 20.5L203 6L210 33L189.5 74.5L207 90L193.5 122L199.5 131L198.5 136.5L196 197.5V204L182.5 205L186.5 190.5L184.5 168L170 139L157.5 137.5L140 174L141 181.5L132.5 199L128 190.5L140 180.5L137.5 176.5L127 135.5L103 148L99 189L102.5 197.5Z" fill="white"/>
<path fill-rule="evenodd" clip-rule="evenodd" d="M201.474 1.54367C200.982 2.03567 199.162 5.12418 197.43 8.40768C195.698 11.6907 193.912 14.7942 193.461 15.3042C192.625 16.2487 192.471 20.7642 192.893 31.8767C192.977 34.0767 192.747 37.5232 192.382 39.5357L191.718 43.1947L188.558 44.6282C186.497 45.5622 185.485 46.2907 185.65 46.7202C186.181 48.1047 178.103 62.9462 174.575 67.0682C173.022 68.8822 172.692 69.0557 171.752 68.5522C170.259 67.7532 162.288 66.2472 154.891 65.3667C151.453 64.9577 146.953 64.3997 144.891 64.1267C142.828 63.8542 138.666 63.3047 135.641 62.9057C130.723 62.2577 126.052 61.4927 115.3 59.5752C113.434 59.2422 110.786 59.1262 109.3 59.3117C107.837 59.4947 102.184 60.0852 96.7362 60.6242C91.2887 61.1632 86.6592 61.7107 86.4487 61.8407C86.2387 61.9707 83.8857 62.2287 81.2207 62.4137C76.8307 62.7182 76.4047 62.6717 76.6932 61.9197C77.0507 60.9882 75.6242 59.1267 74.5527 59.1267C74.1767 59.1267 73.6177 58.5747 73.3107 57.9002C73.0032 57.2262 71.4892 55.7797 69.9462 54.6867C64.7347 50.9952 62.9142 48.7892 64.3472 47.9037C64.5982 47.7482 64.9537 46.6662 65.1367 45.4992C65.5232 43.0372 67.3032 37.5962 67.9487 36.9017C68.1917 36.6402 68.3857 35.2902 68.3792 33.9017C68.3692 31.7122 68.1277 31.1107 66.5627 29.3767C65.5702 28.2767 64.1707 26.5892 63.4522 25.6267C60.6127 21.8217 59.9842 22.0447 55.0157 28.6232C52.7467 31.6267 50.8907 34.3192 50.8907 34.6057C50.8907 35.4102 49.5457 35.2262 47.3907 34.1267C44.6237 32.7152 43.2142 32.8482 41.6852 34.6652C40.9732 35.5112 40.3907 36.4737 40.3907 36.8037C40.3907 37.1342 40.0377 37.9082 39.6057 38.5247L38.8212 39.6452L36.7657 37.8857C35.6357 36.9182 34.5102 36.1267 34.2652 36.1267C34.0197 36.1267 33.4742 35.7817 33.0522 35.3597C32.1442 34.4517 30.8337 34.7667 29.1797 36.2907C27.9052 37.4647 23.5637 40.6267 23.2262 40.6267C23.1127 40.6267 21.2742 38.3767 19.1407 35.6267C17.0072 32.8767 14.9532 30.6267 14.5762 30.6267C14.1992 30.6267 13.8907 30.4017 13.8907 30.1267C13.8907 29.8517 13.3582 29.6267 12.7072 29.6267C10.9572 29.6267 6.39069 31.6552 6.39069 32.4322C6.39069 32.8022 6.92768 34.2907 7.58368 35.7407C10.7257 42.6842 13.4372 50.3817 14.0317 54.0467C14.0992 54.4602 13.0662 55.0537 11.3347 55.5962C5.35719 57.4697 4.24419 60.0612 8.27069 62.7292C9.37969 63.4637 9.32468 63.5232 5.35518 65.8672C3.13018 67.1807 1.19819 68.5467 1.06169 68.9022C0.716195 69.8032 1.77618 71.6267 2.64618 71.6267C3.04218 71.6267 4.06869 72.0537 4.92669 72.5757L6.48668 73.5242L3.47419 75.5702C0.167686 77.8152 -0.765316 79.4107 0.631184 80.4317C1.17818 80.8317 1.88719 80.9132 2.56719 80.6547C3.70519 80.2222 6.23469 80.5712 11.1407 81.8372C12.7907 82.2627 14.9847 82.6147 16.0157 82.6187C17.5792 82.6252 17.8907 82.7997 17.8907 83.6667C17.8907 84.2387 19.2407 86.6782 20.8907 89.0872C22.5407 91.4962 23.8907 93.7237 23.8907 94.0372C23.8907 94.9617 25.9752 95.2277 31.7932 95.0467C36.8097 94.8907 37.4277 94.7627 39.1797 93.5152C41.0007 92.2182 41.1367 92.1942 42.0452 93.0152C43.7507 94.5562 45.0662 96.7092 44.5132 97.0532C44.2277 97.2312 43.7072 98.3892 43.3562 99.6267C42.9002 101.236 42.6552 101.592 42.4962 100.877C42.3742 100.327 41.8347 99.2582 41.2982 98.5017C40.5222 97.4077 39.9282 97.1267 38.3922 97.1267C36.1267 97.1267 34.8907 98.1537 34.8907 100.037C34.8907 100.774 34.4547 103.964 33.9217 107.126C33.3887 110.289 32.4657 116.139 31.8697 120.127C31.2742 124.114 30.4727 128.605 30.0887 130.107C29.1012 133.969 29.1652 140.818 30.2037 142.403C30.8947 143.457 31.0557 145.963 31.2737 159.079L31.5307 174.514L28.9362 175.07C27.5092 175.376 25.9207 175.627 25.4057 175.627C23.1487 175.627 8.81669 179.612 7.58269 180.583C6.85269 181.157 5.96719 181.627 5.61469 181.627C5.26219 181.627 3.95519 182.063 2.71019 182.597C0.779693 183.424 0.398186 183.829 0.112186 185.352C-0.112314 186.549 -0.000317335 187.406 0.452183 187.951C0.823183 188.398 4.61769 190.445 8.88369 192.499C13.1502 194.553 17.3157 196.865 18.1407 197.636C18.9657 198.407 22.6577 200.553 26.3452 202.405C30.0327 204.257 33.8577 206.498 34.8452 207.384C35.8327 208.271 37.9907 209.847 39.6407 210.888C41.2907 211.928 45.2282 214.469 48.3907 216.535C58.7267 223.287 60.5877 224.45 64.8197 226.803C67.1182 228.081 69.3207 229.127 69.7147 229.127C70.5372 229.127 73.4257 230.534 77.3907 232.866C84.5187 237.058 90.2502 240.325 97.1407 244.125C101.266 246.399 105.878 249.055 107.391 250.027C111.714 252.804 116.429 255.255 116.779 254.905C117.98 253.704 110.409 247.728 101.446 242.803C99.1392 241.536 96.4122 239.74 95.3857 238.813C94.3592 237.885 93.3647 237.127 93.1757 237.127C92.9867 237.127 92.0017 236.464 90.9862 235.654C89.3022 234.311 82.0802 229.78 75.5297 225.956C72.3927 224.125 72.3802 223.587 75.5127 225.219C76.7352 225.856 79.7392 227.352 82.1882 228.545C84.6372 229.737 92.4907 233.594 99.6407 237.115C106.791 240.636 113.766 244.019 115.141 244.633C117.425 245.653 127.637 251.357 134.391 255.385C142.051 259.954 149.12 262.366 146.561 259.539C146.081 259.008 143.937 257.533 141.797 256.26C139.657 254.987 137.997 253.854 138.108 253.743C138.307 253.543 139.001 253.824 144.432 256.303C147.608 257.752 153.79 259.644 156.391 259.962L158.141 260.176L156.174 258.449C153.827 256.389 139.06 247.535 130.641 243.139C127.341 241.416 123.628 239.391 122.391 238.639C121.153 237.886 118.609 236.433 116.737 235.408C114.865 234.384 112.615 232.93 111.737 232.177C109.795 230.512 104.271 226.97 94.1407 220.895C92.4907 219.905 88.8907 217.656 86.1407 215.896C83.3907 214.136 79.2282 211.627 76.8907 210.321C74.5532 209.014 70.8792 206.861 68.7262 205.536C66.5732 204.211 64.6502 203.127 64.4527 203.127C64.2552 203.127 62.5917 202.14 60.7557 200.934C58.9192 199.728 56.4902 198.258 55.3577 197.668C54.2247 197.078 50.4167 194.689 46.8947 192.361C43.3732 190.032 40.3002 188.125 40.0662 188.124C39.8322 188.122 39.2722 187.473 38.8217 186.681C38.3312 185.818 37.2762 185.001 36.1877 184.642C34.4087 184.055 34.3162 184.092 31.5067 186.495C28.3927 189.16 26.3707 190.627 25.8132 190.627C25.6177 190.627 25.3152 190.177 25.1407 189.627C24.9437 189.006 24.3842 188.627 23.6647 188.627C22.9802 188.627 22.1702 188.115 21.6867 187.377C21.2362 186.689 20.4937 186.127 20.0362 186.127C18.7842 186.127 12.7982 187.614 11.5167 188.243C10.2612 188.859 9.26469 188.323 10.3817 187.632C11.7152 186.808 19.1227 184.488 26.3642 182.627C32.2597 181.111 33.6752 180.573 34.0652 179.698C34.3282 179.109 34.7312 178.627 34.9602 178.627C36.5057 178.627 37.7627 169.596 36.5252 167.385C35.8967 166.261 36.2212 145.799 36.9137 142.877C37.1747 141.777 37.9432 137.052 38.6222 132.377C39.3007 127.702 40.3007 121.064 40.8442 117.627C41.3882 114.189 41.8837 110.139 41.9462 108.627C42.1067 104.72 42.2117 104.556 44.3237 104.894C49.0467 105.648 52.8387 106.77 53.1167 107.494C53.2807 107.922 53.6382 109.87 53.9112 111.824C54.7547 117.858 55.6527 120.143 58.2577 122.883C59.5682 124.262 61.0907 125.92 61.6407 126.567L62.6407 127.744L58.8837 127.465C52.8577 127.018 53.1332 127.358 52.9457 120.127C52.6807 109.878 52.3327 108.392 50.0622 107.816C48.1817 107.338 46.9837 108.417 46.6072 110.927C46.2277 113.456 47.0872 131.731 47.6262 132.603C47.8117 132.904 49.3397 133.844 51.0217 134.693C52.7037 135.542 54.7032 136.697 55.4652 137.261L56.8502 138.285L54.8057 142.081C53.6812 144.169 52.2837 146.756 51.7007 147.831C50.8302 149.436 49.9707 150.091 46.8907 151.495C42.5287 153.483 41.2452 154.557 39.8202 157.41C38.9542 159.145 38.8822 159.677 39.3877 160.621C39.9397 161.652 40.2337 161.724 42.7077 161.433L45.4217 161.114L44.5592 162.431C44.0847 163.155 43.6637 164.114 43.6242 164.562C43.5847 165.01 43.0452 167.402 42.4252 169.877C41.8052 172.352 41.2122 174.827 41.1077 175.377C41.0032 175.927 40.4352 177.89 39.8457 179.739C38.7412 183.202 38.8087 184.435 40.1307 184.942C42.5862 185.884 44.7697 183.508 46.8522 177.627C48.4002 173.255 58.9042 152.659 63.4277 145.127C65.0567 142.414 65.4242 141.446 65.1052 140.707C64.9082 140.25 64.7902 139.314 64.8432 138.627C64.9087 137.77 64.3167 136.73 62.9622 135.32L60.9852 133.264L64.5217 132.967C66.4662 132.804 68.2452 132.787 68.4742 132.928C68.7032 133.07 68.8907 133.72 68.8907 134.374C68.8907 135.027 69.1272 136.183 69.4157 136.943C70.4287 139.606 75.5297 159.907 75.9062 162.773C76.1152 164.365 76.5257 166.278 76.8187 167.023C77.4772 168.7 78.8907 175.672 78.8907 177.244C78.8907 177.882 79.2232 178.879 79.6302 179.46C80.0367 180.04 81.0282 182.476 81.8332 184.872C83.4407 189.655 83.4997 189.021 80.8987 194.877C75.6367 206.723 75.7047 206.519 76.5737 207.844C77.7137 209.585 80.9277 210.396 84.1317 209.753C85.9982 209.378 86.7502 209.406 87.1317 209.863C87.4117 210.199 88.5407 210.994 89.6407 211.63C90.7407 212.266 92.2032 213.289 92.8907 213.904C94.5377 215.377 105.958 223.088 109.141 224.875C110.516 225.648 114.003 227.521 116.891 229.038C119.778 230.555 122.98 232.321 124.006 232.962C125.032 233.603 126.044 234.128 126.256 234.13C126.468 234.133 128.441 235.166 130.641 236.427C139.006 241.222 141.227 242.373 158.391 250.81C160.453 251.824 163.378 253.548 164.891 254.642C168.384 257.168 171.763 258.921 172.233 258.451C173.101 257.583 170.591 254.679 166.427 251.735C160.746 247.719 160.384 247.295 162.086 246.647C162.804 246.375 163.391 245.911 163.391 245.616C163.391 244.609 158.912 241.004 156.891 240.384C155.733 240.029 147.774 235.938 146.641 235.115C146.366 234.916 141.191 232.222 135.141 229.13C123.791 223.329 116.486 219.514 112.141 217.12C110.766 216.362 107.166 214.451 104.141 212.872C101.116 211.294 98.0157 209.561 97.2512 209.02C96.4872 208.48 95.0277 207.808 94.0077 207.526L92.1532 207.014L93.8967 206.172L95.6407 205.329L100.506 207.728C103.182 209.047 105.472 210.127 105.594 210.127C106.144 210.127 113.874 213.884 117.089 215.714C120.469 217.638 122.806 218.897 133.141 224.366C151.985 234.338 156.342 236.855 167.903 244.449C170.143 245.92 172.895 246.537 172.88 245.564C172.862 244.489 171.363 242.919 168.641 241.124C163.961 238.04 162.266 235.932 165.862 237.67C169.208 239.286 174.391 241.028 174.391 240.535C174.391 240.278 174.616 240.207 174.891 240.377C175.166 240.547 175.391 240.474 175.391 240.216C175.391 239.328 172.13 237.291 164.891 233.656C160.903 231.654 154.339 228.242 150.303 226.073C146.268 223.905 142.443 221.93 141.803 221.685C141.164 221.44 138.953 220.033 136.89 218.558C130.086 213.694 107.083 199.627 105.933 199.627C105.654 199.627 105.17 200.105 104.857 200.689C104.07 202.16 105.465 203.435 111.141 206.434C115.629 208.805 121.844 212.627 121.213 212.627C120.692 212.627 105.447 205.254 102.99 203.815L100.792 202.527L102.303 200.952C104.527 198.635 104.735 196.423 103.004 193.521C101.703 191.339 101.624 190.912 101.94 187.771C102.127 185.904 102.652 182.352 103.106 179.877C103.56 177.402 103.928 174.252 103.924 172.877C103.913 168.633 105.485 159.027 106.892 154.741C108.001 151.363 107.758 149.738 106.081 149.317C104.627 148.952 104.562 147.822 105.685 142.393C106.426 138.81 106.422 138.49 105.623 137.607C105.068 136.994 104.859 136.182 105.028 135.298C105.234 134.224 104.863 133.43 103.276 131.549L101.264 129.162L102.806 126.769C103.654 125.453 105.033 123.632 105.869 122.721C107.775 120.647 107.806 119.319 105.974 118.267L104.558 117.454L105.749 115.323C106.775 113.487 106.85 113.048 106.29 112.15C105.825 111.403 105.264 111.166 104.313 111.316C102.915 111.536 96.4267 114.977 96.3402 115.545C96.3122 115.727 96.2147 116.685 96.1232 117.673C96.0322 118.662 95.6322 120.237 95.2342 121.173C94.4907 122.924 94.4572 122.906 93.6302 120.308C93.4142 119.631 92.8877 119.539 90.5912 119.776C89.0632 119.933 87.3242 120.378 86.7272 120.763C86.1297 121.148 84.5157 121.735 83.1407 122.067C81.7657 122.4 80.2467 122.789 79.7657 122.933C78.9922 123.164 78.8907 122.797 78.8907 119.76C78.8907 117.842 79.1442 116.073 79.4652 115.752C80.4622 114.755 78.6617 112.627 76.8207 112.627C75.1032 112.627 75.1042 112.659 76.6967 108.502C77.5392 106.303 77.5457 106.067 76.7872 105.309C75.4607 103.982 74.4417 104.872 72.5622 108.998C71.5902 111.131 70.2537 114.044 69.5927 115.471C68.1452 118.595 68.1007 119.493 69.3282 120.845C69.8437 121.412 70.6607 123.114 71.1442 124.627C71.6277 126.139 72.2602 127.675 72.5497 128.04C72.9307 128.52 72.8777 128.831 72.3587 129.164C71.0557 130.001 70.1482 129.398 69.6632 127.371C69.4002 126.274 69.0477 125.264 68.8792 125.127C68.0127 124.42 64.2012 119.214 63.4127 117.661C62.9147 116.68 62.1162 114.077 61.6392 111.877C61.1617 109.677 60.5732 107.663 60.3307 107.402C59.2907 106.279 59.9427 104.759 62.1407 103.18C64.4007 101.557 64.9212 100.239 63.9232 98.6622C63.5382 98.0537 63.0377 98.0437 60.5557 98.5947C58.9527 98.9502 56.9007 99.4612 55.9967 99.7292C54.7387 100.102 54.0842 100.041 53.2107 99.4682C52.5822 99.0567 51.1392 98.4417 50.0037 98.1012L47.9387 97.4827L49.0397 96.6227C49.6452 96.1497 51.4907 95.3812 53.1407 94.9157C54.7907 94.4497 56.7492 93.6327 57.4932 93.0997C58.7972 92.1647 61.6492 91.0772 64.5157 90.4222C66.0272 90.0767 66.3792 88.6542 65.1962 87.6727C64.2792 86.9117 63.8472 84.5367 64.4852 83.7647C64.7637 83.4287 65.8122 83.0052 66.8157 82.8242C70.9252 82.0832 71.4682 80.6037 68.5157 78.1922C66.6452 76.6637 66.6437 76.6602 67.9747 76.6437C68.7087 76.6342 69.6087 76.5167 69.9747 76.3822C71.3197 75.8877 71.9407 76.8332 71.3622 78.4932C70.9347 79.7197 70.9857 80.3602 71.6062 81.5602C72.0377 82.3942 72.7367 83.2707 73.1597 83.5072C73.8052 83.8687 73.5812 84.4537 71.7617 87.1572C70.5702 88.9277 68.9557 91.0517 68.1742 91.8767C65.1792 95.0392 64.0942 97.8527 65.6407 98.4457C66.0532 98.6042 66.3907 99.2482 66.3907 99.8767C66.3907 101.056 67.2327 101.627 68.9747 101.627C69.5262 101.627 71.1597 100.446 72.6047 99.0017C74.0502 97.5577 76.4627 95.6277 77.9667 94.7122L80.7012 93.0477L80.3327 90.4622C79.7587 86.4382 79.7967 86.1267 80.8627 86.1267C81.3977 86.1267 82.4607 85.5882 83.2257 84.9302C84.4157 83.9072 84.6272 83.3297 84.6862 80.9457C84.7837 77.0027 85.7942 75.6267 88.5912 75.6267C91.0187 75.6267 91.7342 75.0507 92.0227 72.8642C92.2482 71.1552 93.3717 70.8227 96.6257 71.5012L98.6112 71.9152L94.7507 74.0337C91.3352 75.9087 90.8907 76.3167 90.8907 77.5782C90.8907 78.3627 91.2002 79.2612 91.5782 79.5752C91.9567 79.8887 92.5472 81.1502 92.8912 82.3782C93.4837 84.4937 93.4252 84.8272 91.7787 88.7437C90.8227 91.0167 89.7577 93.6007 89.4122 94.4852C89.0662 95.3697 88.4697 96.3537 88.0867 96.6712C87.7042 96.9892 87.3907 97.6372 87.3907 98.1112C87.3907 98.5857 86.9352 99.4987 86.3792 100.14C84.1077 102.759 86.8977 103.451 89.9877 101.035C92.6602 98.9452 93.5787 97.9217 95.2352 95.1867C96.8402 92.5377 98.8907 87.0352 98.8907 85.3787C98.8907 84.7177 99.1802 83.9967 99.5342 83.7767C99.8887 83.5567 101.182 82.1532 102.409 80.6582C103.637 79.1632 104.978 77.5717 105.391 77.1217C105.803 76.6712 106.994 75.3632 108.036 74.2147C109.72 72.3592 110.18 72.1267 112.161 72.1267C113.618 72.1267 114.391 72.3447 114.391 72.7552C114.391 73.4307 111.67 76.0927 109.582 77.4612C108.299 78.3017 108.295 78.3292 108.98 81.6547C109.074 82.1087 107.997 83.3687 106.392 84.6837C104.88 85.9217 103.569 87.3197 103.479 87.7902C103.282 88.8117 105.507 89.8402 109.004 90.3442C110.304 90.5312 111.486 90.8767 111.631 91.1112C111.948 91.6232 110.505 94.4007 109.222 95.7487C107.713 97.3342 106.743 100.096 107.411 100.901C108.913 102.711 111.344 102.134 112.621 99.6647C113.524 97.9192 116.54 94.8272 116.746 95.4367C116.828 95.6787 117.341 96.6077 117.885 97.5017C118.928 99.2112 120.653 99.6642 121.791 98.5267C122.547 97.7702 122.567 96.0027 121.827 95.2632C121.518 94.9537 120.953 92.7582 120.573 90.3847L119.882 86.0697L121.488 83.7232C122.685 81.9732 128.583 74.1612 130.195 72.1897C130.279 72.0872 130.69 72.1342 131.107 72.2947C131.747 72.5402 131.632 73.0842 130.379 75.7317C129.561 77.4612 128.891 79.1582 128.891 79.5017C128.891 79.8457 128.666 80.1267 128.391 80.1267C128.116 80.1267 127.891 80.4097 127.891 80.7557C127.891 81.1017 126.989 82.7657 125.886 84.4532C123.843 87.5807 123.709 88.8432 125.367 89.3692C126.899 89.8552 127.748 89.1657 132.335 83.7042C139.448 75.2362 141.808 73.1267 144.17 73.1267H145.903L144.124 76.5017C143.146 78.3577 141.962 80.5082 141.493 81.2797C140.679 82.6202 140.684 82.7157 141.611 83.4047C143.55 84.8462 144.565 84.2707 150.481 78.3767L156.252 72.6267H160.11H163.968L161.805 74.3642C160.614 75.3197 157.955 77.3867 155.895 78.9572C153.835 80.5272 151.135 82.7517 149.895 83.8997C146.955 86.6217 145.75 87.2277 144.325 86.7002C143.351 86.3397 140.126 86.6907 139.659 87.2082C139.399 87.4957 136.6 93.7292 135.379 96.7377L134.218 99.5987L133.216 97.6252C132.276 95.7737 132.265 95.5937 133.052 94.7247C133.983 93.6962 134.151 92.3467 133.405 91.8857C131.205 90.5257 125.46 98.6272 124.725 104.127C124.291 107.376 121.513 112.35 119.137 114.13C116.664 115.983 116.113 116.939 116.943 117.94C117.842 119.023 119.493 118.712 121.372 117.106C122.324 116.293 123.261 115.627 123.454 115.627C123.647 115.627 123.334 116.74 122.759 118.101C121.888 120.164 121.791 120.968 122.177 122.928C122.432 124.222 123.004 125.506 123.448 125.783C125.032 126.77 125.767 125.829 126.374 122.037C126.941 118.491 129.266 112.572 130.356 111.899C131.211 111.37 130.976 109.712 129.891 108.627C129.341 108.077 128.891 107.307 128.891 106.917C128.891 105.667 130.512 103.333 132.1 102.295C133.596 101.318 133.669 101.316 134.603 102.208C135.133 102.713 135.952 103.127 136.425 103.127C136.897 103.127 137.392 103.41 137.525 103.755C137.658 104.101 139.248 106.349 141.06 108.751C142.872 111.153 144.914 114.121 145.598 115.347L146.842 117.575L145.241 118.536C131.357 126.87 123.91 130.716 119.236 131.968C115.832 132.88 114.135 134.087 113.674 135.924C113.507 136.587 113.001 137.127 112.546 137.127C112.091 137.127 111.322 137.486 110.836 137.926C110.141 138.555 110.056 138.996 110.436 139.995C110.97 141.401 110.907 141.529 109.275 142.338C107.795 143.071 107.479 145.371 108.763 146.059C109.473 146.438 110.168 146.273 111.668 145.369C114.184 143.854 119.28 141.361 120.851 140.878C121.516 140.673 123.654 139.767 125.601 138.865C128.257 137.634 130.169 137.137 133.261 136.874C135.527 136.681 137.529 136.49 137.709 136.45C137.889 136.41 138.348 137.446 138.728 138.752L139.421 141.127H141.941C144.268 141.127 144.448 141.213 144.301 142.252C144.165 143.209 143.792 143.399 141.806 143.528C139.779 143.658 139.409 143.857 139.004 145.028C138.748 145.77 138.614 146.827 138.706 147.377C138.972 148.962 137.907 153.491 137.113 154.15C136.024 155.054 135.192 154.08 134.44 151.024C132.869 144.638 131.227 140.074 130.327 139.592C128.357 138.538 126.273 141.038 127.386 143.118C127.689 143.684 127.834 144.314 127.708 144.517C127.583 144.72 128.362 148.26 129.44 152.382C131.306 159.514 132.511 166.08 133.065 172.127C133.407 175.857 134.134 177.554 135.632 178.123C137.738 178.924 137.151 180.222 133.648 182.51C131.864 183.674 130.274 184.627 130.115 184.627C129.956 184.627 129.3 185.252 128.657 186.016C128.014 186.781 126.942 187.698 126.276 188.054C125.118 188.674 123.891 191.076 123.891 192.724C123.891 193.15 124.871 194.403 126.069 195.508C127.906 197.201 128.29 197.889 128.517 199.897C128.864 202.982 131.149 204.489 133.914 203.459C134.947 203.074 135.704 203.268 137.914 204.487C139.414 205.314 145.478 208.425 151.391 211.401C157.303 214.376 163.266 217.501 164.641 218.344C166.016 219.187 169.046 220.777 171.376 221.877C173.705 222.977 180.405 226.295 186.264 229.252C192.124 232.208 197.531 234.631 198.28 234.635C199.028 234.64 201.553 235.439 203.891 236.41C212.554 240.011 216.319 240.825 215.596 238.94C215.271 238.094 209.261 234.911 203.891 232.74C190.746 227.428 152.833 208.359 149.891 205.58C148.02 203.812 142.056 199.905 140.451 199.396C139.13 198.976 138.194 197.808 138.853 197.4C139.287 197.132 145.627 200.301 161.891 208.916C168.474 212.404 196.142 225.822 197.9 226.38C198.545 226.584 199.762 227.173 200.606 227.687C202.043 228.564 204.891 228.99 204.891 228.329C204.891 227.008 202.217 224.963 197.168 222.423C193.972 220.815 191.131 219.076 190.855 218.559C190.366 217.647 190.415 217.645 192.496 218.472C193.676 218.942 196.891 220.433 199.641 221.787C204.664 224.26 209.548 226.385 219.521 230.44C224.37 232.411 228.436 233.244 228.363 232.252C228.303 231.431 225.377 229.647 220.141 227.238C209.562 222.371 197.596 216.95 192.27 214.613C189.317 213.317 186.617 212.033 186.27 211.759C185.924 211.485 185.303 211.136 184.891 210.983C184.407 210.804 184.551 210.692 185.297 210.666C186.651 210.62 197.316 214.81 205.641 218.658C207.291 219.42 210.103 220.635 211.891 221.358C213.678 222.08 215.591 222.881 216.141 223.137C220.19 225.023 232.108 230.095 236.641 231.862C239.666 233.041 243.977 234.82 246.222 235.816C248.466 236.812 250.89 237.627 251.607 237.627C252.324 237.627 254.282 238.184 255.957 238.865C262.581 241.556 264.681 240.744 259.681 237.425C258.191 236.436 256.838 235.627 256.676 235.627C256.513 235.627 255.426 235.193 254.26 234.662C251.826 233.555 247.465 231.845 241.45 229.64C237.93 228.349 214.602 216.777 208.107 213.099C207.025 212.486 205.128 211.423 203.891 210.735C202.653 210.047 200.983 209.023 200.179 208.459L198.717 207.435L200.07 206.984C201.159 206.621 201.737 206.764 203.032 207.719C203.917 208.372 207.566 210.221 211.141 211.829C214.716 213.437 219.103 215.443 220.891 216.286C222.678 217.13 226.391 218.858 229.141 220.127C231.891 221.396 236.053 223.426 238.391 224.637C240.728 225.849 243.248 227.073 243.991 227.358C244.734 227.643 248.559 229.363 252.491 231.18C256.423 232.997 260.878 234.877 262.391 235.359C263.903 235.841 267.422 237.223 270.211 238.431C273 239.639 275.743 240.627 276.307 240.627C277.595 240.627 278.147 239.788 277.428 238.921C276.859 238.236 264.776 232.127 263.989 232.127C263.745 232.127 263.173 231.715 262.718 231.212C262.263 230.709 260.766 229.771 259.392 229.127C255.578 227.341 256.793 227.351 261.726 229.147C272.314 233.002 271.653 232.736 280.21 236.578C285.847 239.109 287.891 239.598 287.891 238.415C287.891 236.668 284.803 234.779 272.872 229.225C270.525 228.132 266.587 226.405 264.122 225.386C261.657 224.367 258.741 223.126 257.641 222.628C256.541 222.131 253.166 220.719 250.141 219.49C244.392 217.155 228.158 210.219 222.141 207.527C220.216 206.666 216.644 204.765 214.204 203.302C211.765 201.84 209.572 200.765 209.332 200.913C209.093 201.061 208.143 200.607 207.221 199.904C205.203 198.365 204.593 198.314 203.891 199.627C203.23 200.862 203.89 202.276 205.674 203.444C206.36 203.894 206.823 204.361 206.703 204.481C206.426 204.758 203.415 203.246 202.302 202.271C201.798 201.83 201.048 201.668 200.427 201.865C199.472 202.168 199.391 201.996 199.391 199.678C199.391 197.604 199.131 196.866 197.915 195.48C197.1 194.552 195.557 193.535 194.47 193.21C193.007 192.771 192.296 192.186 191.701 190.933C191.261 190.005 190.448 189.128 189.896 188.983C189.115 188.779 188.885 188.291 188.865 186.799C188.851 185.742 188.743 183.977 188.624 182.877C188.144 178.426 187.294 169.674 187.031 166.469C186.768 163.266 186.639 162.971 184.86 161.542C183.82 160.706 182.7 159.314 182.371 158.449C180.423 153.326 178.577 149.009 177.208 146.377C176.35 144.727 175.586 143.253 175.511 143.102C175.436 142.95 176.318 142.41 177.471 141.901C183.743 139.134 188.828 126.627 183.681 126.627C182.41 126.627 179.598 129.413 177.627 132.627C176.868 133.864 175.579 135.728 174.764 136.768C173.13 138.852 172.268 138.703 171.651 136.231C171.224 134.522 169.986 133.127 168.897 133.127C167.497 133.127 167.39 132.589 168.394 130.621C169.493 128.467 174.523 122.064 176.769 119.961C178.259 118.566 178.305 118.557 179.896 119.38C182.156 120.548 184.401 120.735 185.727 119.866C187.405 118.767 187.681 118.893 189.857 121.752C190.956 123.196 192.747 125.399 193.838 126.648L195.82 128.92L191.388 131.824C185.936 135.394 185.169 136.191 185.579 137.859C185.751 138.556 186.037 139.745 186.215 140.502C186.81 143.022 188.876 143.308 192.656 141.394C193.996 140.716 195.193 140.262 195.316 140.386C195.829 140.899 195.849 156.553 195.341 160.549C195.039 162.929 194.783 165.327 194.773 165.877C194.764 166.427 194.543 167.889 194.284 169.127C194.024 170.364 193.745 173.768 193.663 176.69C193.582 179.612 193.216 183.17 192.85 184.597C191.974 188.015 192.481 188.827 195.62 189.031C198.521 189.22 200.099 188.108 199.723 186.141C199.447 184.698 200.594 177.616 201.324 176.252C202.089 174.822 201.287 171.953 199.96 171.377C198.978 170.95 198.851 170.62 199.099 169.127C199.664 165.717 202.045 148.732 202.639 143.877C202.807 142.502 203.404 139.181 203.966 136.498L204.987 131.619L203.439 129.855C202.587 128.885 201.891 127.814 201.891 127.475C201.891 127.136 200.408 125.175 198.596 123.117C195.921 120.081 195.474 119.344 196.221 119.2C197.634 118.929 198.933 117.577 199.895 115.377C201.662 111.332 203.6 107.188 207.45 99.2197C209.617 94.7332 211.391 90.5067 211.391 89.8267C211.391 89.1187 210.841 88.1182 210.103 87.4837C209.394 86.8747 207.651 85.2262 206.228 83.8202C204.805 82.4142 202.628 80.6377 201.391 79.8722C200.153 79.1067 198.448 77.8947 197.6 77.1787C196.753 76.4627 195.441 75.3957 194.686 74.8072L193.312 73.7382L196.351 67.1712C198.023 63.5592 199.391 60.5182 199.391 60.4137C199.391 59.9532 207.493 43.4972 208.867 41.1662C209.705 39.7452 210.391 38.3472 210.391 38.0597C210.391 37.7722 210.862 37.1552 211.438 36.6887L212.486 35.8402L210.742 28.6087C207.161 13.7597 205.891 8.09419 205.899 7.00119C205.91 5.58869 203.855 1.26868 203.004 0.914183C202.654 0.768683 201.966 1.05167 201.474 1.54367ZM203.531 15.9872C203.961 17.8517 204.565 20.6142 204.872 22.1267C205.18 23.6392 205.799 26.1822 206.248 27.7777L207.065 30.6782L204.563 32.8662C201.256 35.7597 197.336 38.7382 197.12 38.5222C197.025 38.4272 196.91 35.4307 196.865 31.8632C196.798 26.5272 196.958 24.8887 197.769 22.6267C199.693 17.2567 201.99 12.1292 202.367 12.3617C202.577 12.4917 203.101 14.1232 203.531 15.9872ZM61.7942 34.5017C63.2942 35.7782 63.3617 35.9662 62.7397 37.1267C62.3717 37.8142 60.9192 40.5142 59.5132 43.1267L56.9557 47.8767L57.9377 50.0017C58.4777 51.1702 59.1512 52.1267 59.4337 52.1267C59.7162 52.1267 59.5972 52.6267 59.1692 53.2382C57.9102 55.0352 58.2302 55.6087 61.2657 56.9967C62.8472 57.7197 65.0807 58.9067 66.2302 59.6342L68.3197 60.9572L65.2302 61.5242C63.5307 61.8357 61.1817 62.2317 60.0092 62.4037C56.1622 62.9687 55.8092 65.7687 59.1407 69.2952C60.3782 70.6057 61.3907 71.7472 61.3907 71.8327C61.3907 71.9182 60.8662 71.8877 60.2252 71.7652C59.5847 71.6427 58.2347 71.8877 57.2252 72.3092C54.7517 73.3427 54.8087 74.7457 57.4327 77.4192L59.4742 79.4997L57.8577 80.0632C56.9687 80.3732 55.7867 80.6267 55.2307 80.6267C54.0397 80.6267 52.3907 81.9877 52.3907 82.9707C52.3907 83.3497 53.1697 84.4392 54.1222 85.3912C56.3467 87.6162 57.1977 89.1267 56.2257 89.1267C55.8407 89.1267 54.9892 88.7152 54.3332 88.2117C52.2622 86.6227 51.4472 86.5722 48.9892 87.8807C45.5092 89.7332 43.5877 89.9732 42.5157 88.6902L41.6407 87.6422L38.3707 88.7992L35.1012 89.9567L31.8707 88.9897C30.0942 88.4577 28.0387 87.9107 27.3032 87.7737C26.2632 87.5797 25.4617 86.6562 23.6947 83.6152C21.3732 79.6197 20.8597 79.0492 19.4477 78.8962C19.0037 78.8477 18.0782 78.5697 17.3907 78.2782C16.7032 77.9867 14.7907 77.4497 13.1407 77.0847L10.1407 76.4212L12.1407 76.1492C13.7312 75.9322 14.1732 75.6467 14.3002 74.7537C14.4242 73.8802 13.9562 73.3257 12.1912 72.2537C10.9432 71.4967 9.9152 70.7117 9.9067 70.5102C9.8977 70.3087 11.0722 69.5517 12.5157 68.8282C17.2057 66.4777 17.7592 65.3997 15.8557 62.3197L14.8207 60.6452L17.5392 59.4427C19.9132 58.3927 20.2997 58.0197 20.5847 56.5007C20.9977 54.2977 20.6507 53.4057 19.1057 52.7017C18.4292 52.3937 17.6752 51.6317 17.4297 51.0092C14.0482 42.4297 11.3747 34.9762 11.5982 34.7527C11.7897 34.5612 14.5547 37.7712 17.0157 41.0417C18.3022 42.7522 18.8932 44.0582 18.8982 45.2052C18.9112 47.9782 19.2637 48.1727 23.8467 47.9392C27.4942 47.7532 28.1437 47.5712 29.3757 46.3912L30.7717 45.0537L33.7817 45.9777C37.0507 46.9817 37.0027 46.7272 34.5187 49.8452C33.6037 50.9937 33.2617 51.1422 32.6667 50.6482C32.0907 50.1702 31.3582 50.2107 29.1967 50.8392C26.2172 51.7052 24.3907 53.4552 24.3907 55.4442C24.3907 57.0982 25.5867 56.9497 28.8907 54.8867C31.4297 53.3012 31.6532 53.2442 31.8007 54.1482C31.9137 54.8427 32.3577 55.1267 33.3297 55.1267C35.1047 55.1267 35.7397 54.5677 38.5842 50.4982C40.3257 48.0077 41.9407 46.4487 44.7302 44.5662C46.8112 43.1622 48.6252 41.5887 48.7607 41.0697C49.0537 39.9497 50.2647 39.8742 51.6112 40.8927C53.7282 42.4937 56.5867 41.5217 57.0847 39.0317C57.4667 37.1207 59.3232 33.1267 59.8292 33.1267C60.0212 33.1267 60.9057 33.7452 61.7942 34.5017ZM43.8907 48.2162C40.7282 51.5372 37.9807 54.6707 37.7857 55.1802C37.5092 55.9007 37.9167 56.4407 39.6257 57.6162C40.8332 58.4472 42.0137 59.1267 42.2497 59.1267C42.4857 59.1267 44.5812 58.3362 46.9067 57.3702C51.5982 55.4212 54.5187 53.0547 53.4957 52.0317C53.0357 51.5717 52.3937 51.5527 50.8882 51.9547C49.7897 52.2477 48.8907 52.4047 48.8907 52.3027C48.8907 52.2012 49.5777 51.1697 50.4172 50.0112C51.4837 48.5382 51.8562 47.5582 51.6547 46.7552C51.4962 46.1232 51.6127 45.1462 51.9132 44.5847C52.5517 43.3917 51.7827 42.1102 50.4547 42.1527C50.0067 42.1667 47.0532 44.8957 43.8907 48.2162ZM197.671 48.7517C196.744 50.8442 196.297 51.3457 195.469 51.2237C192.979 50.8567 191.487 53.1517 193.141 54.8052C194.034 55.6987 194.075 56.4502 193.342 58.5522C192.818 60.0562 192.672 60.1267 190.092 60.1267C188.207 60.1267 187.391 59.9302 187.391 59.4757C187.391 59.1182 188.862 56.5867 190.66 53.8507C193.216 49.9617 194.443 48.5777 196.285 47.5057C197.581 46.7517 198.684 46.1332 198.737 46.1307C198.791 46.1287 198.311 47.3077 197.671 48.7517ZM49.9137 57.5202C48.0462 58.1832 42.0202 64.1397 41.6337 65.7052C41.1562 67.6387 42.1297 69.1267 43.8727 69.1267C45.6102 69.1267 46.8907 67.9757 46.8907 66.4142C46.8907 65.2907 47.8847 64.0927 50.8632 61.6267C51.7017 60.9322 52.3767 59.8842 52.3817 59.2692C52.3917 58.0562 51.0607 57.1127 49.9137 57.5202ZM21.3737 61.1587C20.6482 62.5142 21.2932 63.2692 23.9152 64.1347C25.6112 64.6947 25.9092 64.9847 25.6892 65.8622C25.3517 67.2052 26.9872 69.9312 28.3987 70.3792C30.1387 70.9317 31.8907 68.9232 31.8907 66.3767C31.8907 63.9922 30.9957 62.9807 27.3357 61.2297C24.3707 59.8107 22.1092 59.7837 21.3737 61.1587ZM186.895 63.9367C189.39 64.9352 190.11 66.0992 189.313 67.8482C188.992 68.5512 188.598 69.1252 188.435 69.1232C187.419 69.1122 183.391 65.6182 183.391 64.7477C183.391 64.3592 184.41 63.1267 184.731 63.1267C184.808 63.1267 185.782 63.4912 186.895 63.9367ZM34.0157 64.1442C32.6772 64.6797 32.5262 66.4712 33.6372 68.6197C34.6517 70.5817 34.2677 71.2657 31.2367 72.8947C26.4032 75.4932 24.3907 77.0937 24.3907 78.3397C24.3907 79.7332 25.0292 80.2997 27.4967 81.0942C29.1382 81.6227 29.3247 81.8467 29.1082 83.0342C28.6527 85.5337 29.3687 85.8822 34.8362 85.8227C39.2787 85.7742 39.9747 85.6407 41.3372 84.5727C43.1087 83.1847 43.6927 81.6252 42.9567 80.2497C42.2172 78.8682 43.1362 78.1482 45.2112 78.4852C46.4352 78.6837 47.1912 78.5102 47.9022 77.8667C49.7932 76.1552 48.8342 74.6757 45.3492 73.9272C44.6387 73.7742 43.0287 73.0747 41.7717 72.3717C40.0362 71.4022 39.2322 70.5262 38.4342 68.7357C36.1117 63.5267 35.9577 63.3667 34.0157 64.1442ZM76.0482 68.9512C76.2267 69.1292 75.6187 70.1102 74.6972 71.1302C73.7752 72.1502 72.9102 73.2982 72.7742 73.6807C72.6387 74.0637 72.4297 74.2642 72.3102 74.1267C72.1902 73.9892 71.1262 72.6957 69.9452 71.2517L67.7977 68.6267H71.7607C73.9407 68.6267 75.8702 68.7727 76.0482 68.9512ZM84.6192 70.0922C84.7777 70.3482 84.6747 70.7012 84.3912 70.8762C84.1077 71.0517 83.5617 71.9467 83.1777 72.8652C82.7942 73.7837 81.6567 75.8222 80.6502 77.3957C79.2402 79.5997 78.6847 80.1197 78.2307 79.6617C77.4102 78.8347 82.2162 69.6267 83.4682 69.6267C83.9432 69.6267 84.4612 69.8362 84.6192 70.0922ZM180.698 70.7067C183.282 72.6412 188.349 77.7897 188.087 78.2132C187.947 78.4407 187.396 78.6267 186.863 78.6267C185.26 78.6267 179.034 81.7927 174.477 84.9257C174.386 84.9877 174.25 85.6067 174.174 86.3017C174.066 87.2842 174.353 87.6967 175.463 88.1567C176.248 88.4817 176.891 88.8647 176.891 89.0072C176.891 89.1497 176.184 90.4152 175.32 91.8192C173.829 94.2427 173.779 94.4842 174.341 96.5847C174.917 98.7392 176.02 100.079 177.246 100.111C178.04 100.132 180.055 97.9517 181.943 95.0297C182.974 93.4327 184.196 92.3262 185.765 91.5667C187.635 90.6612 191.736 87.8332 195.203 85.0587C195.846 84.5437 202.562 89.5487 203.096 90.9412C203.632 92.3382 202.654 92.7887 200.973 91.9192C200.13 91.4832 199.206 91.1267 198.92 91.1267C197.209 91.1267 187.617 100.301 187.077 102.454C186.287 105.6 189.455 105.881 195.141 103.171C197.341 102.122 199.202 101.313 199.277 101.374C199.489 101.544 195.994 109.552 194.552 112.2C193.658 113.844 193.364 114.954 193.588 115.845C193.765 116.55 193.723 117.127 193.496 117.127C192.843 117.127 188.391 111.773 188.391 110.988C188.391 109.82 186.872 108.841 182.144 106.96C178.021 105.319 177.554 105.232 176.519 105.91C175.899 106.317 175.391 106.911 175.391 107.231C175.391 108.05 177.431 110.127 178.235 110.127C178.603 110.127 179.295 110.352 179.773 110.627C180.25 110.901 181.259 111.346 182.016 111.614C183.779 112.24 183.745 112.672 181.847 113.752C180.515 114.51 180.178 114.534 179.318 113.932C178.772 113.55 177.834 113.364 177.233 113.519C176.119 113.807 168.119 121.898 165.936 124.945C165.273 125.87 164.573 126.627 164.381 126.627C164.188 126.627 163.892 125.333 163.722 123.752L163.414 120.877L168.653 115.715C174.518 109.936 174.617 109.634 171.816 106.055C171.032 105.053 170.391 103.887 170.391 103.463C170.391 103.04 169.955 102.556 169.421 102.386C168.213 102.003 163.746 104.2 162.701 105.692C162.03 106.65 162.028 106.941 162.677 108.197C163.081 108.978 164.026 110.001 164.776 110.471C165.527 110.94 166.24 111.398 166.361 111.488C166.701 111.74 161.245 117.128 160.658 117.121C160.373 117.117 159.52 115.598 158.762 113.746C157.47 110.588 156.076 108.22 153.138 104.191L151.909 102.506L152.9 101.114C153.445 100.349 153.891 99.5517 153.891 99.3427C153.891 99.1337 155.193 97.4812 156.785 95.6697C158.377 93.8587 162.468 89.0017 165.876 84.8767C169.284 80.7517 173.494 75.8797 175.231 74.0502C176.969 72.2207 178.391 70.4772 178.391 70.1752C178.391 69.3467 179.1 69.5102 180.698 70.7067ZM39.1082 75.5907C39.7127 76.2587 39.8677 76.9117 39.6122 77.7157C39.4097 78.3542 39.2972 78.9692 39.3622 79.0817C39.6527 79.5857 38.0107 80.0112 36.7247 79.7652C34.9937 79.4342 34.5217 78.4242 35.5952 77.3507C36.0362 76.9097 36.6287 76.1162 36.9117 75.5877C37.5592 74.3782 38.0112 74.3787 39.1082 75.5907ZM162.075 81.2517C161.377 82.4172 154.958 89.8687 153.441 91.2742C152.612 92.0427 151.211 93.7862 150.328 95.1492C149.445 96.5117 148.604 97.6267 148.459 97.6267C147.954 97.6267 145.391 94.9357 145.393 94.4082C145.395 94.1157 146.632 92.9837 148.143 91.8917C149.654 90.8002 150.891 89.7612 150.891 89.5832C150.891 89.4052 151.735 88.6747 152.766 87.9602C153.797 87.2452 156.328 85.3172 158.391 83.6747C162.461 80.4342 162.633 80.3207 162.075 81.2517ZM148.246 103.252C149.985 105.152 150.111 106.451 148.695 107.868C148.002 108.561 147.22 109.127 146.955 109.127C146.44 109.127 143.391 105.479 143.391 104.862C143.391 104.265 145.883 102.127 146.579 102.127C146.93 102.127 147.68 102.633 148.246 103.252ZM133.903 113.114C132.742 114.275 132.249 115.946 132.477 117.941C132.713 120.007 135.164 120.218 137.048 118.333C138.717 116.664 138.753 115.163 137.165 113.45C135.697 111.867 135.202 111.816 133.903 113.114ZM157.358 125.502C157.702 127.083 158.413 129.121 158.937 130.03C159.462 130.94 159.891 131.757 159.891 131.845C159.891 131.934 158.372 131.93 156.516 131.835C154.66 131.741 150.69 131.548 147.694 131.406C144.698 131.265 142.143 131.046 142.017 130.92C141.891 130.793 143.586 129.786 145.784 128.68C147.982 127.575 151.212 125.763 152.961 124.654C154.71 123.544 156.274 122.634 156.436 122.632C156.599 122.629 157.013 123.92 157.358 125.502ZM90.8707 130.607C93.9477 133.636 94.1297 134.587 91.2657 132.673C88.2597 130.664 87.0792 130.402 84.9607 131.273C83.9597 131.685 81.1582 132.591 78.7352 133.286C74.9987 134.358 74.2867 134.438 74.0482 133.817C73.6662 132.821 73.6487 132.831 77.9797 131.67C80.0822 131.106 82.8687 130.079 84.1712 129.386C85.4737 128.693 86.9472 128.127 87.4452 128.127C87.9432 128.127 89.4847 129.243 90.8707 130.607ZM92.2577 138.368C97.0052 141.72 97.3907 142.041 97.3907 142.646C97.3907 143.131 97.0827 143.201 94.4322 143.314C92.7302 143.387 93.0657 143.082 90.4872 146.897C87.9047 150.718 87.4927 151.827 87.4682 155.024C87.4442 158.083 88.2437 159.127 90.6102 159.127C91.9727 159.127 92.4822 158.788 93.5547 157.167C94.2677 156.089 94.9857 154.672 95.1497 154.018C95.4002 153.02 99.8132 148.627 100.565 148.627C100.696 148.627 100.61 149.245 100.372 150.002C98.3207 156.534 97.8907 158.055 97.8907 158.787C97.8907 159.83 97.5402 159.848 96.5467 158.854C95.4062 157.714 94.0382 158.819 92.1407 162.415C90.5252 165.477 87.5372 167.881 84.9272 168.219C83.7992 168.366 83.6212 168.059 82.4027 163.877C81.6817 161.402 80.8447 158.927 80.5427 158.377C80.2407 157.827 79.7327 155.577 79.4137 153.377C79.0947 151.177 78.1327 147.185 77.2752 144.505C76.4182 141.826 75.8447 139.506 76.0017 139.349C76.4722 138.878 86.0537 135.768 87.2577 135.694C87.8877 135.656 90.0677 136.822 92.2577 138.368ZM41.3752 137.462C40.6962 137.92 40.0427 138.374 39.9232 138.47C39.8032 138.567 39.5632 139.597 39.3897 140.761C38.5907 146.115 43.3037 147.962 47.1912 143.818C50.9817 139.777 51.3907 139.254 51.3907 138.448C51.3907 137.31 49.1227 136.467 47.8682 137.139C47.0187 137.594 45.9912 137.523 43.3752 136.831C42.9542 136.72 42.0542 137.004 41.3752 137.462ZM152.807 140.518C152.716 140.734 152.191 141.971 151.641 143.267C151.011 144.75 150.327 145.624 149.795 145.625C148.569 145.628 148.266 144.845 148.639 142.638C148.913 141.014 149.193 140.651 150.305 140.481C152.687 140.116 152.977 140.121 152.807 140.518ZM169.175 144.356C169.924 146.292 170.708 148.102 170.919 148.377C171.526 149.168 173.354 153.871 175.584 160.377L177.641 166.377L179.875 166.627L182.109 166.877L182.99 172.627C183.475 175.789 183.974 180.903 184.1 183.991C184.226 187.079 184.545 189.99 184.808 190.461C185.188 191.14 184.602 192.141 181.964 195.316C180.136 197.516 177.369 200.68 175.814 202.346C172.799 205.579 172.222 206.969 173.337 208.311C173.952 209.053 173.923 209.11 173.086 208.807C172.566 208.618 171.578 208.076 170.891 207.601C170.203 207.126 168.178 206.004 166.391 205.108C164.603 204.212 161.678 202.645 159.891 201.626C158.103 200.607 155.403 199.099 153.891 198.275C149.701 195.994 143.445 192.12 143.132 191.613C142.978 191.364 143.528 189.575 144.353 187.636L145.853 184.11L144.824 180.744C144.258 178.892 143.336 176.88 142.775 176.273C141.783 175.198 141.78 175.12 142.64 173.273C144.671 168.913 147.516 163.332 148.016 162.728C148.872 161.693 152.264 154.784 154.403 149.718C155.485 147.156 156.788 144.456 157.299 143.718C157.81 142.981 158.373 141.976 158.55 141.486C158.83 140.709 159.443 140.611 163.343 140.715L167.814 140.835L169.175 144.356ZM148.009 150.085C148.763 150.353 148.41 151.311 145.317 157.385C143.359 161.231 141.131 165.614 140.367 167.127C139.603 168.639 138.82 170.721 138.628 171.752C138.437 172.783 138.111 173.627 137.906 173.627C137.701 173.627 137.257 171.545 136.92 169.002C136.583 166.458 136.197 163.63 136.063 162.718C135.867 161.387 136.078 160.818 137.13 159.843C137.852 159.174 138.753 158.627 139.132 158.627C140.202 158.627 141.797 156.031 142.39 153.326C143.328 149.051 143.241 149.166 145.288 149.486C146.307 149.646 147.531 149.915 148.009 150.085ZM97.0947 166.502C96.4937 174.73 95.3982 184.542 94.9482 185.725C94.3832 187.212 95.3717 189.623 98.0842 193.375C99.0777 194.749 99.8907 196.007 99.8907 196.17C99.8907 196.333 99.3217 196.725 98.6267 197.042C97.5047 197.553 97.3137 197.49 96.9287 196.477C96.0177 194.08 93.8352 193.444 92.7017 195.244C92.2817 195.911 92.3787 196.527 93.1207 197.904C93.9462 199.437 93.9812 199.763 93.3632 200.154C92.0902 200.96 91.7722 200.666 92.0887 198.977C92.2917 197.895 92.1492 196.993 91.6737 196.352C90.5547 194.846 89.3037 195.972 88.1407 199.532C87.2417 202.284 85.9052 204.067 84.7072 204.111C84.0122 204.136 84.6327 202.255 87.3412 196.127C90.1277 189.821 90.3932 188.237 88.8907 186.877C88.3407 186.379 87.8907 185.581 87.8907 185.104C87.8907 184.224 85.7417 175.617 85.1167 173.992C84.8192 173.218 84.9392 173.17 86.0792 173.603C87.6052 174.184 88.5487 173.917 90.7662 172.277C92.1267 171.271 93.8982 168.804 93.9157 167.891C93.9222 167.549 97.0017 162.627 97.2092 162.627C97.3017 162.627 97.2507 164.37 97.0947 166.502ZM136.891 186.361C136.891 187.1 132.639 192.627 132.186 192.478C131.157 192.139 131.303 190.191 132.426 189.274C133.03 188.781 134.113 187.878 134.833 187.268C136.079 186.21 136.891 185.853 136.891 186.361ZM48.3907 198.188C49.9032 199.239 52.1532 200.804 53.3907 201.666C57.6162 204.608 57.0477 204.511 49.3907 200.981C47.8782 200.284 44.8872 198.915 42.7437 197.939C40.6007 196.962 38.1957 195.7 37.3992 195.133C35.9862 194.127 35.9707 194.068 36.7597 192.694L37.5677 191.286L41.6042 193.781C43.8242 195.154 46.8782 197.137 48.3907 198.188ZM37.8492 199.972C37.9637 200.057 37.7232 200.127 37.3147 200.127C36.4827 200.127 32.3907 197.13 32.3907 196.521C32.3907 196.218 35.0472 197.898 37.8492 199.972ZM192.525 197.395C194.513 198.746 194.535 198.789 194.083 200.473C193.847 201.355 193.12 201.722 190.366 202.348C184.586 203.663 184.52 203.617 186.999 200.002C189.03 197.039 189.81 196.152 190.4 196.134C190.542 196.13 191.498 196.697 192.525 197.395ZM30.8907 200.144C30.8907 200.41 30.5807 200.627 30.2017 200.627C29.3712 200.627 28.2737 199.41 28.7107 198.973C29.1172 198.567 30.8907 199.519 30.8907 200.144ZM195.191 209.994C195.067 210.117 194.469 210.06 193.862 209.868C193.023 209.601 192.92 209.418 193.433 209.101C194.077 208.703 195.671 209.513 195.191 209.994ZM255.391 226.877C256.078 227.27 256.416 227.591 256.141 227.591C255.866 227.591 255.078 227.27 254.391 226.877C253.703 226.484 253.366 226.162 253.641 226.162C253.916 226.162 254.703 226.484 255.391 226.877Z" fill="#EA4A9D"/>
</svg>
